solid AC
facet normal -0.9999695534345772 0.007803345683254697 -2.8980476410332003e-30
  outer loop
    vertex 0.006242676546603036 1.4014777509306964 2.4
    vertex 0.0 0.6015021081830343 2.0
    vertex -2.8979594054360993e-31 0.6015021081830343 2.4
  endloop
endfacet
facet normal -0.9999695534345772 0.007803345683254697 -2.8980476410332003e-30
  outer loop
    vertex 0.0 0.6015021081830343 2.0
    vertex 0.006242676546603036 1.4014777509306964 2.4
    vertex 0.006242676546603036 1.4014777509306964 2.0
  endloop
endfacet
facet normal -0.007803345683254697 -0.9999695534345772 0.0
  outer loop
    vertex 0.20048930001170745 0.599937573234534 2.4
    vertex 0.0 0.6015021081830343 2.0
    vertex 0.20048930001170745 0.599937573234534 2.0
  endloop
endfacet
facet normal -0.007803345683254697 -0.9999695534345772 0.0
  outer loop
    vertex 0.0 0.6015021081830343 2.0
    vertex 0.20048930001170745 0.599937573234534 2.4
    vertex -2.8979594054360993e-31 0.6015021081830343 2.4
  endloop
endfacet
facet normal -2.8979594054360993e-30 2.2614467549522885e-32 1.0
  outer loop
    vertex 0.20048930001170745 0.599937573234534 2.4
    vertex 0.006242676546603036 1.4014777509306964 2.4
    vertex -2.8979594054360993e-31 0.6015021081830343 2.4
  endloop
endfacet
facet normal -2.8979594054360993e-30 2.2614467549522885e-32 1.0
  outer loop
    vertex 0.006242676546603036 1.4014777509306964 2.4
    vertex 0.20048930001170745 0.599937573234534 2.4
    vertex 0.2067319765583112 1.3999132159821956 2.4
  endloop
endfacet
facet normal 0.007803345683254697 0.9999695534345772 0.0
  outer loop
    vertex 0.006242676546603036 1.4014777509306964 2.4
    vertex 0.2067319765583112 1.3999132159821956 2.0
    vertex 0.006242676546603036 1.4014777509306964 2.0
  endloop
endfacet
facet normal 0.007803345683254697 0.9999695534345772 0.0
  outer loop
    vertex 0.2067319765583112 1.3999132159821956 2.0
    vertex 0.006242676546603036 1.4014777509306964 2.4
    vertex 0.2067319765583112 1.3999132159821956 2.4
  endloop
endfacet
facet normal 2.8979594054360993e-30 -2.2614467549522885e-32 -1.0
  outer loop
    vertex 0.006242676546603036 1.4014777509306964 2.0
    vertex 0.20048930001170745 0.599937573234534 2.0
    vertex 0.0 0.6015021081830343 2.0
  endloop
endfacet
facet normal 2.8979594054360993e-30 -2.2614467549522885e-32 -1.0
  outer loop
    vertex 0.20048930001170745 0.599937573234534 2.0
    vertex 0.006242676546603036 1.4014777509306964 2.0
    vertex 0.2067319765583112 1.3999132159821956 2.0
  endloop
endfacet
facet normal 0.9999695534345772 -0.007803345683254697 2.8980476410332003e-30
  outer loop
    vertex 0.2067319765583112 1.3999132159821956 2.0
    vertex 0.20048930001170745 0.599937573234534 2.4
    vertex 0.20048930001170745 0.599937573234534 2.0
  endloop
endfacet
facet normal 0.9999695534345772 -0.007803345683254697 2.8980476410332003e-30
  outer loop
    vertex 0.20048930001170745 0.599937573234534 2.4
    vertex 0.2067319765583112 1.3999132159821956 2.0
    vertex 0.2067319765583112 1.3999132159821956 2.4
  endloop
endfacet
endsolid AC
