solid K
facet normal 0.0 1.0 0.0
  outer loop
    vertex 1.0 6.399999999999998 0.7999999999999996
    vertex 4.0 6.399999999999998 -2.8516911054765615e-16
    vertex 1.0 6.399999999999998 -2.8516911054765615e-16
  endloop
endfacet
facet normal 0.0 1.0 0.0
  outer loop
    vertex 4.0 6.399999999999998 -2.8516911054765615e-16
    vertex 1.0 6.399999999999998 0.7999999999999996
    vertex 4.0 6.399999999999998 0.7999999999999996
  endloop
endfacet
facet normal 1.0 0.0 0.0
  outer loop
    vertex 4.0 6.399999999999998 -2.8516911054765615e-16
    vertex 4.0 5.6 0.7999999999999996
    vertex 4.0 5.6 -2.8516911054765615e-16
  endloop
endfacet
facet normal 1.0 0.0 0.0
  outer loop
    vertex 4.0 5.6 0.7999999999999996
    vertex 4.0 6.399999999999998 -2.8516911054765615e-16
    vertex 4.0 6.399999999999998 0.7999999999999996
  endloop
endfacet
facet normal 0.0 -1.0 0.0
  outer loop
    vertex 4.0 5.6 0.7999999999999996
    vertex 1.0 5.6 -2.8516911054765615e-16
    vertex 4.0 5.6 -2.8516911054765615e-16
  endloop
endfacet
facet normal 0.0 -1.0 0.0
  outer loop
    vertex 1.0 5.6 -2.8516911054765615e-16
    vertex 4.0 5.6 0.7999999999999996
    vertex 1.0 5.6 0.7999999999999996
  endloop
endfacet
facet normal -1.0 0.0 0.0
  outer loop
    vertex 1.0 6.399999999999998 0.7999999999999996
    vertex 1.0 5.6 -2.8516911054765615e-16
    vertex 1.0 5.6 0.7999999999999996
  endloop
endfacet
facet normal -1.0 0.0 0.0
  outer loop
    vertex 1.0 5.6 -2.8516911054765615e-16
    vertex 1.0 6.399999999999998 0.7999999999999996
    vertex 1.0 6.399999999999998 -2.8516911054765615e-16
  endloop
endfacet
facet normal 0.0 0.0 1.0
  outer loop
    vertex 4.0 5.6 0.7999999999999996
    vertex 1.0 6.399999999999998 0.7999999999999996
    vertex 1.0 5.6 0.7999999999999996
  endloop
endfacet
facet normal 0.0 0.0 1.0
  outer loop
    vertex 1.0 6.399999999999998 0.7999999999999996
    vertex 4.0 5.6 0.7999999999999996
    vertex 4.0 6.399999999999998 0.7999999999999996
  endloop
endfacet
endsolid TLDK
