solid sunG
facet normal 0.0 0.0 1.0
  outer loop
    vertex 2.5318181818181817 2.3 0.4
    vertex 2.0 2.3 0.4
    vertex 2.0 1.519999999999999 0.4
  endloop
endfacet
facet normal -1.0 2.313818652346989e-16 4.511946372076636e-16
  outer loop
    vertex 2.0 2.3 0.4
    vertex 1.9999999999999996 1.519999999999999 0.0
    vertex 2.0 1.519999999999999 0.4
  endloop
endfacet
facet normal -1.0 2.313818652346989e-16 4.511946372076636e-16
  outer loop
    vertex 1.9999999999999996 1.519999999999999 0.0
    vertex 2.0 2.3 0.4
    vertex 2.0 2.3 0.0
  endloop
endfacet
facet normal 0.0 0.0 -1.0
  outer loop
    vertex 1.7 2.4 0.0
    vertex 1.1 0.2 0.0
    vertex 0.2 0.2 0.0
  endloop
endfacet
facet normal 0.0 0.0 -1.0
  outer loop
    vertex 1.1 0.2 0.0
    vertex 1.7 2.4 0.0
    vertex 1.9999999999999996 1.519999999999999 0.0
  endloop
endfacet
facet normal 0.0 0.0 -1.0
  outer loop
    vertex 1.9999999999999996 1.519999999999999 0.0
    vertex 1.7 2.4 0.0
    vertex 2.0 2.3 0.0
  endloop
endfacet
facet normal 0.0 0.0 -1.0
  outer loop
    vertex 2.0 2.3 0.0
    vertex 1.7 2.4 0.0
    vertex 2.068181818181818 2.4 0.0
  endloop
endfacet
facet normal 0.0 0.0 -1.0
  outer loop
    vertex 4.0 1.8133333333333317 0.0
    vertex 3.8 0.2 0.0
    vertex 2.8999999999999995 0.2 0.0
  endloop
endfacet
facet normal 0.0 0.0 -1.0
  outer loop
    vertex 3.8 0.2 0.0
    vertex 4.0 1.8133333333333317 0.0
    vertex 4.010000000000001 0.5080000000000005 0.0
  endloop
endfacet
facet normal -1.0 0.0 3.0531133177191805e-16
  outer loop
    vertex 4.000000000000001 2.4 1.2899999999999998
    vertex 4.0 1.8133333333333317 0.0
    vertex 4.0 0.5080000000000005 0.0
  endloop
endfacet
facet normal -1.0 0.0 3.0531133177191805e-16
  outer loop
    vertex 4.0 1.8133333333333317 0.0
    vertex 4.000000000000001 2.4 1.2899999999999998
    vertex 4.0 2.4 0.3899999999999994
  endloop
endfacet
endsolid sunG
