solid bed
facet normal 1.0 -1.7145396213891472e-14 1.385270181891805e-15
  outer loop
    vertex 2.2990000000000053 3.8699999999999948 -0.20000000000000046
    vertex 2.299 3.72 1.6999999999999986
    vertex 2.299 3.72 -0.20000000000000046
  endloop
endfacet
facet normal 1.0 -1.7145396213891472e-14 1.385270181891805e-15
  outer loop
    vertex 2.299 3.72 1.6999999999999986
    vertex 2.2990000000000053 3.8699999999999948 -0.20000000000000046
    vertex 2.2990000000000026 3.8700000000000014 1.700000000000001
  endloop
endfacet
facet normal 0.0 0.0 -1.0
  outer loop
    vertex 2.2990000000000053 3.8699999999999948 -0.20000000000000046
    vertex 1.299 3.72 -0.20000000000000046
    vertex 1.299 3.870000000000002 -0.20000000000000046
  endloop
endfacet
facet normal 0.0 0.0 -1.0
  outer loop
    vertex 1.299 3.72 -0.20000000000000046
    vertex 2.2990000000000053 3.8699999999999948 -0.20000000000000046
    vertex 2.299 3.72 -0.20000000000000046
  endloop
endfacet
facet normal -1.0 0.0 0.0
  outer loop
    vertex 1.299 3.870000000000004 1.6999999999999986
    vertex 1.299 3.72 -0.20000000000000046
    vertex 1.299 3.72 1.6999999999999986
  endloop
endfacet
facet normal -1.0 0.0 0.0
  outer loop
    vertex 1.299 3.72 -0.20000000000000046
    vertex 1.299 3.870000000000004 1.6999999999999986
    vertex 1.299 3.870000000000002 -0.20000000000000046
  endloop
endfacet
facet normal -9.570795334708143e-16 -3.1583624604536738e-15 1.0
  outer loop
    vertex 2.299 3.72 1.6999999999999986
    vertex 1.299 3.870000000000004 1.6999999999999986
    vertex 1.299 3.72 1.6999999999999986
  endloop
endfacet
facet normal -9.570795334708143e-16 -3.1583624604536738e-15 1.0
  outer loop
    vertex 1.299 3.870000000000004 1.6999999999999986
    vertex 2.299 3.72 1.6999999999999986
    vertex 2.2990000000000026 3.8700000000000014 1.700000000000001
  endloop
endfacet
facet normal -0.0 -1.0 -0.0
  outer loop
    vertex 2.299 3.72 1.6999999999999986
    vertex 1.299 3.72 -0.20000000000000046
    vertex 2.299 3.72 -0.20000000000000046
  endloop
endfacet
facet normal -0.0 -1.0 -0.0
  outer loop
    vertex 1.299 3.72 -0.20000000000000046
    vertex 2.299 3.72 1.6999999999999986
    vertex 1.299 3.72 1.6999999999999986
  endloop
endfacet
facet normal 6.207660556419346e-15 1.0 -1.6376277925142783e-15
  outer loop
    vertex 1.299 3.870000000000004 1.6999999999999986
    vertex 2.2990000000000053 3.8699999999999948 -0.20000000000000046
    vertex 1.299 3.870000000000002 -0.20000000000000046
  endloop
endfacet
facet normal 6.207660556419346e-15 1.0 -1.6376277925142783e-15
  outer loop
    vertex 2.2990000000000053 3.8699999999999948 -0.20000000000000046
    vertex 1.299 3.870000000000004 1.6999999999999986
    vertex 2.2990000000000026 3.8700000000000014 1.700000000000001
  endloop
endfacet
endsolid bed
