solid Object01
facet normal 0.7334879850895394 0.672940566455767 0.09563665483212629
  outer loop
    vertex 1.6511049999999596 3.500153999999915 0.6664500999999836
    vertex 1.6567529999999595 3.4755009999999147 0.7966016999999803
    vertex 1.6584419999999593 3.492156999999915 0.6664490999999836
  endloop
endfacet
facet normal 0.9653908237851817 0.25651195407609306 0.047139948742362735
  outer loop
    vertex 1.6355319999999598 3.5364319999999134 0.6664273999999836
    vertex 1.6397889999999598 3.5204079999999136 0.6664417999999835
    vertex 1.6449689999999593 3.5247739999999137 0.5366016999999867
  endloop
endfacet
facet normal 0.999880953172259 0.010061126208160347 -0.011698428217431094
  outer loop
    vertex 1.6392719999999599 3.5594419999999127 0.6014644999999851
    vertex 1.6394789999999595 3.5389229999999134 0.6015098999999853
    vertex 1.6385329999999598 3.5574659999999128 0.5366016999999867
  endloop
endfacet
facet normal 0.8563786172798358 0.5127772550321599 0.06062302027744886
  outer loop
    vertex 1.6449689999999593 3.5247739999999137 0.5366016999999867
    vertex 1.6443719999999598 3.5104199999999133 0.6664477999999836
    vertex 1.6475399999999596 3.505128999999914 0.6664493999999836
  endloop
endfacet
facet normal 0.9359100390408828 0.3522310865211001 0.002379182771164355
  outer loop
    vertex 1.6389119999999595 3.540867999999913 0.5366016999999867
    vertex 1.6394789999999595 3.5389229999999134 0.6015098999999853
    vertex 1.6449689999999593 3.5247739999999137 0.5366016999999867
  endloop
endfacet
facet normal 0.16998084065216565 0.9793870424258567 0.1091216520197356
  outer loop
    vertex 1.667344999999959 3.4671809999999152 0.7966016999999803
    vertex 1.6777089999999588 3.4798829999999152 0.6664546999999835
    vertex 1.6674039999999593 3.4744389999999146 0.731367899999982
  endloop
endfacet
facet normal 0.9905855837511076 0.1236442109813887 0.05875636438095491
  outer loop
    vertex 1.6260769999999596 3.550321999999912 0.7966016999999803
    vertex 1.62953099999996 3.5226499999999135 0.7966016999999803
    vertex 1.6355319999999598 3.5364319999999134 0.6664273999999836
  endloop
endfacet
facet normal 0.4009856017785084 0.905078612382489 0.14157419459109066
  outer loop
    vertex 1.6777089999999588 3.4798829999999152 0.6664546999999835
    vertex 1.671794999999959 3.5028149999999143 0.5366016999999867
    vertex 1.6636489999999593 3.5064239999999134 0.5366016999999867
  endloop
endfacet
facet normal 0.9936865943598181 0.09217867681369135 0.06395344971511269
  outer loop
    vertex 1.6394789999999595 3.5389229999999134 0.6015098999999853
    vertex 1.6355319999999598 3.5364319999999134 0.6664273999999836
    vertex 1.6449689999999593 3.5247739999999137 0.5366016999999867
  endloop
endfacet
facet normal 0.5616298363506191 0.82073110099716 0.10474916122225682
  outer loop
    vertex 1.6664049999999595 3.496244999999914 0.6015794999999854
    vertex 1.6636489999999593 3.5064239999999134 0.5366016999999867
    vertex 1.6563539999999592 3.5114159999999135 0.5366016999999867
  endloop
endfacet
facet normal 0.8107579647816995 0.5809853807217458 0.07160663328662197
  outer loop
    vertex 1.6500729999999595 3.5175979999999134 0.5366016999999867
    vertex 1.6475399999999596 3.505128999999914 0.6664493999999836
    vertex 1.6511049999999596 3.500153999999915 0.6664500999999836
  endloop
endfacet
facet normal 0.4673922923306011 0.8754984037816017 0.12266617319299361
  outer loop
    vertex 1.6792769999999588 3.4608109999999153 0.7966016999999803
    vertex 1.6777089999999588 3.4798829999999152 0.6664546999999835
    vertex 1.667344999999959 3.4671809999999152 0.7966016999999803
  endloop
endfacet
facet normal 0.9997070205188315 0.022827386478875746 -0.008048823013619947
  outer loop
    vertex 1.6385329999999598 3.5574659999999128 0.5366016999999867
    vertex 1.6394789999999595 3.5389229999999134 0.6015098999999853
    vertex 1.6389119999999595 3.540867999999913 0.5366016999999867
  endloop
endfacet
facet normal 0.4464023725151371 0.8830190366934795 0.14492171214064725
  outer loop
    vertex 1.6674039999999593 3.4744389999999146 0.731367899999982
    vertex 1.6777089999999588 3.4798829999999152 0.6664546999999835
    vertex 1.6664049999999595 3.496244999999914 0.6015794999999854
  endloop
endfacet
facet normal 0.9063606097411194 0.4159287346341668 0.07425451377072685
  outer loop
    vertex 1.6397889999999598 3.5204079999999136 0.6664417999999835
    vertex 1.6398779999999598 3.4969769999999136 0.7966016999999803
    vertex 1.6443719999999598 3.5104199999999133 0.6664477999999836
  endloop
endfacet
facet normal 0.9973968089096393 0.010866443445058497 0.07128482295498557
  outer loop
    vertex 1.6352649999999596 3.561108999999912 0.6664014999999835
    vertex 1.6260769999999596 3.550321999999912 0.7966016999999803
    vertex 1.6355319999999598 3.5364319999999134 0.6664273999999836
  endloop
endfacet
facet normal 0.855035876614795 0.5119798718531803 0.08240303707249118
  outer loop
    vertex 1.6443719999999598 3.5104199999999133 0.6664477999999836
    vertex 1.6398779999999598 3.4969769999999136 0.7966016999999803
    vertex 1.6475399999999596 3.505128999999914 0.6664493999999836
  endloop
endfacet
facet normal 0.8128199161373811 0.5781260941980504 0.07137228550163999
  outer loop
    vertex 1.6449689999999593 3.5247739999999137 0.5366016999999867
    vertex 1.6475399999999596 3.505128999999914 0.6664493999999836
    vertex 1.6500729999999595 3.5175979999999134 0.5366016999999867
  endloop
endfacet
facet normal 0.9077283437299991 0.41654188258267993 0.050220653556776025
  outer loop
    vertex 1.6449689999999593 3.5247739999999137 0.5366016999999867
    vertex 1.6397889999999598 3.5204079999999136 0.6664417999999835
    vertex 1.6443719999999598 3.5104199999999133 0.6664477999999836
  endloop
endfacet
facet normal 0.6889238498067681 0.7177908470961446 0.10079796125131084
  outer loop
    vertex 1.6567529999999595 3.4755009999999147 0.7966016999999803
    vertex 1.6674039999999593 3.4744389999999146 0.731367899999982
    vertex 1.6584419999999593 3.492156999999915 0.6664490999999836
  endloop
endfacet
facet normal 0.9639820693653777 0.2561596436969669 0.07155981332485058
  outer loop
    vertex 1.6355319999999598 3.5364319999999134 0.6664273999999836
    vertex 1.62953099999996 3.5226499999999135 0.7966016999999803
    vertex 1.6397889999999598 3.5204079999999136 0.6664417999999835
  endloop
endfacet
facet normal 0.615335684178537 0.7833696594734552 0.08771529167126205
  outer loop
    vertex 1.667344999999959 3.4671809999999152 0.7966016999999803
    vertex 1.6674039999999593 3.4744389999999146 0.731367899999982
    vertex 1.6567529999999595 3.4755009999999147 0.7966016999999803
  endloop
endfacet
facet normal 0.9254505440267788 0.37298472243386765 0.06651080657660126
  outer loop
    vertex 1.62953099999996 3.5226499999999135 0.7966016999999803
    vertex 1.6398779999999598 3.4969769999999136 0.7966016999999803
    vertex 1.6397889999999598 3.5204079999999136 0.6664417999999835
  endloop
endfacet
facet normal 0.7340013264647965 0.6734124865078066 0.0880776689251735
  outer loop
    vertex 1.6563539999999592 3.5114159999999135 0.5366016999999867
    vertex 1.6511049999999596 3.500153999999915 0.6664500999999836
    vertex 1.6584419999999593 3.492156999999915 0.6664490999999836
  endloop
endfacet
facet normal 0.5198920939125321 0.8461617826032269 0.11714285445118842
  outer loop
    vertex 1.6584419999999593 3.492156999999915 0.6664490999999836
    vertex 1.6664049999999595 3.496244999999914 0.6015794999999854
    vertex 1.6563539999999592 3.5114159999999135 0.5366016999999867
  endloop
endfacet
facet normal 0.7836119538965153 0.6157315944311837 0.08262511319034929
  outer loop
    vertex 1.6511049999999596 3.500153999999915 0.6664500999999836
    vertex 1.6398779999999598 3.4969769999999136 0.7966016999999803
    vertex 1.6567529999999595 3.4755009999999147 0.7966016999999803
  endloop
endfacet
facet normal 0.698633317068676 0.7098213950999861 0.08980576451391271
  outer loop
    vertex 1.6511049999999596 3.500153999999915 0.6664500999999836
    vertex 1.6563539999999592 3.5114159999999135 0.5366016999999867
    vertex 1.6500729999999595 3.5175979999999134 0.5366016999999867
  endloop
endfacet
facet normal 0.583855640744293 0.8054977057705565 0.10142010042117466
  outer loop
    vertex 1.6777089999999588 3.4798829999999152 0.6664546999999835
    vertex 1.6636489999999593 3.5064239999999134 0.5366016999999867
    vertex 1.6664049999999595 3.496244999999914 0.6015794999999854
  endloop
endfacet
facet normal 0.6220716522424434 0.7729065389628843 0.1250693467831818
  outer loop
    vertex 1.6674039999999593 3.4744389999999146 0.731367899999982
    vertex 1.6664049999999595 3.496244999999914 0.6015794999999854
    vertex 1.6584419999999593 3.492156999999915 0.6664490999999836
  endloop
endfacet
facet normal 0.8099684353204823 0.5804213663570096 0.08403672566653232
  outer loop
    vertex 1.6475399999999596 3.505128999999914 0.6664493999999836
    vertex 1.6398779999999598 3.4969769999999136 0.7966016999999803
    vertex 1.6511049999999596 3.500153999999915 0.6664500999999836
  endloop
endfacet
facet normal 0.9980598169455855 0.010863145117428124 0.061307372123605076
  outer loop
    vertex 1.6352649999999596 3.561108999999912 0.6664014999999835
    vertex 1.6355319999999598 3.5364319999999134 0.6664273999999836
    vertex 1.6392719999999599 3.5594419999999127 0.6014644999999851
  endloop
endfacet
facet normal 0.9980810131452931 0.01020398557521957 0.061075116678122904
  outer loop
    vertex 1.6392719999999599 3.5594419999999127 0.6014644999999851
    vertex 1.6355319999999598 3.5364319999999134 0.6664273999999836
    vertex 1.6394789999999595 3.5389229999999134 0.6015098999999853
  endloop
endfacet
facet normal 0.9441806493244117 0.31011875382947 -0.11112722422785942
  outer loop
    vertex 1.6359069999999598 3.5354399999999133 0.8864672999999782
    vertex 1.6404429999999597 3.521176999999913 0.8852036999999784
    vertex 1.62953099999996 3.5226499999999135 0.7966016999999803
  endloop
endfacet
facet normal 0.3647523243268061 0.9255532461305003 -0.10152305391134563
  outer loop
    vertex 1.7057079999999583 3.4651049999999146 0.9307100999999772
    vertex 1.6808469999999587 3.4607689999999147 0.8018594999999803
    vertex 1.6792769999999588 3.4608109999999153 0.7966016999999803
  endloop
endfacet
facet normal 0.36326517216535986 0.9261670910899001 -0.10125677297714235
  outer loop
    vertex 1.7057079999999583 3.4651049999999146 0.9307100999999772
    vertex 1.6878469999999588 3.4605859999999153 0.8252985999999797
    vertex 1.6808469999999587 3.4607689999999147 0.8018594999999803
  endloop
endfacet
facet normal 0.3634504659677659 0.9260913143709698 -0.10128492599821283
  outer loop
    vertex 1.7057079999999583 3.4651049999999146 0.9307100999999772
    vertex 1.715643999999958 3.459856999999915 0.9183796999999775
    vertex 1.6878469999999588 3.4605859999999153 0.8252985999999797
  endloop
endfacet
facet normal 0.3634504659677659 0.9260913143709698 -0.10128492599821283
  outer loop
    vertex 1.715643999999958 3.459856999999915 0.9183796999999775
    vertex 1.7057079999999583 3.4651049999999146 0.9307100999999772
    vertex 1.7091274704876556 3.4632989048781493 0.926466603161902
  endloop
endfacet
facet normal 0.46753517561642166 0.8757660463822948 -0.12018607059574736
  outer loop
    vertex 1.7057079999999583 3.4651049999999146 0.9307100999999772
    vertex 1.6792769999999588 3.4608109999999153 0.7966016999999803
    vertex 1.667344999999959 3.4671809999999152 0.7966016999999803
  endloop
endfacet
facet normal 0.5003952832276601 0.855998026285287 -0.12989203023743534
  outer loop
    vertex 1.6968069999999582 3.471898999999915 0.9411928999999768
    vertex 1.7057079999999583 3.4651049999999146 0.9307100999999772
    vertex 1.667344999999959 3.4671809999999152 0.7966016999999803
  endloop
endfacet
facet normal 0.6107449681724687 0.7775253248657302 -0.14981639778225478
  outer loop
    vertex 1.6968069999999582 3.471898999999915 0.9411928999999768
    vertex 1.667344999999959 3.4671809999999152 0.7966016999999803
    vertex 1.6567529999999595 3.4755009999999147 0.7966016999999803
  endloop
endfacet
facet normal 0.9438563311188884 0.1737310173398156 -0.2809853373769954
  outer loop
    vertex 1.6458509999999595 3.5497999999999124 0.9297447999999773
    vertex 1.6588099999999595 3.549241999999912 0.9729302999999763
    vertex 1.6616659999999597 3.5339799999999135 0.9730874999999761
  endloop
endfacet
facet normal 0.9221405435258305 0.3716506915382453 -0.10738985736572117
  outer loop
    vertex 1.62953099999996 3.5226499999999135 0.7966016999999803
    vertex 1.6404429999999597 3.521176999999913 0.8852036999999784
    vertex 1.6398779999999598 3.4969769999999136 0.7966016999999803
  endloop
endfacet
facet normal 0.802960428613348 0.5625861498915533 -0.19685368686226576
  outer loop
    vertex 1.6404429999999597 3.521176999999913 0.8852036999999784
    vertex 1.6639569999999588 3.4840699999999143 0.8750688999999785
    vertex 1.6462479999999595 3.496261999999914 0.8376777999999795
  endloop
endfacet
facet normal 0.9890829685471099 0.1234566555855153 -0.0804570414673345
  outer loop
    vertex 1.6260769999999596 3.550321999999912 0.7966016999999803
    vertex 1.6333909999999598 3.5503209999999132 0.8865133999999782
    vertex 1.62953099999996 3.5226499999999135 0.7966016999999803
  endloop
endfacet
facet normal 0.9816566154568178 0.1662623296236427 -0.09331198785785445
  outer loop
    vertex 1.6333909999999598 3.5503209999999132 0.8865133999999782
    vertex 1.6359069999999598 3.5354399999999133 0.8864672999999782
    vertex 1.62953099999996 3.5226499999999135 0.7966016999999803
  endloop
endfacet
facet normal 0.8020567905091361 0.5628261558516245 -0.19982898460300108
  outer loop
    vertex 1.6404429999999597 3.521176999999913 0.8852036999999784
    vertex 1.678807999999959 3.4931879999999143 0.9603577999999763
    vertex 1.6639569999999588 3.4840699999999143 0.8750688999999785
  endloop
endfacet
facet normal 0.6298484485788832 0.7574843036078838 -0.17178027130742735
  outer loop
    vertex 1.6960639999999585 3.472560999999915 0.9420419999999768
    vertex 1.6742429999999588 3.474364999999915 0.8699881999999787
    vertex 1.6639569999999588 3.4840699999999143 0.8750688999999785
  endloop
endfacet
facet normal 0.8242524028603562 0.518423017737516 -0.22769618147623005
  outer loop
    vertex 1.6404429999999597 3.521176999999913 0.8852036999999784
    vertex 1.6528799999999593 3.5202889999999134 0.9282033999999771
    vertex 1.678807999999959 3.4931879999999143 0.9603577999999763
  endloop
endfacet
facet normal 0.5578392132194797 0.8165568014566658 -0.1484937782855938
  outer loop
    vertex 1.6960639999999585 3.472560999999915 0.9420419999999768
    vertex 1.6968069999999582 3.471898999999915 0.9411928999999768
    vertex 1.6742429999999588 3.474364999999915 0.8699881999999787
  endloop
endfacet
facet normal 0.23665298162580567 0.9707128905300965 -0.041374514454203225
  outer loop
    vertex 1.6968069999999582 3.471898999999915 0.9411928999999768
    vertex 1.6567529999999595 3.4755009999999147 0.7966016999999803
    vertex 1.6742429999999588 3.474364999999915 0.8699881999999787
  endloop
endfacet
facet normal 0.7814851360152993 0.6140604242064903 -0.11050238735201427
  outer loop
    vertex 1.6398779999999598 3.4969769999999136 0.7966016999999803
    vertex 1.6462479999999595 3.496261999999914 0.8376777999999795
    vertex 1.6567529999999595 3.4755009999999147 0.7966016999999803
  endloop
endfacet
facet normal 0.8827402103650125 0.45179770341942893 -0.12902928423293397
  outer loop
    vertex 1.6404429999999597 3.521176999999913 0.8852036999999784
    vertex 1.6462479999999595 3.496261999999914 0.8376777999999795
    vertex 1.6398779999999598 3.4969769999999136 0.7966016999999803
  endloop
endfacet
facet normal 0.9107401278893643 0.30957658380192943 -0.273340004780843
  outer loop
    vertex 1.6484669999999593 3.5347119999999133 0.9298347999999772
    vertex 1.6660179999999594 3.5194159999999135 0.9709890999999762
    vertex 1.6528799999999593 3.5202889999999134 0.9282033999999771
  endloop
endfacet
facet normal 0.6616644700048675 0.7246199557406338 -0.19268121048929474
  outer loop
    vertex 1.678807999999959 3.4931879999999143 0.9603577999999763
    vertex 1.6960639999999585 3.472560999999915 0.9420419999999768
    vertex 1.6639569999999588 3.4840699999999143 0.8750688999999785
  endloop
endfacet
facet normal 0.6616644700048675 0.7246199557406338 -0.19268121048929474
  outer loop
    vertex 1.6960639999999585 3.472560999999915 0.9420419999999768
    vertex 1.678807999999959 3.4931879999999143 0.9603577999999763
    vertex 1.6945488040504841 3.4743723842381797 0.9436504991568233
  endloop
endfacet
facet normal 0.6616644700048675 0.7246199557406338 -0.19268121048929474
  outer loop
    vertex 1.6945488040504841 3.4743723842381797 0.9436504991568233
    vertex 1.678807999999959 3.4931879999999143 0.9603577999999763
    vertex 1.6807584401815403 3.4908569820552495 0.9582881426862736
  endloop
endfacet
facet normal 0.6415867201184736 0.7539354224420569 -0.1412368909128794
  outer loop
    vertex 1.6639569999999588 3.4840699999999143 0.8750688999999785
    vertex 1.6742429999999588 3.474364999999915 0.8699881999999787
    vertex 1.6567529999999595 3.4755009999999147 0.7966016999999803
  endloop
endfacet
facet normal 0.9103871345804557 0.31130933045584025 -0.2725468142567878
  outer loop
    vertex 1.6484669999999593 3.5347119999999133 0.9298347999999772
    vertex 1.6646279583595132 3.5240682446211262 0.9716594916750749
    vertex 1.6660179999999594 3.5194159999999135 0.9709890999999762
  endloop
endfacet
facet normal 0.9103871345804557 0.31130933045584025 -0.2725468142567878
  outer loop
    vertex 1.6646279583595132 3.5240682446211262 0.9716594916750749
    vertex 1.6484669999999593 3.5347119999999133 0.9298347999999772
    vertex 1.6632060259554604 3.5288269333066253 0.9723451654040481
  endloop
endfacet
facet normal 0.9103871345804557 0.31130933045584025 -0.2725468142567878
  outer loop
    vertex 1.6632060259554604 3.5288269333066253 0.9723451654040481
    vertex 1.6484669999999593 3.5347119999999133 0.9298347999999772
    vertex 1.6616659999999597 3.5339799999999135 0.9730874999999761
  endloop
endfacet
facet normal 0.9445745043078216 0.16206996121928766 -0.28550364880682605
  outer loop
    vertex 1.6458509999999595 3.5497999999999124 0.9297447999999773
    vertex 1.6616659999999597 3.5339799999999135 0.9730874999999761
    vertex 1.6484669999999593 3.5347119999999133 0.9298347999999772
  endloop
endfacet
facet normal 0.9135019299579701 0.313489533752863 -0.25930394557444875
  outer loop
    vertex 1.6359069999999598 3.5354399999999133 0.8864672999999782
    vertex 1.6484669999999593 3.5347119999999133 0.9298347999999772
    vertex 1.6404429999999597 3.521176999999913 0.8852036999999784
  endloop
endfacet
facet normal 0.8289129673519003 0.5032283064878644 -0.24426330896232326
  outer loop
    vertex 1.6528799999999593 3.5202889999999134 0.9282033999999771
    vertex 1.6766458735450045 3.497622254775265 0.9621553196199799
    vertex 1.678807999999959 3.4931879999999143 0.9603577999999763
  endloop
endfacet
facet normal 0.8289129673519003 0.5032283064878644 -0.24426330896232326
  outer loop
    vertex 1.6766458735450045 3.497622254775265 0.9621553196199799
    vertex 1.6528799999999593 3.5202889999999134 0.9282033999999771
    vertex 1.6682483246222586 3.5148425614398886 0.9691353549904607
  endloop
endfacet
facet normal 0.8289129673519003 0.5032283064878644 -0.24426330896232326
  outer loop
    vertex 1.6682483246222586 3.5148425614398886 0.9691353549904607
    vertex 1.6528799999999593 3.5202889999999134 0.9282033999999771
    vertex 1.6660179999999594 3.5194159999999135 0.9709890999999762
  endloop
endfacet
facet normal 0.9484367119155599 0.1628204437273175 -0.2719509268144542
  outer loop
    vertex 1.6458509999999595 3.5497999999999124 0.9297447999999773
    vertex 1.6484669999999593 3.5347119999999133 0.9298347999999772
    vertex 1.6359069999999598 3.5354399999999133 0.8864672999999782
  endloop
endfacet
facet normal 0.7444019309323532 0.6529653053202017 -0.13964983090673613
  outer loop
    vertex 1.6462479999999595 3.496261999999914 0.8376777999999795
    vertex 1.6639569999999588 3.4840699999999143 0.8750688999999785
    vertex 1.6567529999999595 3.4755009999999147 0.7966016999999803
  endloop
endfacet
facet normal 0.9152220824255339 0.30924984151160545 -0.2583274576302643
  outer loop
    vertex 1.6484669999999593 3.5347119999999133 0.9298347999999772
    vertex 1.6528799999999593 3.5202889999999134 0.9282033999999771
    vertex 1.6404429999999597 3.521176999999913 0.8852036999999784
  endloop
endfacet
facet normal 0.9488251021591991 0.16126343605710128 -0.27152353434581444
  outer loop
    vertex 1.6333909999999598 3.5503209999999132 0.8865133999999782
    vertex 1.6458509999999595 3.5497999999999124 0.9297447999999773
    vertex 1.6359069999999598 3.5354399999999133 0.8864672999999782
  endloop
endfacet
facet normal -0.9861922591705878 0.023928311401403564 0.16386660387488863
  outer loop
    vertex 1.7860769999999562 3.550321999999912 0.7966016999999803
    vertex 1.775268999999956 3.5277119999999136 0.734857899999982
    vertex 1.7865849999999561 3.5196629999999134 0.8041358999999803
  endloop
endfacet
facet normal -0.9804955183114055 0.07546575126836697 0.18147578063408176
  outer loop
    vertex 1.7763029999999564 3.549491999999913 0.731387399999982
    vertex 1.7722659999999566 3.5285949999999136 0.7182657999999823
    vertex 1.775268999999956 3.5277119999999136 0.734857899999982
  endloop
endfacet
facet normal -0.8403057505790221 0.5018666970846261 0.20497820347830736
  outer loop
    vertex 1.7845339999999565 3.5057439999999143 0.81102649999998
    vertex 1.7610599999999568 3.4903279999999146 0.7525394999999815
    vertex 1.7750669999999567 3.4821059999999147 0.8300916999999794
  endloop
endfacet
facet normal -0.9678274970576298 0.1159996557385036 0.22328012855539184
  outer loop
    vertex 1.7658629999999567 3.550288999999913 0.6657288999999835
    vertex 1.7348539999999573 3.540013999999913 0.5366016999999867
    vertex 1.7346149999999576 3.5381239999999132 0.5366016999999867
  endloop
endfacet
facet normal -0.9678274970576298 0.1159996557385036 0.22328012855539184
  outer loop
    vertex 1.7348539999999573 3.540013999999913 0.5366016999999867
    vertex 1.7658629999999567 3.550288999999913 0.6657288999999835
    vertex 1.7360769999999575 3.550321999999912 0.5366016999999867
  endloop
endfacet
facet normal -0.47594120694283115 0.8632306100213681 0.16826432021060828
  outer loop
    vertex 1.7649219999999568 3.468880999999915 0.8477306999999791
    vertex 1.7491919999999574 3.4763289999999145 0.7650280999999812
    vertex 1.7353059999999574 3.465929999999915 0.7791000999999809
  endloop
endfacet
facet normal -0.1497394219843591 0.9870585326643604 0.05738953387395483
  outer loop
    vertex 1.7198679999999578 3.4594159999999152 0.7942725999999805
    vertex 1.7365980859471157 3.4563688146493026 0.8903334083862549
    vertex 1.752725999999957 3.4601719999999148 0.8670022999999786
  endloop
endfacet
facet normal -0.1497394219843591 0.9870585326643604 0.05738953387395483
  outer loop
    vertex 1.7365980859471157 3.4563688146493026 0.8903334083862549
    vertex 1.7198679999999578 3.4594159999999152 0.7942725999999805
    vertex 1.7347669999999573 3.455936999999915 0.892983299999978
  endloop
endfacet
facet normal -0.95986103353103 0.21373287663765195 0.18161787839565083
  outer loop
    vertex 1.775268999999956 3.5277119999999136 0.734857899999982
    vertex 1.7735579999999564 3.5173089999999134 0.7380576999999818
    vertex 1.7865849999999561 3.5196629999999134 0.8041358999999803
  endloop
endfacet
facet normal 0.19529963495709882 0.9672836199834285 0.16192730189000987
  outer loop
    vertex 1.6777089999999588 3.4798829999999152 0.6664546999999835
    vertex 1.6836569999999587 3.5004199999999135 0.5366016999999867
    vertex 1.671794999999959 3.5028149999999143 0.5366016999999867
  endloop
endfacet
facet normal -0.6549957124125517 0.7298561610799194 0.1956798427402702
  outer loop
    vertex 1.7750669999999567 3.4821059999999147 0.8300916999999794
    vertex 1.7610599999999568 3.4903279999999146 0.7525394999999815
    vertex 1.7491919999999574 3.4763289999999145 0.7650280999999812
  endloop
endfacet
facet normal -0.9866411207438481 0.07026063122187559 0.14697871464136167
  outer loop
    vertex 1.7860769999999562 3.550321999999912 0.7966016999999803
    vertex 1.7763029999999564 3.549491999999913 0.731387399999982
    vertex 1.775268999999956 3.5277119999999136 0.734857899999982
  endloop
endfacet
facet normal -0.6411364400757464 0.7438075929527883 0.18892943093329356
  outer loop
    vertex 1.7649219999999568 3.468880999999915 0.8477306999999791
    vertex 1.7750669999999567 3.4821059999999147 0.8300916999999794
    vertex 1.7491919999999574 3.4763289999999145 0.7650280999999812
  endloop
endfacet
facet normal -0.2846855621480251 0.9512401189118409 0.11872812167742774
  outer loop
    vertex 1.752725999999957 3.4601719999999148 0.8670022999999786
    vertex 1.7353059999999574 3.465929999999915 0.7791000999999809
    vertex 1.7198679999999578 3.4594159999999152 0.7942725999999805
  endloop
endfacet
facet normal -0.07763816582500192 0.9958817310875586 0.04681765578686159
  outer loop
    vertex 1.7347669999999573 3.455936999999915 0.892983299999978
    vertex 1.7198679999999578 3.4594159999999152 0.7942725999999805
    vertex 1.703792999999958 3.4574309999999153 0.8098391999999801
  endloop
endfacet
facet normal 0.151228567471911 0.9877452961272096 -0.03858951099670297
  outer loop
    vertex 1.703792999999958 3.4574309999999153 0.8098391999999801
    vertex 1.7316435044943637 3.4565772739782 0.8971314362466387
    vertex 1.7347669999999573 3.455936999999915 0.892983299999978
  endloop
endfacet
facet normal 0.151228567471911 0.9877452961272096 -0.03858951099670297
  outer loop
    vertex 1.7316435044943637 3.4565772739782 0.8971314362466387
    vertex 1.703792999999958 3.4574309999999153 0.8098391999999801
    vertex 1.715643999999958 3.459856999999915 0.9183796999999775
  endloop
endfacet
facet normal 0.16971688286050055 0.9845543732313919 -0.04299843977467576
  outer loop
    vertex 1.6878469999999588 3.4605859999999153 0.8252985999999797
    vertex 1.6968949999999583 3.4573719999999146 0.7874190999999807
    vertex 1.6808469999999587 3.4607689999999147 0.8018594999999803
  endloop
endfacet
facet normal 0.1698454115618373 0.9845385983129316 -0.04285189147981827
  outer loop
    vertex 1.6808469999999587 3.4607689999999147 0.8018594999999803
    vertex 1.6968949999999583 3.4573719999999146 0.7874190999999807
    vertex 1.6792769999999588 3.4608109999999153 0.7966016999999803
  endloop
endfacet
facet normal -0.9053348337275844 0.37681651421986867 0.19590342888942697
  outer loop
    vertex 1.7735579999999564 3.5173089999999134 0.7380576999999818
    vertex 1.7704099999999565 3.507617999999914 0.7421501999999817
    vertex 1.7845339999999565 3.5057439999999143 0.81102649999998
  endloop
endfacet
facet normal -0.9562933819218702 0.23018385811584893 0.18032847571954577
  outer loop
    vertex 1.7865849999999561 3.5196629999999134 0.8041358999999803
    vertex 1.7735579999999564 3.5173089999999134 0.7380576999999818
    vertex 1.7845339999999565 3.5057439999999143 0.81102649999998
  endloop
endfacet
facet normal 0.22675884491373063 0.9713385226271524 0.07128745130730887
  outer loop
    vertex 1.6792769999999588 3.4608109999999153 0.7966016999999803
    vertex 1.6968949999999583 3.4573719999999146 0.7874190999999807
    vertex 1.6954799999999586 3.458107999999915 0.7818915999999808
  endloop
endfacet
facet normal -0.9821239316735394 0.0846919978321802 0.16810665762337562
  outer loop
    vertex 1.7756509999999563 3.546729999999913 0.7286104999999822
    vertex 1.7751169999999565 3.5440529999999133 0.7268393999999821
    vertex 1.7757379999999565 3.5467239999999127 0.7291217999999821
  endloop
endfacet
facet normal -0.8149802263156533 0.5501365216674496 0.18209074178037224
  outer loop
    vertex 1.7704099999999565 3.507617999999914 0.7421501999999817
    vertex 1.7610599999999568 3.4903279999999146 0.7525394999999815
    vertex 1.7845339999999565 3.5057439999999143 0.81102649999998
  endloop
endfacet
facet normal -0.4173813061096836 0.8976449941709512 0.1415143446792866
  outer loop
    vertex 1.752725999999957 3.4601719999999148 0.8670022999999786
    vertex 1.7649219999999568 3.468880999999915 0.8477306999999791
    vertex 1.7353059999999574 3.465929999999915 0.7791000999999809
  endloop
endfacet
facet normal 0.15721609545818924 0.9867850740831334 -0.03922138314270321
  outer loop
    vertex 1.715643999999958 3.459856999999915 0.9183796999999775
    vertex 1.703792999999958 3.4574309999999153 0.8098391999999801
    vertex 1.6878469999999588 3.4605859999999153 0.8252985999999797
  endloop
endfacet
facet normal 0.2446200257125247 0.9652366791777205 0.09208255095494475
  outer loop
    vertex 1.6792769999999588 3.4608109999999153 0.7966016999999803
    vertex 1.6954799999999586 3.458107999999915 0.7818915999999808
    vertex 1.6953039999999582 3.458703999999915 0.7761116999999809
  endloop
endfacet
facet normal -0.9143820208215533 0.3429140354398944 0.21521032572025828
  outer loop
    vertex 1.749026999999957 3.535027999999913 0.6027682999999853
    vertex 1.7341589999999576 3.536898999999913 0.5366016999999867
    vertex 1.7304889999999575 3.5271219999999133 0.5366016999999867
  endloop
endfacet
facet normal -0.9143820208215533 0.3429140354398944 0.21521032572025828
  outer loop
    vertex 1.7341589999999576 3.536898999999913 0.5366016999999867
    vertex 1.749026999999957 3.535027999999913 0.6027682999999853
    vertex 1.7346149999999576 3.5381239999999132 0.5366016999999867
  endloop
endfacet
facet normal 0.1422559780679051 0.9766518919207494 0.16097924931979457
  outer loop
    vertex 1.6777089999999588 3.4798829999999152 0.6664546999999835
    vertex 1.6883159999999586 3.4896089999999145 0.5980742999999852
    vertex 1.6836569999999587 3.5004199999999135 0.5366016999999867
  endloop
endfacet
facet normal 0.14858517426737552 0.9877186618806322 -0.048314500521761956
  outer loop
    vertex 1.6878469999999588 3.4605859999999153 0.8252985999999797
    vertex 1.703792999999958 3.4574309999999153 0.8098391999999801
    vertex 1.6968949999999583 3.4573719999999146 0.7874190999999807
  endloop
endfacet
facet normal -0.9654334012441496 0.12774944909133867 0.22719688822475695
  outer loop
    vertex 1.7658629999999567 3.550288999999913 0.6657288999999835
    vertex 1.749026999999957 3.535027999999913 0.6027682999999853
    vertex 1.7640259999999568 3.531537999999913 0.6684662999999835
  endloop
endfacet
facet normal -0.9620671746460789 0.16498462071838127 0.21727131977074887
  outer loop
    vertex 1.7658629999999567 3.550288999999913 0.6657288999999835
    vertex 1.7346149999999576 3.5381239999999132 0.5366016999999867
    vertex 1.749026999999957 3.535027999999913 0.6027682999999853
  endloop
endfacet
facet normal 0.32963746460648047 0.9368475532174096 0.1168580504645036
  outer loop
    vertex 1.683178999999959 3.4600329999999153 0.7883973999999807
    vertex 1.6870949999999587 3.4596619999999145 0.7803252999999807
    vertex 1.6784339999999587 3.4688169999999148 0.7313611999999821
  endloop
endfacet
facet normal 0.40449340562143893 0.908348948195976 0.10624157905469253
  outer loop
    vertex 1.6792769999999588 3.4608109999999153 0.7966016999999803
    vertex 1.683178999999959 3.4600329999999153 0.7883973999999807
    vertex 1.6784339999999587 3.4688169999999148 0.7313611999999821
  endloop
endfacet
facet normal -0.9772889892684195 0.12112740635935262 0.17388036945948607
  outer loop
    vertex 1.7658629999999567 3.550288999999913 0.6657288999999835
    vertex 1.7640259999999568 3.531537999999913 0.6684662999999835
    vertex 1.7696789999999565 3.529528999999913 0.7016382999999827
  endloop
endfacet
facet normal -0.9096131120662719 0.35271952787622757 0.21952886145535208
  outer loop
    vertex 1.7640259999999568 3.531537999999913 0.6684662999999835
    vertex 1.7304889999999575 3.5271219999999133 0.5366016999999867
    vertex 1.7584249999999568 3.5138929999999133 0.6736090999999833
  endloop
endfacet
facet normal 0.12302891459270497 0.9923032319252202 0.014077715897963859
  outer loop
    vertex 1.683178999999959 3.4600329999999153 0.7883973999999807
    vertex 1.6953039999999582 3.458703999999915 0.7761116999999809
    vertex 1.6870949999999587 3.4596619999999145 0.7803252999999807
  endloop
endfacet
facet normal 0.1264066854435511 0.9861713393778092 0.1071794722181125
  outer loop
    vertex 1.6953039999999582 3.458703999999915 0.7761116999999809
    vertex 1.6949089999999583 3.4600059999999146 0.7645976999999813
    vertex 1.6910079999999583 3.459658999999915 0.772391299999981
  endloop
endfacet
facet normal 0.23877930774982123 0.9614302684134808 0.13651476538784624
  outer loop
    vertex 1.6949089999999583 3.4600059999999146 0.7645976999999813
    vertex 1.6935959999999584 3.4668559999999147 0.7186518999999824
    vertex 1.6784339999999587 3.4688169999999148 0.7313611999999821
  endloop
endfacet
facet normal 0.026004745986494833 0.996284112290267 -0.08210798246317212
  outer loop
    vertex 1.6792769999999588 3.4608109999999153 0.7966016999999803
    vertex 1.6953039999999582 3.458703999999915 0.7761116999999809
    vertex 1.683178999999959 3.4600329999999153 0.7883973999999807
  endloop
endfacet
facet normal -0.6507424572785069 0.730162584690663 0.20831911629272298
  outer loop
    vertex 1.737293999999957 3.485538999999915 0.6890327999999831
    vertex 1.7490699999999573 3.4984279999999144 0.6806421999999833
    vertex 1.7158209999999579 3.5098909999999135 0.5366016999999867
  endloop
endfacet
facet normal 0.15369503357261735 0.9852351579198284 0.07542890860805927
  outer loop
    vertex 1.6870949999999587 3.4596619999999145 0.7803252999999807
    vertex 1.6953039999999582 3.458703999999915 0.7761116999999809
    vertex 1.6910079999999583 3.459658999999915 0.772391299999981
  endloop
endfacet
facet normal -0.9859293101641251 0.07121913410657053 0.15123237185339253
  outer loop
    vertex 1.7763029999999564 3.549491999999913 0.731387399999982
    vertex 1.7669329999999566 3.5478839999999128 0.6710587999999834
    vertex 1.7675759999999567 3.5453659999999134 0.6764364999999833
  endloop
endfacet
facet normal -0.9837378669204988 0.0631860693842178 0.16812890834856453
  outer loop
    vertex 1.7763029999999564 3.549491999999913 0.731387399999982
    vertex 1.7756509999999563 3.546729999999913 0.7286104999999822
    vertex 1.7757379999999565 3.5467239999999127 0.7291217999999821
  endloop
endfacet
facet normal 0.0216166645849291 0.9826003648390663 0.1844701678601622
  outer loop
    vertex 1.6935959999999584 3.4668559999999147 0.7186518999999824
    vertex 1.6952099999999584 3.5009979999999143 0.5366016999999867
    vertex 1.6883159999999586 3.4896089999999145 0.5980742999999852
  endloop
endfacet
facet normal -0.7886708250400274 0.5754815354107429 0.21637775332038242
  outer loop
    vertex 1.7304889999999575 3.5271219999999133 0.5366016999999867
    vertex 1.7490699999999573 3.4984279999999144 0.6806421999999833
    vertex 1.7584249999999568 3.5138929999999133 0.6736090999999833
  endloop
endfacet
facet normal -0.9794196985413721 0.13201005318723955 0.1526774376475776
  outer loop
    vertex 1.7722919999999565 3.531272999999913 0.7161170999999823
    vertex 1.7716449999999564 3.5287869999999133 0.7141160999999825
    vertex 1.7722659999999566 3.5285949999999136 0.7182657999999823
  endloop
endfacet
facet normal 0.266939002396244 0.95472826797317 0.13129167274678538
  outer loop
    vertex 1.6870949999999587 3.4596619999999145 0.7803252999999807
    vertex 1.6910079999999583 3.459658999999915 0.772391299999981
    vertex 1.6784339999999587 3.4688169999999148 0.7313611999999821
  endloop
endfacet
facet normal -0.9739406421704494 0.15714013640318836 0.1635438872590474
  outer loop
    vertex 1.7717979999999562 3.5314289999999136 0.7124886999999824
    vertex 1.7709859999999567 3.529031999999913 0.7099561999999826
    vertex 1.7716449999999564 3.5287869999999133 0.7141160999999825
  endloop
endfacet
facet normal -0.03165898228332169 0.9824228974585254 0.1839645601467305
  outer loop
    vertex 1.6935959999999584 3.4668559999999147 0.7186518999999824
    vertex 1.708882999999958 3.469265999999915 0.7084125999999826
    vertex 1.6952099999999584 3.5009979999999143 0.5366016999999867
  endloop
endfacet
facet normal -0.049182317473793744 0.9830507158718331 0.17661367351307666
  outer loop
    vertex 1.6883159999999586 3.4896089999999145 0.5980742999999852
    vertex 1.6952099999999584 3.5009979999999143 0.5366016999999867
    vertex 1.6836569999999587 3.5004199999999135 0.5366016999999867
  endloop
endfacet
facet normal 0.2137314588406255 0.965313825928943 0.14996026464461937
  outer loop
    vertex 1.6910079999999583 3.459658999999915 0.772391299999981
    vertex 1.6949089999999583 3.4600059999999146 0.7645976999999813
    vertex 1.6784339999999587 3.4688169999999148 0.7313611999999821
  endloop
endfacet
facet normal -0.38744797753544213 0.8979748414464614 0.20862705680926966
  outer loop
    vertex 1.7237029999999576 3.4756969999999145 0.6984177999999828
    vertex 1.7158209999999579 3.5098909999999135 0.5366016999999867
    vertex 1.6952099999999584 3.5009979999999143 0.5366016999999867
  endloop
endfacet
facet normal -0.27627833297106086 0.9409278265641068 0.19576799515773224
  outer loop
    vertex 1.708882999999958 3.469265999999915 0.7084125999999826
    vertex 1.7237029999999576 3.4756969999999145 0.6984177999999828
    vertex 1.6952099999999584 3.5009979999999143 0.5366016999999867
  endloop
endfacet
facet normal 0.25707713170656493 0.9531163075993659 0.15962660348975816
  outer loop
    vertex 1.6784339999999587 3.4688169999999148 0.7313611999999821
    vertex 1.6935959999999584 3.4668559999999147 0.7186518999999824
    vertex 1.6777089999999588 3.4798829999999152 0.6664546999999835
  endloop
endfacet
facet normal 0.22412426012915523 0.9594010538195284 0.17122480530442188
  outer loop
    vertex 1.6935959999999584 3.4668559999999147 0.7186518999999824
    vertex 1.6883159999999586 3.4896089999999145 0.5980742999999852
    vertex 1.6777089999999588 3.4798829999999152 0.6664546999999835
  endloop
endfacet
facet normal -0.47796902795192886 0.8544001448996212 0.20382836091720513
  outer loop
    vertex 1.7237029999999576 3.4756969999999145 0.6984177999999828
    vertex 1.737293999999957 3.485538999999915 0.6890327999999831
    vertex 1.7158209999999579 3.5098909999999135 0.5366016999999867
  endloop
endfacet
facet normal -0.7425182230436475 0.6320734313507278 0.22169769017430307
  outer loop
    vertex 1.7304889999999575 3.5271219999999133 0.5366016999999867
    vertex 1.7158209999999579 3.5098909999999135 0.5366016999999867
    vertex 1.7490699999999573 3.4984279999999144 0.6806421999999833
  endloop
endfacet
facet normal -0.7425182230436475 0.6320734313507278 0.22169769017430307
  outer loop
    vertex 1.7158209999999579 3.5098909999999135 0.5366016999999867
    vertex 1.7304889999999575 3.5271219999999133 0.5366016999999867
    vertex 1.7166876192965834 3.510909047252447 0.5366016999999867
  endloop
endfacet
facet normal -0.7425182230436475 0.6320734313507278 0.22169769017430307
  outer loop
    vertex 1.7166876192965834 3.510909047252447 0.5366016999999867
    vertex 1.7304889999999575 3.5271219999999133 0.5366016999999867
    vertex 1.716730059479326 3.5109589031829653 0.5366016999999867
  endloop
endfacet
facet normal -0.9325177960768086 0.2802248030399808 0.22778195661916587
  outer loop
    vertex 1.749026999999957 3.535027999999913 0.6027682999999853
    vertex 1.7304889999999575 3.5271219999999133 0.5366016999999867
    vertex 1.7640259999999568 3.531537999999913 0.6684662999999835
  endloop
endfacet
facet normal -0.972513373542246 0.16651279907055525 0.16276125468663863
  outer loop
    vertex 1.7705079999999564 3.531873999999913 0.7041925999999826
    vertex 1.7696789999999565 3.529528999999913 0.7016382999999827
    vertex 1.7709859999999567 3.529031999999913 0.7099561999999826
  endloop
endfacet
facet normal -0.9881068346756724 0.10656086249568798 0.11085876533408956
  outer loop
    vertex 1.7733229999999567 3.5363109999999134 0.7202701999999824
    vertex 1.7728149999999565 3.533785999999913 0.7181693999999823
    vertex 1.7722659999999566 3.5285949999999136 0.7182657999999823
  endloop
endfacet
facet normal -0.9853994627402404 0.08224085943553813 0.1490783011391992
  outer loop
    vertex 1.7749239999999562 3.544078999999912 0.7258160999999821
    vertex 1.7681669999999567 3.542783999999913 0.6818670999999833
    vertex 1.7687759999999566 3.540140999999913 0.6873505999999832
  endloop
endfacet
facet normal -0.9808319123896185 0.12131897986139617 0.1524810308317528
  outer loop
    vertex 1.7699709999999564 3.5346779999999134 0.6985073999999828
    vertex 1.7705079999999564 3.531873999999913 0.7041925999999826
    vertex 1.7724489999999564 3.533899999999913 0.7150660999999824
  endloop
endfacet
facet normal -0.9789754190454286 0.07757680357576026 0.18865038683182067
  outer loop
    vertex 1.7749239999999562 3.544078999999912 0.7258160999999821
    vertex 1.7741889999999565 3.541486999999913 0.7230677999999823
    vertex 1.774480999999956 3.5414329999999135 0.7246052999999821
  endloop
endfacet
facet normal -0.9830337914208609 0.09391998778208872 0.1575550723389758
  outer loop
    vertex 1.7757379999999565 3.5467239999999127 0.7291217999999821
    vertex 1.7751169999999565 3.5440529999999133 0.7268393999999821
    vertex 1.7722659999999566 3.5285949999999136 0.7182657999999823
  endloop
endfacet
facet normal -0.9836917210234402 0.11433737659159085 0.13884366137528625
  outer loop
    vertex 1.7724489999999564 3.533899999999913 0.7150660999999824
    vertex 1.7717979999999562 3.5314289999999136 0.7124886999999824
    vertex 1.7722919999999565 3.531272999999913 0.7161170999999823
  endloop
endfacet
facet normal -0.9798795389637731 0.14270084909277408 0.13954410338077647
  outer loop
    vertex 1.7717979999999562 3.5314289999999136 0.7124886999999824
    vertex 1.7716449999999564 3.5287869999999133 0.7141160999999825
    vertex 1.7722919999999565 3.531272999999913 0.7161170999999823
  endloop
endfacet
facet normal -0.9792753744358141 0.07852325040882234 0.18669183208922047
  outer loop
    vertex 1.7749239999999562 3.544078999999912 0.7258160999999821
    vertex 1.774480999999956 3.5414329999999135 0.7246052999999821
    vertex 1.7751169999999565 3.5440529999999133 0.7268393999999821
  endloop
endfacet
facet normal -0.9862913868971837 0.15500964088282415 0.056580132253360664
  outer loop
    vertex 1.7763029999999564 3.549491999999913 0.731387399999982
    vertex 1.7757379999999565 3.5467239999999127 0.7291217999999821
    vertex 1.7722659999999566 3.5285949999999136 0.7182657999999823
  endloop
endfacet
facet normal -0.978682644210558 0.07431066065623758 0.19146333234816554
  outer loop
    vertex 1.7751169999999565 3.5440529999999133 0.7268393999999821
    vertex 1.774480999999956 3.5414329999999135 0.7246052999999821
    vertex 1.7722659999999566 3.5285949999999136 0.7182657999999823
  endloop
endfacet
facet normal -0.9820702417871378 0.07473201984541063 0.17306982812142066
  outer loop
    vertex 1.7741889999999565 3.541486999999913 0.7230677999999823
    vertex 1.7735179999999564 3.5389389999999135 0.7203604999999823
    vertex 1.7738739999999564 3.5388569999999135 0.7224159999999822
  endloop
endfacet
facet normal -0.9869164036755588 0.10662227081512789 0.12094504339710341
  outer loop
    vertex 1.7728149999999565 3.533785999999913 0.7181693999999823
    vertex 1.7722919999999565 3.531272999999913 0.7161170999999823
    vertex 1.7722659999999566 3.5285949999999136 0.7182657999999823
  endloop
endfacet
facet normal -0.973919804294576 0.16080848551870872 0.16006512983155907
  outer loop
    vertex 1.7705079999999564 3.531873999999913 0.7041925999999826
    vertex 1.7709859999999567 3.529031999999913 0.7099561999999826
    vertex 1.7717979999999562 3.5314289999999136 0.7124886999999824
  endloop
endfacet
facet normal -0.9879166965305295 0.040046319516528296 0.14972272041806484
  outer loop
    vertex 1.7729489999999568 3.5364159999999134 0.7176922999999823
    vertex 1.7699709999999564 3.5346779999999134 0.6985073999999828
    vertex 1.7724489999999564 3.533899999999913 0.7150660999999824
  endloop
endfacet
facet normal -0.9829455737566051 0.0942647336776673 0.15789920524491818
  outer loop
    vertex 1.7724489999999564 3.533899999999913 0.7150660999999824
    vertex 1.7705079999999564 3.531873999999913 0.7041925999999826
    vertex 1.7717979999999562 3.5314289999999136 0.7124886999999824
  endloop
endfacet
facet normal -0.984026246499877 0.11280323575305971 0.13772354992158362
  outer loop
    vertex 1.7741889999999565 3.541486999999913 0.7230677999999823
    vertex 1.7699709999999564 3.5346779999999134 0.6985073999999828
    vertex 1.7735179999999564 3.5389389999999135 0.7203604999999823
  endloop
endfacet
facet normal -0.9858645242237887 0.10016220847812342 0.13430812287344274
  outer loop
    vertex 1.7738739999999564 3.5388569999999135 0.7224159999999822
    vertex 1.7733229999999567 3.5363109999999134 0.7202701999999824
    vertex 1.7722659999999566 3.5285949999999136 0.7182657999999823
  endloop
endfacet
facet normal -0.986132285070951 0.07795707574943431 0.14651215199205045
  outer loop
    vertex 1.7741889999999565 3.541486999999913 0.7230677999999823
    vertex 1.7687759999999566 3.540140999999913 0.6873505999999832
    vertex 1.7693859999999566 3.537436999999913 0.6928950999999829
  endloop
endfacet
facet normal -0.9824703929872439 0.11373956171431254 0.1476998273679649
  outer loop
    vertex 1.7756509999999563 3.546729999999913 0.7286104999999822
    vertex 1.7681669999999567 3.542783999999913 0.6818670999999833
    vertex 1.7749239999999562 3.544078999999912 0.7258160999999821
  endloop
endfacet
facet normal -0.9852349467951814 0.08084156862407851 0.15091964880655678
  outer loop
    vertex 1.7763029999999564 3.549491999999913 0.731387399999982
    vertex 1.7681669999999567 3.542783999999913 0.6818670999999833
    vertex 1.7756509999999563 3.546729999999913 0.7286104999999822
  endloop
endfacet
facet normal -0.9846856079745739 0.08940551691904043 0.14966932548850215
  outer loop
    vertex 1.7763029999999564 3.549491999999913 0.731387399999982
    vertex 1.7675759999999567 3.5453659999999134 0.6764364999999833
    vertex 1.7681669999999567 3.542783999999913 0.6818670999999833
  endloop
endfacet
facet normal -0.985599486186965 0.08653683238378335 0.145275701577971
  outer loop
    vertex 1.7741889999999565 3.541486999999913 0.7230677999999823
    vertex 1.7693859999999566 3.537436999999913 0.6928950999999829
    vertex 1.7699709999999564 3.5346779999999134 0.6985073999999828
  endloop
endfacet
facet normal -0.9869354227997562 0.06821613402980288 0.14596242763497258
  outer loop
    vertex 1.7735179999999564 3.5389389999999135 0.7203604999999823
    vertex 1.7729489999999568 3.5364159999999134 0.7176922999999823
    vertex 1.7733229999999567 3.5363109999999134 0.7202701999999824
  endloop
endfacet
facet normal -0.9795300922765914 0.07060102185513799 0.18851072658504783
  outer loop
    vertex 1.7741889999999565 3.541486999999913 0.7230677999999823
    vertex 1.7738739999999564 3.5388569999999135 0.7224159999999822
    vertex 1.774480999999956 3.5414329999999135 0.7246052999999821
  endloop
endfacet
facet normal -0.9902193024129546 0.07211851436502509 0.11943472281787769
  outer loop
    vertex 1.7729489999999568 3.5364159999999134 0.7176922999999823
    vertex 1.7724489999999564 3.533899999999913 0.7150660999999824
    vertex 1.7728149999999565 3.533785999999913 0.7181693999999823
  endloop
endfacet
facet normal -0.9826660354921938 0.06697499884751672 0.17286356533240213
  outer loop
    vertex 1.7735179999999564 3.5389389999999135 0.7203604999999823
    vertex 1.7733229999999567 3.5363109999999134 0.7202701999999824
    vertex 1.7738739999999564 3.5388569999999135 0.7224159999999822
  endloop
endfacet
facet normal -0.9812251451031908 0.08342830873951608 0.17388769915691676
  outer loop
    vertex 1.774480999999956 3.5414329999999135 0.7246052999999821
    vertex 1.7738739999999564 3.5388569999999135 0.7224159999999822
    vertex 1.7722659999999566 3.5285949999999136 0.7182657999999823
  endloop
endfacet
facet normal -0.9815673193045116 0.12562939047718047 0.14402379637298515
  outer loop
    vertex 1.7749239999999562 3.544078999999912 0.7258160999999821
    vertex 1.7687759999999566 3.540140999999913 0.6873505999999832
    vertex 1.7741889999999565 3.541486999999913 0.7230677999999823
  endloop
endfacet
facet normal -0.9868489195678717 0.06697514679329365 0.14711743492781892
  outer loop
    vertex 1.7735179999999564 3.5389389999999135 0.7203604999999823
    vertex 1.7699709999999564 3.5346779999999134 0.6985073999999828
    vertex 1.7729489999999568 3.5364159999999134 0.7176922999999823
  endloop
endfacet
facet normal -0.979791463022098 0.07197644766231558 0.18662282810774006
  outer loop
    vertex 1.7756509999999563 3.546729999999913 0.7286104999999822
    vertex 1.7749239999999562 3.544078999999912 0.7258160999999821
    vertex 1.7751169999999565 3.5440529999999133 0.7268393999999821
  endloop
endfacet
facet normal -0.9862691873255856 0.07677526889122183 0.14621439128488542
  outer loop
    vertex 1.7729489999999568 3.5364159999999134 0.7176922999999823
    vertex 1.7728149999999565 3.533785999999913 0.7181693999999823
    vertex 1.7733229999999567 3.5363109999999134 0.7202701999999824
  endloop
endfacet
facet normal -0.9869366161465033 0.10712585629520596 0.12033356398905769
  outer loop
    vertex 1.7724489999999564 3.533899999999913 0.7150660999999824
    vertex 1.7722919999999565 3.531272999999913 0.7161170999999823
    vertex 1.7728149999999565 3.533785999999913 0.7181693999999823
  endloop
endfacet
facet normal -0.9725888721904172 0.15857191443299354 0.1700759643348464
  outer loop
    vertex 1.7699709999999564 3.5346779999999134 0.6985073999999828
    vertex 1.7696789999999565 3.529528999999913 0.7016382999999827
    vertex 1.7705079999999564 3.531873999999913 0.7041925999999826
  endloop
endfacet
facet normal -0.12157284580162415 0.9919724927929026 0.03479391765710769
  outer loop
    vertex 1.703792999999958 3.4574309999999153 0.8098391999999801
    vertex 1.7134349999999583 3.4599009999999146 0.773109599999981
    vertex 1.6968949999999583 3.4573719999999146 0.7874190999999807
  endloop
endfacet
facet normal -0.9834418250924336 -0.0935080406334185 0.15523666769085867
  outer loop
    vertex 1.7658629999999567 3.550288999999913 0.6657288999999835
    vertex 1.7669329999999566 3.5478839999999128 0.6710587999999834
    vertex 1.7763029999999564 3.549491999999913 0.731387399999982
  endloop
endfacet
facet normal -0.4963347952672912 0.8563309854674764 0.14264997138196936
  outer loop
    vertex 1.7279749999999576 3.4673069999999147 0.7543400999999815
    vertex 1.742287999999957 3.478522999999915 0.7368106999999818
    vertex 1.7276139999999574 3.4679489999999147 0.7492300999999816
  endloop
endfacet
facet normal -0.4965757243734539 0.8548339712197432 0.1505703543585615
  outer loop
    vertex 1.7276139999999574 3.4679489999999147 0.7492300999999816
    vertex 1.7413079999999574 3.4797789999999145 0.7272298999999821
    vertex 1.7268459999999577 3.4692989999999146 0.7390328999999818
  endloop
endfacet
facet normal -0.9690699952310985 0.16599700805815884 0.18261527224889595
  outer loop
    vertex 1.7693859999999566 3.537436999999913 0.6928950999999829
    vertex 1.7696789999999565 3.529528999999913 0.7016382999999827
    vertex 1.7699709999999564 3.5346779999999134 0.6985073999999828
  endloop
endfacet
facet normal -0.27191825235487155 0.9531495074196373 0.13253860019622732
  outer loop
    vertex 1.7198679999999578 3.4594159999999152 0.7942725999999805
    vertex 1.7353059999999574 3.465929999999915 0.7791000999999809
    vertex 1.7293839999999576 3.4669949999999146 0.7592914999999814
  endloop
endfacet
facet normal -0.6645948943052952 0.7290829216061075 0.16355953009725818
  outer loop
    vertex 1.742287999999957 3.478522999999915 0.7368106999999818
    vertex 1.753894999999957 3.4936179999999144 0.7166861999999825
    vertex 1.7413079999999574 3.4797789999999145 0.7272298999999821
  endloop
endfacet
facet normal -0.46197261785773197 0.867148785064229 0.18610288797142707
  outer loop
    vertex 1.7293839999999576 3.4669949999999146 0.7592914999999814
    vertex 1.7427739999999574 3.4779249999999142 0.7416016999999818
    vertex 1.7279749999999576 3.4673069999999147 0.7543400999999815
  endloop
endfacet
facet normal -0.4832710546524223 0.8613626006341856 0.15653612351099003
  outer loop
    vertex 1.7279749999999576 3.4673069999999147 0.7543400999999815
    vertex 1.7427739999999574 3.4779249999999142 0.7416016999999818
    vertex 1.742287999999957 3.478522999999915 0.7368106999999818
  endloop
endfacet
facet normal -0.9651585268230141 0.17715275103915548 0.19257705185220875
  outer loop
    vertex 1.7681669999999567 3.542783999999913 0.6818670999999833
    vertex 1.7696789999999565 3.529528999999913 0.7016382999999827
    vertex 1.7687759999999566 3.540140999999913 0.6873505999999832
  endloop
endfacet
facet normal -0.4828326759459905 0.860559498194493 0.16220344357034036
  outer loop
    vertex 1.7276139999999574 3.4679489999999147 0.7492300999999816
    vertex 1.742287999999957 3.478522999999915 0.7368106999999818
    vertex 1.7413079999999574 3.4797789999999145 0.7272298999999821
  endloop
endfacet
facet normal -0.952791482158979 0.21486268609919887 0.21452836093983796
  outer loop
    vertex 1.7669329999999566 3.5478839999999128 0.6710587999999834
    vertex 1.7696789999999565 3.529528999999913 0.7016382999999827
    vertex 1.7675759999999567 3.5453659999999134 0.6764364999999833
  endloop
endfacet
facet normal -0.059948143815000396 0.9916483387281101 0.11419191018156957
  outer loop
    vertex 1.6953039999999582 3.458703999999915 0.7761116999999809
    vertex 1.711091999999958 3.4624759999999153 0.7516437999999814
    vertex 1.6949089999999583 3.4600059999999146 0.7645976999999813
  endloop
endfacet
facet normal -0.48567817384129064 0.8588052001772267 0.1630041091590721
  outer loop
    vertex 1.7293839999999576 3.4669949999999146 0.7592914999999814
    vertex 1.7438379999999574 3.4776179999999153 0.7463893999999816
    vertex 1.7427739999999574 3.4779249999999142 0.7416016999999818
  endloop
endfacet
facet normal -0.04426455247545073 0.9921001431499878 0.1173795355073518
  outer loop
    vertex 1.6954799999999586 3.458107999999915 0.7818915999999808
    vertex 1.7119259999999583 3.4604929999999148 0.7679352999999811
    vertex 1.7116699999999583 3.461125999999915 0.7624885999999812
  endloop
endfacet
facet normal -0.5851284654263345 0.7799566202629687 0.22201880428420936
  outer loop
    vertex 1.7491919999999574 3.4763289999999145 0.7650280999999812
    vertex 1.753894999999957 3.4936179999999144 0.7166861999999825
    vertex 1.7438379999999574 3.4776179999999153 0.7463893999999816
  endloop
endfacet
facet normal -0.6536736765855067 0.7305062146968454 0.1976648548135787
  outer loop
    vertex 1.7491919999999574 3.4763289999999145 0.7650280999999812
    vertex 1.7610599999999568 3.4903279999999146 0.7525394999999815
    vertex 1.753894999999957 3.4936179999999144 0.7166861999999825
  endloop
endfacet
facet normal -0.04267429629913241 0.9911319930977428 0.1258422691048995
  outer loop
    vertex 1.6968949999999583 3.4573719999999146 0.7874190999999807
    vertex 1.7134349999999583 3.4599009999999146 0.773109599999981
    vertex 1.7119259999999583 3.4604929999999148 0.7679352999999811
  endloop
endfacet
facet normal -0.6342969783100038 0.7496228573364945 0.18903151870909904
  outer loop
    vertex 1.7438379999999574 3.4776179999999153 0.7463893999999816
    vertex 1.753894999999957 3.4936179999999144 0.7166861999999825
    vertex 1.7427739999999574 3.4779249999999142 0.7416016999999818
  endloop
endfacet
facet normal -0.0421098471233037 0.9911830120935029 0.12563039963521186
  outer loop
    vertex 1.6953039999999582 3.458703999999915 0.7761116999999809
    vertex 1.7116699999999583 3.461125999999915 0.7624885999999812
    vertex 1.711091999999958 3.4624759999999153 0.7516437999999814
  endloop
endfacet
facet normal -0.025522684228825917 0.9873667653641616 0.15638242626353047
  outer loop
    vertex 1.6949089999999583 3.4600059999999146 0.7645976999999813
    vertex 1.711091999999958 3.4624759999999153 0.7516437999999814
    vertex 1.708882999999958 3.469265999999915 0.7084125999999826
  endloop
endfacet
facet normal -0.4683234836034204 0.8636616439070917 0.18644484318225826
  outer loop
    vertex 1.7353059999999574 3.465929999999915 0.7791000999999809
    vertex 1.7438379999999574 3.4776179999999153 0.7463893999999816
    vertex 1.7293839999999576 3.4669949999999146 0.7592914999999814
  endloop
endfacet
facet normal -0.736700377734002 0.548557553665507 0.39542023691649053
  outer loop
    vertex 1.7658629999999567 3.550288999999913 0.6657288999999835
    vertex 1.7696789999999565 3.529528999999913 0.7016382999999827
    vertex 1.7669329999999566 3.5478839999999128 0.6710587999999834
  endloop
endfacet
facet normal -0.07793278067989597 0.9958730274499511 0.046512309050061464
  outer loop
    vertex 1.703792999999958 3.4574309999999153 0.8098391999999801
    vertex 1.7198679999999578 3.4594159999999152 0.7942725999999805
    vertex 1.7134349999999583 3.4599009999999146 0.773109599999981
  endloop
endfacet
facet normal -0.06017877415536253 0.992734123623903 0.10419920793287875
  outer loop
    vertex 1.6954799999999586 3.458107999999915 0.7818915999999808
    vertex 1.7116699999999583 3.461125999999915 0.7624885999999812
    vertex 1.6953039999999582 3.458703999999915 0.7761116999999809
  endloop
endfacet
facet normal -0.05598348367306049 0.9872824505999228 0.1487925142379118
  outer loop
    vertex 1.6949089999999583 3.4600059999999146 0.7645976999999813
    vertex 1.708882999999958 3.469265999999915 0.7084125999999826
    vertex 1.6935959999999584 3.4668559999999147 0.7186518999999824
  endloop
endfacet
facet normal -0.31658407424193963 0.9412209287565053 0.11780359590061597
  outer loop
    vertex 1.7198679999999578 3.4594159999999152 0.7942725999999805
    vertex 1.7293839999999576 3.4669949999999146 0.7592914999999814
    vertex 1.7134349999999583 3.4599009999999146 0.773109599999981
  endloop
endfacet
facet normal -0.45676341152873934 0.8687784196149384 0.19128837784872801
  outer loop
    vertex 1.7353059999999574 3.465929999999915 0.7791000999999809
    vertex 1.7491919999999574 3.4763289999999145 0.7650280999999812
    vertex 1.7438379999999574 3.4776179999999153 0.7463893999999816
  endloop
endfacet
facet normal -0.026047086160483443 0.9900210284696471 0.1384915610802711
  outer loop
    vertex 1.6968949999999583 3.4573719999999146 0.7874190999999807
    vertex 1.7119259999999583 3.4604929999999148 0.7679352999999811
    vertex 1.6954799999999586 3.458107999999915 0.7818915999999808
  endloop
endfacet
facet normal -0.9651532214547701 0.17716894433614183 0.19258874390341926
  outer loop
    vertex 1.7687759999999566 3.540140999999913 0.6873505999999832
    vertex 1.7696789999999565 3.529528999999913 0.7016382999999827
    vertex 1.7693859999999566 3.537436999999913 0.6928950999999829
  endloop
endfacet
facet normal -0.970015918544179 0.16096580749551417 0.1820964760455557
  outer loop
    vertex 1.7675759999999567 3.5453659999999134 0.6764364999999833
    vertex 1.7696789999999565 3.529528999999913 0.7016382999999827
    vertex 1.7681669999999567 3.542783999999913 0.6818670999999833
  endloop
endfacet
facet normal -0.3018763254077031 0.9439402718688434 0.13359433858706907
  outer loop
    vertex 1.7116699999999583 3.461125999999915 0.7624885999999812
    vertex 1.7268459999999577 3.4692989999999146 0.7390328999999818
    vertex 1.711091999999958 3.4624759999999153 0.7516437999999814
  endloop
endfacet
facet normal -0.9590151820416875 0.2146322731702868 0.18499423755161884
  outer loop
    vertex 1.7722659999999566 3.5285949999999136 0.7182657999999823
    vertex 1.7735579999999564 3.5173089999999134 0.7380576999999818
    vertex 1.775268999999956 3.5277119999999136 0.734857899999982
  endloop
endfacet
facet normal -0.8042403317569141 0.557929309942495 0.20472511785958278
  outer loop
    vertex 1.7668899999999568 3.508819999999914 0.7250464999999823
    vertex 1.7610599999999568 3.4903279999999146 0.7525394999999815
    vertex 1.7704099999999565 3.507617999999914 0.7421501999999817
  endloop
endfacet
facet normal -0.846401981228311 0.5044386969169823 0.1707199086969265
  outer loop
    vertex 1.7652449999999564 3.509549999999914 0.7164913999999823
    vertex 1.7610599999999568 3.4903279999999146 0.7525394999999815
    vertex 1.7658769999999564 3.5091529999999134 0.7207977999999824
  endloop
endfacet
facet normal -0.906010638079955 0.37620711319545613 0.19394053642055917
  outer loop
    vertex 1.7703929999999568 3.5183519999999135 0.7212488999999823
    vertex 1.7704099999999565 3.507617999999914 0.7421501999999817
    vertex 1.7735579999999564 3.5173089999999134 0.7380576999999818
  endloop
endfacet
facet normal -0.7753546912064311 0.5877880241300232 0.23093363010506593
  outer loop
    vertex 1.7658769999999564 3.5091529999999134 0.7207977999999824
    vertex 1.7610599999999568 3.4903279999999146 0.7525394999999815
    vertex 1.7668899999999568 3.508819999999914 0.7250464999999823
  endloop
endfacet
facet normal -0.4767448031037387 0.860446198795806 0.17985197160839264
  outer loop
    vertex 1.7268459999999577 3.4692989999999146 0.7390328999999818
    vertex 1.7413079999999574 3.4797789999999145 0.7272298999999821
    vertex 1.737293999999957 3.485538999999915 0.6890327999999831
  endloop
endfacet
facet normal -0.9277822773394079 0.33220371115568437 0.16988449060845107
  outer loop
    vertex 1.7696789999999565 3.529528999999913 0.7016382999999827
    vertex 1.7639629999999566 3.5103679999999136 0.7078904999999827
    vertex 1.7652449999999564 3.509549999999914 0.7164913999999823
  endloop
endfacet
facet normal -0.6648410912668313 0.47425610360396714 0.5771199802099317
  outer loop
    vertex 1.7716449999999564 3.5287869999999133 0.7141160999999825
    vertex 1.7668899999999568 3.508819999999914 0.7250464999999823
    vertex 1.7703929999999568 3.5183519999999135 0.7212488999999823
  endloop
endfacet
facet normal -0.2498910883454307 0.9510746334223549 0.18169063164090032
  outer loop
    vertex 1.7134349999999583 3.4599009999999146 0.773109599999981
    vertex 1.7279749999999576 3.4673069999999147 0.7543400999999815
    vertex 1.7119259999999583 3.4604929999999148 0.7679352999999811
  endloop
endfacet
facet normal -0.6654331870990525 0.7246282851148049 0.17919967053199207
  outer loop
    vertex 1.7413079999999574 3.4797789999999145 0.7272298999999821
    vertex 1.7490699999999573 3.4984279999999144 0.6806421999999833
    vertex 1.737293999999957 3.485538999999915 0.6890327999999831
  endloop
endfacet
facet normal -0.9294935488455403 0.329502522482513 0.16574024958405334
  outer loop
    vertex 1.7696789999999565 3.529528999999913 0.7016382999999827
    vertex 1.7652449999999564 3.509549999999914 0.7164913999999823
    vertex 1.7709859999999567 3.529031999999913 0.7099561999999826
  endloop
endfacet
facet normal -0.6525210942412365 0.734740425155588 0.18539883821751713
  outer loop
    vertex 1.7413079999999574 3.4797789999999145 0.7272298999999821
    vertex 1.753894999999957 3.4936179999999144 0.7166861999999825
    vertex 1.7490699999999573 3.4984279999999144 0.6806421999999833
  endloop
endfacet
facet normal -0.9292156402801892 0.32976630321358513 0.16677073821124594
  outer loop
    vertex 1.7709859999999567 3.529031999999913 0.7099561999999826
    vertex 1.7652449999999564 3.509549999999914 0.7164913999999823
    vertex 1.7658769999999564 3.5091529999999134 0.7207977999999824
  endloop
endfacet
facet normal -0.2736607113796895 0.9466300940195763 0.17029762224896267
  outer loop
    vertex 1.711091999999958 3.4624759999999153 0.7516437999999814
    vertex 1.7268459999999577 3.4692989999999146 0.7390328999999818
    vertex 1.7237029999999576 3.4756969999999145 0.6984177999999828
  endloop
endfacet
facet normal -0.9051625711638417 0.3486591082638785 0.24314100022147744
  outer loop
    vertex 1.7716449999999564 3.5287869999999133 0.7141160999999825
    vertex 1.7658769999999564 3.5091529999999134 0.7207977999999824
    vertex 1.7668899999999568 3.508819999999914 0.7250464999999823
  endloop
endfacet
facet normal -0.8424678579972293 0.5098527080132912 0.17406356417433833
  outer loop
    vertex 1.7639629999999566 3.5103679999999136 0.7078904999999827
    vertex 1.7610599999999568 3.4903279999999146 0.7525394999999815
    vertex 1.7652449999999564 3.509549999999914 0.7164913999999823
  endloop
endfacet
facet normal -0.30141995121799803 0.9453891897528082 0.12403746573623899
  outer loop
    vertex 1.7119259999999583 3.4604929999999148 0.7679352999999811
    vertex 1.7276139999999574 3.4679489999999147 0.7492300999999816
    vertex 1.7116699999999583 3.461125999999915 0.7624885999999812
  endloop
endfacet
facet normal -0.802029713161888 0.5684860901707919 0.18322637497856556
  outer loop
    vertex 1.7584249999999568 3.5138929999999133 0.6736090999999833
    vertex 1.7490699999999573 3.4984279999999144 0.6806421999999833
    vertex 1.753894999999957 3.4936179999999144 0.7166861999999825
  endloop
endfacet
facet normal -0.7951933395056345 0.5765583283795023 0.18774463183300624
  outer loop
    vertex 1.7584249999999568 3.5138929999999133 0.6736090999999833
    vertex 1.753894999999957 3.4936179999999144 0.7166861999999825
    vertex 1.7639629999999566 3.5103679999999136 0.7078904999999827
  endloop
endfacet
facet normal -0.8871334611181574 0.41024591552307077 0.21140603340764957
  outer loop
    vertex 1.7703929999999568 3.5183519999999135 0.7212488999999823
    vertex 1.7668899999999568 3.508819999999914 0.7250464999999823
    vertex 1.7704099999999565 3.507617999999914 0.7421501999999817
  endloop
endfacet
facet normal -0.9292639270233927 0.3297016553998712 0.16662944625619927
  outer loop
    vertex 1.7709859999999567 3.529031999999913 0.7099561999999826
    vertex 1.7658769999999564 3.5091529999999134 0.7207977999999824
    vertex 1.7716449999999564 3.5287869999999133 0.7141160999999825
  endloop
endfacet
facet normal -0.9200761882063878 0.34573943993167616 0.18418481905774625
  outer loop
    vertex 1.7640259999999568 3.531537999999913 0.6684662999999835
    vertex 1.7584249999999568 3.5138929999999133 0.6736090999999833
    vertex 1.7639629999999566 3.5103679999999136 0.7078904999999827
  endloop
endfacet
facet normal -0.28470705402340807 0.948443566151368 0.13927201878118964
  outer loop
    vertex 1.7119259999999583 3.4604929999999148 0.7679352999999811
    vertex 1.7279749999999576 3.4673069999999147 0.7543400999999815
    vertex 1.7276139999999574 3.4679489999999147 0.7492300999999816
  endloop
endfacet
facet normal -0.2834618357987529 0.9476791600838813 0.1468114341197935
  outer loop
    vertex 1.7116699999999583 3.461125999999915 0.7624885999999812
    vertex 1.7276139999999574 3.4679489999999147 0.7492300999999816
    vertex 1.7268459999999577 3.4692989999999146 0.7390328999999818
  endloop
endfacet
facet normal -0.29821715031240636 0.9404854179379374 0.16295309112026926
  outer loop
    vertex 1.711091999999958 3.4624759999999153 0.7516437999999814
    vertex 1.7237029999999576 3.4756969999999145 0.6984177999999828
    vertex 1.708882999999958 3.469265999999915 0.7084125999999826
  endloop
endfacet
facet normal -0.7851948049866666 0.582424103923799 0.21035988541190667
  outer loop
    vertex 1.7639629999999566 3.5103679999999136 0.7078904999999827
    vertex 1.753894999999957 3.4936179999999144 0.7166861999999825
    vertex 1.7610599999999568 3.4903279999999146 0.7525394999999815
  endloop
endfacet
facet normal -0.9629767885579998 0.221034324208296 0.1543357775122257
  outer loop
    vertex 1.7716449999999564 3.5287869999999133 0.7141160999999825
    vertex 1.7703929999999568 3.5183519999999135 0.7212488999999823
    vertex 1.7722659999999566 3.5285949999999136 0.7182657999999823
  endloop
endfacet
facet normal -0.9534911546730536 0.23081023705781264 0.19385884666314163
  outer loop
    vertex 1.7722659999999566 3.5285949999999136 0.7182657999999823
    vertex 1.7703929999999568 3.5183519999999135 0.7212488999999823
    vertex 1.7735579999999564 3.5173089999999134 0.7380576999999818
  endloop
endfacet
facet normal -0.49684981352646745 0.8505337811909824 0.17243129023377532
  outer loop
    vertex 1.7268459999999577 3.4692989999999146 0.7390328999999818
    vertex 1.737293999999957 3.485538999999915 0.6890327999999831
    vertex 1.7237029999999576 3.4756969999999145 0.6984177999999828
  endloop
endfacet
facet normal -0.2956330517176111 0.9444411183855115 0.14363868780679018
  outer loop
    vertex 1.7134349999999583 3.4599009999999146 0.773109599999981
    vertex 1.7293839999999576 3.4669949999999146 0.7592914999999814
    vertex 1.7279749999999576 3.4673069999999147 0.7543400999999815
  endloop
endfacet
facet normal -0.6692626042369333 0.7259241874794445 0.15849807759814127
  outer loop
    vertex 1.7427739999999574 3.4779249999999142 0.7416016999999818
    vertex 1.753894999999957 3.4936179999999144 0.7166861999999825
    vertex 1.742287999999957 3.478522999999915 0.7368106999999818
  endloop
endfacet
facet normal -0.9255557692014769 0.33417688726596256 0.17796720516739853
  outer loop
    vertex 1.7640259999999568 3.531537999999913 0.6684662999999835
    vertex 1.7639629999999566 3.5103679999999136 0.7078904999999827
    vertex 1.7696789999999565 3.529528999999913 0.7016382999999827
  endloop
endfacet
facet normal 0.0 0.0 -1.0
  outer loop
    vertex 1.7360769999999575 3.550321999999912 0.5366016999999867
    vertex 1.6389119999999595 3.540867999999913 0.5366016999999867
    vertex 1.6385329999999598 3.5574659999999128 0.5366016999999867
  endloop
endfacet
facet normal 0.0 0.0 -1.0
  outer loop
    vertex 1.6389119999999595 3.540867999999913 0.5366016999999867
    vertex 1.7360769999999575 3.550321999999912 0.5366016999999867
    vertex 1.6449689999999593 3.5247739999999137 0.5366016999999867
  endloop
endfacet
facet normal 0.0 0.0 -1.0
  outer loop
    vertex 1.6449689999999593 3.5247739999999137 0.5366016999999867
    vertex 1.7360769999999575 3.550321999999912 0.5366016999999867
    vertex 1.6500729999999595 3.5175979999999134 0.5366016999999867
  endloop
endfacet
facet normal 0.0 0.0 -1.0
  outer loop
    vertex 1.6500729999999595 3.5175979999999134 0.5366016999999867
    vertex 1.7360769999999575 3.550321999999912 0.5366016999999867
    vertex 1.6563539999999592 3.5114159999999135 0.5366016999999867
  endloop
endfacet
facet normal 0.0 0.0 -1.0
  outer loop
    vertex 1.6563539999999592 3.5114159999999135 0.5366016999999867
    vertex 1.7360769999999575 3.550321999999912 0.5366016999999867
    vertex 1.6636489999999593 3.5064239999999134 0.5366016999999867
  endloop
endfacet
facet normal 0.0 0.0 -1.0
  outer loop
    vertex 1.6636489999999593 3.5064239999999134 0.5366016999999867
    vertex 1.7360769999999575 3.550321999999912 0.5366016999999867
    vertex 1.671794999999959 3.5028149999999143 0.5366016999999867
  endloop
endfacet
facet normal 0.0 0.0 -1.0
  outer loop
    vertex 1.671794999999959 3.5028149999999143 0.5366016999999867
    vertex 1.7360769999999575 3.550321999999912 0.5366016999999867
    vertex 1.684105999999959 3.500415999999914 0.5366016999999867
  endloop
endfacet
facet normal 0.0 0.0 -1.0
  outer loop
    vertex 1.684105999999959 3.500415999999914 0.5366016999999867
    vertex 1.7360769999999575 3.550321999999912 0.5366016999999867
    vertex 1.695038035124611 3.501169330743975 0.5366016999999867
  endloop
endfacet
facet normal 0.0 0.0 -1.0
  outer loop
    vertex 1.695038035124611 3.501169330743975 0.5366016999999867
    vertex 1.7360769999999575 3.550321999999912 0.5366016999999867
    vertex 1.6952099999999584 3.5009979999999143 0.5366016999999867
  endloop
endfacet
facet normal 0.0 0.0 -1.0
  outer loop
    vertex 1.6952099999999584 3.5009979999999143 0.5366016999999867
    vertex 1.7360769999999575 3.550321999999912 0.5366016999999867
    vertex 1.7158209999999579 3.5098909999999135 0.5366016999999867
  endloop
endfacet
facet normal 0.0 0.0 -1.0
  outer loop
    vertex 1.7158209999999579 3.5098909999999135 0.5366016999999867
    vertex 1.7360769999999575 3.550321999999912 0.5366016999999867
    vertex 1.7304889999999575 3.5271219999999133 0.5366016999999867
  endloop
endfacet
facet normal 0.0 0.0 -1.0
  outer loop
    vertex 1.7304889999999575 3.5271219999999133 0.5366016999999867
    vertex 1.7360769999999575 3.550321999999912 0.5366016999999867
    vertex 1.7341589999999576 3.536898999999913 0.5366016999999867
  endloop
endfacet
facet normal 0.0 0.0 -1.0
  outer loop
    vertex 1.7341589999999576 3.536898999999913 0.5366016999999867
    vertex 1.7360769999999575 3.550321999999912 0.5366016999999867
    vertex 1.7346319999999575 3.5389919999999133 0.5366016999999867
  endloop
endfacet
facet normal 0.0 0.0 -1.0
  outer loop
    vertex 1.7346319999999575 3.5389919999999133 0.5366016999999867
    vertex 1.7360769999999575 3.550321999999912 0.5366016999999867
    vertex 1.7348539999999573 3.540013999999913 0.5366016999999867
  endloop
endfacet
facet normal 0.8024103681004447 0.1536007341046837 0.57666664169814
  outer loop
    vertex 1.7860769999999562 3.550321999999912 0.7966016999999803
    vertex 1.7649219999999568 3.468880999999915 0.8477306999999791
    vertex 1.7750669999999567 3.4821059999999147 0.8300916999999794
  endloop
endfacet
facet normal 0.8005102407471947 0.1557824839819458 0.5787185603929458
  outer loop
    vertex 1.7860769999999562 3.550321999999912 0.7966016999999803
    vertex 1.7316435044943637 3.4565772739782 0.8971314362466387
    vertex 1.7350373406600774 3.4564345132058234 0.8924751391421153
  endloop
endfacet
facet normal 0.8005102407471947 0.1557824839819458 0.5787185603929458
  outer loop
    vertex 1.7316435044943637 3.4565772739782 0.8971314362466387
    vertex 1.7860769999999562 3.550321999999912 0.7966016999999803
    vertex 1.715643999999958 3.459856999999915 0.9183796999999775
  endloop
endfacet
facet normal 0.8264597822274301 0.1472308861580769 0.5434034362439165
  outer loop
    vertex 1.7860769999999562 3.550321999999912 0.7966016999999803
    vertex 1.7845339999999565 3.5057439999999143 0.81102649999998
    vertex 1.7865849999999561 3.5196629999999134 0.8041358999999803
  endloop
endfacet
facet normal 0.7860969130942062 0.1654971217378161 0.5955353439723446
  outer loop
    vertex 1.7860769999999562 3.550321999999912 0.7966016999999803
    vertex 1.7750669999999567 3.4821059999999147 0.8300916999999794
    vertex 1.7845339999999565 3.5057439999999143 0.81102649999998
  endloop
endfacet
facet normal 0.801994964972253 0.15400381436420804 0.5771368133470861
  outer loop
    vertex 1.7860769999999562 3.550321999999912 0.7966016999999803
    vertex 1.752725999999957 3.4601719999999148 0.8670022999999786
    vertex 1.7649219999999568 3.468880999999915 0.8477306999999791
  endloop
endfacet
facet normal 0.8004905938039804 0.15581065259459786 0.5787381530272535
  outer loop
    vertex 1.752725999999957 3.4601719999999148 0.8670022999999786
    vertex 1.7350373406600774 3.4564345132058234 0.8924751391421153
    vertex 1.7365980859471157 3.4563688146493026 0.8903334083862549
  endloop
endfacet
facet normal 0.8004905938039804 0.15581065259459786 0.5787381530272535
  outer loop
    vertex 1.7350373406600774 3.4564345132058234 0.8924751391421153
    vertex 1.752725999999957 3.4601719999999148 0.8670022999999786
    vertex 1.7860769999999562 3.550321999999912 0.7966016999999803
  endloop
endfacet
facet normal 0.8005022911651263 0.15579546253741794 0.5787260627379206
  outer loop
    vertex 1.7860769999999562 3.550321999999912 0.7966016999999803
    vertex 1.7091274704876556 3.4632989048781493 0.926466603161902
    vertex 1.715643999999958 3.459856999999915 0.9183796999999775
  endloop
endfacet
facet normal 0.8005022911651263 0.15579546253741794 0.5787260627379206
  outer loop
    vertex 1.7091274704876556 3.4632989048781493 0.926466603161902
    vertex 1.7860769999999562 3.550321999999912 0.7966016999999803
    vertex 1.6968069999999582 3.471898999999915 0.9411928999999768
  endloop
endfacet
facet normal 0.8005022911651263 0.15579546253741794 0.5787260627379206
  outer loop
    vertex 1.6968069999999582 3.471898999999915 0.9411928999999768
    vertex 1.7860769999999562 3.550321999999912 0.7966016999999803
    vertex 1.6945488040504841 3.4743723842381797 0.9436504991568233
  endloop
endfacet
facet normal 0.8005022911651263 0.15579546253741794 0.5787260627379206
  outer loop
    vertex 1.6945488040504841 3.4743723842381797 0.9436504991568233
    vertex 1.7860769999999562 3.550321999999912 0.7966016999999803
    vertex 1.6807584401815403 3.4908569820552495 0.9582881426862736
  endloop
endfacet
facet normal 0.8005022911651263 0.15579546253741794 0.5787260627379206
  outer loop
    vertex 1.6807584401815403 3.4908569820552495 0.9582881426862736
    vertex 1.7860769999999562 3.550321999999912 0.7966016999999803
    vertex 1.6766458735450045 3.497622254775265 0.9621553196199799
  endloop
endfacet
facet normal 0.8005022911651263 0.15579546253741794 0.5787260627379206
  outer loop
    vertex 1.6766458735450045 3.497622254775265 0.9621553196199799
    vertex 1.7860769999999562 3.550321999999912 0.7966016999999803
    vertex 1.6682483246222586 3.5148425614398886 0.9691353549904607
  endloop
endfacet
facet normal 0.8005022911651263 0.15579546253741794 0.5787260627379206
  outer loop
    vertex 1.6682483246222586 3.5148425614398886 0.9691353549904607
    vertex 1.7860769999999562 3.550321999999912 0.7966016999999803
    vertex 1.6646279583595132 3.5240682446211262 0.9716594916750749
  endloop
endfacet
facet normal 0.8005022911651263 0.15579546253741794 0.5787260627379206
  outer loop
    vertex 1.6646279583595132 3.5240682446211262 0.9716594916750749
    vertex 1.7860769999999562 3.550321999999912 0.7966016999999803
    vertex 1.6632060259554604 3.5288269333066253 0.9723451654040481
  endloop
endfacet
facet normal 0.8005022911651263 0.15579546253741794 0.5787260627379206
  outer loop
    vertex 1.6632060259554604 3.5288269333066253 0.9723451654040481
    vertex 1.7860769999999562 3.550321999999912 0.7966016999999803
    vertex 1.6588099999999595 3.549241999999912 0.9729302999999763
  endloop
endfacet
facet normal 0.07303305242405457 0.997191498551372 -0.01659181938469794
  outer loop
    vertex 1.7658629999999567 3.550288999999913 0.6657288999999835
    vertex 1.7360769999999575 3.550321999999912 0.5366016999999867
    vertex 1.6385329999999598 3.5574659999999128 0.5366016999999867
  endloop
endfacet
facet normal 0.06698255000672597 0.9976978668166054 -0.010597383837129123
  outer loop
    vertex 1.7860769999999562 3.550321999999912 0.7966016999999803
    vertex 1.7658629999999567 3.550288999999913 0.6657288999999835
    vertex 1.6385329999999598 3.5574659999999128 0.5366016999999867
  endloop
endfacet
facet normal 0.0 0.9965855613782395 0.08256645113131354
  outer loop
    vertex 1.7860769999999562 3.550321999999912 0.7966016999999803
    vertex 1.6352649999999596 3.561108999999912 0.6664014999999835
    vertex 1.6260769999999596 3.550321999999912 0.7966016999999803
  endloop
endfacet
facet normal 0.10358280805411697 0.994122995265284 -0.03146541212830956
  outer loop
    vertex 1.7860769999999562 3.550321999999912 0.7966016999999803
    vertex 1.6385329999999598 3.5574659999999128 0.5366016999999867
    vertex 1.6392719999999599 3.5594419999999127 0.6014644999999851
  endloop
endfacet
facet normal 0.006060955370659057 0.9999285467659278 0.010303697519567391
  outer loop
    vertex 1.6458509999999595 3.5497999999999124 0.9297447999999773
    vertex 1.7860769999999562 3.550321999999912 0.7966016999999803
    vertex 1.6333909999999598 3.5503209999999132 0.8865133999999782
  endloop
endfacet
facet normal 0.0885823532163732 0.9958660566565359 -0.02009885315163472
  outer loop
    vertex 1.7860769999999562 3.550321999999912 0.7966016999999803
    vertex 1.6392719999999599 3.5594419999999127 0.6014644999999851
    vertex 1.6352649999999596 3.561108999999912 0.6664014999999835
  endloop
endfacet
facet normal 0.006650290794974612 0.9999182128290917 0.010924343688201306
  outer loop
    vertex 1.6588099999999595 3.549241999999912 0.9729302999999763
    vertex 1.7860769999999562 3.550321999999912 0.7966016999999803
    vertex 1.6458509999999595 3.5497999999999124 0.9297447999999773
  endloop
endfacet
facet normal 6.5417510193823395e-22 0.9999999999381504 1.1122023038289398e-05
  outer loop
    vertex 1.6333909999999598 3.5503209999999132 0.8865133999999782
    vertex 1.7860769999999562 3.550321999999912 0.7966016999999803
    vertex 1.6260769999999596 3.550321999999912 0.7966016999999803
  endloop
endfacet
facet normal -0.0 -0.0 1.0
  outer loop
    vertex 1.9316511349201255 3.5456572804251993 0.09160160999999775
    vertex 1.9317849999999526 3.5543619999999123 0.09160160999999775
    vertex 1.9316097149829385 3.5543096094468236 0.09160160999999775
  endloop
endfacet
facet normal -0.0 -0.0 1.0
  outer loop
    vertex 1.9317849999999526 3.5543619999999123 0.09160160999999775
    vertex 1.9316511349201255 3.5456572804251993 0.09160160999999775
    vertex 1.9318179999999525 3.5469149999999128 0.09160160999999775
  endloop
endfacet
endsolid 2015new_separate_human-HUTA
