solid Object01
facet normal 0.957311312918622 -0.28903446410141415 0.003758818914573742
  outer loop
    vertex 1.6453459999999596 3.5795589999999122 0.6014105999999853
    vertex 1.6392719999999599 3.5594419999999127 0.6014644999999851
    vertex 1.6439099999999596 3.5739599999999125 0.5366016999999867
  endloop
endfacet
facet normal 0.596817070291777 -0.7978406138763562 0.08520410470006191
  outer loop
    vertex 1.6574409999999595 3.5967429999999116 0.6013553999999851
    vertex 1.6547529999999593 3.5878169999999114 0.5366016999999867
    vertex 1.6617699999999593 3.593065999999912 0.5366016999999867
  endloop
endfacet
facet normal 0.861830073809578 -0.5062627007573497 0.0307733927159723
  outer loop
    vertex 1.6507289999999595 3.5887209999999117 0.6013828999999852
    vertex 1.6453459999999596 3.5795589999999122 0.6014105999999853
    vertex 1.6487409999999596 3.5813989999999123 0.5366016999999867
  endloop
endfacet
facet normal 0.9861241476070531 -0.15604061921982368 0.05666119183142143
  outer loop
    vertex 1.6315389999999597 3.5848399999999114 0.7966016999999803
    vertex 1.6260769999999596 3.550321999999912 0.7966016999999803
    vertex 1.6352649999999596 3.561108999999912 0.6664014999999835
  endloop
endfacet
facet normal 0.7287174393558661 -0.6826190784368478 0.05479130709025347
  outer loop
    vertex 1.6507289999999595 3.5887209999999117 0.6013828999999852
    vertex 1.6487409999999596 3.5813989999999123 0.5366016999999867
    vertex 1.6547529999999593 3.5878169999999114 0.5366016999999867
  endloop
endfacet
facet normal 0.8407464817310772 -0.5344655388247496 0.08655600074856605
  outer loop
    vertex 1.656342999999959 3.605535999999911 0.6663155999999837
    vertex 1.6574409999999595 3.5967429999999116 0.6013553999999851
    vertex 1.6617699999999593 3.593065999999912 0.5366016999999867
  endloop
endfacet
facet normal 0.9566540162631627 -0.28044946112623365 0.07849326672757119
  outer loop
    vertex 1.6423089999999596 3.585125999999912 0.6663617999999836
    vertex 1.6315389999999597 3.5848399999999114 0.7966016999999803
    vertex 1.6352649999999596 3.561108999999912 0.6664014999999835
  endloop
endfacet
facet normal 0.9507540333571189 -0.30994327860805143 -0.0013900003102147007
  outer loop
    vertex 1.6439099999999596 3.5739599999999125 0.5366016999999867
    vertex 1.6392719999999599 3.5594419999999127 0.6014644999999851
    vertex 1.6385329999999598 3.5574659999999128 0.5366016999999867
  endloop
endfacet
facet normal 0.17500188759833787 -0.9729474854355711 0.15082284283760852
  outer loop
    vertex 1.6807449999999586 3.621400999999911 0.6662632999999837
    vertex 1.6839319999999585 3.6118999999999115 0.6012750999999852
    vertex 1.6994249999999582 3.624757999999911 0.6662443999999836
  endloop
endfacet
facet normal 0.838327947829003 -0.5444229487783382 0.02845882520961624
  outer loop
    vertex 1.6487409999999596 3.5813989999999123 0.5366016999999867
    vertex 1.6453459999999596 3.5795589999999122 0.6014105999999853
    vertex 1.6439099999999596 3.5739599999999125 0.5366016999999867
  endloop
endfacet
facet normal 0.12416299350263212 -0.9810969121429134 0.14843315003093532
  outer loop
    vertex 1.6891989999999584 3.6431859999999108 0.7966016999999803
    vertex 1.6994249999999582 3.624757999999911 0.6662443999999836
    vertex 1.706076999999958 3.645321999999911 0.7966016999999803
  endloop
endfacet
facet normal 0.09352839167763204 -0.9799721319592123 0.17580404015127638
  outer loop
    vertex 1.6994249999999582 3.624757999999911 0.6662443999999836
    vertex 1.6781079999999589 3.599465999999912 0.5366016999999867
    vertex 1.6870769999999584 3.6003219999999114 0.5366016999999867
  endloop
endfacet
facet normal 0.7658200540189418 -0.6405672151650011 0.056509182600531886
  outer loop
    vertex 1.6574409999999595 3.5967429999999116 0.6013553999999851
    vertex 1.6507289999999595 3.5887209999999117 0.6013828999999852
    vertex 1.6547529999999593 3.5878169999999114 0.5366016999999867
  endloop
endfacet
facet normal 0.03738543563332526 -0.981947751821768 0.18542098558329992
  outer loop
    vertex 1.6994249999999582 3.624757999999911 0.6662443999999836
    vertex 1.6839319999999585 3.6118999999999115 0.6012750999999852
    vertex 1.6781079999999589 3.599465999999912 0.5366016999999867
  endloop
endfacet
facet normal 0.44501681131422016 -0.8877700579726981 0.1175770462925306
  outer loop
    vertex 1.665319999999959 3.603417999999911 0.6013284999999854
    vertex 1.6617699999999593 3.593065999999912 0.5366016999999867
    vertex 1.669613999999959 3.5969979999999118 0.5366016999999867
  endloop
endfacet
facet normal 0.7141420536184139 -0.692849831916549 0.09980099031013884
  outer loop
    vertex 1.659630999999959 3.627691999999911 0.7966016999999803
    vertex 1.656342999999959 3.605535999999911 0.6663155999999837
    vertex 1.6628559999999588 3.6216279999999106 0.731426499999982
  endloop
endfacet
facet normal 0.558743290700008 -0.8227687523500055 0.10419940140970912
  outer loop
    vertex 1.659630999999959 3.627691999999911 0.7966016999999803
    vertex 1.6628559999999588 3.6216279999999106 0.731426499999982
    vertex 1.6735169999999586 3.6371219999999105 0.7966016999999803
  endloop
endfacet
facet normal 0.38330123203778604 -0.9131121344677342 0.13894745555818486
  outer loop
    vertex 1.6744829999999589 3.618773999999912 0.6662739999999836
    vertex 1.669613999999959 3.5969979999999118 0.5366016999999867
    vertex 1.6807449999999586 3.621400999999911 0.6662632999999837
  endloop
endfacet
facet normal 0.8644940627332828 -0.4951969874242642 0.08619721077178934
  outer loop
    vertex 1.6383379999999597 3.6008639999999112 0.7966016999999803
    vertex 1.6423089999999596 3.585125999999912 0.6663617999999836
    vertex 1.6485509999999597 3.5960189999999117 0.6663386999999835
  endloop
endfacet
facet normal 0.3575355522510236 -0.9246161824538741 0.1313516045618769
  outer loop
    vertex 1.6735169999999586 3.6371219999999105 0.7966016999999803
    vertex 1.6807449999999586 3.621400999999911 0.6662632999999837
    vertex 1.6891989999999584 3.6431859999999108 0.7966016999999803
  endloop
endfacet
facet normal 0.7701159229697557 -0.6302903654356664 0.09826250774031445
  outer loop
    vertex 1.6478069999999596 3.615417999999912 0.7966016999999803
    vertex 1.6485509999999597 3.5960189999999117 0.6663386999999835
    vertex 1.656342999999959 3.605535999999911 0.6663155999999837
  endloop
endfacet
facet normal 0.8351265862833273 -0.5433429741319422 0.08568545584994103
  outer loop
    vertex 1.6478069999999596 3.615417999999912 0.7966016999999803
    vertex 1.6383379999999597 3.6008639999999112 0.7966016999999803
    vertex 1.6485509999999597 3.5960189999999117 0.6663386999999835
  endloop
endfacet
facet normal 0.6648144684389667 -0.7379649861007894 0.1158852960624251
  outer loop
    vertex 1.6628559999999588 3.6216279999999106 0.731426499999982
    vertex 1.656342999999959 3.605535999999911 0.6663155999999837
    vertex 1.665319999999959 3.603417999999911 0.6013284999999854
  endloop
endfacet
facet normal 0.547951209432142 -0.828076554577433 0.11848498571979733
  outer loop
    vertex 1.6744829999999589 3.618773999999912 0.6662739999999836
    vertex 1.665319999999959 3.603417999999911 0.6013284999999854
    vertex 1.669613999999959 3.5969979999999118 0.5366016999999867
  endloop
endfacet
facet normal 0.9179658665846946 -0.3894938796124201 0.07505455036089538
  outer loop
    vertex 1.6383379999999597 3.6008639999999112 0.7966016999999803
    vertex 1.6315389999999597 3.5848399999999114 0.7966016999999803
    vertex 1.6423089999999596 3.585125999999912 0.6663617999999836
  endloop
endfacet
facet normal 0.7166251025169945 -0.6903515734203395 0.09931348105151075
  outer loop
    vertex 1.659630999999959 3.627691999999911 0.7966016999999803
    vertex 1.6478069999999596 3.615417999999912 0.7966016999999803
    vertex 1.656342999999959 3.605535999999911 0.6663155999999837
  endloop
endfacet
facet normal 0.2938846283567273 -0.9436189381031469 0.1523651038417849
  outer loop
    vertex 1.6807449999999586 3.621400999999911 0.6662632999999837
    vertex 1.669613999999959 3.5969979999999118 0.5366016999999867
    vertex 1.6839319999999585 3.6118999999999115 0.6012750999999852
  endloop
endfacet
facet normal 0.3836822576591612 -0.914050611497687 0.13152720166670406
  outer loop
    vertex 1.6735169999999586 3.6371219999999105 0.7966016999999803
    vertex 1.6744829999999589 3.618773999999912 0.6662739999999836
    vertex 1.6807449999999586 3.621400999999911 0.6662632999999837
  endloop
endfacet
facet normal 0.4893380137328836 -0.8630701085248392 0.12513311347072933
  outer loop
    vertex 1.6735169999999586 3.6371219999999105 0.7966016999999803
    vertex 1.6628559999999588 3.6216279999999106 0.731426499999982
    vertex 1.6744829999999589 3.618773999999912 0.6662739999999836
  endloop
endfacet
facet normal 0.2755360279902669 -0.9482994415515269 0.1575057663465353
  outer loop
    vertex 1.6839319999999585 3.6118999999999115 0.6012750999999852
    vertex 1.669613999999959 3.5969979999999118 0.5366016999999867
    vertex 1.6781079999999589 3.599465999999912 0.5366016999999867
  endloop
endfacet
facet normal 0.5478531777384785 -0.830242228734124 0.10273625099469798
  outer loop
    vertex 1.656342999999959 3.605535999999911 0.6663155999999837
    vertex 1.6617699999999593 3.593065999999912 0.5366016999999867
    vertex 1.665319999999959 3.603417999999911 0.6013284999999854
  endloop
endfacet
facet normal 0.5120065554220299 -0.8493042042399115 0.12857548703107682
  outer loop
    vertex 1.6628559999999588 3.6216279999999106 0.731426499999982
    vertex 1.665319999999959 3.603417999999911 0.6013284999999854
    vertex 1.6744829999999589 3.618773999999912 0.6662739999999836
  endloop
endfacet
facet normal 0.1749905267226915 -0.9728818121696147 0.15125903314143532
  outer loop
    vertex 1.6891989999999584 3.6431859999999108 0.7966016999999803
    vertex 1.6807449999999586 3.621400999999911 0.6662632999999837
    vertex 1.6994249999999582 3.624757999999911 0.6662443999999836
  endloop
endfacet
facet normal 0.9573353220608267 -0.2806652739952288 0.06881922048291805
  outer loop
    vertex 1.6423089999999596 3.585125999999912 0.6663617999999836
    vertex 1.6352649999999596 3.561108999999912 0.6664014999999835
    vertex 1.6453459999999596 3.5795589999999122 0.6014105999999853
  endloop
endfacet
facet normal 0.7701106724999588 -0.6302858972526536 0.09833229289546094
  outer loop
    vertex 1.656342999999959 3.605535999999911 0.6663155999999837
    vertex 1.6485509999999597 3.5960189999999117 0.6663386999999835
    vertex 1.6574409999999595 3.5967429999999116 0.6013553999999851
  endloop
endfacet
facet normal 0.9552552817248391 -0.28824599153267455 0.06634451825240623
  outer loop
    vertex 1.6453459999999596 3.5795589999999122 0.6014105999999853
    vertex 1.6352649999999596 3.561108999999912 0.6664014999999835
    vertex 1.6392719999999599 3.5594419999999127 0.6014644999999851
  endloop
endfacet
facet normal 0.8646087957623374 -0.49526604443713074 0.08463554523956902
  outer loop
    vertex 1.6485509999999597 3.5960189999999117 0.6663386999999835
    vertex 1.6423089999999596 3.585125999999912 0.6663617999999836
    vertex 1.6507289999999595 3.5887209999999117 0.6013828999999852
  endloop
endfacet
facet normal 0.8593019718731663 -0.504618150021256 0.08343047287420505
  outer loop
    vertex 1.6507289999999595 3.5887209999999117 0.6013828999999852
    vertex 1.6423089999999596 3.585125999999912 0.6663617999999836
    vertex 1.6453459999999596 3.5795589999999122 0.6014105999999853
  endloop
endfacet
facet normal 0.7634728526558182 -0.6384633665811896 0.09733310223865721
  outer loop
    vertex 1.6574409999999595 3.5967429999999116 0.6013553999999851
    vertex 1.6485509999999597 3.5960189999999117 0.6663386999999835
    vertex 1.6507289999999595 3.5887209999999117 0.6013828999999852
  endloop
endfacet
facet normal 0.8949190759108575 -0.3916027614626822 -0.2139325239080275
  outer loop
    vertex 1.6536689999999592 3.601982999999912 0.9149803999999775
    vertex 1.662245999999959 3.5999849999999123 0.9545168999999766
    vertex 1.6482999999999597 3.585724999999912 0.9222810999999772
  endloop
endfacet
facet normal 0.8238494177479502 -0.5282746656413433 -0.2054215531970557
  outer loop
    vertex 1.669623999999959 3.6172689999999106 0.9396579999999769
    vertex 1.662245999999959 3.5999849999999123 0.9545168999999766
    vertex 1.6536689999999592 3.601982999999912 0.9149803999999775
  endloop
endfacet
facet normal 0.8097514822257501 -0.5594396756371702 -0.17700222133119828
  outer loop
    vertex 1.669623999999959 3.6172689999999106 0.9396579999999769
    vertex 1.6536689999999592 3.601982999999912 0.9149803999999775
    vertex 1.6615789999999595 3.616413999999911 0.9055559999999777
  endloop
endfacet
facet normal 0.9937021914040097 -0.0775993034502029 -0.08083503512037606
  outer loop
    vertex 1.6274449999999596 3.5678399999999124 0.7966016999999803
    vertex 1.6333909999999598 3.5503209999999132 0.8865133999999782
    vertex 1.6260769999999596 3.550321999999912 0.7966016999999803
  endloop
endfacet
facet normal 0.9129194612233962 -0.3199261019225415 -0.2534272018316737
  outer loop
    vertex 1.662245999999959 3.5999849999999123 0.9545168999999766
    vertex 1.6582969999999595 3.580162999999912 0.9653146999999763
    vertex 1.6482999999999597 3.585724999999912 0.9222810999999772
  endloop
endfacet
facet normal 0.9960460533033569 -0.04743721023580233 -0.0751130533519349
  outer loop
    vertex 1.6341009999999596 3.5684239999999123 0.8844955999999783
    vertex 1.6333909999999598 3.5503209999999132 0.8865133999999782
    vertex 1.6274449999999596 3.5678399999999124 0.7966016999999803
  endloop
endfacet
facet normal 0.9696904489886656 -0.23352427636234555 -0.07188077273932737
  outer loop
    vertex 1.6315389999999597 3.5848399999999114 0.7966016999999803
    vertex 1.6341009999999596 3.5684239999999123 0.8844955999999783
    vertex 1.6274449999999596 3.5678399999999124 0.7966016999999803
  endloop
endfacet
facet normal 0.7136347739168399 -0.684238845584275 -0.15014197164736956
  outer loop
    vertex 1.6678029999999588 3.62436699999991 0.898655099999978
    vertex 1.669623999999959 3.6172689999999106 0.9396579999999769
    vertex 1.6540069999999596 3.616349999999911 0.8696174999999787
  endloop
endfacet
facet normal 0.957803434038284 0.008051881912238639 -0.28731124054262447
  outer loop
    vertex 1.6458509999999595 3.5497999999999124 0.9297447999999773
    vertex 1.657717571910617 3.566574300414349 0.9697743498297146
    vertex 1.6588099999999595 3.549241999999912 0.9729302999999763
  endloop
endfacet
facet normal 0.957803434038284 0.008051881912238639 -0.28731124054262447
  outer loop
    vertex 1.657717571910617 3.566574300414349 0.9697743498297146
    vertex 1.6458509999999595 3.5497999999999124 0.9297447999999773
    vertex 1.6576369999999592 3.5678539999999126 0.9695413999999762
  endloop
endfacet
facet normal 0.9604367337394158 -0.02742927889730716 -0.2771442136201588
  outer loop
    vertex 1.6456339999999596 3.568177999999912 0.9271738999999772
    vertex 1.6458509999999595 3.5497999999999124 0.9297447999999773
    vertex 1.6333909999999598 3.5503209999999132 0.8865133999999782
  endloop
endfacet
facet normal 0.7971870199662164 0.15739698059743815 0.5828542233665234
  outer loop
    vertex 1.658234424301655 3.578693730900824 0.9657969558745084
    vertex 1.6582969999999595 3.580162999999912 0.9653146999999763
    vertex 1.6576369999999592 3.5678539999999126 0.9695413999999762
  endloop
endfacet
facet normal 0.7971870199662164 0.15739698059743815 0.5828542233665234
  outer loop
    vertex 1.6582969999999595 3.580162999999912 0.9653146999999763
    vertex 1.658234424301655 3.578693730900824 0.9657969558745084
    vertex 1.6583149999999593 3.580153999999912 0.9652925999999763
  endloop
endfacet
facet normal 0.9515370192250769 -0.1459541802966055 -0.27069295945443783
  outer loop
    vertex 1.6456339999999596 3.568177999999912 0.9271738999999772
    vertex 1.658234424301655 3.578693730900824 0.9657969558745084
    vertex 1.6576369999999592 3.5678539999999126 0.9695413999999762
  endloop
endfacet
facet normal 0.9515370192250769 -0.1459541802966055 -0.27069295945443783
  outer loop
    vertex 1.658234424301655 3.578693730900824 0.9657969558745084
    vertex 1.6456339999999596 3.568177999999912 0.9271738999999772
    vertex 1.6583149999999593 3.580153999999912 0.9652925999999763
  endloop
endfacet
facet normal 0.9631179100070921 -0.0668260675829323 -0.26064951201752184
  outer loop
    vertex 1.6341009999999596 3.5684239999999123 0.8844955999999783
    vertex 1.6456339999999596 3.568177999999912 0.9271738999999772
    vertex 1.6333909999999598 3.5503209999999132 0.8865133999999782
  endloop
endfacet
facet normal 0.9617344040952799 -0.026788161391339854 -0.2726707362163542
  outer loop
    vertex 1.6456339999999596 3.568177999999912 0.9271738999999772
    vertex 1.6576369999999592 3.5678539999999126 0.9695413999999762
    vertex 1.6458509999999595 3.5497999999999124 0.9297447999999773
  endloop
endfacet
facet normal 0.9452253406262591 -0.21266326125005253 -0.24763560477537278
  outer loop
    vertex 1.6482999999999597 3.585724999999912 0.9222810999999772
    vertex 1.6583149999999593 3.580153999999912 0.9652925999999763
    vertex 1.6456339999999596 3.568177999999912 0.9271738999999772
  endloop
endfacet
facet normal 0.35450301840158854 -0.9340922175086489 -0.04241861777495983
  outer loop
    vertex 1.6921579999999585 3.6393859999999107 0.9025340999999778
    vertex 1.6740139999999588 3.6345629999999103 0.857106499999979
    vertex 1.6735169999999586 3.6371219999999105 0.7966016999999803
  endloop
endfacet
facet normal 0.5613614400586806 -0.8266240675137945 -0.03957252357626372
  outer loop
    vertex 1.6740139999999588 3.6345629999999103 0.857106499999979
    vertex 1.659630999999959 3.627691999999911 0.7966016999999803
    vertex 1.6735169999999586 3.6371219999999105 0.7966016999999803
  endloop
endfacet
facet normal 0.913800096836503 -0.40059539721923054 -0.06702768643153911
  outer loop
    vertex 1.6446239999999595 3.6019209999999116 0.8759825999999783
    vertex 1.63791599999996 3.585778999999912 0.8810049999999785
    vertex 1.6383379999999597 3.6008639999999112 0.7966016999999803
  endloop
endfacet
facet normal 0.5642420523499262 -0.8246161809798829 -0.0404853112387217
  outer loop
    vertex 1.6674179999999594 3.629851999999911 0.8611332999999788
    vertex 1.659630999999959 3.627691999999911 0.7966016999999803
    vertex 1.6740139999999588 3.6345629999999103 0.857106499999979
  endloop
endfacet
facet normal 0.9479660852829693 -0.21060460791428526 -0.23875929359619188
  outer loop
    vertex 1.63791599999996 3.585778999999912 0.8810049999999785
    vertex 1.6482999999999597 3.585724999999912 0.9222810999999772
    vertex 1.6456339999999596 3.568177999999912 0.9271738999999772
  endloop
endfacet
facet normal 0.8129806326289473 -0.5568313084859112 -0.17029792969999544
  outer loop
    vertex 1.6615789999999595 3.616413999999911 0.9055559999999777
    vertex 1.6536689999999592 3.601982999999912 0.9149803999999775
    vertex 1.6540069999999596 3.616349999999911 0.8696174999999787
  endloop
endfacet
facet normal 0.667986436405169 -0.7353359520130403 -0.1143466591370251
  outer loop
    vertex 1.6678029999999588 3.62436699999991 0.898655099999978
    vertex 1.6540069999999596 3.616349999999911 0.8696174999999787
    vertex 1.6674179999999594 3.629851999999911 0.8611332999999788
  endloop
endfacet
facet normal 0.9328180799681497 -0.2560501573324544 -0.25355225618116656
  outer loop
    vertex 1.63791599999996 3.585778999999912 0.8810049999999785
    vertex 1.6456339999999596 3.568177999999912 0.9271738999999772
    vertex 1.6341009999999596 3.5684239999999123 0.8844955999999783
  endloop
endfacet
facet normal 0.1255061326574555 -0.9917099751836935 -0.027559676821890818
  outer loop
    vertex 1.7101689999999583 3.6436199999999106 0.8764814999999784
    vertex 1.6891989999999584 3.6431859999999108 0.7966016999999803
    vertex 1.706076999999958 3.645321999999911 0.7966016999999803
  endloop
endfacet
facet normal 0.8367485837774729 -0.5443982643801261 -0.05901133184651656
  outer loop
    vertex 1.6478069999999596 3.615417999999912 0.7966016999999803
    vertex 1.6446239999999595 3.6019209999999116 0.8759825999999783
    vertex 1.6383379999999597 3.6008639999999112 0.7966016999999803
  endloop
endfacet
facet normal 0.36031912365737195 -0.931814725790674 -0.04349075679307476
  outer loop
    vertex 1.6921579999999585 3.6393859999999107 0.9025340999999778
    vertex 1.6735169999999586 3.6371219999999105 0.7966016999999803
    vertex 1.6891989999999584 3.6431859999999108 0.7966016999999803
  endloop
endfacet
facet normal 0.674301441942973 -0.722019803370844 -0.15493537018368406
  outer loop
    vertex 1.669623999999959 3.6172689999999106 0.9396579999999769
    vertex 1.6678029999999588 3.62436699999991 0.898655099999978
    vertex 1.6797979999999588 3.630557999999911 0.9220081999999774
  endloop
endfacet
facet normal 0.6282309269730555 -0.7688965110527516 -0.11884467882695174
  outer loop
    vertex 1.6797979999999588 3.630557999999911 0.9220081999999774
    vertex 1.6678029999999588 3.62436699999991 0.898655099999978
    vertex 1.6674179999999594 3.629851999999911 0.8611332999999788
  endloop
endfacet
facet normal 0.8744760208280353 -0.4320238846335237 -0.220560767370186
  outer loop
    vertex 1.6446239999999595 3.6019209999999116 0.8759825999999783
    vertex 1.6482999999999597 3.585724999999912 0.9222810999999772
    vertex 1.63791599999996 3.585778999999912 0.8810049999999785
  endloop
endfacet
facet normal 0.7859513777728578 -0.5910941699645451 -0.18135080372270757
  outer loop
    vertex 1.6540069999999596 3.616349999999911 0.8696174999999787
    vertex 1.6536689999999592 3.601982999999912 0.9149803999999775
    vertex 1.6446239999999595 3.6019209999999116 0.8759825999999783
  endloop
endfacet
facet normal 0.8238015153211325 -0.5633934858234574 -0.06276020623213312
  outer loop
    vertex 1.6540069999999596 3.616349999999911 0.8696174999999787
    vertex 1.6446239999999595 3.6019209999999116 0.8759825999999783
    vertex 1.6478069999999596 3.615417999999912 0.7966016999999803
  endloop
endfacet
facet normal 0.7192027094482236 -0.6928346778976782 -0.05222616034856932
  outer loop
    vertex 1.659630999999959 3.627691999999911 0.7966016999999803
    vertex 1.6540069999999596 3.616349999999911 0.8696174999999787
    vertex 1.6478069999999596 3.615417999999912 0.7966016999999803
  endloop
endfacet
facet normal 0.6894632145243935 -0.7219110256558966 -0.05903343844078124
  outer loop
    vertex 1.6540069999999596 3.616349999999911 0.8696174999999787
    vertex 1.659630999999959 3.627691999999911 0.7966016999999803
    vertex 1.6674179999999594 3.629851999999911 0.8611332999999788
  endloop
endfacet
facet normal 0.9186115233574478 -0.38976783245802377 -0.06506847113528132
  outer loop
    vertex 1.6383379999999597 3.6008639999999112 0.7966016999999803
    vertex 1.63791599999996 3.585778999999912 0.8810049999999785
    vertex 1.6315389999999597 3.5848399999999114 0.7966016999999803
  endloop
endfacet
facet normal 0.8973395124324707 -0.3895163284089364 -0.20750621516060047
  outer loop
    vertex 1.6536689999999592 3.601982999999912 0.9149803999999775
    vertex 1.6482999999999597 3.585724999999912 0.9222810999999772
    vertex 1.6446239999999595 3.6019209999999116 0.8759825999999783
  endloop
endfacet
facet normal 0.6717960971016237 -0.7273380222989607 -0.14024765679776036
  outer loop
    vertex 1.669623999999959 3.6172689999999106 0.9396579999999769
    vertex 1.6615789999999595 3.616413999999911 0.9055559999999777
    vertex 1.6540069999999596 3.616349999999911 0.8696174999999787
  endloop
endfacet
facet normal 0.5373483007412231 -0.8374623819705004 -0.09956687438508789
  outer loop
    vertex 1.6797979999999588 3.630557999999911 0.9220081999999774
    vertex 1.6674179999999594 3.629851999999911 0.8611332999999788
    vertex 1.6740139999999588 3.6345629999999103 0.857106499999979
  endloop
endfacet
facet normal 0.17326885250930069 -0.9840562448021088 -0.04013990304026911
  outer loop
    vertex 1.6921579999999585 3.6393859999999107 0.9025340999999778
    vertex 1.6891989999999584 3.6431859999999108 0.7966016999999803
    vertex 1.7101689999999583 3.6436199999999106 0.8764814999999784
  endloop
endfacet
facet normal 0.9711448447923408 -0.22772646223109283 -0.07084030514453835
  outer loop
    vertex 1.63791599999996 3.585778999999912 0.8810049999999785
    vertex 1.6341009999999596 3.5684239999999123 0.8844955999999783
    vertex 1.6315389999999597 3.5848399999999114 0.7966016999999803
  endloop
endfacet
facet normal 0.4736502363378299 -0.8754396236933805 -0.09623366814535715
  outer loop
    vertex 1.6797979999999588 3.630557999999911 0.9220081999999774
    vertex 1.6740139999999588 3.6345629999999103 0.857106499999979
    vertex 1.6921579999999585 3.6393859999999107 0.9025340999999778
  endloop
endfacet
facet normal -0.9665782411247873 -0.20838034341851355 0.14934569381436805
  outer loop
    vertex 1.7819569999999565 3.569764999999912 0.7970652999999804
    vertex 1.7658629999999567 3.550288999999913 0.6657288999999835
    vertex 1.7860769999999562 3.550321999999912 0.7966016999999803
  endloop
endfacet
facet normal -0.7832007777210801 -0.6181470653908548 0.06701303847587858
  outer loop
    vertex 1.7568609999999567 3.618748999999912 0.81859149999998
    vertex 1.754979999999957 3.6170929999999117 0.7813322999999809
    vertex 1.7669889999999566 3.6048049999999114 0.8083369999999802
  endloop
endfacet
facet normal -0.10062149906011543 -0.9759203457229509 0.19353240744353753
  outer loop
    vertex 1.6994249999999582 3.624757999999911 0.6662443999999836
    vertex 1.6870769999999584 3.6003219999999114 0.5366016999999867
    vertex 1.6969989999999582 3.599298999999912 0.5366016999999867
  endloop
endfacet
facet normal -0.862917653193324 -0.4927972514777527 0.11191064624645301
  outer loop
    vertex 1.7669889999999566 3.6048049999999114 0.8083369999999802
    vertex 1.7601719999999568 3.6009189999999114 0.7386606999999817
    vertex 1.7755229999999564 3.588195999999912 0.8010031999999804
  endloop
endfacet
facet normal -0.4164125398053402 -0.9091565739369176 0.005909378998844244
  outer loop
    vertex 1.7338709999999575 3.6375469999999104 0.8453320999999792
    vertex 1.720881999999958 3.6433239999999105 0.8188343999999798
    vertex 1.7328269999999575 3.6377619999999107 0.8048428999999803
  endloop
endfacet
facet normal -0.9377003973007094 -0.31672602987407733 0.14283762425319493
  outer loop
    vertex 1.7587569999999566 3.580138999999912 0.6677650999999836
    vertex 1.7634169999999567 3.5655019999999125 0.6659011999999835
    vertex 1.7819569999999565 3.569764999999912 0.7970652999999804
  endloop
endfacet
facet normal -0.2095858245098696 -0.9772473880413381 0.032577979232916374
  outer loop
    vertex 1.720881999999958 3.6433239999999105 0.8188343999999798
    vertex 1.7126699999999575 3.6447259999999106 0.8080596999999802
    vertex 1.7185699999999573 3.6431379999999107 0.7983809999999804
  endloop
endfacet
facet normal -0.3130121215703995 -0.9482523262044571 -0.053300446506886014
  outer loop
    vertex 1.7101689999999583 3.6436199999999106 0.8764814999999784
    vertex 1.720881999999958 3.6433239999999105 0.8188343999999798
    vertex 1.7338709999999575 3.6375469999999104 0.8453320999999792
  endloop
endfacet
facet normal -0.9353226662802897 -0.28357337137657995 0.2115600458225757
  outer loop
    vertex 1.7587569999999566 3.580138999999912 0.6677650999999836
    vertex 1.7350689999999573 3.5604459999999123 0.5366016999999867
    vertex 1.7350879999999576 3.560352999999913 0.5366016999999867
  endloop
endfacet
facet normal -0.9353226662802897 -0.28357337137657995 0.2115600458225757
  outer loop
    vertex 1.7350689999999573 3.5604459999999123 0.5366016999999867
    vertex 1.7587569999999566 3.580138999999912 0.6677650999999836
    vertex 1.7322699999999576 3.5696659999999123 0.5366016999999867
  endloop
endfacet
facet normal -0.9353226662802897 -0.28357337137657995 0.2115600458225757
  outer loop
    vertex 1.7322699999999576 3.5696659999999123 0.5366016999999867
    vertex 1.7587569999999566 3.580138999999912 0.6677650999999836
    vertex 1.7322489999999573 3.569716999999912 0.5366016999999867
  endloop
endfacet
facet normal -0.8587209333161188 -0.46713889795295893 0.21066468309612063
  outer loop
    vertex 1.7522419999999574 3.5936579999999116 0.6711860999999836
    vertex 1.7322489999999573 3.569716999999912 0.5366016999999867
    vertex 1.7587569999999566 3.580138999999912 0.6677650999999836
  endloop
endfacet
facet normal -0.8644663417497386 -0.4568677647462711 0.20968974585699326
  outer loop
    vertex 1.7522419999999574 3.5936579999999116 0.6711860999999836
    vertex 1.7278609999999575 3.578039999999912 0.5366016999999867
    vertex 1.7322489999999573 3.569716999999912 0.5366016999999867
  endloop
endfacet
facet normal -0.8644663417497386 -0.4568677647462711 0.20968974585699326
  outer loop
    vertex 1.7278609999999575 3.578039999999912 0.5366016999999867
    vertex 1.7522419999999574 3.5936579999999116 0.6711860999999836
    vertex 1.7277519999999575 3.578206999999912 0.5366016999999867
  endloop
endfacet
facet normal -0.9699514089771547 -0.09563173596631463 0.2237159701480911
  outer loop
    vertex 1.7350879999999576 3.560352999999913 0.5366016999999867
    vertex 1.7360769999999575 3.550321999999912 0.5366016999999867
    vertex 1.7658629999999567 3.550288999999913 0.6657288999999835
  endloop
endfacet
facet normal -0.9699514089771547 -0.09563173596631463 0.2237159701480911
  outer loop
    vertex 1.7360769999999575 3.550321999999912 0.5366016999999867
    vertex 1.7350879999999576 3.560352999999913 0.5366016999999867
    vertex 1.73601201934237 3.550981070754473 0.5366016999999867
  endloop
endfacet
facet normal -0.9699514089771547 -0.09563173596631463 0.2237159701480911
  outer loop
    vertex 1.73601201934237 3.550981070754473 0.5366016999999867
    vertex 1.7350879999999576 3.560352999999913 0.5366016999999867
    vertex 1.7353970399224132 3.557218541494198 0.5366016999999867
  endloop
endfacet
facet normal -0.9699514089771547 -0.09563173596631463 0.2237159701480911
  outer loop
    vertex 1.7353970399224132 3.557218541494198 0.5366016999999867
    vertex 1.7350879999999576 3.560352999999913 0.5366016999999867
    vertex 1.7353864401621737 3.5573260502858712 0.5366016999999867
  endloop
endfacet
facet normal -0.9699514089771547 -0.09563173596631463 0.2237159701480911
  outer loop
    vertex 1.7353864401621737 3.5573260502858712 0.5366016999999867
    vertex 1.7350879999999576 3.560352999999913 0.5366016999999867
    vertex 1.7353571088954773 3.5576235446602196 0.5366016999999867
  endloop
endfacet
facet normal -0.9699514089771547 -0.09563173596631463 0.2237159701480911
  outer loop
    vertex 1.7353571088954773 3.5576235446602196 0.5366016999999867
    vertex 1.7350879999999576 3.560352999999913 0.5366016999999867
    vertex 1.7353492131114794 3.5577036281883125 0.5366016999999867
  endloop
endfacet
facet normal -0.9277315982309533 -0.35098671642844775 0.12697403882139655
  outer loop
    vertex 1.7755229999999564 3.588195999999912 0.8010031999999804
    vertex 1.7675829999999564 3.5848389999999117 0.733710299999982
    vertex 1.7819569999999565 3.569764999999912 0.7970652999999804
  endloop
endfacet
facet normal -0.8854450427024678 -0.44711727871164475 0.12678018548305792
  outer loop
    vertex 1.7601719999999568 3.6009189999999114 0.7386606999999817
    vertex 1.7675829999999564 3.5848389999999117 0.733710299999982
    vertex 1.7755229999999564 3.588195999999912 0.8010031999999804
  endloop
endfacet
facet normal -0.9471714829997849 -0.2850145288940479 0.14708127042996347
  outer loop
    vertex 1.7675829999999564 3.5848389999999117 0.733710299999982
    vertex 1.7587569999999566 3.580138999999912 0.6677650999999836
    vertex 1.7819569999999565 3.569764999999912 0.7970652999999804
  endloop
endfacet
facet normal -0.5839222842822888 -0.810970605685405 0.03689773208208657
  outer loop
    vertex 1.7456069999999568 3.6297589999999107 0.8311948999999798
    vertex 1.7328269999999575 3.6377619999999107 0.8048428999999803
    vertex 1.7443179999999574 3.62891299999991 0.7922017999999806
  endloop
endfacet
facet normal -0.5448526517325162 -0.8384768902885652 0.00959647602314707
  outer loop
    vertex 1.7338709999999575 3.6375469999999104 0.8453320999999792
    vertex 1.7328269999999575 3.6377619999999107 0.8048428999999803
    vertex 1.7456069999999568 3.6297589999999107 0.8311948999999798
  endloop
endfacet
facet normal -0.6765446760617395 -0.7354038853602443 0.038320055970377694
  outer loop
    vertex 1.7456069999999568 3.6297589999999107 0.8311948999999798
    vertex 1.7443179999999574 3.62891299999991 0.7922017999999806
    vertex 1.7568609999999567 3.618748999999912 0.81859149999998
  endloop
endfacet
facet normal -0.9223752047780673 -0.32101996268766214 0.21487243929045594
  outer loop
    vertex 1.7587569999999566 3.580138999999912 0.6677650999999836
    vertex 1.7350879999999576 3.560352999999913 0.5366016999999867
    vertex 1.7634169999999567 3.5655019999999125 0.6659011999999835
  endloop
endfacet
facet normal -0.7094545699351463 -0.7015593865589242 0.06699731583580615
  outer loop
    vertex 1.7443179999999574 3.62891299999991 0.7922017999999806
    vertex 1.754979999999957 3.6170929999999117 0.7813322999999809
    vertex 1.7568609999999567 3.618748999999912 0.81859149999998
  endloop
endfacet
facet normal -0.8086931287024139 -0.5758848301945848 0.1198836350018438
  outer loop
    vertex 1.754979999999957 3.6170929999999117 0.7813322999999809
    vertex 1.751108999999957 3.6151499999999115 0.7458862999999816
    vertex 1.7601719999999568 3.6009189999999114 0.7386606999999817
  endloop
endfacet
facet normal -0.8221260261077405 -0.558265806326148 0.11157099391558117
  outer loop
    vertex 1.754979999999957 3.6170929999999117 0.7813322999999809
    vertex 1.7601719999999568 3.6009189999999114 0.7386606999999817
    vertex 1.7669889999999566 3.6048049999999114 0.8083369999999802
  endloop
endfacet
facet normal -0.1797180185397818 -0.9821014830585366 0.05637473535509926
  outer loop
    vertex 1.7185699999999573 3.6431379999999107 0.7983809999999804
    vertex 1.706076999999958 3.645321999999911 0.7966016999999803
    vertex 1.717750999999958 3.6421119999999103 0.7778961999999809
  endloop
endfacet
facet normal -0.05847500680931859 -0.9981216489341002 -0.018271494403120477
  outer loop
    vertex 1.7101689999999583 3.6436199999999106 0.8764814999999784
    vertex 1.706076999999958 3.645321999999911 0.7966016999999803
    vertex 1.7126699999999575 3.6447259999999106 0.8080596999999802
  endloop
endfacet
facet normal -0.9768829012618954 -0.15868900077154524 0.14323965322588153
  outer loop
    vertex 1.7819569999999565 3.569764999999912 0.7970652999999804
    vertex 1.7634169999999567 3.5655019999999125 0.6659011999999835
    vertex 1.7658629999999567 3.550288999999913 0.6657288999999835
  endloop
endfacet
facet normal -0.17915287048039497 -0.9824469755082333 0.05198258663590704
  outer loop
    vertex 1.7126699999999575 3.6447259999999106 0.8080596999999802
    vertex 1.706076999999958 3.645321999999911 0.7966016999999803
    vertex 1.7185699999999573 3.6431379999999107 0.7983809999999804
  endloop
endfacet
facet normal -0.31808756701474733 -0.9322361348580654 0.17249953210236157
  outer loop
    vertex 1.717750999999958 3.6421119999999103 0.7778961999999809
    vertex 1.713107999999958 3.6287189999999105 0.6969549999999829
    vertex 1.7241519999999575 3.62350299999991 0.6891312999999831
  endloop
endfacet
facet normal -0.15303606319630844 -0.9691541219126616 0.1931845007785905
  outer loop
    vertex 1.713107999999958 3.6287189999999105 0.6969549999999829
    vertex 1.6994249999999582 3.624757999999911 0.6662443999999836
    vertex 1.6969989999999582 3.599298999999912 0.5366016999999867
  endloop
endfacet
facet normal -0.3985074814702106 -0.9150829565125945 0.06176544270414532
  outer loop
    vertex 1.7185699999999573 3.6431379999999107 0.7983809999999804
    vertex 1.717750999999958 3.6421119999999103 0.7778961999999809
    vertex 1.7294809999999576 3.6361929999999107 0.7658848999999811
  endloop
endfacet
facet normal -0.9633325318114551 -0.1573494404533821 0.21732829255009445
  outer loop
    vertex 1.7634169999999567 3.5655019999999125 0.6659011999999835
    vertex 1.7350879999999576 3.560352999999913 0.5366016999999867
    vertex 1.7658629999999567 3.550288999999913 0.6657288999999835
  endloop
endfacet
facet normal -0.14121236490748054 -0.9897531517894833 -0.021160494323635724
  outer loop
    vertex 1.7101689999999583 3.6436199999999106 0.8764814999999784
    vertex 1.7126699999999575 3.6447259999999106 0.8080596999999802
    vertex 1.720881999999958 3.6433239999999105 0.8188343999999798
  endloop
endfacet
facet normal -0.36001607852364365 -0.9308384086261883 0.06267599405452623
  outer loop
    vertex 1.720881999999958 3.6433239999999105 0.8188343999999798
    vertex 1.7305019999999576 3.6373489999999102 0.7853541999999807
    vertex 1.7328269999999575 3.6377619999999107 0.8048428999999803
  endloop
endfacet
facet normal -0.38907063673433767 -0.9197196393074438 0.05234333485098591
  outer loop
    vertex 1.720881999999958 3.6433239999999105 0.8188343999999798
    vertex 1.7185699999999573 3.6431379999999107 0.7983809999999804
    vertex 1.7305019999999576 3.6373489999999102 0.7853541999999807
  endloop
endfacet
facet normal -0.512892844291645 -0.8405142311973439 0.17457593599681587
  outer loop
    vertex 1.7294809999999576 3.6361929999999107 0.7658848999999811
    vertex 1.7241519999999575 3.62350299999991 0.6891312999999831
    vertex 1.7345479999999571 3.6157059999999115 0.6821345999999834
  endloop
endfacet
facet normal -0.5705503775997233 -0.8168128011472374 0.0853763111338082
  outer loop
    vertex 1.7328269999999575 3.6377619999999107 0.8048428999999803
    vertex 1.7305019999999576 3.6373489999999102 0.7853541999999807
    vertex 1.740702999999957 3.6270649999999103 0.7551359999999816
  endloop
endfacet
facet normal -0.6832100373573596 -0.7212449729230062 0.11414785975850576
  outer loop
    vertex 1.7443179999999574 3.62891299999991 0.7922017999999806
    vertex 1.751108999999957 3.6151499999999115 0.7458862999999816
    vertex 1.754979999999957 3.6170929999999117 0.7813322999999809
  endloop
endfacet
facet normal -0.7077699987238385 -0.6987655613022614 0.10386683418874963
  outer loop
    vertex 1.7443179999999574 3.62891299999991 0.7922017999999806
    vertex 1.740702999999957 3.6270649999999103 0.7551359999999816
    vertex 1.751108999999957 3.6151499999999115 0.7458862999999816
  endloop
endfacet
facet normal -0.6754454674355767 -0.7185483950333197 0.16571549268482968
  outer loop
    vertex 1.740702999999957 3.6270649999999103 0.7551359999999816
    vertex 1.7440839999999571 3.605643999999911 0.6760344999999833
    vertex 1.751108999999957 3.6151499999999115 0.7458862999999816
  endloop
endfacet
facet normal -0.4940421983891999 -0.8444451219151102 0.20696555820846524
  outer loop
    vertex 1.7241519999999575 3.62350299999991 0.6891312999999831
    vertex 1.7145449999999578 3.5917399999999122 0.5366016999999867
    vertex 1.7345479999999571 3.6157059999999115 0.6821345999999834
  endloop
endfacet
facet normal -0.5401617425846034 -0.836252759083853 0.09437486303358607
  outer loop
    vertex 1.7328269999999575 3.6377619999999107 0.8048428999999803
    vertex 1.740702999999957 3.6270649999999103 0.7551359999999816
    vertex 1.7443179999999574 3.62891299999991 0.7922017999999806
  endloop
endfacet
facet normal -0.29410163517675325 -0.9394770589915774 0.1757472156675492
  outer loop
    vertex 1.717750999999958 3.6421119999999103 0.7778961999999809
    vertex 1.7241519999999575 3.62350299999991 0.6891312999999831
    vertex 1.7294809999999576 3.6361929999999107 0.7658848999999811
  endloop
endfacet
facet normal -0.582682223636537 -0.8088917136488286 0.07858512485351449
  outer loop
    vertex 1.7305019999999576 3.6373489999999102 0.7853541999999807
    vertex 1.7294809999999576 3.6361929999999107 0.7658848999999811
    vertex 1.740702999999957 3.6270649999999103 0.7551359999999816
  endloop
endfacet
facet normal -0.36842871868228927 -0.9266786911833199 0.07434300610612929
  outer loop
    vertex 1.7185699999999573 3.6431379999999107 0.7983809999999804
    vertex 1.7294809999999576 3.6361929999999107 0.7658848999999811
    vertex 1.7305019999999576 3.6373489999999102 0.7853541999999807
  endloop
endfacet
facet normal -0.2957748791942961 -0.9338635522886113 0.20103752521481114
  outer loop
    vertex 1.713107999999958 3.6287189999999105 0.6969549999999829
    vertex 1.7060479999999583 3.5964439999999116 0.5366016999999867
    vertex 1.706218999999958 3.596369999999912 0.5366016999999867
  endloop
endfacet
facet normal -0.2957748791942961 -0.9338635522886113 0.20103752521481114
  outer loop
    vertex 1.7060479999999583 3.5964439999999116 0.5366016999999867
    vertex 1.713107999999958 3.6287189999999105 0.6969549999999829
    vertex 1.7017899435483383 3.597787435867894 0.5366016999999867
  endloop
endfacet
facet normal -0.2957748791942961 -0.9338635522886113 0.20103752521481114
  outer loop
    vertex 1.7017899435483383 3.597787435867894 0.5366016999999867
    vertex 1.713107999999958 3.6287189999999105 0.6969549999999829
    vertex 1.6969989999999582 3.599298999999912 0.5366016999999867
  endloop
endfacet
facet normal -0.05163404895575734 -0.9847880962389123 0.16591060995178536
  outer loop
    vertex 1.717750999999958 3.6421119999999103 0.7778961999999809
    vertex 1.7028299999999583 3.6350709999999107 0.731459599999982
    vertex 1.713107999999958 3.6287189999999105 0.6969549999999829
  endloop
endfacet
facet normal -0.6312854831271034 -0.746655147608438 0.20972536647435233
  outer loop
    vertex 1.7345479999999571 3.6157059999999115 0.6821345999999834
    vertex 1.7145449999999578 3.5917399999999122 0.5366016999999867
    vertex 1.721786999999958 3.5856169999999117 0.5366016999999867
  endloop
endfacet
facet normal -0.29825829076256183 -0.9330712265498324 0.2010474525483635
  outer loop
    vertex 1.713107999999958 3.6287189999999105 0.6969549999999829
    vertex 1.706218999999958 3.596369999999912 0.5366016999999867
    vertex 1.7241519999999575 3.62350299999991 0.6891312999999831
  endloop
endfacet
facet normal -0.515695782311084 -0.8389139847818937 0.17401490236161907
  outer loop
    vertex 1.7294809999999576 3.6361929999999107 0.7658848999999811
    vertex 1.7345479999999571 3.6157059999999115 0.6821345999999834
    vertex 1.740702999999957 3.6270649999999103 0.7551359999999816
  endloop
endfacet
facet normal -0.7616224411567737 -0.6131009259783678 0.20985354819698582
  outer loop
    vertex 1.7440839999999571 3.605643999999911 0.6760344999999833
    vertex 1.721786999999958 3.5856169999999117 0.5366016999999867
    vertex 1.7277519999999575 3.578206999999912 0.5366016999999867
  endloop
endfacet
facet normal -0.6435416415942149 -0.7364140736450354 0.20868269614835724
  outer loop
    vertex 1.7345479999999571 3.6157059999999115 0.6821345999999834
    vertex 1.721786999999958 3.5856169999999117 0.5366016999999867
    vertex 1.7440839999999571 3.605643999999911 0.6760344999999833
  endloop
endfacet
facet normal -0.4753744449893197 -0.8548526196503604 0.2079570526046486
  outer loop
    vertex 1.7241519999999575 3.62350299999991 0.6891312999999831
    vertex 1.706218999999958 3.596369999999912 0.5366016999999867
    vertex 1.7145449999999578 3.5917399999999122 0.5366016999999867
  endloop
endfacet
facet normal -0.07298526981765274 -0.9844967506814312 0.15949701654685733
  outer loop
    vertex 1.7028299999999583 3.6350709999999107 0.731459599999982
    vertex 1.6994249999999582 3.624757999999911 0.6662443999999836
    vertex 1.713107999999958 3.6287189999999105 0.6969549999999829
  endloop
endfacet
facet normal -0.7669574188775377 -0.6066373925839165 0.2092065762534544
  outer loop
    vertex 1.7440839999999571 3.605643999999911 0.6760344999999833
    vertex 1.7277519999999575 3.578206999999912 0.5366016999999867
    vertex 1.7522419999999574 3.5936579999999116 0.6711860999999836
  endloop
endfacet
facet normal -0.02086999608198804 -0.9874682311682091 0.15643188836380656
  outer loop
    vertex 1.706076999999958 3.645321999999911 0.7966016999999803
    vertex 1.7028299999999583 3.6350709999999107 0.731459599999982
    vertex 1.717750999999958 3.6421119999999103 0.7778961999999809
  endloop
endfacet
facet normal -0.7951609915312658 -0.5858565345853909 0.15649638472057767
  outer loop
    vertex 1.751108999999957 3.6151499999999115 0.7458862999999816
    vertex 1.7522419999999574 3.5936579999999116 0.6711860999999836
    vertex 1.7601719999999568 3.6009189999999114 0.7386606999999817
  endloop
endfacet
facet normal -0.8795739805807822 -0.4515296661264224 0.14990187888428616
  outer loop
    vertex 1.7601719999999568 3.6009189999999114 0.7386606999999817
    vertex 1.7587569999999566 3.580138999999912 0.6677650999999836
    vertex 1.7675829999999564 3.5848389999999117 0.733710299999982
  endloop
endfacet
facet normal -0.6620003079843608 -0.7301045040694438 0.16941961328642866
  outer loop
    vertex 1.740702999999957 3.6270649999999103 0.7551359999999816
    vertex 1.7345479999999571 3.6157059999999115 0.6821345999999834
    vertex 1.7440839999999571 3.605643999999911 0.6760344999999833
  endloop
endfacet
facet normal -0.7845924511946161 -0.5989017784415752 0.16040992895685208
  outer loop
    vertex 1.751108999999957 3.6151499999999115 0.7458862999999816
    vertex 1.7440839999999571 3.605643999999911 0.6760344999999833
    vertex 1.7522419999999574 3.5936579999999116 0.6711860999999836
  endloop
endfacet
facet normal -0.8747155130572662 -0.46008049740002793 0.1523112180015197
  outer loop
    vertex 1.7601719999999568 3.6009189999999114 0.7386606999999817
    vertex 1.7522419999999574 3.5936579999999116 0.6711860999999836
    vertex 1.7587569999999566 3.580138999999912 0.6677650999999836
  endloop
endfacet
facet normal 0.8005023393060855 0.15579890143391273 0.578725070372341
  outer loop
    vertex 1.7860769999999562 3.550321999999912 0.7966016999999803
    vertex 1.6576369999999592 3.5678539999999126 0.9695413999999762
    vertex 1.6588099999999595 3.549241999999912 0.9729302999999763
  endloop
endfacet
facet normal 0.8005023393060855 0.15579890143391273 0.578725070372341
  outer loop
    vertex 1.6576369999999592 3.5678539999999126 0.9695413999999762
    vertex 1.7860769999999562 3.550321999999912 0.7966016999999803
    vertex 1.7819569999999565 3.569764999999912 0.7970652999999804
  endloop
endfacet
facet normal 0.8005023393060855 0.15579890143391273 0.578725070372341
  outer loop
    vertex 1.6576369999999592 3.5678539999999126 0.9695413999999762
    vertex 1.7819569999999565 3.569764999999912 0.7970652999999804
    vertex 1.6583149999999593 3.580153999999912 0.9652925999999763
  endloop
endfacet
facet normal 0.8005023393060855 0.15579890143391273 0.578725070372341
  outer loop
    vertex 1.6583149999999593 3.580153999999912 0.9652925999999763
    vertex 1.7819569999999565 3.569764999999912 0.7970652999999804
    vertex 1.7755229999999564 3.588195999999912 0.8010031999999804
  endloop
endfacet
facet normal 0.8005023393060855 0.15579890143391273 0.578725070372341
  outer loop
    vertex 1.6583149999999593 3.580153999999912 0.9652925999999763
    vertex 1.7755229999999564 3.588195999999912 0.8010031999999804
    vertex 1.6582969999999595 3.580162999999912 0.9653146999999763
  endloop
endfacet
facet normal 0.8005023393060855 0.15579890143391273 0.578725070372341
  outer loop
    vertex 1.6582969999999595 3.580162999999912 0.9653146999999763
    vertex 1.7755229999999564 3.588195999999912 0.8010031999999804
    vertex 1.662245999999959 3.5999849999999123 0.9545168999999766
  endloop
endfacet
facet normal 0.8005023393060855 0.15579890143391273 0.578725070372341
  outer loop
    vertex 1.662245999999959 3.5999849999999123 0.9545168999999766
    vertex 1.7755229999999564 3.588195999999912 0.8010031999999804
    vertex 1.7669889999999566 3.6048049999999114 0.8083369999999802
  endloop
endfacet
facet normal 0.8005023393060855 0.15579890143391273 0.578725070372341
  outer loop
    vertex 1.662245999999959 3.5999849999999123 0.9545168999999766
    vertex 1.7669889999999566 3.6048049999999114 0.8083369999999802
    vertex 1.669623999999959 3.6172689999999106 0.9396579999999769
  endloop
endfacet
facet normal 0.8005023393060855 0.15579890143391273 0.578725070372341
  outer loop
    vertex 1.669623999999959 3.6172689999999106 0.9396579999999769
    vertex 1.7669889999999566 3.6048049999999114 0.8083369999999802
    vertex 1.7568609999999567 3.618748999999912 0.81859149999998
  endloop
endfacet
facet normal 0.8005023393060855 0.15579890143391273 0.578725070372341
  outer loop
    vertex 1.669623999999959 3.6172689999999106 0.9396579999999769
    vertex 1.7568609999999567 3.618748999999912 0.81859149999998
    vertex 1.6797979999999588 3.630557999999911 0.9220081999999774
  endloop
endfacet
facet normal 0.8005023393060855 0.15579890143391273 0.578725070372341
  outer loop
    vertex 1.6797979999999588 3.630557999999911 0.9220081999999774
    vertex 1.7568609999999567 3.618748999999912 0.81859149999998
    vertex 1.7456069999999568 3.6297589999999107 0.8311948999999798
  endloop
endfacet
facet normal 0.8005023393060855 0.15579890143391273 0.578725070372341
  outer loop
    vertex 1.6797979999999588 3.630557999999911 0.9220081999999774
    vertex 1.7456069999999568 3.6297589999999107 0.8311948999999798
    vertex 1.7338709999999575 3.6375469999999104 0.8453320999999792
  endloop
endfacet
facet normal 0.8005023393060855 0.15579890143391273 0.578725070372341
  outer loop
    vertex 1.6797979999999588 3.630557999999911 0.9220081999999774
    vertex 1.7338709999999575 3.6375469999999104 0.8453320999999792
    vertex 1.6921579999999585 3.6393859999999107 0.9025340999999778
  endloop
endfacet
facet normal 0.8005023393060855 0.15579890143391273 0.578725070372341
  outer loop
    vertex 1.6921579999999585 3.6393859999999107 0.9025340999999778
    vertex 1.7338709999999575 3.6375469999999104 0.8453320999999792
    vertex 1.7101689999999583 3.6436199999999106 0.8764814999999784
  endloop
endfacet
facet normal -0.0 -0.0 -1.0
  outer loop
    vertex 1.6439099999999596 3.5739599999999125 0.5366016999999867
    vertex 1.7360769999999575 3.550321999999912 0.5366016999999867
    vertex 1.6385329999999598 3.5574659999999128 0.5366016999999867
  endloop
endfacet
facet normal -0.0 -0.0 -1.0
  outer loop
    vertex 1.7360769999999575 3.550321999999912 0.5366016999999867
    vertex 1.6439099999999596 3.5739599999999125 0.5366016999999867
    vertex 1.6487409999999596 3.5813989999999123 0.5366016999999867
  endloop
endfacet
facet normal -0.0 -0.0 -1.0
  outer loop
    vertex 1.7360769999999575 3.550321999999912 0.5366016999999867
    vertex 1.6487409999999596 3.5813989999999123 0.5366016999999867
    vertex 1.6547529999999593 3.5878169999999114 0.5366016999999867
  endloop
endfacet
facet normal -0.0 -0.0 -1.0
  outer loop
    vertex 1.7360769999999575 3.550321999999912 0.5366016999999867
    vertex 1.6547529999999593 3.5878169999999114 0.5366016999999867
    vertex 1.6617699999999593 3.593065999999912 0.5366016999999867
  endloop
endfacet
facet normal -0.0 -0.0 -1.0
  outer loop
    vertex 1.7360769999999575 3.550321999999912 0.5366016999999867
    vertex 1.6617699999999593 3.593065999999912 0.5366016999999867
    vertex 1.669613999999959 3.5969979999999118 0.5366016999999867
  endloop
endfacet
facet normal -0.0 -0.0 -1.0
  outer loop
    vertex 1.7360769999999575 3.550321999999912 0.5366016999999867
    vertex 1.669613999999959 3.5969979999999118 0.5366016999999867
    vertex 1.6781079999999589 3.599465999999912 0.5366016999999867
  endloop
endfacet
facet normal -0.0 -0.0 -1.0
  outer loop
    vertex 1.7360769999999575 3.550321999999912 0.5366016999999867
    vertex 1.6781079999999589 3.599465999999912 0.5366016999999867
    vertex 1.6870769999999584 3.6003219999999114 0.5366016999999867
  endloop
endfacet
facet normal -0.0 -0.0 -1.0
  outer loop
    vertex 1.7360769999999575 3.550321999999912 0.5366016999999867
    vertex 1.6870769999999584 3.6003219999999114 0.5366016999999867
    vertex 1.6969989999999582 3.599298999999912 0.5366016999999867
  endloop
endfacet
facet normal -0.0 -0.0 -1.0
  outer loop
    vertex 1.7360769999999575 3.550321999999912 0.5366016999999867
    vertex 1.6969989999999582 3.599298999999912 0.5366016999999867
    vertex 1.7060479999999583 3.5964439999999116 0.5366016999999867
  endloop
endfacet
facet normal -0.0 -0.0 -1.0
  outer loop
    vertex 1.7360769999999575 3.550321999999912 0.5366016999999867
    vertex 1.7060479999999583 3.5964439999999116 0.5366016999999867
    vertex 1.706218999999958 3.596369999999912 0.5366016999999867
  endloop
endfacet
facet normal -0.0 -0.0 -1.0
  outer loop
    vertex 1.7360769999999575 3.550321999999912 0.5366016999999867
    vertex 1.706218999999958 3.596369999999912 0.5366016999999867
    vertex 1.7145449999999578 3.5917399999999122 0.5366016999999867
  endloop
endfacet
facet normal -0.0 -0.0 -1.0
  outer loop
    vertex 1.7360769999999575 3.550321999999912 0.5366016999999867
    vertex 1.7145449999999578 3.5917399999999122 0.5366016999999867
    vertex 1.721786999999958 3.5856169999999117 0.5366016999999867
  endloop
endfacet
facet normal -0.0 -0.0 -1.0
  outer loop
    vertex 1.7360769999999575 3.550321999999912 0.5366016999999867
    vertex 1.721786999999958 3.5856169999999117 0.5366016999999867
    vertex 1.7277519999999575 3.578206999999912 0.5366016999999867
  endloop
endfacet
facet normal -0.0 -0.0 -1.0
  outer loop
    vertex 1.7360769999999575 3.550321999999912 0.5366016999999867
    vertex 1.7277519999999575 3.578206999999912 0.5366016999999867
    vertex 1.7278609999999575 3.578039999999912 0.5366016999999867
  endloop
endfacet
facet normal -0.0 -0.0 -1.0
  outer loop
    vertex 1.7360769999999575 3.550321999999912 0.5366016999999867
    vertex 1.7278609999999575 3.578039999999912 0.5366016999999867
    vertex 1.7322489999999573 3.569716999999912 0.5366016999999867
  endloop
endfacet
facet normal -0.0 -0.0 -1.0
  outer loop
    vertex 1.7360769999999575 3.550321999999912 0.5366016999999867
    vertex 1.7322489999999573 3.569716999999912 0.5366016999999867
    vertex 1.7322699999999576 3.5696659999999123 0.5366016999999867
  endloop
endfacet
facet normal -0.0 -0.0 -1.0
  outer loop
    vertex 1.7360769999999575 3.550321999999912 0.5366016999999867
    vertex 1.7322699999999576 3.5696659999999123 0.5366016999999867
    vertex 1.7350689999999573 3.5604459999999123 0.5366016999999867
  endloop
endfacet
facet normal -0.0 -0.0 -1.0
  outer loop
    vertex 1.7360769999999575 3.550321999999912 0.5366016999999867
    vertex 1.7350689999999573 3.5604459999999123 0.5366016999999867
    vertex 1.7350879999999576 3.560352999999913 0.5366016999999867
  endloop
endfacet
facet normal -0.07300754704058952 -0.9968432486738925 0.031199930262685603
  outer loop
    vertex 1.6392719999999599 3.5594419999999127 0.6014644999999851
    vertex 1.6385329999999598 3.5574659999999128 0.5366016999999867
    vertex 1.7360769999999575 3.550321999999912 0.5366016999999867
  endloop
endfacet
facet normal -0.22772927202764584 -0.968946146238167 -0.09634699970400439
  outer loop
    vertex 1.6260769999999596 3.550321999999912 0.7966016999999803
    vertex 1.6352649999999596 3.561108999999912 0.6664014999999835
    vertex 1.7360769999999575 3.550321999999912 0.5366016999999867
  endloop
endfacet
facet normal -0.08005578953123489 -0.9965766039174083 0.02064323344284341
  outer loop
    vertex 1.6352649999999596 3.561108999999912 0.6664014999999835
    vertex 1.6392719999999599 3.5594419999999127 0.6014644999999851
    vertex 1.7360769999999575 3.550321999999912 0.5366016999999867
  endloop
endfacet
facet normal -0.006661337418851715 -0.9999769925128711 0.0012810264267022523
  outer loop
    vertex 1.7860769999999562 3.550321999999912 0.7966016999999803
    vertex 1.7360769999999575 3.550321999999912 0.5366016999999867
    vertex 1.7658629999999567 3.550288999999913 0.6657288999999835
  endloop
endfacet
facet normal -0.02070860441613479 -0.9997670661682904 -0.006080058255097667
  outer loop
    vertex 1.6458509999999595 3.5497999999999124 0.9297447999999773
    vertex 1.6333909999999598 3.5503209999999132 0.8865133999999782
    vertex 1.7360769999999575 3.550321999999912 0.5366016999999867
  endloop
endfacet
facet normal -2.2048983141824305e-05 -0.9999999997134115 -9.328415944618017e-06
  outer loop
    vertex 1.6333909999999598 3.5503209999999132 0.8865133999999782
    vertex 1.6260769999999596 3.550321999999912 0.7966016999999803
    vertex 1.7360769999999575 3.550321999999912 0.5366016999999867
  endloop
endfacet
facet normal -0.021885842074209048 -0.9997403087328568 -0.006350197747705092
  outer loop
    vertex 1.6588099999999595 3.549241999999912 0.9729302999999763
    vertex 1.6458509999999595 3.5497999999999124 0.9297447999999773
    vertex 1.7360769999999575 3.550321999999912 0.5366016999999867
  endloop
endfacet
facet normal 0.006700579111397174 -0.9999767206387548 -0.0012885729060379168
  outer loop
    vertex 1.6588099999999595 3.549241999999912 0.9729302999999763
    vertex 1.7360769999999575 3.550321999999912 0.5366016999999867
    vertex 1.7860769999999562 3.550321999999912 0.7966016999999803
  endloop
endfacet
facet normal -0.0 -0.0 1.0
  outer loop
    vertex 1.9316511349201255 3.5456572804251993 0.09160160999999775
    vertex 1.9317849999999526 3.5543619999999123 0.09160160999999775
    vertex 1.9316097149829385 3.5543096094468236 0.09160160999999775
  endloop
endfacet
facet normal -0.0 -0.0 1.0
  outer loop
    vertex 1.9317849999999526 3.5543619999999123 0.09160160999999775
    vertex 1.9316511349201255 3.5456572804251993 0.09160160999999775
    vertex 1.9318179999999525 3.5469149999999128 0.09160160999999775
  endloop
endfacet
endsolid 2015new_separate_human-HUTA
