solid Object01
facet normal -0.9631179100070921 -0.0668260675829323 -0.26064951201752184
  outer loop
    vertex 1.9658989999999519 3.5684239999999123 0.8844955999999783
    vertex 1.9666089999999516 3.5503209999999132 0.8865133999999782
    vertex 1.9543659999999519 3.568177999999912 0.9271738999999772
  endloop
endfacet
facet normal -0.9617344040952803 -0.02678816139132108 -0.27267073621635407
  outer loop
    vertex 1.9543659999999519 3.568177999999912 0.9271738999999772
    vertex 1.9541489999999515 3.5497999999999124 0.9297447999999773
    vertex 1.9423629999999523 3.5678539999999126 0.9695413999999762
  endloop
endfacet
facet normal -0.12550613265745814 -0.9917099751836933 -0.02755967682189094
  outer loop
    vertex 1.8898309999999536 3.6436199999999106 0.8764814999999784
    vertex 1.8939229999999538 3.645321999999911 0.7966016999999803
    vertex 1.9108009999999531 3.6431859999999108 0.7966016999999803
  endloop
endfacet
facet normal -0.9578034042713447 0.008046313216414082 -0.28731149578436055
  outer loop
    vertex 1.9422808608428783 3.5665542034135496 0.9697782343939509
    vertex 1.9541489999999515 3.5497999999999124 0.9297447999999773
    vertex 1.9411899999999525 3.549241999999912 0.9729302999999763
  endloop
endfacet
facet normal -0.9578034042713447 0.008046313216414082 -0.28731149578436055
  outer loop
    vertex 1.9541489999999515 3.5497999999999124 0.9297447999999773
    vertex 1.9422808608428783 3.5665542034135496 0.9697782343939509
    vertex 1.9423629999999523 3.5678539999999126 0.9695413999999762
  endloop
endfacet
facet normal -0.9697041068507124 -0.23347052407881974 -0.07187113150092747
  outer loop
    vertex 1.9684609999999518 3.5848399999999114 0.7966016999999803
    vertex 1.9725539999999515 3.5678399999999124 0.7966016999999803
    vertex 1.9658989999999519 3.5684239999999123 0.8844955999999783
  endloop
endfacet
facet normal -0.8097622074148496 -0.5594184847555708 -0.17702012980565626
  outer loop
    vertex 1.9303759999999526 3.6172689999999106 0.9396582999999769
    vertex 1.9384209999999524 3.6164149999999107 0.9055559999999777
    vertex 1.9463309999999523 3.601982999999912 0.9149803999999775
  endloop
endfacet
facet normal -0.9137774966411025 -0.4006454316176271 -0.06703674183793046
  outer loop
    vertex 1.955374999999952 3.6019209999999116 0.8759825999999783
    vertex 1.9616619999999518 3.6008639999999112 0.7966016999999803
    vertex 1.9620839999999515 3.585778999999912 0.8810049999999785
  endloop
endfacet
facet normal -0.3545536744839199 -0.93407257814016 -0.042427711186740914
  outer loop
    vertex 1.907841999999953 3.6393859999999107 0.9025346999999778
    vertex 1.9264829999999524 3.6371219999999105 0.7966016999999803
    vertex 1.9259869999999524 3.6345619999999106 0.857106599999979
  endloop
endfacet
facet normal -0.894939358659251 -0.39155531261373566 -0.21393452616753703
  outer loop
    vertex 1.9463309999999523 3.601982999999912 0.9149803999999775
    vertex 1.9516989999999521 3.585724999999912 0.9222810999999772
    vertex 1.9377539999999522 3.5999849999999123 0.9545168999999766
  endloop
endfacet
facet normal -0.8238278278826858 -0.5633547052529182 -0.06276293552323277
  outer loop
    vertex 1.9459929999999523 3.616349999999911 0.8696174999999787
    vertex 1.9521929999999519 3.615417999999912 0.7966016999999803
    vertex 1.955374999999952 3.6019209999999116 0.8759825999999783
  endloop
endfacet
facet normal -0.5642174766217645 -0.8246331698408678 -0.04048177704562353
  outer loop
    vertex 1.932581999999953 3.629851999999911 0.8611332999999788
    vertex 1.9259869999999524 3.6345619999999106 0.857106599999979
    vertex 1.9403689999999525 3.627691999999911 0.7966016999999803
  endloop
endfacet
facet normal -0.561361344114696 -0.8266239262329921 -0.03957683555938766
  outer loop
    vertex 1.9259869999999524 3.6345619999999106 0.857106599999979
    vertex 1.9264829999999524 3.6371219999999105 0.7966016999999803
    vertex 1.9403689999999525 3.627691999999911 0.7966016999999803
  endloop
endfacet
facet normal -0.9711448447923408 -0.2277264622310929 -0.07084030514453836
  outer loop
    vertex 1.9620839999999515 3.585778999999912 0.8810049999999785
    vertex 1.9684609999999518 3.5848399999999114 0.7966016999999803
    vertex 1.9658989999999519 3.5684239999999123 0.8844955999999783
  endloop
endfacet
facet normal -0.1732679142202724 -0.984056420098219 -0.04013965576874994
  outer loop
    vertex 1.907841999999953 3.6393859999999107 0.9025346999999778
    vertex 1.8898309999999536 3.6436199999999106 0.8764814999999784
    vertex 1.9108009999999531 3.6431859999999108 0.7966016999999803
  endloop
endfacet
facet normal -0.82385107188545 -0.5282719988547155 -0.20542177727601948
  outer loop
    vertex 1.9303759999999526 3.6172689999999106 0.9396582999999769
    vertex 1.9463309999999523 3.601982999999912 0.9149803999999775
    vertex 1.9377539999999522 3.5999849999999123 0.9545168999999766
  endloop
endfacet
facet normal -0.951536692346116 -0.14595627666538144 -0.2706929781523554
  outer loop
    vertex 1.9416849999999526 3.580153999999912 0.9652925999999763
    vertex 1.9543659999999519 3.568177999999912 0.9271738999999772
    vertex 1.9423629999999523 3.5678539999999126 0.9695413999999762
  endloop
endfacet
facet normal -0.796144868058087 0.15789575424395885 0.5841423455430214
  outer loop
    vertex 1.941702999999952 3.580162999999912 0.9653146999999763
    vertex 1.9416849999999526 3.580153999999912 0.9652925999999763
    vertex 1.9423629999999523 3.5678539999999126 0.9695413999999762
  endloop
endfacet
facet normal -0.5373211731242064 -0.8374805461725495 -0.09956049264118368
  outer loop
    vertex 1.9202019999999527 3.630557999999911 0.9220085999999775
    vertex 1.9259869999999524 3.6345619999999106 0.857106599999979
    vertex 1.932581999999953 3.629851999999911 0.8611332999999788
  endloop
endfacet
facet normal -0.9604367337394142 -0.027429278897289282 -0.27714421362016617
  outer loop
    vertex 1.9543659999999519 3.568177999999912 0.9271738999999772
    vertex 1.9666089999999516 3.5503209999999132 0.8865133999999782
    vertex 1.9541489999999515 3.5497999999999124 0.9297447999999773
  endloop
endfacet
facet normal -0.45608648433990134 0.8898891874986903 0.009074842995341581
  outer loop
    vertex 1.941702999999952 3.580162999999912 0.9653146999999763
    vertex 1.9516989999999521 3.585724999999912 0.9222810999999772
    vertex 1.9416849999999526 3.580153999999912 0.9652925999999763
  endloop
endfacet
facet normal -0.9129283716365625 -0.3199167930104524 -0.2534068543092753
  outer loop
    vertex 1.9377539999999522 3.5999849999999123 0.9545168999999766
    vertex 1.9516989999999521 3.585724999999912 0.9222810999999772
    vertex 1.941702999999952 3.580162999999912 0.9653146999999763
  endloop
endfacet
facet normal -0.3603191275174921 -0.9318147357732387 -0.04349051092919632
  outer loop
    vertex 1.907841999999953 3.6393859999999107 0.9025346999999778
    vertex 1.9108009999999531 3.6431859999999108 0.7966016999999803
    vertex 1.9264829999999524 3.6371219999999105 0.7966016999999803
  endloop
endfacet
facet normal -0.8367480632450922 -0.5443979257157648 -0.05902183606056421
  outer loop
    vertex 1.9521929999999519 3.615417999999912 0.7966016999999803
    vertex 1.9616619999999518 3.6008639999999112 0.7966016999999803
    vertex 1.955374999999952 3.6019209999999116 0.8759825999999783
  endloop
endfacet
facet normal -0.9955553173814408 -0.04807251396837432 -0.08098545199169675
  outer loop
    vertex 1.9658989999999519 3.5684239999999123 0.8844955999999783
    vertex 1.9739229999999515 3.550321999999912 0.7966016999999803
    vertex 1.9666089999999516 3.5503209999999132 0.8865133999999782
  endloop
endfacet
facet normal -0.9452190256829728 -0.21271136934224463 -0.24761838954221294
  outer loop
    vertex 1.9516989999999521 3.585724999999912 0.9222810999999772
    vertex 1.9543659999999519 3.568177999999912 0.9271738999999772
    vertex 1.9416849999999526 3.580153999999912 0.9652925999999763
  endloop
endfacet
facet normal -0.6709506547779331 -0.7281564598446674 -0.14004780912082943
  outer loop
    vertex 1.9303759999999526 3.6172689999999106 0.9396582999999769
    vertex 1.9459929999999523 3.616349999999911 0.8696174999999787
    vertex 1.9384209999999524 3.6164149999999107 0.9055559999999777
  endloop
endfacet
facet normal -0.918611523357448 -0.3897678324580238 -0.0650684711352813
  outer loop
    vertex 1.9616619999999518 3.6008639999999112 0.7966016999999803
    vertex 1.9684609999999518 3.5848399999999114 0.7966016999999803
    vertex 1.9620839999999515 3.585778999999912 0.8810049999999785
  endloop
endfacet
facet normal -0.6679865656104933 -0.7353358833843163 -0.11434634568408968
  outer loop
    vertex 1.9321969999999524 3.62436699999991 0.8986551999999779
    vertex 1.932581999999953 3.629851999999911 0.8611332999999788
    vertex 1.9459929999999523 3.616349999999911 0.8696174999999787
  endloop
endfacet
facet normal -0.9941705060744112 -0.07769262603127029 -0.07475868318874038
  outer loop
    vertex 1.9658989999999519 3.5684239999999123 0.8844955999999783
    vertex 1.9725539999999515 3.5678399999999124 0.7966016999999803
    vertex 1.9739229999999515 3.550321999999912 0.7966016999999803
  endloop
endfacet
facet normal -0.6743029435023574 -0.7220185938350048 -0.15493447176332054
  outer loop
    vertex 1.9303759999999526 3.6172689999999106 0.9396582999999769
    vertex 1.9202019999999527 3.630557999999911 0.9220085999999775
    vertex 1.9321969999999524 3.62436699999991 0.8986551999999779
  endloop
endfacet
facet normal -0.7192027094482237 -0.6928346778976785 -0.052226160348565774
  outer loop
    vertex 1.9403689999999525 3.627691999999911 0.7966016999999803
    vertex 1.9521929999999519 3.615417999999912 0.7966016999999803
    vertex 1.9459929999999523 3.616349999999911 0.8696174999999787
  endloop
endfacet
facet normal -0.8351265862833273 -0.5433429741319422 0.08568545584994103
  outer loop
    vertex 1.9521929999999519 3.615417999999912 0.7966016999999803
    vertex 1.9514489999999518 3.5960189999999117 0.6663386999999835
    vertex 1.9616619999999518 3.6008639999999112 0.7966016999999803
  endloop
endfacet
facet normal -0.7701159229697412 -0.6302903654356837 0.09826250774031696
  outer loop
    vertex 1.9521929999999519 3.615417999999912 0.7966016999999803
    vertex 1.9436569999999522 3.605535999999911 0.6663155999999837
    vertex 1.9514489999999518 3.5960189999999117 0.6663386999999835
  endloop
endfacet
facet normal -0.09352839167763552 -0.9799721319592122 0.1758040401512759
  outer loop
    vertex 1.9005749999999528 3.624757999999911 0.6662443999999836
    vertex 1.912922999999953 3.6003219999999114 0.5366016999999867
    vertex 1.9218919999999524 3.599465999999912 0.5366016999999867
  endloop
endfacet
facet normal -0.1181194141901051 -0.978095963589064 0.17139454484366415
  outer loop
    vertex 1.9127739999999531 3.62328699999991 0.6662569999999837
    vertex 1.9005749999999528 3.624757999999911 0.6662443999999836
    vertex 1.9218919999999524 3.599465999999912 0.5366016999999867
  endloop
endfacet
facet normal -0.27565039025716553 -0.9486930368088732 0.15491411898671653
  outer loop
    vertex 1.9127739999999531 3.62328699999991 0.6662569999999837
    vertex 1.9218919999999524 3.599465999999912 0.5366016999999867
    vertex 1.9303859999999524 3.5969979999999118 0.5366016999999867
  endloop
endfacet
facet normal -0.7136346094710722 -0.6842391671789264 -0.1501412876705123
  outer loop
    vertex 1.9321969999999524 3.62436699999991 0.8986551999999779
    vertex 1.9459929999999523 3.616349999999911 0.8696174999999787
    vertex 1.9303759999999526 3.6172689999999106 0.9396582999999769
  endloop
endfacet
facet normal -0.9328180799681497 -0.2560501573324544 -0.25355225618116656
  outer loop
    vertex 1.9620839999999515 3.585778999999912 0.8810049999999785
    vertex 1.9658989999999519 3.5684239999999123 0.8844955999999783
    vertex 1.9543659999999519 3.568177999999912 0.9271738999999772
  endloop
endfacet
facet normal -0.8130047861973182 -0.5567992068794828 -0.17028758274939534
  outer loop
    vertex 1.9384209999999524 3.6164149999999107 0.9055559999999777
    vertex 1.9459929999999523 3.616349999999911 0.8696174999999787
    vertex 1.9463309999999523 3.601982999999912 0.9149803999999775
  endloop
endfacet
facet normal -0.1241629935026348 -0.981096912142913 0.14843315003093585
  outer loop
    vertex 1.8939229999999538 3.645321999999911 0.7966016999999803
    vertex 1.9005749999999528 3.624757999999911 0.6662443999999836
    vertex 1.9108009999999531 3.6431859999999108 0.7966016999999803
  endloop
endfacet
facet normal -0.49776199894149054 -0.8581881716130769 0.1254832837997778
  outer loop
    vertex 1.9264829999999524 3.6371219999999105 0.7966016999999803
    vertex 1.924140999999953 3.6194239999999107 0.6662737999999836
    vertex 1.9344939999999524 3.6134219999999106 0.6662935999999836
  endloop
endfacet
facet normal -0.6894632145244052 -0.7219110256558859 -0.05903343844077526
  outer loop
    vertex 1.9459929999999523 3.616349999999911 0.8696174999999787
    vertex 1.932581999999953 3.629851999999911 0.8611332999999788
    vertex 1.9403689999999525 3.627691999999911 0.7966016999999803
  endloop
endfacet
facet normal -0.4736586656634921 -0.8754357361875693 -0.09622754412125993
  outer loop
    vertex 1.9202019999999527 3.630557999999911 0.9220085999999775
    vertex 1.907841999999953 3.6393859999999107 0.9025346999999778
    vertex 1.9259869999999524 3.6345619999999106 0.857106599999979
  endloop
endfacet
facet normal -0.6282324038074716 -0.768895376640498 -0.11884421141626185
  outer loop
    vertex 1.9202019999999527 3.630557999999911 0.9220085999999775
    vertex 1.932581999999953 3.629851999999911 0.8611332999999788
    vertex 1.9321969999999524 3.62436699999991 0.8986551999999779
  endloop
endfacet
facet normal -0.8973666636723298 -0.38946263253401653 -0.2074895871827436
  outer loop
    vertex 1.9463309999999523 3.601982999999912 0.9149803999999775
    vertex 1.955374999999952 3.6019209999999116 0.8759825999999783
    vertex 1.9516989999999521 3.585724999999912 0.9222810999999772
  endloop
endfacet
facet normal -0.11854705562730405 -0.9818419427289187 0.1480979240246115
  outer loop
    vertex 1.9108009999999531 3.6431859999999108 0.7966016999999803
    vertex 1.9005749999999528 3.624757999999911 0.6662443999999836
    vertex 1.9127739999999531 3.62328699999991 0.6662569999999837
  endloop
endfacet
facet normal -0.6483877083335555 -0.7530711564354249 0.11170144594843875
  outer loop
    vertex 1.9403689999999525 3.627691999999911 0.7966016999999803
    vertex 1.9344939999999524 3.6134219999999106 0.6662935999999836
    vertex 1.9436569999999522 3.605535999999911 0.6663155999999837
  endloop
endfacet
facet normal -0.7166251025169944 -0.6903515734203394 0.09931348105151272
  outer loop
    vertex 1.9403689999999525 3.627691999999911 0.7966016999999803
    vertex 1.9436569999999522 3.605535999999911 0.6663155999999837
    vertex 1.9521929999999519 3.615417999999912 0.7966016999999803
  endloop
endfacet
facet normal -0.5580643133304934 -0.8217689347728184 0.11515224717439193
  outer loop
    vertex 1.9264829999999524 3.6371219999999105 0.7966016999999803
    vertex 1.9344939999999524 3.6134219999999106 0.6662935999999836
    vertex 1.9403689999999525 3.627691999999911 0.7966016999999803
  endloop
endfacet
facet normal -0.8644940627332826 -0.4951969874242643 0.08619721077178934
  outer loop
    vertex 1.9616619999999518 3.6008639999999112 0.7966016999999803
    vertex 1.9514489999999518 3.5960189999999117 0.6663386999999835
    vertex 1.9576909999999519 3.585125999999912 0.6663617999999836
  endloop
endfacet
facet normal -0.9479487990569672 -0.21066121683293382 -0.2387779849335391
  outer loop
    vertex 1.9620839999999515 3.585778999999912 0.8810049999999785
    vertex 1.9543659999999519 3.568177999999912 0.9271738999999772
    vertex 1.9516989999999521 3.585724999999912 0.9222810999999772
  endloop
endfacet
facet normal -0.9179658665846946 -0.38949387961242016 0.07505455036089538
  outer loop
    vertex 1.9616619999999518 3.6008639999999112 0.7966016999999803
    vertex 1.9576909999999519 3.585125999999912 0.6663617999999836
    vertex 1.9684609999999518 3.5848399999999114 0.7966016999999803
  endloop
endfacet
facet normal -0.357505782509345 -0.92453919546688 0.1319730711843716
  outer loop
    vertex 1.9108009999999531 3.6431859999999108 0.7966016999999803
    vertex 1.924140999999953 3.6194239999999107 0.6662737999999836
    vertex 1.9264829999999524 3.6371219999999105 0.7966016999999803
  endloop
endfacet
facet normal -0.874448952363062 -0.4320713004068487 -0.22057520503419706
  outer loop
    vertex 1.955374999999952 3.6019209999999116 0.8759825999999783
    vertex 1.9620839999999515 3.585778999999912 0.8810049999999785
    vertex 1.9516989999999521 3.585724999999912 0.9222810999999772
  endloop
endfacet
facet normal -0.7859836511944387 -0.5910551230681927 -0.18133819661037334
  outer loop
    vertex 1.9459929999999523 3.616349999999911 0.8696174999999787
    vertex 1.955374999999952 3.6019209999999116 0.8759825999999783
    vertex 1.9463309999999523 3.601982999999912 0.9149803999999775
  endloop
endfacet
facet normal -0.9861241476070546 -0.1560406192198136 0.05666119183142238
  outer loop
    vertex 1.9684609999999518 3.5848399999999114 0.7966016999999803
    vertex 1.9647349999999517 3.561108999999912 0.6664014999999835
    vertex 1.9739229999999515 3.550321999999912 0.7966016999999803
  endloop
endfacet
facet normal -0.3188601054226473 -0.9376544247783326 0.1383199655272966
  outer loop
    vertex 1.9108009999999531 3.6431859999999108 0.7966016999999803
    vertex 1.9127739999999531 3.62328699999991 0.6662569999999837
    vertex 1.924140999999953 3.6194239999999107 0.6662737999999836
  endloop
endfacet
facet normal -0.9566540162631666 -0.28044946112622043 0.07849326672757154
  outer loop
    vertex 1.9576909999999519 3.585125999999912 0.6663617999999836
    vertex 1.9647349999999517 3.561108999999912 0.6664014999999835
    vertex 1.9684609999999518 3.5848399999999114 0.7966016999999803
  endloop
endfacet
facet normal -0.8381300509426646 -0.544294431523572 0.035799294955038356
  outer loop
    vertex 1.9492709999999522 3.5887209999999117 0.6013828999999852
    vertex 1.9512589999999521 3.5813989999999123 0.5366016999999867
    vertex 1.956089999999952 3.5739599999999125 0.5366016999999867
  endloop
endfacet
facet normal -0.5955598801339754 -0.7960465077194467 0.10778862056115904
  outer loop
    vertex 1.9344939999999524 3.6134219999999106 0.6662935999999836
    vertex 1.9382299999999524 3.593065999999912 0.5366016999999867
    vertex 1.9452459999999523 3.5878169999999114 0.5366016999999867
  endloop
endfacet
facet normal -0.4980684134740909 -0.8587333637091622 0.12043614719904427
  outer loop
    vertex 1.9344939999999524 3.6134219999999106 0.6662935999999836
    vertex 1.924140999999953 3.6194239999999107 0.6662737999999836
    vertex 1.9382299999999524 3.593065999999912 0.5366016999999867
  endloop
endfacet
facet normal -0.6483024744736159 -0.7529688332646538 0.11287974895193863
  outer loop
    vertex 1.9436569999999522 3.605535999999911 0.6663155999999837
    vertex 1.9344939999999524 3.6134219999999106 0.6662935999999836
    vertex 1.9425589999999524 3.5967429999999116 0.6013553999999851
  endloop
endfacet
facet normal -0.7282687136111705 -0.6823122117395483 0.0638335843127796
  outer loop
    vertex 1.9425589999999524 3.5967429999999116 0.6013553999999851
    vertex 1.9452459999999523 3.5878169999999114 0.5366016999999867
    vertex 1.9512589999999521 3.5813989999999123 0.5366016999999867
  endloop
endfacet
facet normal -0.9507394503485834 -0.3099385245861709 0.005710387747014494
  outer loop
    vertex 1.954653999999952 3.5795589999999122 0.6014105999999853
    vertex 1.956089999999952 3.5739599999999125 0.5366016999999867
    vertex 1.9614669999999517 3.5574659999999128 0.5366016999999867
  endloop
endfacet
facet normal -0.9573247402758845 -0.2890066748390545 -0.00211744047932146
  outer loop
    vertex 1.954653999999952 3.5795589999999122 0.6014105999999853
    vertex 1.9614669999999517 3.5574659999999128 0.5366016999999867
    vertex 1.9607269999999517 3.5594419999999127 0.6014644999999851
  endloop
endfacet
facet normal -0.8203567192127045 -0.5701144386915264 0.04454638075100621
  outer loop
    vertex 1.9344939999999524 3.6134219999999106 0.6662935999999836
    vertex 1.9452459999999523 3.5878169999999114 0.5366016999999867
    vertex 1.9425589999999524 3.5967429999999116 0.6013553999999851
  endloop
endfacet
facet normal -0.4442120297972219 -0.8861645884357765 0.13186354608413559
  outer loop
    vertex 1.924140999999953 3.6194239999999107 0.6662737999999836
    vertex 1.9303859999999524 3.5969979999999118 0.5366016999999867
    vertex 1.9382299999999524 3.593065999999912 0.5366016999999867
  endloop
endfacet
facet normal -0.8619684140355716 -0.5063625031924875 0.024646877401401496
  outer loop
    vertex 1.9492709999999522 3.5887209999999117 0.6013828999999852
    vertex 1.956089999999952 3.5739599999999125 0.5366016999999867
    vertex 1.954653999999952 3.5795589999999122 0.6014105999999853
  endloop
endfacet
facet normal -0.7661144552908761 -0.640839551662036 0.04892147197259237
  outer loop
    vertex 1.9425589999999524 3.5967429999999116 0.6013553999999851
    vertex 1.9512589999999521 3.5813989999999123 0.5366016999999867
    vertex 1.9492709999999522 3.5887209999999117 0.6013828999999852
  endloop
endfacet
facet normal -0.31848636240698364 -0.936518547661221 0.14662689673891646
  outer loop
    vertex 1.924140999999953 3.6194239999999107 0.6662737999999836
    vertex 1.9127739999999531 3.62328699999991 0.6662569999999837
    vertex 1.9303859999999524 3.5969979999999118 0.5366016999999867
  endloop
endfacet
facet normal -0.7701106724999449 -0.6302858972526715 0.09833229289545456
  outer loop
    vertex 1.9436569999999522 3.605535999999911 0.6663155999999837
    vertex 1.9425589999999524 3.5967429999999116 0.6013553999999851
    vertex 1.9514489999999518 3.5960189999999117 0.6663386999999835
  endloop
endfacet
facet normal -0.9552675106861159 -0.28820215986145187 0.06635885832912995
  outer loop
    vertex 1.954653999999952 3.5795589999999122 0.6014105999999853
    vertex 1.9607269999999517 3.5594419999999127 0.6014644999999851
    vertex 1.9647349999999517 3.561108999999912 0.6664014999999835
  endloop
endfacet
facet normal -0.7634728526558351 -0.6384633665811695 0.09733310223865553
  outer loop
    vertex 1.9425589999999524 3.5967429999999116 0.6013553999999851
    vertex 1.9492709999999522 3.5887209999999117 0.6013828999999852
    vertex 1.9514489999999518 3.5960189999999117 0.6663386999999835
  endloop
endfacet
facet normal -0.9573353220608306 -0.28066527399521546 0.06881922048291711
  outer loop
    vertex 1.9576909999999519 3.585125999999912 0.6663617999999836
    vertex 1.954653999999952 3.5795589999999122 0.6014105999999853
    vertex 1.9647349999999517 3.561108999999912 0.6664014999999835
  endloop
endfacet
facet normal -0.8593019718731663 -0.504618150021256 0.08343047287420503
  outer loop
    vertex 1.9492709999999522 3.5887209999999117 0.6013828999999852
    vertex 1.954653999999952 3.5795589999999122 0.6014105999999853
    vertex 1.9576909999999519 3.585125999999912 0.6663617999999836
  endloop
endfacet
facet normal -0.8646087957623374 -0.49526604443713074 0.08463554523956902
  outer loop
    vertex 1.9514489999999518 3.5960189999999117 0.6663386999999835
    vertex 1.9492709999999522 3.5887209999999117 0.6013828999999852
    vertex 1.9576909999999519 3.585125999999912 0.6663617999999836
  endloop
endfacet
facet normal 0.9677970240184587 0.11599600337066396 0.22341407185548562
  outer loop
    vertex 1.863922999999954 3.550321999999912 0.5366016999999867
    vertex 1.834106999999955 3.550292999999913 0.6657752999999836
    vertex 1.8653849999999543 3.5381239999999132 0.5366016999999867
  endloop
endfacet
facet normal 0.8587209333160994 -0.4671388979529951 0.21066468309611963
  outer loop
    vertex 1.8477579999999545 3.5936579999999116 0.6711860999999836
    vertex 1.8412429999999544 3.580138999999912 0.6677650999999836
    vertex 1.8677509999999538 3.569716999999912 0.5366016999999867
  endloop
endfacet
facet normal 0.67652388432522 -0.7354239294299544 0.03830245369845135
  outer loop
    vertex 1.8543929999999544 3.6297589999999107 0.8311948999999798
    vertex 1.8431379999999546 3.618748999999912 0.81859149999998
    vertex 1.8556809999999542 3.62891299999991 0.7922017999999806
  endloop
endfacet
facet normal 0.8628947147210314 -0.4928374168940398 0.11191064210217097
  outer loop
    vertex 1.833010999999955 3.6048049999999114 0.8083369999999802
    vertex 1.8244759999999551 3.588195999999912 0.8010031999999804
    vertex 1.8398279999999547 3.6009189999999114 0.7386606999999817
  endloop
endfacet
facet normal 0.7669574188775513 -0.6066373925839005 0.20920657625345096
  outer loop
    vertex 1.8559159999999544 3.605643999999911 0.6760344999999833
    vertex 1.8477579999999545 3.5936579999999116 0.6711860999999836
    vertex 1.8722479999999537 3.578206999999912 0.5366016999999867
  endloop
endfacet
facet normal 0.9353226662803 -0.2835733713765466 0.21156004582257495
  outer loop
    vertex 1.8412429999999544 3.580138999999912 0.6677650999999836
    vertex 1.864911999999954 3.560352999999913 0.5366016999999867
    vertex 1.8677509999999538 3.569716999999912 0.5366016999999867
  endloop
endfacet
facet normal 0.5839330715488465 -0.8109635104331264 0.0368829594462062
  outer loop
    vertex 1.8543929999999544 3.6297589999999107 0.8311948999999798
    vertex 1.8556809999999542 3.62891299999991 0.7922017999999806
    vertex 1.867171999999954 3.6377619999999107 0.8048428999999803
  endloop
endfacet
facet normal 0.7616224411567385 -0.6131009259784109 0.20985354819698832
  outer loop
    vertex 1.8559159999999544 3.605643999999911 0.6760344999999833
    vertex 1.8722479999999537 3.578206999999912 0.5366016999999867
    vertex 1.8782129999999537 3.5856169999999117 0.5366016999999867
  endloop
endfacet
facet normal 0.6435416415942264 -0.7364140736450246 0.20868269614835913
  outer loop
    vertex 1.865451999999954 3.6157059999999115 0.6821345999999834
    vertex 1.8559159999999544 3.605643999999911 0.6760344999999833
    vertex 1.8782129999999537 3.5856169999999117 0.5366016999999867
  endloop
endfacet
facet normal 0.41639426178544936 -0.9091650155611503 0.005898578798698465
  outer loop
    vertex 1.8661289999999542 3.6375469999999104 0.8453320999999792
    vertex 1.867171999999954 3.6377619999999107 0.8048428999999803
    vertex 1.8791179999999539 3.6433239999999105 0.8188343999999798
  endloop
endfacet
facet normal 0.9471960129183907 -0.28492710442618746 0.14709268600039993
  outer loop
    vertex 1.8324159999999547 3.5848389999999117 0.733710299999982
    vertex 1.8180429999999554 3.569764999999912 0.7970652999999804
    vertex 1.8412429999999544 3.580138999999912 0.6677650999999836
  endloop
endfacet
facet normal 0.8086853041052358 -0.5758911735826059 0.1199059427796274
  outer loop
    vertex 1.8450189999999547 3.6170929999999117 0.7813322999999809
    vertex 1.8398279999999547 3.6009189999999114 0.7386606999999817
    vertex 1.8488909999999545 3.6151499999999115 0.7458862999999816
  endloop
endfacet
facet normal 0.9644329428945256 -0.21746742611965308 0.15025650480660774
  outer loop
    vertex 1.8180429999999554 3.569764999999912 0.7970652999999804
    vertex 1.8236839999999552 3.549448999999912 0.731454599999982
    vertex 1.834106999999955 3.550292999999913 0.6657752999999836
  endloop
endfacet
facet normal 0.8221536851399427 -0.5582249864428876 0.11157142340962539
  outer loop
    vertex 1.8450189999999547 3.6170929999999117 0.7813322999999809
    vertex 1.833010999999955 3.6048049999999114 0.8083369999999802
    vertex 1.8398279999999547 3.6009189999999114 0.7386606999999817
  endloop
endfacet
facet normal 0.8640283175069121 -0.45766022895506103 0.20976696922770216
  outer loop
    vertex 1.8477579999999545 3.5936579999999116 0.6711860999999836
    vertex 1.8677509999999538 3.569716999999912 0.5366016999999867
    vertex 1.8722479999999537 3.578206999999912 0.5366016999999867
  endloop
endfacet
facet normal 0.9277484633328267 -0.35094221836826456 0.12697380891483145
  outer loop
    vertex 1.8244759999999551 3.588195999999912 0.8010031999999804
    vertex 1.8180429999999554 3.569764999999912 0.7970652999999804
    vertex 1.8324159999999547 3.5848389999999117 0.733710299999982
  endloop
endfacet
facet normal 0.963127280312866 -0.15859460577177348 0.21733290808627614
  outer loop
    vertex 1.8365829999999552 3.5655019999999125 0.6659011999999835
    vertex 1.834106999999955 3.550292999999913 0.6657752999999836
    vertex 1.864911999999954 3.560352999999913 0.5366016999999867
  endloop
endfacet
facet normal 0.9668351281354858 -0.20839443256685017 0.1476536334750339
  outer loop
    vertex 1.8180429999999554 3.569764999999912 0.7970652999999804
    vertex 1.8139229999999553 3.550321999999912 0.7966016999999803
    vertex 1.8236839999999552 3.549448999999912 0.731454599999982
  endloop
endfacet
facet normal 0.8854225888529589 -0.44716186279521586 0.1267797602554801
  outer loop
    vertex 1.8398279999999547 3.6009189999999114 0.7386606999999817
    vertex 1.8244759999999551 3.588195999999912 0.8010031999999804
    vertex 1.8324159999999547 3.5848389999999117 0.733710299999982
  endloop
endfacet
facet normal 0.5448637745839369 -0.8384698126203582 0.009583343389777857
  outer loop
    vertex 1.8661289999999542 3.6375469999999104 0.8453320999999792
    vertex 1.8543929999999544 3.6297589999999107 0.8311948999999798
    vertex 1.867171999999954 3.6377619999999107 0.8048428999999803
  endloop
endfacet
facet normal 0.7832290248044377 -0.6181112920413244 0.06701287454582255
  outer loop
    vertex 1.8431379999999546 3.618748999999912 0.81859149999998
    vertex 1.833010999999955 3.6048049999999114 0.8083369999999802
    vertex 1.8450189999999547 3.6170929999999117 0.7813322999999809
  endloop
endfacet
facet normal 0.1791378363932568 -0.9824501834194095 0.051973769071634625
  outer loop
    vertex 1.8873299999999535 3.6447259999999106 0.8080596999999802
    vertex 1.8814289999999538 3.6431379999999107 0.7983809999999804
    vertex 1.8939229999999538 3.645321999999911 0.7966016999999803
  endloop
endfacet
facet normal 0.7094545699351427 -0.7015593865589272 0.06699731583581299
  outer loop
    vertex 1.8556809999999542 3.62891299999991 0.7922017999999806
    vertex 1.8431379999999546 3.618748999999912 0.81859149999998
    vertex 1.8450189999999547 3.6170929999999117 0.7813322999999809
  endloop
endfacet
facet normal 0.10062149906011175 -0.9759203457229512 0.19353240744353759
  outer loop
    vertex 1.9005749999999528 3.624757999999911 0.6662443999999836
    vertex 1.903000999999953 3.599298999999912 0.5366016999999867
    vertex 1.912922999999953 3.6003219999999114 0.5366016999999867
  endloop
endfacet
facet normal 0.3130121215703938 -0.9482523262044591 -0.05330044650688496
  outer loop
    vertex 1.8898309999999536 3.6436199999999106 0.8764814999999784
    vertex 1.8661289999999542 3.6375469999999104 0.8453320999999792
    vertex 1.8791179999999539 3.6433239999999105 0.8188343999999798
  endloop
endfacet
facet normal 0.9699193135430187 -0.09562857153761643 0.22385643060210372
  outer loop
    vertex 1.864911999999954 3.560352999999913 0.5366016999999867
    vertex 1.834106999999955 3.550292999999913 0.6657752999999836
    vertex 1.863922999999954 3.550321999999912 0.5366016999999867
  endloop
endfacet
facet normal 0.9766373768050869 -0.1601807977037076 0.14325343372597704
  outer loop
    vertex 1.8180429999999554 3.569764999999912 0.7970652999999804
    vertex 1.834106999999955 3.550292999999913 0.6657752999999836
    vertex 1.8365829999999552 3.5655019999999125 0.6659011999999835
  endloop
endfacet
facet normal 0.20957081509907038 -0.9772510038846368 0.03256606923134423
  outer loop
    vertex 1.8791179999999539 3.6433239999999105 0.8188343999999798
    vertex 1.8814289999999538 3.6431379999999107 0.7983809999999804
    vertex 1.8873299999999535 3.6447259999999106 0.8080596999999802
  endloop
endfacet
facet normal 0.582682223636537 -0.8088917136488286 0.07858512485351449
  outer loop
    vertex 1.869497999999954 3.6373489999999102 0.7853541999999807
    vertex 1.8592969999999545 3.6270649999999103 0.7551359999999816
    vertex 1.8705189999999539 3.6361929999999107 0.7658848999999811
  endloop
endfacet
facet normal 0.5128928442916325 -0.8405142311973516 0.17457593599681628
  outer loop
    vertex 1.8705189999999539 3.6361929999999107 0.7658848999999811
    vertex 1.865451999999954 3.6157059999999115 0.6821345999999834
    vertex 1.875847999999954 3.62350299999991 0.6891312999999831
  endloop
endfacet
facet normal 0.6754454674355767 -0.7185483950333197 0.16571549268482968
  outer loop
    vertex 1.8592969999999545 3.6270649999999103 0.7551359999999816
    vertex 1.8488909999999545 3.6151499999999115 0.7458862999999816
    vertex 1.8559159999999544 3.605643999999911 0.6760344999999833
  endloop
endfacet
facet normal 0.7077609120203626 -0.698772010399035 0.10388536421939142
  outer loop
    vertex 1.8556809999999542 3.62891299999991 0.7922017999999806
    vertex 1.8488909999999545 3.6151499999999115 0.7458862999999816
    vertex 1.8592969999999545 3.6270649999999103 0.7551359999999816
  endloop
endfacet
facet normal 0.2941016351767456 -0.9394770589915798 0.17574721566754908
  outer loop
    vertex 1.8822489999999539 3.6421119999999103 0.7778961999999809
    vertex 1.8705189999999539 3.6361929999999107 0.7658848999999811
    vertex 1.875847999999954 3.62350299999991 0.6891312999999831
  endloop
endfacet
facet normal 0.1530360631963165 -0.9691541219126605 0.19318450077859042
  outer loop
    vertex 1.8868919999999538 3.6287189999999105 0.6969549999999829
    vertex 1.903000999999953 3.599298999999912 0.5366016999999867
    vertex 1.9005749999999528 3.624757999999911 0.6662443999999836
  endloop
endfacet
facet normal 0.7845924511946286 -0.5989017784415592 0.16040992895685113
  outer loop
    vertex 1.8488909999999545 3.6151499999999115 0.7458862999999816
    vertex 1.8477579999999545 3.5936579999999116 0.6711860999999836
    vertex 1.8559159999999544 3.605643999999911 0.6760344999999833
  endloop
endfacet
facet normal 0.9223752047780817 -0.3210199626876213 0.21487243929045494
  outer loop
    vertex 1.8412429999999544 3.580138999999912 0.6677650999999836
    vertex 1.8365829999999552 3.5655019999999125 0.6659011999999835
    vertex 1.864911999999954 3.560352999999913 0.5366016999999867
  endloop
endfacet
facet normal 0.47537444498933473 -0.8548526196503521 0.20795705260464883
  outer loop
    vertex 1.875847999999954 3.62350299999991 0.6891312999999831
    vertex 1.885454999999954 3.5917399999999122 0.5366016999999867
    vertex 1.8937809999999535 3.596369999999912 0.5366016999999867
  endloop
endfacet
facet normal 0.1412123649074903 -0.989753151789482 -0.021160494323637546
  outer loop
    vertex 1.8898309999999536 3.6436199999999106 0.8764814999999784
    vertex 1.8791179999999539 3.6433239999999105 0.8188343999999798
    vertex 1.8873299999999535 3.6447259999999106 0.8080596999999802
  endloop
endfacet
facet normal 0.020869996081987887 -0.9874682311682089 0.15643188836380656
  outer loop
    vertex 1.8939229999999538 3.645321999999911 0.7966016999999803
    vertex 1.8822489999999539 3.6421119999999103 0.7778961999999809
    vertex 1.8971699999999536 3.6350709999999107 0.731459599999982
  endloop
endfacet
facet normal 0.3984909242315808 -0.9150888782607898 0.06178453033300743
  outer loop
    vertex 1.8814289999999538 3.6431379999999107 0.7983809999999804
    vertex 1.8705189999999539 3.6361929999999107 0.7658848999999811
    vertex 1.8822489999999539 3.6421119999999103 0.7778961999999809
  endloop
endfacet
facet normal 0.4940421983891861 -0.8444451219151174 0.20696555820846696
  outer loop
    vertex 1.875847999999954 3.62350299999991 0.6891312999999831
    vertex 1.865451999999954 3.6157059999999115 0.6821345999999834
    vertex 1.885454999999954 3.5917399999999122 0.5366016999999867
  endloop
endfacet
facet normal 0.3599762469501104 -0.9308528686495554 0.06269001960923848
  outer loop
    vertex 1.8791179999999539 3.6433239999999105 0.8188343999999798
    vertex 1.867171999999954 3.6377619999999107 0.8048428999999803
    vertex 1.869497999999954 3.6373489999999102 0.7853541999999807
  endloop
endfacet
facet normal 0.3891112380808246 -0.9197032924685886 0.052328751386266345
  outer loop
    vertex 1.8791179999999539 3.6433239999999105 0.8188343999999798
    vertex 1.869497999999954 3.6373489999999102 0.7853541999999807
    vertex 1.8814289999999538 3.6431379999999107 0.7983809999999804
  endloop
endfacet
facet normal 0.6312854831271026 -0.7466551476084378 0.2097253664743553
  outer loop
    vertex 1.865451999999954 3.6157059999999115 0.6821345999999834
    vertex 1.8782129999999537 3.5856169999999117 0.5366016999999867
    vertex 1.885454999999954 3.5917399999999122 0.5366016999999867
  endloop
endfacet
facet normal 0.07298526981765507 -0.9844967506814312 0.15949701654685663
  outer loop
    vertex 1.8971699999999536 3.6350709999999107 0.731459599999982
    vertex 1.8868919999999538 3.6287189999999105 0.6969549999999829
    vertex 1.9005749999999528 3.624757999999911 0.6662443999999836
  endloop
endfacet
facet normal 0.5156957823110858 -0.838913984781893 0.1740149023616166
  outer loop
    vertex 1.8705189999999539 3.6361929999999107 0.7658848999999811
    vertex 1.8592969999999545 3.6270649999999103 0.7551359999999816
    vertex 1.865451999999954 3.6157059999999115 0.6821345999999834
  endloop
endfacet
facet normal 0.051634048955757204 -0.9847880962389123 0.1659106099517853
  outer loop
    vertex 1.8822489999999539 3.6421119999999103 0.7778961999999809
    vertex 1.8868919999999538 3.6287189999999105 0.6969549999999829
    vertex 1.8971699999999536 3.6350709999999107 0.731459599999982
  endloop
endfacet
facet normal 0.058475006809311586 -0.9981216489341006 -0.01827149440312085
  outer loop
    vertex 1.8898309999999536 3.6436199999999106 0.8764814999999784
    vertex 1.8873299999999535 3.6447259999999106 0.8080596999999802
    vertex 1.8939229999999538 3.645321999999911 0.7966016999999803
  endloop
endfacet
facet normal 0.6620003079843754 -0.7301045040694315 0.1694196132864247
  outer loop
    vertex 1.8592969999999545 3.6270649999999103 0.7551359999999816
    vertex 1.8559159999999544 3.605643999999911 0.6760344999999833
    vertex 1.865451999999954 3.6157059999999115 0.6821345999999834
  endloop
endfacet
facet normal 0.795160991531264 -0.585856534585392 0.15649638472058186
  outer loop
    vertex 1.8488909999999545 3.6151499999999115 0.7458862999999816
    vertex 1.8398279999999547 3.6009189999999114 0.7386606999999817
    vertex 1.8477579999999545 3.5936579999999116 0.6711860999999836
  endloop
endfacet
facet normal 0.5705061073411862 -0.8168411516638152 0.08540090418103886
  outer loop
    vertex 1.867171999999954 3.6377619999999107 0.8048428999999803
    vertex 1.8592969999999545 3.6270649999999103 0.7551359999999816
    vertex 1.869497999999954 3.6373489999999102 0.7853541999999807
  endloop
endfacet
facet normal 0.3684539192744843 -0.9266686135212687 0.07434372929737404
  outer loop
    vertex 1.8814289999999538 3.6431379999999107 0.7983809999999804
    vertex 1.869497999999954 3.6373489999999102 0.7853541999999807
    vertex 1.8705189999999539 3.6361929999999107 0.7658848999999811
  endloop
endfacet
facet normal 0.17970515140009183 -0.9821033581100937 0.05638308743893772
  outer loop
    vertex 1.8814289999999538 3.6431379999999107 0.7983809999999804
    vertex 1.8822489999999539 3.6421119999999103 0.7778961999999809
    vertex 1.8939229999999538 3.645321999999911 0.7966016999999803
  endloop
endfacet
facet normal 0.31808756701473834 -0.9322361348580686 0.1724995321023616
  outer loop
    vertex 1.8822489999999539 3.6421119999999103 0.7778961999999809
    vertex 1.875847999999954 3.62350299999991 0.6891312999999831
    vertex 1.8868919999999538 3.6287189999999105 0.6969549999999829
  endloop
endfacet
facet normal 0.6831992566910426 -0.7212522573923653 0.11416635609155645
  outer loop
    vertex 1.8556809999999542 3.62891299999991 0.7922017999999806
    vertex 1.8450189999999547 3.6170929999999117 0.7813322999999809
    vertex 1.8488909999999545 3.6151499999999115 0.7458862999999816
  endloop
endfacet
facet normal 0.296584225455043 -0.9335973228731524 0.2010816648412162
  outer loop
    vertex 1.8868919999999538 3.6287189999999105 0.6969549999999829
    vertex 1.8937809999999535 3.596369999999912 0.5366016999999867
    vertex 1.903000999999953 3.599298999999912 0.5366016999999867
  endloop
endfacet
facet normal 0.5401508179391281 -0.8362582601405845 0.09438864458362307
  outer loop
    vertex 1.867171999999954 3.6377619999999107 0.8048428999999803
    vertex 1.8556809999999542 3.62891299999991 0.7922017999999806
    vertex 1.8592969999999545 3.6270649999999103 0.7551359999999816
  endloop
endfacet
facet normal 0.9377003973007235 -0.3167260298740355 0.1428376242531956
  outer loop
    vertex 1.8412429999999544 3.580138999999912 0.6677650999999836
    vertex 1.8180429999999554 3.569764999999912 0.7970652999999804
    vertex 1.8365829999999552 3.5655019999999125 0.6659011999999835
  endloop
endfacet
facet normal 0.29825829076255417 -0.933071226549835 0.2010474525483631
  outer loop
    vertex 1.8868919999999538 3.6287189999999105 0.6969549999999829
    vertex 1.875847999999954 3.62350299999991 0.6891312999999831
    vertex 1.8937809999999535 3.596369999999912 0.5366016999999867
  endloop
endfacet
facet normal 0.879547777404969 -0.451576338278427 0.14991503583372393
  outer loop
    vertex 1.8398279999999547 3.6009189999999114 0.7386606999999817
    vertex 1.8324159999999547 3.5848389999999117 0.733710299999982
    vertex 1.8412429999999544 3.580138999999912 0.6677650999999836
  endloop
endfacet
facet normal 0.8747155130572452 -0.4600804974000658 0.15231121800152592
  outer loop
    vertex 1.8398279999999547 3.6009189999999114 0.7386606999999817
    vertex 1.8412429999999544 3.580138999999912 0.6677650999999836
    vertex 1.8477579999999545 3.5936579999999116 0.6711860999999836
  endloop
endfacet
facet normal -0.8005021082247294 0.15579856965224212 0.5787254793268388
  outer loop
    vertex 1.9423459999999522 3.5650619999999122 0.9702705999999761
    vertex 1.8139229999999553 3.550321999999912 0.7966016999999803
    vertex 1.9411899999999525 3.549241999999912 0.9729302999999763
  endloop
endfacet
facet normal -0.8005021082247294 0.15579856965224212 0.5787254793268388
  outer loop
    vertex 1.8139229999999553 3.550321999999912 0.7966016999999803
    vertex 1.9423459999999522 3.5650619999999122 0.9702705999999761
    vertex 1.8180429999999554 3.569764999999912 0.7970652999999804
  endloop
endfacet
facet normal -0.8005021082247294 0.15579856965224212 0.5787254793268388
  outer loop
    vertex 1.8180429999999554 3.569764999999912 0.7970652999999804
    vertex 1.9423459999999522 3.5650619999999122 0.9702705999999761
    vertex 1.9416849999999526 3.580153999999912 0.9652925999999763
  endloop
endfacet
facet normal -0.8005021082247294 0.15579856965224212 0.5787254793268388
  outer loop
    vertex 1.8180429999999554 3.569764999999912 0.7970652999999804
    vertex 1.9416849999999526 3.580153999999912 0.9652925999999763
    vertex 1.8244759999999551 3.588195999999912 0.8010031999999804
  endloop
endfacet
facet normal -0.8005021082247294 0.15579856965224212 0.5787254793268388
  outer loop
    vertex 1.8244759999999551 3.588195999999912 0.8010031999999804
    vertex 1.9416849999999526 3.580153999999912 0.9652925999999763
    vertex 1.941702999999952 3.580162999999912 0.9653146999999763
  endloop
endfacet
facet normal -0.8005021082247294 0.15579856965224212 0.5787254793268388
  outer loop
    vertex 1.8244759999999551 3.588195999999912 0.8010031999999804
    vertex 1.941702999999952 3.580162999999912 0.9653146999999763
    vertex 1.9377539999999522 3.5999849999999123 0.9545168999999766
  endloop
endfacet
facet normal -0.8005021082247294 0.15579856965224212 0.5787254793268388
  outer loop
    vertex 1.8244759999999551 3.588195999999912 0.8010031999999804
    vertex 1.9377539999999522 3.5999849999999123 0.9545168999999766
    vertex 1.833010999999955 3.6048049999999114 0.8083369999999802
  endloop
endfacet
facet normal -0.8005021082247294 0.15579856965224212 0.5787254793268388
  outer loop
    vertex 1.833010999999955 3.6048049999999114 0.8083369999999802
    vertex 1.9377539999999522 3.5999849999999123 0.9545168999999766
    vertex 1.9303759999999526 3.6172689999999106 0.9396582999999769
  endloop
endfacet
facet normal -0.8005021082247294 0.15579856965224212 0.5787254793268388
  outer loop
    vertex 1.833010999999955 3.6048049999999114 0.8083369999999802
    vertex 1.9303759999999526 3.6172689999999106 0.9396582999999769
    vertex 1.8431379999999546 3.618748999999912 0.81859149999998
  endloop
endfacet
facet normal -0.8005021082247294 0.15579856965224212 0.5787254793268388
  outer loop
    vertex 1.8431379999999546 3.618748999999912 0.81859149999998
    vertex 1.9303759999999526 3.6172689999999106 0.9396582999999769
    vertex 1.9202019999999527 3.630557999999911 0.9220085999999775
  endloop
endfacet
facet normal -0.8005021082247294 0.15579856965224212 0.5787254793268388
  outer loop
    vertex 1.8431379999999546 3.618748999999912 0.81859149999998
    vertex 1.9202019999999527 3.630557999999911 0.9220085999999775
    vertex 1.8543929999999544 3.6297589999999107 0.8311948999999798
  endloop
endfacet
facet normal -0.8005021082247294 0.15579856965224212 0.5787254793268388
  outer loop
    vertex 1.8543929999999544 3.6297589999999107 0.8311948999999798
    vertex 1.9202019999999527 3.630557999999911 0.9220085999999775
    vertex 1.8661289999999542 3.6375469999999104 0.8453320999999792
  endloop
endfacet
facet normal -0.8005021082247294 0.15579856965224212 0.5787254793268388
  outer loop
    vertex 1.8661289999999542 3.6375469999999104 0.8453320999999792
    vertex 1.9202019999999527 3.630557999999911 0.9220085999999775
    vertex 1.907841999999953 3.6393859999999107 0.9025346999999778
  endloop
endfacet
facet normal -0.8005021082247294 0.15579856965224212 0.5787254793268388
  outer loop
    vertex 1.8661289999999542 3.6375469999999104 0.8453320999999792
    vertex 1.907841999999953 3.6393859999999107 0.9025346999999778
    vertex 1.8898309999999536 3.6436199999999106 0.8764814999999784
  endloop
endfacet
facet normal -0.8005021082247294 0.15579856965224212 0.5787254793268388
  outer loop
    vertex 1.9423459999999522 3.5650619999999122 0.9702705999999761
    vertex 1.8139229999999553 3.550321999999912 0.7966016999999803
    vertex 1.9411899999999525 3.549241999999912 0.9729302999999763
  endloop
endfacet
facet normal -0.8005021082247294 0.15579856965224212 0.5787254793268388
  outer loop
    vertex 1.8139229999999553 3.550321999999912 0.7966016999999803
    vertex 1.9423459999999522 3.5650619999999122 0.9702705999999761
    vertex 1.8180429999999554 3.569764999999912 0.7970652999999804
  endloop
endfacet
facet normal -0.8005021082247294 0.15579856965224212 0.5787254793268388
  outer loop
    vertex 1.8180429999999554 3.569764999999912 0.7970652999999804
    vertex 1.9423459999999522 3.5650619999999122 0.9702705999999761
    vertex 1.9416849999999526 3.580153999999912 0.9652925999999763
  endloop
endfacet
facet normal -0.8005021082247294 0.15579856965224212 0.5787254793268388
  outer loop
    vertex 1.8180429999999554 3.569764999999912 0.7970652999999804
    vertex 1.9416849999999526 3.580153999999912 0.9652925999999763
    vertex 1.8244759999999551 3.588195999999912 0.8010031999999804
  endloop
endfacet
facet normal -0.8005021082247294 0.15579856965224212 0.5787254793268388
  outer loop
    vertex 1.8244759999999551 3.588195999999912 0.8010031999999804
    vertex 1.9416849999999526 3.580153999999912 0.9652925999999763
    vertex 1.941702999999952 3.580162999999912 0.9653146999999763
  endloop
endfacet
facet normal -0.8005021082247294 0.15579856965224212 0.5787254793268388
  outer loop
    vertex 1.8244759999999551 3.588195999999912 0.8010031999999804
    vertex 1.941702999999952 3.580162999999912 0.9653146999999763
    vertex 1.9377539999999522 3.5999849999999123 0.9545168999999766
  endloop
endfacet
facet normal -0.8005021082247294 0.15579856965224212 0.5787254793268388
  outer loop
    vertex 1.8244759999999551 3.588195999999912 0.8010031999999804
    vertex 1.9377539999999522 3.5999849999999123 0.9545168999999766
    vertex 1.833010999999955 3.6048049999999114 0.8083369999999802
  endloop
endfacet
facet normal -0.8005021082247294 0.15579856965224212 0.5787254793268388
  outer loop
    vertex 1.833010999999955 3.6048049999999114 0.8083369999999802
    vertex 1.9377539999999522 3.5999849999999123 0.9545168999999766
    vertex 1.9303759999999526 3.6172689999999106 0.9396582999999769
  endloop
endfacet
facet normal -0.8005021082247294 0.15579856965224212 0.5787254793268388
  outer loop
    vertex 1.833010999999955 3.6048049999999114 0.8083369999999802
    vertex 1.9303759999999526 3.6172689999999106 0.9396582999999769
    vertex 1.8431379999999546 3.618748999999912 0.81859149999998
  endloop
endfacet
facet normal -0.8005021082247294 0.15579856965224212 0.5787254793268388
  outer loop
    vertex 1.8431379999999546 3.618748999999912 0.81859149999998
    vertex 1.9303759999999526 3.6172689999999106 0.9396582999999769
    vertex 1.9202019999999527 3.630557999999911 0.9220085999999775
  endloop
endfacet
facet normal -0.8005021082247294 0.15579856965224212 0.5787254793268388
  outer loop
    vertex 1.8431379999999546 3.618748999999912 0.81859149999998
    vertex 1.9202019999999527 3.630557999999911 0.9220085999999775
    vertex 1.8543929999999544 3.6297589999999107 0.8311948999999798
  endloop
endfacet
facet normal -0.8005021082247294 0.15579856965224212 0.5787254793268388
  outer loop
    vertex 1.8543929999999544 3.6297589999999107 0.8311948999999798
    vertex 1.9202019999999527 3.630557999999911 0.9220085999999775
    vertex 1.8661289999999542 3.6375469999999104 0.8453320999999792
  endloop
endfacet
facet normal -0.8005021082247294 0.15579856965224212 0.5787254793268388
  outer loop
    vertex 1.8661289999999542 3.6375469999999104 0.8453320999999792
    vertex 1.9202019999999527 3.630557999999911 0.9220085999999775
    vertex 1.907841999999953 3.6393859999999107 0.9025346999999778
  endloop
endfacet
facet normal -0.8005021082247294 0.15579856965224212 0.5787254793268388
  outer loop
    vertex 1.8661289999999542 3.6375469999999104 0.8453320999999792
    vertex 1.907841999999953 3.6393859999999107 0.9025346999999778
    vertex 1.8898309999999536 3.6436199999999106 0.8764814999999784
  endloop
endfacet
facet normal -0.9225882523659055 -0.38428373461386334 0.03401364296346974
  outer loop
    vertex 1.9631009999999516 3.559287499999913 0.6015015999999852
    vertex 1.954653999999952 3.5795589999999122 0.6014105999999853
    vertex 1.9614669999999517 3.5574659999999128 0.5366016999999867
  endloop
endfacet
facet normal -0.9225882523659055 -0.38428373461386334 0.03401364296346974
  outer loop
    vertex 1.954653999999952 3.5795589999999122 0.6014105999999853
    vertex 1.9631009999999516 3.559287499999913 0.6015015999999852
    vertex 1.9647349999999517 3.561108999999912 0.6664014999999835
  endloop
endfacet
facet normal 0.06537535708063044 0.9974204433072608 -0.02963987110848443
  outer loop
    vertex 1.9607269999999517 3.5594419999999127 0.6014644999999851
    vertex 1.9631009999999516 3.559287499999913 0.6015015999999852
    vertex 1.9614669999999517 3.5574659999999128 0.5366016999999867
  endloop
endfacet
facet normal 0.06537535708063044 0.9974204433072608 -0.02963987110848443
  outer loop
    vertex 1.9631009999999516 3.559287499999913 0.6015015999999852
    vertex 1.9607269999999517 3.5594419999999127 0.6014644999999851
    vertex 1.9647349999999517 3.561108999999912 0.6664014999999835
  endloop
endfacet
facet normal 0.1972980622746737 -0.9800843976566638 0.022539922196712886
  outer loop
    vertex 1.9647349999999517 3.561108999999912 0.6664014999999835
    vertex 1.960777637211768 3.557327226295691 0.5366016999999867
    vertex 1.9614669999999517 3.5574659999999128 0.5366016999999867
  endloop
endfacet
facet normal 0.1972980622746737 -0.9800843976566638 0.022539922196712886
  outer loop
    vertex 1.960777637211768 3.557327226295691 0.5366016999999867
    vertex 1.9647349999999517 3.561108999999912 0.6664014999999835
    vertex 1.8653849999999543 3.5381239999999132 0.5366016999999867
  endloop
endfacet
facet normal 0.08095539162608403 -0.9966534234110295 0.011321579825383966
  outer loop
    vertex 1.9541489999999515 3.5497999999999124 0.9297447999999773
    vertex 1.8653849999999543 3.5381239999999132 0.5366016999999867
    vertex 1.9666089999999516 3.5503209999999132 0.8865133999999782
  endloop
endfacet
facet normal 0.08077860751475742 -0.9966673084067729 0.011361906581895863
  outer loop
    vertex 1.9411899999999525 3.549241999999912 0.9729302999999763
    vertex 1.8653849999999543 3.5381239999999132 0.5366016999999867
    vertex 1.9541489999999515 3.5497999999999124 0.9297447999999773
  endloop
endfacet
facet normal 0.3485521281491946 -0.9317456527006027 -0.10179122082083138
  outer loop
    vertex 1.9739229999999515 3.550321999999912 0.7966016999999803
    vertex 1.8653849999999543 3.5381239999999132 0.5366016999999867
    vertex 1.9647349999999517 3.561108999999912 0.6664014999999835
  endloop
endfacet
facet normal 0.0936624376599369 -0.995574942207983 0.007608036485837791
  outer loop
    vertex 1.9666089999999516 3.5503209999999132 0.8865133999999782
    vertex 1.8653849999999543 3.5381239999999132 0.5366016999999867
    vertex 1.9739229999999515 3.550321999999912 0.7966016999999803
  endloop
endfacet
facet normal -0.022395251456723855 -0.9996987709250088 0.01004092242860172
  outer loop
    vertex 1.9411899999999525 3.549241999999912 0.9729302999999763
    vertex 1.8139229999999553 3.550321999999912 0.7966016999999803
    vertex 1.8236839999999552 3.549448999999912 0.731454599999982
  endloop
endfacet
facet normal 0.018580840962508147 -0.9997783587062458 -0.009898778296916374
  outer loop
    vertex 1.9411899999999525 3.549241999999912 0.9729302999999763
    vertex 1.8236839999999552 3.549448999999912 0.731454599999982
    vertex 1.834106999999955 3.550292999999913 0.6657752999999836
  endloop
endfacet
facet normal -0.1628126932991094 -0.9852114147103129 0.053390029267591836
  outer loop
    vertex 1.9411899999999525 3.549241999999912 0.9729302999999763
    vertex 1.834106999999955 3.550292999999913 0.6657752999999836
    vertex 1.8653849999999543 3.5381239999999132 0.5366016999999867
  endloop
endfacet
facet normal -0.0 -0.0 1.0
  outer loop
    vertex 1.9316511349201255 3.5456572804251993 0.09160160999999775
    vertex 1.9317849999999526 3.5543619999999123 0.09160160999999775
    vertex 1.9316097149829385 3.5543096094468236 0.09160160999999775
  endloop
endfacet
facet normal -0.0 -0.0 1.0
  outer loop
    vertex 1.9317849999999526 3.5543619999999123 0.09160160999999775
    vertex 1.9316511349201255 3.5456572804251993 0.09160160999999775
    vertex 1.9318179999999525 3.5469149999999128 0.09160160999999775
  endloop
endfacet
facet normal 0.0 0.0 -1.0
  outer loop
    vertex 1.864911999999954 3.560352999999913 0.5366016999999867
    vertex 1.8653849999999543 3.5381239999999132 0.5366016999999867
    vertex 1.863922999999954 3.550321999999912 0.5366016999999867
  endloop
endfacet
facet normal 0.0 0.0 -1.0
  outer loop
    vertex 1.8653849999999543 3.5381239999999132 0.5366016999999867
    vertex 1.864911999999954 3.560352999999913 0.5366016999999867
    vertex 1.8677509999999538 3.569716999999912 0.5366016999999867
  endloop
endfacet
facet normal 0.0 0.0 -1.0
  outer loop
    vertex 1.8653849999999543 3.5381239999999132 0.5366016999999867
    vertex 1.8677509999999538 3.569716999999912 0.5366016999999867
    vertex 1.960777637211768 3.557327226295691 0.5366016999999867
  endloop
endfacet
facet normal 0.0 0.0 -1.0
  outer loop
    vertex 1.960777637211768 3.557327226295691 0.5366016999999867
    vertex 1.8677509999999538 3.569716999999912 0.5366016999999867
    vertex 1.8722479999999537 3.578206999999912 0.5366016999999867
  endloop
endfacet
facet normal 0.0 0.0 -1.0
  outer loop
    vertex 1.960777637211768 3.557327226295691 0.5366016999999867
    vertex 1.8722479999999537 3.578206999999912 0.5366016999999867
    vertex 1.8782129999999537 3.5856169999999117 0.5366016999999867
  endloop
endfacet
facet normal 0.0 0.0 -1.0
  outer loop
    vertex 1.960777637211768 3.557327226295691 0.5366016999999867
    vertex 1.8782129999999537 3.5856169999999117 0.5366016999999867
    vertex 1.885454999999954 3.5917399999999122 0.5366016999999867
  endloop
endfacet
facet normal 0.0 0.0 -1.0
  outer loop
    vertex 1.960777637211768 3.557327226295691 0.5366016999999867
    vertex 1.885454999999954 3.5917399999999122 0.5366016999999867
    vertex 1.8937809999999535 3.596369999999912 0.5366016999999867
  endloop
endfacet
facet normal 0.0 0.0 -1.0
  outer loop
    vertex 1.960777637211768 3.557327226295691 0.5366016999999867
    vertex 1.8937809999999535 3.596369999999912 0.5366016999999867
    vertex 1.903000999999953 3.599298999999912 0.5366016999999867
  endloop
endfacet
facet normal 0.0 0.0 -1.0
  outer loop
    vertex 1.960777637211768 3.557327226295691 0.5366016999999867
    vertex 1.903000999999953 3.599298999999912 0.5366016999999867
    vertex 1.912922999999953 3.6003219999999114 0.5366016999999867
  endloop
endfacet
facet normal 0.0 0.0 -1.0
  outer loop
    vertex 1.960777637211768 3.557327226295691 0.5366016999999867
    vertex 1.912922999999953 3.6003219999999114 0.5366016999999867
    vertex 1.9218919999999524 3.599465999999912 0.5366016999999867
  endloop
endfacet
facet normal 0.0 0.0 -1.0
  outer loop
    vertex 1.960777637211768 3.557327226295691 0.5366016999999867
    vertex 1.9218919999999524 3.599465999999912 0.5366016999999867
    vertex 1.9303859999999524 3.5969979999999118 0.5366016999999867
  endloop
endfacet
facet normal 0.0 0.0 -1.0
  outer loop
    vertex 1.960777637211768 3.557327226295691 0.5366016999999867
    vertex 1.9303859999999524 3.5969979999999118 0.5366016999999867
    vertex 1.9382299999999524 3.593065999999912 0.5366016999999867
  endloop
endfacet
facet normal 0.0 0.0 -1.0
  outer loop
    vertex 1.960777637211768 3.557327226295691 0.5366016999999867
    vertex 1.9382299999999524 3.593065999999912 0.5366016999999867
    vertex 1.9452459999999523 3.5878169999999114 0.5366016999999867
  endloop
endfacet
facet normal 0.0 0.0 -1.0
  outer loop
    vertex 1.960777637211768 3.557327226295691 0.5366016999999867
    vertex 1.9452459999999523 3.5878169999999114 0.5366016999999867
    vertex 1.9512589999999521 3.5813989999999123 0.5366016999999867
  endloop
endfacet
facet normal 0.0 0.0 -1.0
  outer loop
    vertex 1.960777637211768 3.557327226295691 0.5366016999999867
    vertex 1.9512589999999521 3.5813989999999123 0.5366016999999867
    vertex 1.956089999999952 3.5739599999999125 0.5366016999999867
  endloop
endfacet
facet normal 0.0 0.0 -1.0
  outer loop
    vertex 1.960777637211768 3.557327226295691 0.5366016999999867
    vertex 1.956089999999952 3.5739599999999125 0.5366016999999867
    vertex 1.9614669999999517 3.5574659999999128 0.5366016999999867
  endloop
endfacet
endsolid 2015new_separate_human-HUTA
