solid Object01
facet normal -0.4673922923306122 0.875498403781596 0.12266617319299261
  outer loop
    vertex 1.9326549999999523 3.4671809999999152 0.7966016999999803
    vertex 1.9222909999999527 3.4798829999999152 0.6664546999999835
    vertex 1.9207229999999527 3.4608109999999153 0.7966016999999803
  endloop
endfacet
facet normal -0.4009856017785085 0.905078612382489 0.1415741945910907
  outer loop
    vertex 1.9222909999999527 3.4798829999999152 0.6664546999999835
    vertex 1.9363509999999524 3.5064239999999134 0.5366016999999867
    vertex 1.9282049999999527 3.5028149999999143 0.5366016999999867
  endloop
endfacet
facet normal -0.9973968089096396 0.010866443445043917 0.0712848229549844
  outer loop
    vertex 1.9647349999999517 3.561108999999912 0.6664014999999835
    vertex 1.9644679999999517 3.5364319999999134 0.6664273999999836
    vertex 1.9739229999999515 3.550321999999912 0.7966016999999803
  endloop
endfacet
facet normal -0.7635077235381166 0.6408454930141215 0.07983113541176037
  outer loop
    vertex 1.949926999999952 3.5175979999999134 0.5366016999999867
    vertex 1.9453729999999523 3.495996999999914 0.6664493999999836
    vertex 1.9492859999999521 3.5006589999999136 0.6664491999999835
  endloop
endfacet
facet normal -0.9937565570688153 0.0925531905783401 0.06230419084222174
  outer loop
    vertex 1.9739229999999515 3.550321999999912 0.7966016999999803
    vertex 1.9644679999999517 3.5364319999999134 0.6664273999999836
    vertex 1.9719789999999517 3.529448999999913 0.7966016999999803
  endloop
endfacet
facet normal -0.5617071282123943 0.8206796515740459 0.10473782319528875
  outer loop
    vertex 1.9335949999999524 3.496244999999914 0.6015794999999854
    vertex 1.9436459999999522 3.5114169999999136 0.5366016999999867
    vertex 1.9363509999999524 3.5064239999999134 0.5366016999999867
  endloop
endfacet
facet normal -0.9577442201056555 0.27891695892349 0.07022349235891094
  outer loop
    vertex 1.9644679999999517 3.5364319999999134 0.6664273999999836
    vertex 1.9661559999999518 3.5094539999999137 0.7966016999999803
    vertex 1.9719789999999517 3.529448999999913 0.7966016999999803
  endloop
endfacet
facet normal -0.9562754235844848 0.28920834897156245 0.04354130376386452
  outer loop
    vertex 1.9644679999999517 3.5364319999999134 0.6664273999999836
    vertex 1.9550309999999518 3.5247739999999137 0.5366016999999867
    vertex 1.9580859999999516 3.515326999999914 0.6664455999999835
  endloop
endfacet
facet normal -0.49692301442919706 0.8589753645633724 0.1234051895335909
  outer loop
    vertex 1.9326549999999523 3.4671809999999152 0.7966016999999803
    vertex 1.9374719999999526 3.488665999999914 0.6664498999999837
    vertex 1.9222909999999527 3.4798829999999152 0.6664546999999835
  endloop
endfacet
facet normal -0.8650613155675544 0.49613810745787423 0.07426909610767572
  outer loop
    vertex 1.9661559999999518 3.5094539999999137 0.7966016999999803
    vertex 1.9528109999999517 3.505668999999914 0.6664484999999836
    vertex 1.952427999999952 3.4855179999999146 0.7966016999999803
  endloop
endfacet
facet normal -0.9546767480747748 0.2887496535140915 0.0722214945903585
  outer loop
    vertex 1.9644679999999517 3.5364319999999134 0.6664273999999836
    vertex 1.9580859999999516 3.515326999999914 0.6664455999999835
    vertex 1.9661559999999518 3.5094539999999137 0.7966016999999803
  endloop
endfacet
facet normal -0.8147877756008662 0.5732908907296711 0.08636223328384338
  outer loop
    vertex 1.9528109999999517 3.505668999999914 0.6664484999999836
    vertex 1.9492859999999521 3.5006589999999136 0.6664491999999835
    vertex 1.952427999999952 3.4855179999999146 0.7966016999999803
  endloop
endfacet
facet normal -0.8762712690340689 0.4786179042660032 0.05543974009175574
  outer loop
    vertex 1.9550309999999518 3.5247739999999137 0.5366016999999867
    vertex 1.9528109999999517 3.505668999999914 0.6664484999999836
    vertex 1.9580859999999516 3.515326999999914 0.6664455999999835
  endloop
endfacet
facet normal -0.4965031709057493 0.8582532594750446 0.12994592675801026
  outer loop
    vertex 1.9222909999999527 3.4798829999999152 0.6664546999999835
    vertex 1.9374719999999526 3.488665999999914 0.6664498999999837
    vertex 1.9335949999999524 3.496244999999914 0.6015794999999854
  endloop
endfacet
facet normal -0.812831883484946 0.5781346060907028 0.07116675087892903
  outer loop
    vertex 1.9550309999999518 3.5247739999999137 0.5366016999999867
    vertex 1.949926999999952 3.5175979999999134 0.5366016999999867
    vertex 1.9528109999999517 3.505668999999914 0.6664484999999836
  endloop
endfacet
facet normal -0.7626412520435408 0.6401187890980325 0.0928776427625562
  outer loop
    vertex 1.9492859999999521 3.5006589999999136 0.6664491999999835
    vertex 1.9453729999999523 3.495996999999914 0.6664493999999836
    vertex 1.952427999999952 3.4855179999999146 0.7966016999999803
  endloop
endfacet
facet normal -0.8157890567575756 0.5739932178531358 0.07085196350975502
  outer loop
    vertex 1.949926999999952 3.5175979999999134 0.5366016999999867
    vertex 1.9492859999999521 3.5006589999999136 0.6664491999999835
    vertex 1.9528109999999517 3.505668999999914 0.6664484999999836
  endloop
endfacet
facet normal -0.6770610327182651 0.7297104004256816 0.09545202713964776
  outer loop
    vertex 1.952427999999952 3.4855179999999146 0.7966016999999803
    vertex 1.9453729999999523 3.495996999999914 0.6664493999999836
    vertex 1.9374719999999526 3.488665999999914 0.6664498999999837
  endloop
endfacet
facet normal -0.9999142269355449 0.010019952648938095 -0.008434412890361226
  outer loop
    vertex 1.9607269999999517 3.5594419999999127 0.6014644999999851
    vertex 1.9610879999999515 3.540867999999913 0.5366016999999867
    vertex 1.9605209999999518 3.5389229999999134 0.6015098999999853
  endloop
endfacet
facet normal -0.9936865943598199 0.09217867681367002 0.06395344971511753
  outer loop
    vertex 1.9605209999999518 3.5389229999999134 0.6015098999999853
    vertex 1.9550309999999518 3.5247739999999137 0.5366016999999867
    vertex 1.9644679999999517 3.5364319999999134 0.6664273999999836
  endloop
endfacet
facet normal -0.9996662123830424 0.02282645466280462 -0.012100280462407676
  outer loop
    vertex 1.9607269999999517 3.5594419999999127 0.6014644999999851
    vertex 1.9611832073881181 3.545037530946583 0.5366016999999867
    vertex 1.9610879999999515 3.540867999999913 0.5366016999999867
  endloop
endfacet
facet normal -0.9996662123830424 0.02282645466280462 -0.012100280462407676
  outer loop
    vertex 1.9611832073881181 3.545037530946583 0.5366016999999867
    vertex 1.9607269999999517 3.5594419999999127 0.6014644999999851
    vertex 1.961371782564763 3.553296029051996 0.5366016999999867
  endloop
endfacet
facet normal -0.9996662123830424 0.02282645466280462 -0.012100280462407676
  outer loop
    vertex 1.961371782564763 3.553296029051996 0.5366016999999867
    vertex 1.9607269999999517 3.5594419999999127 0.6014644999999851
    vertex 1.9614669999999517 3.5574659999999128 0.5366016999999867
  endloop
endfacet
facet normal -0.9359100390408838 0.35223108652109764 0.002379182771165339
  outer loop
    vertex 1.9605209999999518 3.5389229999999134 0.6015098999999853
    vertex 1.9596062260042963 3.5369307916977712 0.5366016999999867
    vertex 1.9550309999999518 3.5247739999999137 0.5366016999999867
  endloop
endfacet
facet normal -0.9359100390408838 0.35223108652109764 0.002379182771165339
  outer loop
    vertex 1.9596062260042963 3.5369307916977712 0.5366016999999867
    vertex 1.9605209999999518 3.5389229999999134 0.6015098999999853
    vertex 1.9610879999999515 3.540867999999913 0.5366016999999867
  endloop
endfacet
facet normal -0.8750918462125631 0.4779798491474981 0.07582561902960476
  outer loop
    vertex 1.9580859999999516 3.515326999999914 0.6664455999999835
    vertex 1.9528109999999517 3.505668999999914 0.6664484999999836
    vertex 1.9661559999999518 3.5094539999999137 0.7966016999999803
  endloop
endfacet
facet normal -0.5838556407442604 0.805497705770579 0.10142010042118281
  outer loop
    vertex 1.9222909999999527 3.4798829999999152 0.6664546999999835
    vertex 1.9335949999999524 3.496244999999914 0.6015794999999854
    vertex 1.9363509999999524 3.5064239999999134 0.5366016999999867
  endloop
endfacet
facet normal -0.4738133891221393 0.8709657513126857 0.13007510264812985
  outer loop
    vertex 1.9374719999999526 3.488665999999914 0.6664498999999837
    vertex 1.9436459999999522 3.5114169999999136 0.5366016999999867
    vertex 1.9335949999999524 3.496244999999914 0.6015794999999854
  endloop
endfacet
facet normal -0.6770474770131097 0.7296958048897858 0.09565953270025054
  outer loop
    vertex 1.9374719999999526 3.488665999999914 0.6664498999999837
    vertex 1.9453729999999523 3.495996999999914 0.6664493999999836
    vertex 1.9436459999999522 3.5114169999999136 0.5366016999999867
  endloop
endfacet
facet normal -0.6768765055485828 0.7298837947435425 0.09543501667158551
  outer loop
    vertex 1.952427999999952 3.4855179999999146 0.7966016999999803
    vertex 1.9374719999999526 3.488665999999914 0.6664498999999837
    vertex 1.9326549999999523 3.4671809999999152 0.7966016999999803
  endloop
endfacet
facet normal -0.9980588762340076 0.010863151009400421 0.06132268357351219
  outer loop
    vertex 1.9647349999999517 3.561108999999912 0.6664014999999835
    vertex 1.9607269999999517 3.5594419999999127 0.6014644999999851
    vertex 1.9644679999999517 3.5364319999999134 0.6664273999999836
  endloop
endfacet
facet normal -0.9980816211788617 0.010155345835772685 0.06107328725335907
  outer loop
    vertex 1.9607269999999517 3.5594419999999127 0.6014644999999851
    vertex 1.9605209999999518 3.5389229999999134 0.6015098999999853
    vertex 1.9644679999999517 3.5364319999999134 0.6664273999999836
  endloop
endfacet
facet normal -0.6983334662487141 0.709631532358544 0.09355991769727502
  outer loop
    vertex 1.9453729999999523 3.495996999999914 0.6664493999999836
    vertex 1.949926999999952 3.5175979999999134 0.5366016999999867
    vertex 1.9436459999999522 3.5114169999999136 0.5366016999999867
  endloop
endfacet
facet normal 0.8024304816946378 0.559167727861587 0.20841490869278442
  outer loop
    vertex 1.829589999999955 3.507617999999914 0.7421501999999817
    vertex 1.8195109999999555 3.493141999999915 0.8197943999999798
    vertex 1.8389399999999547 3.4903279999999146 0.7525394999999815
  endloop
endfacet
facet normal 0.04918232691897265 0.9830509046610261 0.1766126200586286
  outer loop
    vertex 1.9116849999999532 3.4896089999999145 0.5980743999999854
    vertex 1.9163429999999528 3.5004199999999135 0.5366016999999867
    vertex 1.9047899999999531 3.5009979999999143 0.5366016999999867
  endloop
endfacet
facet normal -0.009603615451769217 0.9999382808305504 -0.00558615251296779
  outer loop
    vertex 1.8962069999999533 3.4574309999999153 0.8098391999999801
    vertex 1.903114999999953 3.4574679999999147 0.8045861999999803
    vertex 1.9031049999999532 3.4573719999999146 0.7874190999999807
  endloop
endfacet
facet normal -0.2028268254575257 0.9781493080485942 -0.04566410011025082
  outer loop
    vertex 1.9027089999999531 3.459085999999915 0.8396642999999795
    vertex 1.9207229999999527 3.4608109999999153 0.7966016999999803
    vertex 1.902884999999953 3.458298999999915 0.8220245999999799
  endloop
endfacet
facet normal 0.07754630776474176 0.9958844080332755 0.046912855255978665
  outer loop
    vertex 1.8651229999999541 3.4559419999999146 0.8928296999999781
    vertex 1.8962069999999533 3.4574309999999153 0.8098391999999801
    vertex 1.8801319999999537 3.4594159999999152 0.7942725999999805
  endloop
endfacet
facet normal 0.28468556214802493 0.9512401189118407 0.11872812167742768
  outer loop
    vertex 1.8472739999999546 3.4601719999999148 0.8670022999999786
    vertex 1.8801319999999537 3.4594159999999152 0.7942725999999805
    vertex 1.864693999999954 3.465929999999915 0.7791000999999809
  endloop
endfacet
facet normal -0.15000705464855013 0.9879365613015226 -0.038460816416059626
  outer loop
    vertex 1.8651229999999541 3.4559419999999146 0.8928296999999781
    vertex 1.8843559999999537 3.459856999999915 0.9183796999999775
    vertex 1.8962069999999533 3.4574309999999153 0.8098391999999801
  endloop
endfacet
facet normal -0.15000705464855013 0.9879365613015226 -0.038460816416059626
  outer loop
    vertex 1.8843559999999537 3.459856999999915 0.9183796999999775
    vertex 1.8651229999999541 3.4559419999999146 0.8928296999999781
    vertex 1.8682485091687917 3.4565783359087647 0.8969823807927636
  endloop
endfacet
facet normal -0.15000705464855013 0.9879365613015226 -0.038460816416059626
  outer loop
    vertex 1.8843559999999537 3.459856999999915 0.9183796999999775
    vertex 1.8682485091687917 3.4565783359087647 0.8969823807927636
    vertex 1.8739716785281757 3.457743571312478 0.9045865776892804
  endloop
endfacet
facet normal 0.970461742603278 -0.0006864766451594379 0.24125408782697313
  outer loop
    vertex 1.8236839999999552 3.549448999999912 0.731454599999982
    vertex 1.8242619999999554 3.5467239999999127 0.7291217999999821
    vertex 1.8290139999999553 3.529031999999913 0.7099561999999826
  endloop
endfacet
facet normal 0.7458275085846671 0.6388447067448025 0.1887293514600623
  outer loop
    vertex 1.8195109999999555 3.493141999999915 0.8197943999999798
    vertex 1.831413999999955 3.4727989999999154 0.8416162999999793
    vertex 1.8389399999999547 3.4903279999999146 0.7525394999999815
  endloop
endfacet
facet normal 0.9618990900565345 0.16595054492415656 0.21727990516333248
  outer loop
    vertex 1.834106999999955 3.550292999999913 0.6657752999999836
    vertex 1.8509729999999545 3.535027999999913 0.6027682999999853
    vertex 1.8653849999999543 3.5381239999999132 0.5366016999999867
  endloop
endfacet
facet normal -0.22675884491373063 0.9713385226271524 0.07128745130730887
  outer loop
    vertex 1.9207229999999527 3.4608109999999153 0.7966016999999803
    vertex 1.904519999999953 3.458107999999915 0.7818915999999808
    vertex 1.9031049999999532 3.4573719999999146 0.7874190999999807
  endloop
endfacet
facet normal 0.960045941921065 0.21346640723188445 0.18095270759070384
  outer loop
    vertex 1.8247309999999555 3.5277119999999136 0.734857899999982
    vertex 1.8134609999999554 3.519666999999914 0.8041414999999802
    vertex 1.826440999999955 3.5173089999999134 0.7380576999999818
  endloop
endfacet
facet normal -0.1264066854435511 0.9861713393778092 0.1071794722181125
  outer loop
    vertex 1.9046959999999533 3.458703999999915 0.7761116999999809
    vertex 1.9089919999999532 3.459658999999915 0.772391299999981
    vertex 1.9050909999999535 3.4600059999999146 0.7645976999999813
  endloop
endfacet
facet normal -0.3296374646064843 0.9368475532174081 0.11685805046450515
  outer loop
    vertex 1.916820999999953 3.4600329999999153 0.7883973999999807
    vertex 1.9215659999999528 3.4688169999999148 0.7313611999999821
    vertex 1.9129049999999532 3.4596619999999145 0.7803252999999807
  endloop
endfacet
facet normal 0.9866368697064373 0.07052010658219447 0.14688295307325042
  outer loop
    vertex 1.8139229999999553 3.550321999999912 0.7966016999999803
    vertex 1.8247309999999555 3.5277119999999136 0.734857899999982
    vertex 1.8236839999999552 3.549448999999912 0.731454599999982
  endloop
endfacet
facet normal -0.23877930774982123 0.9614302684134808 0.13651476538784624
  outer loop
    vertex 1.9050909999999535 3.4600059999999146 0.7645976999999813
    vertex 1.9215659999999528 3.4688169999999148 0.7313611999999821
    vertex 1.9064039999999531 3.4668559999999147 0.7186518999999824
  endloop
endfacet
facet normal 0.9862405670613902 0.025317455633487643 0.16336636839531615
  outer loop
    vertex 1.8139229999999553 3.550321999999912 0.7966016999999803
    vertex 1.8134609999999554 3.519666999999914 0.8041414999999802
    vertex 1.8247309999999555 3.5277119999999136 0.734857899999982
  endloop
endfacet
facet normal 0.9052453321069974 0.37694836577026763 0.1960633016186777
  outer loop
    vertex 1.826440999999955 3.5173089999999134 0.7380576999999818
    vertex 1.815477999999955 3.505652999999914 0.8110846999999801
    vertex 1.829589999999955 3.507617999999914 0.7421501999999817
  endloop
endfacet
facet normal 0.9571583530258463 0.2268955484815786 0.17990635706414926
  outer loop
    vertex 1.8134609999999554 3.519666999999914 0.8041414999999802
    vertex 1.815477999999955 3.505652999999914 0.8110846999999801
    vertex 1.826440999999955 3.5173089999999134 0.7380576999999818
  endloop
endfacet
facet normal 0.6527876582629032 0.7309382908036832 0.1989911763285637
  outer loop
    vertex 1.831413999999955 3.4727989999999154 0.8416162999999793
    vertex 1.8508079999999545 3.4763289999999145 0.7650280999999812
    vertex 1.8389399999999547 3.4903279999999146 0.7525394999999815
  endloop
endfacet
facet normal 0.8864592845473086 0.4204334734570492 0.19345705269313523
  outer loop
    vertex 1.829589999999955 3.507617999999914 0.7421501999999817
    vertex 1.815477999999955 3.505652999999914 0.8110846999999801
    vertex 1.8195109999999555 3.493141999999915 0.8197943999999798
  endloop
endfacet
facet normal 0.48138262368681456 0.8614841018100908 0.16160418293119805
  outer loop
    vertex 1.831413999999955 3.4727989999999154 0.8416162999999793
    vertex 1.864693999999954 3.465929999999915 0.7791000999999809
    vertex 1.8508079999999545 3.4763289999999145 0.7650280999999812
  endloop
endfacet
facet normal 0.15041096884136157 0.9869386532019789 0.057694326134090375
  outer loop
    vertex 1.8801319999999537 3.4594159999999152 0.7942725999999805
    vertex 1.8633119197008488 3.456371232604321 0.8902076453117345
    vertex 1.8651229999999541 3.4559419999999146 0.8928296999999781
  endloop
endfacet
facet normal 0.15041096884136157 0.9869386532019789 0.057694326134090375
  outer loop
    vertex 1.8633119197008488 3.456371232604321 0.8902076453117345
    vertex 1.8801319999999537 3.4594159999999152 0.7942725999999805
    vertex 1.8600006083038532 3.457155983300517 0.885415704231356
  endloop
endfacet
facet normal 0.15041096884136157 0.9869386532019789 0.057694326134090375
  outer loop
    vertex 1.8600006083038532 3.457155983300517 0.885415704231356
    vertex 1.8801319999999537 3.4594159999999152 0.7942725999999805
    vertex 1.8472739999999546 3.4601719999999148 0.8670022999999786
  endloop
endfacet
facet normal -0.2446200257125252 0.9652366791777205 0.09208255095494514
  outer loop
    vertex 1.9207229999999527 3.4608109999999153 0.7966016999999803
    vertex 1.9046959999999533 3.458703999999915 0.7761116999999809
    vertex 1.904519999999953 3.458107999999915 0.7818915999999808
  endloop
endfacet
facet normal -0.19529963495709882 0.9672836199834285 0.16192730189000987
  outer loop
    vertex 1.9222909999999527 3.4798829999999152 0.6664546999999835
    vertex 1.9282049999999527 3.5028149999999143 0.5366016999999867
    vertex 1.9163429999999528 3.5004199999999135 0.5366016999999867
  endloop
endfacet
facet normal 0.45956619581910196 0.8756519594034611 0.1484336809933589
  outer loop
    vertex 1.8472739999999546 3.4601719999999148 0.8670022999999786
    vertex 1.864693999999954 3.465929999999915 0.7791000999999809
    vertex 1.831413999999955 3.4727989999999154 0.8416162999999793
  endloop
endfacet
facet normal 0.9804808043311533 0.07564073031303964 0.18148242960640884
  outer loop
    vertex 1.8236839999999552 3.549448999999912 0.731454599999982
    vertex 1.8247309999999555 3.5277119999999136 0.734857899999982
    vertex 1.8277339999999551 3.5285949999999136 0.7182657999999823
  endloop
endfacet
facet normal -0.15726058003470778 0.98677779910377 -0.039226077589626436
  outer loop
    vertex 1.8843559999999537 3.459856999999915 0.9183796999999775
    vertex 1.9025219999999534 3.4603339999999148 0.8575501999999791
    vertex 1.8962069999999533 3.4574309999999153 0.8098391999999801
  endloop
endfacet
facet normal -0.21373145884062503 0.9653138259289432 0.1499602646446194
  outer loop
    vertex 1.9089919999999532 3.459658999999915 0.772391299999981
    vertex 1.9215659999999528 3.4688169999999148 0.7313611999999821
    vertex 1.9050909999999535 3.4600059999999146 0.7645976999999813
  endloop
endfacet
facet normal -0.026004745986491433 0.996284112290267 -0.08210798246317413
  outer loop
    vertex 1.9207229999999527 3.4608109999999153 0.7966016999999803
    vertex 1.916820999999953 3.4600329999999153 0.7883973999999807
    vertex 1.9046959999999533 3.458703999999915 0.7761116999999809
  endloop
endfacet
facet normal 0.6507424572785259 0.7301625846906453 0.2083191162927259
  outer loop
    vertex 1.862705999999954 3.485538999999915 0.6890327999999831
    vertex 1.8841789999999539 3.5098909999999135 0.5366016999999867
    vertex 1.8509299999999547 3.4984279999999144 0.6806421999999833
  endloop
endfacet
facet normal 0.06225964931242873 0.9956842136975678 -0.06882356181533976
  outer loop
    vertex 1.9025219999999534 3.4603339999999148 0.8575501999999791
    vertex 1.9027089999999531 3.459085999999915 0.8396642999999795
    vertex 1.8962069999999533 3.4574309999999153 0.8098391999999801
  endloop
endfacet
facet normal -0.14227249875157058 0.9766494250049945 0.1609796159033743
  outer loop
    vertex 1.9222909999999527 3.4798829999999152 0.6664546999999835
    vertex 1.9163429999999528 3.5004199999999135 0.5366016999999867
    vertex 1.9116849999999532 3.4896089999999145 0.5980743999999854
  endloop
endfacet
facet normal -0.22413059463680476 0.9593999665218441 0.1712226059421963
  outer loop
    vertex 1.9064039999999531 3.4668559999999147 0.7186518999999824
    vertex 1.9222909999999527 3.4798829999999152 0.6664546999999835
    vertex 1.9116849999999532 3.4896089999999145 0.5980743999999854
  endloop
endfacet
facet normal -0.2570771317065649 0.9531163075993659 0.15962660348975816
  outer loop
    vertex 1.9215659999999528 3.4688169999999148 0.7313611999999821
    vertex 1.9222909999999527 3.4798829999999152 0.6664546999999835
    vertex 1.9064039999999531 3.4668559999999147 0.7186518999999824
  endloop
endfacet
facet normal -0.18887701449781108 0.9819860053211753 -0.005381333269219555
  outer loop
    vertex 1.903114999999953 3.4574679999999147 0.8045861999999803
    vertex 1.9207229999999527 3.4608109999999153 0.7966016999999803
    vertex 1.9031049999999532 3.4573719999999146 0.7874190999999807
  endloop
endfacet
facet normal 0.9794817390090734 0.13182172886122348 0.152441971739411
  outer loop
    vertex 1.8277079999999555 3.531272999999913 0.7161170999999823
    vertex 1.8277339999999551 3.5285949999999136 0.7182657999999823
    vertex 1.8283539999999552 3.5287869999999133 0.7141160999999825
  endloop
endfacet
facet normal 0.91440884377067 0.34284098169000016 0.21521274987282663
  outer loop
    vertex 1.8653849999999543 3.5381239999999132 0.5366016999999867
    vertex 1.8509729999999545 3.535027999999913 0.6027682999999853
    vertex 1.8695099999999538 3.5271219999999133 0.5366016999999867
  endloop
endfacet
facet normal -0.26693900239622975 0.9547282679731732 0.13129167274679035
  outer loop
    vertex 1.9129049999999532 3.4596619999999145 0.7803252999999807
    vertex 1.9215659999999528 3.4688169999999148 0.7313611999999821
    vertex 1.9089919999999532 3.459658999999915 0.772391299999981
  endloop
endfacet
facet normal -0.12302891459269803 0.9923032319252211 0.014077715897960509
  outer loop
    vertex 1.916820999999953 3.4600329999999153 0.7883973999999807
    vertex 1.9129049999999532 3.4596619999999145 0.7803252999999807
    vertex 1.9046959999999533 3.458703999999915 0.7761116999999809
  endloop
endfacet
facet normal 0.2762783329710664 0.940927826564105 0.19576799515773294
  outer loop
    vertex 1.8911169999999533 3.469265999999915 0.7084125999999826
    vertex 1.9047899999999531 3.5009979999999143 0.5366016999999867
    vertex 1.876296999999954 3.4756969999999145 0.6984177999999828
  endloop
endfacet
facet normal 0.9771391357320105 0.12222986196033685 0.17395105709956643
  outer loop
    vertex 1.834106999999955 3.550292999999913 0.6657752999999836
    vertex 1.830319999999955 3.529528999999913 0.7016382999999827
    vertex 1.8359739999999547 3.531537999999913 0.6684662999999835
  endloop
endfacet
facet normal 0.7424974345069326 0.6320988257665069 0.2216949124703284
  outer loop
    vertex 1.8695099999999538 3.5271219999999133 0.5366016999999867
    vertex 1.8509299999999547 3.4984279999999144 0.6806421999999833
    vertex 1.8841789999999539 3.5098909999999135 0.5366016999999867
  endloop
endfacet
facet normal 0.3874479775354482 0.8979748414464586 0.2086270568092703
  outer loop
    vertex 1.876296999999954 3.4756969999999145 0.6984177999999828
    vertex 1.9047899999999531 3.5009979999999143 0.5366016999999867
    vertex 1.8841789999999539 3.5098909999999135 0.5366016999999867
  endloop
endfacet
facet normal 0.7886730952187242 0.5754804538108566 0.21637235535014127
  outer loop
    vertex 1.8695099999999538 3.5271219999999133 0.5366016999999867
    vertex 1.8415749999999544 3.5138929999999133 0.6736090999999833
    vertex 1.8509299999999547 3.4984279999999144 0.6806421999999833
  endloop
endfacet
facet normal 0.9325400514500769 0.2801498387419381 0.22778305532755086
  outer loop
    vertex 1.8509729999999545 3.535027999999913 0.6027682999999853
    vertex 1.8359739999999547 3.531537999999913 0.6684662999999835
    vertex 1.8695099999999538 3.5271219999999133 0.5366016999999867
  endloop
endfacet
facet normal -0.4044934056214691 0.9083489481959627 0.10624157905469049
  outer loop
    vertex 1.9207229999999527 3.4608109999999153 0.7966016999999803
    vertex 1.9215659999999528 3.4688169999999148 0.7313611999999821
    vertex 1.916820999999953 3.4600329999999153 0.7883973999999807
  endloop
endfacet
facet normal -0.1536950335726131 0.9852351579198286 0.07542890860806416
  outer loop
    vertex 1.9129049999999532 3.4596619999999145 0.7803252999999807
    vertex 1.9089919999999532 3.459658999999915 0.772391299999981
    vertex 1.9046959999999533 3.458703999999915 0.7761116999999809
  endloop
endfacet
facet normal 0.9789328978901674 0.12351130352966744 0.16258948099050446
  outer loop
    vertex 1.8277079999999555 3.531272999999913 0.7161170999999823
    vertex 1.8283539999999552 3.5287869999999133 0.7141160999999825
    vertex 1.8290139999999553 3.529031999999913 0.7099561999999826
  endloop
endfacet
facet normal 0.9805499631136522 0.04881937425604436 0.19010112712728397
  outer loop
    vertex 1.8271849999999552 3.533785999999913 0.7181693999999823
    vertex 1.8277079999999555 3.531272999999913 0.7161170999999823
    vertex 1.8290139999999553 3.529031999999913 0.7099561999999826
  endloop
endfacet
facet normal 0.9791991079865353 0.030050738845856954 0.2006640476348262
  outer loop
    vertex 1.8266769999999553 3.5363109999999134 0.7202701999999824
    vertex 1.8271849999999552 3.533785999999913 0.7181693999999823
    vertex 1.8290139999999553 3.529031999999913 0.7099561999999826
  endloop
endfacet
facet normal 0.031658982283320744 0.9824228974585256 0.1839645601467305
  outer loop
    vertex 1.9064039999999531 3.4668559999999147 0.7186518999999824
    vertex 1.9047899999999531 3.5009979999999143 0.5366016999999867
    vertex 1.8911169999999533 3.469265999999915 0.7084125999999826
  endloop
endfacet
facet normal -0.2078286035333605 0.9769223565663745 -0.049294835370196646
  outer loop
    vertex 1.902884999999953 3.458298999999915 0.8220245999999799
    vertex 1.9207229999999527 3.4608109999999153 0.7966016999999803
    vertex 1.903114999999953 3.4574679999999147 0.8045861999999803
  endloop
endfacet
facet normal -0.2593889147273173 0.9632384085163298 -0.06992252337775418
  outer loop
    vertex 1.9025219999999534 3.4603339999999148 0.8575501999999791
    vertex 1.9207229999999527 3.4608109999999153 0.7966016999999803
    vertex 1.9027089999999531 3.459085999999915 0.8396642999999795
  endloop
endfacet
facet normal -0.047598322584206314 0.9978526472340437 -0.04499437848421749
  outer loop
    vertex 1.9027089999999531 3.459085999999915 0.8396642999999795
    vertex 1.902884999999953 3.458298999999915 0.8220245999999799
    vertex 1.8962069999999533 3.4574309999999153 0.8098391999999801
  endloop
endfacet
facet normal 0.4779690279519178 0.854400144899627 0.20382836091720685
  outer loop
    vertex 1.876296999999954 3.4756969999999145 0.6984177999999828
    vertex 1.8841789999999539 3.5098909999999135 0.5366016999999867
    vertex 1.862705999999954 3.485538999999915 0.6890327999999831
  endloop
endfacet
facet normal 0.9096151150018307 0.35271831347078114 0.219522513429794
  outer loop
    vertex 1.8359739999999547 3.531537999999913 0.6684662999999835
    vertex 1.8415749999999544 3.5138929999999133 0.6736090999999833
    vertex 1.8695099999999538 3.5271219999999133 0.5366016999999867
  endloop
endfacet
facet normal 0.9653030850390381 0.12869435886292574 0.2272173321095384
  outer loop
    vertex 1.834106999999955 3.550292999999913 0.6657752999999836
    vertex 1.8359739999999547 3.531537999999913 0.6684662999999835
    vertex 1.8509729999999545 3.535027999999913 0.6027682999999853
  endloop
endfacet
facet normal -0.021616165678863868 0.982600376243453 0.18447016557581522
  outer loop
    vertex 1.9064039999999531 3.4668559999999147 0.7186518999999824
    vertex 1.9116849999999532 3.4896089999999145 0.5980743999999854
    vertex 1.9047899999999531 3.5009979999999143 0.5366016999999867
  endloop
endfacet
facet normal -0.04192861717979464 0.9979616643501192 -0.0481093291257569
  outer loop
    vertex 1.902884999999953 3.458298999999915 0.8220245999999799
    vertex 1.903114999999953 3.4574679999999147 0.8045861999999803
    vertex 1.8962069999999533 3.4574309999999153 0.8098391999999801
  endloop
endfacet
facet normal 0.9833645368162063 0.13896694339522775 0.11697169048806497
  outer loop
    vertex 1.8248829999999554 3.5440529999999133 0.7268393999999821
    vertex 1.825518999999955 3.5414329999999135 0.7246052999999821
    vertex 1.8290139999999553 3.529031999999913 0.7099561999999826
  endloop
endfacet
facet normal 0.2736607113796841 0.9466300940195779 0.1702976222489625
  outer loop
    vertex 1.8889079999999538 3.4624759999999153 0.7516437999999814
    vertex 1.876296999999954 3.4756969999999145 0.6984177999999828
    vertex 1.873153999999954 3.4692989999999146 0.7390328999999818
  endloop
endfacet
facet normal 0.9812251451031483 0.08342830873938857 0.17388769915721713
  outer loop
    vertex 1.825518999999955 3.5414329999999135 0.7246052999999821
    vertex 1.8277339999999551 3.5285949999999136 0.7182657999999823
    vertex 1.826125999999955 3.5388569999999135 0.7224159999999822
  endloop
endfacet
facet normal 0.9881068346756908 0.10656086249568691 0.11085876533392548
  outer loop
    vertex 1.8266769999999553 3.5363109999999134 0.7202701999999824
    vertex 1.8277339999999551 3.5285949999999136 0.7182657999999823
    vertex 1.8271849999999552 3.533785999999913 0.7181693999999823
  endloop
endfacet
facet normal 0.07793278067989634 0.9958730274499509 0.0465123090500629
  outer loop
    vertex 1.8962069999999533 3.4574309999999153 0.8098391999999801
    vertex 1.8865649999999536 3.4599009999999146 0.773109599999981
    vertex 1.8801319999999537 3.4594159999999152 0.7942725999999805
  endloop
endfacet
facet normal 0.042674296299133135 0.9911319930977428 0.12584226910489957
  outer loop
    vertex 1.9031049999999532 3.4573719999999146 0.7874190999999807
    vertex 1.8880739999999536 3.4604929999999148 0.7679352999999811
    vertex 1.8865649999999536 3.4599009999999146 0.773109599999981
  endloop
endfacet
facet normal 0.12157284580162485 0.9919724927929023 0.03479391765710989
  outer loop
    vertex 1.8962069999999533 3.4574309999999153 0.8098391999999801
    vertex 1.9031049999999532 3.4573719999999146 0.7874190999999807
    vertex 1.8865649999999536 3.4599009999999146 0.773109599999981
  endloop
endfacet
facet normal 0.04210984712330461 0.9911830120935029 0.1256303996352118
  outer loop
    vertex 1.9046959999999533 3.458703999999915 0.7761116999999809
    vertex 1.8889079999999538 3.4624759999999153 0.7516437999999814
    vertex 1.8883299999999537 3.461125999999915 0.7624885999999812
  endloop
endfacet
facet normal 0.0255226842288267 0.9873667653641616 0.15638242626353008
  outer loop
    vertex 1.9050909999999535 3.4600059999999146 0.7645976999999813
    vertex 1.8911169999999533 3.469265999999915 0.7084125999999826
    vertex 1.8889079999999538 3.4624759999999153 0.7516437999999814
  endloop
endfacet
facet normal 0.2956330517176109 0.9444411183855117 0.14363868780679
  outer loop
    vertex 1.8865649999999536 3.4599009999999146 0.773109599999981
    vertex 1.8720249999999543 3.4673069999999147 0.7543400999999815
    vertex 1.8706159999999543 3.4669949999999146 0.7592914999999814
  endloop
endfacet
facet normal 0.9867561070158518 0.14167797398627055 0.07899200563390234
  outer loop
    vertex 1.8236839999999552 3.549448999999912 0.731454599999982
    vertex 1.8277339999999551 3.5285949999999136 0.7182657999999823
    vertex 1.8242619999999554 3.5467239999999127 0.7291217999999821
  endloop
endfacet
facet normal 0.9869164036755382 0.10662227081512882 0.1209450433972706
  outer loop
    vertex 1.8271849999999552 3.533785999999913 0.7181693999999823
    vertex 1.8277339999999551 3.5285949999999136 0.7182657999999823
    vertex 1.8277079999999555 3.531272999999913 0.7161170999999823
  endloop
endfacet
facet normal 0.3014199512179919 0.94538918975281 0.12403746573623901
  outer loop
    vertex 1.8880739999999536 3.4604929999999148 0.7679352999999811
    vertex 1.8883299999999537 3.461125999999915 0.7624885999999812
    vertex 1.8723859999999541 3.4679489999999147 0.7492300999999816
  endloop
endfacet
facet normal 0.2834618357987471 0.9476791600838829 0.14681143411979355
  outer loop
    vertex 1.8883299999999537 3.461125999999915 0.7624885999999812
    vertex 1.873153999999954 3.4692989999999146 0.7390328999999818
    vertex 1.8723859999999541 3.4679489999999147 0.7492300999999816
  endloop
endfacet
facet normal 0.9832144945520377 0.09602628304696284 0.1551393266292134
  outer loop
    vertex 1.8242619999999554 3.5467239999999127 0.7291217999999821
    vertex 1.8248829999999554 3.5440529999999133 0.7268393999999821
    vertex 1.8290139999999553 3.529031999999913 0.7099561999999826
  endloop
endfacet
facet normal 0.059948143815001735 0.9916483387281099 0.11419191018156953
  outer loop
    vertex 1.9046959999999533 3.458703999999915 0.7761116999999809
    vertex 1.9050909999999535 3.4600059999999146 0.7645976999999813
    vertex 1.8889079999999538 3.4624759999999153 0.7516437999999814
  endloop
endfacet
facet normal 0.31658407424193624 0.9412209287565061 0.11780359590062033
  outer loop
    vertex 1.8801319999999537 3.4594159999999152 0.7942725999999805
    vertex 1.8865649999999536 3.4599009999999146 0.773109599999981
    vertex 1.8706159999999543 3.4669949999999146 0.7592914999999814
  endloop
endfacet
facet normal 0.026047086160484154 0.9900210284696471 0.13849156108027144
  outer loop
    vertex 1.9031049999999532 3.4573719999999146 0.7874190999999807
    vertex 1.904519999999953 3.458107999999915 0.7818915999999808
    vertex 1.8880739999999536 3.4604929999999148 0.7679352999999811
  endloop
endfacet
facet normal 0.9786826442106826 0.07431066065668708 0.19146333234735344
  outer loop
    vertex 1.8248829999999554 3.5440529999999133 0.7268393999999821
    vertex 1.8277339999999551 3.5285949999999136 0.7182657999999823
    vertex 1.825518999999955 3.5414329999999135 0.7246052999999821
  endloop
endfacet
facet normal 0.3018763254076972 0.9439402718688454 0.13359433858706846
  outer loop
    vertex 1.8883299999999537 3.461125999999915 0.7624885999999812
    vertex 1.8889079999999538 3.4624759999999153 0.7516437999999814
    vertex 1.873153999999954 3.4692989999999146 0.7390328999999818
  endloop
endfacet
facet normal 0.982305767047801 0.09726845882030899 0.1600444530227567
  outer loop
    vertex 1.834106999999955 3.550292999999913 0.6657752999999836
    vertex 1.8290139999999553 3.529031999999913 0.7099561999999826
    vertex 1.830319999999955 3.529528999999913 0.7016382999999827
  endloop
endfacet
facet normal 0.9833467488516503 0.09115806842396638 0.15722397426633367
  outer loop
    vertex 1.834106999999955 3.550292999999913 0.6657752999999836
    vertex 1.8236839999999552 3.549448999999912 0.731454599999982
    vertex 1.8290139999999553 3.529031999999913 0.7099561999999826
  endloop
endfacet
facet normal 0.9858645242237593 0.1001622084779915 0.13430812287375718
  outer loop
    vertex 1.826125999999955 3.5388569999999135 0.7224159999999822
    vertex 1.8277339999999551 3.5285949999999136 0.7182657999999823
    vertex 1.8266769999999553 3.5363109999999134 0.7202701999999824
  endloop
endfacet
facet normal 0.04426455247545184 0.9921001431499878 0.11737953550735153
  outer loop
    vertex 1.904519999999953 3.458107999999915 0.7818915999999808
    vertex 1.8883299999999537 3.461125999999915 0.7624885999999812
    vertex 1.8880739999999536 3.4604929999999148 0.7679352999999811
  endloop
endfacet
facet normal 0.983033791420854 0.0939199877820133 0.15755507233906305
  outer loop
    vertex 1.8242619999999554 3.5467239999999127 0.7291217999999821
    vertex 1.8277339999999551 3.5285949999999136 0.7182657999999823
    vertex 1.8248829999999554 3.5440529999999133 0.7268393999999821
  endloop
endfacet
facet normal 0.06017877415536415 0.9927341236239028 0.10419920793287879
  outer loop
    vertex 1.904519999999953 3.458107999999915 0.7818915999999808
    vertex 1.9046959999999533 3.458703999999915 0.7761116999999809
    vertex 1.8883299999999537 3.461125999999915 0.7624885999999812
  endloop
endfacet
facet normal 0.9838217066165585 0.11527174302212255 0.1371396180931093
  outer loop
    vertex 1.825518999999955 3.5414329999999135 0.7246052999999821
    vertex 1.826125999999955 3.5388569999999135 0.7224159999999822
    vertex 1.8290139999999553 3.529031999999913 0.7099561999999826
  endloop
endfacet
facet normal 0.2719182523548678 0.9531495074196378 0.13253860019623123
  outer loop
    vertex 1.8801319999999537 3.4594159999999152 0.7942725999999805
    vertex 1.8706159999999543 3.4669949999999146 0.7592914999999814
    vertex 1.864693999999954 3.465929999999915 0.7791000999999809
  endloop
endfacet
facet normal 0.249891088345431 0.9510746334223549 0.1816906316409001
  outer loop
    vertex 1.8865649999999536 3.4599009999999146 0.773109599999981
    vertex 1.8880739999999536 3.4604929999999148 0.7679352999999811
    vertex 1.8720249999999543 3.4673069999999147 0.7543400999999815
  endloop
endfacet
facet normal 0.2847070540234229 0.9484435661513666 0.13927201878116896
  outer loop
    vertex 1.8880739999999536 3.4604929999999148 0.7679352999999811
    vertex 1.8723859999999541 3.4679489999999147 0.7492300999999816
    vertex 1.8720249999999543 3.4673069999999147 0.7543400999999815
  endloop
endfacet
facet normal 0.9819207163338878 0.06167172575085093 0.17896453580879318
  outer loop
    vertex 1.826125999999955 3.5388569999999135 0.7224159999999822
    vertex 1.8266769999999553 3.5363109999999134 0.7202701999999824
    vertex 1.8290139999999553 3.529031999999913 0.7099561999999826
  endloop
endfacet
facet normal 0.055983483673059116 0.987282450599923 0.14879251423791176
  outer loop
    vertex 1.9050909999999535 3.4600059999999146 0.7645976999999813
    vertex 1.9064039999999531 3.4668559999999147 0.7186518999999824
    vertex 1.8911169999999533 3.469265999999915 0.7084125999999826
  endloop
endfacet
facet normal 0.7851715355238571 0.5824560926608334 0.2103581705695858
  outer loop
    vertex 1.836035999999955 3.5103679999999136 0.7078904999999827
    vertex 1.8389399999999547 3.4903279999999146 0.7525394999999815
    vertex 1.8461049999999546 3.4936179999999144 0.7166861999999825
  endloop
endfacet
facet normal 0.6525210942412331 0.7347404251555896 0.18539883821752343
  outer loop
    vertex 1.858691999999954 3.4797789999999145 0.7272298999999821
    vertex 1.8509299999999547 3.4984279999999144 0.6806421999999833
    vertex 1.8461049999999546 3.4936179999999144 0.7166861999999825
  endloop
endfacet
facet normal 0.6654331870990761 0.7246282851147848 0.17919967053198532
  outer loop
    vertex 1.858691999999954 3.4797789999999145 0.7272298999999821
    vertex 1.862705999999954 3.485538999999915 0.6890327999999831
    vertex 1.8509299999999547 3.4984279999999144 0.6806421999999833
  endloop
endfacet
facet normal 0.7951599972549789 0.5765972105883328 0.1877664387136742
  outer loop
    vertex 1.8415749999999544 3.5138929999999133 0.6736090999999833
    vertex 1.836035999999955 3.5103679999999136 0.7078904999999827
    vertex 1.8461049999999546 3.4936179999999144 0.7166861999999825
  endloop
endfacet
facet normal 0.6645948943052952 0.7290829216061075 0.16355953009725818
  outer loop
    vertex 1.8577119999999545 3.478522999999915 0.7368106999999818
    vertex 1.858691999999954 3.4797789999999145 0.7272298999999821
    vertex 1.8461049999999546 3.4936179999999144 0.7166861999999825
  endloop
endfacet
facet normal 0.802029713161866 0.5684860901708202 0.18322637497857452
  outer loop
    vertex 1.8415749999999544 3.5138929999999133 0.6736090999999833
    vertex 1.8461049999999546 3.4936179999999144 0.7166861999999825
    vertex 1.8509299999999547 3.4984279999999144 0.6806421999999833
  endloop
endfacet
facet normal 0.92006893390132 0.34574477803395104 0.18421103477246564
  outer loop
    vertex 1.8359739999999547 3.531537999999913 0.6684662999999835
    vertex 1.836035999999955 3.5103679999999136 0.7078904999999827
    vertex 1.8415749999999544 3.5138929999999133 0.6736090999999833
  endloop
endfacet
facet normal 0.9059591710790269 0.37630511600270344 0.19399082454589003
  outer loop
    vertex 1.8296069999999547 3.5183519999999135 0.7212488999999823
    vertex 1.826440999999955 3.5173089999999134 0.7380576999999818
    vertex 1.829589999999955 3.507617999999914 0.7421501999999817
  endloop
endfacet
facet normal 0.48283267594599083 0.8605594981944928 0.16220344357034003
  outer loop
    vertex 1.8723859999999541 3.4679489999999147 0.7492300999999816
    vertex 1.858691999999954 3.4797789999999145 0.7272298999999821
    vertex 1.8577119999999545 3.478522999999915 0.7368106999999818
  endloop
endfacet
facet normal 0.4832710546524474 0.8613626006341778 0.1565361235109556
  outer loop
    vertex 1.8720249999999543 3.4673069999999147 0.7543400999999815
    vertex 1.8577119999999545 3.478522999999915 0.7368106999999818
    vertex 1.8572259999999545 3.4779249999999142 0.7416016999999818
  endloop
endfacet
facet normal 0.4767448031037418 0.860446198795805 0.17985197160838828
  outer loop
    vertex 1.873153999999954 3.4692989999999146 0.7390328999999818
    vertex 1.862705999999954 3.485538999999915 0.6890327999999831
    vertex 1.858691999999954 3.4797789999999145 0.7272298999999821
  endloop
endfacet
facet normal 0.49657572437345415 0.8548339712197431 0.15057035435856128
  outer loop
    vertex 1.8723859999999541 3.4679489999999147 0.7492300999999816
    vertex 1.873153999999954 3.4692989999999146 0.7390328999999818
    vertex 1.858691999999954 3.4797789999999145 0.7272298999999821
  endloop
endfacet
facet normal 0.5851831886348219 0.7799207325713888 0.2220006455947609
  outer loop
    vertex 1.8508079999999545 3.4763289999999145 0.7650280999999812
    vertex 1.8561609999999542 3.4776179999999153 0.7463893999999816
    vertex 1.8461049999999546 3.4936179999999144 0.7166861999999825
  endloop
endfacet
facet normal 0.8871873129381885 0.4101538020875545 0.2113587717475666
  outer loop
    vertex 1.8296069999999547 3.5183519999999135 0.7212488999999823
    vertex 1.829589999999955 3.507617999999914 0.7421501999999817
    vertex 1.8331089999999552 3.508819999999914 0.7250464999999823
  endloop
endfacet
facet normal 0.6651015269211586 0.47418555842321913 0.5768778164134961
  outer loop
    vertex 1.8283539999999552 3.5287869999999133 0.7141160999999825
    vertex 1.8296069999999547 3.5183519999999135 0.7212488999999823
    vertex 1.8331089999999552 3.508819999999914 0.7250464999999823
  endloop
endfacet
facet normal 0.9277822773394079 0.33220371115568437 0.16988449060845107
  outer loop
    vertex 1.830319999999955 3.529528999999913 0.7016382999999827
    vertex 1.8347539999999551 3.509549999999914 0.7164913999999823
    vertex 1.836035999999955 3.5103679999999136 0.7078904999999827
  endloop
endfacet
facet normal 0.468304185602218 0.8636732191288119 0.18643969616773834
  outer loop
    vertex 1.864693999999954 3.465929999999915 0.7791000999999809
    vertex 1.8706159999999543 3.4669949999999146 0.7592914999999814
    vertex 1.8561609999999542 3.4776179999999153 0.7463893999999816
  endloop
endfacet
facet normal 0.9050751092804213 0.3487472608326342 0.24334008018155992
  outer loop
    vertex 1.8283539999999552 3.5287869999999133 0.7141160999999825
    vertex 1.8331089999999552 3.508819999999914 0.7250464999999823
    vertex 1.834122999999955 3.5091529999999134 0.7207977999999824
  endloop
endfacet
facet normal 0.9590353543416354 0.21454306533567374 0.1849931410598414
  outer loop
    vertex 1.8277339999999551 3.5285949999999136 0.7182657999999823
    vertex 1.8247309999999555 3.5277119999999136 0.734857899999982
    vertex 1.826440999999955 3.5173089999999134 0.7380576999999818
  endloop
endfacet
facet normal 0.95347677232114 0.2308235797289289 0.19391369132989045
  outer loop
    vertex 1.8277339999999551 3.5285949999999136 0.7182657999999823
    vertex 1.826440999999955 3.5173089999999134 0.7380576999999818
    vertex 1.8296069999999547 3.5183519999999135 0.7212488999999823
  endloop
endfacet
facet normal 0.6536736765854976 0.7305062146968537 0.19766485481357768
  outer loop
    vertex 1.8508079999999545 3.4763289999999145 0.7650280999999812
    vertex 1.8461049999999546 3.4936179999999144 0.7166861999999825
    vertex 1.8389399999999547 3.4903279999999146 0.7525394999999815
  endloop
endfacet
facet normal 0.4963347952673131 0.8563309854674691 0.14264997138193777
  outer loop
    vertex 1.8720249999999543 3.4673069999999147 0.7543400999999815
    vertex 1.8723859999999541 3.4679489999999147 0.7492300999999816
    vertex 1.8577119999999545 3.478522999999915 0.7368106999999818
  endloop
endfacet
facet normal 0.929538183968056 0.3294314033784063 0.16563126218652818
  outer loop
    vertex 1.830319999999955 3.529528999999913 0.7016382999999827
    vertex 1.8290139999999553 3.529031999999913 0.7099561999999826
    vertex 1.8347539999999551 3.509549999999914 0.7164913999999823
  endloop
endfacet
facet normal 0.4855928136251324 0.8588374223509089 0.16308863027591425
  outer loop
    vertex 1.8706159999999543 3.4669949999999146 0.7592914999999814
    vertex 1.8572259999999545 3.4779249999999142 0.7416016999999818
    vertex 1.8561609999999542 3.4776179999999153 0.7463893999999816
  endloop
endfacet
facet normal 0.2982171503124159 0.9404854179379354 0.16295309112026443
  outer loop
    vertex 1.8889079999999538 3.4624759999999153 0.7516437999999814
    vertex 1.8911169999999533 3.469265999999915 0.7084125999999826
    vertex 1.876296999999954 3.4756969999999145 0.6984177999999828
  endloop
endfacet
facet normal 0.4619726178577316 0.8671487850642292 0.18610288797142732
  outer loop
    vertex 1.8706159999999543 3.4669949999999146 0.7592914999999814
    vertex 1.8720249999999543 3.4673069999999147 0.7543400999999815
    vertex 1.8572259999999545 3.4779249999999142 0.7416016999999818
  endloop
endfacet
facet normal 0.45678029245117213 0.8687739405255777 0.19126841007307432
  outer loop
    vertex 1.864693999999954 3.465929999999915 0.7791000999999809
    vertex 1.8561609999999542 3.4776179999999153 0.7463893999999816
    vertex 1.8508079999999545 3.4763289999999145 0.7650280999999812
  endloop
endfacet
facet normal 0.49684981352645824 0.8505337811909879 0.1724312902337754
  outer loop
    vertex 1.873153999999954 3.4692989999999146 0.7390328999999818
    vertex 1.876296999999954 3.4756969999999145 0.6984177999999828
    vertex 1.862705999999954 3.485538999999915 0.6890327999999831
  endloop
endfacet
facet normal 0.6692626042369814 0.7259241874794122 0.15849807759808615
  outer loop
    vertex 1.8572259999999545 3.4779249999999142 0.7416016999999818
    vertex 1.8577119999999545 3.478522999999915 0.7368106999999818
    vertex 1.8461049999999546 3.4936179999999144 0.7166861999999825
  endloop
endfacet
facet normal 0.925548207576465 0.33418344484775947 0.1779942151916109
  outer loop
    vertex 1.8359739999999547 3.531537999999913 0.6684662999999835
    vertex 1.830319999999955 3.529528999999913 0.7016382999999827
    vertex 1.836035999999955 3.5103679999999136 0.7078904999999827
  endloop
endfacet
facet normal 0.6341679564913865 0.749704514711431 0.18914053923164328
  outer loop
    vertex 1.8561609999999542 3.4776179999999153 0.7463893999999816
    vertex 1.8572259999999545 3.4779249999999142 0.7416016999999818
    vertex 1.8461049999999546 3.4936179999999144 0.7166861999999825
  endloop
endfacet
facet normal 0.8042616516444291 0.5579145992893578 0.2046814490714061
  outer loop
    vertex 1.8331089999999552 3.508819999999914 0.7250464999999823
    vertex 1.829589999999955 3.507617999999914 0.7421501999999817
    vertex 1.8389399999999547 3.4903279999999146 0.7525394999999815
  endloop
endfacet
facet normal 0.929288794663781 0.32966834555626345 0.16655665117470808
  outer loop
    vertex 1.8290139999999553 3.529031999999913 0.7099561999999826
    vertex 1.834122999999955 3.5091529999999134 0.7207977999999824
    vertex 1.8347539999999551 3.509549999999914 0.7164913999999823
  endloop
endfacet
facet normal 0.9291896011485202 0.3298011479401673 0.16684689968591476
  outer loop
    vertex 1.8290139999999553 3.529031999999913 0.7099561999999826
    vertex 1.8283539999999552 3.5287869999999133 0.7141160999999825
    vertex 1.834122999999955 3.5091529999999134 0.7207977999999824
  endloop
endfacet
facet normal 0.9630263053010713 0.2209771799063428 0.1541084723784123
  outer loop
    vertex 1.8283539999999552 3.5287869999999133 0.7141160999999825
    vertex 1.8277339999999551 3.5285949999999136 0.7182657999999823
    vertex 1.8296069999999547 3.5183519999999135 0.7212488999999823
  endloop
endfacet
facet normal 0.8466031304172862 0.504166084956267 0.17052770551298108
  outer loop
    vertex 1.8347539999999551 3.509549999999914 0.7164913999999823
    vertex 1.834122999999955 3.5091529999999134 0.7207977999999824
    vertex 1.8389399999999547 3.4903279999999146 0.7525394999999815
  endloop
endfacet
facet normal 0.7751554585006455 0.5879914630702578 0.23108451811653585
  outer loop
    vertex 1.834122999999955 3.5091529999999134 0.7207977999999824
    vertex 1.8331089999999552 3.508819999999914 0.7250464999999823
    vertex 1.8389399999999547 3.4903279999999146 0.7525394999999815
  endloop
endfacet
facet normal 0.8424442014484419 0.509891732185807 0.17406374951279902
  outer loop
    vertex 1.836035999999955 3.5103679999999136 0.7078904999999827
    vertex 1.8347539999999551 3.509549999999914 0.7164913999999823
    vertex 1.8389399999999547 3.4903279999999146 0.7525394999999815
  endloop
endfacet
facet normal -0.9445745043078272 0.16206996121926595 -0.28550364880682033
  outer loop
    vertex 1.9541489999999515 3.5497999999999124 0.9297447999999773
    vertex 1.9515329999999522 3.5347119999999133 0.9298347999999772
    vertex 1.9383339999999523 3.5339799999999135 0.9730874999999761
  endloop
endfacet
facet normal -0.9441806493244111 0.31011875382947024 -0.1111272242278632
  outer loop
    vertex 1.9640929999999517 3.5354399999999133 0.8864672999999782
    vertex 1.9704689999999516 3.5226499999999135 0.7966016999999803
    vertex 1.9595569999999518 3.521176999999913 0.8852036999999784
  endloop
endfacet
facet normal -0.910199523079431 0.31133860145589015 -0.2731393480065934
  outer loop
    vertex 1.9353720610287102 3.524068300783403 0.9716594980528703
    vertex 1.9471199999999522 3.5202889999999134 0.9282033999999771
    vertex 1.9339819999999526 3.5194159999999135 0.9709890999999762
  endloop
endfacet
facet normal -0.910199523079431 0.31133860145589015 -0.2731393480065934
  outer loop
    vertex 1.9471199999999522 3.5202889999999134 0.9282033999999771
    vertex 1.9353720610287102 3.524068300783403 0.9716594980528703
    vertex 1.9383339999999523 3.5339799999999135 0.9730874999999761
  endloop
endfacet
facet normal -0.910199523079431 0.31133860145589015 -0.2731393480065934
  outer loop
    vertex 1.9383339999999523 3.5339799999999135 0.9730874999999761
    vertex 1.9353720610287102 3.524068300783403 0.9716594980528703
    vertex 1.9367939740444504 3.5288269333066222 0.9723451654040477
  endloop
endfacet
facet normal -0.3729676366380469 0.923232080417508 -0.09239950058625827
  outer loop
    vertex 1.8843559999999537 3.459856999999915 0.9183796999999775
    vertex 1.8942919999999537 3.4651049999999146 0.9307100999999772
    vertex 1.9326549999999523 3.4671809999999152 0.7966016999999803
  endloop
endfacet
facet normal -0.3729676366380469 0.923232080417508 -0.09239950058625827
  outer loop
    vertex 1.8942919999999537 3.4651049999999146 0.9307100999999772
    vertex 1.8843559999999537 3.459856999999915 0.9183796999999775
    vertex 1.8888605692582212 3.4622362640185727 0.9239698967098066
  endloop
endfacet
facet normal -0.3729676366380469 0.923232080417508 -0.09239950058625827
  outer loop
    vertex 1.8942919999999537 3.4651049999999146 0.9307100999999772
    vertex 1.8888605692582212 3.4622362640185727 0.9239698967098066
    vertex 1.8908062194109192 3.463263947768471 0.9263844944666237
  endloop
endfacet
facet normal -0.9438563311188927 0.17373101733981644 -0.28098533737698095
  outer loop
    vertex 1.9541489999999515 3.5497999999999124 0.9297447999999773
    vertex 1.9383339999999523 3.5339799999999135 0.9730874999999761
    vertex 1.9411899999999525 3.549241999999912 0.9729302999999763
  endloop
endfacet
facet normal -0.8289015172792799 0.5032494097073741 -0.24425868721764568
  outer loop
    vertex 1.923352935631147 3.4976208457246396 0.9621545559167091
    vertex 1.9471199999999522 3.5202889999999134 0.9282033999999771
    vertex 1.9211909999999526 3.4931879999999143 0.9603577999999763
  endloop
endfacet
facet normal -0.8289015172792799 0.5032494097073741 -0.24425868721764568
  outer loop
    vertex 1.9471199999999522 3.5202889999999134 0.9282033999999771
    vertex 1.923352935631147 3.4976208457246396 0.9621545559167091
    vertex 1.9317517074746349 3.5148428310639894 0.9691354201928924
  endloop
endfacet
facet normal -0.8289015172792799 0.5032494097073741 -0.24425868721764568
  outer loop
    vertex 1.9471199999999522 3.5202889999999134 0.9282033999999771
    vertex 1.9317517074746349 3.5148428310639894 0.9691354201928924
    vertex 1.9339819999999526 3.5194159999999135 0.9709890999999762
  endloop
endfacet
facet normal -0.9816566154568176 0.16626232962364285 -0.09331198785785838
  outer loop
    vertex 1.9666089999999516 3.5503209999999132 0.8865133999999782
    vertex 1.9704689999999516 3.5226499999999135 0.7966016999999803
    vertex 1.9640929999999517 3.5354399999999133 0.8864672999999782
  endloop
endfacet
facet normal -0.466793091434201 0.8743760073772043 -0.13255492262605997
  outer loop
    vertex 1.9025219999999534 3.4603339999999148 0.8575501999999791
    vertex 1.9326549999999523 3.4671809999999152 0.7966016999999803
    vertex 1.9207229999999527 3.4608109999999153 0.7966016999999803
  endloop
endfacet
facet normal -0.4667575140622638 0.8743980412401406 -0.13253485783680144
  outer loop
    vertex 1.8843559999999537 3.459856999999915 0.9183796999999775
    vertex 1.9326549999999523 3.4671809999999152 0.7966016999999803
    vertex 1.9025219999999534 3.4603339999999148 0.8575501999999791
  endloop
endfacet
facet normal -0.609521765267784 0.7759680934755844 -0.16234757643005152
  outer loop
    vertex 1.8942919999999537 3.4651049999999146 0.9307100999999772
    vertex 1.9432469999999524 3.4755009999999147 0.7966016999999803
    vertex 1.9326549999999523 3.4671809999999152 0.7966016999999803
  endloop
endfacet
facet normal -0.9890829685471133 0.12345665558548993 -0.08045704146733082
  outer loop
    vertex 1.9739229999999515 3.550321999999912 0.7966016999999803
    vertex 1.9704689999999516 3.5226499999999135 0.7966016999999803
    vertex 1.9666089999999516 3.5503209999999132 0.8865133999999782
  endloop
endfacet
facet normal -0.9488251021591971 0.1612634360571009 -0.27152353434582177
  outer loop
    vertex 1.9666089999999516 3.5503209999999132 0.8865133999999782
    vertex 1.9640929999999517 3.5354399999999133 0.8864672999999782
    vertex 1.9541489999999515 3.5497999999999124 0.9297447999999773
  endloop
endfacet
facet normal -0.833583223057576 0.49738552525471236 -0.24030532558401071
  outer loop
    vertex 1.9595569999999518 3.521176999999913 0.8852036999999784
    vertex 1.9333989999999524 3.494140999999914 0.9199825999999773
    vertex 1.9211909999999526 3.4931879999999143 0.9603577999999763
  endloop
endfacet
facet normal -0.5092933311739967 0.8522066885506884 -0.1198501681732825
  outer loop
    vertex 1.9031919999999531 3.471897999999914 0.941192599999977
    vertex 1.9432469999999524 3.4755009999999147 0.7966016999999803
    vertex 1.8942919999999537 3.4651049999999146 0.9307100999999772
  endloop
endfacet
facet normal -0.9484367119155633 0.16282044372729534 -0.27195092681445554
  outer loop
    vertex 1.9541489999999515 3.5497999999999124 0.9297447999999773
    vertex 1.9640929999999517 3.5354399999999133 0.8864672999999782
    vertex 1.9515329999999522 3.5347119999999133 0.9298347999999772
  endloop
endfacet
facet normal -0.9109243165844522 0.30956493453070966 -0.27273877752191084
  outer loop
    vertex 1.9515329999999522 3.5347119999999133 0.9298347999999772
    vertex 1.9471199999999522 3.5202889999999134 0.9282033999999771
    vertex 1.9383339999999523 3.5339799999999135 0.9730874999999761
  endloop
endfacet
facet normal -0.9221405435258259 0.37165069153825636 -0.10738985736572418
  outer loop
    vertex 1.9704689999999516 3.5226499999999135 0.7966016999999803
    vertex 1.9601219999999517 3.4969769999999136 0.7966016999999803
    vertex 1.9595569999999518 3.521176999999913 0.8852036999999784
  endloop
endfacet
facet normal -0.9135019299579701 0.313489533752863 -0.25930394557444875
  outer loop
    vertex 1.9640929999999517 3.5354399999999133 0.8864672999999782
    vertex 1.9595569999999518 3.521176999999913 0.8852036999999784
    vertex 1.9515329999999522 3.5347119999999133 0.9298347999999772
  endloop
endfacet
facet normal -0.7787424559854855 0.6119053336168371 -0.13831865361172854
  outer loop
    vertex 1.9601219999999517 3.4969769999999136 0.7966016999999803
    vertex 1.9432469999999524 3.4755009999999147 0.7966016999999803
    vertex 1.9360429999999524 3.4840699999999143 0.8750688999999785
  endloop
endfacet
facet normal -0.671825880113831 0.713336797788316 -0.19950087651533646
  outer loop
    vertex 1.903934999999953 3.472560999999915 0.9420419999999768
    vertex 1.9333989999999524 3.494140999999914 0.9199825999999773
    vertex 1.9360429999999524 3.4840699999999143 0.8750688999999785
  endloop
endfacet
facet normal -0.6415867201184837 0.7539354224420473 -0.1412368909128851
  outer loop
    vertex 1.9360429999999524 3.4840699999999143 0.8750688999999785
    vertex 1.9432469999999524 3.4755009999999147 0.7966016999999803
    vertex 1.9257569999999526 3.474364999999915 0.8699881999999787
  endloop
endfacet
facet normal -0.809804292948277 0.5605046259563544 -0.17335389065166157
  outer loop
    vertex 1.9595569999999518 3.521176999999913 0.8852036999999784
    vertex 1.9360429999999524 3.4840699999999143 0.8750688999999785
    vertex 1.9333989999999524 3.494140999999914 0.9199825999999773
  endloop
endfacet
facet normal -0.9152220824255339 0.3092498415116056 -0.2583274576302643
  outer loop
    vertex 1.9515329999999522 3.5347119999999133 0.9298347999999772
    vertex 1.9595569999999518 3.521176999999913 0.8852036999999784
    vertex 1.9471199999999522 3.5202889999999134 0.9282033999999771
  endloop
endfacet
facet normal -0.8140344508647935 0.5589530858440256 -0.15785867296634443
  outer loop
    vertex 1.9595569999999518 3.521176999999913 0.8852036999999784
    vertex 1.9601219999999517 3.4969769999999136 0.7966016999999803
    vertex 1.9360429999999524 3.4840699999999143 0.8750688999999785
  endloop
endfacet
facet normal -0.558346131519798 0.8161791864250136 -0.1486644983292226
  outer loop
    vertex 1.903934999999953 3.472560999999915 0.9420419999999768
    vertex 1.9257569999999526 3.474364999999915 0.8699881999999787
    vertex 1.9031919999999531 3.471897999999914 0.941192599999977
  endloop
endfacet
facet normal -0.8242392008926229 0.5184458917302076 -0.2276918906328474
  outer loop
    vertex 1.9595569999999518 3.521176999999913 0.8852036999999784
    vertex 1.9211909999999526 3.4931879999999143 0.9603577999999763
    vertex 1.9471199999999522 3.5202889999999134 0.9282033999999771
  endloop
endfacet
facet normal -0.6298453599606045 0.7574851060912444 -0.17178805716938736
  outer loop
    vertex 1.903934999999953 3.472560999999915 0.9420419999999768
    vertex 1.9360429999999524 3.4840699999999143 0.8750688999999785
    vertex 1.9257569999999526 3.474364999999915 0.8699881999999787
  endloop
endfacet
facet normal -0.23677443092448666 0.9706820194384621 -0.04140393700186728
  outer loop
    vertex 1.9031919999999531 3.471897999999914 0.941192599999977
    vertex 1.9257569999999526 3.474364999999915 0.8699881999999787
    vertex 1.9432469999999524 3.4755009999999147 0.7966016999999803
  endloop
endfacet
facet normal -0.6669397483288346 0.7218776441385216 -0.18461863121605243
  outer loop
    vertex 1.9333989999999524 3.494140999999914 0.9199825999999773
    vertex 1.9192416914855337 3.490857735046202 0.9582885738516711
    vertex 1.9211909999999526 3.4931879999999143 0.9603577999999763
  endloop
endfacet
facet normal -0.6669397483288346 0.7218776441385216 -0.18461863121605243
  outer loop
    vertex 1.9192416914855337 3.490857735046202 0.9582885738516711
    vertex 1.9333989999999524 3.494140999999914 0.9199825999999773
    vertex 1.9054446342967661 3.4743654782938043 0.9436442649704182
  endloop
endfacet
facet normal -0.6669397483288346 0.7218776441385216 -0.18461863121605243
  outer loop
    vertex 1.9054446342967661 3.4743654782938043 0.9436442649704182
    vertex 1.9333989999999524 3.494140999999914 0.9199825999999773
    vertex 1.903934999999953 3.472560999999915 0.9420419999999768
  endloop
endfacet
facet normal -0.0 -0.0 -1.0
  outer loop
    vertex 1.9614669999999517 3.5574659999999128 0.5366016999999867
    vertex 1.961371782564763 3.553296029051996 0.5366016999999867
    vertex 1.960777637211768 3.557327226295691 0.5366016999999867
  endloop
endfacet
facet normal 0.0 0.0 -1.0
  outer loop
    vertex 1.960777637211768 3.557327226295691 0.5366016999999867
    vertex 1.8695099999999538 3.5271219999999133 0.5366016999999867
    vertex 1.8653849999999543 3.5381239999999132 0.5366016999999867
  endloop
endfacet
facet normal 0.0 0.0 -1.0
  outer loop
    vertex 1.8695099999999538 3.5271219999999133 0.5366016999999867
    vertex 1.960777637211768 3.557327226295691 0.5366016999999867
    vertex 1.8841789999999539 3.5098909999999135 0.5366016999999867
  endloop
endfacet
facet normal 0.0 0.0 -1.0
  outer loop
    vertex 1.8841789999999539 3.5098909999999135 0.5366016999999867
    vertex 1.960777637211768 3.557327226295691 0.5366016999999867
    vertex 1.9047899999999531 3.5009979999999143 0.5366016999999867
  endloop
endfacet
facet normal 0.0 0.0 -1.0
  outer loop
    vertex 1.9047899999999531 3.5009979999999143 0.5366016999999867
    vertex 1.960777637211768 3.557327226295691 0.5366016999999867
    vertex 1.9163429999999528 3.5004199999999135 0.5366016999999867
  endloop
endfacet
facet normal 0.0 0.0 -1.0
  outer loop
    vertex 1.9163429999999528 3.5004199999999135 0.5366016999999867
    vertex 1.960777637211768 3.557327226295691 0.5366016999999867
    vertex 1.9282049999999527 3.5028149999999143 0.5366016999999867
  endloop
endfacet
facet normal 0.0 0.0 -1.0
  outer loop
    vertex 1.9282049999999527 3.5028149999999143 0.5366016999999867
    vertex 1.960777637211768 3.557327226295691 0.5366016999999867
    vertex 1.9363509999999524 3.5064239999999134 0.5366016999999867
  endloop
endfacet
facet normal 0.0 0.0 -1.0
  outer loop
    vertex 1.9363509999999524 3.5064239999999134 0.5366016999999867
    vertex 1.960777637211768 3.557327226295691 0.5366016999999867
    vertex 1.9436459999999522 3.5114169999999136 0.5366016999999867
  endloop
endfacet
facet normal 0.0 0.0 -1.0
  outer loop
    vertex 1.9436459999999522 3.5114169999999136 0.5366016999999867
    vertex 1.960777637211768 3.557327226295691 0.5366016999999867
    vertex 1.949926999999952 3.5175979999999134 0.5366016999999867
  endloop
endfacet
facet normal 0.0 0.0 -1.0
  outer loop
    vertex 1.949926999999952 3.5175979999999134 0.5366016999999867
    vertex 1.960777637211768 3.557327226295691 0.5366016999999867
    vertex 1.9550309999999518 3.5247739999999137 0.5366016999999867
  endloop
endfacet
facet normal 0.0 0.0 -1.0
  outer loop
    vertex 1.9550309999999518 3.5247739999999137 0.5366016999999867
    vertex 1.960777637211768 3.557327226295691 0.5366016999999867
    vertex 1.9596062260042963 3.5369307916977712 0.5366016999999867
  endloop
endfacet
facet normal 0.0 0.0 -1.0
  outer loop
    vertex 1.9596062260042963 3.5369307916977712 0.5366016999999867
    vertex 1.960777637211768 3.557327226295691 0.5366016999999867
    vertex 1.9611832073881181 3.545037530946583 0.5366016999999867
  endloop
endfacet
facet normal 0.0 0.0 -1.0
  outer loop
    vertex 1.9611832073881181 3.545037530946583 0.5366016999999867
    vertex 1.960777637211768 3.557327226295691 0.5366016999999867
    vertex 1.961371782564763 3.553296029051996 0.5366016999999867
  endloop
endfacet
facet normal 0.0 0.0 -1.0
  outer loop
    vertex 1.9611832073881181 3.545037530946583 0.5366016999999867
    vertex 1.9610879999999515 3.540867999999913 0.5366016999999867
    vertex 1.9596062260042963 3.5369307916977712 0.5366016999999867
  endloop
endfacet
facet normal -0.8005137509368329 0.15600981813640122 0.5786524615052541
  outer loop
    vertex 1.8888605692582212 3.4622362640185727 0.9239698967098066
    vertex 1.8843559999999537 3.459856999999915 0.9183796999999775
    vertex 1.8890359999999533 3.4620299999999147 0.9242681999999773
  endloop
endfacet
facet normal -0.8005823338350792 0.15593720217315835 0.5785771476040041
  outer loop
    vertex 1.923352935631147 3.4976208457246396 0.9621545559167091
    vertex 1.9192416914855337 3.490857735046202 0.9582885738516711
    vertex 1.9211909999999526 3.4931879999999143 0.9603577999999763
  endloop
endfacet
facet normal -0.8004060456101402 0.1569507390880584 0.5785469969245806
  outer loop
    vertex 1.8843559999999537 3.459856999999915 0.9183796999999775
    vertex 1.8739716785281757 3.457743571312478 0.9045865776892804
    vertex 1.874554999999954 3.456842999999915 0.9056378999999777
  endloop
endfacet
facet normal -0.8005136026118913 0.1557777359391895 0.5787151881703049
  outer loop
    vertex 1.8682485091687917 3.4565783359087647 0.8969823807927636
    vertex 1.8633119197008488 3.456371232604321 0.8902076453117345
    vertex 1.8651229999999541 3.4559419999999146 0.8928296999999781
  endloop
endfacet
facet normal -0.8005136026118913 0.1557777359391895 0.5787151881703049
  outer loop
    vertex 1.8633119197008488 3.456371232604321 0.8902076453117345
    vertex 1.8682485091687917 3.4565783359087647 0.8969823807927636
    vertex 1.8600006083038532 3.457155983300517 0.885415704231356
  endloop
endfacet
facet normal -0.8005136026118913 0.1557777359391895 0.5787151881703049
  outer loop
    vertex 1.8600006083038532 3.457155983300517 0.885415704231356
    vertex 1.8682485091687917 3.4565783359087647 0.8969823807927636
    vertex 1.8739716785281757 3.457743571312478 0.9045865776892804
  endloop
endfacet
facet normal -0.8005136026118913 0.1557777359391895 0.5787151881703049
  outer loop
    vertex 1.8600006083038532 3.457155983300517 0.885415704231356
    vertex 1.8739716785281757 3.457743571312478 0.9045865776892804
    vertex 1.8472739999999546 3.4601719999999148 0.8670022999999786
  endloop
endfacet
facet normal -0.8005136026118913 0.1557777359391895 0.5787151881703049
  outer loop
    vertex 1.8472739999999546 3.4601719999999148 0.8670022999999786
    vertex 1.8739716785281757 3.457743571312478 0.9045865776892804
    vertex 1.8843559999999537 3.459856999999915 0.9183796999999775
  endloop
endfacet
facet normal -0.8005136026118913 0.1557777359391895 0.5787151881703049
  outer loop
    vertex 1.8472739999999546 3.4601719999999148 0.8670022999999786
    vertex 1.8843559999999537 3.459856999999915 0.9183796999999775
    vertex 1.8888605692582212 3.4622362640185727 0.9239698967098066
  endloop
endfacet
facet normal -0.8005136026118913 0.1557777359391895 0.5787151881703049
  outer loop
    vertex 1.8472739999999546 3.4601719999999148 0.8670022999999786
    vertex 1.8888605692582212 3.4622362640185727 0.9239698967098066
    vertex 1.8139229999999553 3.550321999999912 0.7966016999999803
  endloop
endfacet
facet normal -0.8005136026118913 0.1557777359391895 0.5787151881703049
  outer loop
    vertex 1.8139229999999553 3.550321999999912 0.7966016999999803
    vertex 1.8888605692582212 3.4622362640185727 0.9239698967098066
    vertex 1.8908062194109192 3.463263947768471 0.9263844944666237
  endloop
endfacet
facet normal -0.8005136026118913 0.1557777359391895 0.5787151881703049
  outer loop
    vertex 1.8139229999999553 3.550321999999912 0.7966016999999803
    vertex 1.8908062194109192 3.463263947768471 0.9263844944666237
    vertex 1.9031919999999531 3.471897999999914 0.941192599999977
  endloop
endfacet
facet normal -0.8007516136394004 0.15444123205021137 0.5787441222999238
  outer loop
    vertex 1.8472739999999546 3.4601719999999148 0.8670022999999786
    vertex 1.860448999999954 3.4562509999999147 0.8862775999999783
    vertex 1.8600006083038532 3.457155983300517 0.885415704231356
  endloop
endfacet
facet normal -0.8004617325321756 0.15569450471938925 0.5788093260753253
  outer loop
    vertex 1.9192416914855337 3.490857735046202 0.9582885738516711
    vertex 1.9054446342967661 3.4743654782938043 0.9436442649704182
    vertex 1.9167319999999528 3.4867289999999143 0.9559283999999766
  endloop
endfacet
facet normal -0.8004680848027224 0.155763087416468 0.5787820883637913
  outer loop
    vertex 1.9317517074746349 3.5148428310639894 0.9691354201928924
    vertex 1.923352935631147 3.4976208457246396 0.9621545559167091
    vertex 1.9279809999999526 3.505233999999914 0.9665063999999762
  endloop
endfacet
facet normal -0.8008098935775384 0.15596752736127106 0.5782539621629436
  outer loop
    vertex 1.9367939740444504 3.5288269333066222 0.9723451654040477
    vertex 1.9353720610287102 3.524068300783403 0.9716594980528703
    vertex 1.9362519999999523 3.526310999999913 0.9722731999999761
  endloop
endfacet
facet normal -0.7972609388423112 0.15835128584343672 0.5824945198609226
  outer loop
    vertex 1.8139229999999553 3.550321999999912 0.7966016999999803
    vertex 1.8195109999999555 3.493141999999915 0.8197943999999798
    vertex 1.831413999999955 3.4727989999999154 0.8416162999999793
  endloop
endfacet
facet normal -0.8015247401942406 0.15456961464270516 0.5776385765214792
  outer loop
    vertex 1.8139229999999553 3.550321999999912 0.7966016999999803
    vertex 1.831413999999955 3.4727989999999154 0.8416162999999793
    vertex 1.8472739999999546 3.4601719999999148 0.8670022999999786
  endloop
endfacet
facet normal -0.800503285186071 0.15579637283519426 0.5787244427339364
  outer loop
    vertex 1.8682485091687917 3.4565783359087647 0.8969823807927636
    vertex 1.8633119197008488 3.456371232604321 0.8902076453117345
    vertex 1.8651229999999541 3.4559419999999146 0.8928296999999781
  endloop
endfacet
facet normal -0.800503285186071 0.15579637283519426 0.5787244427339364
  outer loop
    vertex 1.8633119197008488 3.456371232604321 0.8902076453117345
    vertex 1.8682485091687917 3.4565783359087647 0.8969823807927636
    vertex 1.8600006083038532 3.457155983300517 0.885415704231356
  endloop
endfacet
facet normal -0.800503285186071 0.15579637283519426 0.5787244427339364
  outer loop
    vertex 1.8600006083038532 3.457155983300517 0.885415704231356
    vertex 1.8682485091687917 3.4565783359087647 0.8969823807927636
    vertex 1.8739716785281757 3.457743571312478 0.9045865776892804
  endloop
endfacet
facet normal -0.800503285186071 0.15579637283519426 0.5787244427339364
  outer loop
    vertex 1.8600006083038532 3.457155983300517 0.885415704231356
    vertex 1.8739716785281757 3.457743571312478 0.9045865776892804
    vertex 1.8472739999999546 3.4601719999999148 0.8670022999999786
  endloop
endfacet
facet normal -0.800503285186071 0.15579637283519426 0.5787244427339364
  outer loop
    vertex 1.8472739999999546 3.4601719999999148 0.8670022999999786
    vertex 1.8739716785281757 3.457743571312478 0.9045865776892804
    vertex 1.8843559999999537 3.459856999999915 0.9183796999999775
  endloop
endfacet
facet normal -0.800503285186071 0.15579637283519426 0.5787244427339364
  outer loop
    vertex 1.8472739999999546 3.4601719999999148 0.8670022999999786
    vertex 1.8843559999999537 3.459856999999915 0.9183796999999775
    vertex 1.8888605692582212 3.4622362640185727 0.9239698967098066
  endloop
endfacet
facet normal -0.800503285186071 0.15579637283519426 0.5787244427339364
  outer loop
    vertex 1.8472739999999546 3.4601719999999148 0.8670022999999786
    vertex 1.8888605692582212 3.4622362640185727 0.9239698967098066
    vertex 1.8139229999999553 3.550321999999912 0.7966016999999803
  endloop
endfacet
facet normal -0.800503285186071 0.15579637283519426 0.5787244427339364
  outer loop
    vertex 1.8139229999999553 3.550321999999912 0.7966016999999803
    vertex 1.8888605692582212 3.4622362640185727 0.9239698967098066
    vertex 1.8908062194109192 3.463263947768471 0.9263844944666237
  endloop
endfacet
facet normal -0.800503285186071 0.15579637283519426 0.5787244427339364
  outer loop
    vertex 1.8139229999999553 3.550321999999912 0.7966016999999803
    vertex 1.8908062194109192 3.463263947768471 0.9263844944666237
    vertex 1.9031919999999531 3.471897999999914 0.941192599999977
  endloop
endfacet
facet normal -0.800503285186071 0.15579637283519426 0.5787244427339364
  outer loop
    vertex 1.8139229999999553 3.550321999999912 0.7966016999999803
    vertex 1.9031919999999531 3.471897999999914 0.941192599999977
    vertex 1.9054446342967661 3.4743654782938043 0.9436442649704182
  endloop
endfacet
facet normal -0.800503285186071 0.15579637283519426 0.5787244427339364
  outer loop
    vertex 1.8139229999999553 3.550321999999912 0.7966016999999803
    vertex 1.9054446342967661 3.4743654782938043 0.9436442649704182
    vertex 1.9167319999999528 3.4867289999999143 0.9559283999999766
  endloop
endfacet
facet normal -0.800503285186071 0.15579637283519426 0.5787244427339364
  outer loop
    vertex 1.8139229999999553 3.550321999999912 0.7966016999999803
    vertex 1.9167319999999528 3.4867289999999143 0.9559283999999766
    vertex 1.9192416914855337 3.490857735046202 0.9582885738516711
  endloop
endfacet
facet normal -0.800503285186071 0.15579637283519426 0.5787244427339364
  outer loop
    vertex 1.8139229999999553 3.550321999999912 0.7966016999999803
    vertex 1.9192416914855337 3.490857735046202 0.9582885738516711
    vertex 1.923352935631147 3.4976208457246396 0.9621545559167091
  endloop
endfacet
facet normal -0.800503285186071 0.15579637283519426 0.5787244427339364
  outer loop
    vertex 1.8139229999999553 3.550321999999912 0.7966016999999803
    vertex 1.923352935631147 3.4976208457246396 0.9621545559167091
    vertex 1.9317517074746349 3.5148428310639894 0.9691354201928924
  endloop
endfacet
facet normal -0.800503285186071 0.15579637283519426 0.5787244427339364
  outer loop
    vertex 1.8139229999999553 3.550321999999912 0.7966016999999803
    vertex 1.9317517074746349 3.5148428310639894 0.9691354201928924
    vertex 1.9353720610287102 3.524068300783403 0.9716594980528703
  endloop
endfacet
facet normal -0.800503285186071 0.15579637283519426 0.5787244427339364
  outer loop
    vertex 1.8139229999999553 3.550321999999912 0.7966016999999803
    vertex 1.9353720610287102 3.524068300783403 0.9716594980528703
    vertex 1.9367939740444504 3.5288269333066222 0.9723451654040477
  endloop
endfacet
facet normal -0.800503285186071 0.15579637283519426 0.5787244427339364
  outer loop
    vertex 1.8139229999999553 3.550321999999912 0.7966016999999803
    vertex 1.9367939740444504 3.5288269333066222 0.9723451654040477
    vertex 1.9411899999999525 3.549241999999912 0.9729302999999763
  endloop
endfacet
facet normal -0.7798503881483201 0.16833247091728504 0.602907581093318
  outer loop
    vertex 1.8139229999999553 3.550321999999912 0.7966016999999803
    vertex 1.815477999999955 3.505652999999914 0.8110846999999801
    vertex 1.8195109999999555 3.493141999999915 0.8197943999999798
  endloop
endfacet
facet normal -0.8345913781016893 0.1433970682334068 0.531878287224048
  outer loop
    vertex 1.8139229999999553 3.550321999999912 0.7966016999999803
    vertex 1.8134609999999554 3.519666999999914 0.8041414999999802
    vertex 1.815477999999955 3.505652999999914 0.8110846999999801
  endloop
endfacet
facet normal -0.0 -0.0 1.0
  outer loop
    vertex 1.9614669999999517 3.5574659999999128 0.5366016999999867
    vertex 1.960777637211768 3.557327226295691 0.5366016999999867
    vertex 1.961371782564763 3.553296029051996 0.5366016999999867
  endloop
endfacet
facet normal -0.08095539162608403 0.9966534234110295 -0.011321579825383966
  outer loop
    vertex 1.9541489999999515 3.5497999999999124 0.9297447999999773
    vertex 1.9666089999999516 3.5503209999999132 0.8865133999999782
    vertex 1.8653849999999543 3.5381239999999132 0.5366016999999867
  endloop
endfacet
facet normal -0.3485521281491946 0.9317456527006027 0.10179122082083138
  outer loop
    vertex 1.9739229999999515 3.550321999999912 0.7966016999999803
    vertex 1.9647349999999517 3.561108999999912 0.6664014999999835
    vertex 1.8653849999999543 3.5381239999999132 0.5366016999999867
  endloop
endfacet
facet normal -0.08077860751475742 0.9966673084067729 -0.011361906581895863
  outer loop
    vertex 1.9411899999999525 3.549241999999912 0.9729302999999763
    vertex 1.9541489999999515 3.5497999999999124 0.9297447999999773
    vertex 1.8653849999999543 3.5381239999999132 0.5366016999999867
  endloop
endfacet
facet normal -0.0936624376599369 0.995574942207983 -0.007608036485837791
  outer loop
    vertex 1.9666089999999516 3.5503209999999132 0.8865133999999782
    vertex 1.9739229999999515 3.550321999999912 0.7966016999999803
    vertex 1.8653849999999543 3.5381239999999132 0.5366016999999867
  endloop
endfacet
facet normal -0.21033585858220744 0.9775541474726563 -0.012112611340818731
  outer loop
    vertex 1.9647349999999517 3.561108999999912 0.6664014999999835
    vertex 1.9607269999999517 3.5594419999999127 0.6014644999999851
    vertex 1.8653849999999543 3.5381239999999132 0.5366016999999867
  endloop
endfacet
facet normal -0.19724649814836673 0.9798282512196961 -0.032100110279542377
  outer loop
    vertex 1.9607269999999517 3.5594419999999127 0.6014644999999851
    vertex 1.960777637211768 3.557327226295691 0.5366016999999867
    vertex 1.8653849999999543 3.5381239999999132 0.5366016999999867
  endloop
endfacet
facet normal -0.19724649814836673 0.9798282512196961 -0.032100110279542377
  outer loop
    vertex 1.960777637211768 3.557327226295691 0.5366016999999867
    vertex 1.9607269999999517 3.5594419999999127 0.6014644999999851
    vertex 1.9614669999999517 3.5574659999999128 0.5366016999999867
  endloop
endfacet
facet normal 0.057540076120670636 0.9977146980415941 -0.03541921726687868
  outer loop
    vertex 1.9411899999999525 3.549241999999912 0.9729302999999763
    vertex 1.8653849999999543 3.5381239999999132 0.5366016999999867
    vertex 1.8139229999999553 3.550321999999912 0.7966016999999803
  endloop
endfacet
facet normal 0.7259315236873194 0.6786115992722024 0.11184686070798193
  outer loop
    vertex 1.8139229999999553 3.550321999999912 0.7966016999999803
    vertex 1.8653849999999543 3.5381239999999132 0.5366016999999867
    vertex 1.834106999999955 3.550292999999913 0.6657752999999836
  endloop
endfacet
facet normal -0.0 -0.0 1.0
  outer loop
    vertex 1.9316511349201255 3.5456572804251993 0.09160160999999775
    vertex 1.9317849999999526 3.5543619999999123 0.09160160999999775
    vertex 1.9316097149829385 3.5543096094468236 0.09160160999999775
  endloop
endfacet
facet normal -0.0 -0.0 1.0
  outer loop
    vertex 1.9317849999999526 3.5543619999999123 0.09160160999999775
    vertex 1.9316511349201255 3.5456572804251993 0.09160160999999775
    vertex 1.9318179999999525 3.5469149999999128 0.09160160999999775
  endloop
endfacet
facet normal -0.800508073687106 0.1557861875697428 0.5787205610000771
  outer loop
    vertex 1.8682485091687917 3.4565783359087647 0.8969823807927636
    vertex 1.8600006083038532 3.457155983300517 0.885415704231356
    vertex 1.8633119197008488 3.456371232604321 0.8902076453117345
  endloop
endfacet
facet normal -0.800508073687106 0.1557861875697428 0.5787205610000771
  outer loop
    vertex 1.8600006083038532 3.457155983300517 0.885415704231356
    vertex 1.8682485091687917 3.4565783359087647 0.8969823807927636
    vertex 1.8739716785281757 3.457743571312478 0.9045865776892804
  endloop
endfacet
facet normal -0.800508073687106 0.1557861875697428 0.5787205610000771
  outer loop
    vertex 1.8600006083038532 3.457155983300517 0.885415704231356
    vertex 1.8739716785281757 3.457743571312478 0.9045865776892804
    vertex 1.8472739999999546 3.4601719999999148 0.8670022999999786
  endloop
endfacet
facet normal -0.800508073687106 0.1557861875697428 0.5787205610000771
  outer loop
    vertex 1.8472739999999546 3.4601719999999148 0.8670022999999786
    vertex 1.8739716785281757 3.457743571312478 0.9045865776892804
    vertex 1.8843559999999537 3.459856999999915 0.9183796999999775
  endloop
endfacet
facet normal -0.800508073687106 0.1557861875697428 0.5787205610000771
  outer loop
    vertex 1.8472739999999546 3.4601719999999148 0.8670022999999786
    vertex 1.8843559999999537 3.459856999999915 0.9183796999999775
    vertex 1.8888605692582212 3.4622362640185727 0.9239698967098066
  endloop
endfacet
facet normal -0.800508073687106 0.1557861875697428 0.5787205610000771
  outer loop
    vertex 1.8472739999999546 3.4601719999999148 0.8670022999999786
    vertex 1.8888605692582212 3.4622362640185727 0.9239698967098066
    vertex 1.8139229999999553 3.550321999999912 0.7966016999999803
  endloop
endfacet
facet normal -0.800508073687106 0.1557861875697428 0.5787205610000771
  outer loop
    vertex 1.8139229999999553 3.550321999999912 0.7966016999999803
    vertex 1.8888605692582212 3.4622362640185727 0.9239698967098066
    vertex 1.8908062194109192 3.463263947768471 0.9263844944666237
  endloop
endfacet
facet normal -0.800508073687106 0.1557861875697428 0.5787205610000771
  outer loop
    vertex 1.8139229999999553 3.550321999999912 0.7966016999999803
    vertex 1.8908062194109192 3.463263947768471 0.9263844944666237
    vertex 1.9031919999999531 3.471897999999914 0.941192599999977
  endloop
endfacet
endsolid 2015new_separate_human-HUTA
