solid Object01
facet normal 0.13208227085231966 0.982888942853282 -0.12838847200294995
  outer loop
    vertex 2.03434299999995 3.552168999999912 1.0995679999999732
    vertex 2.02996899999995 3.523453999999913 0.8727199999999786
    vertex 2.0262429999999503 3.523830999999913 0.8726378999999785
  endloop
endfacet
facet normal -0.15452346980169632 0.9809409998974349 -0.11780174871649725
  outer loop
    vertex 2.0425569999999498 3.552241999999912 1.099562999999973
    vertex 2.0501769999999504 3.554532999999913 1.099419999999973
    vertex 2.0380059999999505 3.5249829999999136 0.8723866999999784
  endloop
endfacet
facet normal -0.15452346980169632 0.9809409998974349 -0.11780174871649725
  outer loop
    vertex 2.0425569999999498 3.552241999999912 1.099562999999973
    vertex 2.03403499999995 3.523821999999913 0.8726397999999786
    vertex 2.02996899999995 3.523453999999913 0.8727199999999786
  endloop
endfacet
facet normal -0.15452346980169632 0.9809409998974349 -0.11780174871649725
  outer loop
    vertex 2.0425569999999498 3.552241999999912 1.099562999999973
    vertex 2.0380059999999505 3.5249829999999136 0.8723866999999784
    vertex 2.03403499999995 3.523821999999913 0.8726397999999786
  endloop
endfacet
facet normal 0.9960750756773838 0.08849515479380214 -0.0017467662450285028
  outer loop
    vertex 2.0048989999999507 3.5716809999999124 0.981986399999976
    vertex 2.0069899999999503 3.545891999999913 0.8678276999999788
    vertex 2.0067829999999507 3.552795999999912 0.8663222999999787
  endloop
endfacet
facet normal 0.13208227085231966 0.982888942853282 -0.12838847200294995
  outer loop
    vertex 2.03434299999995 3.552168999999912 1.0995679999999732
    vertex 2.0425569999999498 3.552241999999912 1.099562999999973
    vertex 2.02996899999995 3.523453999999913 0.8727199999999786
  endloop
endfacet
facet normal 0.13208227085231966 0.982888942853282 -0.12838847200294995
  outer loop
    vertex 2.03434299999995 3.552168999999912 1.0995679999999732
    vertex 2.0262429999999503 3.523830999999913 0.8726378999999785
    vertex 2.02653699999995 3.5543939999999123 1.0994279999999732
  endloop
endfacet
facet normal 0.3995112237309992 0.9081492097337427 -0.12512311925834568
  outer loop
    vertex 2.02653699999995 3.5543939999999123 1.0994279999999732
    vertex 2.0262429999999503 3.523830999999913 0.8726378999999785
    vertex 2.02237199999995 3.5249829999999136 0.8723866999999784
  endloop
endfacet
facet normal 0.3995112237309992 0.9081492097337427 -0.12512311925834568
  outer loop
    vertex 2.02653699999995 3.5543939999999123 1.0994279999999732
    vertex 2.02237199999995 3.5249829999999136 0.8723866999999784
    vertex 2.0195209999999504 3.5586289999999123 1.0991629999999728
  endloop
endfacet
facet normal 0.6154124426469244 0.780265463298233 -0.11159449905501465
  outer loop
    vertex 2.0195209999999504 3.5586289999999123 1.0991629999999728
    vertex 2.02237199999995 3.5249829999999136 0.8723866999999784
    vertex 2.0166419999999503 3.528351999999913 0.8716520999999786
  endloop
endfacet
facet normal 0.8880333866630521 0.4550235593011867 -0.06595653608725861
  outer loop
    vertex 2.008734999999951 3.571868999999912 1.098332999999973
    vertex 2.0135149999999506 3.564558999999912 1.098790999999973
    vertex 2.0120429999999505 3.5332479999999133 0.8705846999999787
  endloop
endfacet
facet normal 0.6154124426469244 0.780265463298233 -0.11159449905501465
  outer loop
    vertex 2.0195209999999504 3.5586289999999123 1.0991629999999728
    vertex 2.0166419999999503 3.528351999999913 0.8716520999999786
    vertex 2.0135149999999506 3.564558999999912 1.098790999999973
  endloop
endfacet
facet normal 0.7762424747965697 0.6237906339727336 -0.09128452930037825
  outer loop
    vertex 2.0135149999999506 3.564558999999912 1.098790999999973
    vertex 2.0166419999999503 3.528351999999913 0.8716520999999786
    vertex 2.0120429999999505 3.5332479999999133 0.8705846999999787
  endloop
endfacet
facet normal 0.9785693890123652 0.2045576952446593 -0.02362414451698677
  outer loop
    vertex 2.003612999999951 3.5885469999999122 1.0972869999999728
    vertex 2.0069899999999503 3.545891999999913 0.8678276999999788
    vertex 2.0048989999999507 3.5716809999999124 0.981986399999976
  endloop
endfacet
facet normal 0.9575615308975444 0.2857444549503272 -0.03776269336648961
  outer loop
    vertex 2.005446999999951 3.579969999999912 1.097824999999973
    vertex 2.0087499999999503 3.539273999999913 0.8692705999999787
    vertex 2.0069899999999503 3.545891999999913 0.8678276999999788
  endloop
endfacet
facet normal 0.9785693890123652 0.2045576952446593 -0.02362414451698677
  outer loop
    vertex 2.003612999999951 3.5885469999999122 1.0972869999999728
    vertex 2.005446999999951 3.579969999999912 1.097824999999973
    vertex 2.0069899999999503 3.545891999999913 0.8678276999999788
  endloop
endfacet
facet normal 0.8880333866630521 0.4550235593011867 -0.06595653608725861
  outer loop
    vertex 2.008734999999951 3.571868999999912 1.098332999999973
    vertex 2.0120429999999505 3.5332479999999133 0.8705846999999787
    vertex 2.0087499999999503 3.539273999999913 0.8692705999999787
  endloop
endfacet
facet normal 0.9575615308975444 0.2857444549503272 -0.03776269336648961
  outer loop
    vertex 2.005446999999951 3.579969999999912 1.097824999999973
    vertex 2.008734999999951 3.571868999999912 1.098332999999973
    vertex 2.0087499999999503 3.539273999999913 0.8692705999999787
  endloop
endfacet
facet normal -0.405104675553586 0.9091087681366438 -0.09701262568190765
  outer loop
    vertex 2.0501769999999504 3.554532999999913 1.099419999999973
    vertex 2.05612399999995 3.558020999999912 1.099200999999973
    vertex 2.041980999999949 3.527078999999913 0.8719295999999784
  endloop
endfacet
facet normal -0.9596502572151061 0.27951404760865417 0.03071288030139114
  outer loop
    vertex 2.072659999999949 3.587669999999912 1.097341999999973
    vertex 2.0506459999999502 3.5370979999999133 0.8697450999999787
    vertex 2.0687929999999493 3.5742559999999126 1.0981829999999728
  endloop
endfacet
facet normal -0.405104675553586 0.9091087681366438 -0.09701262568190765
  outer loop
    vertex 2.0501769999999504 3.554532999999913 1.099419999999973
    vertex 2.041980999999949 3.527078999999913 0.8719295999999784
    vertex 2.0380059999999505 3.5249829999999136 0.8723866999999784
  endloop
endfacet
facet normal -0.9138934080198151 0.4058868455491175 0.00739644428861041
  outer loop
    vertex 2.0687929999999493 3.5742559999999126 1.0981829999999728
    vertex 2.0506459999999502 3.5370979999999133 0.8697450999999787
    vertex 2.04544099999995 3.529880999999913 0.8713186999999787
  endloop
endfacet
facet normal -0.5954000100047794 0.8002063558907339 -0.07189308783451286
  outer loop
    vertex 2.05612399999995 3.558020999999912 1.099200999999973
    vertex 2.0612229999999494 3.562599999999913 1.0989139999999729
    vertex 2.041980999999949 3.527078999999913 0.8719295999999784
  endloop
endfacet
facet normal -0.7660800122196924 0.6415790831349573 -0.038700064097923446
  outer loop
    vertex 2.0612229999999494 3.562599999999913 1.0989139999999729
    vertex 2.04544099999995 3.529880999999913 0.8713186999999787
    vertex 2.041980999999949 3.527078999999913 0.8719295999999784
  endloop
endfacet
facet normal -0.9138934080198151 0.4058868455491175 0.00739644428861041
  outer loop
    vertex 2.0687929999999493 3.5742559999999126 1.0981829999999728
    vertex 2.04544099999995 3.529880999999913 0.8713186999999787
    vertex 2.0612229999999494 3.562599999999913 1.0989139999999729
  endloop
endfacet
facet normal -0.9596502572151061 0.27951404760865417 0.03071288030139114
  outer loop
    vertex 2.072659999999949 3.587669999999912 1.097341999999973
    vertex 2.0533189999999495 3.5454049999999135 0.8679338999999787
    vertex 2.0506459999999502 3.5370979999999133 0.8697450999999787
  endloop
endfacet
facet normal 0.01263298938741116 0.9831801022814686 -0.182201246035637
  outer loop
    vertex 2.072659999999949 3.587669999999912 1.097341999999973
    vertex 2.0533189999999495 3.5454049999999135 0.8679338999999787
    vertex 2.003612999999951 3.5885469999999122 1.0972869999999728
  endloop
endfacet
facet normal 0.1974162570450488 0.9703099185205604 -0.13973361612349022
  outer loop
    vertex 2.003612999999951 3.5885469999999122 1.0972869999999728
    vertex 2.0533189999999495 3.5454049999999135 0.8679338999999787
    vertex 2.0048989999999507 3.5716809999999124 0.981986399999976
  endloop
endfacet
facet normal 0.16020876445113394 0.9745950895548907 -0.15651697418662253
  outer loop
    vertex 2.0048989999999507 3.5716809999999124 0.981986399999976
    vertex 2.0533189999999495 3.5454049999999135 0.8679338999999787
    vertex 2.0067829999999507 3.552795999999912 0.8663222999999787
  endloop
endfacet
facet normal 7.970045264659459e-07 0.06257389181540662 0.9980403338855794
  outer loop
    vertex 2.005446999999951 3.579969999999912 1.097824999999973
    vertex 2.072659999999949 3.587669999999912 1.097341999999973
    vertex 2.003612999999951 3.5885469999999122 1.0972869999999728
  endloop
endfacet
facet normal 7.970045264659459e-07 0.06257389181540662 0.9980403338855794
  outer loop
    vertex 2.072659999999949 3.587669999999912 1.097341999999973
    vertex 2.005446999999951 3.579969999999912 1.097824999999973
    vertex 2.008734999999951 3.571868999999912 1.098332999999973
  endloop
endfacet
facet normal 7.970045264659459e-07 0.06257389181540662 0.9980403338855794
  outer loop
    vertex 2.072659999999949 3.587669999999912 1.097341999999973
    vertex 2.008734999999951 3.571868999999912 1.098332999999973
    vertex 2.0135149999999506 3.564558999999912 1.098790999999973
  endloop
endfacet
facet normal 7.970045264659459e-07 0.06257389181540662 0.9980403338855794
  outer loop
    vertex 2.072659999999949 3.587669999999912 1.097341999999973
    vertex 2.0135149999999506 3.564558999999912 1.098790999999973
    vertex 2.0195209999999504 3.5586289999999123 1.0991629999999728
  endloop
endfacet
facet normal 7.970045264659459e-07 0.06257389181540662 0.9980403338855794
  outer loop
    vertex 2.072659999999949 3.587669999999912 1.097341999999973
    vertex 2.0195209999999504 3.5586289999999123 1.0991629999999728
    vertex 2.02653699999995 3.5543939999999123 1.0994279999999732
  endloop
endfacet
facet normal 7.970045264659459e-07 0.06257389181540662 0.9980403338855794
  outer loop
    vertex 2.072659999999949 3.587669999999912 1.097341999999973
    vertex 2.02653699999995 3.5543939999999123 1.0994279999999732
    vertex 2.03434299999995 3.552168999999912 1.0995679999999732
  endloop
endfacet
facet normal 7.970045264659459e-07 0.06257389181540662 0.9980403338855794
  outer loop
    vertex 2.072659999999949 3.587669999999912 1.097341999999973
    vertex 2.03434299999995 3.552168999999912 1.0995679999999732
    vertex 2.0425569999999498 3.552241999999912 1.099562999999973
  endloop
endfacet
facet normal 7.970045264659459e-07 0.06257389181540662 0.9980403338855794
  outer loop
    vertex 2.072659999999949 3.587669999999912 1.097341999999973
    vertex 2.0425569999999498 3.552241999999912 1.099562999999973
    vertex 2.0501769999999504 3.554532999999913 1.099419999999973
  endloop
endfacet
facet normal 7.970045264659459e-07 0.06257389181540662 0.9980403338855794
  outer loop
    vertex 2.072659999999949 3.587669999999912 1.097341999999973
    vertex 2.0501769999999504 3.554532999999913 1.099419999999973
    vertex 2.05612399999995 3.558020999999912 1.099200999999973
  endloop
endfacet
facet normal 7.970045264659459e-07 0.06257389181540662 0.9980403338855794
  outer loop
    vertex 2.072659999999949 3.587669999999912 1.097341999999973
    vertex 2.05612399999995 3.558020999999912 1.099200999999973
    vertex 2.0612229999999494 3.562599999999913 1.0989139999999729
  endloop
endfacet
facet normal 7.970045264659459e-07 0.06257389181540662 0.9980403338855794
  outer loop
    vertex 2.072659999999949 3.587669999999912 1.097341999999973
    vertex 2.0612229999999494 3.562599999999913 1.0989139999999729
    vertex 2.0687929999999493 3.5742559999999126 1.0981829999999728
  endloop
endfacet
facet normal -0.0 -0.0 1.0
  outer loop
    vertex 1.9316511349201255 3.5456572804251993 0.09160160999999775
    vertex 1.9317849999999526 3.5543619999999123 0.09160160999999775
    vertex 1.9316097149829385 3.5543096094468236 0.09160160999999775
  endloop
endfacet
facet normal -0.0 -0.0 1.0
  outer loop
    vertex 1.9317849999999526 3.5543619999999123 0.09160160999999775
    vertex 1.9316511349201255 3.5456572804251993 0.09160160999999775
    vertex 1.9318179999999525 3.5469149999999128 0.09160160999999775
  endloop
endfacet
facet normal -7.970045264667263e-07 -0.06257389181540662 -0.9980403338855794
  outer loop
    vertex 2.072659999999949 3.587669999999912 1.097341999999973
    vertex 2.005446999999951 3.579969999999912 1.097824999999973
    vertex 2.003612999999951 3.5885469999999122 1.0972869999999728
  endloop
endfacet
facet normal -7.970045264667263e-07 -0.06257389181540662 -0.9980403338855794
  outer loop
    vertex 2.005446999999951 3.579969999999912 1.097824999999973
    vertex 2.072659999999949 3.587669999999912 1.097341999999973
    vertex 2.008734999999951 3.571868999999912 1.098332999999973
  endloop
endfacet
facet normal -7.970045264667263e-07 -0.06257389181540662 -0.9980403338855794
  outer loop
    vertex 2.008734999999951 3.571868999999912 1.098332999999973
    vertex 2.072659999999949 3.587669999999912 1.097341999999973
    vertex 2.0135149999999506 3.564558999999912 1.098790999999973
  endloop
endfacet
facet normal -7.970045264667263e-07 -0.06257389181540662 -0.9980403338855794
  outer loop
    vertex 2.0135149999999506 3.564558999999912 1.098790999999973
    vertex 2.072659999999949 3.587669999999912 1.097341999999973
    vertex 2.0195209999999504 3.5586289999999123 1.0991629999999728
  endloop
endfacet
facet normal -7.970045264667263e-07 -0.06257389181540662 -0.9980403338855794
  outer loop
    vertex 2.0195209999999504 3.5586289999999123 1.0991629999999728
    vertex 2.072659999999949 3.587669999999912 1.097341999999973
    vertex 2.02653699999995 3.5543939999999123 1.0994279999999732
  endloop
endfacet
facet normal -7.970045264667263e-07 -0.06257389181540662 -0.9980403338855794
  outer loop
    vertex 2.02653699999995 3.5543939999999123 1.0994279999999732
    vertex 2.072659999999949 3.587669999999912 1.097341999999973
    vertex 2.03434299999995 3.552168999999912 1.0995679999999732
  endloop
endfacet
facet normal -7.970045264667263e-07 -0.06257389181540662 -0.9980403338855794
  outer loop
    vertex 2.03434299999995 3.552168999999912 1.0995679999999732
    vertex 2.072659999999949 3.587669999999912 1.097341999999973
    vertex 2.0425569999999498 3.552241999999912 1.099562999999973
  endloop
endfacet
facet normal -7.970045264667263e-07 -0.06257389181540662 -0.9980403338855794
  outer loop
    vertex 2.0425569999999498 3.552241999999912 1.099562999999973
    vertex 2.072659999999949 3.587669999999912 1.097341999999973
    vertex 2.0501769999999504 3.554532999999913 1.099419999999973
  endloop
endfacet
facet normal -7.970045264667263e-07 -0.06257389181540662 -0.9980403338855794
  outer loop
    vertex 2.0501769999999504 3.554532999999913 1.099419999999973
    vertex 2.072659999999949 3.587669999999912 1.097341999999973
    vertex 2.05612399999995 3.558020999999912 1.099200999999973
  endloop
endfacet
facet normal -7.970045264667263e-07 -0.06257389181540662 -0.9980403338855794
  outer loop
    vertex 2.05612399999995 3.558020999999912 1.099200999999973
    vertex 2.072659999999949 3.587669999999912 1.097341999999973
    vertex 2.0612229999999494 3.562599999999913 1.0989139999999729
  endloop
endfacet
facet normal -7.970045264667263e-07 -0.06257389181540662 -0.9980403338855794
  outer loop
    vertex 2.0612229999999494 3.562599999999913 1.0989139999999729
    vertex 2.072659999999949 3.587669999999912 1.097341999999973
    vertex 2.0687929999999493 3.5742559999999126 1.0981829999999728
  endloop
endfacet
endsolid 2015new_separate_human-HUTA
