solid Object01
facet normal 0.2880928750587252 0.951448036609735 -0.10839339911580527
  outer loop
    vertex 1.5574429999999615 3.552241999999912 1.099562999999973
    vertex 1.5619939999999617 3.5249829999999136 0.8723866999999784
    vertex 1.549822999999962 3.554532999999913 1.099419999999973
  endloop
endfacet
facet normal -0.9260890144935876 0.37362782060384775 -0.052548919162192086
  outer loop
    vertex 1.594552999999961 3.579969999999912 1.097824999999973
    vertex 1.591992999999961 3.541413999999913 0.8688039999999787
    vertex 1.589905999999961 3.536394999999913 0.8698983999999788
  endloop
endfacet
facet normal -0.39678352825713925 0.9093565302914267 -0.1250341254224359
  outer loop
    vertex 1.5734629999999614 3.5543939999999123 1.0994279999999732
    vertex 1.5782029999999614 3.525236999999913 0.8723310999999786
    vertex 1.577626999999961 3.524992999999913 0.8723843999999784
  endloop
endfacet
facet normal -0.8344896298098947 0.5452280354183616 -0.07970851355770546
  outer loop
    vertex 1.591263999999961 3.571868999999912 1.098332999999973
    vertex 1.589905999999961 3.536394999999913 0.8698983999999788
    vertex 1.586799999999961 3.5317879999999136 0.8709027999999787
  endloop
endfacet
facet normal -0.6996805575564237 0.7070443361986037 -0.10264221366966007
  outer loop
    vertex 1.5864849999999608 3.564558999999912 1.098790999999973
    vertex 1.586799999999961 3.5317879999999136 0.8709027999999787
    vertex 1.5828519999999613 3.5280009999999136 0.8717285999999786
  endloop
endfacet
facet normal 0.008893350821817905 0.9921304338506914 -0.12489239583897407
  outer loop
    vertex 1.5656569999999614 3.552168999999912 1.0995679999999732
    vertex 1.5674259999999618 3.5235929999999134 0.8726895999999785
    vertex 1.5574429999999615 3.552241999999912 1.099562999999973
  endloop
endfacet
facet normal -0.518770391136421 0.8465324896105112 -0.11941534789965112
  outer loop
    vertex 1.5804779999999614 3.5586289999999123 1.0991629999999728
    vertex 1.5828519999999613 3.5280009999999136 0.8717285999999786
    vertex 1.5782029999999614 3.525236999999913 0.8723310999999786
  endloop
endfacet
facet normal -0.27397831304722703 0.9531203325524992 -0.12844265512207836
  outer loop
    vertex 1.5656569999999614 3.552168999999912 1.0995679999999732
    vertex 1.5734629999999614 3.5543939999999123 1.0994279999999732
    vertex 1.5729949999999613 3.523700999999914 0.8726660999999787
  endloop
endfacet
facet normal -0.9985440446813123 -0.04703724505263393 0.026406219141409122
  outer loop
    vertex 1.5967759999999607 3.5973399999999116 1.0967349999999731
    vertex 1.592553999999961 3.5570909999999123 0.8653858999999788
    vertex 1.593109999999961 3.546574999999913 0.8676787999999785
  endloop
endfacet
facet normal 0.635013191340047 0.7696319829367716 -0.06651960361383498
  outer loop
    vertex 1.5388449999999623 3.5625179999999124 1.098918999999973
    vertex 1.5580189999999619 3.527078999999913 0.8719295999999784
    vertex 1.5545589999999618 3.529880999999913 0.8713186999999787
  endloop
endfacet
facet normal 0.8137676659364623 0.5804328858920507 -0.029662279941835974
  outer loop
    vertex 1.5312579999999625 3.574142999999912 1.0981899999999731
    vertex 1.5545589999999618 3.529880999999913 0.8713186999999787
    vertex 1.5493539999999617 3.5370979999999133 0.8697450999999787
  endloop
endfacet
facet normal 0.9502608799380309 0.3106217457760485 0.022768203935295432
  outer loop
    vertex 1.5273339999999624 3.587779999999912 1.0973349999999729
    vertex 1.5493539999999617 3.5370979999999133 0.8697450999999787
    vertex 1.546681999999962 3.5454049999999135 0.8679338999999787
  endloop
endfacet
facet normal 0.5051980998314727 0.8587639637751305 -0.08543614251530741
  outer loop
    vertex 1.549822999999962 3.554532999999913 1.099419999999973
    vertex 1.5580189999999619 3.527078999999913 0.8719295999999784
    vertex 1.5439149999999622 3.5579869999999123 1.099202999999973
  endloop
endfacet
facet normal -0.27368799271762556 0.9532021651195107 -0.12845433061471415
  outer loop
    vertex 1.5734629999999614 3.5543939999999123 1.0994279999999732
    vertex 1.577626999999961 3.524992999999913 0.8723843999999784
    vertex 1.5729949999999613 3.523700999999914 0.8726660999999787
  endloop
endfacet
facet normal -0.019764784079296004 0.9919481452573056 -0.12509288721142503
  outer loop
    vertex 1.5656569999999614 3.552168999999912 1.0995679999999732
    vertex 1.5729949999999613 3.523700999999914 0.8726660999999787
    vertex 1.5674259999999618 3.5235929999999134 0.8726895999999785
  endloop
endfacet
facet normal -0.5164229707182717 0.8479341566335071 -0.11964523111573828
  outer loop
    vertex 1.5734629999999614 3.5543939999999123 1.0994279999999732
    vertex 1.5804779999999614 3.5586289999999123 1.0991629999999728
    vertex 1.5782029999999614 3.525236999999913 0.8723310999999786
  endloop
endfacet
facet normal -0.7020491347323294 0.7047517133188692 -0.10223519450612878
  outer loop
    vertex 1.5804779999999614 3.5586289999999123 1.0991629999999728
    vertex 1.5864849999999608 3.564558999999912 1.098790999999973
    vertex 1.5828519999999613 3.5280009999999136 0.8717285999999786
  endloop
endfacet
facet normal -0.8366419631299833 0.5420088412443701 -0.07909893515682183
  outer loop
    vertex 1.591263999999961 3.571868999999912 1.098332999999973
    vertex 1.586799999999961 3.5317879999999136 0.8709027999999787
    vertex 1.5864849999999608 3.564558999999912 1.098790999999973
  endloop
endfacet
facet normal 0.25215896634519974 0.9613785420289467 -0.11030482590538489
  outer loop
    vertex 1.5574429999999615 3.552241999999912 1.099562999999973
    vertex 1.5674259999999618 3.5235929999999134 0.8726895999999785
    vertex 1.5619939999999617 3.5249829999999136 0.8723866999999784
  endloop
endfacet
facet normal -0.9774117834019296 0.20992868299888376 -0.02441625936571686
  outer loop
    vertex 1.594552999999961 3.579969999999912 1.097824999999973
    vertex 1.5930839999999609 3.546367999999913 0.8677239999999786
    vertex 1.591992999999961 3.541413999999913 0.8688039999999787
  endloop
endfacet
facet normal -0.9924457876760194 0.12214371719478331 -0.011500907527939468
  outer loop
    vertex 1.594552999999961 3.579969999999912 1.097824999999973
    vertex 1.593109999999961 3.546574999999913 0.8676787999999785
    vertex 1.5930839999999609 3.546367999999913 0.8677239999999786
  endloop
endfacet
facet normal -0.9264158792408563 0.37283878430949713 -0.052391407740272206
  outer loop
    vertex 1.594552999999961 3.579969999999912 1.097824999999973
    vertex 1.589905999999961 3.536394999999913 0.8698983999999788
    vertex 1.591263999999961 3.571868999999912 1.098332999999973
  endloop
endfacet
facet normal 0.9600292472408379 0.27818476621387167 0.030936714252220908
  outer loop
    vertex 1.5273339999999624 3.587779999999912 1.0973349999999729
    vertex 1.5312579999999625 3.574142999999912 1.0981899999999731
    vertex 1.5493539999999617 3.5370979999999133 0.8697450999999787
  endloop
endfacet
facet normal -0.9919326461570549 0.12618808889269073 -0.012090976365605233
  outer loop
    vertex 1.594552999999961 3.579969999999912 1.097824999999973
    vertex 1.5967759999999607 3.5973399999999116 1.0967349999999731
    vertex 1.593109999999961 3.546574999999913 0.8676787999999785
  endloop
endfacet
facet normal -0.9919326461570549 0.12618808889269073 -0.012090976365605233
  outer loop
    vertex 1.5967759999999607 3.5973399999999116 1.0967349999999731
    vertex 1.594552999999961 3.579969999999912 1.097824999999973
    vertex 1.5956496282795922 3.5885388027902168 1.0972874022935046
  endloop
endfacet
facet normal 0.6670300230158198 0.7426429954310039 -0.05960142391571644
  outer loop
    vertex 1.5439149999999622 3.5579869999999123 1.099202999999973
    vertex 1.5580189999999619 3.527078999999913 0.8719295999999784
    vertex 1.5388449999999623 3.5625179999999124 1.098918999999973
  endloop
endfacet
facet normal 0.8378405289698918 0.5455344645512682 -0.020381265961982153
  outer loop
    vertex 1.5312579999999625 3.574142999999912 1.0981899999999731
    vertex 1.5388449999999623 3.5625179999999124 1.098918999999973
    vertex 1.5545589999999618 3.529880999999913 0.8713186999999787
  endloop
endfacet
facet normal 0.4725527574006788 0.87681812953933 -0.08879109856379654
  outer loop
    vertex 1.549822999999962 3.554532999999913 1.099419999999973
    vertex 1.5619939999999617 3.5249829999999136 0.8723866999999784
    vertex 1.5580189999999619 3.527078999999913 0.8719295999999784
  endloop
endfacet
facet normal -2.1801471003513237e-06 0.06257858422567827 0.9980400396735377
  outer loop
    vertex 1.5312579999999625 3.574142999999912 1.0981899999999731
    vertex 1.5956496282795922 3.5885388027902168 1.0972874022935046
    vertex 1.5273339999999624 3.587779999999912 1.0973349999999729
  endloop
endfacet
facet normal -2.1801471003513237e-06 0.06257858422567827 0.9980400396735377
  outer loop
    vertex 1.5956496282795922 3.5885388027902168 1.0972874022935046
    vertex 1.5312579999999625 3.574142999999912 1.0981899999999731
    vertex 1.5388449999999623 3.5625179999999124 1.098918999999973
  endloop
endfacet
facet normal -2.1801471003513237e-06 0.06257858422567827 0.9980400396735377
  outer loop
    vertex 1.5956496282795922 3.5885388027902168 1.0972874022935046
    vertex 1.5388449999999623 3.5625179999999124 1.098918999999973
    vertex 1.5439149999999622 3.5579869999999123 1.099202999999973
  endloop
endfacet
facet normal -2.1801471003513237e-06 0.06257858422567827 0.9980400396735377
  outer loop
    vertex 1.5956496282795922 3.5885388027902168 1.0972874022935046
    vertex 1.5439149999999622 3.5579869999999123 1.099202999999973
    vertex 1.549822999999962 3.554532999999913 1.099419999999973
  endloop
endfacet
facet normal -2.1801471003513237e-06 0.06257858422567827 0.9980400396735377
  outer loop
    vertex 1.5956496282795922 3.5885388027902168 1.0972874022935046
    vertex 1.549822999999962 3.554532999999913 1.099419999999973
    vertex 1.5574429999999615 3.552241999999912 1.099562999999973
  endloop
endfacet
facet normal -2.1801471003513237e-06 0.06257858422567827 0.9980400396735377
  outer loop
    vertex 1.5956496282795922 3.5885388027902168 1.0972874022935046
    vertex 1.5574429999999615 3.552241999999912 1.099562999999973
    vertex 1.5656569999999614 3.552168999999912 1.0995679999999732
  endloop
endfacet
facet normal -2.1801471003513237e-06 0.06257858422567827 0.9980400396735377
  outer loop
    vertex 1.5956496282795922 3.5885388027902168 1.0972874022935046
    vertex 1.5656569999999614 3.552168999999912 1.0995679999999732
    vertex 1.5734629999999614 3.5543939999999123 1.0994279999999732
  endloop
endfacet
facet normal -2.1801471003513237e-06 0.06257858422567827 0.9980400396735377
  outer loop
    vertex 1.5956496282795922 3.5885388027902168 1.0972874022935046
    vertex 1.5734629999999614 3.5543939999999123 1.0994279999999732
    vertex 1.5804779999999614 3.5586289999999123 1.0991629999999728
  endloop
endfacet
facet normal -2.1801471003513237e-06 0.06257858422567827 0.9980400396735377
  outer loop
    vertex 1.5956496282795922 3.5885388027902168 1.0972874022935046
    vertex 1.5804779999999614 3.5586289999999123 1.0991629999999728
    vertex 1.5864849999999608 3.564558999999912 1.098790999999973
  endloop
endfacet
facet normal -2.1801471003513237e-06 0.06257858422567827 0.9980400396735377
  outer loop
    vertex 1.5956496282795922 3.5885388027902168 1.0972874022935046
    vertex 1.5864849999999608 3.564558999999912 1.098790999999973
    vertex 1.591263999999961 3.571868999999912 1.098332999999973
  endloop
endfacet
facet normal -2.1801471003513237e-06 0.06257858422567827 0.9980400396735377
  outer loop
    vertex 1.5956496282795922 3.5885388027902168 1.0972874022935046
    vertex 1.591263999999961 3.571868999999912 1.098332999999973
    vertex 1.594552999999961 3.579969999999912 1.097824999999973
  endloop
endfacet
facet normal 1.6692066203360466e-07 0.0626326908513573 0.9980366456381702
  outer loop
    vertex 1.5967759999999607 3.5973399999999116 1.0967349999999731
    vertex 1.5273339999999624 3.587779999999912 1.0973349999999729
    vertex 1.5956496282795922 3.5885388027902168 1.0972874022935046
  endloop
endfacet
facet normal 2.0212775080120653e-08 -0.21303011478793538 -0.9770456336289716
  outer loop
    vertex 1.5923757868733597 3.5570456052586983 0.8653958240980717
    vertex 1.5493539999999617 3.5370979999999133 0.8697450999999787
    vertex 1.546681999999962 3.5454049999999135 0.8679338999999787
  endloop
endfacet
facet normal 2.0212775080120653e-08 -0.21303011478793538 -0.9770456336289716
  outer loop
    vertex 1.5493539999999617 3.5370979999999133 0.8697450999999787
    vertex 1.5923757868733597 3.5570456052586983 0.8653958240980717
    vertex 1.5545589999999618 3.529880999999913 0.8713186999999787
  endloop
endfacet
facet normal 2.0212775080120653e-08 -0.21303011478793538 -0.9770456336289716
  outer loop
    vertex 1.5545589999999618 3.529880999999913 0.8713186999999787
    vertex 1.5923757868733597 3.5570456052586983 0.8653958240980717
    vertex 1.5580189999999619 3.527078999999913 0.8719295999999784
  endloop
endfacet
facet normal 2.0212775080120653e-08 -0.21303011478793538 -0.9770456336289716
  outer loop
    vertex 1.5580189999999619 3.527078999999913 0.8719295999999784
    vertex 1.5923757868733597 3.5570456052586983 0.8653958240980717
    vertex 1.5619939999999617 3.5249829999999136 0.8723866999999784
  endloop
endfacet
facet normal 2.0212775080120653e-08 -0.21303011478793538 -0.9770456336289716
  outer loop
    vertex 1.5619939999999617 3.5249829999999136 0.8723866999999784
    vertex 1.5923757868733597 3.5570456052586983 0.8653958240980717
    vertex 1.5674259999999618 3.5235929999999134 0.8726895999999785
  endloop
endfacet
facet normal 2.0212775080120653e-08 -0.21303011478793538 -0.9770456336289716
  outer loop
    vertex 1.5674259999999618 3.5235929999999134 0.8726895999999785
    vertex 1.5923757868733597 3.5570456052586983 0.8653958240980717
    vertex 1.5729949999999613 3.523700999999914 0.8726660999999787
  endloop
endfacet
facet normal 2.0212775080120653e-08 -0.21303011478793538 -0.9770456336289716
  outer loop
    vertex 1.5729949999999613 3.523700999999914 0.8726660999999787
    vertex 1.5923757868733597 3.5570456052586983 0.8653958240980717
    vertex 1.577626999999961 3.524992999999913 0.8723843999999784
  endloop
endfacet
facet normal 2.0212775080120653e-08 -0.21303011478793538 -0.9770456336289716
  outer loop
    vertex 1.577626999999961 3.524992999999913 0.8723843999999784
    vertex 1.5923757868733597 3.5570456052586983 0.8653958240980717
    vertex 1.583505999999961 3.528520999999913 0.8716151999999786
  endloop
endfacet
facet normal 2.0212775080120653e-08 -0.21303011478793538 -0.9770456336289716
  outer loop
    vertex 1.583505999999961 3.528520999999913 0.8716151999999786
    vertex 1.5923757868733597 3.5570456052586983 0.8653958240980717
    vertex 1.5882229999999609 3.5336459999999135 0.8704977999999786
  endloop
endfacet
facet normal 2.0212775080120653e-08 -0.21303011478793538 -0.9770456336289716
  outer loop
    vertex 1.5882229999999609 3.5336459999999135 0.8704977999999786
    vertex 1.5923757868733597 3.5570456052586983 0.8653958240980717
    vertex 1.5914589999999609 3.5398549999999136 0.8691439999999787
  endloop
endfacet
facet normal 2.0212775080120653e-08 -0.21303011478793538 -0.9770456336289716
  outer loop
    vertex 1.5914589999999609 3.5398549999999136 0.8691439999999787
    vertex 1.5923757868733597 3.5570456052586983 0.8653958240980717
    vertex 1.5930839999999609 3.546367999999913 0.8677239999999786
  endloop
endfacet
facet normal 2.0212775080120653e-08 -0.21303011478793538 -0.9770456336289716
  outer loop
    vertex 1.5930839999999609 3.546367999999913 0.8677239999999786
    vertex 1.5923757868733597 3.5570456052586983 0.8653958240980717
    vertex 1.592553999999961 3.5570909999999123 0.8653858999999788
  endloop
endfacet
facet normal 2.0212775080120653e-08 -0.21303011478793538 -0.9770456336289716
  outer loop
    vertex 1.5930839999999609 3.546367999999913 0.8677239999999786
    vertex 1.592553999999961 3.5570909999999123 0.8653858999999788
    vertex 1.593109999999961 3.546574999999913 0.8676787999999785
  endloop
endfacet
facet normal -0.25228960094347436 0.947530350617303 -0.1963063725782568
  outer loop
    vertex 1.5273339999999624 3.587779999999912 1.0973349999999729
    vertex 1.5923757868733597 3.5570456052586983 0.8653958240980717
    vertex 1.546681999999962 3.5454049999999135 0.8679338999999787
  endloop
endfacet
facet normal -0.13587596384076578 0.97646460776114 -0.16749505139026036
  outer loop
    vertex 1.5273339999999624 3.587779999999912 1.0973349999999729
    vertex 1.5967759999999607 3.5973399999999116 1.0967349999999731
    vertex 1.5923757868733597 3.5570456052586983 0.8653958240980717
  endloop
endfacet
facet normal -0.0 -0.0 1.0
  outer loop
    vertex 1.9316511349201255 3.5456572804251993 0.09160160999999775
    vertex 1.9317849999999526 3.5543619999999123 0.09160160999999775
    vertex 1.9316097149829385 3.5543096094468236 0.09160160999999775
  endloop
endfacet
facet normal -0.0 -0.0 1.0
  outer loop
    vertex 1.9317849999999526 3.5543619999999123 0.09160160999999775
    vertex 1.9316511349201255 3.5456572804251993 0.09160160999999775
    vertex 1.9318179999999525 3.5469149999999128 0.09160160999999775
  endloop
endfacet
endsolid 2015new_separate_human-HUTA
