solid Object01
facet normal 8.7450741019351e-06 -0.06258106502003029 -0.9980398840850412
   outer loop
      vertex 1.5967759999999411 3.5973399999998676 1.0967349999999596
      vertex 1.5618109999999428 3.638735999999866 1.0941389999999593
      vertex 1.570029999999942 3.637556999999866 1.0942129999999597
   endloop
endfacet
facet normal -7.415931989525309e-06 0.213030606383879 0.9770455264155917
   outer loop
      vertex 1.5489839999999426 3.562743999999868 0.8641533999999681
      vertex 1.5465279999999428 3.5540489999998686 0.8660491999999681
      vertex 1.5466819999999428 3.5454049999998705 0.8679338999999681
   endloop
endfacet
facet normal 3.154719571851098e-08 0.21302621536194727 0.9770464838320458
   outer loop
      vertex 1.5923757868733401 3.5570456052586543 0.865395824098061
      vertex 1.5540369999999426 3.5702089999998683 0.8625257999999681
      vertex 1.5489839999999426 3.562743999999868 0.8641533999999681
   endloop
endfacet
facet normal -1.0461050223842756e-05 0.2130208550771667 0.9770476524677593
   outer loop
      vertex 1.5923757868733401 3.5570456052586543 0.865395824098061
      vertex 1.575229999999942 3.576471999999868 0.8611601999999682
      vertex 1.5698109999999421 3.5771899999998675 0.8610035999999681
   endloop
endfacet
facet normal -0.25228960094346237 0.9475303506173065 -0.1963063725782556
   outer loop
      vertex 1.5273339999999438 3.587779999999868 1.0973349999999593
      vertex 1.5923757868733401 3.5570456052586543 0.865395824098061
      vertex 1.5466819999999428 3.5454049999998705 0.8679338999999681
   endloop
endfacet
facet normal 4.2298812156078386e-05 0.21304357178176367 0.9770426985210416
   outer loop
      vertex 1.5923757868733401 3.5570456052586543 0.865395824098061
      vertex 1.5887749999999414 3.566153999999868 0.863409899999968
      vertex 1.5843279999999418 3.571427999999868 0.8622600999999681
   endloop
endfacet
facet normal -2.898798145172858e-06 0.21301806794072656 0.9770482601808352
   outer loop
      vertex 1.5923757868733401 3.5570456052586543 0.865395824098061
      vertex 1.5573699999999426 3.5731059999998687 0.8618941999999682
      vertex 1.5540369999999426 3.5702089999998683 0.8625257999999681
   endloop
endfacet
facet normal 4.9374529131922914e-05 -0.0625461756667603 -0.9980420699908489
   outer loop
      vertex 1.5967759999999411 3.5973399999998676 1.0967349999999596
      vertex 1.577428999999942 3.6342329999998664 1.0944219999999596
      vertex 1.5838559999999418 3.629083999999866 1.0947449999999594
   endloop
endfacet
facet normal -2.815625978262979e-06 -0.06256733431284059 -0.9980407449944403
   outer loop
      vertex 1.5967759999999411 3.5973399999998676 1.0967349999999596
      vertex 1.5838559999999418 3.629083999999866 1.0947449999999594
      vertex 1.5891539999999413 3.622431999999866 1.0951619999999593
   endloop
endfacet
facet normal 0.00010630368335650277 -0.06251643807186925 -0.9980439287277555
   outer loop
      vertex 1.5967759999999411 3.5973399999998676 1.0967349999999596
      vertex 1.570029999999942 3.637556999999866 1.0942129999999597
      vertex 1.577428999999942 3.6342329999998664 1.0944219999999596
   endloop
endfacet
facet normal 6.298395524625032e-06 0.21303720474454615 0.9770440877232514
   outer loop
      vertex 1.5923757868733401 3.5570456052586543 0.865395824098061
      vertex 1.5611529999999427 3.575304999999868 0.8614146999999681
      vertex 1.5573699999999426 3.5731059999998687 0.8618941999999682
   endloop
endfacet
facet normal 1.9069446785915807e-05 0.2130580515505357 0.9770395418333105
   outer loop
      vertex 1.5923757868733401 3.5570456052586543 0.865395824098061
      vertex 1.5653219999999426 3.5767009999998676 0.8611101999999682
      vertex 1.5611529999999427 3.575304999999868 0.8614146999999681
   endloop
endfacet
facet normal 4.976340833892943e-07 0.2130296034305569 0.9770457451224952
   outer loop
      vertex 1.5923757868733401 3.5570456052586543 0.865395824098061
      vertex 1.5489839999999426 3.562743999999868 0.8641533999999681
      vertex 1.5466819999999428 3.5454049999998705 0.8679338999999681
   endloop
endfacet
facet normal -1.3726728144076074e-05 0.21301810356992648 0.9770482523207588
   outer loop
      vertex 1.5923757868733401 3.5570456052586543 0.865395824098061
      vertex 1.5801569999999416 3.5744449999998675 0.8616021999999682
      vertex 1.575229999999942 3.576471999999868 0.8611601999999682
   endloop
endfacet
facet normal 1.5070855160257326e-06 -0.06257865998767428 -0.9980400349243891
   outer loop
      vertex 1.5967759999999411 3.5973399999998676 1.0967349999999596
      vertex 1.5489189999999429 3.635742999999866 1.0943269999999594
      vertex 1.5551059999999428 3.637959999999866 1.0941879999999595
   endloop
endfacet
facet normal -3.901011153457017e-06 0.2130278698583328 0.9770461230916396
   outer loop
      vertex 1.5923757868733401 3.5570456052586543 0.865395824098061
      vertex 1.5698109999999421 3.5771899999998675 0.8610035999999681
      vertex 1.5653219999999426 3.5767009999998676 0.8611101999999682
   endloop
endfacet
facet normal -0.13587730683591986 0.976480102253259 -0.16740360626486486
   outer loop
      vertex 1.5273339999999438 3.587779999999868 1.0973349999999593
      vertex 1.5967759999999411 3.5973399999998676 1.0967349999999596
      vertex 1.5925539999999414 3.5570909999998683 0.8653858999999682
   endloop
endfacet
facet normal -0.00018046078814257862 -0.06262108384077364 -0.9980373576637853
   outer loop
      vertex 1.5967759999999411 3.5973399999998676 1.0967349999999596
      vertex 1.5891539999999413 3.622431999999866 1.0951619999999593
      vertex 1.5931719999999414 3.6145949999998663 1.0956529999999598
   endloop
endfacet
facet normal 0.00010078065684552897 0.2130656409854536 0.9770378818012723
   outer loop
      vertex 1.5923757868733401 3.5570456052586543 0.865395824098061
      vertex 1.5918129999999413 3.5597569999998684 0.8648045999999682
      vertex 1.5887749999999414 3.566153999999868 0.863409899999968
   endloop
endfacet
facet normal -4.555634007668038e-05 -0.06262675076066608 -0.9980370173564613
   outer loop
      vertex 1.5967759999999411 3.5973399999998676 1.0967349999999596
      vertex 1.5551059999999428 3.637959999999866 1.0941879999999595
      vertex 1.5618109999999428 3.638735999999866 1.0941389999999593
   endloop
endfacet
facet normal -4.645731417155321e-05 0.21299616117240833 0.9770530349819991
   outer loop
      vertex 1.5923757868733401 3.5570456052586543 0.865395824098061
      vertex 1.5843279999999418 3.571427999999868 0.8622600999999681
      vertex 1.5801569999999416 3.5744449999998675 0.8616021999999682
   endloop
endfacet
facet normal -0.13428191207108167 -0.9592463125381042 0.24862598410581255
   outer loop
      vertex 1.5618109999999428 3.638735999999866 1.0941389999999593
      vertex 1.5698109999999421 3.5771899999998675 0.8610035999999681
      vertex 1.575229999999942 3.576471999999868 0.8611601999999682
   endloop
endfacet
facet normal -0.40468283930595367 -0.8867505399535774 0.22339489578616303
   outer loop
      vertex 1.577428999999942 3.6342329999998664 1.0944219999999596
      vertex 1.570029999999942 3.637556999999866 1.0942129999999597
      vertex 1.575229999999942 3.576471999999868 0.8611601999999682
   endloop
endfacet
facet normal -0.9781672886473726 -0.20099476089075155 0.05281913966279132
   outer loop
      vertex 1.5931719999999414 3.6145949999998663 1.0956529999999598
      vertex 1.5925539999999414 3.5570909999998683 0.8653858999999682
      vertex 1.5967759999999411 3.5973399999998676 1.0967349999999596
   endloop
endfacet
facet normal -0.13974243154795615 -0.9585928075573803 0.24813682137950446
   outer loop
      vertex 1.570029999999942 3.637556999999866 1.0942129999999597
      vertex 1.5618109999999428 3.638735999999866 1.0941389999999593
      vertex 1.575229999999942 3.576471999999868 0.8611601999999682
   endloop
endfacet
facet normal 0.9589093832580834 -0.2510060453505791 0.1322450751335003
   outer loop
      vertex 1.5309649999999433 3.6158339999998677 1.0955759999999597
      vertex 1.5272249999999439 3.602002999999867 1.0964429999999599
      vertex 1.5489839999999426 3.562743999999868 0.8641533999999681
   endloop
endfacet
facet normal -0.7779636805648434 -0.6102304275347097 0.14963735173013337
   outer loop
      vertex 1.5838559999999418 3.629083999999866 1.0947449999999594
      vertex 1.584471999999942 3.5712969999998676 0.8622885999999681
      vertex 1.5891539999999413 3.622431999999866 1.0951619999999593
   endloop
endfacet
facet normal 0.510397976895741 -0.8255697175138054 0.24068349902914035
   outer loop
      vertex 1.5433309999999434 3.632252999999866 1.0945459999999596
      vertex 1.5573699999999426 3.5731059999998687 0.8618941999999682
      vertex 1.5611529999999427 3.575304999999868 0.8614146999999681
   endloop
endfacet
facet normal -0.38790592318852085 -0.8938176398993644 0.2249867137410376
   outer loop
      vertex 1.577428999999942 3.6342329999998664 1.0944219999999596
      vertex 1.575229999999942 3.576471999999868 0.8611601999999682
      vertex 1.5801569999999416 3.5744449999998675 0.8616021999999682
   endloop
endfacet
facet normal -0.8743251959576789 -0.47120498681314815 0.11628117696337252
   outer loop
      vertex 1.5891539999999413 3.622431999999866 1.0951619999999593
      vertex 1.5880579999999413 3.567217999999868 0.8631779999999681
      vertex 1.5907959999999415 3.5623969999998684 0.8642290999999681
   endloop
endfacet
facet normal -0.887232253860535 -0.44797943091389786 0.11015151922518121
   outer loop
      vertex 1.5891539999999413 3.622431999999866 1.0951619999999593
      vertex 1.5907959999999415 3.5623969999998684 0.8642290999999681
      vertex 1.5931719999999414 3.6145949999998663 1.0956529999999598
   endloop
endfacet
facet normal 0.11068337234939336 -0.9600075471302061 0.2571666785149479
   outer loop
      vertex 1.5551059999999428 3.637959999999866 1.0941879999999595
      vertex 1.5653219999999426 3.5767009999998676 0.8611101999999682
      vertex 1.5698109999999421 3.5771899999998675 0.8610035999999681
   endloop
endfacet
facet normal 0.3313598951767546 -0.9088417976876444 0.2533914099655727
   outer loop
      vertex 1.5489189999999429 3.635742999999866 1.0943269999999594
      vertex 1.5653219999999426 3.5767009999998676 0.8611101999999682
      vertex 1.5551059999999428 3.637959999999866 1.0941879999999595
   endloop
endfacet
facet normal -0.5948728053212612 -0.7804670920128817 0.19234724789860883
   outer loop
      vertex 1.5838559999999418 3.629083999999866 1.0947449999999594
      vertex 1.5801569999999416 3.5744449999998675 0.8616021999999682
      vertex 1.5843279999999418 3.571427999999868 0.8622600999999681
   endloop
endfacet
facet normal 0.11295314120978492 -0.9597245423411169 0.257236060300604
   outer loop
      vertex 1.5551059999999428 3.637959999999866 1.0941879999999595
      vertex 1.5698109999999421 3.5771899999998675 0.8610035999999681
      vertex 1.5618109999999428 3.638735999999866 1.0941389999999593
   endloop
endfacet
facet normal 0.8366232912466092 -0.5160059329389264 0.18384598368068783
   outer loop
      vertex 1.5384219999999433 3.627659999999866 1.09483399999996
      vertex 1.5309649999999433 3.6158339999998677 1.0955759999999597
      vertex 1.5540369999999426 3.5702089999998683 0.8625257999999681
   endloop
endfacet
facet normal 0.9966447420305617 0.012708859351725794 0.08085631129858115
   outer loop
      vertex 1.5272249999999439 3.602002999999867 1.0964429999999599
      vertex 1.5273339999999438 3.587779999999868 1.0973349999999593
      vertex 1.5465279999999428 3.5540489999998686 0.8660491999999681
   endloop
endfacet
facet normal -0.7584814660329349 -0.633168828486245 0.15428253406619336
   outer loop
      vertex 1.5891539999999413 3.622431999999866 1.0951619999999593
      vertex 1.584471999999942 3.5712969999998676 0.8622885999999681
      vertex 1.5880579999999413 3.567217999999868 0.8631779999999681
   endloop
endfacet
facet normal 0.6733163598338028 -0.70584109080209 0.22007597350795158
   outer loop
      vertex 1.5384219999999433 3.627659999999866 1.09483399999996
      vertex 1.5573699999999426 3.5731059999998687 0.8618941999999682
      vertex 1.5433309999999434 3.632252999999866 1.0945459999999596
   endloop
endfacet
facet normal 0.8320948953009717 -0.5229555300150804 0.18475821724814084
   outer loop
      vertex 1.5309649999999433 3.6158339999998677 1.0955759999999597
      vertex 1.5489839999999426 3.562743999999868 0.8641533999999681
      vertex 1.5540369999999426 3.5702089999998683 0.8625257999999681
   endloop
endfacet
facet normal -0.951326142763301 -0.29839360738034554 0.07707026125324562
   outer loop
      vertex 1.5931719999999414 3.6145949999998663 1.0956529999999598
      vertex 1.5907959999999415 3.5623969999998684 0.8642290999999681
      vertex 1.5925539999999414 3.5570909999998683 0.8653858999999682
   endloop
endfacet
facet normal -0.6197982301051209 -0.7618176445311626 0.18837205323388767
   outer loop
      vertex 1.5838559999999418 3.629083999999866 1.0947449999999594
      vertex 1.577428999999942 3.6342329999998664 1.0944219999999596
      vertex 1.5801569999999416 3.5744449999998675 0.8616021999999682
   endloop
endfacet
facet normal 0.3237495163722256 -0.9115394556251784 0.2535390926214409
   outer loop
      vertex 1.5489189999999429 3.635742999999866 1.0943269999999594
      vertex 1.5611529999999427 3.575304999999868 0.8614146999999681
      vertex 1.5653219999999426 3.5767009999998676 0.8611101999999682
   endloop
endfacet
facet normal 0.00010784711861329093 -0.0625915229643365 -0.9980392224867739
   outer loop
      vertex 1.5309649999999433 3.6158339999998677 1.0955759999999597
      vertex 1.5273339999999438 3.587779999999868 1.0973349999999593
      vertex 1.5272249999999439 3.602002999999867 1.0964429999999599
   endloop
endfacet
facet normal -8.533407491034933e-06 -0.06257651930785908 -0.9980401691106896
   outer loop
      vertex 1.5967759999999411 3.5973399999998676 1.0967349999999596
      vertex 1.5273339999999438 3.587779999999868 1.0973349999999593
      vertex 1.5309649999999433 3.6158339999998677 1.0955759999999597
   endloop
endfacet
facet normal 0.9963789463932108 0.03467749018858409 0.07763032177297532
   outer loop
      vertex 1.5273339999999438 3.587779999999868 1.0973349999999593
      vertex 1.5466819999999428 3.5454049999998705 0.8679338999999681
      vertex 1.5465279999999428 3.5540489999998686 0.8660491999999681
   endloop
endfacet
facet normal 0.6632990212780951 -0.7148622379381758 0.22137386734107495
   outer loop
      vertex 1.5384219999999433 3.627659999999866 1.09483399999996
      vertex 1.5540369999999426 3.5702089999998683 0.8625257999999681
      vertex 1.5573699999999426 3.5731059999998687 0.8618941999999682
   endloop
endfacet
facet normal -1.7662470689412916e-05 -0.06260887794158808 -0.9980381395973464
   outer loop
      vertex 1.5967759999999411 3.5973399999998676 1.0967349999999596
      vertex 1.5309649999999433 3.6158339999998677 1.0955759999999597
      vertex 1.5384219999999433 3.627659999999866 1.09483399999996
   endloop
endfacet
facet normal -2.075754539151059e-06 -0.06257899718919584 -0.9980400137802521
   outer loop
      vertex 1.5967759999999411 3.5973399999998676 1.0967349999999596
      vertex 1.5384219999999433 3.627659999999866 1.09483399999996
      vertex 1.5433309999999434 3.632252999999866 1.0945459999999596
   endloop
endfacet
facet normal 0.9611517241651649 -0.24290687188373672 0.13108628733009658
   outer loop
      vertex 1.5272249999999439 3.602002999999867 1.0964429999999599
      vertex 1.5465279999999428 3.5540489999998686 0.8660491999999681
      vertex 1.5489839999999426 3.562743999999868 0.8641533999999681
   endloop
endfacet
facet normal -1.6573089103346563e-05 -0.06260110285500763 -0.9980386273319634
   outer loop
      vertex 1.5967759999999411 3.5973399999998676 1.0967349999999596
      vertex 1.5433309999999434 3.632252999999866 1.0945459999999596
      vertex 1.5489189999999429 3.635742999999866 1.0943269999999594
   endloop
endfacet
facet normal 0.5210006186830618 -0.8191427174335193 0.2399240792573695
   outer loop
      vertex 1.5433309999999434 3.632252999999866 1.0945459999999596
      vertex 1.5611529999999427 3.575304999999868 0.8614146999999681
      vertex 1.5489189999999429 3.635742999999866 1.0943269999999594
   endloop
endfacet
endsolid Object01
