solid Object01
facet normal 0.29538458400382017 -0.9256920260264944 0.23630958610232947
  outer loop
    vertex 2.0299699999999503 3.6375569999999104 1.0942129999999732
    vertex 2.0223389999999504 3.5756729999999126 0.8613343999999787
    vertex 2.0258059999999505 3.576720999999912 0.8611059999999789
  endloop
endfacet
facet normal 0.6198394017487698 -0.7618979405346071 0.18791126695558033
  outer loop
    vertex 2.0161439999999504 3.629083999999911 1.094744999999973
    vertex 2.0191299999999504 3.574033999999912 0.8616917999999788
    vertex 2.0225709999999504 3.634232999999911 1.0944219999999731
  endloop
endfacet
facet normal 0.6075168761216444 -0.7712567076873047 0.1899640388987821
  outer loop
    vertex 2.0161439999999504 3.629083999999911 1.094744999999973
    vertex 2.0156599999999507 3.5714399999999125 0.8622573999999787
    vertex 2.0191299999999504 3.574033999999912 0.8616917999999788
  endloop
endfacet
facet normal 0.7728723046288623 -0.6163529219087605 0.15092208715825794
  outer loop
    vertex 2.010844999999951 3.6224319999999106 1.0951619999999729
    vertex 2.01112199999995 3.5660379999999123 0.8634351999999786
    vertex 2.0156599999999507 3.5714399999999125 0.8622573999999787
  endloop
endfacet
facet normal 0.4630980534887035 -0.8597023850831141 0.21552726495127883
  outer loop
    vertex 2.0225709999999504 3.634232999999911 1.0944219999999731
    vertex 2.0191299999999504 3.574033999999912 0.8616917999999788
    vertex 2.0223389999999504 3.5756729999999126 0.8613343999999787
  endloop
endfacet
facet normal 0.9100878184006662 -0.40195025856732974 0.10087691726243866
  outer loop
    vertex 2.006827999999951 3.6145949999999107 1.0956529999999733
    vertex 2.0081569999999505 3.5596729999999126 0.8648229999999787
    vertex 2.01112199999995 3.5660379999999123 0.8634351999999786
  endloop
endfacet
facet normal 0.1087946441203963 -0.9623211764997422 0.2492020840018569
  outer loop
    vertex 2.0299699999999503 3.6375569999999104 1.0942129999999732
    vertex 2.0258059999999505 3.576720999999912 0.8611059999999789
    vertex 2.0301889999999503 3.577189999999912 0.8610035999999788
  endloop
endfacet
facet normal 0.40475037579003115 -0.8869613038812034 0.2224337625343429
  outer loop
    vertex 2.0225709999999504 3.634232999999911 1.0944219999999731
    vertex 2.0223389999999504 3.5756729999999126 0.8613343999999787
    vertex 2.0299699999999503 3.6375569999999104 1.0942129999999732
  endloop
endfacet
facet normal 0.1397390903976579 -0.9585619073042104 0.24825804413986177
  outer loop
    vertex 2.0299699999999503 3.6375569999999104 1.0942129999999732
    vertex 2.0301889999999503 3.577189999999912 0.8610035999999788
    vertex 2.0381889999999503 3.638735999999911 1.0941389999999729
  endloop
endfacet
facet normal 0.7779017363970577 -0.6102941349953989 0.14969955678177685
  outer loop
    vertex 2.0161439999999504 3.629083999999911 1.094744999999973
    vertex 2.010844999999951 3.6224319999999106 1.0951619999999729
    vertex 2.0156599999999507 3.5714399999999125 0.8622573999999787
  endloop
endfacet
facet normal 0.8872841582575192 -0.44789836754273715 0.11006304946618964
  outer loop
    vertex 2.010844999999951 3.6224319999999106 1.0951619999999729
    vertex 2.006827999999951 3.6145949999999107 1.0956529999999733
    vertex 2.01112199999995 3.5660379999999123 0.8634351999999786
  endloop
endfacet
facet normal 0.9964967966719055 -0.07842829209630518 0.02903682526530356
  outer loop
    vertex 2.00427799999995 3.606071999999912 1.0961879999999729
    vertex 2.0048989999999507 3.5716809999999124 0.981986399999976
    vertex 2.0067829999999507 3.552795999999912 0.8663222999999787
  endloop
endfacet
facet normal 0.9813921472248543 -0.1844278872563779 0.053439758303522246
  outer loop
    vertex 2.00427799999995 3.606071999999912 1.0961879999999729
    vertex 2.0067829999999507 3.552795999999912 0.8663222999999787
    vertex 2.0081569999999505 3.5596729999999126 0.8648229999999787
  endloop
endfacet
facet normal 0.9567571256517271 -0.2816995145463695 0.07253403352209967
  outer loop
    vertex 2.006827999999951 3.6145949999999107 1.0956529999999733
    vertex 2.00427799999995 3.606071999999912 1.0961879999999729
    vertex 2.0081569999999505 3.5596729999999126 0.8648229999999787
  endloop
endfacet
facet normal -0.6782026741279846 -0.7015038240134603 0.21893724603215126
  outer loop
    vertex 2.0617459999999492 3.627456999999911 1.094846999999973
    vertex 2.0568219999999493 3.6321259999999107 1.0945539999999732
    vertex 2.04596299999995 3.5702089999999123 0.8625257999999788
  endloop
endfacet
facet normal -0.11423282515465688 -0.9595894117620231 0.2571750813967023
  outer loop
    vertex 2.0449629999999503 3.63794299999991 1.094188999999973
    vertex 2.0381889999999503 3.638735999999911 1.0941389999999729
    vertex 2.0346779999999502 3.5767009999999115 0.8611101999999788
  endloop
endfacet
facet normal -0.32381468990551204 -0.9114507408567577 0.2537746906077603
  outer loop
    vertex 2.0449629999999503 3.63794299999991 1.094188999999973
    vertex 2.0346779999999502 3.5767009999999115 0.8611101999999788
    vertex 2.0388459999999493 3.575304999999912 0.8614146999999788
  endloop
endfacet
facet normal -0.3350161022131776 -0.907600426849576 0.2530329552456698
  outer loop
    vertex 2.051200999999949 3.6356799999999105 1.0943309999999733
    vertex 2.0449629999999503 3.63794299999991 1.094188999999973
    vertex 2.0388459999999493 3.575304999999912 0.8614146999999788
  endloop
endfacet
facet normal -0.6632812799469342 -0.7147544042544401 0.22177485265655586
  outer loop
    vertex 2.0568219999999493 3.6321259999999107 1.0945539999999732
    vertex 2.04262999999995 3.573105999999912 0.8618941999999788
    vertex 2.04596299999995 3.5702089999999123 0.8625257999999788
  endloop
endfacet
facet normal -0.5102869936773918 -0.8255295525489282 0.24105630452667234
  outer loop
    vertex 2.051200999999949 3.6356799999999105 1.0943309999999733
    vertex 2.0388459999999493 3.575304999999912 0.8614146999999788
    vertex 2.04262999999995 3.573105999999912 0.8618941999999788
  endloop
endfacet
facet normal -0.5256636152447274 -0.8163821978300699 0.2391607632409373
  outer loop
    vertex 2.0568219999999493 3.6321259999999107 1.0945539999999732
    vertex 2.051200999999949 3.6356799999999105 1.0943309999999733
    vertex 2.04262999999995 3.573105999999912 0.8618941999999788
  endloop
endfacet
facet normal -0.11068304029346893 -0.9599910198062261 0.2572285102448726
  outer loop
    vertex 2.0381889999999503 3.638735999999911 1.0941389999999729
    vertex 2.0301889999999503 3.577189999999912 0.8610035999999788
    vertex 2.0346779999999502 3.5767009999999115 0.8611101999999788
  endloop
endfacet
facet normal -0.9965783557688135 0.016938104952807044 0.08089920527258641
  outer loop
    vertex 2.0728259999999494 3.6016159999999116 1.0964669999999734
    vertex 2.0533189999999495 3.5454049999999135 0.8679338999999787
    vertex 2.072659999999949 3.587669999999912 1.097341999999973
  endloop
endfacet
facet normal -0.996469610108821 0.0343412240739375 0.07660937578833434
  outer loop
    vertex 2.0728259999999494 3.6016159999999116 1.0964669999999734
    vertex 2.0534719999999496 3.5540489999999125 0.8660491999999788
    vertex 2.0533189999999495 3.5454049999999135 0.8679338999999787
  endloop
endfacet
facet normal -0.9607557241856388 -0.2444297131936876 0.13115850621511504
  outer loop
    vertex 2.069177999999949 3.615487999999911 1.095596999999973
    vertex 2.0534719999999496 3.5540489999999125 0.8660491999999788
    vertex 2.0728259999999494 3.6016159999999116 1.0964669999999734
  endloop
endfacet
facet normal -0.9611735542582701 -0.24297589907597422 0.1307979780529746
  outer loop
    vertex 2.069177999999949 3.615487999999911 1.095596999999973
    vertex 2.05101599999995 3.562743999999912 0.8641533999999788
    vertex 2.0534719999999496 3.5540489999999125 0.8660491999999788
  endloop
endfacet
facet normal -0.8403930005713588 -0.5104103330873958 0.18226600469720608
  outer loop
    vertex 2.0617459999999492 3.627456999999911 1.094846999999973
    vertex 2.05101599999995 3.562743999999912 0.8641533999999788
    vertex 2.069177999999949 3.615487999999911 1.095596999999973
  endloop
endfacet
facet normal -0.832059186789229 -0.522801402819552 0.1853542632084725
  outer loop
    vertex 2.0617459999999492 3.627456999999911 1.094846999999973
    vertex 2.04596299999995 3.5702089999999123 0.8625257999999788
    vertex 2.05101599999995 3.562743999999912 0.8641533999999788
  endloop
endfacet
facet normal 2.173714893927185e-06 0.06259159511190794 0.9980392237866317
  outer loop
    vertex 2.072659999999949 3.587669999999912 1.097341999999973
    vertex 2.00427799999995 3.606071999999912 1.0961879999999729
    vertex 2.003612999999951 3.5885469999999122 1.0972869999999728
  endloop
endfacet
facet normal 2.173714893927185e-06 0.06259159511190794 0.9980392237866317
  outer loop
    vertex 2.00427799999995 3.606071999999912 1.0961879999999729
    vertex 2.072659999999949 3.587669999999912 1.097341999999973
    vertex 2.006827999999951 3.6145949999999107 1.0956529999999733
  endloop
endfacet
facet normal 2.173714893927185e-06 0.06259159511190794 0.9980392237866317
  outer loop
    vertex 2.006827999999951 3.6145949999999107 1.0956529999999733
    vertex 2.072659999999949 3.587669999999912 1.097341999999973
    vertex 2.010844999999951 3.6224319999999106 1.0951619999999729
  endloop
endfacet
facet normal 2.173714893927185e-06 0.06259159511190794 0.9980392237866317
  outer loop
    vertex 2.010844999999951 3.6224319999999106 1.0951619999999729
    vertex 2.072659999999949 3.587669999999912 1.097341999999973
    vertex 2.0161439999999504 3.629083999999911 1.094744999999973
  endloop
endfacet
facet normal 2.173714893927185e-06 0.06259159511190794 0.9980392237866317
  outer loop
    vertex 2.0161439999999504 3.629083999999911 1.094744999999973
    vertex 2.072659999999949 3.587669999999912 1.097341999999973
    vertex 2.0225709999999504 3.634232999999911 1.0944219999999731
  endloop
endfacet
facet normal 2.173714893927185e-06 0.06259159511190794 0.9980392237866317
  outer loop
    vertex 2.0225709999999504 3.634232999999911 1.0944219999999731
    vertex 2.072659999999949 3.587669999999912 1.097341999999973
    vertex 2.0299699999999503 3.6375569999999104 1.0942129999999732
  endloop
endfacet
facet normal 2.173714893927185e-06 0.06259159511190794 0.9980392237866317
  outer loop
    vertex 2.0299699999999503 3.6375569999999104 1.0942129999999732
    vertex 2.072659999999949 3.587669999999912 1.097341999999973
    vertex 2.0381889999999503 3.638735999999911 1.0941389999999729
  endloop
endfacet
facet normal 2.173714893927185e-06 0.06259159511190794 0.9980392237866317
  outer loop
    vertex 2.0381889999999503 3.638735999999911 1.0941389999999729
    vertex 2.072659999999949 3.587669999999912 1.097341999999973
    vertex 2.0449629999999503 3.63794299999991 1.094188999999973
  endloop
endfacet
facet normal 2.173714893927185e-06 0.06259159511190794 0.9980392237866317
  outer loop
    vertex 2.0449629999999503 3.63794299999991 1.094188999999973
    vertex 2.072659999999949 3.587669999999912 1.097341999999973
    vertex 2.051200999999949 3.6356799999999105 1.0943309999999733
  endloop
endfacet
facet normal 2.173714893927185e-06 0.06259159511190794 0.9980392237866317
  outer loop
    vertex 2.051200999999949 3.6356799999999105 1.0943309999999733
    vertex 2.072659999999949 3.587669999999912 1.097341999999973
    vertex 2.0568219999999493 3.6321259999999107 1.0945539999999732
  endloop
endfacet
facet normal 2.173714893927185e-06 0.06259159511190794 0.9980392237866317
  outer loop
    vertex 2.0568219999999493 3.6321259999999107 1.0945539999999732
    vertex 2.072659999999949 3.587669999999912 1.097341999999973
    vertex 2.0617459999999492 3.627456999999911 1.094846999999973
  endloop
endfacet
facet normal 2.173714893927185e-06 0.06259159511190794 0.9980392237866317
  outer loop
    vertex 2.0617459999999492 3.627456999999911 1.094846999999973
    vertex 2.072659999999949 3.587669999999912 1.097341999999973
    vertex 2.069177999999949 3.615487999999911 1.095596999999973
  endloop
endfacet
facet normal 2.173714893927185e-06 0.06259159511190794 0.9980392237866317
  outer loop
    vertex 2.069177999999949 3.615487999999911 1.095596999999973
    vertex 2.072659999999949 3.587669999999912 1.097341999999973
    vertex 2.0728259999999494 3.6016159999999116 1.0964669999999734
  endloop
endfacet
facet normal 7.427882399046856e-07 -0.21302866709783227 -0.9770459492746333
  outer loop
    vertex 2.0081569999999505 3.5596729999999126 0.8648229999999787
    vertex 2.0533189999999495 3.5454049999999135 0.8679338999999787
    vertex 2.0067829999999507 3.552795999999912 0.8663222999999787
  endloop
endfacet
facet normal 7.427882399046856e-07 -0.21302866709783227 -0.9770459492746333
  outer loop
    vertex 2.0533189999999495 3.5454049999999135 0.8679338999999787
    vertex 2.0081569999999505 3.5596729999999126 0.8648229999999787
    vertex 2.01112199999995 3.5660379999999123 0.8634351999999786
  endloop
endfacet
facet normal 7.427882399046856e-07 -0.21302866709783227 -0.9770459492746333
  outer loop
    vertex 2.0533189999999495 3.5454049999999135 0.8679338999999787
    vertex 2.01112199999995 3.5660379999999123 0.8634351999999786
    vertex 2.0156599999999507 3.5714399999999125 0.8622573999999787
  endloop
endfacet
facet normal 7.427882399046856e-07 -0.21302866709783227 -0.9770459492746333
  outer loop
    vertex 2.0533189999999495 3.5454049999999135 0.8679338999999787
    vertex 2.0156599999999507 3.5714399999999125 0.8622573999999787
    vertex 2.0191299999999504 3.574033999999912 0.8616917999999788
  endloop
endfacet
facet normal 7.427882399046856e-07 -0.21302866709783227 -0.9770459492746333
  outer loop
    vertex 2.0533189999999495 3.5454049999999135 0.8679338999999787
    vertex 2.0191299999999504 3.574033999999912 0.8616917999999788
    vertex 2.0223389999999504 3.5756729999999126 0.8613343999999787
  endloop
endfacet
facet normal 7.427882399046856e-07 -0.21302866709783227 -0.9770459492746333
  outer loop
    vertex 2.0533189999999495 3.5454049999999135 0.8679338999999787
    vertex 2.0223389999999504 3.5756729999999126 0.8613343999999787
    vertex 2.0258059999999505 3.576720999999912 0.8611059999999789
  endloop
endfacet
facet normal 7.427882399046856e-07 -0.21302866709783227 -0.9770459492746333
  outer loop
    vertex 2.0533189999999495 3.5454049999999135 0.8679338999999787
    vertex 2.0258059999999505 3.576720999999912 0.8611059999999789
    vertex 2.0301889999999503 3.577189999999912 0.8610035999999788
  endloop
endfacet
facet normal 7.427882399046856e-07 -0.21302866709783227 -0.9770459492746333
  outer loop
    vertex 2.0533189999999495 3.5454049999999135 0.8679338999999787
    vertex 2.0301889999999503 3.577189999999912 0.8610035999999788
    vertex 2.0346779999999502 3.5767009999999115 0.8611101999999788
  endloop
endfacet
facet normal 7.427882399046856e-07 -0.21302866709783227 -0.9770459492746333
  outer loop
    vertex 2.0533189999999495 3.5454049999999135 0.8679338999999787
    vertex 2.0346779999999502 3.5767009999999115 0.8611101999999788
    vertex 2.0388459999999493 3.575304999999912 0.8614146999999788
  endloop
endfacet
facet normal 7.427882399046856e-07 -0.21302866709783227 -0.9770459492746333
  outer loop
    vertex 2.0533189999999495 3.5454049999999135 0.8679338999999787
    vertex 2.0388459999999493 3.575304999999912 0.8614146999999788
    vertex 2.04262999999995 3.573105999999912 0.8618941999999788
  endloop
endfacet
facet normal 7.427882399046856e-07 -0.21302866709783227 -0.9770459492746333
  outer loop
    vertex 2.0533189999999495 3.5454049999999135 0.8679338999999787
    vertex 2.04262999999995 3.573105999999912 0.8618941999999788
    vertex 2.04596299999995 3.5702089999999123 0.8625257999999788
  endloop
endfacet
facet normal 7.427882399046856e-07 -0.21302866709783227 -0.9770459492746333
  outer loop
    vertex 2.0533189999999495 3.5454049999999135 0.8679338999999787
    vertex 2.04596299999995 3.5702089999999123 0.8625257999999788
    vertex 2.05101599999995 3.562743999999912 0.8641533999999788
  endloop
endfacet
facet normal 7.427882399046856e-07 -0.21302866709783227 -0.9770459492746333
  outer loop
    vertex 2.0533189999999495 3.5454049999999135 0.8679338999999787
    vertex 2.05101599999995 3.562743999999912 0.8641533999999788
    vertex 2.0534719999999496 3.5540489999999125 0.8660491999999788
  endloop
endfacet
facet normal -0.1974162570450488 -0.9703099185205604 0.13973361612349022
  outer loop
    vertex 2.003612999999951 3.5885469999999122 1.0972869999999728
    vertex 2.0048989999999507 3.5716809999999124 0.981986399999976
    vertex 2.0533189999999495 3.5454049999999135 0.8679338999999787
  endloop
endfacet
facet normal -0.16020876445113394 -0.9745950895548907 0.15651697418662253
  outer loop
    vertex 2.0048989999999507 3.5716809999999124 0.981986399999976
    vertex 2.0067829999999507 3.552795999999912 0.8663222999999787
    vertex 2.0533189999999495 3.5454049999999135 0.8679338999999787
  endloop
endfacet
facet normal -0.01263298938741116 -0.9831801022814686 0.182201246035637
  outer loop
    vertex 2.072659999999949 3.587669999999912 1.097341999999973
    vertex 2.003612999999951 3.5885469999999122 1.0972869999999728
    vertex 2.0533189999999495 3.5454049999999135 0.8679338999999787
  endloop
endfacet
facet normal 0.999182921122396 -0.03687763536442722 0.016538746846242156
  outer loop
    vertex 2.00427799999995 3.606071999999912 1.0961879999999729
    vertex 2.003612999999951 3.5885469999999122 1.0972869999999728
    vertex 2.0048989999999507 3.5716809999999124 0.981986399999976
  endloop
endfacet
facet normal -0.0 -0.0 1.0
  outer loop
    vertex 1.9316511349201255 3.5456572804251993 0.09160160999999775
    vertex 1.9317849999999526 3.5543619999999123 0.09160160999999775
    vertex 1.9316097149829385 3.5543096094468236 0.09160160999999775
  endloop
endfacet
facet normal -0.0 -0.0 1.0
  outer loop
    vertex 1.9317849999999526 3.5543619999999123 0.09160160999999775
    vertex 1.9316511349201255 3.5456572804251993 0.09160160999999775
    vertex 1.9318179999999525 3.5469149999999128 0.09160160999999775
  endloop
endfacet
endsolid Object01
