solid Object01
facet normal -0.70140993968602 0.712757778865536 -0.0006672153487899129
  outer loop
    vertex 1.949926999999952 3.5175979999999134 0.5366016999999867
    vertex 1.9437079999999523 3.5113609999999134 0.4116017999999899
    vertex 1.9436459999999522 3.5114169999999136 0.5366016999999867
  endloop
endfacet
facet normal -0.903838876340314 0.42775628031593727 0.009992510502985339
  outer loop
    vertex 1.9609699999999517 3.540242999999913 0.4116017999999899
    vertex 1.9550309999999518 3.5247739999999137 0.5366016999999867
    vertex 1.958783999999952 3.5327039999999132 0.5366016999999867
  endloop
endfacet
facet normal -0.4024933564780217 0.9154229066344454 -0.0
  outer loop
    vertex 1.9282049999999527 3.5028149999999143 0.5366016999999867
    vertex 1.9364609999999522 3.5064449999999137 0.4116017999999899
    vertex 1.9282049999999527 3.5028149999999143 0.4116017999999899
  endloop
endfacet
facet normal -0.7579643087378682 0.6522755833735383 0.005164301911760387
  outer loop
    vertex 1.954816999999952 3.524269999999913 0.4116017999999899
    vertex 1.9437079999999523 3.5113609999999134 0.4116017999999899
    vertex 1.949926999999952 3.5175979999999134 0.5366016999999867
  endloop
endfacet
facet normal -0.8602736756708865 0.509791807799153 -0.006443263813793851
  outer loop
    vertex 1.954848999999952 3.5243239999999134 0.4116017999999899
    vertex 1.954816999999952 3.524269999999913 0.4116017999999899
    vertex 1.949926999999952 3.5175979999999134 0.5366016999999867
  endloop
endfacet
facet normal -0.9333788456261425 0.3588926386128101 6.698615381219285e-05
  outer loop
    vertex 1.9609699999999517 3.540242999999913 0.4116017999999899
    vertex 1.954848999999952 3.5243239999999134 0.4116017999999899
    vertex 1.9550309999999518 3.5247739999999137 0.5366016999999867
  endloop
endfacet
facet normal -0.9815844985692657 0.19094489576910217 -0.005649685677100515
  outer loop
    vertex 1.9596062260042963 3.5369307916977712 0.5366016999999867
    vertex 1.9609699999999517 3.540242999999913 0.4116017999999899
    vertex 1.958783999999952 3.5327039999999132 0.5366016999999867
  endloop
endfacet
facet normal -0.9815844985692657 0.19094489576910217 -0.005649685677100515
  outer loop
    vertex 1.9609699999999517 3.540242999999913 0.4116017999999899
    vertex 1.9596062260042963 3.5369307916977712 0.5366016999999867
    vertex 1.9611832073881181 3.545037530946583 0.5366016999999867
  endloop
endfacet
facet normal -0.9815844985692657 0.19094489576910217 -0.005649685677100515
  outer loop
    vertex 1.9609699999999517 3.540242999999913 0.4116017999999899
    vertex 1.9611832073881181 3.545037530946583 0.5366016999999867
    vertex 1.9619829999999516 3.549148999999913 0.5366016999999867
  endloop
endfacet
facet normal -0.40506555657053256 0.9142876208989305 -0.00020285753175552782
  outer loop
    vertex 1.9363509999999524 3.5064239999999134 0.5366016999999867
    vertex 1.9364609999999522 3.5064449999999137 0.4116017999999899
    vertex 1.9282049999999527 3.5028149999999143 0.5366016999999867
  endloop
endfacet
facet normal -0.5648136414530545 0.8252184086520783 -0.00035839959854327145
  outer loop
    vertex 1.9436459999999522 3.5114169999999136 0.5366016999999867
    vertex 1.9364609999999522 3.5064449999999137 0.4116017999999899
    vertex 1.9363509999999524 3.5064239999999134 0.5366016999999867
  endloop
endfacet
facet normal -0.8148977827782014 0.5796039971153374 -0.0009000839379590984
  outer loop
    vertex 1.9550309999999518 3.5247739999999137 0.5366016999999867
    vertex 1.954848999999952 3.5243239999999134 0.4116017999999899
    vertex 1.949926999999952 3.5175979999999134 0.5366016999999867
  endloop
endfacet
facet normal -0.9996253088167368 0.026660530365325837 0.006201458996348905
  outer loop
    vertex 1.9614309999999517 3.557527999999913 0.4116017999999899
    vertex 1.9609699999999517 3.540242999999913 0.4116017999999899
    vertex 1.9619829999999516 3.549148999999913 0.5366016999999867
  endloop
endfacet
facet normal -0.9893086779022745 -0.1457366709433131 -0.005400237921996983
  outer loop
    vertex 1.9614163996426246 3.557591350295216 0.4125663146717418
    vertex 1.9614309999999517 3.557527999999913 0.4116017999999899
    vertex 1.9619829999999516 3.549148999999913 0.5366016999999867
  endloop
endfacet
facet normal -0.5613756307384203 0.8275608616683471 -0.0006491900982279683
  outer loop
    vertex 1.9436459999999522 3.5114169999999136 0.5366016999999867
    vertex 1.9437079999999523 3.5113609999999134 0.4116017999999899
    vertex 1.9364609999999522 3.5064449999999137 0.4116017999999899
  endloop
endfacet
facet normal 0.7302295740255649 0.6804702209738676 0.061033167918910905
  outer loop
    vertex 1.875215999999954 3.5240819999999133 0.34346799999999156
    vertex 1.8752009999999535 3.524060999999913 0.34388159999999157
    vertex 1.8850639999999537 3.5135139999999137 0.34346649999999157
  endloop
endfacet
facet normal 0.0012289724731180895 -0.0032851157994168143 0.9999938488015039
  outer loop
    vertex 1.9251169999999524 3.5084309999999137 0.2509985999999938
    vertex 1.9121829999999531 3.5060579999999133 0.2510066999999938
    vertex 1.9187579999999527 3.5065999999999145 0.2510003999999938
  endloop
endfacet
facet normal -0.41950429080141216 0.9050543168538637 0.06994879229400883
  outer loop
    vertex 1.9251169999999524 3.5084309999999137 0.2509985999999938
    vertex 1.9169439999999531 3.5169619999999138 0.09160160999999775
    vertex 1.9129699999999532 3.515119999999914 0.09160160999999775
  endloop
endfacet
facet normal -0.24256552692147088 0.9679833120587183 0.06457764880470007
  outer loop
    vertex 1.9278189999999524 3.504692999999915 0.37200219999999085
    vertex 1.9277759999999529 3.5049029999999144 0.36869289999999094
    vertex 1.9201979999999528 3.5030039999999136 0.36869349999999096
  endloop
endfacet
facet normal 0.7259877446439003 0.6853809460020787 0.05652215038512799
  outer loop
    vertex 1.8743169999999538 3.5227989999999134 0.368698599999991
    vertex 1.8844119999999536 3.5121059999999145 0.36869739999999096
    vertex 1.884593999999954 3.5124589999999136 0.3620792999999911
  endloop
endfacet
facet normal -0.24686462617922686 0.9668954185260792 0.06458410001438965
  outer loop
    vertex 1.9276899999999526 3.505322999999914 0.36207439999999114
    vertex 1.9275169999999526 3.5061629999999133 0.34883739999999136
    vertex 1.9200989999999525 3.5042689999999146 0.34883829999999133
  endloop
endfacet
facet normal 0.4055575270210268 0.9129278003272794 0.04567191331862887
  outer loop
    vertex 1.8971449999999535 3.5029969999999135 0.4116017999999899
    vertex 1.8974409999999537 3.5050119999999136 0.3686958999999909
    vertex 1.8906269999999537 3.5080389999999135 0.3686966999999909
  endloop
endfacet
facet normal 0.7301709524470903 0.6805726143182816 0.06059122743837311
  outer loop
    vertex 1.8752009999999535 3.524060999999913 0.34388159999999157
    vertex 1.875141999999954 3.5239769999999133 0.3455360999999915
    vertex 1.8850549999999537 3.5134889999999137 0.3438800999999916
  endloop
endfacet
facet normal 0.7303238499143758 0.6807156319012966 0.057037730770629735
  outer loop
    vertex 1.8752009999999535 3.524060999999913 0.34388159999999157
    vertex 1.8850549999999537 3.5134889999999137 0.3438800999999916
    vertex 1.8850639999999537 3.5135139999999137 0.34346649999999157
  endloop
endfacet
facet normal 0.7302562102541535 0.6804951275383965 0.060433838052395564
  outer loop
    vertex 1.875215999999954 3.5240819999999133 0.34346799999999156
    vertex 1.8850639999999537 3.5135139999999137 0.34346649999999157
    vertex 1.885068999999954 3.5135269999999132 0.34325969999999156
  endloop
endfacet
facet normal -0.24690467947954567 0.9670510865406018 0.062050586393234825
  outer loop
    vertex 1.9200989999999525 3.5042689999999146 0.34883829999999133
    vertex 1.9275169999999526 3.5061629999999133 0.34883739999999136
    vertex 1.9200819999999528 3.504476999999914 0.3455289999999915
  endloop
endfacet
facet normal 0.5470038578501862 0.8358980072415432 0.045401552689640315
  outer loop
    vertex 1.8837879999999536 3.5101839999999136 0.4116017999999899
    vertex 1.8906269999999537 3.5080389999999135 0.3686966999999909
    vertex 1.8844119999999536 3.5121059999999145 0.36869739999999096
  endloop
endfacet
facet normal 0.7271007285867365 0.683846859578529 0.060646542632047266
  outer loop
    vertex 1.874787999999954 3.5234719999999133 0.3554629999999913
    vertex 1.8743169999999538 3.5227989999999134 0.368698599999991
    vertex 1.884593999999954 3.5124589999999136 0.3620792999999911
  endloop
endfacet
facet normal 0.7295892517079433 0.6811951259344562 0.060603004837910306
  outer loop
    vertex 1.8750239999999536 3.523807999999913 0.3488450999999914
    vertex 1.874787999999954 3.5234719999999133 0.3554629999999913
    vertex 1.8849359999999538 3.513191999999914 0.34884309999999147
  endloop
endfacet
facet normal 0.8652941181333178 0.49684691416301313 0.0664020557707046
  outer loop
    vertex 1.8873769999999537 3.5317149999999136 0.09160160999999775
    vertex 1.8805699999999537 3.5267629999999133 0.21735739999999465
    vertex 1.8925969999999537 3.5226239999999134 0.09160160999999775
  endloop
endfacet
facet normal 0.729702024049987 0.6813009101296833 0.05800022373937527
  outer loop
    vertex 1.8750239999999536 3.523807999999913 0.3488450999999914
    vertex 1.8849359999999538 3.513191999999914 0.34884309999999147
    vertex 1.8850159999999536 3.5133879999999134 0.3455342999999915
  endloop
endfacet
facet normal 0.7300197123326091 0.6807163284207124 0.06079884725255557
  outer loop
    vertex 1.875141999999954 3.5239769999999133 0.3455360999999915
    vertex 1.8750239999999536 3.523807999999913 0.3488450999999914
    vertex 1.8850159999999536 3.5133879999999134 0.3455342999999915
  endloop
endfacet
facet normal -0.24258887769810022 0.9680760215579316 0.06308290498814534
  outer loop
    vertex 1.9201979999999528 3.5030039999999136 0.36869349999999096
    vertex 1.9277759999999529 3.5049029999999144 0.36869289999999094
    vertex 1.9201649999999528 3.5034269999999137 0.3620751999999911
  endloop
endfacet
facet normal -0.2438077391715193 0.9676713593042543 0.06457496962701102
  outer loop
    vertex 1.9277759999999529 3.5049029999999144 0.36869289999999094
    vertex 1.9276899999999526 3.505322999999914 0.36207439999999114
    vertex 1.9201649999999528 3.5034269999999137 0.3620751999999911
  endloop
endfacet
facet normal 0.47359751200112055 0.8801783731458068 0.031486950832834856
  outer loop
    vertex 1.8971449999999535 3.5029969999999135 0.4116017999999899
    vertex 1.8906269999999537 3.5080389999999135 0.3686966999999909
    vertex 1.8837879999999536 3.5101839999999136 0.4116017999999899
  endloop
endfacet
facet normal 0.716957569352368 0.6958744335230301 0.04160067928948205
  outer loop
    vertex 1.8731599999999538 3.5211339999999134 0.4116017999999899
    vertex 1.8837879999999536 3.5101839999999136 0.4116017999999899
    vertex 1.8844119999999536 3.5121059999999145 0.36869739999999096
  endloop
endfacet
facet normal 0.726373141573765 0.6857459480696148 0.04620123273641485
  outer loop
    vertex 1.8743169999999538 3.5227989999999134 0.368698599999991
    vertex 1.8731599999999538 3.5211339999999134 0.4116017999999899
    vertex 1.8844119999999536 3.5121059999999145 0.36869739999999096
  endloop
endfacet
facet normal -0.24383595575410083 0.9677825887345074 0.06277648941936424
  outer loop
    vertex 1.9201649999999528 3.5034269999999137 0.3620751999999911
    vertex 1.9276899999999526 3.505322999999914 0.36207439999999114
    vertex 1.9200989999999525 3.5042689999999146 0.34883829999999133
  endloop
endfacet
facet normal 0.7285110116609331 0.6826893749002737 0.056629703222226546
  outer loop
    vertex 1.874787999999954 3.5234719999999133 0.3554629999999913
    vertex 1.884593999999954 3.5124589999999136 0.3620792999999911
    vertex 1.8849359999999538 3.513191999999914 0.34884309999999147
  endloop
endfacet
facet normal 0.7301079529439171 0.6807989538435051 0.058780621752684316
  outer loop
    vertex 1.875141999999954 3.5239769999999133 0.3455360999999915
    vertex 1.8850159999999536 3.5133879999999134 0.3455342999999915
    vertex 1.8850549999999537 3.5134889999999137 0.3438800999999916
  endloop
endfacet
facet normal -0.23172593233452343 0.9720568424191999 0.03753115225663695
  outer loop
    vertex 1.9278189999999524 3.5046919999999138 0.37202809999999076
    vertex 1.9278189999999524 3.504692999999915 0.37200219999999085
    vertex 1.9201979999999528 3.5030039999999136 0.36869349999999096
  endloop
endfacet
facet normal 0.0921636485788187 0.9953674046504565 0.027378671261673343
  outer loop
    vertex 1.9251169999999524 3.5084309999999137 0.2509985999999938
    vertex 1.9087159999999532 3.5143339999999132 0.09160160999999775
    vertex 1.9042339999999531 3.5147489999999135 0.09160160999999775
  endloop
endfacet
facet normal 0.35505919815935993 0.9347959046519491 -0.009464800493225985
  outer loop
    vertex 1.9251169999999524 3.5084309999999137 0.2509985999999938
    vertex 1.9042339999999531 3.5147489999999135 0.09160160999999775
    vertex 1.8998819999999532 3.5164019999999137 0.09160160999999775
  endloop
endfacet
facet normal 0.730350588703806 0.6806390200544185 0.057606787441804364
  outer loop
    vertex 1.8752229999999541 3.5240919999999134 0.34326109999999155
    vertex 1.875215999999954 3.5240819999999133 0.34346799999999156
    vertex 1.885068999999954 3.5135269999999132 0.34325969999999156
  endloop
endfacet
facet normal -0.076944896665732 0.9958518633948557 0.04856489524433963
  outer loop
    vertex 1.912270999999953 3.500298999999915 0.4116017999999899
    vertex 1.9201979999999528 3.5030039999999136 0.36869349999999096
    vertex 1.9124329999999532 3.5024039999999146 0.3686941999999909
  endloop
endfacet
facet normal -0.8282273091158424 0.5600159591358563 0.020534116681219326
  outer loop
    vertex 1.8977499999999536 3.5061929999999135 0.34884119999999147
    vertex 1.897543999999953 3.5054029999999132 0.3620775999999911
    vertex 1.8971449999999535 3.5029969999999135 0.4116017999999899
  endloop
endfacet
facet normal 0.9968053665485037 0.07949621586125606 0.007707975340124351
  outer loop
    vertex 1.9124979999999532 3.5038589999999137 0.3455297999999915
    vertex 1.912270999999953 3.500298999999915 0.4116017999999899
    vertex 1.9124889999999533 3.503650999999914 0.34883889999999146
  endloop
endfacet
facet normal 0.993581404554164 0.11272084179259383 0.009487062229375207
  outer loop
    vertex 1.912501999999953 3.503962999999915 0.34387519999999155
    vertex 1.912270999999953 3.500298999999915 0.4116017999999899
    vertex 1.9124979999999532 3.5038589999999137 0.3455297999999915
  endloop
endfacet
facet normal 0.9311209895842416 0.3639919497181954 0.022881505545079037
  outer loop
    vertex 1.912502999999953 3.5040019999999132 0.3432547999999916
    vertex 1.912270999999953 3.500298999999915 0.4116017999999899
    vertex 1.912502999999953 3.5039889999999136 0.34346159999999154
  endloop
endfacet
facet normal 0.9974072807076583 0.07159330663651865 0.007287992604550144
  outer loop
    vertex 1.9124889999999533 3.503650999999914 0.34883889999999146
    vertex 1.912270999999953 3.500298999999915 0.4116017999999899
    vertex 1.912451999999953 3.502818999999915 0.3620756999999911
  endloop
endfacet
facet normal -0.1558817261663378 0.9872096282730127 0.03343706465082074
  outer loop
    vertex 1.9282049999999527 3.5028149999999143 0.4116017999999899
    vertex 1.9201979999999528 3.5030039999999136 0.36869349999999096
    vertex 1.912270999999953 3.500298999999915 0.4116017999999899
  endloop
endfacet
facet normal 0.9935961214667387 0.11259162799061641 0.009480121975839306
  outer loop
    vertex 1.912502999999953 3.5039889999999136 0.34346159999999154
    vertex 1.912270999999953 3.500298999999915 0.4116017999999899
    vertex 1.912501999999953 3.503962999999915 0.34387519999999155
  endloop
endfacet
facet normal 0.999806149592839 -0.01955026986855662 0.002334563001557462
  outer loop
    vertex 1.9125049999999528 3.504035999999915 0.3426829999999916
    vertex 1.912270999999953 3.500298999999915 0.4116017999999899
    vertex 1.912502999999953 3.5040019999999132 0.3432547999999916
  endloop
endfacet
facet normal 0.9114559083562818 0.41027528888338927 0.030369630456706657
  outer loop
    vertex 1.8980849999999538 3.5068869999999146 0.33083889999999183
    vertex 1.8978019999999534 3.506393999999914 0.34553219999999146
    vertex 1.8971449999999535 3.5029969999999135 0.4116017999999899
  endloop
endfacet
facet normal 0.9114559083562818 0.41027528888338927 0.030369630456706657
  outer loop
    vertex 1.8978019999999534 3.506393999999914 0.34553219999999146
    vertex 1.8980849999999538 3.5068869999999146 0.33083889999999183
    vertex 1.8978269999999535 3.5064949999999135 0.34387769999999157
  endloop
endfacet
facet normal 0.9114559083562818 0.41027528888338927 0.030369630456706657
  outer loop
    vertex 1.8978269999999535 3.5064949999999135 0.34387769999999157
    vertex 1.8980849999999538 3.5068869999999146 0.33083889999999183
    vertex 1.8978339999999536 3.5065199999999144 0.34346409999999156
  endloop
endfacet
facet normal 0.9114559083562818 0.41027528888338927 0.030369630456706657
  outer loop
    vertex 1.8978339999999536 3.5065199999999144 0.34346409999999156
    vertex 1.8980849999999538 3.5068869999999146 0.33083889999999183
    vertex 1.8978369999999538 3.506532999999915 0.34325729999999155
  endloop
endfacet
facet normal 0.9114559083562818 0.41027528888338927 0.030369630456706657
  outer loop
    vertex 1.8978369999999538 3.506532999999915 0.34325729999999155
    vertex 1.8980849999999538 3.5068869999999146 0.33083889999999183
    vertex 1.897845999999953 3.5065669999999134 0.34268559999999154
  endloop
endfacet
facet normal 0.9114559083562818 0.41027528888338927 0.030369630456706657
  outer loop
    vertex 1.897845999999953 3.5065669999999134 0.34268559999999154
    vertex 1.8980849999999538 3.5068869999999146 0.33083889999999183
    vertex 1.8978559999999534 3.5066009999999133 0.3420625999999916
  endloop
endfacet
facet normal -0.9905308376738471 -0.13524044633220256 -0.023636439939501163
  outer loop
    vertex 1.897845999999953 3.5065669999999134 0.34268559999999154
    vertex 1.8980849999999538 3.5068869999999146 0.33083889999999183
    vertex 1.8978369999999538 3.506532999999915 0.34325729999999155
  endloop
endfacet
facet normal -0.9905308376738471 -0.13524044633220256 -0.023636439939501163
  outer loop
    vertex 1.8980849999999538 3.5068869999999146 0.33083889999999183
    vertex 1.897845999999953 3.5065669999999134 0.34268559999999154
    vertex 1.8978559999999534 3.5066009999999133 0.3420625999999916
  endloop
endfacet
facet normal -0.9887128135661022 -0.14789783360048062 -0.023941660478901398
  outer loop
    vertex 1.8980849999999538 3.5068869999999146 0.33083889999999183
    vertex 1.897845999999953 3.5065669999999134 0.34268559999999154
    vertex 1.8978559999999534 3.5066009999999133 0.3420625999999916
  endloop
endfacet
facet normal -0.9924614017390793 -0.12031940146367741 -0.023315395976149757
  outer loop
    vertex 1.8980849999999538 3.5068869999999146 0.33083889999999183
    vertex 1.8978559999999534 3.5066009999999133 0.3420625999999916
    vertex 1.897877999999953 3.5066609999999137 0.34081649999999164
  endloop
endfacet
facet normal 0.7303181434549435 0.6806086815293504 0.05837149961585647
  outer loop
    vertex 1.8752229999999541 3.5240919999999134 0.34326109999999155
    vertex 1.885068999999954 3.5135269999999132 0.34325969999999156
    vertex 1.8850829999999539 3.5135609999999136 0.34268809999999156
  endloop
endfacet
facet normal -0.9948617404559081 -0.10085560587181695 -0.008846702282216998
  outer loop
    vertex 1.912511999999953 3.504130999999914 0.3408137999999917
    vertex 1.912270999999953 3.500298999999915 0.4116017999999899
    vertex 1.912506999999953 3.5040709999999144 0.34206009999999154
  endloop
endfacet
facet normal -0.9557923366641836 0.29383442445357466 0.011060749525072829
  outer loop
    vertex 1.9121829999999531 3.5060579999999133 0.2510066999999938
    vertex 1.912270999999953 3.500298999999915 0.4116017999999899
    vertex 1.9125739999999531 3.5043249999999135 0.33083219999999186
  endloop
endfacet
facet normal -0.2361135481631003 0.9705225815228861 0.04833540242911317
  outer loop
    vertex 1.9282049999999527 3.5028149999999143 0.4116017999999899
    vertex 1.9278189999999524 3.5046919999999138 0.37202809999999076
    vertex 1.9201979999999528 3.5030039999999136 0.36869349999999096
  endloop
endfacet
facet normal 0.2005366587814031 0.9789706188757364 0.03743762629827033
  outer loop
    vertex 1.8971449999999535 3.5029969999999135 0.4116017999999899
    vertex 1.9121829999999531 3.5060579999999133 0.2510066999999938
    vertex 1.8991839999999531 3.5087199999999146 0.25102689999999384
  endloop
endfacet
facet normal -0.1814166177845703 0.9818655115205294 0.05502842972624567
  outer loop
    vertex 1.9251169999999524 3.5084309999999137 0.2509985999999938
    vertex 1.9129699999999532 3.515119999999914 0.09160160999999775
    vertex 1.9087159999999532 3.5143339999999132 0.09160160999999775
  endloop
endfacet
facet normal 0.6753424831892654 0.7355316973024054 0.05390410618125018
  outer loop
    vertex 1.8796899999999537 3.518517999999913 0.3426581999999916
    vertex 1.8850979999999535 3.5135959999999136 0.3420651999999916
    vertex 1.8851309999999537 3.5136569999999137 0.3408193999999916
  endloop
endfacet
facet normal -0.2466981515262155 0.9671362224836931 0.06154306779419552
  outer loop
    vertex 1.9275169999999526 3.5061629999999133 0.34883739999999136
    vertex 1.9200729999999528 3.5045799999999137 0.34387429999999153
    vertex 1.9200819999999528 3.504476999999914 0.3455289999999915
  endloop
endfacet
facet normal 0.5685317042712992 0.8221972976395874 0.027627974817784298
  outer loop
    vertex 1.8780719999999538 3.525141999999913 0.2803114999999931
    vertex 1.8998819999999532 3.5164019999999137 0.09160160999999775
    vertex 1.8959859999999535 3.519095999999913 0.09160160999999775
  endloop
endfacet
facet normal 0.9963217434893953 0.08424922584270715 0.015654117514458908
  outer loop
    vertex 1.8991839999999531 3.5087199999999146 0.25102689999999384
    vertex 1.8980849999999538 3.5068869999999146 0.33083889999999183
    vertex 1.8971449999999535 3.5029969999999135 0.4116017999999899
  endloop
endfacet
facet normal 0.7228055702721984 0.6894896382283969 0.04643432307201647
  outer loop
    vertex 1.8805699999999537 3.5267629999999133 0.21735739999999465
    vertex 1.8780719999999538 3.525141999999913 0.2803114999999931
    vertex 1.8925969999999537 3.5226239999999134 0.09160160999999775
  endloop
endfacet
facet normal 0.9955873861607669 0.09345795489242642 0.008447910090518844
  outer loop
    vertex 1.912506999999953 3.5040709999999144 0.34206009999999154
    vertex 1.912270999999953 3.500298999999915 0.4116017999999899
    vertex 1.9125049999999528 3.504035999999915 0.3426829999999916
  endloop
endfacet
facet normal -0.8132162972693309 0.5815567867472127 0.021701558557305226
  outer loop
    vertex 1.897543999999953 3.5054029999999132 0.3620775999999911
    vertex 1.8974409999999537 3.5050119999999136 0.3686958999999909
    vertex 1.8971449999999535 3.5029969999999135 0.4116017999999899
  endloop
endfacet
facet normal -0.9967139142884683 -0.0806299237933247 -0.0077581217341845445
  outer loop
    vertex 1.9125739999999531 3.5043249999999135 0.33083219999999186
    vertex 1.912270999999953 3.500298999999915 0.4116017999999899
    vertex 1.912511999999953 3.504130999999914 0.3408137999999917
  endloop
endfacet
facet normal 0.17548818357622986 0.9838525814585534 0.0351851585538037
  outer loop
    vertex 1.912270999999953 3.500298999999915 0.4116017999999899
    vertex 1.9121829999999531 3.5060579999999133 0.2510066999999938
    vertex 1.8971449999999535 3.5029969999999135 0.4116017999999899
  endloop
endfacet
facet normal 0.9977838276122438 0.06616831956322011 0.007013333133381763
  outer loop
    vertex 1.912451999999953 3.502818999999915 0.3620756999999911
    vertex 1.912270999999953 3.500298999999915 0.4116017999999899
    vertex 1.9124329999999532 3.5024039999999146 0.3686941999999909
  endloop
endfacet
facet normal 0.7204002132019184 0.6920170982259014 0.0462154582540701
  outer loop
    vertex 1.8780719999999538 3.525141999999913 0.2803114999999931
    vertex 1.8959859999999535 3.519095999999913 0.09160160999999775
    vertex 1.8925969999999537 3.5226239999999134 0.09160160999999775
  endloop
endfacet
facet normal 0.6754237637785161 0.7351789005002158 0.05757363617626552
  outer loop
    vertex 1.8850829999999539 3.5135609999999136 0.34268809999999156
    vertex 1.8850979999999535 3.5135959999999136 0.3420651999999916
    vertex 1.8796899999999537 3.518517999999913 0.3426581999999916
  endloop
endfacet
facet normal -0.0811992396039176 0.9951427970937747 0.055655160408753984
  outer loop
    vertex 1.9125049999999528 3.504035999999915 0.3426829999999916
    vertex 1.9200659999999528 3.5046529999999136 0.34268199999999155
    vertex 1.912506999999953 3.5040709999999144 0.34206009999999154
  endloop
endfacet
facet normal -0.08110211437676997 0.9947422664939118 0.0625321540823024
  outer loop
    vertex 1.912502999999953 3.5039889999999136 0.34346159999999154
    vertex 1.9200699999999526 3.5046059999999146 0.34346069999999157
    vertex 1.912502999999953 3.5040019999999132 0.3432547999999916
  endloop
endfacet
facet normal -0.08112478471334383 0.9952021215803922 0.0546946661668207
  outer loop
    vertex 1.9200659999999528 3.5046529999999136 0.34268199999999155
    vertex 1.920062999999953 3.5046869999999144 0.34205889999999156
    vertex 1.912506999999953 3.5040709999999144 0.34206009999999154
  endloop
endfacet
facet normal 0.5934780653228533 0.8034075932556873 0.0481666386594193
  outer loop
    vertex 1.8878889999999537 3.5157019999999135 0.2510473999999938
    vertex 1.8932599999999535 3.5117349999999137 0.25103799999999377
    vertex 1.8998819999999532 3.5164019999999137 0.09160160999999775
  endloop
endfacet
facet normal 0.4531906396451848 0.8902829679169899 0.04488297199277442
  outer loop
    vertex 1.8932599999999535 3.5117349999999137 0.25103799999999377
    vertex 1.8991839999999531 3.5087199999999146 0.25102689999999384
    vertex 1.8998819999999532 3.5164019999999137 0.09160160999999775
  endloop
endfacet
facet normal -0.24733820154381397 0.9669064140683411 0.06257635728111209
  outer loop
    vertex 1.9275169999999526 3.5061629999999133 0.34883739999999136
    vertex 1.9200699999999526 3.5046059999999146 0.34346069999999157
    vertex 1.9200729999999528 3.5045799999999137 0.34387429999999153
  endloop
endfacet
facet normal -0.1798679259541535 0.9806319519877067 0.07751454027298169
  outer loop
    vertex 1.9121829999999531 3.5060579999999133 0.2510066999999938
    vertex 1.9251169999999524 3.5084309999999137 0.2509985999999938
    vertex 1.8998819999999532 3.5164019999999137 0.09160160999999775
  endloop
endfacet
facet normal -0.2207207464310304 0.9749346405508145 0.028014259743618805
  outer loop
    vertex 1.9275169999999526 3.5061629999999133 0.34883739999999136
    vertex 1.9251169999999524 3.5084309999999137 0.2509985999999938
    vertex 1.9200659999999528 3.5046529999999136 0.34268199999999155
  endloop
endfacet
facet normal -0.24378654203680702 0.9681346314742808 0.05730145950928952
  outer loop
    vertex 1.9275169999999526 3.5061629999999133 0.34883739999999136
    vertex 1.9200689999999532 3.504617999999913 0.34325369999999156
    vertex 1.9200699999999526 3.5046059999999146 0.34346069999999157
  endloop
endfacet
facet normal -0.07688552956686179 0.9950994326814636 0.06217503052072128
  outer loop
    vertex 1.9124329999999532 3.5024039999999146 0.3686941999999909
    vertex 1.9201979999999528 3.5030039999999136 0.36869349999999096
    vertex 1.912451999999953 3.502818999999915 0.3620756999999911
  endloop
endfacet
facet normal -0.08105368524657226 0.9947589201703423 0.06232969476488971
  outer loop
    vertex 1.9124979999999532 3.5038589999999137 0.3455297999999915
    vertex 1.9200819999999528 3.504476999999914 0.3455289999999915
    vertex 1.912501999999953 3.503962999999915 0.34387519999999155
  endloop
endfacet
facet normal -0.24603652327049882 0.967369652220127 0.06051433863536669
  outer loop
    vertex 1.9275169999999526 3.5061629999999133 0.34883739999999136
    vertex 1.9200659999999528 3.5046529999999136 0.34268199999999155
    vertex 1.9200689999999532 3.504617999999913 0.34325369999999156
  endloop
endfacet
facet normal -0.08106043614038809 0.9947563813667525 0.06236142576027574
  outer loop
    vertex 1.9200819999999528 3.504476999999914 0.3455289999999915
    vertex 1.9200729999999528 3.5045799999999137 0.34387429999999153
    vertex 1.912501999999953 3.503962999999915 0.34387519999999155
  endloop
endfacet
facet normal 0.5934239330460473 0.40002342004670816 0.6984477783644927
  outer loop
    vertex 1.8851309999999537 3.5136569999999137 0.3408193999999916
    vertex 1.8752229999999541 3.5240919999999134 0.34326109999999155
    vertex 1.8796899999999537 3.518517999999913 0.3426581999999916
  endloop
endfacet
facet normal -0.08105052241433014 0.9947208934751646 0.062937722395511
  outer loop
    vertex 1.9200989999999525 3.5042689999999146 0.34883829999999133
    vertex 1.9200819999999528 3.504476999999914 0.3455289999999915
    vertex 1.9124979999999532 3.5038589999999137 0.3455297999999915
  endloop
endfacet
facet normal -0.08077322349921706 0.9946964985353751 0.0636754439875389
  outer loop
    vertex 1.9201649999999528 3.5034269999999137 0.3620751999999911
    vertex 1.9200989999999525 3.5042689999999146 0.34883829999999133
    vertex 1.9124889999999533 3.503650999999914 0.34883889999999146
  endloop
endfacet
facet normal 0.7296338535579665 0.6823948167415995 0.044404434759951705
  outer loop
    vertex 1.8780719999999538 3.525141999999913 0.2803114999999931
    vertex 1.8752229999999541 3.5240919999999134 0.34326109999999155
    vertex 1.8851309999999537 3.5136569999999137 0.3408193999999916
  endloop
endfacet
facet normal -0.27660662858119434 0.9606694439002839 0.024555907258023688
  outer loop
    vertex 1.9200309999999525 3.5049259999999145 0.3308296999999918
    vertex 1.9251169999999524 3.5084309999999137 0.2509985999999938
    vertex 1.9187579999999527 3.5065999999999145 0.2510003999999938
  endloop
endfacet
facet normal -0.08078030997669601 0.9947824344749513 0.06230930572681845
  outer loop
    vertex 1.9124889999999533 3.503650999999914 0.34883889999999146
    vertex 1.9200989999999525 3.5042689999999146 0.34883829999999133
    vertex 1.9124979999999532 3.5038589999999137 0.3455297999999915
  endloop
endfacet
facet normal 0.34405348072516484 0.3691075289173102 -0.863357883208033
  outer loop
    vertex 1.8850829999999539 3.5135609999999136 0.34268809999999156
    vertex 1.8796899999999537 3.518517999999913 0.3426581999999916
    vertex 1.8752229999999541 3.5240919999999134 0.34326109999999155
  endloop
endfacet
facet normal -0.08106056219581426 0.9947578927381604 0.06233714856835549
  outer loop
    vertex 1.912501999999953 3.503962999999915 0.34387519999999155
    vertex 1.9200729999999528 3.5045799999999137 0.34387429999999153
    vertex 1.912502999999953 3.5039889999999136 0.34346159999999154
  endloop
endfacet
facet normal -0.3634333808791179 0.9314512444843318 0.017741386962798186
  outer loop
    vertex 1.9200569999999528 3.5047459999999133 0.34081259999999164
    vertex 1.9251169999999524 3.5084309999999137 0.2509985999999938
    vertex 1.9200309999999525 3.5049259999999145 0.3308296999999918
  endloop
endfacet
facet normal -0.078427412111595 0.9949700484583489 0.062319689507159916
  outer loop
    vertex 1.912451999999953 3.502818999999915 0.3620756999999911
    vertex 1.9201649999999528 3.5034269999999137 0.3620751999999911
    vertex 1.9124889999999533 3.503650999999914 0.34883889999999146
  endloop
endfacet
facet normal 0.7409294930699258 0.6703423966988166 0.040798988801551264
  outer loop
    vertex 1.8780719999999538 3.525141999999913 0.2803114999999931
    vertex 1.8851309999999537 3.5136569999999137 0.3408193999999916
    vertex 1.8854639999999536 3.5138959999999138 0.3308450999999919
  endloop
endfacet
facet normal 0.7809397740971554 0.6215743543009603 0.061468620518343633
  outer loop
    vertex 1.8780719999999538 3.525141999999913 0.2803114999999931
    vertex 1.8878889999999537 3.5157019999999135 0.2510473999999938
    vertex 1.8998819999999532 3.5164019999999137 0.09160160999999775
  endloop
endfacet
facet normal -0.08109904762938186 0.9947055100292708 0.06311808608485737
  outer loop
    vertex 1.9200729999999528 3.5045799999999137 0.34387429999999153
    vertex 1.9200699999999526 3.5046059999999146 0.34346069999999157
    vertex 1.912502999999953 3.5039889999999136 0.34346159999999154
  endloop
endfacet
facet normal 0.7487933341978283 0.6617286896195687 0.03773173724158603
  outer loop
    vertex 1.8780719999999538 3.525141999999913 0.2803114999999931
    vertex 1.8854639999999536 3.5138959999999138 0.3308450999999919
    vertex 1.8878889999999537 3.5157019999999135 0.2510473999999938
  endloop
endfacet
facet normal -0.0810030132259165 0.9950205829644374 0.0580736715339498
  outer loop
    vertex 1.9200699999999526 3.5046059999999146 0.34346069999999157
    vertex 1.9200689999999532 3.504617999999913 0.34325369999999156
    vertex 1.912502999999953 3.5040019999999132 0.3432547999999916
  endloop
endfacet
facet normal -0.08099906808605598 0.9949735652825665 0.058879158945156926
  outer loop
    vertex 1.912502999999953 3.5040019999999132 0.3432547999999916
    vertex 1.9200689999999532 3.504617999999913 0.34325369999999156
    vertex 1.9125049999999528 3.504035999999915 0.3426829999999916
  endloop
endfacet
facet normal 0.2004615732329375 0.978523597640406 0.04802839283020541
  outer loop
    vertex 1.8991839999999531 3.5087199999999146 0.25102689999999384
    vertex 1.9121829999999531 3.5060579999999133 0.2510066999999938
    vertex 1.8998819999999532 3.5164019999999137 0.09160160999999775
  endloop
endfacet
facet normal -0.08117145437626992 0.9948115004268424 0.061329223156142525
  outer loop
    vertex 1.9200689999999532 3.504617999999913 0.34325369999999156
    vertex 1.9200659999999528 3.5046529999999136 0.34268199999999155
    vertex 1.9125049999999528 3.504035999999915 0.3426829999999916
  endloop
endfacet
facet normal -0.07841906688227848 0.9948655446310982 0.0639765430074291
  outer loop
    vertex 1.9201979999999528 3.5030039999999136 0.36869349999999096
    vertex 1.9201649999999528 3.5034269999999137 0.3620751999999911
    vertex 1.912451999999953 3.502818999999915 0.3620756999999911
  endloop
endfacet
facet normal 0.4070815459977895 0.9114381578039507 0.059708453396400955
  outer loop
    vertex 1.8911669999999536 3.509549999999914 0.34268689999999163
    vertex 1.897845999999953 3.5065669999999134 0.34268559999999154
    vertex 1.8911799999999535 3.5095849999999134 0.34206399999999154
  endloop
endfacet
facet normal -0.40677858836921627 -0.9113386722422055 -0.06319022487823445
  outer loop
    vertex 1.8978339999999536 3.5065199999999144 0.34346409999999156
    vertex 1.8911559999999534 3.5095149999999133 0.3432584999999916
    vertex 1.8978369999999538 3.506532999999915 0.34325729999999155
  endloop
endfacet
facet normal -0.4080249918449813 -0.911539879016753 -0.05109456910500828
  outer loop
    vertex 1.8978559999999534 3.5066009999999133 0.3420625999999916
    vertex 1.8912069999999537 3.5096469999999136 0.3408179999999916
    vertex 1.897877999999953 3.5066609999999137 0.34081649999999164
  endloop
endfacet
facet normal 0.41287068592125786 0.910321936564188 0.02918507352974804
  outer loop
    vertex 1.897877999999953 3.5066609999999137 0.34081649999999164
    vertex 1.8980849999999538 3.5068869999999146 0.33083889999999183
    vertex 1.8914789999999537 3.509882999999914 0.3308422999999918
  endloop
endfacet
facet normal 0.4534589233973588 0.8908770294299335 0.026704367159807108
  outer loop
    vertex 1.8980849999999538 3.5068869999999146 0.33083889999999183
    vertex 1.8991839999999531 3.5087199999999146 0.25102689999999384
    vertex 1.8932599999999535 3.5117349999999137 0.25103799999999377
  endloop
endfacet
facet normal 0.5471468201793543 0.8349635006299013 0.05887537501776051
  outer loop
    vertex 1.8906269999999537 3.5080389999999135 0.3686966999999909
    vertex 1.8907729999999539 3.5084099999999134 0.36207839999999114
    vertex 1.884593999999954 3.5124589999999136 0.3620792999999911
  endloop
endfacet
facet normal 0.5470980142302672 0.8348886876128077 0.06037087146515502
  outer loop
    vertex 1.884593999999954 3.5124589999999136 0.3620792999999911
    vertex 1.8907729999999539 3.5084099999999134 0.36207839999999114
    vertex 1.8849359999999538 3.513191999999914 0.34884309999999147
  endloop
endfacet
facet normal -0.08115541459028688 0.995564020573089 0.0476033572663177
  outer loop
    vertex 1.912506999999953 3.5040709999999144 0.34206009999999154
    vertex 1.920062999999953 3.5046869999999144 0.34205889999999156
    vertex 1.912511999999953 3.504130999999914 0.3408137999999917
  endloop
endfacet
facet normal 0.5465967578102748 0.8352734548973435 0.0595838895604437
  outer loop
    vertex 1.8844119999999536 3.5121059999999145 0.36869739999999096
    vertex 1.8906269999999537 3.5080389999999135 0.3686966999999909
    vertex 1.884593999999954 3.5124589999999136 0.3620792999999911
  endloop
endfacet
facet normal 0.5484548864679754 0.8340624016341127 0.05947392445211986
  outer loop
    vertex 1.8907729999999539 3.5084099999999134 0.36207839999999114
    vertex 1.8910479999999534 3.509172999999914 0.34884209999999144
    vertex 1.8849359999999538 3.513191999999914 0.34884309999999147
  endloop
endfacet
facet normal 0.40656424307485 0.9112974159842454 0.065134751656943
  outer loop
    vertex 1.891144999999954 3.509475999999913 0.34387899999999155
    vertex 1.8978269999999535 3.5064949999999135 0.34387769999999157
    vertex 1.891152999999954 3.5095019999999137 0.34346529999999154
  endloop
endfacet
facet normal -0.08122405974104031 0.9965173447383503 0.018863556260998234
  outer loop
    vertex 1.912511999999953 3.504130999999914 0.3408137999999917
    vertex 1.9200569999999528 3.5047459999999133 0.34081259999999164
    vertex 1.9125739999999531 3.5043249999999135 0.33083219999999186
  endloop
endfacet
facet normal 0.4068094638875487 0.9114083360800262 0.06197503542042948
  outer loop
    vertex 1.8978269999999535 3.5064949999999135 0.34387769999999157
    vertex 1.8978339999999536 3.5065199999999144 0.34346409999999156
    vertex 1.891152999999954 3.5095019999999137 0.34346529999999154
  endloop
endfacet
facet normal 0.4052492956988528 0.9122301419738702 0.0600764214140325
  outer loop
    vertex 1.8906269999999537 3.5080389999999135 0.3686966999999909
    vertex 1.8974409999999537 3.5050119999999136 0.3686958999999909
    vertex 1.8907729999999539 3.5084099999999134 0.36207839999999114
  endloop
endfacet
facet normal 0.4051452530808921 0.9122681569630199 0.06020077821187048
  outer loop
    vertex 1.8974409999999537 3.5050119999999136 0.3686958999999909
    vertex 1.897543999999953 3.5054029999999132 0.3620775999999911
    vertex 1.8907729999999539 3.5084099999999134 0.36207839999999114
  endloop
endfacet
facet normal -0.08114220401952489 0.9955690317583653 0.0475210030467069
  outer loop
    vertex 1.920062999999953 3.5046869999999144 0.34205889999999156
    vertex 1.9200569999999528 3.5047459999999133 0.34081259999999164
    vertex 1.912511999999953 3.504130999999914 0.3408137999999917
  endloop
endfacet
facet normal 0.40705953429959346 0.9113884802447617 0.06061001248095688
  outer loop
    vertex 1.8978369999999538 3.506532999999915 0.34325729999999155
    vertex 1.897845999999953 3.5065669999999134 0.34268559999999154
    vertex 1.8911669999999536 3.509549999999914 0.34268689999999163
  endloop
endfacet
facet normal -0.08211341662107507 0.9963756351067123 0.022203165911855872
  outer loop
    vertex 1.9200309999999525 3.5049259999999145 0.3308296999999918
    vertex 1.9187579999999527 3.5065999999999145 0.2510003999999938
    vertex 1.9121829999999531 3.5060579999999133 0.2510066999999938
  endloop
endfacet
facet normal 0.40833649701523933 0.9122450431138117 0.03271523375437744
  outer loop
    vertex 1.8912069999999537 3.5096469999999136 0.3408179999999916
    vertex 1.897877999999953 3.5066609999999137 0.34081649999999164
    vertex 1.8914789999999537 3.509882999999914 0.3308422999999918
  endloop
endfacet
facet normal 0.41285699131917647 0.9102904316365089 0.030338668228776382
  outer loop
    vertex 1.8914789999999537 3.509882999999914 0.3308422999999918
    vertex 1.8980849999999538 3.5068869999999146 0.33083889999999183
    vertex 1.8932599999999535 3.5117349999999137 0.25103799999999377
  endloop
endfacet
facet normal 0.4061807653596926 0.9117030873175123 0.061762985902004554
  outer loop
    vertex 1.8977499999999536 3.5061929999999135 0.34884119999999147
    vertex 1.8978019999999534 3.506393999999914 0.34553219999999146
    vertex 1.8911129999999539 3.509373999999914 0.3455332999999915
  endloop
endfacet
facet normal -0.08030809354658132 0.9965266607451241 0.02202781276218793
  outer loop
    vertex 1.9125739999999531 3.5043249999999135 0.33083219999999186
    vertex 1.9200309999999525 3.5049259999999145 0.3308296999999918
    vertex 1.9121829999999531 3.5060579999999133 0.2510066999999938
  endloop
endfacet
facet normal 0.4051255970338765 0.9122236834691753 0.061001655271598405
  outer loop
    vertex 1.8907729999999539 3.5084099999999134 0.36207839999999114
    vertex 1.897543999999953 3.5054029999999132 0.3620775999999911
    vertex 1.8910479999999534 3.509172999999914 0.34884209999999144
  endloop
endfacet
facet normal -0.08031559308493336 0.9966037014402312 0.01817877286963714
  outer loop
    vertex 1.9200569999999528 3.5047459999999133 0.34081259999999164
    vertex 1.9200309999999525 3.5049259999999145 0.3308296999999918
    vertex 1.9125739999999531 3.5043249999999135 0.33083219999999186
  endloop
endfacet
facet normal 0.40548099263814824 0.9119048951969418 0.06336108210121111
  outer loop
    vertex 1.8910479999999534 3.509172999999914 0.34884209999999144
    vertex 1.8977499999999536 3.5061929999999135 0.34884119999999147
    vertex 1.8911129999999539 3.509373999999914 0.3455332999999915
  endloop
endfacet
facet normal 0.40612213014578835 0.9115706246460248 0.06406099974480142
  outer loop
    vertex 1.8911129999999539 3.509373999999914 0.3455332999999915
    vertex 1.8978019999999534 3.506393999999914 0.34553219999999146
    vertex 1.891144999999954 3.509475999999913 0.34387899999999155
  endloop
endfacet
facet normal 0.4066504259051432 0.9114920571988943 0.06178722177354476
  outer loop
    vertex 1.8978019999999534 3.506393999999914 0.34553219999999146
    vertex 1.8978269999999535 3.5064949999999135 0.34387769999999157
    vertex 1.891144999999954 3.509475999999913 0.34387899999999155
  endloop
endfacet
facet normal -0.4067785883694513 -0.9113386722424167 -0.06319022487367523
  outer loop
    vertex 1.891152999999954 3.5095019999999137 0.34346529999999154
    vertex 1.8911559999999534 3.5095149999999133 0.3432584999999916
    vertex 1.8978339999999536 3.5065199999999144 0.34346409999999156
  endloop
endfacet
facet normal -0.40676728825930136 -0.9113131783786985 -0.06362911374118879
  outer loop
    vertex 1.8911559999999534 3.5095149999999133 0.3432584999999916
    vertex 1.8911669999999536 3.509549999999914 0.34268689999999163
    vertex 1.8978369999999538 3.506532999999915 0.34325729999999155
  endloop
endfacet
facet normal 0.4074291360049783 0.911500708279997 0.05628461547617365
  outer loop
    vertex 1.897845999999953 3.5065669999999134 0.34268559999999154
    vertex 1.8978559999999534 3.5066009999999133 0.3420625999999916
    vertex 1.8911799999999535 3.5095849999999134 0.34206399999999154
  endloop
endfacet
facet normal 0.4074760429731126 0.9116066340731994 0.05419058143908471
  outer loop
    vertex 1.8911799999999535 3.5095849999999134 0.34206399999999154
    vertex 1.8978559999999534 3.5066009999999133 0.3420625999999916
    vertex 1.8912069999999537 3.5096469999999136 0.3408179999999916
  endloop
endfacet
facet normal 0.40554674533715396 0.9120535622152618 0.060746497815866135
  outer loop
    vertex 1.897543999999953 3.5054029999999132 0.3620775999999911
    vertex 1.8977499999999536 3.5061929999999135 0.34884119999999147
    vertex 1.8910479999999534 3.509172999999914 0.34884209999999144
  endloop
endfacet
facet normal 0.5492390617573533 0.8332857795040228 0.06301795550694674
  outer loop
    vertex 1.885068999999954 3.5135269999999132 0.34325969999999156
    vertex 1.8911559999999534 3.5095149999999133 0.3432584999999916
    vertex 1.8850829999999539 3.5135609999999136 0.34268809999999156
  endloop
endfacet
facet normal 0.5504276290650673 0.8340011395421872 0.03836045364880526
  outer loop
    vertex 1.8851309999999537 3.5136569999999137 0.3408193999999916
    vertex 1.8912069999999537 3.5096469999999136 0.3408179999999916
    vertex 1.8854639999999536 3.5138959999999138 0.3308450999999919
  endloop
endfacet
facet normal 0.5490201706089479 0.8332265790636255 0.06565302892060437
  outer loop
    vertex 1.8850639999999537 3.5135139999999137 0.34346649999999157
    vertex 1.891152999999954 3.5095019999999137 0.34346529999999154
    vertex 1.885068999999954 3.5135269999999132 0.34325969999999156
  endloop
endfacet
facet normal -0.5493290969963254 -0.8334231757679271 -0.060360196206644526
  outer loop
    vertex 1.891152999999954 3.5095019999999137 0.34346529999999154
    vertex 1.885068999999954 3.5135269999999132 0.34325969999999156
    vertex 1.8911559999999534 3.5095149999999133 0.3432584999999916
  endloop
endfacet
facet normal 0.5483483319112389 0.8338995645303646 0.06265479364126844
  outer loop
    vertex 1.8849359999999538 3.513191999999914 0.34884309999999147
    vertex 1.8910479999999534 3.509172999999914 0.34884209999999144
    vertex 1.8850159999999536 3.5133879999999134 0.3455342999999915
  endloop
endfacet
facet normal 0.5491141126363954 0.8333699499733628 0.06299379163805657
  outer loop
    vertex 1.891144999999954 3.509475999999913 0.34387899999999155
    vertex 1.891152999999954 3.5095019999999137 0.34346529999999154
    vertex 1.8850639999999537 3.5135139999999137 0.34346649999999157
  endloop
endfacet
facet normal 0.549706770066394 0.833520350688782 0.05537410884901409
  outer loop
    vertex 1.8850979999999535 3.5135959999999136 0.3420651999999916
    vertex 1.8911799999999535 3.5095849999999134 0.34206399999999154
    vertex 1.8851309999999537 3.5136569999999137 0.3408193999999916
  endloop
endfacet
facet normal 0.5491797637068326 0.8334005860097713 0.06200847017527182
  outer loop
    vertex 1.8911129999999539 3.509373999999914 0.3455332999999915
    vertex 1.891144999999954 3.509475999999913 0.34387899999999155
    vertex 1.8850549999999537 3.5134889999999137 0.3438800999999916
  endloop
endfacet
facet normal 0.5491689963265041 0.8333841593433409 0.062323803071804865
  outer loop
    vertex 1.8850549999999537 3.5134889999999137 0.3438800999999916
    vertex 1.891144999999954 3.509475999999913 0.34387899999999155
    vertex 1.8850639999999537 3.5135139999999137 0.34346649999999157
  endloop
endfacet
facet normal 0.5494324392121576 0.8333769362831028 0.0600572794319579
  outer loop
    vertex 1.8850829999999539 3.5135609999999136 0.34268809999999156
    vertex 1.8911669999999536 3.509549999999914 0.34268689999999163
    vertex 1.8850979999999535 3.5135959999999136 0.3420651999999916
  endloop
endfacet
facet normal 0.5487716327434374 0.8335318420771639 0.06383073976973594
  outer loop
    vertex 1.8850159999999536 3.5133879999999134 0.3455342999999915
    vertex 1.8911129999999539 3.509373999999914 0.3455332999999915
    vertex 1.8850549999999537 3.5134889999999137 0.3438800999999916
  endloop
endfacet
facet normal 0.5496155578730028 0.8333811683644624 0.05829722771651817
  outer loop
    vertex 1.8911669999999536 3.509549999999914 0.34268689999999163
    vertex 1.8911799999999535 3.5095849999999134 0.34206399999999154
    vertex 1.8850979999999535 3.5135959999999136 0.3420651999999916
  endloop
endfacet
facet normal 0.548854392364114 0.8336581479608193 0.06142433004238792
  outer loop
    vertex 1.8910479999999534 3.509172999999914 0.34884209999999144
    vertex 1.8911129999999539 3.509373999999914 0.3455332999999915
    vertex 1.8850159999999536 3.5133879999999134 0.3455342999999915
  endloop
endfacet
facet normal -0.5493810171571805 -0.8332984772923399 -0.061596637323880835
  outer loop
    vertex 1.8911559999999534 3.5095149999999133 0.3432584999999916
    vertex 1.8850829999999539 3.5135609999999136 0.34268809999999156
    vertex 1.8911669999999536 3.509549999999914 0.34268689999999163
  endloop
endfacet
facet normal 0.550049852012972 0.8334234801024393 0.053389728548163456
  outer loop
    vertex 1.8911799999999535 3.5095849999999134 0.34206399999999154
    vertex 1.8912069999999537 3.5096469999999136 0.3408179999999916
    vertex 1.8851309999999537 3.5136569999999137 0.3408193999999916
  endloop
endfacet
facet normal 0.5938466834701991 0.8039451938072649 0.031909902626687435
  outer loop
    vertex 1.8914789999999537 3.509882999999914 0.3308422999999918
    vertex 1.8932599999999535 3.5117349999999137 0.25103799999999377
    vertex 1.8878889999999537 3.5157019999999135 0.2510473999999938
  endloop
endfacet
facet normal 0.5546457053594076 0.8313217148706874 0.03566998613435264
  outer loop
    vertex 1.8854639999999536 3.5138959999999138 0.3308450999999919
    vertex 1.8914789999999537 3.509882999999914 0.3308422999999918
    vertex 1.8878889999999537 3.5157019999999135 0.2510473999999938
  endloop
endfacet
facet normal 0.5546626160107588 0.8313476750627441 0.03479117083214592
  outer loop
    vertex 1.8912069999999537 3.5096469999999136 0.3408179999999916
    vertex 1.8914789999999537 3.509882999999914 0.3308422999999918
    vertex 1.8854639999999536 3.5138959999999138 0.3308450999999919
  endloop
endfacet
facet normal 0.9493395189573911 0.3092662424083812 0.0557572331841314
  outer loop
    vertex 1.877023999999954 3.536964999999913 0.21739349999999466
    vertex 1.8663769999999538 3.534633999999913 0.4116017999999899
    vertex 1.8697349999999537 3.5281949999999136 0.39014239999999045
  endloop
endfacet
facet normal 0.9574661915284669 0.28060791272777963 0.06721377384533765
  outer loop
    vertex 1.8848509999999539 3.540333999999913 0.09160160999999775
    vertex 1.8785309999999538 3.5317679999999134 0.21739239999999466
    vertex 1.8873769999999537 3.5317149999999136 0.09160160999999775
  endloop
endfacet
facet normal 0.9595828784252061 0.2782461018398657 0.04218774992951515
  outer loop
    vertex 1.877023999999954 3.536964999999913 0.21739349999999466
    vertex 1.8752229999999541 3.5240919999999134 0.34326109999999155
    vertex 1.8785309999999538 3.5317679999999134 0.21739239999999466
  endloop
endfacet
facet normal 0.8603916880313961 0.506503991839783 0.05639015354518818
  outer loop
    vertex 1.8697349999999537 3.5281949999999136 0.39014239999999045
    vertex 1.8743169999999538 3.5227989999999134 0.368698599999991
    vertex 1.8752229999999541 3.5240919999999134 0.34326109999999155
  endloop
endfacet
facet normal 0.8403855452922532 0.540230205373581 0.04362866564382973
  outer loop
    vertex 1.8697349999999537 3.5281949999999136 0.39014239999999045
    vertex 1.8731599999999538 3.5211339999999134 0.4116017999999899
    vertex 1.8743169999999538 3.5227989999999134 0.368698599999991
  endloop
endfacet
facet normal 0.8935401155347017 0.4489542669386584 0.005111568037678901
  outer loop
    vertex 1.8663769999999538 3.534633999999913 0.4116017999999899
    vertex 1.8731599999999538 3.5211339999999134 0.4116017999999899
    vertex 1.8697349999999537 3.5281949999999136 0.39014239999999045
  endloop
endfacet
facet normal 0.8112888773596826 0.5818791113088202 0.05680719404198357
  outer loop
    vertex 1.8785309999999538 3.5317679999999134 0.21739239999999466
    vertex 1.8752229999999541 3.5240919999999134 0.34326109999999155
    vertex 1.8873769999999537 3.5317149999999136 0.09160160999999775
  endloop
endfacet
facet normal 0.8777458844451904 0.475206822425103 0.061160757517930965
  outer loop
    vertex 1.877023999999954 3.536964999999913 0.21739349999999466
    vertex 1.8697349999999537 3.5281949999999136 0.39014239999999045
    vertex 1.8752229999999541 3.5240919999999134 0.34326109999999155
  endloop
endfacet
facet normal -0.819838894983714 0.569554103943797 0.058926301026461354
  outer loop
    vertex 1.9427639999999522 3.5243999999999134 0.2514017999999938
    vertex 1.9399919999999522 3.5204079999999136 0.25141989999999376
    vertex 1.9479099999999523 3.5152329999999137 0.4116017999999899
  endloop
endfacet
facet normal 0.958276882756218 0.2778621296972259 0.06706752459385959
  outer loop
    vertex 1.8848509999999539 3.540333999999913 0.09160160999999775
    vertex 1.877023999999954 3.536964999999913 0.21739349999999466
    vertex 1.8785309999999538 3.5317679999999134 0.21739239999999466
  endloop
endfacet
facet normal -0.9932289510975569 -0.0044013099753231295 0.11608996154770818
  outer loop
    vertex 1.9504289999999518 3.558247999999913 0.2512610999999938
    vertex 1.9317849999999526 3.5543619999999123 0.09160160999999775
    vertex 1.9318179999999525 3.5469149999999128 0.09160160999999775
  endloop
endfacet
facet normal -0.47510432868162683 0.8777488446600651 0.0619099553052798
  outer loop
    vertex 1.9389749999999522 3.507937999999913 0.4116017999999899
    vertex 1.9275169999999526 3.5061629999999133 0.34883739999999136
    vertex 1.9276899999999526 3.505322999999914 0.36207439999999114
  endloop
endfacet
facet normal -0.30951088226947426 0.9504343277950416 0.029624353251329328
  outer loop
    vertex 1.9389749999999522 3.507937999999913 0.4116017999999899
    vertex 1.9251169999999524 3.5084309999999137 0.2509985999999938
    vertex 1.9275169999999526 3.5061629999999133 0.34883739999999136
  endloop
endfacet
facet normal -0.9911448001523805 0.08618034682862723 0.10101946818012436
  outer loop
    vertex 1.9504289999999518 3.558247999999913 0.2512610999999938
    vertex 1.9413409999999522 3.547344999999912 0.17139629999999578
    vertex 1.9577369999999517 3.5483919999999123 0.3313711999999918
  endloop
endfacet
facet normal -0.9804565454600608 0.17830391299395126 0.08314251064028175
  outer loop
    vertex 1.957470999999952 3.5596339999999125 0.3313313999999919
    vertex 1.9504289999999518 3.558247999999913 0.2512610999999938
    vertex 1.9617709999999517 3.545848999999913 0.4116017999999899
  endloop
endfacet
facet normal -0.4136395507283723 0.9069339078483821 0.07983237982230615
  outer loop
    vertex 1.9251169999999524 3.5084309999999137 0.2509985999999938
    vertex 1.9275949999999524 3.5165809999999134 0.1712500999999958
    vertex 1.9217999999999524 3.5209489999999137 0.09160160999999775
  endloop
endfacet
facet normal -0.47497609025608906 0.8778205721680351 0.06187694856425304
  outer loop
    vertex 1.9389749999999522 3.507937999999913 0.4116017999999899
    vertex 1.9276899999999526 3.505322999999914 0.36207439999999114
    vertex 1.9277759999999529 3.5049029999999144 0.36869289999999094
  endloop
endfacet
facet normal -0.6328371779907535 0.7707693344175116 0.07370033428883475
  outer loop
    vertex 1.9251169999999524 3.5084309999999137 0.2509985999999938
    vertex 1.9214670511303795 3.5206756336195624 0.09160160999999775
    vertex 1.9169439999999531 3.5169619999999138 0.09160160999999775
  endloop
endfacet
facet normal -0.6328371779907535 0.7707693344175116 0.07370033428883475
  outer loop
    vertex 1.9214670511303795 3.5206756336195624 0.09160160999999775
    vertex 1.9251169999999524 3.5084309999999137 0.2509985999999938
    vertex 1.9217999999999524 3.5209489999999137 0.09160160999999775
  endloop
endfacet
facet normal -0.9456618983776524 0.3065464980596792 0.1084104168616733
  outer loop
    vertex 1.9308539999999523 3.5396489999999132 0.09160160999999775
    vertex 1.9470919999999525 3.533241999999913 0.2513620999999938
    vertex 1.9486309999999523 3.537996999999913 0.25134129999999383
  endloop
endfacet
facet normal -0.916595875785211 0.3942854208536518 0.06626467683314216
  outer loop
    vertex 1.9470919999999525 3.533241999999913 0.2513620999999938
    vertex 1.9451559999999524 3.5287379999999136 0.2513821999999938
    vertex 1.954816999999952 3.524269999999913 0.4116017999999899
  endloop
endfacet
facet normal -0.6286477853719304 0.7753946326948775 0.0597086721920963
  outer loop
    vertex 1.9369859999999524 3.511870999999915 0.3312894999999919
    vertex 1.9275949999999524 3.5165809999999134 0.1712500999999958
    vertex 1.9251169999999524 3.5084309999999137 0.2509985999999938
  endloop
endfacet
facet normal -0.6494984253259911 0.758253227785035 0.05660245624205445
  outer loop
    vertex 1.9479099999999523 3.5152329999999137 0.4116017999999899
    vertex 1.9399919999999522 3.5204079999999136 0.25141989999999376
    vertex 1.9369859999999524 3.511870999999915 0.3312894999999919
  endloop
endfacet
facet normal -0.5971302779982938 0.8003258306578289 0.053981440139518826
  outer loop
    vertex 1.9389749999999522 3.507937999999913 0.4116017999999899
    vertex 1.9369859999999524 3.511870999999915 0.3312894999999919
    vertex 1.9251169999999524 3.5084309999999137 0.2509985999999938
  endloop
endfacet
facet normal -0.9542648794562086 0.29044516208447024 0.07085300034686921
  outer loop
    vertex 1.9577369999999517 3.5483919999999123 0.3313711999999918
    vertex 1.9486309999999523 3.537996999999913 0.25134129999999383
    vertex 1.9595019999999517 3.534618999999913 0.4116017999999899
  endloop
endfacet
facet normal -0.9120105263067985 -0.4088454214973331 0.0328971309731493
  outer loop
    vertex 1.9504289999999518 3.558247999999913 0.2512610999999938
    vertex 1.9577369999999517 3.5483919999999123 0.3313711999999918
    vertex 1.9617709999999517 3.545848999999913 0.4116017999999899
  endloop
endfacet
facet normal -0.9766527960323008 0.18416934575536628 0.11059370726370138
  outer loop
    vertex 1.9413409999999522 3.547344999999912 0.17139629999999578
    vertex 1.9308539999999523 3.5396489999999132 0.09160160999999775
    vertex 1.9486309999999523 3.537996999999913 0.25134129999999383
  endloop
endfacet
facet normal -0.7856841046374674 0.6117045373311505 0.09229326480575141
  outer loop
    vertex 1.925930999999953 3.5264609999999132 0.09160160999999775
    vertex 1.9275949999999524 3.5165809999999134 0.1712500999999958
    vertex 1.9399919999999522 3.5204079999999136 0.25141989999999376
  endloop
endfacet
facet normal -0.9984005925039432 -0.029065519432428542 0.04849177732253467
  outer loop
    vertex 1.957470999999952 3.5596339999999125 0.3313313999999919
    vertex 1.9617709999999517 3.545848999999913 0.4116017999999899
    vertex 1.9614309999999517 3.557527999999913 0.4116017999999899
  endloop
endfacet
facet normal -0.42907864926782857 0.902045101037537 0.04696965442363198
  outer loop
    vertex 1.9389749999999522 3.507937999999913 0.4116017999999899
    vertex 1.9278189999999524 3.5046919999999138 0.37202809999999076
    vertex 1.9282049999999527 3.5028149999999143 0.4116017999999899
  endloop
endfacet
facet normal -0.9907488589813785 0.09069692194613185 0.10094932776692345
  outer loop
    vertex 1.9577369999999517 3.5483919999999123 0.3313711999999918
    vertex 1.9413409999999522 3.547344999999912 0.17139629999999578
    vertex 1.9486309999999523 3.537996999999913 0.25134129999999383
  endloop
endfacet
facet normal -0.871057845638016 0.4807613529859561 0.10063175953729106
  outer loop
    vertex 1.9289199999999525 3.5327659999999135 0.09160160999999775
    vertex 1.9427639999999522 3.5243999999999134 0.2514017999999938
    vertex 1.9451559999999524 3.5287379999999136 0.2513821999999938
  endloop
endfacet
facet normal -0.6315284705935462 0.7735033426666341 0.05351980673843985
  outer loop
    vertex 1.9479099999999523 3.5152329999999137 0.4116017999999899
    vertex 1.9369859999999524 3.511870999999915 0.3312894999999919
    vertex 1.9389749999999522 3.507937999999913 0.4116017999999899
  endloop
endfacet
facet normal -0.9845291473680864 0.13062016213365504 0.1167935410322275
  outer loop
    vertex 1.9413409999999522 3.547344999999912 0.17139629999999578
    vertex 1.9313231258174128 3.5431849628522656 0.09160160999999775
    vertex 1.9308539999999523 3.5396489999999132 0.09160160999999775
  endloop
endfacet
facet normal -0.9845291473680864 0.13062016213365504 0.1167935410322275
  outer loop
    vertex 1.9313231258174128 3.5431849628522656 0.09160160999999775
    vertex 1.9413409999999522 3.547344999999912 0.17139629999999578
    vertex 1.9315106737369894 3.544598576113306 0.09160160999999775
  endloop
endfacet
facet normal -0.9845291473680864 0.13062016213365504 0.1167935410322275
  outer loop
    vertex 1.9315106737369894 3.544598576113306 0.09160160999999775
    vertex 1.9413409999999522 3.547344999999912 0.17139629999999578
    vertex 1.9316511349201255 3.5456572804251993 0.09160160999999775
  endloop
endfacet
facet normal -0.9845291473680864 0.13062016213365504 0.1167935410322275
  outer loop
    vertex 1.9316511349201255 3.5456572804251993 0.09160160999999775
    vertex 1.9413409999999522 3.547344999999912 0.17139629999999578
    vertex 1.9318179999999525 3.5469149999999128 0.09160160999999775
  endloop
endfacet
facet normal -0.6255718008129135 0.7778866121862931 0.05960151515708388
  outer loop
    vertex 1.9369859999999524 3.511870999999915 0.3312894999999919
    vertex 1.9399919999999522 3.5204079999999136 0.25141989999999376
    vertex 1.9275949999999524 3.5165809999999134 0.1712500999999958
  endloop
endfacet
facet normal -0.7969082421136292 0.59724745068434 0.09073442732734989
  outer loop
    vertex 1.925930999999953 3.5264609999999132 0.09160160999999775
    vertex 1.9217999999999524 3.5209489999999137 0.09160160999999775
    vertex 1.9275949999999524 3.5165809999999134 0.1712500999999958
  endloop
endfacet
facet normal -0.7969082421136292 0.59724745068434 0.09073442732734989
  outer loop
    vertex 1.9217999999999524 3.5209489999999137 0.09160160999999775
    vertex 1.925930999999953 3.5264609999999132 0.09160160999999775
    vertex 1.922448425727779 3.5218141955002236 0.09160160999999775
  endloop
endfacet
facet normal -0.7969082421136292 0.59724745068434 0.09073442732734989
  outer loop
    vertex 1.922448425727779 3.5218141955002236 0.09160160999999775
    vertex 1.925930999999953 3.5264609999999132 0.09160160999999775
    vertex 1.9252039615075902 3.5254909113603823 0.09160160999999775
  endloop
endfacet
facet normal -0.47497319990098874 0.8778221973686875 0.06187607924411831
  outer loop
    vertex 1.9389749999999522 3.507937999999913 0.4116017999999899
    vertex 1.9277759999999529 3.5049029999999144 0.36869289999999094
    vertex 1.9278189999999524 3.504692999999915 0.37200219999999085
  endloop
endfacet
facet normal -0.9489266346693286 0.30743885420357586 0.07084908567606864
  outer loop
    vertex 1.9486309999999523 3.537996999999913 0.25134129999999383
    vertex 1.9470919999999525 3.533241999999913 0.2513620999999938
    vertex 1.9595019999999517 3.534618999999913 0.4116017999999899
  endloop
endfacet
facet normal -0.9589961848298157 0.26191072274815175 0.1083009270108011
  outer loop
    vertex 1.9290499999999526 3.533241999999913 0.09160160999999775
    vertex 1.9289199999999525 3.5327659999999135 0.09160160999999775
    vertex 1.9470919999999525 3.533241999999913 0.2513620999999938
  endloop
endfacet
facet normal -0.9569340611732549 0.2694410873039371 0.10806804818693376
  outer loop
    vertex 1.9308539999999523 3.5396489999999132 0.09160160999999775
    vertex 1.9290499999999526 3.533241999999913 0.09160160999999775
    vertex 1.9470919999999525 3.533241999999913 0.2513620999999938
  endloop
endfacet
facet normal -0.9136927814470058 0.3932004073464909 0.10275670680879004
  outer loop
    vertex 1.9470919999999525 3.533241999999913 0.2513620999999938
    vertex 1.9289199999999525 3.5327659999999135 0.09160160999999775
    vertex 1.9451559999999524 3.5287379999999136 0.2513821999999938
  endloop
endfacet
facet normal -0.7930734394387672 0.6061478639154317 0.060160508039106
  outer loop
    vertex 1.9427639999999522 3.5243999999999134 0.2514017999999938
    vertex 1.9479099999999523 3.5152329999999137 0.4116017999999899
    vertex 1.954816999999952 3.524269999999913 0.4116017999999899
  endloop
endfacet
facet normal -0.8990558615845399 0.42621379385815206 0.10020159517453558
  outer loop
    vertex 1.9289199999999525 3.5327659999999135 0.09160160999999775
    vertex 1.925930999999953 3.5264609999999132 0.09160160999999775
    vertex 1.9427639999999522 3.5243999999999134 0.2514017999999938
  endloop
endfacet
facet normal -0.8990558615845399 0.42621379385815206 0.10020159517453558
  outer loop
    vertex 1.925930999999953 3.5264609999999132 0.09160160999999775
    vertex 1.9289199999999525 3.5327659999999135 0.09160160999999775
    vertex 1.9263972438356138 3.527444495277211 0.09160160999999775
  endloop
endfacet
facet normal -0.8990558615845399 0.42621379385815206 0.10020159517453558
  outer loop
    vertex 1.9263972438356138 3.527444495277211 0.09160160999999775
    vertex 1.9289199999999525 3.5327659999999135 0.09160160999999775
    vertex 1.9279852483343278 3.5307942337731606 0.09160160999999775
  endloop
endfacet
facet normal -0.9920509130103304 -0.04199930257707729 0.11862143389122069
  outer loop
    vertex 1.9504289999999518 3.558247999999913 0.2512610999999938
    vertex 1.9318179999999525 3.5469149999999128 0.09160160999999775
    vertex 1.9413409999999522 3.547344999999912 0.17139629999999578
  endloop
endfacet
facet normal -0.9786832443677155 0.19774107582105946 0.055475887798326705
  outer loop
    vertex 1.9577369999999517 3.5483919999999123 0.3313711999999918
    vertex 1.9595019999999517 3.534618999999913 0.4116017999999899
    vertex 1.9617709999999517 3.545848999999913 0.4116017999999899
  endloop
endfacet
facet normal -0.8736526332608299 0.4820362140963032 0.06612234642025987
  outer loop
    vertex 1.9451559999999524 3.5287379999999136 0.2513821999999938
    vertex 1.9427639999999522 3.5243999999999134 0.2514017999999938
    vertex 1.954816999999952 3.524269999999913 0.4116017999999899
  endloop
endfacet
facet normal -0.9090832489281823 0.4112126239437342 0.06687170124566905
  outer loop
    vertex 1.954848999999952 3.5243239999999134 0.4116017999999899
    vertex 1.9470919999999525 3.533241999999913 0.2513620999999938
    vertex 1.954816999999952 3.524269999999913 0.4116017999999899
  endloop
endfacet
facet normal -0.9090832489281823 0.4112126239437342 0.06687170124566905
  outer loop
    vertex 1.9470919999999525 3.533241999999913 0.2513620999999938
    vertex 1.954848999999952 3.5243239999999134 0.4116017999999899
    vertex 1.9595019999999517 3.534618999999913 0.4116017999999899
  endloop
endfacet
facet normal -0.8175982683440302 0.5681547784401421 0.09345169520386606
  outer loop
    vertex 1.925930999999953 3.5264609999999132 0.09160160999999775
    vertex 1.9399919999999522 3.5204079999999136 0.25141989999999376
    vertex 1.9427639999999522 3.5243999999999134 0.2514017999999938
  endloop
endfacet
facet normal 0.8935423980605245 0.4489554137810773 0.004584681549343598
  outer loop
    vertex 1.8663769999999538 3.534633999999913 0.4116017999999899
    vertex 1.8695099999999538 3.5271219999999133 0.5366016999999867
    vertex 1.8731599999999538 3.5211339999999134 0.4116017999999899
  endloop
endfacet
facet normal 0.7175734188091347 0.6964721730688306 0.003860150172105252
  outer loop
    vertex 1.8731599999999538 3.5211339999999134 0.4116017999999899
    vertex 1.8759059999999539 3.5176119999999136 0.5366016999999867
    vertex 1.8837879999999536 3.5101839999999136 0.4116017999999899
  endloop
endfacet
facet normal -0.1979115348438957 0.9802198857275511 1.931544468136288e-18
  outer loop
    vertex 1.9282049999999527 3.5028149999999143 0.5366016999999867
    vertex 1.9282049999999527 3.5028149999999143 0.4116017999999899
    vertex 1.9163429999999528 3.5004199999999135 0.5366016999999867
  endloop
endfacet
facet normal 0.049967630601890196 0.9987474677211166 -0.0025945351588590056
  outer loop
    vertex 1.9163429999999528 3.5004199999999135 0.5366016999999867
    vertex 1.912270999999953 3.500298999999915 0.4116017999999899
    vertex 1.9047899999999531 3.5009979999999143 0.5366016999999867
  endloop
endfacet
facet normal 0.829785628021227 0.5580766431991737 -0.00250436518108578
  outer loop
    vertex 1.8695099999999538 3.5271219999999133 0.5366016999999867
    vertex 1.8759059999999539 3.5176119999999136 0.5366016999999867
    vertex 1.8731599999999538 3.5211339999999134 0.4116017999999899
  endloop
endfacet
facet normal 0.47382987379956354 0.8806102162711447 0.00330116554831466
  outer loop
    vertex 1.893937999999953 3.5042539999999134 0.5366016999999867
    vertex 1.8971449999999535 3.5029969999999135 0.4116017999999899
    vertex 1.8837879999999536 3.5101839999999136 0.4116017999999899
  endloop
endfacet
facet normal 0.28737954192215837 0.9578141243673872 -0.0022587711140978043
  outer loop
    vertex 1.9047899999999531 3.5009979999999143 0.5366016999999867
    vertex 1.8971449999999535 3.5029969999999135 0.4116017999999899
    vertex 1.893937999999953 3.5042539999999134 0.5366016999999867
  endloop
endfacet
facet normal 0.5001755376309402 0.8659239084157582 0.00046517693175644623
  outer loop
    vertex 1.893937999999953 3.5042539999999134 0.5366016999999867
    vertex 1.8837879999999536 3.5101839999999136 0.4116017999999899
    vertex 1.8841789999999539 3.5098909999999135 0.5366016999999867
  endloop
endfacet
facet normal 0.17559471287329365 0.9844498246562505 0.005003952959729148
  outer loop
    vertex 1.9047899999999531 3.5009979999999143 0.5366016999999867
    vertex 1.912270999999953 3.500298999999915 0.4116017999999899
    vertex 1.8971449999999535 3.5029969999999135 0.4116017999999899
  endloop
endfacet
facet normal 0.6822961499575116 0.7310757736819844 -0.0004205810800237732
  outer loop
    vertex 1.8841789999999539 3.5098909999999135 0.5366016999999867
    vertex 1.8837879999999536 3.5101839999999136 0.4116017999999899
    vertex 1.8759059999999539 3.5176119999999136 0.5366016999999867
  endloop
endfacet
facet normal 0.9363475295024182 0.3510664932918405 -0.002370924395322089
  outer loop
    vertex 1.8653849999999543 3.5381239999999132 0.5366016999999867
    vertex 1.8695099999999538 3.5271219999999133 0.5366016999999867
    vertex 1.8663769999999538 3.534633999999913 0.4116017999999899
  endloop
endfacet
facet normal -0.15596761335535828 0.9877535577125409 0.0041246588285357415
  outer loop
    vertex 1.9163429999999528 3.5004199999999135 0.5366016999999867
    vertex 1.9282049999999527 3.5028149999999143 0.4116017999999899
    vertex 1.912270999999953 3.500298999999915 0.4116017999999899
  endloop
endfacet
facet normal 0.0 0.0 -1.0
  outer loop
    vertex 1.9047899999999531 3.5009979999999143 0.5366016999999867
    vertex 1.893937999999953 3.5042539999999134 0.5366016999999867
    vertex 1.8841789999999539 3.5098909999999135 0.5366016999999867
  endloop
endfacet
facet normal 0.0 0.0 -1.0
  outer loop
    vertex 1.8841789999999539 3.5098909999999135 0.5366016999999867
    vertex 1.8759059999999539 3.5176119999999136 0.5366016999999867
    vertex 1.8695099999999538 3.5271219999999133 0.5366016999999867
  endloop
endfacet
facet normal -0.0 -0.0 1.0
  outer loop
    vertex 1.9316511349201255 3.5456572804251993 0.09160160999999775
    vertex 1.9317849999999526 3.5543619999999123 0.09160160999999775
    vertex 1.9316097149829385 3.5543096094468236 0.09160160999999775
  endloop
endfacet
facet normal -0.0 -0.0 1.0
  outer loop
    vertex 1.9317849999999526 3.5543619999999123 0.09160160999999775
    vertex 1.9316511349201255 3.5456572804251993 0.09160160999999775
    vertex 1.9318179999999525 3.5469149999999128 0.09160160999999775
  endloop
endfacet
facet normal 0.0 0.0 1.0
  outer loop
    vertex 1.8695099999999538 3.5271219999999133 0.5366016999999867
    vertex 1.9588373409831692 3.5655325047093807 0.5366016999999867
    vertex 1.8653849999999543 3.5381239999999132 0.5366016999999867
  endloop
endfacet
facet normal 0.0 0.0 1.0
  outer loop
    vertex 1.9588373409831692 3.5655325047093807 0.5366016999999867
    vertex 1.8695099999999538 3.5271219999999133 0.5366016999999867
    vertex 1.8841789999999539 3.5098909999999135 0.5366016999999867
  endloop
endfacet
facet normal 0.0 0.0 1.0
  outer loop
    vertex 1.9588373409831692 3.5655325047093807 0.5366016999999867
    vertex 1.8841789999999539 3.5098909999999135 0.5366016999999867
    vertex 1.9047899999999531 3.5009979999999143 0.5366016999999867
  endloop
endfacet
facet normal 0.0 0.0 1.0
  outer loop
    vertex 1.9588373409831692 3.5655325047093807 0.5366016999999867
    vertex 1.9047899999999531 3.5009979999999143 0.5366016999999867
    vertex 1.9163429999999528 3.5004199999999135 0.5366016999999867
  endloop
endfacet
facet normal 0.0 0.0 1.0
  outer loop
    vertex 1.9588373409831692 3.5655325047093807 0.5366016999999867
    vertex 1.9163429999999528 3.5004199999999135 0.5366016999999867
    vertex 1.9282049999999527 3.5028149999999143 0.5366016999999867
  endloop
endfacet
facet normal 0.0 0.0 1.0
  outer loop
    vertex 1.9588373409831692 3.5655325047093807 0.5366016999999867
    vertex 1.9282049999999527 3.5028149999999143 0.5366016999999867
    vertex 1.9363509999999524 3.5064239999999134 0.5366016999999867
  endloop
endfacet
facet normal 0.0 0.0 1.0
  outer loop
    vertex 1.9588373409831692 3.5655325047093807 0.5366016999999867
    vertex 1.9363509999999524 3.5064239999999134 0.5366016999999867
    vertex 1.9436459999999522 3.5114169999999136 0.5366016999999867
  endloop
endfacet
facet normal 0.0 0.0 1.0
  outer loop
    vertex 1.9588373409831692 3.5655325047093807 0.5366016999999867
    vertex 1.9436459999999522 3.5114169999999136 0.5366016999999867
    vertex 1.949926999999952 3.5175979999999134 0.5366016999999867
  endloop
endfacet
facet normal 0.0 0.0 1.0
  outer loop
    vertex 1.9588373409831692 3.5655325047093807 0.5366016999999867
    vertex 1.949926999999952 3.5175979999999134 0.5366016999999867
    vertex 1.9550309999999518 3.5247739999999137 0.5366016999999867
  endloop
endfacet
facet normal 0.0 0.0 1.0
  outer loop
    vertex 1.9588373409831692 3.5655325047093807 0.5366016999999867
    vertex 1.9550309999999518 3.5247739999999137 0.5366016999999867
    vertex 1.9596062260042963 3.5369307916977712 0.5366016999999867
  endloop
endfacet
facet normal 0.0 0.0 1.0
  outer loop
    vertex 1.9588373409831692 3.5655325047093807 0.5366016999999867
    vertex 1.9596062260042963 3.5369307916977712 0.5366016999999867
    vertex 1.9595379999999516 3.565737999999912 0.5366016999999867
  endloop
endfacet
facet normal 0.0 0.0 1.0
  outer loop
    vertex 1.9595379999999516 3.565737999999912 0.5366016999999867
    vertex 1.9596062260042963 3.5369307916977712 0.5366016999999867
    vertex 1.960777637211768 3.557327226295691 0.5366016999999867
  endloop
endfacet
facet normal 0.0 0.0 1.0
  outer loop
    vertex 1.960777637211768 3.557327226295691 0.5366016999999867
    vertex 1.9596062260042963 3.5369307916977712 0.5366016999999867
    vertex 1.9611832073881181 3.545037530946583 0.5366016999999867
  endloop
endfacet
facet normal 0.0 0.0 1.0
  outer loop
    vertex 1.960777637211768 3.557327226295691 0.5366016999999867
    vertex 1.9611832073881181 3.545037530946583 0.5366016999999867
    vertex 1.961371782564763 3.553296029051996 0.5366016999999867
  endloop
endfacet
facet normal 0.0 0.0 -1.0
  outer loop
    vertex 1.9316097149829385 3.5543096094468236 0.09160160999999775
    vertex 1.8873769999999537 3.5317149999999136 0.09160160999999775
    vertex 1.8852476204854227 3.540452545024206 0.09160160999999775
  endloop
endfacet
facet normal 0.0 0.0 -1.0
  outer loop
    vertex 1.8873769999999537 3.5317149999999136 0.09160160999999775
    vertex 1.9316097149829385 3.5543096094468236 0.09160160999999775
    vertex 1.8925969999999537 3.5226239999999134 0.09160160999999775
  endloop
endfacet
facet normal 0.0 0.0 -1.0
  outer loop
    vertex 1.8925969999999537 3.5226239999999134 0.09160160999999775
    vertex 1.9316097149829385 3.5543096094468236 0.09160160999999775
    vertex 1.8959859999999535 3.519095999999913 0.09160160999999775
  endloop
endfacet
facet normal 0.0 0.0 -1.0
  outer loop
    vertex 1.8959859999999535 3.519095999999913 0.09160160999999775
    vertex 1.9316097149829385 3.5543096094468236 0.09160160999999775
    vertex 1.8998819999999532 3.5164019999999137 0.09160160999999775
  endloop
endfacet
facet normal 0.0 0.0 -1.0
  outer loop
    vertex 1.8998819999999532 3.5164019999999137 0.09160160999999775
    vertex 1.9316097149829385 3.5543096094468236 0.09160160999999775
    vertex 1.9042339999999531 3.5147489999999135 0.09160160999999775
  endloop
endfacet
facet normal 0.0 0.0 -1.0
  outer loop
    vertex 1.9042339999999531 3.5147489999999135 0.09160160999999775
    vertex 1.9316097149829385 3.5543096094468236 0.09160160999999775
    vertex 1.9087159999999532 3.5143339999999132 0.09160160999999775
  endloop
endfacet
facet normal 0.0 0.0 -1.0
  outer loop
    vertex 1.9087159999999532 3.5143339999999132 0.09160160999999775
    vertex 1.9316097149829385 3.5543096094468236 0.09160160999999775
    vertex 1.9129699999999532 3.515119999999914 0.09160160999999775
  endloop
endfacet
facet normal 0.0 0.0 -1.0
  outer loop
    vertex 1.9129699999999532 3.515119999999914 0.09160160999999775
    vertex 1.9316097149829385 3.5543096094468236 0.09160160999999775
    vertex 1.9169439999999531 3.5169619999999138 0.09160160999999775
  endloop
endfacet
facet normal 0.0 0.0 -1.0
  outer loop
    vertex 1.9169439999999531 3.5169619999999138 0.09160160999999775
    vertex 1.9316097149829385 3.5543096094468236 0.09160160999999775
    vertex 1.9214670511303795 3.5206756336195624 0.09160160999999775
  endloop
endfacet
facet normal 0.0 0.0 -1.0
  outer loop
    vertex 1.9214670511303795 3.5206756336195624 0.09160160999999775
    vertex 1.9316097149829385 3.5543096094468236 0.09160160999999775
    vertex 1.922448425727779 3.5218141955002236 0.09160160999999775
  endloop
endfacet
facet normal 0.0 0.0 -1.0
  outer loop
    vertex 1.922448425727779 3.5218141955002236 0.09160160999999775
    vertex 1.9316097149829385 3.5543096094468236 0.09160160999999775
    vertex 1.9252039615075902 3.5254909113603823 0.09160160999999775
  endloop
endfacet
facet normal 0.0 0.0 -1.0
  outer loop
    vertex 1.9252039615075902 3.5254909113603823 0.09160160999999775
    vertex 1.9316097149829385 3.5543096094468236 0.09160160999999775
    vertex 1.9263972438356138 3.527444495277211 0.09160160999999775
  endloop
endfacet
facet normal 0.0 0.0 -1.0
  outer loop
    vertex 1.9263972438356138 3.527444495277211 0.09160160999999775
    vertex 1.9316097149829385 3.5543096094468236 0.09160160999999775
    vertex 1.9279852483343278 3.5307942337731606 0.09160160999999775
  endloop
endfacet
facet normal 0.0 0.0 -1.0
  outer loop
    vertex 1.9279852483343278 3.5307942337731606 0.09160160999999775
    vertex 1.9316097149829385 3.5543096094468236 0.09160160999999775
    vertex 1.9290499999999526 3.533241999999913 0.09160160999999775
  endloop
endfacet
facet normal 0.0 0.0 -1.0
  outer loop
    vertex 1.9290499999999526 3.533241999999913 0.09160160999999775
    vertex 1.9316097149829385 3.5543096094468236 0.09160160999999775
    vertex 1.9313231258174128 3.5431849628522656 0.09160160999999775
  endloop
endfacet
facet normal 0.0 0.0 -1.0
  outer loop
    vertex 1.9313231258174128 3.5431849628522656 0.09160160999999775
    vertex 1.9316097149829385 3.5543096094468236 0.09160160999999775
    vertex 1.9315106737369894 3.544598576113306 0.09160160999999775
  endloop
endfacet
facet normal 0.0 0.0 -1.0
  outer loop
    vertex 1.9315106737369894 3.544598576113306 0.09160160999999775
    vertex 1.9316097149829385 3.5543096094468236 0.09160160999999775
    vertex 1.9316511349201255 3.5456572804251993 0.09160160999999775
  endloop
endfacet
facet normal -0.9892979227334658 -0.1458094774298301 -0.005405216636685595
  outer loop
    vertex 1.961371782564763 3.553296029051996 0.5366016999999867
    vertex 1.9614163996426246 3.557591350295216 0.4125663146717418
    vertex 1.9619829999999516 3.549148999999913 0.5366016999999867
  endloop
endfacet
facet normal -0.9892979227334658 -0.1458094774298301 -0.005405216636685595
  outer loop
    vertex 1.9614163996426246 3.557591350295216 0.4125663146717418
    vertex 1.961371782564763 3.553296029051996 0.5366016999999867
    vertex 1.960777637211768 3.557327226295691 0.5366016999999867
  endloop
endfacet
facet normal -0.9892979227334658 -0.1458094774298301 -0.005405216636685595
  outer loop
    vertex 1.9614163996426246 3.557591350295216 0.4125663146717418
    vertex 1.960777637211768 3.557327226295691 0.5366016999999867
    vertex 1.9595379999999516 3.565737999999912 0.5366016999999867
  endloop
endfacet
facet normal -0.2807990754751055 0.9574156353639056 -0.06713553733348053
  outer loop
    vertex 1.8653849999999543 3.5381239999999132 0.5366016999999867
    vertex 1.9614163996426246 3.557591350295216 0.4125663146717418
    vertex 1.9614309999999517 3.557527999999913 0.4116017999999899
  endloop
endfacet
facet normal -0.2807990754751055 0.9574156353639056 -0.06713553733348053
  outer loop
    vertex 1.9614163996426246 3.557591350295216 0.4125663146717418
    vertex 1.8653849999999543 3.5381239999999132 0.5366016999999867
    vertex 1.9595379999999516 3.565737999999912 0.5366016999999867
  endloop
endfacet
facet normal -0.2807990754751055 0.9574156353639056 -0.06713553733348053
  outer loop
    vertex 1.9595379999999516 3.565737999999912 0.5366016999999867
    vertex 1.8653849999999543 3.5381239999999132 0.5366016999999867
    vertex 1.9588373409831692 3.5655325047093807 0.5366016999999867
  endloop
endfacet
facet normal -0.2863554382039951 0.9580700125938619 0.010119979219117852
  outer loop
    vertex 1.9504289999999518 3.558247999999913 0.2512610999999938
    vertex 1.8852476204854227 3.540452545024206 0.09160160999999775
    vertex 1.8848509999999539 3.540333999999913 0.09160160999999775
  endloop
endfacet
facet normal -0.2863554382039951 0.9580700125938619 0.010119979219117852
  outer loop
    vertex 1.8852476204854227 3.540452545024206 0.09160160999999775
    vertex 1.9504289999999518 3.558247999999913 0.2512610999999938
    vertex 1.9316097149829385 3.5543096094468236 0.09160160999999775
  endloop
endfacet
facet normal -0.2863554382039951 0.9580700125938619 0.010119979219117852
  outer loop
    vertex 1.9316097149829385 3.5543096094468236 0.09160160999999775
    vertex 1.9504289999999518 3.558247999999913 0.2512610999999938
    vertex 1.9317849999999526 3.5543619999999123 0.09160160999999775
  endloop
endfacet
facet normal -0.27691587836972364 0.9608872397563222 -0.003648120091317476
  outer loop
    vertex 1.8663769999999538 3.534633999999913 0.4116017999999899
    vertex 1.9504289999999518 3.558247999999913 0.2512610999999938
    vertex 1.877023999999954 3.536964999999913 0.21739349999999466
  endloop
endfacet
facet normal -0.2819295223985207 0.9594004773971613 0.008152813639560264
  outer loop
    vertex 1.9504289999999518 3.558247999999913 0.2512610999999938
    vertex 1.8848509999999539 3.540333999999913 0.09160160999999775
    vertex 1.877023999999954 3.536964999999913 0.21739349999999466
  endloop
endfacet
facet normal -0.2596337091585759 0.9656877875308251 0.006118339838584865
  outer loop
    vertex 1.8663769999999538 3.534633999999913 0.4116017999999899
    vertex 1.957470999999952 3.5596339999999125 0.33133139999999184
    vertex 1.9504289999999518 3.558247999999913 0.2512610999999938
  endloop
endfacet
facet normal -0.23399597677313524 0.9715319986106858 0.0370332084690623
  outer loop
    vertex 1.9614309999999517 3.557527999999913 0.4116017999999899
    vertex 1.957470999999952 3.5596339999999125 0.33133139999999184
    vertex 1.8663769999999538 3.534633999999913 0.4116017999999899
  endloop
endfacet
facet normal -0.2340581849810164 0.9717902819596828 -0.028989893620240986
  outer loop
    vertex 1.8653849999999543 3.5381239999999132 0.5366016999999867
    vertex 1.9614309999999517 3.557527999999913 0.4116017999999899
    vertex 1.8663769999999538 3.534633999999913 0.4116017999999899
  endloop
endfacet
endsolid 2015new_separate_human-HUTA
