solid Object01
facet normal -0.8483616295290008 -0.5294141681480492 -0.0017844066262241581
  outer loop
    vertex 1.9512589999999521 3.5813989999999123 0.5366016999999867
    vertex 1.9526919999999524 3.5795239999999118 0.4116017999999899
    vertex 1.9557079999999523 3.5746909999999117 0.4116017999999899
  endloop
endfacet
facet normal -0.7985569750799059 -0.6019192152674783 -0.00012586903399799035
  outer loop
    vertex 1.9508369999999522 3.581984999999912 0.4116017999999899
    vertex 1.9526919999999524 3.5795239999999118 0.4116017999999899
    vertex 1.9512589999999521 3.5813989999999123 0.5366016999999867
  endloop
endfacet
facet normal -0.7297568107223811 -0.6837064043119554 -0.0007415572236599276
  outer loop
    vertex 1.9452459999999523 3.5878169999999114 0.5366016999999867
    vertex 1.9508369999999522 3.581984999999912 0.4116017999999899
    vertex 1.9512589999999521 3.5813989999999123 0.5366016999999867
  endloop
endfacet
facet normal -0.7230973630596711 -0.6907461112839951 -0.00011524837906769648
  outer loop
    vertex 1.944943999999952 3.5881539999999115 0.4116017999999899
    vertex 1.9508369999999522 3.581984999999912 0.4116017999999899
    vertex 1.9452459999999523 3.5878169999999114 0.5366016999999867
  endloop
endfacet
facet normal -0.661130060560997 -0.7502711923180555 -0.0004254412485267741
  outer loop
    vertex 1.9452459999999523 3.5878169999999114 0.5366016999999867
    vertex 1.9448429999999526 3.5882429999999115 0.4116017999999899
    vertex 1.944943999999952 3.5881539999999115 0.4116017999999899
  endloop
endfacet
facet normal -0.09234294895150982 -0.9957272617433646 0.0
  outer loop
    vertex 1.912922999999953 3.6003219999999114 0.5366016999999867
    vertex 1.912922999999953 3.6003219999999114 0.4116017999999899
    vertex 1.9217649999999529 3.599501999999912 0.4116017999999899
  endloop
endfacet
facet normal -0.972409211457452 -0.23328110224933418 0.0005027982022823587
  outer loop
    vertex 1.9592979999999516 3.5664689999999126 0.4116017999999899
    vertex 1.9614119999999515 3.557656999999913 0.4116017999999899
    vertex 1.9595379999999516 3.565737999999912 0.5366016999999867
  endloop
endfacet
facet normal -0.9164486262407456 -0.40015210024371906 0.0004605778880272814
  outer loop
    vertex 1.9557079999999523 3.5746909999999117 0.4116017999999899
    vertex 1.9592979999999516 3.5664689999999126 0.4116017999999899
    vertex 1.956089999999952 3.5739599999999125 0.5366016999999867
  endloop
endfacet
facet normal -0.8386674747763135 -0.5446434427536242 -0.0006221075479935968
  outer loop
    vertex 1.9512589999999521 3.5813989999999123 0.5366016999999867
    vertex 1.9557079999999523 3.5746909999999117 0.4116017999999899
    vertex 1.956089999999952 3.5739599999999125 0.5366016999999867
  endloop
endfacet
facet normal -0.9221916899370443 -0.3867327836174402 -0.0004910056667209953
  outer loop
    vertex 1.956089999999952 3.5739599999999125 0.5366016999999867
    vertex 1.9592979999999516 3.5664689999999126 0.4116017999999899
    vertex 1.9595379999999516 3.565737999999912 0.5366016999999867
  endloop
endfacet
facet normal -0.27244485588490736 -0.9621713987132237 -3.013894915419263e-07
  outer loop
    vertex 1.9218919999999524 3.599465999999912 0.5366016999999867
    vertex 1.9217649999999529 3.599501999999912 0.4116017999999899
    vertex 1.9301419999999523 3.597129999999912 0.4116017999999899
  endloop
endfacet
facet normal -0.5990498543216912 -0.8007113312860333 -0.0007974881246826637
  outer loop
    vertex 1.9382299999999524 3.593065999999912 0.5366016999999867
    vertex 1.9448429999999526 3.5882429999999115 0.4116017999999899
    vertex 1.9452459999999523 3.5878169999999114 0.5366016999999867
  endloop
endfacet
facet normal -0.09500812420480485 -0.9954764789641134 -0.00019016912388426343
  outer loop
    vertex 1.912922999999953 3.6003219999999114 0.5366016999999867
    vertex 1.9217649999999529 3.599501999999912 0.4116017999999899
    vertex 1.9218919999999524 3.599465999999912 0.5366016999999867
  endloop
endfacet
facet normal -0.4481250051483986 -0.8939706359064354 -0.0006941885846887818
  outer loop
    vertex 1.9303859999999524 3.5969979999999118 0.5366016999999867
    vertex 1.9378889999999525 3.593333999999912 0.4116017999999899
    vertex 1.9382299999999524 3.593065999999912 0.5366016999999867
  endloop
endfacet
facet normal -0.4400124418501418 -0.8979916720266322 -8.937499066812395e-05
  outer loop
    vertex 1.9303859999999524 3.5969979999999118 0.5366016999999867
    vertex 1.9301419999999523 3.597129999999912 0.4116017999999899
    vertex 1.9378889999999525 3.593333999999912 0.4116017999999899
  endloop
endfacet
facet normal -0.2790186900988272 -0.9602855566042852 -0.00046941744023493615
  outer loop
    vertex 1.9218919999999524 3.599465999999912 0.5366016999999867
    vertex 1.9301419999999523 3.597129999999912 0.4116017999999899
    vertex 1.9303859999999524 3.5969979999999118 0.5366016999999867
  endloop
endfacet
facet normal -0.5907145655084884 -0.8068805909538018 -0.00011848274708346164
  outer loop
    vertex 1.9382299999999524 3.593065999999912 0.5366016999999867
    vertex 1.9378889999999525 3.593333999999912 0.4116017999999899
    vertex 1.9448429999999526 3.5882429999999115 0.4116017999999899
  endloop
endfacet
facet normal 0.1025576831158927 -0.9946992491456856 0.0074381034484121335
  outer loop
    vertex 1.903000999999953 3.599298999999912 0.4116017999999899
    vertex 1.9062219999999532 3.5990319999999114 0.3314841999999919
    vertex 1.912922999999953 3.6003219999999114 0.4116017999999899
  endloop
endfacet
facet normal 0.2917748320164058 -0.9546782516495818 0.058795265362920276
  outer loop
    vertex 1.9009379999999536 3.5947429999999114 0.2514985999999938
    vertex 1.9043489999999532 3.585937999999912 0.09160160999999775
    vertex 1.906382999999953 3.596406999999912 0.25149639999999385
  endloop
endfacet
facet normal 0.09272754490000489 -0.9951496421735344 0.03284497067595166
  outer loop
    vertex 1.9062219999999532 3.5990319999999114 0.3314841999999919
    vertex 1.906382999999953 3.596406999999912 0.25149639999999385
    vertex 1.912918999999953 3.599655999999911 0.33148349999999177
  endloop
endfacet
facet normal 0.3159324460897291 -0.9469525991083543 0.05888518107039287
  outer loop
    vertex 1.9009379999999536 3.5947429999999114 0.2514985999999938
    vertex 1.900985999999953 3.5848159999999116 0.09160160999999775
    vertex 1.9043489999999532 3.585937999999912 0.09160160999999775
  endloop
endfacet
facet normal 0.573165966129414 -0.8178539782494347 0.05094747817614363
  outer loop
    vertex 1.9009379999999536 3.5947429999999114 0.2514985999999938
    vertex 1.8963577160267067 3.581572419940883 0.09160160999999775
    vertex 1.900985999999953 3.5848159999999116 0.09160160999999775
  endloop
endfacet
facet normal 0.573165966129414 -0.8178539782494347 0.05094747817614363
  outer loop
    vertex 1.8963577160267067 3.581572419940883 0.09160160999999775
    vertex 1.9009379999999536 3.5947429999999114 0.2514985999999938
    vertex 1.8948659999999535 3.580526999999912 0.09160160999999775
  endloop
endfacet
facet normal 0.48584584956038984 -0.8736830547386032 0.025134246110952187
  outer loop
    vertex 1.885454999999954 3.5917399999999122 0.4116017999999899
    vertex 1.8997039999999532 3.5973589999999116 0.33148829999999185
    vertex 1.8937809999999535 3.596369999999912 0.4116017999999899
  endloop
endfacet
facet normal 0.5345886792293415 -0.8443511933030464 0.03586093149305717
  outer loop
    vertex 1.885454999999954 3.5917399999999122 0.4116017999999899
    vertex 1.9009379999999536 3.5947429999999114 0.2514985999999938
    vertex 1.8997039999999532 3.5973589999999116 0.33148829999999185
  endloop
endfacet
facet normal 0.302751358904988 -0.9530104230467631 0.010618297670193736
  outer loop
    vertex 1.8937809999999535 3.596369999999912 0.4116017999999899
    vertex 1.8997039999999532 3.5973589999999116 0.33148829999999185
    vertex 1.903000999999953 3.599298999999912 0.4116017999999899
  endloop
endfacet
facet normal 0.2486009575643968 -0.968515738227514 0.013222280577825747
  outer loop
    vertex 1.903000999999953 3.599298999999912 0.4116017999999899
    vertex 1.8997039999999532 3.5973589999999116 0.33148829999999185
    vertex 1.9062219999999532 3.5990319999999114 0.3314841999999919
  endloop
endfacet
facet normal 0.11876058804416037 -0.9908988146301373 0.06336767229427169
  outer loop
    vertex 1.912055999999953 3.597086999999912 0.2514976999999938
    vertex 1.906382999999953 3.596406999999912 0.25149639999999385
    vertex 1.9043489999999532 3.585937999999912 0.09160160999999775
  endloop
endfacet
facet normal 0.09277187997314539 -0.9956530285610052 0.008271940736415177
  outer loop
    vertex 1.912922999999953 3.6003219999999114 0.4116017999999899
    vertex 1.9062219999999532 3.5990319999999114 0.3314841999999919
    vertex 1.912918999999953 3.599655999999911 0.33148349999999177
  endloop
endfacet
facet normal 0.8061760686061095 -0.5892945177949698 0.053029404141394995
  outer loop
    vertex 1.8896759999999535 3.592502999999912 0.3315000999999918
    vertex 1.8677509999999538 3.569716999999912 0.4116017999999899
    vertex 1.8864669999999533 3.5665249999999125 0.09160160999999775
  endloop
endfacet
facet normal 0.11895147862684786 -0.9924286872638264 0.030591607154330226
  outer loop
    vertex 1.912918999999953 3.599655999999911 0.33148349999999177
    vertex 1.906382999999953 3.596406999999912 0.25149639999999385
    vertex 1.912055999999953 3.597086999999912 0.2514976999999938
  endloop
endfacet
facet normal 0.10660847714281627 -0.9922361909076587 0.0640466552940107
  outer loop
    vertex 1.912055999999953 3.597086999999912 0.2514976999999938
    vertex 1.9043489999999532 3.585937999999912 0.09160160999999775
    vertex 1.9079229999999532 3.586321999999912 0.09160160999999775
  endloop
endfacet
facet normal -0.9648957699593499 -0.2594304001244358 0.04089034856575208
  outer loop
    vertex 1.9614119999999515 3.557656999999913 0.4116017999999899
    vertex 1.957470999999952 3.5596339999999125 0.3313313999999919
    vertex 1.9614309999999517 3.557527999999913 0.4116017999999899
  endloop
endfacet
facet normal -0.9648957699593499 -0.2594304001244358 0.04089034856575208
  outer loop
    vertex 1.957470999999952 3.5596339999999125 0.3313313999999919
    vertex 1.9614119999999515 3.557656999999913 0.4116017999999899
    vertex 1.958306999999952 3.5691729999999127 0.4116017999999899
  endloop
endfacet
facet normal 0.24850444592838478 -0.9680930479044397 0.03227058959670191
  outer loop
    vertex 1.8997039999999532 3.5973589999999116 0.33148829999999185
    vertex 1.906382999999953 3.596406999999912 0.25149639999999385
    vertex 1.9062219999999532 3.5990319999999114 0.3314841999999919
  endloop
endfacet
facet normal 0.6454135473767936 -0.7633651657851913 0.02673904501381878
  outer loop
    vertex 1.8782129999999537 3.5856169999999117 0.4116017999999899
    vertex 1.8896759999999535 3.592502999999912 0.3315000999999918
    vertex 1.885454999999954 3.5917399999999122 0.4116017999999899
  endloop
endfacet
facet normal 0.8785115714960231 -0.46533174758745605 0.10809155117210523
  outer loop
    vertex 1.8896759999999535 3.592502999999912 0.3315000999999918
    vertex 1.8722479999999537 3.578206999999912 0.4116017999999899
    vertex 1.8677509999999538 3.569716999999912 0.4116017999999899
  endloop
endfacet
facet normal -0.9699532991522604 -0.24020209557835165 0.03864648423096613
  outer loop
    vertex 1.9549039999999522 3.569994999999912 0.3313019999999918
    vertex 1.957470999999952 3.5596339999999125 0.3313313999999919
    vertex 1.958306999999952 3.5691729999999127 0.4116017999999899
  endloop
endfacet
facet normal 0.9925487280567956 0.10336035964182452 0.06452641697436833
  outer loop
    vertex 1.8848509999999539 3.540333999999913 0.09160160999999775
    vertex 1.883921999999954 3.5492549999999135 0.09160160999999775
    vertex 1.877023999999954 3.536964999999913 0.21739349999999466
  endloop
endfacet
facet normal 0.9925487280567956 0.10336035964182452 0.06452641697436833
  outer loop
    vertex 1.883921999999954 3.5492549999999135 0.09160160999999775
    vertex 1.8848509999999539 3.540333999999913 0.09160160999999775
    vertex 1.8845335131219472 3.5433827625819343 0.09160160999999775
  endloop
endfacet
facet normal 0.9925487280567956 0.10336035964182452 0.06452641697436833
  outer loop
    vertex 1.883921999999954 3.5492549999999135 0.09160160999999775
    vertex 1.8845335131219472 3.5433827625819343 0.09160160999999775
    vertex 1.8843727395983685 3.5449266383664813 0.09160160999999775
  endloop
endfacet
facet normal 0.9925487280567956 0.10336035964182452 0.06452641697436833
  outer loop
    vertex 1.883921999999954 3.5492549999999135 0.09160160999999775
    vertex 1.8843727395983685 3.5449266383664813 0.09160160999999775
    vertex 1.8842665766221576 3.545946100057309 0.09160160999999775
  endloop
endfacet
facet normal 0.9925487280567956 0.10336035964182452 0.06452641697436833
  outer loop
    vertex 1.883921999999954 3.5492549999999135 0.09160160999999775
    vertex 1.8842665766221576 3.545946100057309 0.09160160999999775
    vertex 1.8841500197550165 3.5470653721905334 0.09160160999999775
  endloop
endfacet
facet normal 0.29208496062291944 -0.9557235179137704 0.03576217393328698
  outer loop
    vertex 1.8997039999999532 3.5973589999999116 0.33148829999999185
    vertex 1.9009379999999536 3.5947429999999114 0.2514985999999938
    vertex 1.906382999999953 3.596406999999912 0.25149639999999385
  endloop
endfacet
facet normal -0.8785397357290621 -0.4765723713765683 0.0323528605477792
  outer loop
    vertex 1.9526919999999524 3.5795239999999118 0.4116017999999899
    vertex 1.9549039999999522 3.569994999999912 0.3313019999999918
    vertex 1.958306999999952 3.5691729999999127 0.4116017999999899
  endloop
endfacet
facet normal 0.9553302363328884 -0.2896393144969333 0.05876399446850425
  outer loop
    vertex 1.8677509999999538 3.569716999999912 0.4116017999999899
    vertex 1.864911999999954 3.560352999999913 0.4116017999999899
    vertex 1.8864669999999533 3.5665249999999125 0.09160160999999775
  endloop
endfacet
facet normal 0.9967705036201587 -0.06407890820921175 0.04839893217345524
  outer loop
    vertex 1.883921999999954 3.5492549999999135 0.09160160999999775
    vertex 1.8844909999999537 3.5581059999999125 0.09160160999999775
    vertex 1.877023999999954 3.536964999999913 0.21739349999999466
  endloop
endfacet
facet normal 0.9967705036201587 -0.06407890820921175 0.04839893217345524
  outer loop
    vertex 1.8844909999999537 3.5581059999999125 0.09160160999999775
    vertex 1.883921999999954 3.5492549999999135 0.09160160999999775
    vertex 1.8840665521875626 3.5515035613576 0.09160160999999775
  endloop
endfacet
facet normal 0.9967705036201587 -0.06407890820921175 0.04839893217345524
  outer loop
    vertex 1.8844909999999537 3.5581059999999125 0.09160160999999775
    vertex 1.8840665521875626 3.5515035613576 0.09160160999999775
    vertex 1.8843505317250118 3.55592096537511 0.09160160999999775
  endloop
endfacet
facet normal 0.912005396773336 -0.4099236855576396 0.014447431437854753
  outer loop
    vertex 1.8872933847931948 3.56836355536473 0.09160160999999775
    vertex 1.8931639999999537 3.584242999999912 0.1715692999999958
    vertex 1.8864669999999533 3.5665249999999125 0.09160160999999775
  endloop
endfacet
facet normal 0.912005396773336 -0.4099236855576396 0.014447431437854753
  outer loop
    vertex 1.8931639999999537 3.584242999999912 0.1715692999999958
    vertex 1.8872933847931948 3.56836355536473 0.09160160999999775
    vertex 1.8890004356931562 3.5721614321115047 0.09160160999999775
  endloop
endfacet
facet normal 0.912005396773336 -0.4099236855576396 0.014447431437854753
  outer loop
    vertex 1.8931639999999537 3.584242999999912 0.1715692999999958
    vertex 1.8890004356931562 3.5721614321115047 0.09160160999999775
    vertex 1.8898919999999535 3.5741449999999118 0.09160160999999775
  endloop
endfacet
facet normal 0.20528228463196496 -0.978701664846723 0.0014949389732522235
  outer loop
    vertex 1.885454999999954 3.5917399999999122 0.4116017999999899
    vertex 1.8896759999999535 3.592502999999912 0.3315000999999918
    vertex 1.9009379999999536 3.5947429999999114 0.2514985999999938
  endloop
endfacet
facet normal 0.7879296659431793 -0.6140962329052563 0.0453062717318849
  outer loop
    vertex 1.8910883105742622 3.575679952570326 0.09160160999999775
    vertex 1.8931639999999537 3.584242999999912 0.1715692999999958
    vertex 1.8898919999999535 3.5741449999999118 0.09160160999999775
  endloop
endfacet
facet normal 0.7879296659431793 -0.6140962329052563 0.0453062717318849
  outer loop
    vertex 1.8931639999999537 3.584242999999912 0.1715692999999958
    vertex 1.8910883105742622 3.575679952570326 0.09160160999999775
    vertex 1.8935811436537653 3.5788784368311597 0.09160160999999775
  endloop
endfacet
facet normal 0.7879296659431793 -0.6140962329052563 0.0453062717318849
  outer loop
    vertex 1.8931639999999537 3.584242999999912 0.1715692999999958
    vertex 1.8935811436537653 3.5788784368311597 0.09160160999999775
    vertex 1.8948659999999535 3.580526999999912 0.09160160999999775
  endloop
endfacet
facet normal 0.5815174106032401 -0.8119892838040761 0.05010892288451274
  outer loop
    vertex 1.9009379999999536 3.5947429999999114 0.2514985999999938
    vertex 1.8931639999999537 3.584242999999912 0.1715692999999958
    vertex 1.8948659999999535 3.580526999999912 0.09160160999999775
  endloop
endfacet
facet normal 0.9864390371608409 0.15430401562930096 0.05593117847735583
  outer loop
    vertex 1.863922999999954 3.550321999999912 0.4116017999999899
    vertex 1.8663769999999538 3.534633999999913 0.4116017999999899
    vertex 1.877023999999954 3.536964999999913 0.21739349999999466
  endloop
endfacet
facet normal 0.9980839450005472 0.010400055201483143 0.060994078269541514
  outer loop
    vertex 1.864911999999954 3.560352999999913 0.4116017999999899
    vertex 1.877023999999954 3.536964999999913 0.21739349999999466
    vertex 1.8844909999999537 3.5581059999999125 0.09160160999999775
  endloop
endfacet
facet normal 0.5554934773763787 -0.8297021369608956 0.05496690381331145
  outer loop
    vertex 1.8896759999999535 3.592502999999912 0.3315000999999918
    vertex 1.8931639999999537 3.584242999999912 0.1715692999999958
    vertex 1.9009379999999536 3.5947429999999114 0.2514985999999938
  endloop
endfacet
facet normal 0.7776802418092618 -0.6260273471514634 0.057473490567299265
  outer loop
    vertex 1.8896759999999535 3.592502999999912 0.3315000999999918
    vertex 1.8782129999999537 3.5856169999999117 0.4116017999999899
    vertex 1.8722479999999537 3.578206999999912 0.4116017999999899
  endloop
endfacet
facet normal 0.971728104929499 -0.22807159227229482 0.061056030730015566
  outer loop
    vertex 1.884979612648507 3.560187796502024 0.09160160999999775
    vertex 1.864911999999954 3.560352999999913 0.4116017999999899
    vertex 1.8844909999999537 3.5581059999999125 0.09160160999999775
  endloop
endfacet
facet normal 0.971728104929499 -0.22807159227229482 0.061056030730015566
  outer loop
    vertex 1.864911999999954 3.560352999999913 0.4116017999999899
    vertex 1.884979612648507 3.560187796502024 0.09160160999999775
    vertex 1.8852334012159333 3.5612690950592922 0.09160160999999775
  endloop
endfacet
facet normal 0.971728104929499 -0.22807159227229482 0.061056030730015566
  outer loop
    vertex 1.864911999999954 3.560352999999913 0.4116017999999899
    vertex 1.8852334012159333 3.5612690950592922 0.09160160999999775
    vertex 1.8864669999999533 3.5665249999999125 0.09160160999999775
  endloop
endfacet
facet normal 0.971728104929499 -0.22807159227229482 0.061056030730015566
  outer loop
    vertex 1.8864669999999533 3.5665249999999125 0.09160160999999775
    vertex 1.8852334012159333 3.5612690950592922 0.09160160999999775
    vertex 1.8855149928612838 3.562468852175792 0.09160160999999775
  endloop
endfacet
facet normal 0.971728104929499 -0.22807159227229482 0.061056030730015566
  outer loop
    vertex 1.8864669999999533 3.5665249999999125 0.09160160999999775
    vertex 1.8855149928612838 3.562468852175792 0.09160160999999775
    vertex 1.8855517052180673 3.5626252698538083 0.09160160999999775
  endloop
endfacet
facet normal 0.971728104929499 -0.22807159227229482 0.061056030730015566
  outer loop
    vertex 1.8864669999999533 3.5665249999999125 0.09160160999999775
    vertex 1.8855517052180673 3.5626252698538083 0.09160160999999775
    vertex 1.8859548911379436 3.564343094883889 0.09160160999999775
  endloop
endfacet
facet normal 0.8485499306130344 -0.5271353171551825 0.045731528121414046
  outer loop
    vertex 1.8896759999999535 3.592502999999912 0.3315000999999918
    vertex 1.8864669999999533 3.5665249999999125 0.09160160999999775
    vertex 1.8931639999999537 3.584242999999912 0.1715692999999958
  endloop
endfacet
facet normal 0.9924697447477128 -0.09785191681340602 0.07368044609224524
  outer loop
    vertex 1.864911999999954 3.560352999999913 0.4116017999999899
    vertex 1.863922999999954 3.550321999999912 0.4116017999999899
    vertex 1.877023999999954 3.536964999999913 0.21739349999999466
  endloop
endfacet
facet normal -0.8948138981983708 -0.445546364277489 0.028222772191030598
  outer loop
    vertex 1.950106999999952 3.5796279999999117 0.3312851999999919
    vertex 1.9549039999999522 3.569994999999912 0.3313019999999918
    vertex 1.9526919999999524 3.5795239999999118 0.4116017999999899
  endloop
endfacet
facet normal -0.8921934483879578 -0.44414765928482774 0.08199821586725525
  outer loop
    vertex 1.950106999999952 3.5796279999999117 0.3312851999999919
    vertex 1.9485759999999523 3.567923999999913 0.2512315999999938
    vertex 1.9549039999999522 3.569994999999912 0.3313019999999918
  endloop
endfacet
facet normal -0.9484774251980669 -0.29420425931815075 0.11761984394099553
  outer loop
    vertex 1.9485759999999523 3.567923999999913 0.2512315999999938
    vertex 1.9292721249663791 3.5663388264031943 0.09160160999999775
    vertex 1.9306889999999526 3.5617709999999128 0.09160160999999775
  endloop
endfacet
facet normal -0.9484774251980669 -0.29420425931815075 0.11761984394099553
  outer loop
    vertex 1.9292721249663791 3.5663388264031943 0.09160160999999775
    vertex 1.9485759999999523 3.567923999999913 0.2512315999999938
    vertex 1.9284689999999527 3.568927999999912 0.09160160999999775
  endloop
endfacet
facet normal -0.9230461598104139 -0.3777231130871983 0.07287685983193382
  outer loop
    vertex 1.950106999999952 3.5796279999999117 0.3312851999999919
    vertex 1.9448269999999526 3.577081999999912 0.2512135999999938
    vertex 1.9485759999999523 3.567923999999913 0.2512315999999938
  endloop
endfacet
facet normal -0.9825909255004283 -0.14535290246300678 0.11570482647578477
  outer loop
    vertex 1.9485759999999523 3.567923999999913 0.2512315999999938
    vertex 1.9316035936432105 3.5555883135921595 0.09160160999999775
    vertex 1.9317849999999526 3.5543619999999123 0.09160160999999775
  endloop
endfacet
facet normal -0.9825909255004283 -0.14535290246300678 0.11570482647578477
  outer loop
    vertex 1.9316035936432105 3.5555883135921595 0.09160160999999775
    vertex 1.9485759999999523 3.567923999999913 0.2512315999999938
    vertex 1.9315007232392707 3.5562837212771887 0.09160160999999775
  endloop
endfacet
facet normal -0.9825909255004283 -0.14535290246300678 0.11570482647578477
  outer loop
    vertex 1.9315007232392707 3.5562837212771887 0.09160160999999775
    vertex 1.9485759999999523 3.567923999999913 0.2512315999999938
    vertex 1.9313052391549337 3.5576052008217607 0.09160160999999775
  endloop
endfacet
facet normal -0.9825909255004283 -0.14535290246300678 0.11570482647578477
  outer loop
    vertex 1.9313052391549337 3.5576052008217607 0.09160160999999775
    vertex 1.9485759999999523 3.567923999999913 0.2512315999999938
    vertex 1.9306889999999526 3.5617709999999128 0.09160160999999775
  endloop
endfacet
facet normal -0.9195587271676652 -0.37621569801605537 0.11346142893545773
  outer loop
    vertex 1.9448269999999526 3.577081999999912 0.2512135999999938
    vertex 1.9284689999999527 3.568927999999912 0.09160160999999775
    vertex 1.9485759999999523 3.567923999999913 0.2512315999999938
  endloop
endfacet
facet normal -0.975307362154333 -0.18641493771722095 0.1184272786288766
  outer loop
    vertex 1.9485759999999523 3.567923999999913 0.2512315999999938
    vertex 1.9317849999999526 3.5543619999999123 0.09160160999999775
    vertex 1.9504289999999518 3.558247999999913 0.2512610999999938
  endloop
endfacet
facet normal -0.35916358062544107 -0.9331862592541813 0.012842425452389204
  outer loop
    vertex 1.9246609999999524 3.598865999999912 0.4116017999999899
    vertex 1.9334279999999522 3.594080999999912 0.30908929999999235
    vertex 1.9354669999999525 3.5947069999999117 0.4116017999999899
  endloop
endfacet
facet normal -0.12309398120516186 -0.9923606808974517 0.00825534976906845
  outer loop
    vertex 1.912922999999953 3.6003219999999114 0.4116017999999899
    vertex 1.912918999999953 3.599655999999911 0.33148349999999177
    vertex 1.9246609999999524 3.598865999999912 0.4116017999999899
  endloop
endfacet
facet normal -0.795198677618995 -0.6021089601528449 0.07158116523682635
  outer loop
    vertex 1.9421719999999523 3.587459999999912 0.30901419999999247
    vertex 1.9448269999999526 3.577081999999912 0.2512135999999938
    vertex 1.950106999999952 3.5796279999999117 0.3312851999999919
  endloop
endfacet
facet normal -0.06493396249727187 -0.9954393619758091 0.06988602967401508
  outer loop
    vertex 1.909917999999953 3.5916049999999116 0.17158499999999577
    vertex 1.9119169999999532 3.586986999999912 0.10766469999999735
    vertex 1.9127549999999531 3.588526999999912 0.1303786999999968
  endloop
endfacet
facet normal -0.22055821053868993 -0.9731514516163324 0.06580522761145954
  outer loop
    vertex 1.9236349999999527 3.598360999999912 0.3091471999999924
    vertex 1.912055999999953 3.597086999999912 0.2514976999999938
    vertex 1.9198949999999526 3.592295999999912 0.20692049999999493
  endloop
endfacet
facet normal -0.9788746751900127 -0.18720853496876763 0.08220300910851659
  outer loop
    vertex 1.9549039999999522 3.569994999999912 0.3313019999999918
    vertex 1.9485759999999523 3.567923999999913 0.2512315999999938
    vertex 1.9504289999999518 3.558247999999913 0.2512610999999938
  endloop
endfacet
facet normal -0.05261390472729834 -0.9980818774996245 0.03262426759593844
  outer loop
    vertex 1.912918999999953 3.599655999999911 0.33148349999999177
    vertex 1.912055999999953 3.597086999999912 0.2514976999999938
    vertex 1.9236349999999527 3.598360999999912 0.3091471999999924
  endloop
endfacet
facet normal -0.18795247927396938 -0.9795190899392409 0.07222338942039333
  outer loop
    vertex 1.912055999999953 3.597086999999912 0.2514976999999938
    vertex 1.909917999999953 3.5916049999999116 0.17158499999999577
    vertex 1.9198949999999526 3.592295999999912 0.20692049999999493
  endloop
endfacet
facet normal -0.905431331475994 -0.4058563681237238 0.12439739721967415
  outer loop
    vertex 1.9311979999999525 3.5746879999999126 0.13025719999999677
    vertex 1.9284689999999527 3.568927999999912 0.09160160999999775
    vertex 1.9376189999999522 3.5729509999999127 0.1713255999999958
  endloop
endfacet
facet normal -0.17852949838349622 -0.9814697783199484 0.06960095151309942
  outer loop
    vertex 1.9198949999999526 3.592295999999912 0.20692049999999493
    vertex 1.909917999999953 3.5916049999999116 0.17158499999999577
    vertex 1.9165269999999532 3.5875779999999122 0.13175109999999676
  endloop
endfacet
facet normal -0.4004134202401567 -0.9162949285155323 0.008526245850031937
  outer loop
    vertex 1.9246609999999524 3.598865999999912 0.4116017999999899
    vertex 1.9236349999999527 3.598360999999912 0.3091471999999924
    vertex 1.9334279999999522 3.594080999999912 0.30908929999999235
  endloop
endfacet
facet normal -0.568615964208601 -0.8223368675117522 0.02092753158119365
  outer loop
    vertex 1.9354669999999525 3.5947069999999117 0.4116017999999899
    vertex 1.9421719999999523 3.587459999999912 0.30901419999999247
    vertex 1.944943999999952 3.5881539999999115 0.4116017999999899
  endloop
endfacet
facet normal -0.7422532528967739 -0.6646751766452331 0.08524680707091695
  outer loop
    vertex 1.9421719999999523 3.587459999999912 0.30901419999999247
    vertex 1.9351569999999523 3.582182999999912 0.2067886999999949
    vertex 1.9448269999999526 3.577081999999912 0.2512135999999938
  endloop
endfacet
facet normal -0.8021752311443087 -0.5890487539277967 0.09765482084713016
  outer loop
    vertex 1.9351569999999523 3.582182999999912 0.2067886999999949
    vertex 1.9289909999999526 3.5781249999999116 0.13166109999999676
    vertex 1.9376189999999522 3.5729509999999127 0.1713255999999958
  endloop
endfacet
facet normal -0.26204267425418115 -0.9635480535291582 0.053933156869293467
  outer loop
    vertex 1.909917999999953 3.5916049999999116 0.17158499999999577
    vertex 1.9127549999999531 3.588526999999912 0.1303786999999968
    vertex 1.9165269999999532 3.5875779999999122 0.13175109999999676
  endloop
endfacet
facet normal -0.7362081396556528 -0.6763127118188946 0.02446816169914613
  outer loop
    vertex 1.944943999999952 3.5881539999999115 0.4116017999999899
    vertex 1.9421719999999523 3.587459999999912 0.30901419999999247
    vertex 1.950106999999952 3.5796279999999117 0.3312851999999919
  endloop
endfacet
facet normal -0.10768077313759764 -0.9941675449526316 0.00597860011595642
  outer loop
    vertex 1.9246609999999524 3.598865999999912 0.4116017999999899
    vertex 1.912918999999953 3.599655999999911 0.33148349999999177
    vertex 1.9236349999999527 3.598360999999912 0.3091471999999924
  endloop
endfacet
facet normal -0.7899519391165948 -0.604534969700326 0.10253489306259407
  outer loop
    vertex 1.9351569999999523 3.582182999999912 0.2067886999999949
    vertex 1.9376189999999522 3.5729509999999127 0.1713255999999958
    vertex 1.9448269999999526 3.577081999999912 0.2512135999999938
  endloop
endfacet
facet normal -0.10369236762018626 -0.9923592597815689 0.06686548005583179
  outer loop
    vertex 1.9119169999999532 3.586986999999912 0.10766469999999735
    vertex 1.9108978881899632 3.5860111516888926 0.09160160999999775
    vertex 1.9113299999999531 3.585965999999912 0.09160160999999775
  endloop
endfacet
facet normal -0.10369236762018626 -0.9923592597815689 0.06686548005583179
  outer loop
    vertex 1.9108978881899632 3.5860111516888926 0.09160160999999775
    vertex 1.9119169999999532 3.586986999999912 0.10766469999999735
    vertex 1.9100577671489114 3.5860989365702003 0.09160160999999775
  endloop
endfacet
facet normal -0.10369236762018626 -0.9923592597815689 0.06686548005583179
  outer loop
    vertex 1.9100577671489114 3.5860989365702003 0.09160160999999775
    vertex 1.9119169999999532 3.586986999999912 0.10766469999999735
    vertex 1.9079229999999532 3.586321999999912 0.09160160999999775
  endloop
endfacet
facet normal -0.9668448680866072 -0.23928858852366772 0.08917383280392284
  outer loop
    vertex 1.9549039999999522 3.569994999999912 0.3313019999999918
    vertex 1.9504289999999518 3.558247999999913 0.2512610999999938
    vertex 1.957470999999952 3.5596339999999125 0.3313313999999919
  endloop
endfacet
facet normal -0.7439100117425338 -0.6678812017359788 0.0230780154460489
  outer loop
    vertex 1.944943999999952 3.5881539999999115 0.4116017999999899
    vertex 1.950106999999952 3.5796279999999117 0.3312851999999919
    vertex 1.9526919999999524 3.5795239999999118 0.4116017999999899
  endloop
endfacet
facet normal -0.6034918130401677 -0.7971906779404984 0.016871709998092767
  outer loop
    vertex 1.9354669999999525 3.5947069999999117 0.4116017999999899
    vertex 1.9334279999999522 3.594080999999912 0.30908929999999235
    vertex 1.9421719999999523 3.587459999999912 0.30901419999999247
  endloop
endfacet
facet normal -0.6995704090479119 -0.7054070336458197 0.11402701288529317
  outer loop
    vertex 1.9232989999999528 3.583776999999912 0.13170499999999677
    vertex 1.9281629999999526 3.5776509999999124 0.12364889999999698
    vertex 1.9289909999999526 3.5781249999999116 0.13166109999999676
  endloop
endfacet
facet normal -0.7083089984814817 -0.6967995965611549 0.11299860575410788
  outer loop
    vertex 1.922673999999953 3.583235999999912 0.12368179999999696
    vertex 1.9248909999999528 3.5757799999999116 0.09160160999999775
    vertex 1.9281629999999526 3.5776509999999124 0.12364889999999698
  endloop
endfacet
facet normal -0.27107991892865746 -0.9590688906820611 0.08186904469647344
  outer loop
    vertex 1.9165269999999532 3.5875779999999122 0.13175109999999676
    vertex 1.9127549999999531 3.588526999999912 0.1303786999999968
    vertex 1.916120999999953 3.587006999999912 0.12371769999999696
  endloop
endfacet
facet normal -0.7015998075338247 -0.7072408318142517 0.08699491872049608
  outer loop
    vertex 1.9280949999999524 3.588262999999912 0.20685369999999492
    vertex 1.9232989999999528 3.583776999999912 0.13170499999999677
    vertex 1.9289909999999526 3.5781249999999116 0.13166109999999676
  endloop
endfacet
facet normal -0.8300583654442848 -0.5400571645497207 0.1390732503915772
  outer loop
    vertex 1.9281629999999526 3.5776509999999124 0.12364889999999698
    vertex 1.9284689999999527 3.568927999999912 0.09160160999999775
    vertex 1.9311979999999525 3.5746879999999126 0.13025719999999677
  endloop
endfacet
facet normal -0.399045182683152 -0.9140342080457473 0.0728313716715078
  outer loop
    vertex 1.9236349999999527 3.598360999999912 0.3091471999999924
    vertex 1.9280949999999524 3.588262999999912 0.20685369999999492
    vertex 1.9334279999999522 3.594080999999912 0.30908929999999235
  endloop
endfacet
facet normal -0.8803641334465674 -0.4597114520536654 0.11672349117287796
  outer loop
    vertex 1.9281629999999526 3.5776509999999124 0.12364889999999698
    vertex 1.9248909999999528 3.5757799999999116 0.09160160999999775
    vertex 1.9284689999999527 3.568927999999912 0.09160160999999775
  endloop
endfacet
facet normal -0.8130401129165846 -0.570175422419059 0.11775297218259467
  outer loop
    vertex 1.9289909999999526 3.5781249999999116 0.13166109999999676
    vertex 1.9281629999999526 3.5776509999999124 0.12364889999999698
    vertex 1.9311979999999525 3.5746879999999126 0.13025719999999677
  endloop
endfacet
facet normal -0.26586966133353873 -0.9614037794839977 0.07082440240675597
  outer loop
    vertex 1.916120999999953 3.587006999999912 0.12371769999999696
    vertex 1.9119169999999532 3.586986999999912 0.10766469999999735
    vertex 1.9113299999999531 3.585965999999912 0.09160160999999775
  endloop
endfacet
facet normal -0.6011733472983559 -0.7948707830100039 0.08228635862130326
  outer loop
    vertex 1.9334279999999522 3.594080999999912 0.30908929999999235
    vertex 1.9351569999999523 3.582182999999912 0.2067886999999949
    vertex 1.9421719999999523 3.587459999999912 0.30901419999999247
  endloop
endfacet
facet normal -0.544018320237677 -0.8352057365327453 0.08047014917701231
  outer loop
    vertex 1.916120999999953 3.587006999999912 0.12371769999999696
    vertex 1.9196693609838194 3.581601433756959 0.09160160999999775
    vertex 1.9202349999999526 3.581232999999912 0.09160160999999775
  endloop
endfacet
facet normal -0.544018320237677 -0.8352057365327453 0.08047014917701231
  outer loop
    vertex 1.9196693609838194 3.581601433756959 0.09160160999999775
    vertex 1.916120999999953 3.587006999999912 0.12371769999999696
    vertex 1.9145299999999532 3.584948999999912 0.09160160999999775
  endloop
endfacet
facet normal -0.10928169769116171 -0.9916666006885958 0.06822656101887813
  outer loop
    vertex 1.909917999999953 3.5916049999999116 0.17158499999999577
    vertex 1.9079229999999532 3.586321999999912 0.09160160999999775
    vertex 1.9119169999999532 3.586986999999912 0.10766469999999735
  endloop
endfacet
facet normal -0.7091681803515065 -0.6975808753236458 0.10228105572211038
  outer loop
    vertex 1.9232989999999528 3.583776999999912 0.13170499999999677
    vertex 1.922673999999953 3.583235999999912 0.12368179999999696
    vertex 1.9281629999999526 3.5776509999999124 0.12364889999999698
  endloop
endfacet
facet normal -0.7568431567382253 -0.6462244155094782 0.09788994278245192
  outer loop
    vertex 1.922673999999953 3.583235999999912 0.12368179999999696
    vertex 1.9242992504044758 3.57647304350166 0.09160160999999775
    vertex 1.9248909999999528 3.5757799999999116 0.09160160999999775
  endloop
endfacet
facet normal -0.7568431567382253 -0.6462244155094782 0.09788994278245192
  outer loop
    vertex 1.9242992504044758 3.57647304350166 0.09160160999999775
    vertex 1.922673999999953 3.583235999999912 0.12368179999999696
    vertex 1.9237823174785855 3.5770784634425703 0.09160160999999775
  endloop
endfacet
facet normal -0.7568431567382253 -0.6462244155094782 0.09788994278245192
  outer loop
    vertex 1.9237823174785855 3.5770784634425703 0.09160160999999775
    vertex 1.922673999999953 3.583235999999912 0.12368179999999696
    vertex 1.9237473354660226 3.577119433570256 0.09160160999999775
  endloop
endfacet
facet normal -0.7568431567382253 -0.6462244155094782 0.09788994278245192
  outer loop
    vertex 1.9237473354660226 3.577119433570256 0.09160160999999775
    vertex 1.922673999999953 3.583235999999912 0.12368179999999696
    vertex 1.9204746368953347 3.580952342785454 0.09160160999999775
  endloop
endfacet
facet normal -0.7568431567382253 -0.6462244155094782 0.09788994278245192
  outer loop
    vertex 1.9204746368953347 3.580952342785454 0.09160160999999775
    vertex 1.922673999999953 3.583235999999912 0.12368179999999696
    vertex 1.920357712297898 3.581089282181893 0.09160160999999775
  endloop
endfacet
facet normal -0.7568431567382253 -0.6462244155094782 0.09788994278245192
  outer loop
    vertex 1.920357712297898 3.581089282181893 0.09160160999999775
    vertex 1.922673999999953 3.583235999999912 0.12368179999999696
    vertex 1.9202349999999526 3.581232999999912 0.09160160999999775
  endloop
endfacet
facet normal -0.2828539807346409 -0.9562053553534953 0.07526582209650984
  outer loop
    vertex 1.9127549999999531 3.588526999999912 0.1303786999999968
    vertex 1.9119169999999532 3.586986999999912 0.10766469999999735
    vertex 1.916120999999953 3.587006999999912 0.12371769999999696
  endloop
endfacet
facet normal -0.8171045759713154 -0.5670733021662688 0.10376888694103127
  outer loop
    vertex 1.9289909999999526 3.5781249999999116 0.13166109999999676
    vertex 1.9311979999999525 3.5746879999999126 0.13025719999999677
    vertex 1.9376189999999522 3.5729509999999127 0.1713255999999958
  endloop
endfacet
facet normal -0.6501109059802255 -0.75593482276732 0.07693083681665662
  outer loop
    vertex 1.9334279999999522 3.594080999999912 0.30908929999999235
    vertex 1.9280949999999524 3.588262999999912 0.20685369999999492
    vertex 1.9351569999999523 3.582182999999912 0.2067886999999949
  endloop
endfacet
facet normal -0.43933799389603634 -0.8946223523616132 0.08144307075730876
  outer loop
    vertex 1.9198949999999526 3.592295999999912 0.20692049999999493
    vertex 1.9232989999999528 3.583776999999912 0.13170499999999677
    vertex 1.9280949999999524 3.588262999999912 0.20685369999999492
  endloop
endfacet
facet normal -0.3473610727847935 -0.9334027288561407 0.08999794929723182
  outer loop
    vertex 1.9198949999999526 3.592295999999912 0.20692049999999493
    vertex 1.922673999999953 3.583235999999912 0.12368179999999696
    vertex 1.9232989999999528 3.583776999999912 0.13170499999999677
  endloop
endfacet
facet normal -0.5062141678163896 -0.8589995581021008 0.07659618451565221
  outer loop
    vertex 1.9198949999999526 3.592295999999912 0.20692049999999493
    vertex 1.9165269999999532 3.5875779999999122 0.13175109999999676
    vertex 1.922673999999953 3.583235999999912 0.12368179999999696
  endloop
endfacet
facet normal -0.49654700524735623 -0.8636906185925132 0.08648460519169845
  outer loop
    vertex 1.9165269999999532 3.5875779999999122 0.13175109999999676
    vertex 1.916120999999953 3.587006999999912 0.12371769999999696
    vertex 1.922673999999953 3.583235999999912 0.12368179999999696
  endloop
endfacet
facet normal -0.6490621672530161 -0.7548996806519516 0.09404666497223169
  outer loop
    vertex 1.9280949999999524 3.588262999999912 0.20685369999999492
    vertex 1.9289909999999526 3.5781249999999116 0.13166109999999676
    vertex 1.9351569999999523 3.582182999999912 0.2067886999999949
  endloop
endfacet
facet normal -0.4962961141440617 -0.8633036667137151 0.09163485212603033
  outer loop
    vertex 1.916120999999953 3.587006999999912 0.12371769999999696
    vertex 1.9202349999999526 3.581232999999912 0.09160160999999775
    vertex 1.922673999999953 3.583235999999912 0.12368179999999696
  endloop
endfacet
facet normal -8.910742461262279e-13 -0.9979531763239228 0.06394886914554068
  outer loop
    vertex 1.916120999999953 3.587006999999912 0.12371769999999696
    vertex 1.9144879999999531 3.584948999999912 0.09160160999999775
    vertex 1.9145299999999532 3.584948999999912 0.09160160999999775
  endloop
endfacet
facet normal -0.3056410537830477 -0.9490800863784002 0.07635794577093102
  outer loop
    vertex 1.916120999999953 3.587006999999912 0.12371769999999696
    vertex 1.9117293762575822 3.5858373851633036 0.09160160999999775
    vertex 1.9144879999999531 3.584948999999912 0.09160160999999775
  endloop
endfacet
facet normal -0.3056410537830477 -0.9490800863784002 0.07635794577093102
  outer loop
    vertex 1.9117293762575822 3.5858373851633036 0.09160160999999775
    vertex 1.916120999999953 3.587006999999912 0.12371769999999696
    vertex 1.9113299999999531 3.585965999999912 0.09160160999999775
  endloop
endfacet
facet normal -0.4398259222332402 -0.895411883201941 0.06921500958920403
  outer loop
    vertex 1.9236349999999527 3.598360999999912 0.3091471999999924
    vertex 1.9198949999999526 3.592295999999912 0.20692049999999493
    vertex 1.9280949999999524 3.588262999999912 0.20685369999999492
  endloop
endfacet
facet normal 0.9928937756770977 0.1190039924610833 9.251082969639105e-19
  outer loop
    vertex 1.863922999999954 3.550321999999912 0.5366016999999867
    vertex 1.8653849999999543 3.5381239999999132 0.5366016999999867
    vertex 1.863922999999954 3.550321999999912 0.4116017999999899
  endloop
endfacet
facet normal 0.9879794630341079 0.15454497719820698 0.003525712075829291
  outer loop
    vertex 1.863922999999954 3.550321999999912 0.4116017999999899
    vertex 1.8653849999999543 3.5381239999999132 0.5366016999999867
    vertex 1.8663769999999538 3.534633999999913 0.4116017999999899
  endloop
endfacet
facet normal 0.9977439959888595 -0.06713358673706338 -0.0
  outer loop
    vertex 1.864386999999954 3.5572179999999127 0.5366016999999867
    vertex 1.863922999999954 3.550321999999912 0.5366016999999867
    vertex 1.863922999999954 3.550321999999912 0.4116017999999899
  endloop
endfacet
facet normal 0.9978149399330992 -0.06607073616394171 -5.8898731457986246e-05
  outer loop
    vertex 1.864386999999954 3.5572179999999127 0.5366016999999867
    vertex 1.863922999999954 3.550321999999912 0.4116017999999899
    vertex 1.8643729999999543 3.557117999999912 0.4116017999999899
  endloop
endfacet
facet normal 0.7318880437105482 -0.6814248976152188 -1.9586613368081676e-05
  outer loop
    vertex 1.8805109999999539 3.5878259999999123 0.4116017999999899
    vertex 1.874563999999954 3.581434999999912 0.5366016999999867
    vertex 1.8745829999999541 3.5814589999999122 0.4116017999999899
  endloop
endfacet
facet normal 0.9210419508579964 -0.38946336717033614 0.0001019413565832345
  outer loop
    vertex 1.8698199999999543 3.5741129999999117 0.4116017999999899
    vertex 1.8697549999999539 3.5739919999999126 0.5366016999999867
    vertex 1.8663669999999541 3.565946999999912 0.4116017999999899
  endloop
endfacet
facet normal 0.8390641583924539 -0.5440324784131125 2.308353468714165e-05
  outer loop
    vertex 1.8745829999999541 3.5814589999999122 0.4116017999999899
    vertex 1.874563999999954 3.581434999999912 0.5366016999999867
    vertex 1.8698199999999543 3.5741129999999117 0.4116017999999899
  endloop
endfacet
facet normal 0.6014897390959045 -0.7988805197974832 9.407679741239387e-05
  outer loop
    vertex 1.8806069999999535 3.5879129999999115 0.5366016999999867
    vertex 1.8805109999999539 3.5878259999999123 0.4116017999999899
    vertex 1.8874559999999538 3.593054999999912 0.4116017999999899
  endloop
endfacet
facet normal 0.9754292589682658 -0.2203128599499276 6.700226456048273e-05
  outer loop
    vertex 1.8663379999999543 3.565855999999912 0.5366016999999867
    vertex 1.864386999999954 3.5572179999999127 0.5366016999999867
    vertex 1.8643729999999543 3.557117999999912 0.4116017999999899
  endloop
endfacet
facet normal 0.09405129123097643 -0.9955673266892158 0.000229448631216943
  outer loop
    vertex 1.9041179999999531 3.5995189999999115 0.5366016999999867
    vertex 1.9038089999999532 3.599460999999912 0.4116017999999899
    vertex 1.912922999999953 3.6003219999999114 0.4116017999999899
  endloop
endfacet
facet normal 0.44390640959921385 -0.8960731220025611 -0.00024401089790108434
  outer loop
    vertex 1.8876689999999536 3.593185999999912 0.5366016999999867
    vertex 1.8952709999999533 3.596985999999912 0.4116017999999899
    vertex 1.8955879999999532 3.5971089999999117 0.5366016999999867
  endloop
endfacet
facet normal 0.2784185996142587 -0.9604597993965233 0.00023902306520351906
  outer loop
    vertex 1.8955879999999532 3.5971089999999117 0.5366016999999867
    vertex 1.8952709999999533 3.596985999999912 0.4116017999999899
    vertex 1.9038089999999532 3.599460999999912 0.4116017999999899
  endloop
endfacet
facet normal 0.4493613679708951 -0.8933500612293694 0.00017051922956019198
  outer loop
    vertex 1.8876689999999536 3.593185999999912 0.5366016999999867
    vertex 1.8874559999999538 3.593054999999912 0.4116017999999899
    vertex 1.8952709999999533 3.596985999999912 0.4116017999999899
  endloop
endfacet
facet normal 0.8399332840447855 -0.5426896631696232 -8.855835708628116e-05
  outer loop
    vertex 1.874563999999954 3.581434999999912 0.5366016999999867
    vertex 1.8697549999999539 3.5739919999999126 0.5366016999999867
    vertex 1.8698199999999543 3.5741129999999117 0.4116017999999899
  endloop
endfacet
facet normal 0.9219869584049417 -0.38722092390231205 -6.79959126490197e-05
  outer loop
    vertex 1.8697549999999539 3.5739919999999126 0.5366016999999867
    vertex 1.8663379999999543 3.565855999999912 0.5366016999999867
    vertex 1.8663669999999541 3.565946999999912 0.4116017999999899
  endloop
endfacet
facet normal 0.2718888630952418 -0.962328631619363 -0.00022558896497378505
  outer loop
    vertex 1.8955879999999532 3.5971089999999117 0.5366016999999867
    vertex 1.9038089999999532 3.599460999999912 0.4116017999999899
    vertex 1.9041179999999531 3.5995189999999115 0.5366016999999867
  endloop
endfacet
facet normal 0.5982921367805105 -0.8012780333669113 -0.00017975056590658592
  outer loop
    vertex 1.8806069999999535 3.5879129999999115 0.5366016999999867
    vertex 1.8874559999999538 3.593054999999912 0.4116017999999899
    vertex 1.8876689999999536 3.593185999999912 0.5366016999999867
  endloop
endfacet
facet normal 0.9754325764620594 -0.22029817164629753 6.592334151794836e-05
  outer loop
    vertex 1.8663669999999541 3.565946999999912 0.4116017999999899
    vertex 1.8663379999999543 3.565855999999912 0.5366016999999867
    vertex 1.8643729999999543 3.557117999999912 0.4116017999999899
  endloop
endfacet
facet normal 0.09082127969285274 -0.9958672075909282 0.0
  outer loop
    vertex 1.9041179999999531 3.5995189999999115 0.5366016999999867
    vertex 1.912922999999953 3.6003219999999114 0.4116017999999899
    vertex 1.912922999999953 3.6003219999999114 0.5366016999999867
  endloop
endfacet
facet normal 0.7312316651224424 -0.6821291991872522 -8.682406564068117e-05
  outer loop
    vertex 1.8806069999999535 3.5879129999999115 0.5366016999999867
    vertex 1.874563999999954 3.581434999999912 0.5366016999999867
    vertex 1.8805109999999539 3.5878259999999123 0.4116017999999899
  endloop
endfacet
facet normal 0.0 0.0 1.0
  outer loop
    vertex 1.8653849999999543 3.5381239999999132 0.5366016999999867
    vertex 1.864911999999954 3.560352999999913 0.5366016999999867
    vertex 1.863922999999954 3.550321999999912 0.5366016999999867
  endloop
endfacet
facet normal 0.0 0.0 1.0
  outer loop
    vertex 1.864911999999954 3.560352999999913 0.5366016999999867
    vertex 1.8653849999999543 3.5381239999999132 0.5366016999999867
    vertex 1.8677509999999538 3.569716999999912 0.5366016999999867
  endloop
endfacet
facet normal 0.0 0.0 1.0
  outer loop
    vertex 1.8677509999999538 3.569716999999912 0.5366016999999867
    vertex 1.8653849999999543 3.5381239999999132 0.5366016999999867
    vertex 1.9588373409831692 3.5655325047093807 0.5366016999999867
  endloop
endfacet
facet normal 0.0 0.0 1.0
  outer loop
    vertex 1.8677509999999538 3.569716999999912 0.5366016999999867
    vertex 1.9588373409831692 3.5655325047093807 0.5366016999999867
    vertex 1.8722479999999537 3.578206999999912 0.5366016999999867
  endloop
endfacet
facet normal 0.0 0.0 1.0
  outer loop
    vertex 1.8722479999999537 3.578206999999912 0.5366016999999867
    vertex 1.9588373409831692 3.5655325047093807 0.5366016999999867
    vertex 1.8782129999999537 3.5856169999999117 0.5366016999999867
  endloop
endfacet
facet normal 0.0 0.0 1.0
  outer loop
    vertex 1.8782129999999537 3.5856169999999117 0.5366016999999867
    vertex 1.9588373409831692 3.5655325047093807 0.5366016999999867
    vertex 1.885454999999954 3.5917399999999122 0.5366016999999867
  endloop
endfacet
facet normal 0.0 0.0 1.0
  outer loop
    vertex 1.885454999999954 3.5917399999999122 0.5366016999999867
    vertex 1.9588373409831692 3.5655325047093807 0.5366016999999867
    vertex 1.8937809999999535 3.596369999999912 0.5366016999999867
  endloop
endfacet
facet normal 0.0 0.0 1.0
  outer loop
    vertex 1.8937809999999535 3.596369999999912 0.5366016999999867
    vertex 1.9588373409831692 3.5655325047093807 0.5366016999999867
    vertex 1.903000999999953 3.599298999999912 0.5366016999999867
  endloop
endfacet
facet normal 0.0 0.0 1.0
  outer loop
    vertex 1.903000999999953 3.599298999999912 0.5366016999999867
    vertex 1.9588373409831692 3.5655325047093807 0.5366016999999867
    vertex 1.912922999999953 3.6003219999999114 0.5366016999999867
  endloop
endfacet
facet normal 0.0 0.0 1.0
  outer loop
    vertex 1.912922999999953 3.6003219999999114 0.5366016999999867
    vertex 1.9588373409831692 3.5655325047093807 0.5366016999999867
    vertex 1.9218919999999524 3.599465999999912 0.5366016999999867
  endloop
endfacet
facet normal 0.0 0.0 1.0
  outer loop
    vertex 1.9218919999999524 3.599465999999912 0.5366016999999867
    vertex 1.9588373409831692 3.5655325047093807 0.5366016999999867
    vertex 1.9303859999999524 3.5969979999999118 0.5366016999999867
  endloop
endfacet
facet normal 0.0 0.0 1.0
  outer loop
    vertex 1.9303859999999524 3.5969979999999118 0.5366016999999867
    vertex 1.9588373409831692 3.5655325047093807 0.5366016999999867
    vertex 1.9382299999999524 3.593065999999912 0.5366016999999867
  endloop
endfacet
facet normal 0.0 0.0 1.0
  outer loop
    vertex 1.9382299999999524 3.593065999999912 0.5366016999999867
    vertex 1.9588373409831692 3.5655325047093807 0.5366016999999867
    vertex 1.9452459999999523 3.5878169999999114 0.5366016999999867
  endloop
endfacet
facet normal 0.0 0.0 1.0
  outer loop
    vertex 1.9452459999999523 3.5878169999999114 0.5366016999999867
    vertex 1.9588373409831692 3.5655325047093807 0.5366016999999867
    vertex 1.9512589999999521 3.5813989999999123 0.5366016999999867
  endloop
endfacet
facet normal 0.0 0.0 1.0
  outer loop
    vertex 1.9512589999999521 3.5813989999999123 0.5366016999999867
    vertex 1.9588373409831692 3.5655325047093807 0.5366016999999867
    vertex 1.956089999999952 3.5739599999999125 0.5366016999999867
  endloop
endfacet
facet normal -0.0 -0.0 1.0
  outer loop
    vertex 1.9316511349201255 3.5456572804251993 0.09160160999999775
    vertex 1.9317849999999526 3.5543619999999123 0.09160160999999775
    vertex 1.9316097149829385 3.5543096094468236 0.09160160999999775
  endloop
endfacet
facet normal -0.0 -0.0 1.0
  outer loop
    vertex 1.9317849999999526 3.5543619999999123 0.09160160999999775
    vertex 1.9316511349201255 3.5456572804251993 0.09160160999999775
    vertex 1.9318179999999525 3.5469149999999128 0.09160160999999775
  endloop
endfacet
facet normal 0.0 0.0 -1.0
  outer loop
    vertex 1.8843505317250118 3.55592096537511 0.09160160999999775
    vertex 1.8841500197550165 3.5470653721905334 0.09160160999999775
    vertex 1.8840665521875626 3.5515035613576 0.09160160999999775
  endloop
endfacet
facet normal 0.0 0.0 -1.0
  outer loop
    vertex 1.8841500197550165 3.5470653721905334 0.09160160999999775
    vertex 1.8843505317250118 3.55592096537511 0.09160160999999775
    vertex 1.8842665766221576 3.545946100057309 0.09160160999999775
  endloop
endfacet
facet normal 0.0 0.0 -1.0
  outer loop
    vertex 1.8842665766221576 3.545946100057309 0.09160160999999775
    vertex 1.8843505317250118 3.55592096537511 0.09160160999999775
    vertex 1.8843727395983685 3.5449266383664813 0.09160160999999775
  endloop
endfacet
facet normal 0.0 0.0 -1.0
  outer loop
    vertex 1.8843727395983685 3.5449266383664813 0.09160160999999775
    vertex 1.8843505317250118 3.55592096537511 0.09160160999999775
    vertex 1.884979612648507 3.560187796502024 0.09160160999999775
  endloop
endfacet
facet normal 0.0 0.0 -1.0
  outer loop
    vertex 1.8843727395983685 3.5449266383664813 0.09160160999999775
    vertex 1.884979612648507 3.560187796502024 0.09160160999999775
    vertex 1.8845335131219472 3.5433827625819343 0.09160160999999775
  endloop
endfacet
facet normal 0.0 0.0 -1.0
  outer loop
    vertex 1.8845335131219472 3.5433827625819343 0.09160160999999775
    vertex 1.884979612648507 3.560187796502024 0.09160160999999775
    vertex 1.8852476204854227 3.540452545024206 0.09160160999999775
  endloop
endfacet
facet normal 0.0 0.0 -1.0
  outer loop
    vertex 1.8852476204854227 3.540452545024206 0.09160160999999775
    vertex 1.884979612648507 3.560187796502024 0.09160160999999775
    vertex 1.8852334012159333 3.5612690950592922 0.09160160999999775
  endloop
endfacet
facet normal 0.0 0.0 -1.0
  outer loop
    vertex 1.8852476204854227 3.540452545024206 0.09160160999999775
    vertex 1.8852334012159333 3.5612690950592922 0.09160160999999775
    vertex 1.8855149928612838 3.562468852175792 0.09160160999999775
  endloop
endfacet
facet normal 0.0 0.0 -1.0
  outer loop
    vertex 1.8852476204854227 3.540452545024206 0.09160160999999775
    vertex 1.8855149928612838 3.562468852175792 0.09160160999999775
    vertex 1.9316097149829385 3.5543096094468236 0.09160160999999775
  endloop
endfacet
facet normal 0.0 0.0 -1.0
  outer loop
    vertex 1.9316097149829385 3.5543096094468236 0.09160160999999775
    vertex 1.8855149928612838 3.562468852175792 0.09160160999999775
    vertex 1.8855517052180673 3.5626252698538083 0.09160160999999775
  endloop
endfacet
facet normal 0.0 0.0 -1.0
  outer loop
    vertex 1.9316097149829385 3.5543096094468236 0.09160160999999775
    vertex 1.8855517052180673 3.5626252698538083 0.09160160999999775
    vertex 1.8859548911379436 3.564343094883889 0.09160160999999775
  endloop
endfacet
facet normal 0.0 0.0 -1.0
  outer loop
    vertex 1.9316097149829385 3.5543096094468236 0.09160160999999775
    vertex 1.8859548911379436 3.564343094883889 0.09160160999999775
    vertex 1.8872933847931948 3.56836355536473 0.09160160999999775
  endloop
endfacet
facet normal 0.0 0.0 -1.0
  outer loop
    vertex 1.9316097149829385 3.5543096094468236 0.09160160999999775
    vertex 1.8872933847931948 3.56836355536473 0.09160160999999775
    vertex 1.8890004356931562 3.5721614321115047 0.09160160999999775
  endloop
endfacet
facet normal 0.0 0.0 -1.0
  outer loop
    vertex 1.9316097149829385 3.5543096094468236 0.09160160999999775
    vertex 1.8890004356931562 3.5721614321115047 0.09160160999999775
    vertex 1.8910883105742622 3.575679952570326 0.09160160999999775
  endloop
endfacet
facet normal 0.0 0.0 -1.0
  outer loop
    vertex 1.9316097149829385 3.5543096094468236 0.09160160999999775
    vertex 1.8910883105742622 3.575679952570326 0.09160160999999775
    vertex 1.8935811436537653 3.5788784368311597 0.09160160999999775
  endloop
endfacet
facet normal 0.0 0.0 -1.0
  outer loop
    vertex 1.9316097149829385 3.5543096094468236 0.09160160999999775
    vertex 1.8935811436537653 3.5788784368311597 0.09160160999999775
    vertex 1.8963577160267067 3.581572419940883 0.09160160999999775
  endloop
endfacet
facet normal 0.0 0.0 -1.0
  outer loop
    vertex 1.9316097149829385 3.5543096094468236 0.09160160999999775
    vertex 1.8963577160267067 3.581572419940883 0.09160160999999775
    vertex 1.900985999999953 3.5848159999999116 0.09160160999999775
  endloop
endfacet
facet normal 0.0 0.0 -1.0
  outer loop
    vertex 1.9316097149829385 3.5543096094468236 0.09160160999999775
    vertex 1.900985999999953 3.5848159999999116 0.09160160999999775
    vertex 1.9043489999999532 3.585937999999912 0.09160160999999775
  endloop
endfacet
facet normal 0.0 0.0 -1.0
  outer loop
    vertex 1.9316097149829385 3.5543096094468236 0.09160160999999775
    vertex 1.9043489999999532 3.585937999999912 0.09160160999999775
    vertex 1.9079229999999532 3.586321999999912 0.09160160999999775
  endloop
endfacet
facet normal 0.0 0.0 -1.0
  outer loop
    vertex 1.9316097149829385 3.5543096094468236 0.09160160999999775
    vertex 1.9079229999999532 3.586321999999912 0.09160160999999775
    vertex 1.9100577671489114 3.5860989365702003 0.09160160999999775
  endloop
endfacet
facet normal 0.0 0.0 -1.0
  outer loop
    vertex 1.9316097149829385 3.5543096094468236 0.09160160999999775
    vertex 1.9100577671489114 3.5860989365702003 0.09160160999999775
    vertex 1.9108978881899632 3.5860111516888926 0.09160160999999775
  endloop
endfacet
facet normal 0.0 0.0 -1.0
  outer loop
    vertex 1.9316097149829385 3.5543096094468236 0.09160160999999775
    vertex 1.9108978881899632 3.5860111516888926 0.09160160999999775
    vertex 1.9117293762575822 3.5858373851633036 0.09160160999999775
  endloop
endfacet
facet normal 0.0 0.0 -1.0
  outer loop
    vertex 1.9316097149829385 3.5543096094468236 0.09160160999999775
    vertex 1.9117293762575822 3.5858373851633036 0.09160160999999775
    vertex 1.9144879999999531 3.584948999999912 0.09160160999999775
  endloop
endfacet
facet normal 0.0 0.0 -1.0
  outer loop
    vertex 1.9316097149829385 3.5543096094468236 0.09160160999999775
    vertex 1.9144879999999531 3.584948999999912 0.09160160999999775
    vertex 1.9145299999999532 3.584948999999912 0.09160160999999775
  endloop
endfacet
facet normal 0.0 0.0 -1.0
  outer loop
    vertex 1.9316097149829385 3.5543096094468236 0.09160160999999775
    vertex 1.9145299999999532 3.584948999999912 0.09160160999999775
    vertex 1.9196693609838194 3.581601433756959 0.09160160999999775
  endloop
endfacet
facet normal 0.0 0.0 -1.0
  outer loop
    vertex 1.9316097149829385 3.5543096094468236 0.09160160999999775
    vertex 1.9196693609838194 3.581601433756959 0.09160160999999775
    vertex 1.920357712297898 3.581089282181893 0.09160160999999775
  endloop
endfacet
facet normal 0.0 0.0 -1.0
  outer loop
    vertex 1.9316097149829385 3.5543096094468236 0.09160160999999775
    vertex 1.920357712297898 3.581089282181893 0.09160160999999775
    vertex 1.9204746368953347 3.580952342785454 0.09160160999999775
  endloop
endfacet
facet normal 0.0 0.0 -1.0
  outer loop
    vertex 1.9316097149829385 3.5543096094468236 0.09160160999999775
    vertex 1.9204746368953347 3.580952342785454 0.09160160999999775
    vertex 1.9237473354660226 3.577119433570256 0.09160160999999775
  endloop
endfacet
facet normal 0.0 0.0 -1.0
  outer loop
    vertex 1.9316097149829385 3.5543096094468236 0.09160160999999775
    vertex 1.9237473354660226 3.577119433570256 0.09160160999999775
    vertex 1.9237823174785855 3.5770784634425703 0.09160160999999775
  endloop
endfacet
facet normal 0.0 0.0 -1.0
  outer loop
    vertex 1.9316097149829385 3.5543096094468236 0.09160160999999775
    vertex 1.9237823174785855 3.5770784634425703 0.09160160999999775
    vertex 1.9242992504044758 3.57647304350166 0.09160160999999775
  endloop
endfacet
facet normal 0.0 0.0 -1.0
  outer loop
    vertex 1.9316097149829385 3.5543096094468236 0.09160160999999775
    vertex 1.9242992504044758 3.57647304350166 0.09160160999999775
    vertex 1.9284689999999527 3.568927999999912 0.09160160999999775
  endloop
endfacet
facet normal 0.0 0.0 -1.0
  outer loop
    vertex 1.9316097149829385 3.5543096094468236 0.09160160999999775
    vertex 1.9284689999999527 3.568927999999912 0.09160160999999775
    vertex 1.9292721249663791 3.5663388264031943 0.09160160999999775
  endloop
endfacet
facet normal 0.0 0.0 -1.0
  outer loop
    vertex 1.9316097149829385 3.5543096094468236 0.09160160999999775
    vertex 1.9292721249663791 3.5663388264031943 0.09160160999999775
    vertex 1.9313052391549337 3.5576052008217607 0.09160160999999775
  endloop
endfacet
facet normal 0.0 0.0 -1.0
  outer loop
    vertex 1.9316097149829385 3.5543096094468236 0.09160160999999775
    vertex 1.9313052391549337 3.5576052008217607 0.09160160999999775
    vertex 1.9315007232392707 3.5562837212771887 0.09160160999999775
  endloop
endfacet
facet normal 0.0 0.0 -1.0
  outer loop
    vertex 1.9316097149829385 3.5543096094468236 0.09160160999999775
    vertex 1.9315007232392707 3.5562837212771887 0.09160160999999775
    vertex 1.9316035936432105 3.5555883135921595 0.09160160999999775
  endloop
endfacet
facet normal 0.28081835938541755 -0.9574813859352329 0.06610933836931421
  outer loop
    vertex 1.9595379999999516 3.565737999999912 0.5366016999999867
    vertex 1.8653849999999543 3.5381239999999132 0.5366016999999867
    vertex 1.9614119999999515 3.557656999999913 0.4116017999999899
  endloop
endfacet
facet normal 0.28081835938541755 -0.9574813859352329 0.06610933836931421
  outer loop
    vertex 1.8653849999999543 3.5381239999999132 0.5366016999999867
    vertex 1.9595379999999516 3.565737999999912 0.5366016999999867
    vertex 1.9588373409831692 3.5655325047093807 0.5366016999999867
  endloop
endfacet
facet normal 0.23534856010185257 -0.9714785392554894 0.028991430182128127
  outer loop
    vertex 1.8653849999999543 3.5381239999999132 0.5366016999999867
    vertex 1.8663769999999538 3.534633999999913 0.4116017999999899
    vertex 1.9614119999999515 3.557656999999913 0.4116017999999899
  endloop
endfacet
facet normal 0.2863612972554527 -0.958089615439678 -0.007841952615531169
  outer loop
    vertex 1.877023999999954 3.536964999999913 0.21739349999999466
    vertex 1.9316097149829385 3.5543096094468236 0.09160160999999775
    vertex 1.9317849999999526 3.5543619999999123 0.09160160999999775
  endloop
endfacet
facet normal 0.2863612972554527 -0.958089615439678 -0.007841952615531169
  outer loop
    vertex 1.9316097149829385 3.5543096094468236 0.09160160999999775
    vertex 1.877023999999954 3.536964999999913 0.21739349999999466
    vertex 1.8852476204854227 3.540452545024206 0.09160160999999775
  endloop
endfacet
facet normal 0.2863612972554527 -0.958089615439678 -0.007841952615531169
  outer loop
    vertex 1.8852476204854227 3.540452545024206 0.09160160999999775
    vertex 1.877023999999954 3.536964999999913 0.21739349999999466
    vertex 1.8848509999999539 3.540333999999913 0.09160160999999775
  endloop
endfacet
facet normal 0.282562076459594 -0.959200479613954 -0.009649500256654021
  outer loop
    vertex 1.9504289999999518 3.558247999999913 0.2512610999999938
    vertex 1.877023999999954 3.536964999999913 0.21739349999999466
    vertex 1.9317849999999526 3.5543619999999123 0.09160160999999775
  endloop
endfacet
facet normal 0.27691587836972364 -0.9608872397563222 0.003648120091317476
  outer loop
    vertex 1.8663769999999538 3.534633999999913 0.4116017999999899
    vertex 1.877023999999954 3.536964999999913 0.21739349999999466
    vertex 1.9504289999999518 3.558247999999913 0.2512610999999938
  endloop
endfacet
facet normal 0.23399597677313524 -0.9715319986106858 -0.0370332084690623
  outer loop
    vertex 1.8663769999999538 3.534633999999913 0.4116017999999899
    vertex 1.957470999999952 3.5596339999999125 0.33133139999999184
    vertex 1.9614309999999517 3.557527999999913 0.4116017999999899
  endloop
endfacet
facet normal 0.2596337091585759 -0.9656877875308251 -0.006118339838584865
  outer loop
    vertex 1.8663769999999538 3.534633999999913 0.4116017999999899
    vertex 1.9504289999999518 3.558247999999913 0.2512610999999938
    vertex 1.957470999999952 3.5596339999999125 0.33133139999999184
  endloop
endfacet
facet normal 0.07085926385725501 -0.11860240799468713 0.9904102349751186
  outer loop
    vertex 1.799997999999956 3.5841429999999117 1.424850999999965
    vertex 1.7696649999999567 3.577343999999912 1.426206999999965
    vertex 1.7999338014065815 3.5273622120396246 1.418056048900709
  endloop
endfacet
facet normal -0.15197293401034564 -0.7046521471465258 0.6930869922672609
  outer loop
    vertex 1.7424569999999568 3.545944999999913 1.4243459999999648
    vertex 1.7353309999999573 3.539982999999913 1.4167219999999652
    vertex 1.7999338014065815 3.5273622120396246 1.418056048900709
  endloop
endfacet
facet normal 0.07562320008183565 -0.11571562193316867 0.9903994277310557
  outer loop
    vertex 1.7999338014065815 3.5273622120396246 1.418056048900709
    vertex 1.7696649999999567 3.577343999999912 1.426206999999965
    vertex 1.7419341527757344 3.564550941158845 1.4268297170882285
  endloop
endfacet
facet normal 0.058095022683639634 -0.15416866753052091 0.986335130820783
  outer loop
    vertex 1.7999338014065815 3.5273622120396246 1.418056048900709
    vertex 1.7412739999999574 3.5552749999999125 1.425873999999965
    vertex 1.7424569999999568 3.545944999999913 1.4243459999999648
  endloop
endfacet
endsolid 2015new_separate_human-HUTA
