solid Object01
facet normal -0.9510691716695971 0.27487024078152844 0.1411161983346025
  outer loop
    vertex 1.8430179999999547 3.5104839999999133 1.4759729999999638
    vertex 1.837683999999955 3.508626999999914 1.4436409999999644
    vertex 1.8393359999999552 3.4985859999999147 1.4743329999999637
  endloop
endfacet
facet normal -0.839779630042042 0.5423005863752172 0.026081544884205488
  outer loop
    vertex 1.8488378346322418 3.5271130212008814 1.4183896366432227
    vertex 1.8419969999999548 3.516791999999914 1.4127409999999654
    vertex 1.837683999999955 3.508626999999914 1.4436409999999644
  endloop
endfacet
facet normal -0.839779630042042 0.5423005863752172 0.026081544884205488
  outer loop
    vertex 1.8419969999999548 3.516791999999914 1.4127409999999654
    vertex 1.8488378346322418 3.5271130212008814 1.4183896366432227
    vertex 1.8489889999999547 3.5273649999999135 1.4180459999999653
  endloop
endfacet
facet normal -0.9052596805426153 0.4057316317284755 0.1260426665809295
  outer loop
    vertex 1.8424919999999545 3.5185029999999133 1.4463819999999645
    vertex 1.837683999999955 3.508626999999914 1.4436409999999644
    vertex 1.8430179999999547 3.5104839999999133 1.4759729999999638
  endloop
endfacet
facet normal -0.8959337690371427 0.44341969761156746 -0.02610849036167806
  outer loop
    vertex 1.8449089999999544 3.5225429999999136 1.4320549999999648
    vertex 1.837683999999955 3.508626999999914 1.4436409999999644
    vertex 1.8424919999999545 3.5185029999999133 1.4463819999999645
  endloop
endfacet
facet normal -0.9224122247013736 0.3577365106052752 -0.1455344519398233
  outer loop
    vertex 1.8449089999999544 3.5225429999999136 1.4320549999999648
    vertex 1.8488378346322418 3.5271130212008814 1.4183896366432227
    vertex 1.837683999999955 3.508626999999914 1.4436409999999644
  endloop
endfacet
facet normal -0.9224122247013736 0.3577365106052752 -0.1455344519398233
  outer loop
    vertex 1.8488378346322418 3.5271130212008814 1.4183896366432227
    vertex 1.8449089999999544 3.5225429999999136 1.4320549999999648
    vertex 1.8489889999999547 3.5273649999999135 1.4180459999999653
  endloop
endfacet
facet normal 0.8796373128468102 0.4756361762306145 0.0029027070749117873
  outer loop
    vertex 1.7580029999999567 3.516791999999914 1.4127409999999654
    vertex 1.7623159999999567 3.508626999999914 1.4436409999999644
    vertex 1.7647819999999568 3.504280999999914 1.4084769999999653
  endloop
endfacet
facet normal 0.6640566147740986 0.733586261618158 0.14449916657150708
  outer loop
    vertex 1.7606639999999567 3.4985859999999147 1.4743329999999637
    vertex 1.778685999999956 3.4828019999999147 1.471642999999964
    vertex 1.7699099999999566 3.493586999999914 1.4572209999999644
  endloop
endfacet
facet normal 0.8723703913684415 0.48621404144449004 0.05065378728079231
  outer loop
    vertex 1.7623159999999567 3.508626999999914 1.4436409999999644
    vertex 1.7699099999999566 3.493586999999914 1.4572209999999644
    vertex 1.769281999999956 3.4981789999999147 1.423958999999965
  endloop
endfacet
facet normal 0.14039314586155124 0.9647144352574886 0.2227460953662767
  outer loop
    vertex 1.7999999999999559 3.475970999999914 1.437938999999965
    vertex 1.7999999999999559 3.4822699999999145 1.4106579999999653
    vertex 1.786166999999956 3.4851149999999147 1.4070549999999653
  endloop
endfacet
facet normal 0.2708488454143353 0.9492749441858475 0.15974349213247432
  outer loop
    vertex 1.7940649999999558 3.4776589999999143 1.437970999999965
    vertex 1.7999999999999559 3.475970999999914 1.437938999999965
    vertex 1.786166999999956 3.4851149999999147 1.4070549999999653
  endloop
endfacet
facet normal 0.3411370106896192 0.930098635144147 0.13616926540429547
  outer loop
    vertex 1.7911189999999562 3.4787799999999143 1.4379199999999648
    vertex 1.786166999999956 3.4851149999999147 1.4070549999999653
    vertex 1.7856049999999561 3.4831039999999143 1.422198999999965
  endloop
endfacet
facet normal 0.4024432462148816 0.9150892344797482 -0.02551718078661715
  outer loop
    vertex 1.778685999999956 3.4828019999999147 1.471642999999964
    vertex 1.7999999999999559 3.4732649999999143 1.465782999999964
    vertex 1.7957899999999558 3.4747409999999146 1.4523169999999643
  endloop
endfacet
facet normal 0.4765688262309398 0.8760342865024247 0.0737975794796297
  outer loop
    vertex 1.779986999999956 3.484799999999914 1.4383459999999646
    vertex 1.7911189999999562 3.4787799999999143 1.4379199999999648
    vertex 1.7856049999999561 3.4831039999999143 1.422198999999965
  endloop
endfacet
facet normal 0.7328927723257128 0.677625308685683 0.06076286120126264
  outer loop
    vertex 1.7699099999999566 3.493586999999914 1.4572209999999644
    vertex 1.778685999999956 3.4828019999999147 1.471642999999964
    vertex 1.7763679999999562 3.486727999999914 1.4558189999999642
  endloop
endfacet
facet normal 0.8280209450376219 0.5605869777580915 0.011115527295288273
  outer loop
    vertex 1.769281999999956 3.4981789999999147 1.423958999999965
    vertex 1.7731469999999567 3.492155999999914 1.4398029999999646
    vertex 1.773527999999956 3.492260999999914 1.4061259999999653
  endloop
endfacet
facet normal 0.7300525599534263 0.6787023459632577 0.07991486275668169
  outer loop
    vertex 1.769281999999956 3.4981789999999147 1.423958999999965
    vertex 1.7699099999999566 3.493586999999914 1.4572209999999644
    vertex 1.7731469999999567 3.492155999999914 1.4398029999999646
  endloop
endfacet
facet normal 0.49803130712310023 0.8634014173168597 0.08064000062310397
  outer loop
    vertex 1.778685999999956 3.4828019999999147 1.471642999999964
    vertex 1.7957899999999558 3.4747409999999146 1.4523169999999643
    vertex 1.7911189999999562 3.4787799999999143 1.4379199999999648
  endloop
endfacet
facet normal 0.8203659042739693 0.5716882995641691 -0.01312521413849598
  outer loop
    vertex 1.7623159999999567 3.508626999999914 1.4436409999999644
    vertex 1.769281999999956 3.4981789999999147 1.423958999999965
    vertex 1.7647819999999568 3.504280999999914 1.4084769999999653
  endloop
endfacet
facet normal 0.6798130692720108 0.7315328598550942 0.052094777081732775
  outer loop
    vertex 1.778685999999956 3.4828019999999147 1.471642999999964
    vertex 1.7762919999999562 3.489711999999914 1.4058509999999653
    vertex 1.773527999999956 3.492260999999914 1.4061259999999653
  endloop
endfacet
facet normal 0.46044507555217146 0.8851385603877462 0.06723140125315853
  outer loop
    vertex 1.779986999999956 3.484799999999914 1.4383459999999646
    vertex 1.7856049999999561 3.4831039999999143 1.422198999999965
    vertex 1.7793529999999562 3.487596999999915 1.4058639999999654
  endloop
endfacet
facet normal 0.31792039695016505 0.9382559042469919 0.13639090640034982
  outer loop
    vertex 1.7856049999999561 3.4831039999999143 1.422198999999965
    vertex 1.786166999999956 3.4851149999999147 1.4070549999999653
    vertex 1.7793529999999562 3.487596999999915 1.4058639999999654
  endloop
endfacet
facet normal 0.7638833385970905 0.600088199138984 0.23743714593107418
  outer loop
    vertex 1.7623159999999567 3.508626999999914 1.4436409999999644
    vertex 1.7606639999999567 3.4985859999999147 1.4743329999999637
    vertex 1.7699099999999566 3.493586999999914 1.4572209999999644
  endloop
endfacet
facet normal 0.7338860867406487 0.6744284295759564 0.08097842347320877
  outer loop
    vertex 1.7699099999999566 3.493586999999914 1.4572209999999644
    vertex 1.7763679999999562 3.486727999999914 1.4558189999999642
    vertex 1.7731469999999567 3.492155999999914 1.4398029999999646
  endloop
endfacet
facet normal 0.27284213962773185 0.9575475258009719 0.09305859807561276
  outer loop
    vertex 1.7999999999999559 3.4732649999999143 1.465782999999964
    vertex 1.7999999999999559 3.475970999999914 1.437938999999965
    vertex 1.7940649999999558 3.4776589999999143 1.437970999999965
  endloop
endfacet
facet normal 0.8450436184247118 0.5345794954038013 0.011227023358276854
  outer loop
    vertex 1.773527999999956 3.492260999999914 1.4061259999999653
    vertex 1.7731469999999567 3.492155999999914 1.4398029999999646
    vertex 1.7763679999999562 3.486727999999914 1.4558189999999642
  endloop
endfacet
facet normal 0.8083278352391472 0.588725432726866 -0.0029112949280929094
  outer loop
    vertex 1.7647819999999568 3.504280999999914 1.4084769999999653
    vertex 1.769281999999956 3.4981789999999147 1.423958999999965
    vertex 1.773527999999956 3.492260999999914 1.4061259999999653
  endloop
endfacet
facet normal 0.5672711382158293 0.8213675979685748 0.059655048023209485
  outer loop
    vertex 1.779986999999956 3.484799999999914 1.4383459999999646
    vertex 1.7793529999999562 3.487596999999915 1.4058639999999654
    vertex 1.7762919999999562 3.489711999999914 1.4058509999999653
  endloop
endfacet
facet normal -0.42652767867425134 0.8749389715944561 0.2292508131064976
  outer loop
    vertex 1.7999999999999559 3.4732649999999143 1.465782999999964
    vertex 1.7940649999999558 3.4776589999999143 1.437970999999965
    vertex 1.7957899999999558 3.4747409999999146 1.4523169999999643
  endloop
endfacet
facet normal 0.47658183169292834 0.8762421123309283 0.07120054970325923
  outer loop
    vertex 1.778685999999956 3.4828019999999147 1.471642999999964
    vertex 1.7911189999999562 3.4787799999999143 1.4379199999999648
    vertex 1.779986999999956 3.484799999999914 1.4383459999999646
  endloop
endfacet
facet normal 0.34960630406914983 0.9254202391072404 0.14619443630250512
  outer loop
    vertex 1.7957899999999558 3.4747409999999146 1.4523169999999643
    vertex 1.7940649999999558 3.4776589999999143 1.437970999999965
    vertex 1.7911189999999562 3.4787799999999143 1.4379199999999648
  endloop
endfacet
facet normal 0.5110669511687689 0.8565729510382052 0.07136771660043367
  outer loop
    vertex 1.778685999999956 3.4828019999999147 1.471642999999964
    vertex 1.779986999999956 3.484799999999914 1.4383459999999646
    vertex 1.7762919999999562 3.489711999999914 1.4058509999999653
  endloop
endfacet
facet normal 0.35040209130544897 0.9269585304562843 0.13403826775624075
  outer loop
    vertex 1.7940649999999558 3.4776589999999143 1.437970999999965
    vertex 1.786166999999956 3.4851149999999147 1.4070549999999653
    vertex 1.7911189999999562 3.4787799999999143 1.4379199999999648
  endloop
endfacet
facet normal 0.8371363086968423 0.546838784855016 0.01304392731176577
  outer loop
    vertex 1.773527999999956 3.492260999999914 1.4061259999999653
    vertex 1.7763679999999562 3.486727999999914 1.4558189999999642
    vertex 1.778685999999956 3.4828019999999147 1.471642999999964
  endloop
endfacet
facet normal 0.42652767867425345 0.8749389715944549 0.229250813106498
  outer loop
    vertex 1.7999999999999559 3.4732649999999143 1.465782999999964
    vertex 1.804209999999956 3.4747409999999146 1.4523169999999643
    vertex 1.8059349999999559 3.4776589999999143 1.437970999999965
  endloop
endfacet
facet normal -0.8846103141675304 0.4660298043683825 0.016757491124576657
  outer loop
    vertex 1.8237079999999553 3.489711999999914 1.4058509999999653
    vertex 1.8213139999999552 3.4828019999999147 1.471642999999964
    vertex 1.823596999999955 3.4883079999999147 1.4390369999999646
  endloop
endfacet
facet normal -0.7779443384958609 0.620709237629893 0.09758405875528217
  outer loop
    vertex 1.833245999999955 3.5025949999999137 1.425082999999965
    vertex 1.823596999999955 3.4883079999999147 1.4390369999999646
    vertex 1.8300899999999554 3.493586999999914 1.4572209999999644
  endloop
endfacet
facet normal -0.14039314586155124 0.9647144352574886 0.2227460953662767
  outer loop
    vertex 1.7999999999999559 3.475970999999914 1.437938999999965
    vertex 1.8138329999999556 3.4851149999999147 1.4070549999999653
    vertex 1.7999999999999559 3.4822699999999145 1.4106579999999653
  endloop
endfacet
facet normal -0.6640571354021378 0.7335854955294571 0.14450066321753513
  outer loop
    vertex 1.8300899999999554 3.493586999999914 1.4572209999999644
    vertex 1.8272651139703988 3.488014012838674 1.4725311403791121
    vertex 1.8393359999999552 3.4985859999999147 1.4743329999999637
  endloop
endfacet
facet normal -0.6640571354021378 0.7335854955294571 0.14450066321753513
  outer loop
    vertex 1.8272651139703988 3.488014012838674 1.4725311403791121
    vertex 1.8300899999999554 3.493586999999914 1.4572209999999644
    vertex 1.8213139999999552 3.4828019999999147 1.471642999999964
  endloop
endfacet
facet normal -0.7119657037296624 0.7016831821145791 0.027304736773771966
  outer loop
    vertex 1.828985999999955 3.495040999999915 1.4065279999999654
    vertex 1.8237079999999553 3.489711999999914 1.4058509999999653
    vertex 1.823596999999955 3.4883079999999147 1.4390369999999646
  endloop
endfacet
facet normal -0.4604450755521821 0.8851385603877403 0.06723140125316295
  outer loop
    vertex 1.8200129999999555 3.484799999999914 1.4383459999999646
    vertex 1.820646999999955 3.487596999999915 1.4058639999999654
    vertex 1.8143949999999553 3.4831039999999143 1.422198999999965
  endloop
endfacet
facet normal -0.40244324621489197 0.9150892344797436 -0.025517180786621053
  outer loop
    vertex 1.8213139999999552 3.4828019999999147 1.471642999999964
    vertex 1.804209999999956 3.4747409999999146 1.4523169999999643
    vertex 1.7999999999999559 3.4732649999999143 1.465782999999964
  endloop
endfacet
facet normal -0.4765688262309398 0.8760342865024247 0.07379757947962969
  outer loop
    vertex 1.8200129999999555 3.484799999999914 1.4383459999999646
    vertex 1.8143949999999553 3.4831039999999143 1.422198999999965
    vertex 1.8088809999999556 3.4787799999999143 1.4379199999999648
  endloop
endfacet
facet normal -0.4899996322769142 0.8688036258528538 0.07127846851205283
  outer loop
    vertex 1.8213139999999552 3.4828019999999147 1.471642999999964
    vertex 1.8200129999999555 3.484799999999914 1.4383459999999646
    vertex 1.804209999999956 3.4747409999999146 1.4523169999999643
  endloop
endfacet
facet normal -0.27284213962773185 0.9575475258009719 0.09305859807561276
  outer loop
    vertex 1.7999999999999559 3.4732649999999143 1.465782999999964
    vertex 1.8059349999999559 3.4776589999999143 1.437970999999965
    vertex 1.7999999999999559 3.475970999999914 1.437938999999965
  endloop
endfacet
facet normal -0.3496063040691881 0.925420239107227 0.14619443630249776
  outer loop
    vertex 1.804209999999956 3.4747409999999146 1.4523169999999643
    vertex 1.8088809999999556 3.4787799999999143 1.4379199999999648
    vertex 1.8059349999999559 3.4776589999999143 1.437970999999965
  endloop
endfacet
facet normal -0.3504020913054888 0.9269585304562711 0.13403826775622782
  outer loop
    vertex 1.8059349999999559 3.4776589999999143 1.437970999999965
    vertex 1.8088809999999556 3.4787799999999143 1.4379199999999648
    vertex 1.8138329999999556 3.4851149999999147 1.4070549999999653
  endloop
endfacet
facet normal -0.5672711382157838 0.8213675979686054 0.05965504802321926
  outer loop
    vertex 1.8200129999999555 3.484799999999914 1.4383459999999646
    vertex 1.8237079999999553 3.489711999999914 1.4058509999999653
    vertex 1.820646999999955 3.487596999999915 1.4058639999999654
  endloop
endfacet
facet normal -0.2708488454143353 0.9492749441858475 0.15974349213247432
  outer loop
    vertex 1.8059349999999559 3.4776589999999143 1.437970999999965
    vertex 1.8138329999999556 3.4851149999999147 1.4070549999999653
    vertex 1.7999999999999559 3.475970999999914 1.437938999999965
  endloop
endfacet
facet normal -0.47640388946157947 0.8745276672136391 0.09077826493026696
  outer loop
    vertex 1.804209999999956 3.4747409999999146 1.4523169999999643
    vertex 1.8200129999999555 3.484799999999914 1.4383459999999646
    vertex 1.8088809999999556 3.4787799999999143 1.4379199999999648
  endloop
endfacet
facet normal -0.8409698720916488 0.5404837886829166 0.025435180461645696
  outer loop
    vertex 1.8419969999999548 3.516791999999914 1.4127409999999654
    vertex 1.833245999999955 3.5025949999999137 1.425082999999965
    vertex 1.837683999999955 3.508626999999914 1.4436409999999644
  endloop
endfacet
facet normal -0.8723934581020955 0.48617813667320664 0.050601123323858854
  outer loop
    vertex 1.837683999999955 3.508626999999914 1.4436409999999644
    vertex 1.833245999999955 3.5025949999999137 1.425082999999965
    vertex 1.8300899999999554 3.493586999999914 1.4572209999999644
  endloop
endfacet
facet normal -0.3179203969501965 0.9382559042469824 0.1363909064003421
  outer loop
    vertex 1.8143949999999553 3.4831039999999143 1.422198999999965
    vertex 1.820646999999955 3.487596999999915 1.4058639999999654
    vertex 1.8138329999999556 3.4851149999999147 1.4070549999999653
  endloop
endfacet
facet normal -0.8563985404077615 0.5161386015904298 -0.013508661507755702
  outer loop
    vertex 1.8419969999999548 3.516791999999914 1.4127409999999654
    vertex 1.828985999999955 3.495040999999915 1.4065279999999654
    vertex 1.833245999999955 3.5025949999999137 1.425082999999965
  endloop
endfacet
facet normal -0.7307431740287769 0.679682477129808 0.06360930665426989
  outer loop
    vertex 1.8300899999999554 3.493586999999914 1.4572209999999644
    vertex 1.823596999999955 3.4883079999999147 1.4390369999999646
    vertex 1.8213139999999552 3.4828019999999147 1.471642999999964
  endloop
endfacet
facet normal -0.8405553919605718 0.5410381416321414 -0.027283004696119665
  outer loop
    vertex 1.833245999999955 3.5025949999999137 1.425082999999965
    vertex 1.828985999999955 3.495040999999915 1.4065279999999654
    vertex 1.823596999999955 3.4883079999999147 1.4390369999999646
  endloop
endfacet
facet normal -0.3411370106896385 0.9300986351441413 0.13616926540428714
  outer loop
    vertex 1.8088809999999556 3.4787799999999143 1.4379199999999648
    vertex 1.8143949999999553 3.4831039999999143 1.422198999999965
    vertex 1.8138329999999556 3.4851149999999147 1.4070549999999653
  endloop
endfacet
facet normal -0.7638833385970963 0.6000881991389742 0.23743714593108028
  outer loop
    vertex 1.837683999999955 3.508626999999914 1.4436409999999644
    vertex 1.8300899999999554 3.493586999999914 1.4572209999999644
    vertex 1.8393359999999552 3.4985859999999147 1.4743329999999637
  endloop
endfacet
facet normal -0.5110669511687961 0.8565729510381895 0.07136771660042825
  outer loop
    vertex 1.8213139999999552 3.4828019999999147 1.471642999999964
    vertex 1.8237079999999553 3.489711999999914 1.4058509999999653
    vertex 1.8200129999999555 3.484799999999914 1.4383459999999646
  endloop
endfacet
facet normal 0.8397937553501877 0.5422790877691883 0.026073730900005858
  outer loop
    vertex 1.7510109999999572 3.5273649999999135 1.4180459999999653
    vertex 1.7623159999999567 3.508626999999914 1.4436409999999644
    vertex 1.7580029999999567 3.516791999999914 1.4127409999999654
  endloop
endfacet
facet normal 0.9510691716695897 0.2748702407815554 0.1411161983345998
  outer loop
    vertex 1.7569819999999567 3.5104839999999133 1.4759729999999638
    vertex 1.7606639999999567 3.4985859999999147 1.4743329999999637
    vertex 1.7623159999999567 3.508626999999914 1.4436409999999644
  endloop
endfacet
facet normal 0.9052596805426151 0.4057316317284755 0.1260426665809295
  outer loop
    vertex 1.757507999999957 3.5185029999999133 1.4463819999999645
    vertex 1.7569819999999567 3.5104839999999133 1.4759729999999638
    vertex 1.7623159999999567 3.508626999999914 1.4436409999999644
  endloop
endfacet
facet normal 0.9223677264838251 0.3579191177182598 -0.1453674045748975
  outer loop
    vertex 1.7510109999999572 3.5273649999999135 1.4180459999999653
    vertex 1.7550899999999567 3.5225429999999136 1.4320549999999648
    vertex 1.7623159999999567 3.508626999999914 1.4436409999999644
  endloop
endfacet
facet normal 0.89592601628558 0.44343195667096097 -0.026166259679476153
  outer loop
    vertex 1.7550899999999567 3.5225429999999136 1.4320549999999648
    vertex 1.757507999999957 3.5185029999999133 1.4463819999999645
    vertex 1.7623159999999567 3.508626999999914 1.4436409999999644
  endloop
endfacet
facet normal -0.0 -0.0 1.0
  outer loop
    vertex 1.9316511349201255 3.5456572804251993 0.09160160999999775
    vertex 1.9317849999999526 3.5543619999999123 0.09160160999999775
    vertex 1.9316097149829385 3.5543096094468236 0.09160160999999775
  endloop
endfacet
facet normal -0.0 -0.0 1.0
  outer loop
    vertex 1.9317849999999526 3.5543619999999123 0.09160160999999775
    vertex 1.9316511349201255 3.5456572804251993 0.09160160999999775
    vertex 1.9318179999999525 3.5469149999999128 0.09160160999999775
  endloop
endfacet
facet normal 0.038817224476876 -0.12464610085984833 0.9914416637525116
  outer loop
    vertex 1.778685999999956 3.4828019999999147 1.471642999999964
    vertex 1.7569819999999567 3.5104839999999133 1.4759729999999638
    vertex 1.7606639999999567 3.4985859999999147 1.4743329999999637
  endloop
endfacet
facet normal 0.29992605627684027 0.08655352537237516 0.9500278143358937
  outer loop
    vertex 1.7999999999999559 3.4732649999999143 1.465782999999964
    vertex 1.7569819999999567 3.5104839999999133 1.4759729999999638
    vertex 1.778685999999956 3.4828019999999147 1.471642999999964
  endloop
endfacet
facet normal -2.0478166182716264e-18 -0.1365472381647601 0.9906335607829851
  outer loop
    vertex 1.8430179999999547 3.5104839999999133 1.4759729999999638
    vertex 1.7569819999999567 3.5104839999999133 1.4759729999999638
    vertex 1.8393359999999552 3.4985859999999147 1.4743329999999637
  endloop
endfacet
facet normal -0.09319938756758689 -0.36169105055755 0.9276278661745789
  outer loop
    vertex 1.8213139999999552 3.4828019999999147 1.471642999999964
    vertex 1.7569819999999567 3.5104839999999133 1.4759729999999638
    vertex 1.7999999999999559 3.4732649999999143 1.465782999999964
  endloop
endfacet
facet normal -0.00398690806641912 -0.16357663870263842 0.9865225734035774
  outer loop
    vertex 1.8393359999999552 3.4985859999999147 1.4743329999999637
    vertex 1.7569819999999567 3.5104839999999133 1.4759729999999638
    vertex 1.8213139999999552 3.4828019999999147 1.471642999999964
  endloop
endfacet
facet normal -0.006999905028594034 0.27851927881685357 -0.9604051294411805
  outer loop
    vertex 1.8419969999999548 3.516791999999914 1.4127409999999654
    vertex 1.828985999999955 3.495040999999915 1.4065279999999654
    vertex 1.773527999999956 3.492260999999914 1.4061259999999653
  endloop
endfacet
facet normal 0.00020914105481653294 0.44857477004602375 -0.8937452835893324
  outer loop
    vertex 1.8488566028132054 3.5273594240793344 1.4180660978014525
    vertex 1.7580029999999567 3.516791999999914 1.4127409999999654
    vertex 1.7510109999999572 3.5273649999999135 1.4180459999999653
  endloop
endfacet
facet normal 0.016838647000745683 0.3307150588110984 -0.9435804204426648
  outer loop
    vertex 1.8488566028132054 3.5273594240793344 1.4180660978014525
    vertex 1.7647819999999568 3.504280999999914 1.4084769999999653
    vertex 1.7580029999999567 3.516791999999914 1.4127409999999654
  endloop
endfacet
facet normal 0.3099118325431806 0.43846157204602604 -0.8436267574518103
  outer loop
    vertex 1.7999999999999559 3.4822699999999145 1.4106579999999653
    vertex 1.786166999999956 3.4851149999999147 1.4070549999999653
    vertex 1.773527999999956 3.492260999999914 1.4061259999999653
  endloop
endfacet
facet normal -0.09352100834485086 0.49410944062375234 -0.8643550669051724
  outer loop
    vertex 1.848957901813208 3.5273704701527118 1.4180350412898177
    vertex 1.8419969999999548 3.516791999999914 1.4127409999999654
    vertex 1.773527999999956 3.492260999999914 1.4061259999999653
  endloop
endfacet
facet normal 0.0009191417574735922 0.12513179735796362 -0.9921397020926012
  outer loop
    vertex 1.828985999999955 3.495040999999915 1.4065279999999654
    vertex 1.8237079999999553 3.489711999999914 1.4058509999999653
    vertex 1.773527999999956 3.492260999999914 1.4061259999999653
  endloop
endfacet
facet normal -0.03915756072809409 -0.3428732906301361 -0.9385651772840755
  outer loop
    vertex 1.820646999999955 3.487596999999915 1.4058639999999654
    vertex 1.8138329999999556 3.4851149999999147 1.4070549999999653
    vertex 1.773527999999956 3.492260999999914 1.4061259999999653
  endloop
endfacet
facet normal -0.08664084208500777 -0.5927665595987738 -0.8007004248183177
  outer loop
    vertex 1.8138329999999556 3.4851149999999147 1.4070549999999653
    vertex 1.7999999999999559 3.4822699999999145 1.4106579999999653
    vertex 1.773527999999956 3.492260999999914 1.4061259999999653
  endloop
endfacet
facet normal -0.0053957253943131755 0.0016626584598242492 -0.9999840607301276
  outer loop
    vertex 1.8237079999999553 3.489711999999914 1.4058509999999653
    vertex 1.820646999999955 3.487596999999915 1.4058639999999654
    vertex 1.773527999999956 3.492260999999914 1.4061259999999653
  endloop
endfacet
facet normal 0.3029169826752232 0.42556961615991856 -0.8527202374802878
  outer loop
    vertex 1.786166999999956 3.4851149999999147 1.4070549999999653
    vertex 1.7762919999999562 3.489711999999914 1.4058509999999653
    vertex 1.773527999999956 3.492260999999914 1.4061259999999653
  endloop
endfacet
facet normal 0.3029169826752232 0.42556961615991856 -0.8527202374802878
  outer loop
    vertex 1.7762919999999562 3.489711999999914 1.4058509999999653
    vertex 1.786166999999956 3.4851149999999147 1.4070549999999653
    vertex 1.7793529999999562 3.487596999999915 1.4058639999999654
  endloop
endfacet
facet normal 0.04895282099739329 0.22591254746927036 -0.9729168218364518
  outer loop
    vertex 1.8488566028132054 3.5273594240793344 1.4180660978014525
    vertex 1.773527999999956 3.492260999999914 1.4061259999999653
    vertex 1.7647819999999568 3.504280999999914 1.4084769999999653
  endloop
endfacet
facet normal 1.0322102243563295e-17 0.9651870959431633 0.26156045156866303
  outer loop
    vertex 1.8430179999999547 3.5104839999999133 1.4759729999999638
    vertex 1.8424919999999545 3.5185029999999133 1.4463819999999645
    vertex 1.7569819999999567 3.5104839999999133 1.4759729999999638
  endloop
endfacet
facet normal 7.420761392499444e-07 0.9600642100765341 0.2797797571833428
  outer loop
    vertex 1.7887315836715032 3.516309260273147 1.4559836716516676
    vertex 1.8488566028132054 3.5273594240793344 1.4180660978014525
    vertex 1.7510109999999572 3.5273649999999135 1.4180459999999653
  endloop
endfacet
facet normal 7.420761392499444e-07 0.9600642100765341 0.2797797571833428
  outer loop
    vertex 1.8488566028132054 3.5273594240793344 1.4180660978014525
    vertex 1.7887315836715032 3.516309260273147 1.4559836716516676
    vertex 1.848845839809942 3.5273474232855975 1.4181048320984708
  endloop
endfacet
facet normal -0.07032915260373154 0.9367325985729118 0.3429079308865303
  outer loop
    vertex 1.7887315836715032 3.516309260273147 1.4559836716516676
    vertex 1.7510109999999572 3.5273649999999135 1.4180459999999653
    vertex 1.7550899999999567 3.5225429999999136 1.4320549999999648
  endloop
endfacet
facet normal -0.016689312428873625 0.9615929787791732 0.27397154964201714
  outer loop
    vertex 1.7887315836715032 3.516309260273147 1.4559836716516676
    vertex 1.7550899999999567 3.5225429999999136 1.4320549999999648
    vertex 1.757507999999957 3.5185029999999133 1.4463819999999645
  endloop
endfacet
facet normal -0.012551346806689971 0.965167369409524 0.26133199712327165
  outer loop
    vertex 1.7569819999999567 3.5104839999999133 1.4759729999999638
    vertex 1.7887315836715032 3.516309260273147 1.4559836716516676
    vertex 1.757507999999957 3.5185029999999133 1.4463819999999645
  endloop
endfacet
facet normal 0.03831199832338097 0.9413728824340841 0.3351854516565622
  outer loop
    vertex 1.7887315836715032 3.516309260273147 1.4559836716516676
    vertex 1.8449089999999544 3.5225429999999136 1.4320549999999648
    vertex 1.8489889999999547 3.5273649999999135 1.4180459999999653
  endloop
endfacet
facet normal 0.03831199832338097 0.9413728824340841 0.3351854516565622
  outer loop
    vertex 1.8449089999999544 3.5225429999999136 1.4320549999999648
    vertex 1.7887315836715032 3.516309260273147 1.4559836716516676
    vertex 1.7569819999999567 3.5104839999999133 1.4759729999999638
  endloop
endfacet
facet normal 0.0038867763762118557 0.9622875833212305 0.27200643366506444
  outer loop
    vertex 1.7569819999999567 3.5104839999999133 1.4759729999999638
    vertex 1.8424919999999545 3.5185029999999133 1.4463819999999645
    vertex 1.8449089999999544 3.5225429999999136 1.4320549999999648
  endloop
endfacet
facet normal 0.09426959026934856 -0.5518214056262593 0.8286171496192367
  outer loop
    vertex 1.8307479999999552 3.489897999999914 1.4733929999999635
    vertex 1.7971699999999557 3.474094999999915 1.4666889999999637
    vertex 1.798581999999956 3.473664999999915 1.466241999999964
  endloop
endfacet
facet normal -0.3630941002295561 0.26222802715009896 0.8940912348051826
  outer loop
    vertex 1.8307479999999552 3.489897999999914 1.4733929999999635
    vertex 1.8272651139703988 3.488014012838674 1.4725311403791121
    vertex 1.8213139999999552 3.4828019999999147 1.471642999999964
  endloop
endfacet
facet normal -0.36355492782413823 0.2634648360318524 0.8935402031411316
  outer loop
    vertex 1.8213139999999552 3.4828019999999147 1.471642999999964
    vertex 1.7999999999999559 3.4732649999999143 1.465782999999964
    vertex 1.801417999999956 3.473664999999915 1.466241999999964
  endloop
endfacet
facet normal -0.36355492782413823 0.2634648360318524 0.8935402031411316
  outer loop
    vertex 1.8213139999999552 3.4828019999999147 1.471642999999964
    vertex 1.7999999999999559 3.4732649999999143 1.465782999999964
    vertex 1.801417999999956 3.473664999999915 1.466241999999964
  endloop
endfacet
facet normal -0.36355492782413823 0.2634648360318524 0.8935402031411316
  outer loop
    vertex 1.8213139999999552 3.4828019999999147 1.471642999999964
    vertex 1.7999999999999559 3.4732649999999143 1.465782999999964
    vertex 1.801417999999956 3.473664999999915 1.466241999999964
  endloop
endfacet
endsolid 2015new_separate_human-HUTA
