solid Object01
facet normal 0.11203837435075605 0.9529425964372195 0.28168743416831826
  outer loop
    vertex 1.6462309999999596 3.5039159999999137 1.3369339999999672
    vertex 1.6578109999999593 3.5038589999999137 1.3325209999999672
    vertex 1.6578109999999593 3.5039999999999143 1.3320439999999671
  endloop
endfacet
facet normal 0.11563658393202796 0.949966821686411 0.2901572300521733
  outer loop
    vertex 1.6462309999999596 3.5039159999999137 1.3369339999999672
    vertex 1.6578109999999593 3.5039999999999143 1.3320439999999671
    vertex 1.6578109999999593 3.5040729999999134 1.331804999999967
  endloop
endfacet
facet normal 0.09372376762475482 0.9678447097309729 0.2334362294674712
  outer loop
    vertex 1.6578109999999593 3.5027499999999137 1.337118999999967
    vertex 1.6578109999999593 3.5038589999999137 1.3325209999999672
    vertex 1.6462309999999596 3.5039159999999137 1.3369339999999672
  endloop
endfacet
facet normal 0.117297763187172 0.9486219800651631 0.29386659165093204
  outer loop
    vertex 1.6462309999999596 3.5039159999999137 1.3369339999999672
    vertex 1.6578109999999593 3.5040729999999134 1.331804999999967
    vertex 1.6578109999999593 3.504129999999914 1.331620999999967
  endloop
endfacet
facet normal 0.06412998490664268 0.48448429278994537 -0.8724461674371091
  outer loop
    vertex 1.6578109999999593 3.5232399999999133 1.3883419999999658
    vertex 1.6362689999999596 3.5320069999999135 1.3916269999999658
    vertex 1.6578109999999593 3.5316279999999134 1.3929999999999658
  endloop
endfacet
facet normal 0.07025038011734405 0.4967501927855462 -0.8650457387103246
  outer loop
    vertex 1.6578109999999593 3.5232399999999133 1.3883419999999658
    vertex 1.6371329999999598 3.5238899999999136 1.387035999999966
    vertex 1.6362689999999596 3.5320069999999135 1.3916269999999658
  endloop
endfacet
facet normal 0.07729880808057041 0.6573090545014819 -0.7496463840636404
  outer loop
    vertex 1.6578109999999593 3.5215289999999135 1.387097999999966
    vertex 1.6382639999999595 3.5167019999999134 1.380849999999966
    vertex 1.6371329999999598 3.5238899999999136 1.387035999999966
  endloop
endfacet
facet normal 0.07593379825031746 0.8882823129636566 -0.4529774726840359
  outer loop
    vertex 1.6578109999999593 3.509781999999914 1.3743179999999662
    vertex 1.6578109999999593 3.5053989999999144 1.3657229999999665
    vertex 1.63962499999996 3.5108439999999135 1.3733519999999662
  endloop
endfacet
facet normal 0.352978432813508 0.9292668335612937 -0.10894667508229312
  outer loop
    vertex 1.6118959999999605 3.5108889999999136 1.3500649999999668
    vertex 1.61637499999996 3.508381999999915 1.3431929999999672
    vertex 1.6064739999999604 3.5122369999999132 1.343995999999967
  endloop
endfacet
facet normal 0.07383156044300196 0.6640662610562675 -0.7440194228710032
  outer loop
    vertex 1.6578109999999593 3.5158059999999134 1.3819899999999659
    vertex 1.6382639999999595 3.5167019999999134 1.380849999999966
    vertex 1.6578109999999593 3.5215289999999135 1.387097999999966
  endloop
endfacet
facet normal 0.07188329781726215 0.7844828307850735 -0.6159703561847376
  outer loop
    vertex 1.6578109999999593 3.5158059999999134 1.3819899999999659
    vertex 1.6578109999999593 3.509781999999914 1.3743179999999662
    vertex 1.6382639999999595 3.5167019999999134 1.380849999999966
  endloop
endfacet
facet normal 0.07840612497320415 0.7924437500039172 -0.6048846027519756
  outer loop
    vertex 1.6382639999999595 3.5167019999999134 1.380849999999966
    vertex 1.6578109999999593 3.509781999999914 1.3743179999999662
    vertex 1.63962499999996 3.5108439999999135 1.3733519999999662
  endloop
endfacet
facet normal 0.08294163908581623 0.8939891927497664 -0.4403453278421145
  outer loop
    vertex 1.63962499999996 3.5108439999999135 1.3733519999999662
    vertex 1.6578109999999593 3.5053989999999144 1.3657229999999665
    vertex 1.6411519999999595 3.5065519999999144 1.3649259999999666
  endloop
endfacet
facet normal 0.07952787995407128 0.95757056542817 -0.27700889613076685
  outer loop
    vertex 1.6578109999999593 3.5053989999999144 1.3657229999999665
    vertex 1.6578109999999593 3.5027239999999136 1.3564759999999667
    vertex 1.6411519999999595 3.5065519999999144 1.3649259999999666
  endloop
endfacet
facet normal -0.005524904964377283 0.9326516958900322 0.36073576143568226
  outer loop
    vertex 1.6178129999999602 3.5102109999999134 1.3215819999999676
    vertex 1.62250599999996 3.510671999999914 1.3204619999999676
    vertex 1.62441899999996 3.5127769999999137 1.3150489999999675
  endloop
endfacet
facet normal 0.004425171237603319 0.1034783764046059 0.9946218595406924
  outer loop
    vertex 1.6578109999999593 3.550321999999912 1.2968619999999682
    vertex 1.6503469999999594 3.550323999999912 1.2968949999999682
    vertex 1.6578109999999593 3.540613999999913 1.297871999999968
  endloop
endfacet
facet normal 0.011898338327077257 0.9431624916712597 0.3321188700593747
  outer loop
    vertex 1.6257999999999597 3.508204999999913 1.3287749999999672
    vertex 1.6304459999999596 3.5106489999999133 1.3216679999999676
    vertex 1.6270409999999602 3.5116979999999134 1.3188109999999675
  endloop
endfacet
facet normal 0.02639909021596236 0.32517492250191593 0.9452853314273117
  outer loop
    vertex 1.6529509999999594 3.5319239999999135 1.301381999999968
    vertex 1.6496099999999594 3.541142999999913 1.298303999999968
    vertex 1.6483089999999598 3.5326089999999133 1.3012759999999681
  endloop
endfacet
facet normal -0.10964572567216697 0.32509072234389913 0.9393049755472106
  outer loop
    vertex 1.6456259999999596 3.5416399999999135 1.298201999999968
    vertex 1.6418609999999596 3.5340279999999136 1.300396999999968
    vertex 1.6439099999999596 3.5335459999999133 1.300802999999968
  endloop
endfacet
facet normal 0.06940158553288558 0.5866413354208324 -0.8068676245216337
  outer loop
    vertex 1.6578109999999593 3.5215289999999135 1.387097999999966
    vertex 1.6371329999999598 3.5238899999999136 1.387035999999966
    vertex 1.6578109999999593 3.5232399999999133 1.3883419999999658
  endloop
endfacet
facet normal 0.08676222730385592 0.9605820193510117 -0.2641107722392377
  outer loop
    vertex 1.6411519999999595 3.5065519999999144 1.3649259999999666
    vertex 1.6578109999999593 3.5027239999999136 1.3564759999999667
    vertex 1.6427959999999593 3.5039099999999146 1.3558569999999668
  endloop
endfacet
facet normal 0.1203673781444558 0.7754951921355918 0.6197732660039565
  outer loop
    vertex 1.6494629999999593 3.5110919999999135 1.3193109999999675
    vertex 1.6578109999999593 3.5111046669268333 1.3176738690210577
    vertex 1.6578109999999593 3.516041999999913 1.3114959999999678
  endloop
endfacet
facet normal 0.1203673781444558 0.7754951921355918 0.6197732660039565
  outer loop
    vertex 1.6578109999999593 3.5111046669268333 1.3176738690210577
    vertex 1.6494629999999593 3.5110919999999135 1.3193109999999675
    vertex 1.6578109999999593 3.5100719999999135 1.3189659999999677
  endloop
endfacet
facet normal 0.1048577197424941 0.8815789292719205 0.4602428164286531
  outer loop
    vertex 1.6479159999999595 3.506695999999913 1.3276869999999676
    vertex 1.6578109999999593 3.5055649999999137 1.327598999999967
    vertex 1.6578109999999593 3.5100719999999135 1.3189659999999677
  endloop
endfacet
facet normal 0.1361949977712991 0.64089364482498 0.75545102991857
  outer loop
    vertex 1.6578109999999593 3.5232629999999134 1.3053699999999677
    vertex 1.6508329999999596 3.5168859999999134 1.3120379999999676
    vertex 1.6578109999999593 3.516041999999913 1.3114959999999678
  endloop
endfacet
facet normal 0.07128330652181357 0.33903220089016717 0.9380702835986687
  outer loop
    vertex 1.6578109999999593 3.540613999999913 1.297871999999968
    vertex 1.6496099999999594 3.541142999999913 1.298303999999968
    vertex 1.6529509999999594 3.5319239999999135 1.301381999999968
  endloop
endfacet
facet normal 0.09776029400858581 0.9887950471803548 0.11281524536584164
  outer loop
    vertex 1.6445059999999596 3.503002999999915 1.3464309999999668
    vertex 1.6578109999999593 3.5027499999999137 1.337118999999967
    vertex 1.6462309999999596 3.5039159999999137 1.3369339999999672
  endloop
endfacet
facet normal 0.14390767904606097 0.3003687083662013 0.9429046711868576
  outer loop
    vertex 1.6578109999999593 3.531522999999913 1.300767999999968
    vertex 1.6578109999999593 3.540613999999913 1.297871999999968
    vertex 1.6529509999999594 3.5319239999999135 1.301381999999968
  endloop
endfacet
facet normal 0.14390767904606097 0.3003687083662013 0.9429046711868576
  outer loop
    vertex 1.6578109999999593 3.540613999999913 1.297871999999968
    vertex 1.6578109999999593 3.531522999999913 1.300767999999968
    vertex 1.6578109999999593 3.535017345474025 1.2996548524372105
  endloop
endfacet
facet normal -0.1030106105769303 0.32230214605486773 0.9410154838030003
  outer loop
    vertex 1.6456259999999596 3.5416399999999135 1.298201999999968
    vertex 1.6415549999999597 3.5406249999999133 1.298103999999968
    vertex 1.6418609999999596 3.5340279999999136 1.300396999999968
  endloop
endfacet
facet normal 0.09083679796126407 0.9927238826693325 -0.07904409474508313
  outer loop
    vertex 1.6427959999999593 3.5039099999999146 1.3558569999999668
    vertex 1.6578109999999593 3.5018189999999136 1.3468509999999672
    vertex 1.6445059999999596 3.503002999999915 1.3464309999999668
  endloop
endfacet
facet normal -0.386452157915357 0.654702718852909 0.6496299558742445
  outer loop
    vertex 1.6358079999999597 3.5206659999999133 1.307973999999968
    vertex 1.6392079999999596 3.5268889999999136 1.303724999999968
    vertex 1.6351959999999597 3.5238589999999133 1.304391999999968
  endloop
endfacet
facet normal 0.12315409382857169 0.9439574928850343 0.306230829276649
  outer loop
    vertex 1.6462309999999596 3.5039159999999137 1.3369339999999672
    vertex 1.6578109999999593 3.504145999999914 1.3315679999999672
    vertex 1.6479159999999595 3.506695999999913 1.3276869999999676
  endloop
endfacet
facet normal 0.0045088815133138204 0.15133794982490117 0.9884717977414907
  outer loop
    vertex 1.6503469999999594 3.550323999999912 1.2968949999999682
    vertex 1.6465529999999597 3.5503259999999126 1.2969119999999683
    vertex 1.6496099999999594 3.541142999999913 1.298303999999968
  endloop
endfacet
facet normal -0.1792836441719736 0.3155656638310203 0.931813117928324
  outer loop
    vertex 1.6418609999999596 3.5340279999999136 1.300396999999968
    vertex 1.6415549999999597 3.5406249999999133 1.298103999999968
    vertex 1.6389949999999596 3.5316939999999133 1.300635999999968
  endloop
endfacet
facet normal 0.08526691364092275 0.9918300846978245 0.09488222450205208
  outer loop
    vertex 1.6445059999999596 3.503002999999915 1.3464309999999668
    vertex 1.6578109999999593 3.5025245419238944 1.3394757755056845
    vertex 1.6578109999999593 3.5027499999999137 1.337118999999967
  endloop
endfacet
facet normal 0.08526691364092275 0.9918300846978245 0.09488222450205208
  outer loop
    vertex 1.6578109999999593 3.5025245419238944 1.3394757755056845
    vertex 1.6445059999999596 3.503002999999915 1.3464309999999668
    vertex 1.6578109999999593 3.5018189999999136 1.3468509999999672
  endloop
endfacet
facet normal 0.10995161794174134 0.9359199865555801 0.3346108493127443
  outer loop
    vertex 1.6578109999999593 3.504145999999914 1.3315679999999672
    vertex 1.6578109999999593 3.5055649999999137 1.327598999999967
    vertex 1.6479159999999595 3.506695999999913 1.3276869999999676
  endloop
endfacet
facet normal -0.33809793092512397 0.7838626998365412 0.5208157610029851
  outer loop
    vertex 1.63172899999996 3.5155419999999133 1.3130379999999675
    vertex 1.6358079999999597 3.5206659999999133 1.307973999999968
    vertex 1.6302919999999603 3.5174449999999133 1.309240999999968
  endloop
endfacet
facet normal -0.2223275068934128 0.8851189474573266 0.4088213895218716
  outer loop
    vertex 1.6270409999999602 3.5116979999999134 1.3188109999999675
    vertex 1.63172899999996 3.5155419999999133 1.3130379999999675
    vertex 1.62441899999996 3.5127769999999137 1.3150489999999675
  endloop
endfacet
facet normal 0.14883844638157392 0.48068580286015644 0.8641691245395233
  outer loop
    vertex 1.6578109999999593 3.531522999999913 1.300767999999968
    vertex 1.6529509999999594 3.5319239999999135 1.301381999999968
    vertex 1.6520029999999595 3.523891999999914 1.306012999999968
  endloop
endfacet
facet normal -0.25297121325381156 0.5152178479064239 0.8188749199136384
  outer loop
    vertex 1.6392079999999596 3.5268889999999136 1.303724999999968
    vertex 1.6389949999999596 3.5316939999999133 1.300635999999968
    vertex 1.6351959999999597 3.5238589999999133 1.304391999999968
  endloop
endfacet
facet normal 0.15252404164028727 0.629634899326195 0.7617718229707662
  outer loop
    vertex 1.6578109999999593 3.5232629999999134 1.3053699999999677
    vertex 1.6520029999999595 3.523891999999914 1.306012999999968
    vertex 1.6508329999999596 3.5168859999999134 1.3120379999999676
  endloop
endfacet
facet normal 0.1412306340825842 0.7611712845153663 0.6329867167846877
  outer loop
    vertex 1.6494629999999593 3.5110919999999135 1.3193109999999675
    vertex 1.6578109999999593 3.516041999999913 1.3114959999999678
    vertex 1.6508329999999596 3.5168859999999134 1.3120379999999676
  endloop
endfacet
facet normal -0.006905702921299602 0.14762114016417635 0.9890198735332832
  outer loop
    vertex 1.6496099999999594 3.541142999999913 1.298303999999968
    vertex 1.6465529999999597 3.5503259999999126 1.2969119999999683
    vertex 1.6456259999999596 3.5416399999999135 1.298201999999968
  endloop
endfacet
facet normal 0.004711874026834631 0.14640992225541152 0.9892127844444387
  outer loop
    vertex 1.6465529999999597 3.5503259999999126 1.2969119999999683
    vertex 1.6427429999999594 3.550326999999913 1.2969299999999682
    vertex 1.6456259999999596 3.5416399999999135 1.298201999999968
  endloop
endfacet
facet normal 0.13792968832848412 0.9904420230773769 -0.0
  outer loop
    vertex 1.6427959999999593 3.5039099999999146 1.3558569999999668
    vertex 1.6578109999999593 3.5018189999999136 1.3469829999999672
    vertex 1.6578109999999593 3.5018189999999136 1.3468509999999672
  endloop
endfacet
facet normal 0.08226381781282069 0.9921123995101814 -0.09458145175989595
  outer loop
    vertex 1.6578109999999593 3.5027239999999136 1.3564759999999667
    vertex 1.6578109999999593 3.5018189999999136 1.3469829999999672
    vertex 1.6427959999999593 3.5039099999999146 1.3558569999999668
  endloop
endfacet
facet normal 0.12593793060626018 0.8686483305978605 0.4791552101189791
  outer loop
    vertex 1.6479159999999595 3.506695999999913 1.3276869999999676
    vertex 1.6578109999999593 3.5100719999999135 1.3189659999999677
    vertex 1.6494629999999593 3.5110919999999135 1.3193109999999675
  endloop
endfacet
facet normal -0.055413541856348274 0.12662977937984288 0.9904010492488118
  outer loop
    vertex 1.6456259999999596 3.5416399999999135 1.298201999999968
    vertex 1.6427429999999594 3.550326999999913 1.2969299999999682
    vertex 1.6415549999999597 3.5406249999999133 1.298103999999968
  endloop
endfacet
facet normal -0.25528653595056294 0.6996686542958326 0.6673024492373909
  outer loop
    vertex 1.6302919999999603 3.5174449999999133 1.309240999999968
    vertex 1.6358079999999597 3.5206659999999133 1.307973999999968
    vertex 1.6351959999999597 3.5238589999999133 1.304391999999968
  endloop
endfacet
facet normal -0.18479107170684353 0.8488126474086206 0.49534770557317087
  outer loop
    vertex 1.62441899999996 3.5127769999999137 1.3150489999999675
    vertex 1.63172899999996 3.5155419999999133 1.3130379999999675
    vertex 1.6302919999999603 3.5174449999999133 1.309240999999968
  endloop
endfacet
facet normal 0.1477808368292859 0.481358233443009 0.8639763164361982
  outer loop
    vertex 1.6578109999999593 3.531522999999913 1.300767999999968
    vertex 1.6520029999999595 3.523891999999914 1.306012999999968
    vertex 1.6578109999999593 3.5232629999999134 1.3053699999999677
  endloop
endfacet
facet normal 0.06146213897870914 0.14658421540191222 0.9872869255019879
  outer loop
    vertex 1.6578109999999593 3.540613999999913 1.297871999999968
    vertex 1.6503469999999594 3.550323999999912 1.2968949999999682
    vertex 1.6496099999999594 3.541142999999913 1.298303999999968
  endloop
endfacet
facet normal -0.33904845049367893 0.49805578366775793 0.7981143931623655
  outer loop
    vertex 1.6418609999999596 3.5340279999999136 1.300396999999968
    vertex 1.6389949999999596 3.5316939999999133 1.300635999999968
    vertex 1.6392079999999596 3.5268889999999136 1.303724999999968
  endloop
endfacet
facet normal 0.8575969442733004 0.33395750383654815 -0.39115197405146745
  outer loop
    vertex 1.5864819999999609 3.5400509999999135 1.3525629999999667
    vertex 1.5922449999999608 3.535771999999913 1.3615449999999667
    vertex 1.5909379999999609 3.5317329999999134 1.3552309999999668
  endloop
endfacet
facet normal 0.7878240950493013 0.43172943008263553 -0.43925265447151496
  outer loop
    vertex 1.5922449999999608 3.535771999999913 1.3615449999999667
    vertex 1.5946469999999606 3.5283639999999132 1.3585719999999666
    vertex 1.5909379999999609 3.5317329999999134 1.3552309999999668
  endloop
endfacet
facet normal -0.09120077057640948 0.9385889283725414 0.3327660484225419
  outer loop
    vertex 1.62250599999996 3.510671999999914 1.3204619999999676
    vertex 1.6270409999999602 3.5116979999999134 1.3188109999999675
    vertex 1.62441899999996 3.5127769999999137 1.3150489999999675
  endloop
endfacet
facet normal -0.035489748795934195 0.3125599451664962 0.94923482785237
  outer loop
    vertex 1.6483089999999598 3.5326089999999133 1.3012759999999681
    vertex 1.6456259999999596 3.5416399999999135 1.298201999999968
    vertex 1.6439099999999596 3.5335459999999133 1.300802999999968
  endloop
endfacet
facet normal -0.1877343838588547 0.4714550761463367 0.8616762224252147
  outer loop
    vertex 1.6418609999999596 3.5340279999999136 1.300396999999968
    vertex 1.6392079999999596 3.5268889999999136 1.303724999999968
    vertex 1.6414689999999599 3.5262229999999137 1.304581999999968
  endloop
endfacet
facet normal 0.033166182097668806 0.488025879219926 0.872198799343752
  outer loop
    vertex 1.6520029999999595 3.523891999999914 1.306012999999968
    vertex 1.6483089999999598 3.5326089999999133 1.3012759999999681
    vertex 1.6464979999999596 3.5248969999999136 1.3056599999999678
  endloop
endfacet
facet normal 0.0686810180029552 0.6438714935470529 0.7620448920920376
  outer loop
    vertex 1.6520029999999595 3.523891999999914 1.306012999999968
    vertex 1.6464979999999596 3.5248969999999136 1.3056599999999678
    vertex 1.6508329999999596 3.5168859999999134 1.3120379999999676
  endloop
endfacet
facet normal 0.03942666979552847 0.6353461433613274 0.7712203419417321
  outer loop
    vertex 1.6508329999999596 3.5168859999999134 1.3120379999999676
    vertex 1.6464979999999596 3.5248969999999136 1.3056599999999678
    vertex 1.6442289999999595 3.5181879999999137 1.311302999999968
  endloop
endfacet
facet normal -0.21722241316347998 0.6285832149817984 0.746791513785863
  outer loop
    vertex 1.6392079999999596 3.5268889999999136 1.303724999999968
    vertex 1.6358079999999597 3.5206659999999133 1.307973999999968
    vertex 1.6383679999999599 3.5198469999999134 1.3094079999999675
  endloop
endfacet
facet normal 0.09827082922239987 0.9814542358437314 0.1645916980541219
  outer loop
    vertex 1.62105599999996 3.5074639999999144 1.336025999999967
    vertex 1.6257999999999597 3.508204999999913 1.3287749999999672
    vertex 1.6178129999999602 3.5102109999999134 1.3215819999999676
  endloop
endfacet
facet normal 0.1281891239863741 0.9791731320702312 0.1574405472658795
  outer loop
    vertex 1.62105599999996 3.5074639999999144 1.336025999999967
    vertex 1.6178129999999602 3.5102109999999134 1.3215819999999676
    vertex 1.6111549999999604 3.5100239999999134 1.3281659999999675
  endloop
endfacet
facet normal -0.06319546682866883 0.47422220320024333 0.8781341782234728
  outer loop
    vertex 1.6464979999999596 3.5248969999999136 1.3056599999999678
    vertex 1.6439099999999596 3.5335459999999133 1.300802999999968
    vertex 1.6414689999999599 3.5262229999999137 1.304581999999968
  endloop
endfacet
facet normal 0.7322060921181848 0.6361069779382406 -0.2433971061522613
  outer loop
    vertex 1.5904849999999608 3.528013999999913 1.348604999999967
    vertex 1.5979129999999606 3.521733999999913 1.3545379999999667
    vertex 1.596826999999961 3.518313999999914 1.3423329999999671
  endloop
endfacet
facet normal 0.7820913762253158 0.5190740144379316 -0.34481190056214933
  outer loop
    vertex 1.5909379999999609 3.5317329999999134 1.3552309999999668
    vertex 1.5946469999999606 3.5283639999999132 1.3585719999999666
    vertex 1.5904849999999608 3.528013999999913 1.348604999999967
  endloop
endfacet
facet normal 0.7496133921252139 0.5719439653619861 -0.33310638365623924
  outer loop
    vertex 1.5946469999999606 3.5283639999999132 1.3585719999999666
    vertex 1.5979129999999606 3.521733999999913 1.3545379999999667
    vertex 1.5904849999999608 3.528013999999913 1.348604999999967
  endloop
endfacet
facet normal 0.8813480128027014 0.3837333071180533 -0.2756345938683518
  outer loop
    vertex 1.5864819999999609 3.5400509999999135 1.3525629999999667
    vertex 1.5909379999999609 3.5317329999999134 1.3552309999999668
    vertex 1.5904849999999608 3.528013999999913 1.348604999999967
  endloop
endfacet
facet normal 0.4952394505506458 0.8437843180360886 -0.20679920515966083
  outer loop
    vertex 1.6019209999999606 3.5162819999999138 1.349596999999967
    vertex 1.6064739999999604 3.5122369999999132 1.343995999999967
    vertex 1.6029559999999605 3.513805999999914 1.3419729999999672
  endloop
endfacet
facet normal 0.4505312289275458 0.8876919899606088 -0.09499759323693205
  outer loop
    vertex 1.6064739999999604 3.5122369999999132 1.343995999999967
    vertex 1.6047459999999605 3.5120979999999133 1.3345019999999674
    vertex 1.6029559999999605 3.513805999999914 1.3419729999999672
  endloop
endfacet
facet normal 0.5903308035340351 0.8060241748403418 -0.04283190366778848
  outer loop
    vertex 1.596826999999961 3.518313999999914 1.3423329999999671
    vertex 1.6029559999999605 3.513805999999914 1.3419729999999672
    vertex 1.6047459999999605 3.5120979999999133 1.3345019999999674
  endloop
endfacet
facet normal -0.10481867050632265 0.632100535781226 0.767764260029323
  outer loop
    vertex 1.6414689999999599 3.5262229999999137 1.304581999999968
    vertex 1.6392079999999596 3.5268889999999136 1.303724999999968
    vertex 1.6383679999999599 3.5198469999999134 1.3094079999999675
  endloop
endfacet
facet normal 0.305892706606067 0.9520633857701876 -0.0022274471983956194
  outer loop
    vertex 1.61637499999996 3.508381999999915 1.3431929999999672
    vertex 1.6111549999999604 3.5100239999999134 1.3281659999999675
    vertex 1.6047459999999605 3.5120979999999133 1.3345019999999674
  endloop
endfacet
facet normal -0.09740433795708811 0.9429307738150965 0.31842416795778067
  outer loop
    vertex 1.6257999999999597 3.508204999999913 1.3287749999999672
    vertex 1.6270409999999602 3.5116979999999134 1.3188109999999675
    vertex 1.62250599999996 3.510671999999914 1.3204619999999676
  endloop
endfacet
facet normal -0.023932391018880502 0.9557751855797274 0.29312290134030333
  outer loop
    vertex 1.6257999999999597 3.508204999999913 1.3287749999999672
    vertex 1.62250599999996 3.510671999999914 1.3204619999999676
    vertex 1.6178129999999602 3.5102109999999134 1.3215819999999676
  endloop
endfacet
facet normal -0.0745313432713421 0.6246301126099705 0.7773559681966975
  outer loop
    vertex 1.6442289999999595 3.5181879999999137 1.311302999999968
    vertex 1.6414689999999599 3.5262229999999137 1.304581999999968
    vertex 1.6383679999999599 3.5198469999999134 1.3094079999999675
  endloop
endfacet
facet normal 0.6520502106619125 0.7129967352339096 -0.2578103534025389
  outer loop
    vertex 1.5979129999999606 3.521733999999913 1.3545379999999667
    vertex 1.6019209999999606 3.5162819999999138 1.349596999999967
    vertex 1.596826999999961 3.518313999999914 1.3423329999999671
  endloop
endfacet
facet normal 0.01654635680781316 0.326585536834241 0.9450228067126629
  outer loop
    vertex 1.6496099999999594 3.541142999999913 1.298303999999968
    vertex 1.6456259999999596 3.5416399999999135 1.298201999999968
    vertex 1.6483089999999598 3.5326089999999133 1.3012759999999681
  endloop
endfacet
facet normal 0.23075115548084468 0.9726619943640182 0.026125638060450113
  outer loop
    vertex 1.61637499999996 3.508381999999915 1.3431929999999672
    vertex 1.62105599999996 3.5074639999999144 1.336025999999967
    vertex 1.6111549999999604 3.5100239999999134 1.3281659999999675
  endloop
endfacet
facet normal 0.05309276314180983 0.49407725137109365 0.867795383820145
  outer loop
    vertex 1.6529509999999594 3.5319239999999135 1.301381999999968
    vertex 1.6483089999999598 3.5326089999999133 1.3012759999999681
    vertex 1.6520029999999595 3.523891999999914 1.306012999999968
  endloop
endfacet
facet normal 0.5758344435095097 0.7973307592991987 -0.18077155180906238
  outer loop
    vertex 1.6019209999999606 3.5162819999999138 1.349596999999967
    vertex 1.6029559999999605 3.513805999999914 1.3419729999999672
    vertex 1.596826999999961 3.518313999999914 1.3423329999999671
  endloop
endfacet
facet normal 0.356172731358641 0.9311203628030957 -0.07845925955524202
  outer loop
    vertex 1.6064739999999604 3.5122369999999132 1.343995999999967
    vertex 1.61637499999996 3.508381999999915 1.3431929999999672
    vertex 1.6047459999999605 3.5120979999999133 1.3345019999999674
  endloop
endfacet
facet normal -0.06250809124682825 0.4740628598771338 0.8782694025262358
  outer loop
    vertex 1.6439099999999596 3.5335459999999133 1.300802999999968
    vertex 1.6418609999999596 3.5340279999999136 1.300396999999968
    vertex 1.6414689999999599 3.5262229999999137 1.304581999999968
  endloop
endfacet
facet normal 0.005218706750847636 0.6426464926514276 0.7661450584469414
  outer loop
    vertex 1.6464979999999596 3.5248969999999136 1.3056599999999678
    vertex 1.6414689999999599 3.5262229999999137 1.304581999999968
    vertex 1.6442289999999595 3.5181879999999137 1.311302999999968
  endloop
endfacet
facet normal 0.011240937759473078 0.4921677921149794 0.8704277716864014
  outer loop
    vertex 1.6483089999999598 3.5326089999999133 1.3012759999999681
    vertex 1.6439099999999596 3.5335459999999133 1.300802999999968
    vertex 1.6464979999999596 3.5248969999999136 1.3056599999999678
  endloop
endfacet
facet normal 0.034272267905033786 0.9379892069733995 0.3449661711734338
  outer loop
    vertex 1.63523899999996 3.505868999999915 1.3341889999999672
    vertex 1.6304459999999596 3.5106489999999133 1.3216679999999676
    vertex 1.6257999999999597 3.508204999999913 1.3287749999999672
  endloop
endfacet
facet normal 0.11727787563123535 0.9449550816304275 0.30545997051701673
  outer loop
    vertex 1.6462309999999596 3.5039159999999137 1.3369339999999672
    vertex 1.6479159999999595 3.506695999999913 1.3276869999999676
    vertex 1.6385309999999595 3.508483999999914 1.3257589999999675
  endloop
endfacet
facet normal 0.08597019797799593 0.9415737957229122 0.32564998428922415
  outer loop
    vertex 1.6462309999999596 3.5039159999999137 1.3369339999999672
    vertex 1.6385309999999595 3.508483999999914 1.3257589999999675
    vertex 1.63523899999996 3.505868999999915 1.3341889999999672
  endloop
endfacet
facet normal 0.3814617482981271 0.8669766459458689 -0.32068431512905043
  outer loop
    vertex 1.6224899999999602 3.5125309999999144 1.3671059999999664
    vertex 1.62543199999996 3.508417999999913 1.3594859999999667
    vertex 1.6118959999999605 3.5108889999999136 1.3500649999999668
  endloop
endfacet
facet normal 0.30464973720751565 0.9369118513736849 -0.1714197199126334
  outer loop
    vertex 1.62543199999996 3.508417999999913 1.3594859999999667
    vertex 1.6285959999999602 3.5058919999999136 1.3513029999999666
    vertex 1.61637499999996 3.508381999999915 1.3431929999999672
  endloop
endfacet
facet normal 0.47088099078192325 0.8511638215384489 -0.23192938887579065
  outer loop
    vertex 1.6077599999999606 3.5149149999999136 1.3564349999999668
    vertex 1.6064739999999604 3.5122369999999132 1.343995999999967
    vertex 1.6019209999999606 3.5162819999999138 1.349596999999967
  endloop
endfacet
facet normal 0.5799530248568457 0.7383377988200206 -0.34425540488567735
  outer loop
    vertex 1.6041059999999605 3.5203929999999133 1.3620949999999665
    vertex 1.6019209999999606 3.5162819999999138 1.349596999999967
    vertex 1.5979129999999606 3.521733999999913 1.3545379999999667
  endloop
endfacet
facet normal 0.368790120900205 0.8750202084140356 -0.31358169843514444
  outer loop
    vertex 1.6224899999999602 3.5125309999999144 1.3671059999999664
    vertex 1.6118959999999605 3.5108889999999136 1.3500649999999668
    vertex 1.6077599999999606 3.5149149999999136 1.3564349999999668
  endloop
endfacet
facet normal 0.28387148605162726 0.9454378435624463 -0.15988828401991234
  outer loop
    vertex 1.62543199999996 3.508417999999913 1.3594859999999667
    vertex 1.61637499999996 3.508381999999915 1.3431929999999672
    vertex 1.6118959999999605 3.5108889999999136 1.3500649999999668
  endloop
endfacet
facet normal 0.45000822408839664 0.7690985776693053 -0.4538501691966845
  outer loop
    vertex 1.61985599999996 3.518161999999913 1.3739309999999663
    vertex 1.6077599999999606 3.5149149999999136 1.3564349999999668
    vertex 1.6041059999999605 3.5203929999999133 1.3620949999999665
  endloop
endfacet
facet normal 0.04858283734495023 0.7631057202192996 0.6444450074941214
  outer loop
    vertex 1.6494629999999593 3.5110919999999135 1.3193109999999675
    vertex 1.6442289999999595 3.5181879999999137 1.311302999999968
    vertex 1.6415549999999597 3.5126569999999147 1.3180539999999676
  endloop
endfacet
facet normal 0.11238421514946657 0.9783981701058337 0.17351313759711226
  outer loop
    vertex 1.6318939999999598 3.5050189999999137 1.3427929999999668
    vertex 1.6257999999999597 3.508204999999913 1.3287749999999672
    vertex 1.62105599999996 3.5074639999999144 1.336025999999967
  endloop
endfacet
facet normal -0.10851231158601218 0.7673533328967234 0.631976218481796
  outer loop
    vertex 1.6346719999999597 3.5145969999999136 1.3151479999999676
    vertex 1.6383679999999599 3.5198469999999134 1.3094079999999675
    vertex 1.6358079999999597 3.5206659999999133 1.307973999999968
  endloop
endfacet
facet normal 0.06357773547380234 0.8668776145256969 0.49445027352228316
  outer loop
    vertex 1.6479159999999595 3.506695999999913 1.3276869999999676
    vertex 1.6415549999999597 3.5126569999999147 1.3180539999999676
    vertex 1.6385309999999595 3.508483999999914 1.3257589999999675
  endloop
endfacet
facet normal -0.1297844474638009 0.8707042424602225 0.47437339655411337
  outer loop
    vertex 1.6304459999999596 3.5106489999999133 1.3216679999999676
    vertex 1.63172899999996 3.5155419999999133 1.3130379999999675
    vertex 1.6270409999999602 3.5116979999999134 1.3188109999999675
  endloop
endfacet
facet normal 0.5768217555730909 0.7406825956545273 -0.344479251613286
  outer loop
    vertex 1.6041059999999605 3.5203929999999133 1.3620949999999665
    vertex 1.6077599999999606 3.5149149999999136 1.3564349999999668
    vertex 1.6019209999999606 3.5162819999999138 1.349596999999967
  endloop
endfacet
facet normal 0.11609812109048039 0.9829989223478486 0.14224747780621225
  outer loop
    vertex 1.6445059999999596 3.503002999999915 1.3464309999999668
    vertex 1.63523899999996 3.505868999999915 1.3341889999999672
    vertex 1.6318939999999598 3.5050189999999137 1.3427929999999668
  endloop
endfacet
facet normal -0.025071632428760888 0.8622506559388374 0.5058608697857563
  outer loop
    vertex 1.6385309999999595 3.508483999999914 1.3257589999999675
    vertex 1.6346719999999597 3.5145969999999136 1.3151479999999676
    vertex 1.6304459999999596 3.5106489999999133 1.3216679999999676
  endloop
endfacet
facet normal 0.4542580747110525 0.765272623794571 -0.4560782968201632
  outer loop
    vertex 1.61985599999996 3.518161999999913 1.3739309999999663
    vertex 1.6224899999999602 3.5125309999999144 1.3671059999999664
    vertex 1.6077599999999606 3.5149149999999136 1.3564349999999668
  endloop
endfacet
facet normal -0.062002765805194045 0.756042789422559 0.6515788191728322
  outer loop
    vertex 1.6415549999999597 3.5126569999999147 1.3180539999999676
    vertex 1.6383679999999599 3.5198469999999134 1.3094079999999675
    vertex 1.6346719999999597 3.5145969999999136 1.3151479999999676
  endloop
endfacet
facet normal 0.08202614445266974 0.7719240584533803 0.6304006342058135
  outer loop
    vertex 1.6494629999999593 3.5110919999999135 1.3193109999999675
    vertex 1.6508329999999596 3.5168859999999134 1.3120379999999676
    vertex 1.6442289999999595 3.5181879999999137 1.311302999999968
  endloop
endfacet
facet normal 0.15228330202248605 0.9760075711749912 0.15562460259940553
  outer loop
    vertex 1.6318939999999598 3.5050189999999137 1.3427929999999668
    vertex 1.63523899999996 3.505868999999915 1.3341889999999672
    vertex 1.6257999999999597 3.508204999999913 1.3287749999999672
  endloop
endfacet
facet normal 0.22710435312935956 0.9737979133900694 -0.011884303380594917
  outer loop
    vertex 1.6285959999999602 3.5058919999999136 1.3513029999999666
    vertex 1.6318939999999598 3.5050189999999137 1.3427929999999668
    vertex 1.62105599999996 3.5074639999999144 1.336025999999967
  endloop
endfacet
facet normal -0.19576650347050223 0.7637498371736621 0.615111097555668
  outer loop
    vertex 1.6346719999999597 3.5145969999999136 1.3151479999999676
    vertex 1.6358079999999597 3.5206659999999133 1.307973999999968
    vertex 1.63172899999996 3.5155419999999133 1.3130379999999675
  endloop
endfacet
facet normal 0.08710579380304243 0.9413409321332772 0.3260212112369296
  outer loop
    vertex 1.63523899999996 3.505868999999915 1.3341889999999672
    vertex 1.6385309999999595 3.508483999999914 1.3257589999999675
    vertex 1.6304459999999596 3.5106489999999133 1.3216679999999676
  endloop
endfacet
facet normal 0.09717395883012768 0.8737707621760428 0.47653108701487473
  outer loop
    vertex 1.6479159999999595 3.506695999999913 1.3276869999999676
    vertex 1.6494629999999593 3.5110919999999135 1.3193109999999675
    vertex 1.6415549999999597 3.5126569999999147 1.3180539999999676
  endloop
endfacet
facet normal -0.06730724763542953 0.8721944055848665 0.484506608089306
  outer loop
    vertex 1.6304459999999596 3.5106489999999133 1.3216679999999676
    vertex 1.6346719999999597 3.5145969999999136 1.3151479999999676
    vertex 1.63172899999996 3.5155419999999133 1.3130379999999675
  endloop
endfacet
facet normal 0.14437398365933288 0.9821413251089544 0.12064232406399467
  outer loop
    vertex 1.6445059999999596 3.503002999999915 1.3464309999999668
    vertex 1.6462309999999596 3.5039159999999137 1.3369339999999672
    vertex 1.63523899999996 3.505868999999915 1.3341889999999672
  endloop
endfacet
facet normal 0.03979012722276842 0.8719988999104453 0.4878879628875558
  outer loop
    vertex 1.6385309999999595 3.508483999999914 1.3257589999999675
    vertex 1.6415549999999597 3.5126569999999147 1.3180539999999676
    vertex 1.6346719999999597 3.5145969999999136 1.3151479999999676
  endloop
endfacet
facet normal 0.012414852511457542 0.7710626494298329 0.6366382505719912
  outer loop
    vertex 1.6415549999999597 3.5126569999999147 1.3180539999999676
    vertex 1.6442289999999595 3.5181879999999137 1.311302999999968
    vertex 1.6383679999999599 3.5198469999999134 1.3094079999999675
  endloop
endfacet
facet normal 0.19747104876397473 0.9803027861168285 0.003410635078623294
  outer loop
    vertex 1.6285959999999602 3.5058919999999136 1.3513029999999666
    vertex 1.62105599999996 3.5074639999999144 1.336025999999967
    vertex 1.61637499999996 3.508381999999915 1.3431929999999672
  endloop
endfacet
facet normal 0.471173901791847 0.8510029003174405 -0.23192502650975652
  outer loop
    vertex 1.6077599999999606 3.5149149999999136 1.3564349999999668
    vertex 1.6118959999999605 3.5108889999999136 1.3500649999999668
    vertex 1.6064739999999604 3.5122369999999132 1.343995999999967
  endloop
endfacet
facet normal 0.5219652206843128 0.6322092561895888 -0.572593891675578
  outer loop
    vertex 1.6176559999999602 3.5250809999999135 1.379622999999966
    vertex 1.6041059999999605 3.5203929999999133 1.3620949999999665
    vertex 1.6011129999999607 3.5270909999999134 1.3667619999999665
  endloop
endfacet
facet normal 0.5725905126381873 0.4854773868283218 -0.6606449967380984
  outer loop
    vertex 1.6176559999999602 3.5250809999999135 1.379622999999966
    vertex 1.6011129999999607 3.5270909999999134 1.3667619999999665
    vertex 1.6159889999999604 3.532850999999913 1.383887999999966
  endloop
endfacet
facet normal 0.2088489669168389 0.948434632731797 -0.23844046731348006
  outer loop
    vertex 1.6411519999999595 3.5065519999999144 1.3649259999999666
    vertex 1.6427959999999593 3.5039099999999146 1.3558569999999668
    vertex 1.6285959999999602 3.5058919999999136 1.3513029999999666
  endloop
endfacet
facet normal 0.24459391616199716 0.8812052729590171 -0.4045381107952159
  outer loop
    vertex 1.63962499999996 3.5108439999999135 1.3733519999999662
    vertex 1.6411519999999595 3.5065519999999144 1.3649259999999666
    vertex 1.62543199999996 3.508417999999913 1.3594859999999667
  endloop
endfacet
facet normal 0.7326207594084048 0.4530022180075278 -0.507991942223607
  outer loop
    vertex 1.5988889999999607 3.534578999999913 1.3702319999999661
    vertex 1.6011129999999607 3.5270909999999134 1.3667619999999665
    vertex 1.5946469999999606 3.5283639999999132 1.3585719999999666
  endloop
endfacet
facet normal 0.23050489417510472 0.8907161474575597 -0.3917808550959152
  outer loop
    vertex 1.63962499999996 3.5108439999999135 1.3733519999999662
    vertex 1.62543199999996 3.508417999999913 1.3594859999999667
    vertex 1.6224899999999602 3.5125309999999144 1.3671059999999664
  endloop
endfacet
facet normal 0.6659949226478064 0.6032962101902983 -0.4387304933297502
  outer loop
    vertex 1.6011129999999607 3.5270909999999134 1.3667619999999665
    vertex 1.6041059999999605 3.5203929999999133 1.3620949999999665
    vertex 1.5979129999999606 3.521733999999913 1.3545379999999667
  endloop
endfacet
facet normal 0.5770510447989028 0.47819832511958704 -0.6620713356952683
  outer loop
    vertex 1.6159889999999604 3.532850999999913 1.383887999999966
    vertex 1.6011129999999607 3.5270909999999134 1.3667619999999665
    vertex 1.5988889999999607 3.534578999999913 1.3702319999999661
  endloop
endfacet
facet normal 0.19023533032262915 0.9563853675160602 -0.22166990751613225
  outer loop
    vertex 1.6411519999999595 3.5065519999999144 1.3649259999999666
    vertex 1.6285959999999602 3.5058919999999136 1.3513029999999666
    vertex 1.62543199999996 3.508417999999913 1.3594859999999667
  endloop
endfacet
facet normal 0.32552725691422896 0.5076880667305875 -0.7976746403799333
  outer loop
    vertex 1.6362689999999596 3.5320069999999135 1.3916269999999658
    vertex 1.6176559999999602 3.5250809999999135 1.379622999999966
    vertex 1.6159889999999604 3.532850999999913 1.383887999999966
  endloop
endfacet
facet normal 0.3018655522388968 0.6610803579023392 -0.6869133488055251
  outer loop
    vertex 1.6371329999999598 3.5238899999999136 1.387035999999966
    vertex 1.61985599999996 3.518161999999913 1.3739309999999663
    vertex 1.6176559999999602 3.5250809999999135 1.379622999999966
  endloop
endfacet
facet normal 0.7404574752998114 0.4429520777669523 -0.5054860869248223
  outer loop
    vertex 1.5922449999999608 3.535771999999913 1.3615449999999667
    vertex 1.5988889999999607 3.534578999999913 1.3702319999999661
    vertex 1.5946469999999606 3.5283639999999132 1.3585719999999666
  endloop
endfacet
facet normal 0.5194456096656082 0.6352930605152199 -0.5714708967745689
  outer loop
    vertex 1.6176559999999602 3.5250809999999135 1.379622999999966
    vertex 1.61985599999996 3.518161999999913 1.3739309999999663
    vertex 1.6041059999999605 3.5203929999999133 1.3620949999999665
  endloop
endfacet
facet normal 0.3126122917419892 0.6473895980325532 -0.6950973049948262
  outer loop
    vertex 1.6382639999999595 3.5167019999999134 1.380849999999966
    vertex 1.61985599999996 3.518161999999913 1.3739309999999663
    vertex 1.6371329999999598 3.5238899999999136 1.387035999999966
  endloop
endfacet
facet normal 0.17516159677360693 0.98253692704745 -0.06276624892308286
  outer loop
    vertex 1.6427959999999593 3.5039099999999146 1.3558569999999668
    vertex 1.6445059999999596 3.503002999999915 1.3464309999999668
    vertex 1.6318939999999598 3.5050189999999137 1.3427929999999668
  endloop
endfacet
facet normal 0.151498493445531 0.9875393202527333 -0.04259457052846189
  outer loop
    vertex 1.6427959999999593 3.5039099999999146 1.3558569999999668
    vertex 1.6318939999999598 3.5050189999999137 1.3427929999999668
    vertex 1.6285959999999602 3.5058919999999136 1.3513029999999666
  endloop
endfacet
facet normal 0.2805264779500313 0.7804154336381457 -0.5587992896455181
  outer loop
    vertex 1.6382639999999595 3.5167019999999134 1.380849999999966
    vertex 1.63962499999996 3.5108439999999135 1.3733519999999662
    vertex 1.6224899999999602 3.5125309999999144 1.3671059999999664
  endloop
endfacet
facet normal 0.26911681936022974 0.7913057721234771 -0.5490093920339627
  outer loop
    vertex 1.6382639999999595 3.5167019999999134 1.380849999999966
    vertex 1.6224899999999602 3.5125309999999144 1.3671059999999664
    vertex 1.61985599999996 3.518161999999913 1.3739309999999663
  endloop
endfacet
facet normal 0.336013782596792 0.4905315120064516 -0.8040358037013403
  outer loop
    vertex 1.6371329999999598 3.5238899999999136 1.387035999999966
    vertex 1.6176559999999602 3.5250809999999135 1.379622999999966
    vertex 1.6362689999999596 3.5320069999999135 1.3916269999999658
  endloop
endfacet
facet normal 0.6720046764009941 0.5973520630226103 -0.43769878649343624
  outer loop
    vertex 1.5946469999999606 3.5283639999999132 1.3585719999999666
    vertex 1.6011129999999607 3.5270909999999134 1.3667619999999665
    vertex 1.5979129999999606 3.521733999999913 1.3545379999999667
  endloop
endfacet
facet normal 0.37648495681390015 0.923076735265158 0.07866649925510304
  outer loop
    vertex 1.6047459999999605 3.5120979999999133 1.3345019999999674
    vertex 1.6111549999999604 3.5100239999999134 1.3281659999999675
    vertex 1.549822999999962 3.554532999999913 1.099419999999973
  endloop
endfacet
facet normal 0.5032901178104097 0.8632707476880755 0.03824491470058778
  outer loop
    vertex 1.6047459999999605 3.5120979999999133 1.3345019999999674
    vertex 1.549822999999962 3.554532999999913 1.099419999999973
    vertex 1.5439149999999622 3.5579869999999123 1.099202999999973
  endloop
endfacet
facet normal 0.28432735565872236 0.952499300975398 0.10910103787543347
  outer loop
    vertex 1.6111549999999604 3.5100239999999134 1.3281659999999675
    vertex 1.5574429999999615 3.552241999999912 1.099562999999973
    vertex 1.549822999999962 3.554532999999913 1.099419999999973
  endloop
endfacet
facet normal -0.7976772525246622 0.5271844376959048 0.2928951509601327
  outer loop
    vertex 1.591263999999961 3.571868999999912 1.098332999999973
    vertex 1.6351959999999597 3.5238589999999133 1.304391999999968
    vertex 1.6389949999999596 3.5316939999999133 1.300635999999968
  endloop
endfacet
facet normal -0.1541639532784255 0.9627249705966618 0.22224784925668983
  outer loop
    vertex 1.6178129999999602 3.5102109999999134 1.3215819999999676
    vertex 1.62441899999996 3.5127769999999137 1.3150489999999675
    vertex 1.5734629999999614 3.5543939999999123 1.0994279999999732
  endloop
endfacet
facet normal -0.48920586412769307 0.8275664447402017 0.2753387042228893
  outer loop
    vertex 1.62441899999996 3.5127769999999137 1.3150489999999675
    vertex 1.5804779999999614 3.5586289999999123 1.0991629999999728
    vertex 1.5734629999999614 3.5543939999999123 1.0994279999999732
  endloop
endfacet
facet normal 0.836180151419341 0.5395597362747033 -0.09837705709920648
  outer loop
    vertex 1.5312579999999625 3.574142999999912 1.0981899999999731
    vertex 1.5904849999999608 3.528013999999913 1.348604999999967
    vertex 1.5388449999999623 3.5625179999999124 1.098918999999973
  endloop
endfacet
facet normal 0.9217498179125253 0.35661939064198833 -0.15231507934660865
  outer loop
    vertex 1.5312579999999625 3.574142999999912 1.0981899999999731
    vertex 1.5864819999999609 3.5400509999999135 1.3525629999999667
    vertex 1.5904849999999608 3.528013999999913 1.348604999999967
  endloop
endfacet
facet normal -0.2622640581258038 0.9351011605621201 0.23833460372082152
  outer loop
    vertex 1.6178129999999602 3.5102109999999134 1.3215819999999676
    vertex 1.5734629999999614 3.5543939999999123 1.0994279999999732
    vertex 1.5656569999999614 3.552168999999912 1.0995679999999732
  endloop
endfacet
facet normal -0.8999003423073028 0.33656861300612867 0.27731019212125996
  outer loop
    vertex 1.594552999999961 3.579969999999912 1.097824999999973
    vertex 1.6389949999999596 3.5316939999999133 1.300635999999968
    vertex 1.6415549999999597 3.5406249999999133 1.298103999999968
  endloop
endfacet
facet normal -0.7915776470863388 0.5359001375214456 0.29362539269918625
  outer loop
    vertex 1.591263999999961 3.571868999999912 1.098332999999973
    vertex 1.5864849999999608 3.564558999999912 1.098790999999973
    vertex 1.6351959999999597 3.5238589999999133 1.304391999999968
  endloop
endfacet
facet normal -0.42147686750422375 0.8658128401801026 0.2696764282211017
  outer loop
    vertex 1.62441899999996 3.5127769999999137 1.3150489999999675
    vertex 1.6302919999999603 3.5174449999999133 1.309240999999968
    vertex 1.5804779999999614 3.5586289999999123 1.0991629999999728
  endloop
endfacet
facet normal 0.008623782585271819 0.9829375059990854 0.1837375565153189
  outer loop
    vertex 1.6178129999999602 3.5102109999999134 1.3215819999999676
    vertex 1.5656569999999614 3.552168999999912 1.0995679999999732
    vertex 1.5574429999999615 3.552241999999912 1.099562999999973
  endloop
endfacet
facet normal 0.614396943746051 0.7889814452918068 -0.00496734343120967
  outer loop
    vertex 1.596826999999961 3.518313999999914 1.3423329999999671
    vertex 1.6047459999999605 3.5120979999999133 1.3345019999999674
    vertex 1.5439149999999622 3.5579869999999123 1.099202999999973
  endloop
endfacet
facet normal 0.6669097762938587 0.7447643117586311 -0.0236108071519809
  outer loop
    vertex 1.596826999999961 3.518313999999914 1.3423329999999671
    vertex 1.5439149999999622 3.5579869999999123 1.099202999999973
    vertex 1.5388449999999623 3.5625179999999124 1.098918999999973
  endloop
endfacet
facet normal -0.9568444927163141 0.14746513080331564 0.2504049759002817
  outer loop
    vertex 1.596386999999961 3.5885469999999122 1.0972869999999728
    vertex 1.6415549999999597 3.5406249999999133 1.298103999999968
    vertex 1.6427429999999594 3.550326999999913 1.2969299999999682
  endloop
endfacet
facet normal -0.9398790854050787 0.2174878268543479 0.2632989745294991
  outer loop
    vertex 1.596386999999961 3.5885469999999122 1.0972869999999728
    vertex 1.594552999999961 3.579969999999912 1.097824999999973
    vertex 1.6415549999999597 3.5406249999999133 1.298103999999968
  endloop
endfacet
facet normal -0.6401731020378195 0.710446951598495 0.2923072499813872
  outer loop
    vertex 1.6302919999999603 3.5174449999999133 1.309240999999968
    vertex 1.6351959999999597 3.5238589999999133 1.304391999999968
    vertex 1.5864849999999608 3.564558999999912 1.098790999999973
  endloop
endfacet
facet normal -0.6626196980217276 0.6895604613902812 0.2923037903976224
  outer loop
    vertex 1.6302919999999603 3.5174449999999133 1.309240999999968
    vertex 1.5864849999999608 3.564558999999912 1.098790999999973
    vertex 1.5804779999999614 3.5586289999999123 1.0991629999999728
  endloop
endfacet
facet normal 0.12297795836638477 0.9806668915051424 0.15221323747189966
  outer loop
    vertex 1.6111549999999604 3.5100239999999134 1.3281659999999675
    vertex 1.6178129999999602 3.5102109999999134 1.3215819999999676
    vertex 1.5574429999999615 3.552241999999912 1.099562999999973
  endloop
endfacet
facet normal -0.8823961765179646 0.3759897461691406 0.2828580888752204
  outer loop
    vertex 1.594552999999961 3.579969999999912 1.097824999999973
    vertex 1.591263999999961 3.571868999999912 1.098332999999973
    vertex 1.6389949999999596 3.5316939999999133 1.300635999999968
  endloop
endfacet
facet normal 0.8073757041179362 0.5836891907527251 -0.08632149789302548
  outer loop
    vertex 1.5388449999999623 3.5625179999999124 1.098918999999973
    vertex 1.5904849999999608 3.528013999999913 1.348604999999967
    vertex 1.596826999999961 3.518313999999914 1.3423329999999671
  endloop
endfacet
facet normal 0.861334744924604 0.12808836116478556 -0.4916257000196255
  outer loop
    vertex 1.5974499999999607 3.542675999999913 1.3724629999999662
    vertex 1.5922449999999608 3.535771999999913 1.3615449999999667
    vertex 1.5864819999999609 3.5400509999999135 1.3525629999999667
  endloop
endfacet
facet normal 0.05800729931064757 0.30041614219133606 -0.9520426958585207
  outer loop
    vertex 1.6578231498323195 3.535108014012299 1.3940994897921632
    vertex 1.6578109999999593 3.5350332275950302 1.394074528518895
    vertex 1.6578109999999593 3.535152833380855 1.3941122704390185
  endloop
endfacet
facet normal 0.05800729931064757 0.30041614219133606 -0.9520426958585207
  outer loop
    vertex 1.6578109999999593 3.5407389999999124 1.3958749999999658
    vertex 1.6578109999999593 3.5316279999999134 1.3929999999999658
    vertex 1.6356819999999601 3.5408569999999133 1.3945639999999655
  endloop
endfacet
facet normal 0.05800729931064757 0.30041614219133606 -0.9520426958585207
  outer loop
    vertex 1.6578109999999593 3.5316279999999134 1.3929999999999658
    vertex 1.6578109999999593 3.5407389999999124 1.3958749999999658
    vertex 1.6578109999999593 3.535152833380855 1.3941122704390185
  endloop
endfacet
facet normal 0.05800729931064757 0.30041614219133606 -0.9520426958585207
  outer loop
    vertex 1.6578109999999593 3.5316279999999134 1.3929999999999658
    vertex 1.6578109999999593 3.535152833380855 1.3941122704390185
    vertex 1.6578109999999593 3.5350332275950302 1.394074528518895
  endloop
endfacet
facet normal 0.05800729931064757 0.30041614219133606 -0.9520426958585207
  outer loop
    vertex 1.6578109999999593 3.5316279999999134 1.3929999999999658
    vertex 1.6578109999999593 3.5350332275950302 1.394074528518895
    vertex 1.6578109999999593 3.5349759234857694 1.3940564460565827
  endloop
endfacet
facet normal 0.05800729931064757 0.30041614219133606 -0.9520426958585207
  outer loop
    vertex 1.6578109999999593 3.5316279999999134 1.3929999999999658
    vertex 1.6578109999999593 3.5349759234857694 1.3940564460565827
    vertex 1.6578109999999593 3.534899984401687 1.39403248327898
  endloop
endfacet
facet normal 0.06587532106727567 0.3182217505529582 -0.9457247800228638
  outer loop
    vertex 1.6578109999999593 3.5316279999999134 1.3929999999999658
    vertex 1.6362689999999596 3.5320069999999135 1.3916269999999658
    vertex 1.6356819999999601 3.5408569999999133 1.3945639999999655
  endloop
endfacet
facet normal 0.7787206388809224 0.29146845634814383 -0.5555540527571717
  outer loop
    vertex 1.5974499999999607 3.542675999999913 1.3724629999999662
    vertex 1.5988889999999607 3.534578999999913 1.3702319999999661
    vertex 1.5922449999999608 3.535771999999913 1.3615449999999667
  endloop
endfacet
facet normal 0.6110258603171901 0.3181418539547772 -0.7248676836401626
  outer loop
    vertex 1.6159889999999604 3.532850999999913 1.383887999999966
    vertex 1.5988889999999607 3.534578999999913 1.3702319999999661
    vertex 1.6148769999999601 3.5412979999999132 1.386657999999966
  endloop
endfacet
facet normal 0.6151825695201456 0.30915842004755784 -0.7252389106165562
  outer loop
    vertex 1.6148769999999601 3.5412979999999132 1.386657999999966
    vertex 1.5988889999999607 3.534578999999913 1.3702319999999661
    vertex 1.5974499999999607 3.542675999999913 1.3724629999999662
  endloop
endfacet
facet normal 0.34972044008417513 0.31589693061132995 -0.8819890832757918
  outer loop
    vertex 1.6362689999999596 3.5320069999999135 1.3916269999999658
    vertex 1.6159889999999604 3.532850999999913 1.383887999999966
    vertex 1.6356819999999601 3.5408569999999133 1.3945639999999655
  endloop
endfacet
facet normal 0.3410911472011924 0.3331550228376422 -0.879013401524132
  outer loop
    vertex 1.6356819999999601 3.5408569999999133 1.3945639999999655
    vertex 1.6159889999999604 3.532850999999913 1.383887999999966
    vertex 1.6148769999999601 3.5412979999999132 1.386657999999966
  endloop
endfacet
facet normal 0.9496518173185721 0.2625390114125565 -0.17098155850866267
  outer loop
    vertex 1.5273339999999624 3.587779999999912 1.0973349999999729
    vertex 1.5864819999999609 3.5400509999999135 1.3525629999999667
    vertex 1.5312579999999625 3.574142999999912 1.0981899999999731
  endloop
endfacet
facet normal 0.9999898799391201 -0.0003822477200656022 0.004482622672567222
  outer loop
    vertex 1.6578109999999593 3.5407962723021886 1.3952832539428617
    vertex 1.6578109999999593 3.5407389999999124 1.3958749999999658
    vertex 1.6578109999999593 3.5367258681355787 1.394608645690213
  endloop
endfacet
facet normal 1.0 0.0 0.0
  outer loop
    vertex 1.6578109999999593 3.5027499999999137 1.337118999999967
    vertex 1.6578109999999593 3.5018189999999136 1.3469829999999672
    vertex 1.6578109999999593 3.5018189999999136 1.3468509999999672
  endloop
endfacet
facet normal 1.0 0.0 0.0
  outer loop
    vertex 1.6578109999999593 3.5018189999999136 1.3469829999999672
    vertex 1.6578109999999593 3.5027499999999137 1.337118999999967
    vertex 1.6578109999999593 3.504128999999914 1.3621139999999665
  endloop
endfacet
facet normal 1.0 0.0 0.0
  outer loop
    vertex 1.6578109999999593 3.504128999999914 1.3621139999999665
    vertex 1.6578109999999593 3.5027499999999137 1.337118999999967
    vertex 1.6578109999999593 3.5038589999999137 1.3325209999999672
  endloop
endfacet
facet normal 1.0 0.0 0.0
  outer loop
    vertex 1.6578109999999593 3.504128999999914 1.3621139999999665
    vertex 1.6578109999999593 3.5038589999999137 1.3325209999999672
    vertex 1.6578109999999593 3.5039999999999143 1.3320439999999671
  endloop
endfacet
facet normal 1.0 0.0 0.0
  outer loop
    vertex 1.6578109999999593 3.504128999999914 1.3621139999999665
    vertex 1.6578109999999593 3.5039999999999143 1.3320439999999671
    vertex 1.6578109999999593 3.5040729999999134 1.331804999999967
  endloop
endfacet
facet normal 1.0 0.0 0.0
  outer loop
    vertex 1.6578109999999593 3.504128999999914 1.3621139999999665
    vertex 1.6578109999999593 3.5040729999999134 1.331804999999967
    vertex 1.6578109999999593 3.504129999999914 1.331620999999967
  endloop
endfacet
facet normal 1.0 0.0 0.0
  outer loop
    vertex 1.6578109999999593 3.504128999999914 1.3621139999999665
    vertex 1.6578109999999593 3.504129999999914 1.331620999999967
    vertex 1.6578109999999593 3.510814999999914 1.3758739999999663
  endloop
endfacet
facet normal 1.0 0.0 0.0
  outer loop
    vertex 1.6578109999999593 3.510814999999914 1.3758739999999663
    vertex 1.6578109999999593 3.504129999999914 1.331620999999967
    vertex 1.6578109999999593 3.504145999999914 1.3315679999999672
  endloop
endfacet
facet normal 1.0 0.0 0.0
  outer loop
    vertex 1.6578109999999593 3.510814999999914 1.3758739999999663
    vertex 1.6578109999999593 3.504145999999914 1.3315679999999672
    vertex 1.6578109999999593 3.5110549999999137 1.3175159999999675
  endloop
endfacet
facet normal 1.0 0.0 0.0
  outer loop
    vertex 1.6578109999999593 3.510814999999914 1.3758739999999663
    vertex 1.6578109999999593 3.5110549999999137 1.3175159999999675
    vertex 1.6578109999999593 3.5215289999999135 1.387097999999966
  endloop
endfacet
facet normal 1.0 0.0 0.0
  outer loop
    vertex 1.6578109999999593 3.5215289999999135 1.387097999999966
    vertex 1.6578109999999593 3.5110549999999137 1.3175159999999675
    vertex 1.6578109999999593 3.521636999999913 1.306547999999968
  endloop
endfacet
facet normal 1.0 0.0 0.0
  outer loop
    vertex 1.6578109999999593 3.5215289999999135 1.387097999999966
    vertex 1.6578109999999593 3.521636999999913 1.306547999999968
    vertex 1.6578109999999593 3.5351169999999135 1.3943419999999658
  endloop
endfacet
facet normal 1.0 0.0 0.0
  outer loop
    vertex 1.6578109999999593 3.5351169999999135 1.3943419999999658
    vertex 1.6578109999999593 3.521636999999913 1.306547999999968
    vertex 1.6578109999999593 3.5350169999999133 1.299413999999968
  endloop
endfacet
facet normal 1.0 0.0 0.0
  outer loop
    vertex 1.6578109999999593 3.5351169999999135 1.3943419999999658
    vertex 1.6578109999999593 3.5350169999999133 1.299413999999968
    vertex 1.6578109999999593 3.550321999999912 1.2968619999999682
  endloop
endfacet
facet normal 1.0 0.0 0.0
  outer loop
    vertex 1.6578109999999593 3.5351169999999135 1.3943419999999658
    vertex 1.6578109999999593 3.550321999999912 1.2968619999999682
    vertex 1.6578109999999593 3.5407962723021886 1.3952832539428617
  endloop
endfacet
facet normal -0.0001517961141749279 0.06263518932721476 0.9980364772972398
  outer loop
    vertex 1.596386999999961 3.5885469999999122 1.0972869999999728
    vertex 1.5956496282795922 3.5885388027902168 1.0972874022935046
    vertex 1.594552999999961 3.579969999999912 1.097824999999973
  endloop
endfacet
facet normal -0.0001517961141749279 0.06263518932721476 0.9980364772972398
  outer loop
    vertex 1.596386999999961 3.5885469999999122 1.0972869999999728
    vertex 1.5956496282795922 3.5885388027902168 1.0972874022935046
    vertex 1.594552999999961 3.579969999999912 1.097824999999973
  endloop
endfacet
facet normal 2.24587990456513e-06 -0.06257606533388492 -0.9980401976084358
  outer loop
    vertex 1.5956496282795922 3.5885388027902168 1.0972874022935046
    vertex 1.5312579999999625 3.574142999999912 1.0981899999999731
    vertex 1.5273339999999624 3.587779999999912 1.0973349999999729
  endloop
endfacet
facet normal 2.24587990456513e-06 -0.06257606533388492 -0.9980401976084358
  outer loop
    vertex 1.5312579999999625 3.574142999999912 1.0981899999999731
    vertex 1.5956496282795922 3.5885388027902168 1.0972874022935046
    vertex 1.5388449999999623 3.5625179999999124 1.098918999999973
  endloop
endfacet
facet normal 2.24587990456513e-06 -0.06257606533388492 -0.9980401976084358
  outer loop
    vertex 1.5388449999999623 3.5625179999999124 1.098918999999973
    vertex 1.5956496282795922 3.5885388027902168 1.0972874022935046
    vertex 1.5439149999999622 3.5579869999999123 1.099202999999973
  endloop
endfacet
facet normal 2.24587990456513e-06 -0.06257606533388492 -0.9980401976084358
  outer loop
    vertex 1.5439149999999622 3.5579869999999123 1.099202999999973
    vertex 1.5956496282795922 3.5885388027902168 1.0972874022935046
    vertex 1.549822999999962 3.554532999999913 1.099419999999973
  endloop
endfacet
facet normal 2.24587990456513e-06 -0.06257606533388492 -0.9980401976084358
  outer loop
    vertex 1.549822999999962 3.554532999999913 1.099419999999973
    vertex 1.5956496282795922 3.5885388027902168 1.0972874022935046
    vertex 1.5574429999999615 3.552241999999912 1.099562999999973
  endloop
endfacet
facet normal 2.24587990456513e-06 -0.06257606533388492 -0.9980401976084358
  outer loop
    vertex 1.5574429999999615 3.552241999999912 1.099562999999973
    vertex 1.5956496282795922 3.5885388027902168 1.0972874022935046
    vertex 1.5656569999999614 3.552168999999912 1.0995679999999732
  endloop
endfacet
facet normal 2.24587990456513e-06 -0.06257606533388492 -0.9980401976084358
  outer loop
    vertex 1.5656569999999614 3.552168999999912 1.0995679999999732
    vertex 1.5956496282795922 3.5885388027902168 1.0972874022935046
    vertex 1.5734629999999614 3.5543939999999123 1.0994279999999732
  endloop
endfacet
facet normal 2.24587990456513e-06 -0.06257606533388492 -0.9980401976084358
  outer loop
    vertex 1.5734629999999614 3.5543939999999123 1.0994279999999732
    vertex 1.5956496282795922 3.5885388027902168 1.0972874022935046
    vertex 1.5804779999999614 3.5586289999999123 1.0991629999999728
  endloop
endfacet
facet normal 2.24587990456513e-06 -0.06257606533388492 -0.9980401976084358
  outer loop
    vertex 1.5804779999999614 3.5586289999999123 1.0991629999999728
    vertex 1.5956496282795922 3.5885388027902168 1.0972874022935046
    vertex 1.5864849999999608 3.564558999999912 1.098790999999973
  endloop
endfacet
facet normal 2.24587990456513e-06 -0.06257606533388492 -0.9980401976084358
  outer loop
    vertex 1.5864849999999608 3.564558999999912 1.098790999999973
    vertex 1.5956496282795922 3.5885388027902168 1.0972874022935046
    vertex 1.591263999999961 3.571868999999912 1.098332999999973
  endloop
endfacet
facet normal 2.24587990456513e-06 -0.06257606533388492 -0.9980401976084358
  outer loop
    vertex 1.591263999999961 3.571868999999912 1.098332999999973
    vertex 1.5956496282795922 3.5885388027902168 1.0972874022935046
    vertex 1.594552999999961 3.579969999999912 1.097824999999973
  endloop
endfacet
facet normal -0.0 -0.0 1.0
  outer loop
    vertex 1.9316511349201255 3.5456572804251993 0.09160160999999775
    vertex 1.9317849999999526 3.5543619999999123 0.09160160999999775
    vertex 1.9316097149829385 3.5543096094468236 0.09160160999999775
  endloop
endfacet
facet normal -0.0 -0.0 1.0
  outer loop
    vertex 1.9317849999999526 3.5543619999999123 0.09160160999999775
    vertex 1.9316511349201255 3.5456572804251993 0.09160160999999775
    vertex 1.9318179999999525 3.5469149999999128 0.09160160999999775
  endloop
endfacet
facet normal -0.010782816734012919 0.9824485224762982 0.18622199533733763
  outer loop
    vertex 1.5956496282795922 3.5885388027902168 1.0972874022935046
    vertex 1.5864819999999609 3.5400509999999135 1.3525629999999667
    vertex 1.596386999999961 3.5885469999999122 1.0972869999999728
  endloop
endfacet
facet normal -0.010782816734012919 0.9824485224762982 0.18622199533733763
  outer loop
    vertex 1.5864819999999609 3.5400509999999135 1.3525629999999667
    vertex 1.5956496282795922 3.5885388027902168 1.0972874022935046
    vertex 1.5273339999999624 3.587779999999912 1.0973349999999729
  endloop
endfacet
facet normal 0.005317796015739327 0.9823772517238051 0.18683323136187202
  outer loop
    vertex 1.5864819999999609 3.5400509999999135 1.3525629999999667
    vertex 1.6427429999999594 3.550326999999913 1.2969299999999682
    vertex 1.596386999999961 3.5885469999999122 1.0972869999999728
  endloop
endfacet
facet normal -0.17005157928514708 0.9847709244122108 -0.036175776632262256
  outer loop
    vertex 1.5974499999999607 3.542675999999913 1.3724629999999662
    vertex 1.6578109999999593 3.550321999999912 1.2968619999999682
    vertex 1.5864819999999609 3.5400509999999135 1.3525629999999667
  endloop
endfacet
facet normal -0.01431494198531237 0.9955442799972316 0.09320230147775975
  outer loop
    vertex 1.6356819999999601 3.5408569999999133 1.3945639999999655
    vertex 1.6578109999999593 3.550321999999912 1.2968619999999682
    vertex 1.6148769999999601 3.5412979999999132 1.386657999999966
  endloop
endfacet
facet normal -0.00039966389249343915 0.9953488769121319 0.09633511041427611
  outer loop
    vertex 1.6356819999999601 3.5408569999999133 1.3945639999999655
    vertex 1.6578109999999593 3.5407962723021886 1.3952832539428617
    vertex 1.6578109999999593 3.550321999999912 1.2968619999999682
  endloop
endfacet
facet normal -0.00039966389249343915 0.9953488769121319 0.09633511041427611
  outer loop
    vertex 1.6578109999999593 3.5407962723021886 1.3952832539428617
    vertex 1.6356819999999601 3.5408569999999133 1.3945639999999655
    vertex 1.6578109999999593 3.5407389999999124 1.3958749999999658
  endloop
endfacet
facet normal -0.001993889567710339 0.9950807820074336 0.09904676513580013
  outer loop
    vertex 1.6148769999999601 3.5412979999999132 1.386657999999966
    vertex 1.6578109999999593 3.550321999999912 1.2968619999999682
    vertex 1.5974499999999607 3.542675999999913 1.3724629999999662
  endloop
endfacet
facet normal 0.001158308851961264 0.9831551682522364 0.18276918082521526
  outer loop
    vertex 1.6503469999999594 3.550323999999912 1.2968949999999682
    vertex 1.5864819999999609 3.5400509999999135 1.3525629999999667
    vertex 1.6578109999999593 3.550321999999912 1.2968619999999682
  endloop
endfacet
facet normal 0.001158308851961264 0.9831551682522364 0.18276918082521526
  outer loop
    vertex 1.5864819999999609 3.5400509999999135 1.3525629999999667
    vertex 1.6503469999999594 3.550323999999912 1.2968949999999682
    vertex 1.6465529999999597 3.5503259999999126 1.2969119999999683
  endloop
endfacet
facet normal 0.001158308851961264 0.9831551682522364 0.18276918082521526
  outer loop
    vertex 1.5864819999999609 3.5400509999999135 1.3525629999999667
    vertex 1.6465529999999597 3.5503259999999126 1.2969119999999683
    vertex 1.6427429999999594 3.550326999999913 1.2969299999999682
  endloop
endfacet
facet normal -1.0 0.0 0.0
  outer loop
    vertex 1.6578109999999593 3.5232399999999133 1.3883419999999658
    vertex 1.6578110061757867 3.534009127874541 1.3937513722024084
    vertex 1.6578109999999593 3.5215289999999135 1.387097999999966
  endloop
endfacet
facet normal -1.0 0.0 0.0
  outer loop
    vertex 1.6578110061757867 3.534009127874541 1.3937513722024084
    vertex 1.6578109999999593 3.5232399999999133 1.3883419999999658
    vertex 1.6578109999999593 3.5316279999999134 1.3929999999999658
  endloop
endfacet
facet normal 1.0 -0.0 -0.0
  outer loop
    vertex 1.6578109999999593 3.534863174517039 1.3935315770697305
    vertex 1.6578109999999593 3.5349759234857694 1.3940564460565827
    vertex 1.6578109999999593 3.519538371138377 1.3628091900853432
  endloop
endfacet
facet normal 1.0 -0.0 -0.0
  outer loop
    vertex 1.6578109999999593 3.5349759234857694 1.3940564460565827
    vertex 1.6578109999999593 3.534863174517039 1.3935315770697305
    vertex 1.6578109999999593 3.5350332275950302 1.394074528518895
  endloop
endfacet
facet normal -1.0 0.0 0.0
  outer loop
    vertex 1.6578109999999593 3.535152833380855 1.3941122704390185
    vertex 1.6578109999999593 3.5111046669268333 1.3176738690210577
    vertex 1.6578109999999593 3.534863174517039 1.3935315770697305
  endloop
endfacet
endsolid 2015new_separate_human-HUTA
