solid Object01
facet normal 0.05933034242271324 0.12933852234732263 -0.9898239525819804
  outer loop
    vertex 1.6578109999999593 3.5407389999999124 1.3958749999999658
    vertex 1.6356819999999601 3.5408569999999133 1.3945639999999655
    vertex 1.6353879999999597 3.550228999999913 1.395770999999966
  endloop
endfacet
facet normal 0.047919327895153234 0.1023352158066685 -0.9935951094987734
  outer loop
    vertex 1.6578109999999593 3.5407389999999124 1.3958749999999658
    vertex 1.6353879999999597 3.550228999999913 1.395770999999966
    vertex 1.6578109999999593 3.550321999999912 1.3968619999999656
  endloop
endfacet
facet normal 0.856177243762006 0.11784647762751835 -0.5030633508564122
  outer loop
    vertex 1.5850969999999613 3.553321999999912 1.3539329999999667
    vertex 1.5968249999999609 3.5511909999999136 1.3733939999999663
    vertex 1.5974499999999607 3.542675999999913 1.3724629999999662
  endloop
endfacet
facet normal 0.8591568246401332 0.14046045787710376 -0.4920573243507691
  outer loop
    vertex 1.5850969999999613 3.553321999999912 1.3539329999999667
    vertex 1.5974499999999607 3.542675999999913 1.3724629999999662
    vertex 1.5864819999999609 3.5400509999999135 1.3525629999999667
  endloop
endfacet
facet normal 0.6352220973254677 0.12986665767654043 -0.7613327382251194
  outer loop
    vertex 1.6143439999999603 3.550234999999912 1.3878479999999658
    vertex 1.5974499999999607 3.542675999999913 1.3724629999999662
    vertex 1.5968249999999609 3.5511909999999136 1.3733939999999663
  endloop
endfacet
facet normal 0.6319900449271817 0.1392047691550148 -0.7623717041951635
  outer loop
    vertex 1.6148769999999601 3.5412979999999132 1.386657999999966
    vertex 1.5974499999999607 3.542675999999913 1.3724629999999662
    vertex 1.6143439999999603 3.550234999999912 1.3878479999999658
  endloop
endfacet
facet normal 0.348709367276503 0.1441091882880322 -0.9260854814889312
  outer loop
    vertex 1.6353879999999597 3.550228999999913 1.395770999999966
    vertex 1.6148769999999601 3.5412979999999132 1.386657999999966
    vertex 1.6143439999999603 3.550234999999912 1.3878479999999658
  endloop
endfacet
facet normal 0.35460365216870826 0.13036654105585124 -0.9258838020193175
  outer loop
    vertex 1.6356819999999601 3.5408569999999133 1.3945639999999655
    vertex 1.6148769999999601 3.5412979999999132 1.386657999999966
    vertex 1.6353879999999597 3.550228999999913 1.395770999999966
  endloop
endfacet
facet normal 0.048719694921867354 -0.13163059636711555 -0.9901008925492177
  outer loop
    vertex 1.6578109999999593 3.550321999999912 1.3968619999999656
    vertex 1.6353879999999597 3.550228999999913 1.395770999999966
    vertex 1.6357639999999598 3.559792999999913 1.3945179999999655
  endloop
endfacet
facet normal 0.8155638682401647 -0.1787137814221468 -0.550378925060668
  outer loop
    vertex 1.585673999999961 3.561991999999912 1.3533629999999668
    vertex 1.5968249999999609 3.5511909999999136 1.3733939999999663
    vertex 1.585648999999961 3.5618039999999125 1.3533869999999666
  endloop
endfacet
facet normal 0.8487823606183653 -0.08879056265524873 -0.5212338633343767
  outer loop
    vertex 1.585648999999961 3.5618039999999125 1.3533869999999666
    vertex 1.5968249999999609 3.5511909999999136 1.3733939999999663
    vertex 1.5850969999999613 3.553321999999912 1.3539329999999667
  endloop
endfacet
facet normal 0.026046929392903602 -0.29016842825117917 0.9566210538742296
  outer loop
    vertex 1.6578109999999593 3.559903999999912 1.297847999999968
    vertex 1.6490639999999597 3.5681519999999125 1.300587999999968
    vertex 1.6500379999999595 3.559469999999912 1.297927999999968
  endloop
endfacet
facet normal 0.06121787255598871 -0.10319864975593128 -0.9927751058362974
  outer loop
    vertex 1.6578109999999593 3.550321999999912 1.3968619999999656
    vertex 1.6357639999999598 3.559792999999913 1.3945179999999655
    vertex 1.6578109999999593 3.5600189999999126 1.3958539999999653
  endloop
endfacet
facet normal 0.35153211036915916 -0.13518507988255982 -0.926363950915919
  outer loop
    vertex 1.6357639999999598 3.559792999999913 1.3945179999999655
    vertex 1.6353879999999597 3.550228999999913 1.395770999999966
    vertex 1.6149929999999602 3.5596279999999125 1.386659999999966
  endloop
endfacet
facet normal 0.3487818646542201 -0.1412790900603196 -0.9264941605860522
  outer loop
    vertex 1.6353879999999597 3.550228999999913 1.395770999999966
    vertex 1.6143439999999603 3.550234999999912 1.3878479999999658
    vertex 1.6149929999999602 3.5596279999999125 1.386659999999966
  endloop
endfacet
facet normal 0.6249921816127906 -0.1403073509285716 -0.7679183681865484
  outer loop
    vertex 1.6149929999999602 3.5596279999999125 1.386659999999966
    vertex 1.6143439999999603 3.550234999999912 1.3878479999999658
    vertex 1.5975799999999607 3.5602679999999123 1.3723709999999663
  endloop
endfacet
facet normal 0.6257560482580711 -0.13856057365417107 -0.7676134023693632
  outer loop
    vertex 1.6143439999999603 3.550234999999912 1.3878479999999658
    vertex 1.5968249999999609 3.5511909999999136 1.3733939999999663
    vertex 1.5975799999999607 3.5602679999999123 1.3723709999999663
  endloop
endfacet
facet normal 0.7231749008403567 -0.46288721217415196 -0.5125948610746913
  outer loop
    vertex 1.5900339999999609 3.5776899999999126 1.3490509999999667
    vertex 1.6015149999999607 3.576477999999912 1.3663429999999663
    vertex 1.5991419999999608 3.568762999999912 1.3699619999999662
  endloop
endfacet
facet normal -0.23949564535792175 -0.9479984685265613 0.20962046542713042
  outer loop
    vertex 1.62745799999996 3.595457999999912 1.3271519999999675
    vertex 1.6261619999999604 3.592727999999912 1.3133249999999677
    vertex 1.6320759999999601 3.592733999999912 1.3201089999999676
  endloop
endfacet
facet normal -0.3390485617202009 -0.8696241632832782 0.3588870120655266
  outer loop
    vertex 1.6320759999999601 3.592733999999912 1.3201089999999676
    vertex 1.63111699999996 3.588285999999912 1.3084249999999678
    vertex 1.6362999999999597 3.588402999999912 1.3136049999999677
  endloop
endfacet
facet normal -0.3762178576869873 -0.6160071365932155 0.6920948859973187
  outer loop
    vertex 1.6429119999999593 3.5755219999999124 1.303182999999968
    vertex 1.6399799999999596 3.582563999999912 1.3078569999999679
    vertex 1.6388579999999597 3.575287999999912 1.300770999999968
  endloop
endfacet
facet normal -0.45672941446762116 -0.37972331716434155 0.8044926627146906
  outer loop
    vertex 1.6429119999999593 3.5755219999999124 1.303182999999968
    vertex 1.6388579999999597 3.575287999999912 1.300770999999968
    vertex 1.6412479999999596 3.5674069999999123 1.298407999999968
  endloop
endfacet
facet normal -0.03383026615033632 -0.9994097517633332 -0.0059716976271514365
  outer loop
    vertex 1.62260099999996 3.5964759999999116 1.3345129999999672
    vertex 1.6139599999999605 3.596822999999912 1.325391999999967
    vertex 1.6149979999999602 3.596793999999912 1.3243649999999674
  endloop
endfacet
facet normal 0.7912830102485827 -0.29705250708068154 -0.5344445768543478
  outer loop
    vertex 1.5873479999999611 3.5701899999999127 1.351706999999967
    vertex 1.5991419999999608 3.568762999999912 1.3699619999999662
    vertex 1.5975799999999607 3.5602679999999123 1.3723709999999663
  endloop
endfacet
facet normal 0.20680908969060996 -0.9579926992444869 -0.19869571866450303
  outer loop
    vertex 1.6128029999999605 3.593039999999912 1.3492829999999667
    vertex 1.6033249999999606 3.593767999999912 1.3359079999999672
    vertex 1.6091259999999605 3.5962099999999118 1.330171999999967
  endloop
endfacet
facet normal 0.520059932754881 -0.7533002712888062 -0.4025870932099037
  outer loop
    vertex 1.6046289999999608 3.583220999999912 1.3616199999999667
    vertex 1.593648999999961 3.584267999999912 1.3454769999999667
    vertex 1.5981069999999606 3.589701999999912 1.3410679999999668
  endloop
endfacet
facet normal 0.736213452322168 -0.4444067585516439 -0.5103845467620427
  outer loop
    vertex 1.5900339999999609 3.5776899999999126 1.3490509999999667
    vertex 1.5991419999999608 3.568762999999912 1.3699619999999662
    vertex 1.5873479999999611 3.5701899999999127 1.351706999999967
  endloop
endfacet
facet normal 0.37263543246880426 -0.8740005106516966 -0.3118748817223998
  outer loop
    vertex 1.6084149999999604 3.588804999999912 1.3558979999999667
    vertex 1.5981069999999606 3.589701999999912 1.3410679999999668
    vertex 1.6033249999999606 3.593767999999912 1.3359079999999672
  endloop
endfacet
facet normal -0.10567088803746208 -0.9921088935826522 0.06748041712659963
  outer loop
    vertex 1.62260099999996 3.5964759999999116 1.3345129999999672
    vertex 1.6207329999999602 3.595598999999912 1.3186939999999676
    vertex 1.62745799999996 3.595457999999912 1.3271519999999675
  endloop
endfacet
facet normal -0.2853769537345982 -0.9348281219494141 0.21132055434739963
  outer loop
    vertex 1.62745799999996 3.595457999999912 1.3271519999999675
    vertex 1.6207329999999602 3.595598999999912 1.3186939999999676
    vertex 1.6261619999999604 3.592727999999912 1.3133249999999677
  endloop
endfacet
facet normal -0.405351321179843 -0.8427894729107418 0.3541132739231753
  outer loop
    vertex 1.6320759999999601 3.592733999999912 1.3201089999999676
    vertex 1.6261619999999604 3.592727999999912 1.3133249999999677
    vertex 1.63111699999996 3.588285999999912 1.3084249999999678
  endloop
endfacet
facet normal -0.3913911664402885 -0.7589516707607562 0.5203895812580869
  outer loop
    vertex 1.6362999999999597 3.588402999999912 1.3136049999999677
    vertex 1.63543099999996 3.5823749999999115 1.304159999999968
    vertex 1.6399799999999596 3.582563999999912 1.3078569999999679
  endloop
endfacet
facet normal -0.2761584336746728 -0.4447226665236777 0.8520318476385852
  outer loop
    vertex 1.6450079999999594 3.5676719999999125 1.299764999999968
    vertex 1.6429119999999593 3.5755219999999124 1.303182999999968
    vertex 1.6412479999999596 3.5674069999999123 1.298407999999968
  endloop
endfacet
facet normal 0.5121480515822742 -0.7590682405137505 -0.4018952344875955
  outer loop
    vertex 1.6046289999999608 3.583220999999912 1.3616199999999667
    vertex 1.5981069999999606 3.589701999999912 1.3410679999999668
    vertex 1.6084149999999604 3.588804999999912 1.3558979999999667
  endloop
endfacet
facet normal -0.3207836581909684 -0.19487271616134194 0.9268885958590282
  outer loop
    vertex 1.6450079999999594 3.5676719999999125 1.299764999999968
    vertex 1.6412479999999596 3.5674069999999123 1.298407999999968
    vertex 1.6425419999999595 3.559183999999913 1.2971269999999682
  endloop
endfacet
facet normal -0.5032974846098675 -0.1197461586149299 0.8557759633702903
  outer loop
    vertex 1.6450079999999594 3.5676719999999125 1.299764999999968
    vertex 1.6425419999999595 3.559183999999913 1.2971269999999682
    vertex 1.6425599999999596 3.5589939999999127 1.2971109999999682
  endloop
endfacet
facet normal 0.0605295291785072 -0.32430977268627204 -0.9440123661465495
  outer loop
    vertex 1.6578109999999593 3.5600189999999126 1.3958539999999653
    vertex 1.6357639999999598 3.559792999999913 1.3945179999999655
    vertex 1.6363999999999599 3.568748999999913 1.391481999999966
  endloop
endfacet
facet normal 0.8349806958436016 -0.12972135738735924 -0.5347706115766983
  outer loop
    vertex 1.585673999999961 3.561991999999912 1.3533629999999668
    vertex 1.5975799999999607 3.5602679999999123 1.3723709999999663
    vertex 1.5968249999999609 3.5511909999999136 1.3733939999999663
  endloop
endfacet
facet normal 0.07077936951325972 -0.3024389015832218 -0.9505372121387147
  outer loop
    vertex 1.6578109999999593 3.5600189999999126 1.3958539999999653
    vertex 1.6363999999999599 3.568748999999913 1.391481999999966
    vertex 1.6578109999999593 3.5691019999999125 1.392963999999966
  endloop
endfacet
facet normal 0.6341980121384435 -0.6181615293084814 -0.4644019865188414
  outer loop
    vertex 1.6046289999999608 3.583220999999912 1.3616199999999667
    vertex 1.6015149999999607 3.576477999999912 1.3663429999999663
    vertex 1.5900339999999609 3.5776899999999126 1.3490509999999667
  endloop
endfacet
facet normal 0.0680205653391094 -0.4991997081281347 -0.8638129740260523
  outer loop
    vertex 1.6578109999999593 3.5691019999999125 1.392963999999966
    vertex 1.6363999999999599 3.568748999999913 1.391481999999966
    vertex 1.63731199999996 3.5768849999999115 1.3868519999999658
  endloop
endfacet
facet normal 0.04843366724578591 -0.9957200642793148 -0.07871298157687764
  outer loop
    vertex 1.6176569999999602 3.5956919999999117 1.341973999999967
    vertex 1.6091259999999605 3.5962099999999118 1.330171999999967
    vertex 1.6139599999999605 3.596822999999912 1.325391999999967
  endloop
endfacet
facet normal 0.04147638120962455 -0.9961532014493335 -0.07719137933731696
  outer loop
    vertex 1.6176569999999602 3.5956919999999117 1.341973999999967
    vertex 1.6139599999999605 3.596822999999912 1.325391999999967
    vertex 1.62260099999996 3.5964759999999116 1.3345129999999672
  endloop
endfacet
facet normal 0.6378211958526694 -0.6076430188997606 -0.47323787222015096
  outer loop
    vertex 1.593648999999961 3.584267999999912 1.3454769999999667
    vertex 1.6046289999999608 3.583220999999912 1.3616199999999667
    vertex 1.5900339999999609 3.5776899999999126 1.3490509999999667
  endloop
endfacet
facet normal 0.3730756196468675 -0.8737912405993866 -0.3119350090594046
  outer loop
    vertex 1.6084149999999604 3.588804999999912 1.3558979999999667
    vertex 1.6033249999999606 3.593767999999912 1.3359079999999672
    vertex 1.6128029999999605 3.593039999999912 1.3492829999999667
  endloop
endfacet
facet normal 0.21955798500982887 -0.9547510385266317 -0.20061093103503133
  outer loop
    vertex 1.6128029999999605 3.593039999999912 1.3492829999999667
    vertex 1.6091259999999605 3.5962099999999118 1.330171999999967
    vertex 1.6176569999999602 3.5956919999999117 1.341973999999967
  endloop
endfacet
facet normal -0.13587020420927653 -0.988191525259394 0.07082935135692049
  outer loop
    vertex 1.62260099999996 3.5964759999999116 1.3345129999999672
    vertex 1.6149979999999602 3.596793999999912 1.3243649999999674
    vertex 1.6207329999999602 3.595598999999912 1.3186939999999676
  endloop
endfacet
facet normal -0.48523930943397586 -0.7161315725375953 0.5016955086453028
  outer loop
    vertex 1.6362999999999597 3.588402999999912 1.3136049999999677
    vertex 1.63111699999996 3.588285999999912 1.3084249999999678
    vertex 1.63543099999996 3.5823749999999115 1.304159999999968
  endloop
endfacet
facet normal -0.5087990974450536 -0.5590828271873252 0.6546372054682856
  outer loop
    vertex 1.6399799999999596 3.582563999999912 1.3078569999999679
    vertex 1.63543099999996 3.5823749999999115 1.304159999999968
    vertex 1.6388579999999597 3.575287999999912 1.300770999999968
  endloop
endfacet
facet normal 0.8045057156185581 -0.27103400800667893 -0.5284989309742334
  outer loop
    vertex 1.5873479999999611 3.5701899999999127 1.351706999999967
    vertex 1.5975799999999607 3.5602679999999123 1.3723709999999663
    vertex 1.585673999999961 3.561991999999912 1.3533629999999668
  endloop
endfacet
facet normal 0.05413189923758269 -0.9932550907195536 0.10253810142880364
  outer loop
    vertex 1.6578109999999593 3.598821999999912 1.3469079999999667
    vertex 1.6449369999999597 3.598050999999912 1.346235999999967
    vertex 1.6467219999999596 3.597168999999912 1.3367499999999672
  endloop
endfacet
facet normal 0.05135894482265496 -0.9568986733022896 0.28584469178038235
  outer loop
    vertex 1.6578109999999593 3.597920999999912 1.3372749999999671
    vertex 1.6467219999999596 3.597168999999912 1.3367499999999672
    vertex 1.6484399999999595 3.5945329999999123 1.3276169999999676
  endloop
endfacet
facet normal 0.1847973690023581 -0.8181846385042473 0.5444481882837712
  outer loop
    vertex 1.6578109999999593 3.590852999999912 1.3193969999999675
    vertex 1.6514209999999596 3.584227999999912 1.3116099999999677
    vertex 1.6578109999999593 3.589772999999912 1.3177739999999676
  endloop
endfacet
facet normal 0.07489584829892905 -0.7787061533189945 -0.6229023508469994
  outer loop
    vertex 1.6578109999999593 3.584581999999912 1.382251999999966
    vertex 1.63985199999996 3.5898819999999114 1.3734669999999662
    vertex 1.6578109999999593 3.590554999999912 1.3747849999999662
  endloop
endfacet
facet normal 0.04669324002275053 -0.638684792095248 0.7680504395431511
  outer loop
    vertex 1.6578109999999593 3.5848069999999117 1.3117029999999679
    vertex 1.6514209999999596 3.584227999999912 1.3116099999999677
    vertex 1.6525439999999594 3.5769059999999118 1.305452999999968
  endloop
endfacet
facet normal 0.05705855586835182 -0.9946249145155444 -0.08640370725359145
  outer loop
    vertex 1.6578109999999593 3.5978859999999115 1.3566369999999668
    vertex 1.64314999999996 3.5971199999999115 1.3557729999999666
    vertex 1.6449369999999597 3.598050999999912 1.346235999999967
  endloop
endfacet
facet normal 0.05756252426229132 -0.47918593956033967 0.875823835670295
  outer loop
    vertex 1.6578109999999593 3.5773869999999124 1.3053699999999677
    vertex 1.6525439999999594 3.5769059999999118 1.305452999999968
    vertex 1.6533759999999593 3.568665999999912 1.3008899999999681
  endloop
endfacet
facet normal 0.06298595032688716 -0.993677356857458 0.0929412746318609
  outer loop
    vertex 1.6578109999999593 3.598821999999912 1.3469079999999667
    vertex 1.6467219999999596 3.597168999999912 1.3367499999999672
    vertex 1.6578109999999593 3.597920999999912 1.3372749999999671
  endloop
endfacet
facet normal -0.025409458998145604 -0.3393246814517014 0.9403260710791354
  outer loop
    vertex 1.6578109999999593 3.559903999999912 1.297847999999968
    vertex 1.6533759999999593 3.568665999999912 1.3008899999999681
    vertex 1.6490639999999597 3.5681519999999125 1.300587999999968
  endloop
endfacet
facet normal -0.10064885987526212 -0.11501902315139836 0.9882511984911063
  outer loop
    vertex 1.6503469999999594 3.550323999999912 1.2968949999999682
    vertex 1.6500379999999595 3.559469999999912 1.297927999999968
    vertex 1.6425599999999596 3.5589939999999127 1.2971109999999682
  endloop
endfacet
facet normal 0.11465990355214813 -0.5837198883856227 -0.8038185108720055
  outer loop
    vertex 1.6578109999999593 3.577359999999912 1.3883709999999658
    vertex 1.6384719999999595 3.583997999999912 1.3807919999999663
    vertex 1.6578109999999593 3.579112999999912 1.387097999999966
  endloop
endfacet
facet normal 0.07092746497773389 -0.884024984707506 -0.46202718656452035
  outer loop
    vertex 1.6578109999999593 3.590554999999912 1.3747849999999662
    vertex 1.6414259999999599 3.5943329999999114 1.3650409999999664
    vertex 1.6578109999999593 3.5950679999999116 1.3661499999999664
  endloop
endfacet
facet normal 0.0644772191167496 -0.9933327091386693 -0.09556577405223449
  outer loop
    vertex 1.6578109999999593 3.5978859999999115 1.3566369999999668
    vertex 1.6449369999999597 3.598050999999912 1.346235999999967
    vertex 1.6578109999999593 3.598821999999912 1.3469079999999667
  endloop
endfacet
facet normal 0.04779817938610135 -0.8858138371959158 0.4615725077164168
  outer loop
    vertex 1.6578109999999593 3.5952449999999114 1.3280129999999677
    vertex 1.6484399999999595 3.5945329999999123 1.3276169999999676
    vertex 1.6500279999999596 3.590199999999912 1.3191369999999676
  endloop
endfacet
facet normal 0.06673736016134 -0.8873374629612996 -0.4562656590015295
  outer loop
    vertex 1.6578109999999593 3.590554999999912 1.3747849999999662
    vertex 1.63985199999996 3.5898819999999114 1.3734669999999662
    vertex 1.6414259999999599 3.5943329999999114 1.3650409999999664
  endloop
endfacet
facet normal 0.07055735374770528 -0.48395521940745867 0.872243661737017
  outer loop
    vertex 1.6578109999999593 3.5773869999999124 1.3053699999999677
    vertex 1.6533759999999593 3.568665999999912 1.3008899999999681
    vertex 1.6578109999999593 3.5690079999999123 1.300720999999968
  endloop
endfacet
facet normal 0.07098227660183311 -0.6535610324371942 -0.753537983971644
  outer loop
    vertex 1.6578109999999593 3.577359999999912 1.3883709999999658
    vertex 1.63731199999996 3.5768849999999115 1.3868519999999658
    vertex 1.6384719999999595 3.583997999999912 1.3807919999999663
  endloop
endfacet
facet normal -0.16475588161977844 -0.24566847379618884 0.9552499675238629
  outer loop
    vertex 1.6490639999999597 3.5681519999999125 1.300587999999968
    vertex 1.6450079999999594 3.5676719999999125 1.299764999999968
    vertex 1.6425599999999596 3.5589939999999127 1.2971109999999682
  endloop
endfacet
facet normal 0.016461145033020638 -0.11166760114610332 0.9936092680518217
  outer loop
    vertex 1.6578109999999593 3.559903999999912 1.297847999999968
    vertex 1.6500379999999595 3.559469999999912 1.297927999999968
    vertex 1.6503469999999594 3.550323999999912 1.2968949999999682
  endloop
endfacet
facet normal 0.004593679796250852 -0.02080025001960699 0.999773098110292
  outer loop
    vertex 1.6425599999999596 3.5589939999999127 1.2971109999999682
    vertex 1.6465529999999597 3.5503259999999126 1.2969119999999683
    vertex 1.6503469999999594 3.550323999999912 1.2968949999999682
  endloop
endfacet
facet normal 0.004593679796250852 -0.02080025001960699 0.999773098110292
  outer loop
    vertex 1.6465529999999597 3.5503259999999126 1.2969119999999683
    vertex 1.6425599999999596 3.5589939999999127 1.2971109999999682
    vertex 1.6427429999999594 3.550326999999913 1.2969299999999682
  endloop
endfacet
facet normal 0.05944123902637589 -0.3004137428872334 0.9519550000853467
  outer loop
    vertex 1.6578109999999593 3.5690079999999123 1.300720999999968
    vertex 1.6533759999999593 3.568665999999912 1.3008899999999681
    vertex 1.6578109999999593 3.559903999999912 1.297847999999968
  endloop
endfacet
facet normal 0.07580299567197293 -0.48466668564688525 -0.8714081188921861
  outer loop
    vertex 1.6578109999999593 3.5691019999999125 1.392963999999966
    vertex 1.63731199999996 3.5768849999999115 1.3868519999999658
    vertex 1.6578109999999593 3.577359999999912 1.3883709999999658
  endloop
endfacet
facet normal 0.004370529094796978 -0.10235979033275922 0.9947378407391896
  outer loop
    vertex 1.6578109999999593 3.559903999999912 1.297847999999968
    vertex 1.6503469999999594 3.550323999999912 1.2968949999999682
    vertex 1.6578109999999593 3.550321999999912 1.2968619999999682
  endloop
endfacet
facet normal 0.06668516699525594 -0.9566821518590315 -0.28339433448322093
  outer loop
    vertex 1.6578109999999593 3.5950679999999116 1.3661499999999664
    vertex 1.64314999999996 3.5971199999999115 1.3557729999999666
    vertex 1.6578109999999593 3.5978859999999115 1.3566369999999668
  endloop
endfacet
facet normal 0.059472582134081346 -0.8893488432944031 0.4533449535455447
  outer loop
    vertex 1.6578109999999593 3.5952449999999114 1.3280129999999677
    vertex 1.6500279999999596 3.590199999999912 1.3191369999999676
    vertex 1.6578109999999593 3.590852999999912 1.3193969999999675
  endloop
endfacet
facet normal 0.07109252453316145 -0.6475517618468014 0.7586979429816619
  outer loop
    vertex 1.6578109999999593 3.5848069999999117 1.3117029999999679
    vertex 1.6525439999999594 3.5769059999999118 1.305452999999968
    vertex 1.6578109999999593 3.5773869999999124 1.3053699999999677
  endloop
endfacet
facet normal 0.07630826706935402 -0.6612571199105471 -0.7462680950867996
  outer loop
    vertex 1.6578109999999593 3.579112999999912 1.387097999999966
    vertex 1.6384719999999595 3.583997999999912 1.3807919999999663
    vertex 1.6578109999999593 3.584581999999912 1.382251999999966
  endloop
endfacet
facet normal 0.07023124024297958 -0.7841145642868208 -0.6166294859696722
  outer loop
    vertex 1.6578109999999593 3.584581999999912 1.382251999999966
    vertex 1.6384719999999595 3.583997999999912 1.3807919999999663
    vertex 1.63985199999996 3.5898819999999114 1.3734669999999662
  endloop
endfacet
facet normal 0.06114934484231858 -0.9589077402700583 0.2770500013996132
  outer loop
    vertex 1.6578109999999593 3.597920999999912 1.3372749999999671
    vertex 1.6484399999999595 3.5945329999999123 1.3276169999999676
    vertex 1.6578109999999593 3.5952449999999114 1.3280129999999677
  endloop
endfacet
facet normal 0.04441335157064761 -0.778589249898566 0.6259602496522045
  outer loop
    vertex 1.6578109999999593 3.590852999999912 1.3193969999999675
    vertex 1.6500279999999596 3.590199999999912 1.3191369999999676
    vertex 1.6514209999999596 3.584227999999912 1.3116099999999677
  endloop
endfacet
facet normal 0.06080765980903102 -0.7725987978986351 0.631975890358274
  outer loop
    vertex 1.6578109999999593 3.589772999999912 1.3177739999999676
    vertex 1.6514209999999596 3.584227999999912 1.3116099999999677
    vertex 1.6578109999999593 3.5848069999999117 1.3117029999999679
  endloop
endfacet
facet normal 0.061755086500445144 -0.9589204618435543 -0.27687155352088316
  outer loop
    vertex 1.6578109999999593 3.5950679999999116 1.3661499999999664
    vertex 1.6414259999999599 3.5943329999999114 1.3650409999999664
    vertex 1.64314999999996 3.5971199999999115 1.3557729999999666
  endloop
endfacet
facet normal 0.5931672065798058 -0.3206208097724333 -0.7384815240608117
  outer loop
    vertex 1.6161629999999603 3.568402999999912 1.383789999999966
    vertex 1.6149929999999602 3.5596279999999125 1.386659999999966
    vertex 1.5991419999999608 3.568762999999912 1.3699619999999662
  endloop
endfacet
facet normal 0.16310555318622588 -0.9527715797852749 -0.2561696611101454
  outer loop
    vertex 1.6414259999999599 3.5943329999999114 1.3650409999999664
    vertex 1.62939899999996 3.596130999999912 1.3506959999999666
    vertex 1.64314999999996 3.5971199999999115 1.3557729999999666
  endloop
endfacet
facet normal 0.5424521698903532 -0.4901424400324928 -0.6822800245209013
  outer loop
    vertex 1.6179079999999602 3.576362999999912 1.379458999999966
    vertex 1.6161629999999603 3.568402999999912 1.383789999999966
    vertex 1.6015149999999607 3.576477999999912 1.3663429999999663
  endloop
endfacet
facet normal 0.5442678652286287 -0.48762373066526465 -0.6826386951906264
  outer loop
    vertex 1.6161629999999603 3.568402999999912 1.383789999999966
    vertex 1.5991419999999608 3.568762999999912 1.3699619999999662
    vertex 1.6015149999999607 3.576477999999912 1.3663429999999663
  endloop
endfacet
facet normal 0.2125284563060632 -0.8798526288790011 -0.42507764786550783
  outer loop
    vertex 1.63985199999996 3.5898819999999114 1.3734669999999662
    vertex 1.6259919999999597 3.5934079999999122 1.3592389999999668
    vertex 1.6414259999999599 3.5943329999999114 1.3650409999999664
  endloop
endfacet
facet normal 0.09461740678963666 -0.9935353850091422 -0.06272945932446969
  outer loop
    vertex 1.64314999999996 3.5971199999999115 1.3557729999999666
    vertex 1.62939899999996 3.596130999999912 1.3506959999999666
    vertex 1.63287399999996 3.5970129999999116 1.3419679999999672
  endloop
endfacet
facet normal 0.3410261826925869 -0.32343186670841617 -0.8826624328222153
  outer loop
    vertex 1.6363999999999599 3.568748999999913 1.391481999999966
    vertex 1.6357639999999598 3.559792999999913 1.3945179999999655
    vertex 1.6161629999999603 3.568402999999912 1.383789999999966
  endloop
endfacet
facet normal 0.39539533513010716 -0.7730127272425631 -0.4960986318045685
  outer loop
    vertex 1.62016699999996 3.583312999999912 1.3738219999999663
    vertex 1.6084149999999604 3.588804999999912 1.3558979999999667
    vertex 1.62288199999996 3.589059999999912 1.3670309999999666
  endloop
endfacet
facet normal 0.3208910303329832 -0.4953560284495281 -0.8072492500650259
  outer loop
    vertex 1.63731199999996 3.5768849999999115 1.3868519999999658
    vertex 1.6363999999999599 3.568748999999913 1.391481999999966
    vertex 1.6179079999999602 3.576362999999912 1.379458999999966
  endloop
endfacet
facet normal 0.20168387959351358 -0.9536050131250906 -0.22351977911318072
  outer loop
    vertex 1.6259919999999597 3.5934079999999122 1.3592389999999668
    vertex 1.6176569999999602 3.5956919999999117 1.341973999999967
    vertex 1.62939899999996 3.596130999999912 1.3506959999999666
  endloop
endfacet
facet normal 0.3140100486358288 -0.505950474912162 -0.8033752587003673
  outer loop
    vertex 1.6363999999999599 3.568748999999913 1.391481999999966
    vertex 1.6161629999999603 3.568402999999912 1.383789999999966
    vertex 1.6179079999999602 3.576362999999912 1.379458999999966
  endloop
endfacet
facet normal 0.3359638813127156 -0.3329594537445433 -0.8810597440670134
  outer loop
    vertex 1.6357639999999598 3.559792999999913 1.3945179999999655
    vertex 1.6149929999999602 3.5596279999999125 1.386659999999966
    vertex 1.6161629999999603 3.568402999999912 1.383789999999966
  endloop
endfacet
facet normal 0.2835006645132198 -0.6579812797388779 -0.6976302808320115
  outer loop
    vertex 1.63731199999996 3.5768849999999115 1.3868519999999658
    vertex 1.6179079999999602 3.576362999999912 1.379458999999966
    vertex 1.62016699999996 3.583312999999912 1.3738219999999663
  endloop
endfacet
facet normal 0.3935751499312012 -0.7744276152670441 -0.49533874274927425
  outer loop
    vertex 1.62016699999996 3.583312999999912 1.3738219999999663
    vertex 1.6046289999999608 3.583220999999912 1.3616199999999667
    vertex 1.6084149999999604 3.588804999999912 1.3558979999999667
  endloop
endfacet
facet normal 0.5942543700813727 -0.3186756895930833 -0.7384494217626307
  outer loop
    vertex 1.6149929999999602 3.5596279999999125 1.386659999999966
    vertex 1.5975799999999607 3.5602679999999123 1.3723709999999663
    vertex 1.5991419999999608 3.568762999999912 1.3699619999999662
  endloop
endfacet
facet normal 0.1922801664037546 -0.9565081111454081 -0.21936401464412572
  outer loop
    vertex 1.6259919999999597 3.5934079999999122 1.3592389999999668
    vertex 1.6128029999999605 3.593039999999912 1.3492829999999667
    vertex 1.6176569999999602 3.5956919999999117 1.341973999999967
  endloop
endfacet
facet normal 0.09680541274349035 -0.993380189337331 -0.06184263493489823
  outer loop
    vertex 1.62939899999996 3.596130999999912 1.3506959999999666
    vertex 1.62260099999996 3.5964759999999116 1.3345129999999672
    vertex 1.63287399999996 3.5970129999999116 1.3419679999999672
  endloop
endfacet
facet normal 0.14971447668408028 -0.9577488057696677 -0.2455662853854077
  outer loop
    vertex 1.6414259999999599 3.5943329999999114 1.3650409999999664
    vertex 1.6259919999999597 3.5934079999999122 1.3592389999999668
    vertex 1.62939899999996 3.596130999999912 1.3506959999999666
  endloop
endfacet
facet normal 0.07702073353938434 -0.9955888322722145 -0.05357876127630671
  outer loop
    vertex 1.62939899999996 3.596130999999912 1.3506959999999666
    vertex 1.6176569999999602 3.5956919999999117 1.341973999999967
    vertex 1.62260099999996 3.5964759999999116 1.3345129999999672
  endloop
endfacet
facet normal 0.20043972105713898 -0.8873885815922931 -0.4151691504461221
  outer loop
    vertex 1.63985199999996 3.5898819999999114 1.3734669999999662
    vertex 1.62288199999996 3.589059999999912 1.3670309999999666
    vertex 1.6259919999999597 3.5934079999999122 1.3592389999999668
  endloop
endfacet
facet normal 0.06701331883571653 -0.9922259154918642 0.10486633265712392
  outer loop
    vertex 1.6449369999999597 3.598050999999912 1.346235999999967
    vertex 1.6363049999999597 3.596103999999912 1.333329999999967
    vertex 1.6467219999999596 3.597168999999912 1.3367499999999672
  endloop
endfacet
facet normal 0.2977655776469157 -0.881379842957417 -0.3667495510521558
  outer loop
    vertex 1.62288199999996 3.589059999999912 1.3670309999999666
    vertex 1.6084149999999604 3.588804999999912 1.3558979999999667
    vertex 1.6128029999999605 3.593039999999912 1.3492829999999667
  endloop
endfacet
facet normal -0.08465934655592304 -0.3005590925205611 0.9499984352323646
  outer loop
    vertex 1.6500379999999595 3.559469999999912 1.297927999999968
    vertex 1.6490639999999597 3.5681519999999125 1.300587999999968
    vertex 1.6425599999999596 3.5589939999999127 1.2971109999999682
  endloop
endfacet
facet normal 0.47580358963330444 -0.6421488330058684 -0.6010456058913195
  outer loop
    vertex 1.6179079999999602 3.576362999999912 1.379458999999966
    vertex 1.6046289999999608 3.583220999999912 1.3616199999999667
    vertex 1.62016699999996 3.583312999999912 1.3738219999999663
  endloop
endfacet
facet normal 0.25593058739901126 -0.7766271005883328 -0.5756299862458144
  outer loop
    vertex 1.6384719999999595 3.583997999999912 1.3807919999999663
    vertex 1.62288199999996 3.589059999999912 1.3670309999999666
    vertex 1.63985199999996 3.5898819999999114 1.3734669999999662
  endloop
endfacet
facet normal 0.4766156981911077 -0.641289383308089 -0.6013197178657407
  outer loop
    vertex 1.6179079999999602 3.576362999999912 1.379458999999966
    vertex 1.6015149999999607 3.576477999999912 1.3663429999999663
    vertex 1.6046289999999608 3.583220999999912 1.3616199999999667
  endloop
endfacet
facet normal 0.24539360041971936 -0.7861698039500187 -0.5672028034400364
  outer loop
    vertex 1.6384719999999595 3.583997999999912 1.3807919999999663
    vertex 1.62016699999996 3.583312999999912 1.3738219999999663
    vertex 1.62288199999996 3.589059999999912 1.3670309999999666
  endloop
endfacet
facet normal 0.3032052264754767 -0.878500493018054 -0.3691930042741753
  outer loop
    vertex 1.62288199999996 3.589059999999912 1.3670309999999666
    vertex 1.6128029999999605 3.593039999999912 1.3492829999999667
    vertex 1.6259919999999597 3.5934079999999122 1.3592389999999668
  endloop
endfacet
facet normal 0.2922558506783826 -0.6473706829124841 -0.7039159869257687
  outer loop
    vertex 1.6384719999999595 3.583997999999912 1.3807919999999663
    vertex 1.63731199999996 3.5768849999999115 1.3868519999999658
    vertex 1.62016699999996 3.583312999999912 1.3738219999999663
  endloop
endfacet
facet normal 0.11205074540785222 -0.9908127947617449 -0.07572738071507142
  outer loop
    vertex 1.64314999999996 3.5971199999999115 1.3557729999999666
    vertex 1.63287399999996 3.5970129999999116 1.3419679999999672
    vertex 1.6449369999999597 3.598050999999912 1.346235999999967
  endloop
endfacet
facet normal 0.042446527829617275 -0.9917176049523111 0.12122080804408672
  outer loop
    vertex 1.6449369999999597 3.598050999999912 1.346235999999967
    vertex 1.63287399999996 3.5970129999999116 1.3419679999999672
    vertex 1.6363049999999597 3.596103999999912 1.333329999999967
  endloop
endfacet
facet normal 0.03229747542075095 -0.95864580418396 0.28276332011407485
  outer loop
    vertex 1.6467219999999596 3.597168999999912 1.3367499999999672
    vertex 1.6395879999999596 3.593471999999912 1.3250309999999674
    vertex 1.6484399999999595 3.5945329999999123 1.3276169999999676
  endloop
endfacet
facet normal -0.11972879643432723 -0.4791609098708671 0.8695227643691166
  outer loop
    vertex 1.6490639999999597 3.5681519999999125 1.300587999999968
    vertex 1.6474759999999595 3.576164999999912 1.304784999999968
    vertex 1.6450079999999594 3.5676719999999125 1.299764999999968
  endloop
endfacet
facet normal -0.8694957444709219 -0.48381279681528233 0.09951044158645726
  outer loop
    vertex 1.5891539999999609 3.6224319999999106 1.0951619999999729
    vertex 1.6386619999999597 3.5757869999999117 1.300964999999968
    vertex 1.63507799999996 3.582956999999912 1.304508999999968
  endloop
endfacet
facet normal -0.2413418976341696 -0.4408635832865768 0.8645191665764604
  outer loop
    vertex 1.6474759999999595 3.576164999999912 1.304784999999968
    vertex 1.6429119999999593 3.5755219999999124 1.303182999999968
    vertex 1.6450079999999594 3.5676719999999125 1.299764999999968
  endloop
endfacet
facet normal -0.6248958090089641 -0.7806407433914739 -0.010259514620066943
  outer loop
    vertex 1.63059599999996 3.588853999999912 1.308940999999968
    vertex 1.5774289999999613 3.634232999999911 1.0944219999999731
    vertex 1.583855999999961 3.629083999999911 1.094744999999973
  endloop
endfacet
facet normal -0.03228051189952466 -0.9927255940510518 0.11599079044256563
  outer loop
    vertex 1.63287399999996 3.5970129999999116 1.3419679999999672
    vertex 1.62260099999996 3.5964759999999116 1.3345129999999672
    vertex 1.62745799999996 3.595457999999912 1.3271519999999675
  endloop
endfacet
facet normal -0.003480767417148392 -0.4847095966287028 0.8746682177798779
  outer loop
    vertex 1.6533759999999593 3.568665999999912 1.3008899999999681
    vertex 1.6525439999999594 3.5769059999999118 1.305452999999968
    vertex 1.6490639999999597 3.5681519999999125 1.300587999999968
  endloop
endfacet
facet normal -0.13905832120700498 -0.9788259280253493 -0.15020847488874683
  outer loop
    vertex 1.6198569999999601 3.595896999999912 1.3195599999999676
    vertex 1.5618109999999619 3.638735999999911 1.0941389999999729
    vertex 1.5700299999999614 3.6375569999999104 1.0942129999999732
  endloop
endfacet
facet normal -0.08343196000099722 -0.9589243316632512 0.27111479892211554
  outer loop
    vertex 1.6363049999999597 3.596103999999912 1.333329999999967
    vertex 1.6320759999999601 3.592733999999912 1.3201089999999676
    vertex 1.6395879999999596 3.593471999999912 1.3250309999999674
  endloop
endfacet
facet normal -0.47728093459186527 -0.8769270354865458 -0.056585191595452874
  outer loop
    vertex 1.6198569999999601 3.595896999999912 1.3195599999999676
    vertex 1.5700299999999614 3.6375569999999104 1.0942129999999732
    vertex 1.62546199999996 3.5932039999999117 1.3140179999999675
  endloop
endfacet
facet normal -0.8871018043256577 -0.44780253887324906 0.11190743916663869
  outer loop
    vertex 1.5891539999999609 3.6224319999999106 1.0951619999999729
    vertex 1.593171999999961 3.6145949999999107 1.0956529999999733
    vertex 1.6386619999999597 3.5757869999999117 1.300964999999968
  endloop
endfacet
facet normal 0.00971123441986128 -0.8897066832783631 0.45642930411604493
  outer loop
    vertex 1.6484399999999595 3.5945329999999123 1.3276169999999676
    vertex 1.6426199999999596 3.5891869999999115 1.3173199999999676
    vertex 1.6500279999999596 3.590199999999912 1.3191369999999676
  endloop
endfacet
facet normal -0.40653843127059913 -0.9100266829024908 -0.08110450237520618
  outer loop
    vertex 1.62546199999996 3.5932039999999117 1.3140179999999675
    vertex 1.5700299999999614 3.6375569999999104 1.0942129999999732
    vertex 1.5774289999999613 3.634232999999911 1.0944219999999731
  endloop
endfacet
facet normal -0.05100726042118389 -0.7692970987974258 0.6368518141343316
  outer loop
    vertex 1.6500279999999596 3.590199999999912 1.3191369999999676
    vertex 1.6426199999999596 3.5891869999999115 1.3173199999999676
    vertex 1.6452989999999597 3.583317999999912 1.3104449999999677
  endloop
endfacet
facet normal -0.12846576461706788 -0.950375995981597 0.2833408081857248
  outer loop
    vertex 1.6363049999999597 3.596103999999912 1.333329999999967
    vertex 1.62745799999996 3.595457999999912 1.3271519999999675
    vertex 1.6320759999999601 3.592733999999912 1.3201089999999676
  endloop
endfacet
facet normal -0.001591008678097351 -0.9533904455519395 0.3017351935417219
  outer loop
    vertex 1.6467219999999596 3.597168999999912 1.3367499999999672
    vertex 1.6363049999999597 3.596103999999912 1.333329999999967
    vertex 1.6395879999999596 3.593471999999912 1.3250309999999674
  endloop
endfacet
facet normal -0.00036324313167980174 -0.9945235475557167 0.10451211131548037
  outer loop
    vertex 1.63287399999996 3.5970129999999116 1.3419679999999672
    vertex 1.62745799999996 3.595457999999912 1.3271519999999675
    vertex 1.6363049999999597 3.596103999999912 1.333329999999967
  endloop
endfacet
facet normal -0.1461322269884964 -0.8880018218250469 0.43600245030364215
  outer loop
    vertex 1.6395879999999596 3.593471999999912 1.3250309999999674
    vertex 1.6362999999999597 3.588402999999912 1.3136049999999677
    vertex 1.6426199999999596 3.5891869999999115 1.3173199999999676
  endloop
endfacet
facet normal -0.05388872042808031 -0.6296476758042258 0.7750095548862355
  outer loop
    vertex 1.6514209999999596 3.584227999999912 1.3116099999999677
    vertex 1.6452989999999597 3.583317999999912 1.3104449999999677
    vertex 1.6474759999999595 3.576164999999912 1.304784999999968
  endloop
endfacet
facet normal -0.04728219484660131 -0.47080033366607066 0.8809718723491713
  outer loop
    vertex 1.6525439999999594 3.5769059999999118 1.305452999999968
    vertex 1.6474759999999595 3.576164999999912 1.304784999999968
    vertex 1.6490639999999597 3.5681519999999125 1.300587999999968
  endloop
endfacet
facet normal -0.7761363151099218 -0.6284730621083341 0.0513228075203075
  outer loop
    vertex 1.583855999999961 3.629083999999911 1.094744999999973
    vertex 1.63507799999996 3.582956999999912 1.304508999999968
    vertex 1.63059599999996 3.588853999999912 1.308940999999968
  endloop
endfacet
facet normal -0.2597232090740534 -0.7556266600759601 0.6013087437005429
  outer loop
    vertex 1.6426199999999596 3.5891869999999115 1.3173199999999676
    vertex 1.6362999999999597 3.588402999999912 1.3136049999999677
    vertex 1.6399799999999596 3.582563999999912 1.3078569999999679
  endloop
endfacet
facet normal -0.0017708128209814292 -0.7835389123640393 0.6213401942843642
  outer loop
    vertex 1.6500279999999596 3.590199999999912 1.3191369999999676
    vertex 1.6452989999999597 3.583317999999912 1.3104449999999677
    vertex 1.6514209999999596 3.584227999999912 1.3116099999999677
  endloop
endfacet
facet normal -0.2065494201455511 -0.8709615950591948 0.445828708103774
  outer loop
    vertex 1.6395879999999596 3.593471999999912 1.3250309999999674
    vertex 1.6320759999999601 3.592733999999912 1.3201089999999676
    vertex 1.6362999999999597 3.588402999999912 1.3136049999999677
  endloop
endfacet
facet normal -0.17978075983701902 -0.7816628767474258 0.5972286208039286
  outer loop
    vertex 1.6426199999999596 3.5891869999999115 1.3173199999999676
    vertex 1.6399799999999596 3.582563999999912 1.3078569999999679
    vertex 1.6452989999999597 3.583317999999912 1.3104449999999677
  endloop
endfacet
facet normal -0.2633801088858593 -0.9579064177527036 -0.11422002044937721
  outer loop
    vertex 1.6139599999999605 3.596822999999912 1.325391999999967
    vertex 1.5618109999999619 3.638735999999911 1.0941389999999729
    vertex 1.6198569999999601 3.595896999999912 1.3195599999999676
  endloop
endfacet
facet normal -0.6469918757274267 -0.7624963081040391 -0.0009449182060929451
  outer loop
    vertex 1.62546199999996 3.5932039999999117 1.3140179999999675
    vertex 1.5774289999999613 3.634232999999911 1.0944219999999731
    vertex 1.63059599999996 3.588853999999912 1.308940999999968
  endloop
endfacet
facet normal -0.006627609586142056 -0.6441727110081379 0.7648513536521981
  outer loop
    vertex 1.6525439999999594 3.5769059999999118 1.305452999999968
    vertex 1.6514209999999596 3.584227999999912 1.3116099999999677
    vertex 1.6474759999999595 3.576164999999912 1.304784999999968
  endloop
endfacet
facet normal -0.7827165712972108 -0.6199609430531298 0.05480144254864625
  outer loop
    vertex 1.583855999999961 3.629083999999911 1.094744999999973
    vertex 1.5891539999999609 3.6224319999999106 1.0951619999999729
    vertex 1.63507799999996 3.582956999999912 1.304508999999968
  endloop
endfacet
facet normal -0.27572744049411546 -0.6086245898164416 0.7440097359775154
  outer loop
    vertex 1.6452989999999597 3.583317999999912 1.3104449999999677
    vertex 1.6399799999999596 3.582563999999912 1.3078569999999679
    vertex 1.6429119999999593 3.5755219999999124 1.303182999999968
  endloop
endfacet
facet normal -0.03349882834987959 -0.8791478501828883 0.47537026202528815
  outer loop
    vertex 1.6484399999999595 3.5945329999999123 1.3276169999999676
    vertex 1.6395879999999596 3.593471999999912 1.3250309999999674
    vertex 1.6426199999999596 3.5891869999999115 1.3173199999999676
  endloop
endfacet
facet normal -0.17146149077062348 -0.642888969297128 0.7465217547659223
  outer loop
    vertex 1.6474759999999595 3.576164999999912 1.304784999999968
    vertex 1.6452989999999597 3.583317999999912 1.3104449999999677
    vertex 1.6429119999999593 3.5755219999999124 1.303182999999968
  endloop
endfacet
facet normal 0.9753839193329146 -0.006348848043546322 -0.2204220996980169
  outer loop
    vertex 1.5272249999999625 3.6020029999999115 1.0964429999999734
    vertex 1.5850969999999613 3.553321999999912 1.3539329999999667
    vertex 1.5273339999999624 3.587779999999912 1.0973349999999729
  endloop
endfacet
facet normal 0.9694245422966188 -0.07806466469520101 -0.23264127948198896
  outer loop
    vertex 1.5272249999999625 3.6020029999999115 1.0964429999999734
    vertex 1.585648999999961 3.5618039999999125 1.3533869999999666
    vertex 1.5850969999999613 3.553321999999912 1.3539329999999667
  endloop
endfacet
facet normal -0.9659107287209392 -0.18395840861608312 0.1821421643695449
  outer loop
    vertex 1.5957209999999609 3.606071999999912 1.0961879999999729
    vertex 1.6425419999999595 3.559183999999913 1.2971269999999682
    vertex 1.6411639999999597 3.567769999999912 1.298490999999968
  endloop
endfacet
facet normal -0.9313589874901232 -0.33481545930899514 0.14307006894902646
  outer loop
    vertex 1.593171999999961 3.6145949999999107 1.0956529999999733
    vertex 1.6411639999999597 3.567769999999912 1.298490999999968
    vertex 1.6386619999999597 3.5757869999999117 1.300964999999968
  endloop
endfacet
facet normal 0.11115738553414092 -0.9731716327341133 -0.20144728561793707
  outer loop
    vertex 1.6139599999999605 3.596822999999912 1.325391999999967
    vertex 1.555105999999962 3.637959999999911 1.0941879999999728
    vertex 1.5618109999999619 3.638735999999911 1.0941389999999729
  endloop
endfacet
facet normal -0.9482684608142655 -0.27348096936220523 0.16122991540546194
  outer loop
    vertex 1.593171999999961 3.6145949999999107 1.0956529999999733
    vertex 1.5957209999999609 3.606071999999912 1.0961879999999729
    vertex 1.6411639999999597 3.567769999999912 1.298490999999968
  endloop
endfacet
facet normal -0.9699687165642998 0.05774390558495633 0.23627596207486
  outer loop
    vertex 1.5967759999999607 3.5973399999999116 1.0967349999999731
    vertex 1.596386999999961 3.5885469999999122 1.0972869999999728
    vertex 1.6427429999999594 3.550326999999913 1.2969299999999682
  endloop
endfacet
facet normal 0.971656585501748 0.12228972406825597 -0.20230843590516512
  outer loop
    vertex 1.5273339999999624 3.587779999999912 1.0973349999999729
    vertex 1.5850969999999613 3.553321999999912 1.3539329999999667
    vertex 1.5864819999999609 3.5400509999999135 1.3525629999999667
  endloop
endfacet
facet normal -0.9736654972825804 -0.10496033767735154 0.20238287209178987
  outer loop
    vertex 1.5957209999999609 3.606071999999912 1.0961879999999729
    vertex 1.5967759999999607 3.5973399999999116 1.0967349999999731
    vertex 1.6425419999999595 3.559183999999913 1.2971269999999682
  endloop
endfacet
facet normal -0.9756253769664809 -0.02610878049307632 0.21788404117827545
  outer loop
    vertex 1.6425599999999596 3.5589939999999127 1.2971109999999682
    vertex 1.5967759999999607 3.5973399999999116 1.0967349999999731
    vertex 1.6427429999999594 3.550326999999913 1.2969299999999682
  endloop
endfacet
facet normal -0.9756253769664809 -0.02610878049307632 0.21788404117827545
  outer loop
    vertex 1.5967759999999607 3.5973399999999116 1.0967349999999731
    vertex 1.6425599999999596 3.5589939999999127 1.2971109999999682
    vertex 1.6425419999999595 3.559183999999913 1.2971269999999682
  endloop
endfacet
facet normal -0.019214736483476335 -0.9851878768892228 -0.1703984774943018
  outer loop
    vertex 1.6082119999999605 3.595951999999912 1.331075999999967
    vertex 1.555105999999962 3.637959999999911 1.0941879999999728
    vertex 1.6139599999999605 3.596822999999912 1.325391999999967
  endloop
endfacet
facet normal 0.3231977411909874 -0.9166852898972647 -0.2350134025433683
  outer loop
    vertex 1.6082119999999605 3.595951999999912 1.331075999999967
    vertex 1.548918999999962 3.635742999999911 1.094326999999973
    vertex 1.555105999999962 3.637959999999911 1.0941879999999728
  endloop
endfacet
facet normal 0.9390464002761844 -0.2371929866765952 -0.24886009161731168
  outer loop
    vertex 1.5309649999999622 3.615833999999912 1.0955759999999732
    vertex 1.585673999999961 3.561991999999912 1.3533629999999668
    vertex 1.585648999999961 3.5618039999999125 1.3533869999999666
  endloop
endfacet
facet normal 0.9390464002761844 -0.2371929866765952 -0.24886009161731168
  outer loop
    vertex 1.585673999999961 3.561991999999912 1.3533629999999668
    vertex 1.5309649999999622 3.615833999999912 1.0955759999999732
    vertex 1.5872509999999609 3.5698389999999125 1.3518029999999672
  endloop
endfacet
facet normal 0.5048095563966424 -0.8243480501716426 -0.2561593331284963
  outer loop
    vertex 1.6025879999999604 3.593312999999912 1.336635999999967
    vertex 1.5433309999999623 3.6322529999999107 1.0945459999999732
    vertex 1.548918999999962 3.635742999999911 1.094326999999973
  endloop
endfacet
facet normal 0.9297508537292801 -0.2672845948762111 -0.2532238048279321
  outer loop
    vertex 1.5309649999999622 3.615833999999912 1.0955759999999732
    vertex 1.585648999999961 3.5618039999999125 1.3533869999999666
    vertex 1.5272249999999625 3.6020029999999115 1.0964429999999734
  endloop
endfacet
facet normal 0.807418198841521 -0.5259028659580016 -0.2673986308055342
  outer loop
    vertex 1.5384219999999622 3.627659999999911 1.0948339999999734
    vertex 1.589824999999961 3.577215999999912 1.349256999999967
    vertex 1.5309649999999622 3.615833999999912 1.0955759999999732
  endloop
endfacet
facet normal 0.7840333202466281 -0.5592633928948626 -0.26928834009435865
  outer loop
    vertex 1.5384219999999622 3.627659999999911 1.0948339999999734
    vertex 1.5932919999999609 3.5837269999999117 1.345828999999967
    vertex 1.589824999999961 3.577215999999912 1.349256999999967
  endloop
endfacet
facet normal 0.2304322926422765 -0.9485529098096028 -0.21713667538985598
  outer loop
    vertex 1.6025879999999604 3.593312999999912 1.336635999999967
    vertex 1.548918999999962 3.635742999999911 1.094326999999973
    vertex 1.6082119999999605 3.595951999999912 1.331075999999967
  endloop
endfacet
facet normal 0.8785494756896142 -0.3977974570896857 -0.2644012138748302
  outer loop
    vertex 1.5309649999999622 3.615833999999912 1.0955759999999732
    vertex 1.589824999999961 3.577215999999912 1.349256999999967
    vertex 1.5872509999999609 3.5698389999999125 1.3518029999999672
  endloop
endfacet
facet normal 0.45900721200601546 -0.8526779158679589 -0.2495050122092518
  outer loop
    vertex 1.5975729999999606 3.5891619999999116 1.3415959999999671
    vertex 1.5433309999999623 3.6322529999999107 1.0945459999999732
    vertex 1.6025879999999604 3.593312999999912 1.336635999999967
  endloop
endfacet
facet normal 0.6454236070447332 -0.7158636461636729 -0.26639746164447153
  outer loop
    vertex 1.5932919999999609 3.5837269999999117 1.345828999999967
    vertex 1.5384219999999622 3.627659999999911 1.0948339999999734
    vertex 1.5975729999999606 3.5891619999999116 1.3415959999999671
  endloop
endfacet
facet normal 0.6500498738868216 -0.7115046422993389 -0.26682635822987444
  outer loop
    vertex 1.5975729999999606 3.5891619999999116 1.3415959999999671
    vertex 1.5384219999999622 3.627659999999911 1.0948339999999734
    vertex 1.5433309999999623 3.6322529999999107 1.0945459999999732
  endloop
endfacet
facet normal 1.0 0.0 0.0
  outer loop
    vertex 1.6578109999999593 3.550321999999912 1.2968619999999682
    vertex 1.6578109999999593 3.550321999999912 1.3968619999999656
    vertex 1.6578109999999593 3.5407962723021886 1.3952832539428617
  endloop
endfacet
facet normal 1.0 0.0 0.0
  outer loop
    vertex 1.6578109999999593 3.550321999999912 1.3968619999999656
    vertex 1.6578109999999593 3.550321999999912 1.2968619999999682
    vertex 1.6578109999999593 3.5617699999999126 1.298274999999968
  endloop
endfacet
facet normal 1.0 0.0 0.0
  outer loop
    vertex 1.6578109999999593 3.550321999999912 1.3968619999999656
    vertex 1.6578109999999593 3.5617699999999126 1.298274999999968
    vertex 1.6578109999999593 3.5656859999999124 1.3942899999999658
  endloop
endfacet
facet normal 1.0 0.0 0.0
  outer loop
    vertex 1.6578109999999593 3.5656859999999124 1.3942899999999658
    vertex 1.6578109999999593 3.5617699999999126 1.298274999999968
    vertex 1.6578109999999593 3.572459999999912 1.302372999999968
  endloop
endfacet
facet normal 1.0 0.0 0.0
  outer loop
    vertex 1.6578109999999593 3.5656859999999124 1.3942899999999658
    vertex 1.6578109999999593 3.572459999999912 1.302372999999968
    vertex 1.6578109999999593 3.579112999999912 1.387097999999966
  endloop
endfacet
facet normal 1.0 0.0 0.0
  outer loop
    vertex 1.6578109999999593 3.579112999999912 1.387097999999966
    vertex 1.6578109999999593 3.572459999999912 1.302372999999968
    vertex 1.6578109999999593 3.581959999999912 1.308965999999968
  endloop
endfacet
facet normal 1.0 0.0 0.0
  outer loop
    vertex 1.6578109999999593 3.579112999999912 1.387097999999966
    vertex 1.6578109999999593 3.581959999999912 1.308965999999968
    vertex 1.6578109999999593 3.586044999999912 1.380679999999966
  endloop
endfacet
facet normal 1.0 0.0 0.0
  outer loop
    vertex 1.6578109999999593 3.586044999999912 1.380679999999966
    vertex 1.6578109999999593 3.581959999999912 1.308965999999968
    vertex 1.6578109999999593 3.589772999999912 1.3177739999999676
  endloop
endfacet
facet normal 1.0 0.0 0.0
  outer loop
    vertex 1.6578109999999593 3.586044999999912 1.380679999999966
    vertex 1.6578109999999593 3.589772999999912 1.3177739999999676
    vertex 1.6578109999999593 3.5916899999999115 1.3729649999999662
  endloop
endfacet
facet normal 1.0 0.0 0.0
  outer loop
    vertex 1.6578109999999593 3.5916899999999115 1.3729649999999662
    vertex 1.6578109999999593 3.589772999999912 1.3177739999999676
    vertex 1.6578109999999593 3.594486999999912 1.3261949999999676
  endloop
endfacet
facet normal 1.0 0.0 0.0
  outer loop
    vertex 1.6578109999999593 3.5916899999999115 1.3729649999999662
    vertex 1.6578109999999593 3.594486999999912 1.3261949999999676
    vertex 1.6578109999999593 3.5958389999999114 1.3641279999999667
  endloop
endfacet
facet normal 1.0 0.0 0.0
  outer loop
    vertex 1.6578109999999593 3.5958389999999114 1.3641279999999667
    vertex 1.6578109999999593 3.594486999999912 1.3261949999999676
    vertex 1.6578109999999593 3.597509999999912 1.335313999999967
  endloop
endfacet
facet normal 1.0 0.0 0.0
  outer loop
    vertex 1.6578109999999593 3.5958389999999114 1.3641279999999667
    vertex 1.6578109999999593 3.597509999999912 1.335313999999967
    vertex 1.6578109999999593 3.5982449999999115 1.3545539999999667
  endloop
endfacet
facet normal 1.0 0.0 0.0
  outer loop
    vertex 1.6578109999999593 3.5982449999999115 1.3545539999999667
    vertex 1.6578109999999593 3.597509999999912 1.335313999999967
    vertex 1.6578109999999593 3.5987819999999116 1.3448579999999672
  endloop
endfacet
facet normal -2.657060057682837e-06 -0.06258967669861276 -0.9980393440960648
  outer loop
    vertex 1.5309649999999622 3.615833999999912 1.0955759999999732
    vertex 1.5273339999999624 3.587779999999912 1.0973349999999729
    vertex 1.5272249999999625 3.6020029999999115 1.0964429999999734
  endloop
endfacet
facet normal -2.657060057682837e-06 -0.06258967669861276 -0.9980393440960648
  outer loop
    vertex 1.5273339999999624 3.587779999999912 1.0973349999999729
    vertex 1.5309649999999622 3.615833999999912 1.0955759999999732
    vertex 1.5956496282795922 3.5885388027902168 1.0972874022935046
  endloop
endfacet
facet normal -2.657060057682837e-06 -0.06258967669861276 -0.9980393440960648
  outer loop
    vertex 1.5956496282795922 3.5885388027902168 1.0972874022935046
    vertex 1.5309649999999622 3.615833999999912 1.0955759999999732
    vertex 1.5384219999999622 3.627659999999911 1.0948339999999734
  endloop
endfacet
facet normal -2.657060057682837e-06 -0.06258967669861276 -0.9980393440960648
  outer loop
    vertex 1.5956496282795922 3.5885388027902168 1.0972874022935046
    vertex 1.5384219999999622 3.627659999999911 1.0948339999999734
    vertex 1.5433309999999623 3.6322529999999107 1.0945459999999732
  endloop
endfacet
facet normal -2.657060057682837e-06 -0.06258967669861276 -0.9980393440960648
  outer loop
    vertex 1.5956496282795922 3.5885388027902168 1.0972874022935046
    vertex 1.5433309999999623 3.6322529999999107 1.0945459999999732
    vertex 1.548918999999962 3.635742999999911 1.094326999999973
  endloop
endfacet
facet normal -2.657060057682837e-06 -0.06258967669861276 -0.9980393440960648
  outer loop
    vertex 1.5956496282795922 3.5885388027902168 1.0972874022935046
    vertex 1.548918999999962 3.635742999999911 1.094326999999973
    vertex 1.555105999999962 3.637959999999911 1.0941879999999728
  endloop
endfacet
facet normal -2.657060057682837e-06 -0.06258967669861276 -0.9980393440960648
  outer loop
    vertex 1.5956496282795922 3.5885388027902168 1.0972874022935046
    vertex 1.555105999999962 3.637959999999911 1.0941879999999728
    vertex 1.5618109999999619 3.638735999999911 1.0941389999999729
  endloop
endfacet
facet normal -2.657060057682837e-06 -0.06258967669861276 -0.9980393440960648
  outer loop
    vertex 1.5956496282795922 3.5885388027902168 1.0972874022935046
    vertex 1.5618109999999619 3.638735999999911 1.0941389999999729
    vertex 1.5700299999999614 3.6375569999999104 1.0942129999999732
  endloop
endfacet
facet normal -2.657060057682837e-06 -0.06258967669861276 -0.9980393440960648
  outer loop
    vertex 1.5956496282795922 3.5885388027902168 1.0972874022935046
    vertex 1.5700299999999614 3.6375569999999104 1.0942129999999732
    vertex 1.5774289999999613 3.634232999999911 1.0944219999999731
  endloop
endfacet
facet normal -2.657060057682837e-06 -0.06258967669861276 -0.9980393440960648
  outer loop
    vertex 1.5956496282795922 3.5885388027902168 1.0972874022935046
    vertex 1.5774289999999613 3.634232999999911 1.0944219999999731
    vertex 1.583855999999961 3.629083999999911 1.094744999999973
  endloop
endfacet
facet normal -2.657060057682837e-06 -0.06258967669861276 -0.9980393440960648
  outer loop
    vertex 1.5956496282795922 3.5885388027902168 1.0972874022935046
    vertex 1.583855999999961 3.629083999999911 1.094744999999973
    vertex 1.5891539999999609 3.6224319999999106 1.0951619999999729
  endloop
endfacet
facet normal -2.657060057682837e-06 -0.06258967669861276 -0.9980393440960648
  outer loop
    vertex 1.5956496282795922 3.5885388027902168 1.0972874022935046
    vertex 1.5891539999999609 3.6224319999999106 1.0951619999999729
    vertex 1.593171999999961 3.6145949999999107 1.0956529999999733
  endloop
endfacet
facet normal -2.657060057682837e-06 -0.06258967669861276 -0.9980393440960648
  outer loop
    vertex 1.5956496282795922 3.5885388027902168 1.0972874022935046
    vertex 1.593171999999961 3.6145949999999107 1.0956529999999733
    vertex 1.5967759999999607 3.5973399999999116 1.0967349999999731
  endloop
endfacet
facet normal -0.0001520791639125295 0.06266057258238043 0.9980348839171787
  outer loop
    vertex 1.5967759999999607 3.5973399999999116 1.0967349999999731
    vertex 1.5956496282795922 3.5885388027902168 1.0972874022935046
    vertex 1.596386999999961 3.5885469999999122 1.0972869999999728
  endloop
endfacet
facet normal -0.0 -0.0 1.0
  outer loop
    vertex 1.9316511349201255 3.5456572804251993 0.09160160999999775
    vertex 1.9317849999999526 3.5543619999999123 0.09160160999999775
    vertex 1.9316097149829385 3.5543096094468236 0.09160160999999775
  endloop
endfacet
facet normal -0.0 -0.0 1.0
  outer loop
    vertex 1.9317849999999526 3.5543619999999123 0.09160160999999775
    vertex 1.9316511349201255 3.5456572804251993 0.09160160999999775
    vertex 1.9318179999999525 3.5469149999999128 0.09160160999999775
  endloop
endfacet
facet normal 0.00039966389249343915 -0.9953488769121319 -0.09633511041427611
  outer loop
    vertex 1.6578109999999593 3.5407962723021886 1.3952832539428617
    vertex 1.6356819999999601 3.5408569999999133 1.3945639999999655
    vertex 1.6578109999999593 3.550321999999912 1.2968619999999682
  endloop
endfacet
facet normal 0.00039966389249343915 -0.9953488769121319 -0.09633511041427611
  outer loop
    vertex 1.6356819999999601 3.5408569999999133 1.3945639999999655
    vertex 1.6578109999999593 3.5407962723021886 1.3952832539428617
    vertex 1.6578109999999593 3.5407389999999124 1.3958749999999658
  endloop
endfacet
facet normal 0.01431494198531237 -0.9955442799972316 -0.09320230147775975
  outer loop
    vertex 1.6356819999999601 3.5408569999999133 1.3945639999999655
    vertex 1.6148769999999601 3.5412979999999132 1.386657999999966
    vertex 1.6578109999999593 3.550321999999912 1.2968619999999682
  endloop
endfacet
facet normal -0.001158308851961264 -0.9831551682522364 -0.18276918082521526
  outer loop
    vertex 1.5864819999999609 3.5400509999999135 1.3525629999999667
    vertex 1.6503469999999594 3.550323999999912 1.2968949999999682
    vertex 1.6578109999999593 3.550321999999912 1.2968619999999682
  endloop
endfacet
facet normal -0.001158308851961264 -0.9831551682522364 -0.18276918082521526
  outer loop
    vertex 1.6503469999999594 3.550323999999912 1.2968949999999682
    vertex 1.5864819999999609 3.5400509999999135 1.3525629999999667
    vertex 1.6465529999999597 3.5503259999999126 1.2969119999999683
  endloop
endfacet
facet normal -0.001158308851961264 -0.9831551682522364 -0.18276918082521526
  outer loop
    vertex 1.6465529999999597 3.5503259999999126 1.2969119999999683
    vertex 1.5864819999999609 3.5400509999999135 1.3525629999999667
    vertex 1.6427429999999594 3.550326999999913 1.2969299999999682
  endloop
endfacet
facet normal 0.001993889567710339 -0.9950807820074336 -0.09904676513580013
  outer loop
    vertex 1.6148769999999601 3.5412979999999132 1.386657999999966
    vertex 1.5974499999999607 3.542675999999913 1.3724629999999662
    vertex 1.6578109999999593 3.550321999999912 1.2968619999999682
  endloop
endfacet
facet normal 0.17005157928514708 -0.9847709244122108 0.036175776632262256
  outer loop
    vertex 1.5974499999999607 3.542675999999913 1.3724629999999662
    vertex 1.5864819999999609 3.5400509999999135 1.3525629999999667
    vertex 1.6578109999999593 3.550321999999912 1.2968619999999682
  endloop
endfacet
facet normal -0.0018148317789269935 -0.9830344363020025 -0.18341211364034438
  outer loop
    vertex 1.5864819999999609 3.5400509999999135 1.3525629999999667
    vertex 1.5273339999999624 3.587779999999912 1.0973349999999729
    vertex 1.6427429999999594 3.550326999999913 1.2969299999999682
  endloop
endfacet
facet normal 0.010770931878633825 -0.9816420505467608 -0.19042812718928046
  outer loop
    vertex 1.6427429999999594 3.550326999999913 1.2969299999999682
    vertex 1.5956496282795922 3.5885388027902168 1.0972874022935046
    vertex 1.596386999999961 3.5885469999999122 1.0972869999999728
  endloop
endfacet
facet normal 0.010770931878633825 -0.9816420505467608 -0.19042812718928046
  outer loop
    vertex 1.5956496282795922 3.5885388027902168 1.0972874022935046
    vertex 1.6427429999999594 3.550326999999913 1.2969299999999682
    vertex 1.5273339999999624 3.587779999999912 1.0973349999999729
  endloop
endfacet
endsolid 2015new_separate_human-HUTA
