solid Object01
facet normal -0.3764239396415042 0.9231001800871217 0.07868338571701736
  outer loop
    vertex 1.9952529999999506 3.5120979999999133 1.3345019999999674
    vertex 2.0501769999999504 3.554532999999913 1.099419999999973
    vertex 1.9888449999999511 3.5100249999999145 1.3281659999999675
  endloop
endfacet
facet normal 0.7976791491873589 0.5271836020942633 0.2928914895223977
  outer loop
    vertex 2.008734999999951 3.571868999999912 1.098332999999973
    vertex 1.961004999999952 3.5316939999999133 1.300635999999968
    vertex 1.9648039999999516 3.5238589999999133 1.304391999999968
  endloop
endfacet
facet normal 0.4214306325866187 0.8658372688041078 0.2696702539537603
  outer loop
    vertex 1.9755809999999514 3.5127769999999137 1.3150489999999675
    vertex 2.0195209999999504 3.5586289999999123 1.0991629999999728
    vertex 1.9697069999999517 3.5174449999999133 1.309240999999968
  endloop
endfacet
facet normal 0.15416395327842056 0.9627249705966628 0.22224784925668858
  outer loop
    vertex 1.9821869999999515 3.5102109999999134 1.3215819999999676
    vertex 2.02653699999995 3.5543939999999123 1.0994279999999732
    vertex 1.9755809999999514 3.5127769999999137 1.3150489999999675
  endloop
endfacet
facet normal 0.791526089353535 0.5359748725362657 0.29362797190055556
  outer loop
    vertex 2.008734999999951 3.571868999999912 1.098332999999973
    vertex 1.9648039999999516 3.5238589999999133 1.304391999999968
    vertex 2.0135149999999506 3.564558999999912 1.098790999999973
  endloop
endfacet
facet normal 0.4891554905861014 0.8275981452936797 0.27533291836598844
  outer loop
    vertex 1.9755809999999514 3.5127769999999137 1.3150489999999675
    vertex 2.02653699999995 3.5543939999999123 1.0994279999999732
    vertex 2.0195209999999504 3.5586289999999123 1.0991629999999728
  endloop
endfacet
facet normal 0.6626756880341111 0.689505586732959 0.29230630912205013
  outer loop
    vertex 1.9697069999999517 3.5174449999999133 1.309240999999968
    vertex 2.0195209999999504 3.5586289999999123 1.0991629999999728
    vertex 2.0135149999999506 3.564558999999912 1.098790999999973
  endloop
endfacet
facet normal -0.008623782585272187 0.9829375059990851 0.18373755651532017
  outer loop
    vertex 1.9821869999999515 3.5102109999999134 1.3215819999999676
    vertex 2.0425569999999498 3.552241999999912 1.099562999999973
    vertex 2.03434299999995 3.552168999999912 1.0995679999999732
  endloop
endfacet
facet normal -0.504517739822571 0.8625721722469429 0.037829854209534906
  outer loop
    vertex 1.9952529999999506 3.5120979999999133 1.3345019999999674
    vertex 2.05612399999995 3.558020999999912 1.099200999999973
    vertex 2.0501769999999504 3.554532999999913 1.099419999999973
  endloop
endfacet
facet normal -0.2843275576680051 0.9524997146034518 0.10909690018919088
  outer loop
    vertex 1.9888449999999511 3.5100249999999145 1.3281659999999675
    vertex 2.0501769999999504 3.554532999999913 1.099419999999973
    vertex 2.0425569999999498 3.552241999999912 1.099562999999973
  endloop
endfacet
facet normal 0.8999003423072984 0.3365686130061383 0.27731019212126284
  outer loop
    vertex 2.005446999999951 3.579969999999912 1.097824999999973
    vertex 1.9584449999999518 3.5406249999999133 1.298103999999968
    vertex 1.961004999999952 3.5316939999999133 1.300635999999968
  endloop
endfacet
facet normal 0.9568444927163063 0.14746513080335166 0.2504049759002903
  outer loop
    vertex 2.003612999999951 3.5885469999999122 1.0972869999999728
    vertex 1.9572569999999516 3.550326999999913 1.2969299999999682
    vertex 1.9584449999999518 3.5406249999999133 1.298103999999968
  endloop
endfacet
facet normal 0.6402308361185918 0.710393638314204 0.2923103746458496
  outer loop
    vertex 1.9697069999999517 3.5174449999999133 1.309240999999968
    vertex 2.0135149999999506 3.564558999999912 1.098790999999973
    vertex 1.9648039999999516 3.5238589999999133 1.304391999999968
  endloop
endfacet
facet normal 0.26226405812579295 0.9351011605621237 0.23833460372081977
  outer loop
    vertex 1.9821869999999515 3.5102109999999134 1.3215819999999676
    vertex 2.03434299999995 3.552168999999912 1.0995679999999732
    vertex 2.02653699999995 3.5543939999999123 1.0994279999999732
  endloop
endfacet
facet normal -0.12309287058415311 0.9806575968695022 0.15218023167772526
  outer loop
    vertex 1.9888449999999511 3.5100249999999145 1.3281659999999675
    vertex 2.0425569999999498 3.552241999999912 1.099562999999973
    vertex 1.9821869999999515 3.5102109999999134 1.3215819999999676
  endloop
endfacet
facet normal 0.9398790854050801 0.21748782685434243 0.2632989745294994
  outer loop
    vertex 2.003612999999951 3.5885469999999122 1.0972869999999728
    vertex 1.9584449999999518 3.5406249999999133 1.298103999999968
    vertex 2.005446999999951 3.579969999999912 1.097824999999973
  endloop
endfacet
facet normal 0.8824394290769397 0.3758975958264345 0.2828456318599799
  outer loop
    vertex 2.005446999999951 3.579969999999912 1.097824999999973
    vertex 1.961004999999952 3.5316939999999133 1.300635999999968
    vertex 2.008734999999951 3.571868999999912 1.098332999999973
  endloop
endfacet
facet normal -0.9495250309665202 0.2630115045705352 -0.17095953916518436
  outer loop
    vertex 2.072659999999949 3.587669999999912 1.097341999999973
    vertex 2.0687929999999493 3.5742559999999126 1.0981829999999728
    vertex 2.01351799999995 3.5400509999999135 1.3525629999999667
  endloop
endfacet
facet normal -0.8373620129992382 0.5376206295994281 -0.09893896004597148
  outer loop
    vertex 2.0687929999999493 3.5742559999999126 1.0981829999999728
    vertex 2.0612229999999494 3.562599999999913 1.0989139999999729
    vertex 2.00951499999995 3.528013999999913 1.348604999999967
  endloop
endfacet
facet normal -0.6687091972532407 0.7431277481792217 -0.02427260585527758
  outer loop
    vertex 2.00317299999995 3.518313999999914 1.3423329999999671
    vertex 2.0612229999999494 3.562599999999913 1.0989139999999729
    vertex 2.05612399999995 3.558020999999912 1.099200999999973
  endloop
endfacet
facet normal -0.8073666106401218 0.5836983205129812 -0.0863448125471771
  outer loop
    vertex 2.0612229999999494 3.562599999999913 1.0989139999999729
    vertex 2.00317299999995 3.518313999999914 1.3423329999999671
    vertex 2.00951499999995 3.528013999999913 1.348604999999967
  endloop
endfacet
facet normal -0.9217445370095294 0.35662433544158356 -0.15233545832778847
  outer loop
    vertex 2.0687929999999493 3.5742559999999126 1.0981829999999728
    vertex 2.00951499999995 3.528013999999913 1.348604999999967
    vertex 2.01351799999995 3.5400509999999135 1.3525629999999667
  endloop
endfacet
facet normal -0.6143632650161294 0.7890078178531552 -0.004943881604953169
  outer loop
    vertex 2.00317299999995 3.518313999999914 1.3423329999999671
    vertex 2.05612399999995 3.558020999999912 1.099200999999973
    vertex 1.9952529999999506 3.5120979999999133 1.3345019999999674
  endloop
endfacet
facet normal -0.7787206388809406 0.2914684563481254 -0.5555540527571559
  outer loop
    vertex 2.0025499999999505 3.542675999999913 1.3724629999999662
    vertex 2.00775499999995 3.535771999999913 1.3615449999999667
    vertex 2.001110999999951 3.534578999999913 1.3702319999999661
  endloop
endfacet
facet normal -0.35297843281350205 0.9292668335613017 -0.10894667508224422
  outer loop
    vertex 1.9881039999999517 3.5108889999999136 1.3500649999999668
    vertex 1.9935259999999508 3.5122369999999132 1.343995999999967
    vertex 1.983624999999951 3.508381999999915 1.3431929999999672
  endloop
endfacet
facet normal -0.20496707025952085 0.4706190905290304 0.8581993776150486
  outer loop
    vertex 1.9479969999999525 3.523891999999914 1.306012999999968
    vertex 1.947048999999952 3.5319239999999135 1.301381999999968
    vertex 1.9449199999999525 3.526694999999913 1.303740999999968
  endloop
endfacet
facet normal -0.09225847255732718 0.9926141121513586 -0.0787756218595498
  outer loop
    vertex 1.9572039999999518 3.5039099999999146 1.3558569999999668
    vertex 1.9554939999999519 3.503002999999915 1.3464309999999668
    vertex 1.9421889999999522 3.5018219999999136 1.3471319999999667
  endloop
endfacet
facet normal -0.7496133921252341 0.5719439653619476 -0.3331063836562599
  outer loop
    vertex 2.00535299999995 3.5283639999999132 1.3585719999999666
    vertex 2.00951499999995 3.528013999999913 1.348604999999967
    vertex 2.002086999999951 3.521733999999913 1.3545379999999667
  endloop
endfacet
facet normal -0.782091376225284 0.5190740144379778 -0.3448119005621519
  outer loop
    vertex 2.0090619999999504 3.5317329999999134 1.3552309999999668
    vertex 2.00951499999995 3.528013999999913 1.348604999999967
    vertex 2.00535299999995 3.5283639999999132 1.3585719999999666
  endloop
endfacet
facet normal -0.7322060921181974 0.6361069779382345 -0.24339710615223903
  outer loop
    vertex 2.00951499999995 3.528013999999913 1.348604999999967
    vertex 2.00317299999995 3.518313999999914 1.3423329999999671
    vertex 2.002086999999951 3.521733999999913 1.3545379999999667
  endloop
endfacet
facet normal -0.06949906214419702 0.33799689566908964 -0.9385776360425043
  outer loop
    vertex 1.9637309999999517 3.5320069999999135 1.3916269999999658
    vertex 1.9527819999999518 3.526639999999913 1.390504999999966
    vertex 1.9421889999999522 3.5350639999999136 1.3943229999999658
  endloop
endfacet
facet normal -0.026399090215959972 0.32517492250191415 0.9452853314273123
  outer loop
    vertex 1.951690999999952 3.5326089999999133 1.3012759999999681
    vertex 1.9503899999999517 3.541142999999913 1.298303999999968
    vertex 1.947048999999952 3.5319239999999135 1.301381999999968
  endloop
endfacet
facet normal -0.8613347449246052 0.12808836116479866 -0.4916257000196201
  outer loop
    vertex 2.0025499999999505 3.542675999999913 1.3724629999999662
    vertex 2.01351799999995 3.5400509999999135 1.3525629999999667
    vertex 2.00775499999995 3.535771999999913 1.3615449999999667
  endloop
endfacet
facet normal -0.8813480128027117 0.38373330711804815 -0.2756345938683257
  outer loop
    vertex 2.01351799999995 3.5400509999999135 1.3525629999999667
    vertex 2.00951499999995 3.528013999999913 1.348604999999967
    vertex 2.0090619999999504 3.5317329999999134 1.3552309999999668
  endloop
endfacet
facet normal -0.1571664564513072 0.49881502214722584 -0.8523392978425915
  outer loop
    vertex 1.9637309999999517 3.5320069999999135 1.3916269999999658
    vertex 1.9628669999999517 3.5238899999999136 1.387035999999966
    vertex 1.9527819999999518 3.526639999999913 1.390504999999966
  endloop
endfacet
facet normal -0.011898338327075637 0.9431624916712599 0.3321188700593737
  outer loop
    vertex 1.9741999999999513 3.508204999999913 1.3287749999999672
    vertex 1.9729589999999515 3.5116979999999134 1.3188109999999675
    vertex 1.9695539999999514 3.5106489999999133 1.3216679999999676
  endloop
endfacet
facet normal -0.07729880808057067 0.6573090545014841 -0.7496463840636385
  outer loop
    vertex 1.9628669999999517 3.5238899999999136 1.387035999999966
    vertex 1.9617359999999515 3.5167019999999134 1.380849999999966
    vertex 1.9421889999999522 3.5215289999999135 1.387097999999966
  endloop
endfacet
facet normal -0.04326947189878557 0.7205548824567397 -0.6920465404648406
  outer loop
    vertex 1.9421889999999522 3.5215289999999135 1.387097999999966
    vertex 1.9617359999999515 3.5167019999999134 1.380849999999966
    vertex 1.9421889999999522 3.5109449999999134 1.3760779999999662
  endloop
endfacet
facet normal -0.08607830507004592 0.7926102164371817 -0.603622042503148
  outer loop
    vertex 1.9617359999999515 3.5167019999999134 1.380849999999966
    vertex 1.9603749999999516 3.5108439999999135 1.3733519999999662
    vertex 1.9421889999999522 3.5109449999999134 1.3760779999999662
  endloop
endfacet
facet normal -0.07510457406026881 0.8432251292253977 -0.532288159175119
  outer loop
    vertex 1.9421889999999522 3.5109449999999134 1.3760779999999662
    vertex 1.9603749999999516 3.5108439999999135 1.3733519999999662
    vertex 1.9508379999999517 3.507098999999914 1.3687649999999665
  endloop
endfacet
facet normal -0.6520502106619128 0.7129967352339156 -0.2578103534025213
  outer loop
    vertex 2.002086999999951 3.521733999999913 1.3545379999999667
    vertex 2.00317299999995 3.518313999999914 1.3423329999999671
    vertex 1.9980789999999509 3.5162819999999138 1.349596999999967
  endloop
endfacet
facet normal -0.14432663748289443 0.8920648890316187 -0.4282406513514182
  outer loop
    vertex 1.9603749999999516 3.5108439999999135 1.3733519999999662
    vertex 1.958847999999952 3.5065519999999144 1.3649259999999666
    vertex 1.9508379999999517 3.507098999999914 1.3687649999999665
  endloop
endfacet
facet normal 0.10964572567216649 0.325090722343899 0.9393049755472106
  outer loop
    vertex 1.958138999999952 3.5340279999999136 1.300396999999968
    vertex 1.9543739999999519 3.5416399999999135 1.298201999999968
    vertex 1.956089999999952 3.5335459999999133 1.300802999999968
  endloop
endfacet
facet normal -0.094825117173298 0.9602472775194717 -0.26255163905318346
  outer loop
    vertex 1.958847999999952 3.5065519999999144 1.3649259999999666
    vertex 1.9572039999999518 3.5039099999999146 1.3558569999999668
    vertex 1.9421889999999522 3.5042249999999133 1.3624319999999666
  endloop
endfacet
facet normal -0.04716495317213991 0.9867904446170098 -0.1549841463015947
  outer loop
    vertex 1.9421889999999522 3.5042249999999133 1.3624319999999666
    vertex 1.9572039999999518 3.5039099999999146 1.3558569999999668
    vertex 1.9421889999999522 3.5018219999999136 1.3471319999999667
  endloop
endfacet
facet normal -0.07308345847326012 0.3184936633992157 -0.9451034834726484
  outer loop
    vertex 1.9643179999999518 3.5408569999999133 1.3945639999999655
    vertex 1.9637309999999517 3.5320069999999135 1.3916269999999658
    vertex 1.9421889999999522 3.5350639999999136 1.3943229999999658
  endloop
endfacet
facet normal -0.11956415327247441 0.9445710883812675 0.30576113593206056
  outer loop
    vertex 1.9537689999999523 3.5039159999999137 1.3369339999999672
    vertex 1.9520839999999517 3.506695999999913 1.3276869999999676
    vertex 1.9423089999999523 3.5040919999999147 1.3319089999999671
  endloop
endfacet
facet normal 0.33904845049367893 0.49805578366775793 0.7981143931623655
  outer loop
    vertex 1.961004999999952 3.5316939999999133 1.300635999999968
    vertex 1.958138999999952 3.5340279999999136 1.300396999999968
    vertex 1.960791999999952 3.5268889999999136 1.303724999999968
  endloop
endfacet
facet normal 0.17928364417197365 0.31556566383102036 0.9318131179283241
  outer loop
    vertex 1.961004999999952 3.5316939999999133 1.300635999999968
    vertex 1.9584449999999518 3.5406249999999133 1.298103999999968
    vertex 1.958138999999952 3.5340279999999136 1.300396999999968
  endloop
endfacet
facet normal 0.3381752262228867 0.7838674969240697 0.5207583543593832
  outer loop
    vertex 1.9682709999999517 3.5155419999999133 1.3130379999999675
    vertex 1.9697069999999517 3.5174449999999133 1.309240999999968
    vertex 1.9641919999999518 3.5206659999999133 1.307973999999968
  endloop
endfacet
facet normal -0.1375711176431288 0.7619713747992297 0.6328300021150959
  outer loop
    vertex 1.9505369999999518 3.511092999999913 1.3193109999999675
    vertex 1.9491669999999524 3.5168859999999134 1.3120379999999676
    vertex 1.9421889999999522 3.5110009999999146 1.3176069999999676
  endloop
endfacet
facet normal 0.10301061057693037 0.32230214605486773 0.9410154838030003
  outer loop
    vertex 1.9584449999999518 3.5406249999999133 1.298103999999968
    vertex 1.9543739999999519 3.5416399999999135 1.298201999999968
    vertex 1.958138999999952 3.5340279999999136 1.300396999999968
  endloop
endfacet
facet normal -0.45050920589280463 0.8877086464356101 -0.09494637670438914
  outer loop
    vertex 1.9935259999999508 3.5122369999999132 1.343995999999967
    vertex 1.9970439999999512 3.513805999999914 1.3419729999999672
    vertex 1.9952529999999506 3.5120979999999133 1.3345019999999674
  endloop
endfacet
facet normal -0.13730757935893492 0.9530459100256242 0.2699076175916861
  outer loop
    vertex 1.9423089999999523 3.5040919999999147 1.3319089999999671
    vertex 1.9520839999999517 3.506695999999913 1.3276869999999676
    vertex 1.9423009999999523 3.504121999999914 1.331798999999967
  endloop
endfacet
facet normal -0.21754131328056436 0.972171422449728 0.08693964796478025
  outer loop
    vertex 1.9422309999999523 3.504135999999914 1.331658999999967
    vertex 1.9520839999999517 3.506695999999913 1.3276869999999676
    vertex 1.9421889999999522 3.504129999999914 1.331620999999967
  endloop
endfacet
facet normal -0.1616689248566549 0.8611657322849708 0.4819302234491872
  outer loop
    vertex 1.9520839999999517 3.506695999999913 1.3276869999999676
    vertex 1.9505369999999518 3.511092999999913 1.3193109999999675
    vertex 1.9466959999999522 3.5084579999999135 1.3227309999999677
  endloop
endfacet
facet normal -0.5903358950628576 0.8060246992103026 -0.04275178666764711
  outer loop
    vertex 2.00317299999995 3.518313999999914 1.3423329999999671
    vertex 1.9952529999999506 3.5120979999999133 1.3345019999999674
    vertex 1.9970439999999512 3.513805999999914 1.3419729999999672
  endloop
endfacet
facet normal -0.23068344172694913 0.9726756415022155 0.026215379861118476
  outer loop
    vertex 1.983624999999951 3.508381999999915 1.3431929999999672
    vertex 1.9888449999999511 3.5100249999999145 1.3281659999999675
    vertex 1.9789439999999516 3.5074649999999132 1.336025999999967
  endloop
endfacet
facet normal -0.3058669867316559 0.9520718175135211 -0.002154234016435389
  outer loop
    vertex 1.983624999999951 3.508381999999915 1.3431929999999672
    vertex 1.9952529999999506 3.5120979999999133 1.3345019999999674
    vertex 1.9888449999999511 3.5100249999999145 1.3281659999999675
  endloop
endfacet
facet normal -0.08328234177957144 0.9713331953470157 0.22265640607147788
  outer loop
    vertex 1.9422949999999524 3.5040499999999133 1.3320279999999671
    vertex 1.9537689999999523 3.5039159999999137 1.3369339999999672
    vertex 1.9423089999999523 3.5040919999999147 1.3319089999999671
  endloop
endfacet
facet normal -0.08328234177957144 0.9713331953470157 0.22265640607147788
  outer loop
    vertex 1.9537689999999523 3.5039159999999137 1.3369339999999672
    vertex 1.9422949999999524 3.5040499999999133 1.3320279999999671
    vertex 1.9421889999999522 3.502376999999914 1.3393169999999672
  endloop
endfacet
facet normal -0.19249945599301976 0.9701129697426504 0.14773214064477372
  outer loop
    vertex 1.9422639999999523 3.504135999999914 1.3317019999999675
    vertex 1.9520839999999517 3.506695999999913 1.3276869999999676
    vertex 1.9422309999999523 3.504135999999914 1.331658999999967
  endloop
endfacet
facet normal -0.09834816960116469 0.9814605899119125 0.16450759248697655
  outer loop
    vertex 1.9789439999999516 3.5074649999999132 1.336025999999967
    vertex 1.9821869999999515 3.5102109999999134 1.3215819999999676
    vertex 1.9741999999999513 3.508204999999913 1.3287749999999672
  endloop
endfacet
facet normal -0.1720827992659624 0.6256253862929804 0.7609076068896602
  outer loop
    vertex 1.9491669999999524 3.5168859999999134 1.3120379999999676
    vertex 1.9479969999999525 3.523891999999914 1.306012999999968
    vertex 1.9421889999999522 3.521779999999913 1.306435999999968
  endloop
endfacet
facet normal 0.005523350593796764 0.9326511761316733 0.36073712902669786
  outer loop
    vertex 1.9821869999999515 3.5102109999999134 1.3215819999999676
    vertex 1.9755809999999514 3.5127769999999137 1.3150489999999675
    vertex 1.9774929999999515 3.510671999999914 1.3204619999999676
  endloop
endfacet
facet normal -0.1601345967094897 0.961991666728389 0.22119887902479396
  outer loop
    vertex 1.9423009999999523 3.504121999999914 1.331798999999967
    vertex 1.9520839999999517 3.506695999999913 1.3276869999999676
    vertex 1.9422859999999524 3.504130999999914 1.3317489999999674
  endloop
endfacet
facet normal 0.023928394088650735 0.9557765316302816 0.29311883859814847
  outer loop
    vertex 1.9741999999999513 3.508204999999913 1.3287749999999672
    vertex 1.9821869999999515 3.5102109999999134 1.3215819999999676
    vertex 1.9774929999999515 3.510671999999914 1.3204619999999676
  endloop
endfacet
facet normal -0.08450498924295935 0.9939198143383853 0.07058547625820255
  outer loop
    vertex 1.9421889999999522 3.5018219999999136 1.3471319999999667
    vertex 1.9554939999999519 3.503002999999915 1.3464309999999668
    vertex 1.9421889999999522 3.502376999999914 1.3393169999999672
  endloop
endfacet
facet normal 0.2223275068934274 0.8851189474573279 0.40882138952186087
  outer loop
    vertex 1.9729589999999515 3.5116979999999134 1.3188109999999675
    vertex 1.9755809999999514 3.5127769999999137 1.3150489999999675
    vertex 1.9682709999999517 3.5155419999999133 1.3130379999999675
  endloop
endfacet
facet normal -0.05266810402940415 0.7186213106982614 0.693404270702352
  outer loop
    vertex 1.9421889999999522 3.5110009999999146 1.3176069999999676
    vertex 1.9491669999999524 3.5168859999999134 1.3120379999999676
    vertex 1.9421889999999522 3.521779999999913 1.306435999999968
  endloop
endfacet
facet normal -0.1762432611032976 0.9667403060846886 0.18534155903886632
  outer loop
    vertex 1.9422859999999524 3.504130999999914 1.3317489999999674
    vertex 1.9520839999999517 3.506695999999913 1.3276869999999676
    vertex 1.9422639999999523 3.504135999999914 1.3317019999999675
  endloop
endfacet
facet normal -0.10768692807248068 0.9875693257462903 0.11450044701803505
  outer loop
    vertex 1.9554939999999519 3.503002999999915 1.3464309999999668
    vertex 1.9537689999999523 3.5039159999999137 1.3369339999999672
    vertex 1.9421889999999522 3.502376999999914 1.3393169999999672
  endloop
endfacet
facet normal -0.07504135188053461 0.9110201927996592 0.4054762678865606
  outer loop
    vertex 1.9421889999999522 3.504129999999914 1.331620999999967
    vertex 1.9520839999999517 3.506695999999913 1.3276869999999676
    vertex 1.9466959999999522 3.5084579999999135 1.3227309999999677
  endloop
endfacet
facet normal -0.35617638226730686 0.9311220686375556 -0.07842243308577168
  outer loop
    vertex 1.9935259999999508 3.5122369999999132 1.343995999999967
    vertex 1.9952529999999506 3.5120979999999133 1.3345019999999674
    vertex 1.983624999999951 3.508381999999915 1.3431929999999672
  endloop
endfacet
facet normal -0.1282552016043186 0.9791776240269702 0.15735877435444534
  outer loop
    vertex 1.9789439999999516 3.5074649999999132 1.336025999999967
    vertex 1.9888449999999511 3.5100249999999145 1.3281659999999675
    vertex 1.9821869999999515 3.5102109999999134 1.3215819999999676
  endloop
endfacet
facet normal 0.38645215791539933 0.6547027188529125 0.6496299558742157
  outer loop
    vertex 1.9641919999999518 3.5206659999999133 1.307973999999968
    vertex 1.9648039999999516 3.5238589999999133 1.304391999999968
    vertex 1.960791999999952 3.5268889999999136 1.303724999999968
  endloop
endfacet
facet normal 0.18480681966590765 0.8488292791972806 0.495313329300149
  outer loop
    vertex 1.9755809999999514 3.5127769999999137 1.3150489999999675
    vertex 1.9697069999999517 3.5174449999999133 1.309240999999968
    vertex 1.9682709999999517 3.5155419999999133 1.3130379999999675
  endloop
endfacet
facet normal 0.25297121325383237 0.5152178479064202 0.8188749199136344
  outer loop
    vertex 1.9648039999999516 3.5238589999999133 1.304391999999968
    vertex 1.961004999999952 3.5316939999999133 1.300635999999968
    vertex 1.960791999999952 3.5268889999999136 1.303724999999968
  endloop
endfacet
facet normal 0.25532687703954127 0.6996571450377235 0.6672990823153417
  outer loop
    vertex 1.9697069999999517 3.5174449999999133 1.309240999999968
    vertex 1.9648039999999516 3.5238589999999133 1.304391999999968
    vertex 1.9641919999999518 3.5206659999999133 1.307973999999968
  endloop
endfacet
facet normal 0.0631954668286639 0.4742222032002446 0.8781341782234725
  outer loop
    vertex 1.958530999999952 3.5262229999999137 1.304581999999968
    vertex 1.956089999999952 3.5335459999999133 1.300802999999968
    vertex 1.9535019999999519 3.5248969999999136 1.3056599999999678
  endloop
endfacet
facet normal 0.21722241316348026 0.6285832149817983 0.7467915137858628
  outer loop
    vertex 1.9641919999999518 3.5206659999999133 1.307973999999968
    vertex 1.960791999999952 3.5268889999999136 1.303724999999968
    vertex 1.9616319999999516 3.5198469999999134 1.3094079999999675
  endloop
endfacet
facet normal 0.05643530057321011 0.4701590743068574 -0.8807755115215967
  outer loop
    vertex 1.9527819999999518 3.526639999999913 1.390504999999966
    vertex 1.9421889999999522 3.5215289999999135 1.387097999999966
    vertex 1.9421889999999522 3.5350639999999136 1.3943229999999658
  endloop
endfacet
facet normal 0.09121634089998139 0.9385840625677039 0.33277550487787244
  outer loop
    vertex 1.9774929999999515 3.510671999999914 1.3204619999999676
    vertex 1.9755809999999514 3.5127769999999137 1.3150489999999675
    vertex 1.9729589999999515 3.5116979999999134 1.3188109999999675
  endloop
endfacet
facet normal 0.0745313432713433 0.6246301126099681 0.7773559681966993
  outer loop
    vertex 1.9616319999999516 3.5198469999999134 1.3094079999999675
    vertex 1.958530999999952 3.5262229999999137 1.304581999999968
    vertex 1.9557709999999522 3.5181879999999137 1.311302999999968
  endloop
endfacet
facet normal -0.1424449164094804 0.3595227337001774 0.9222000052818518
  outer loop
    vertex 1.9503899999999517 3.541142999999913 1.298303999999968
    vertex 1.9421889999999522 3.5353029999999133 1.299313999999968
    vertex 1.947048999999952 3.5319239999999135 1.301381999999968
  endloop
endfacet
facet normal 0.0354897487959369 0.31255994516649666 0.9492348278523697
  outer loop
    vertex 1.956089999999952 3.5335459999999133 1.300802999999968
    vertex 1.9543739999999519 3.5416399999999135 1.298201999999968
    vertex 1.951690999999952 3.5326089999999133 1.3012759999999681
  endloop
endfacet
facet normal 0.18773438385888 0.47145507614634224 0.8616762224252061
  outer loop
    vertex 1.960791999999952 3.5268889999999136 1.303724999999968
    vertex 1.958138999999952 3.5340279999999136 1.300396999999968
    vertex 1.958530999999952 3.5262229999999137 1.304581999999968
  endloop
endfacet
facet normal -0.7878240950492722 0.4317294300826577 -0.4392526544715456
  outer loop
    vertex 2.00775499999995 3.535771999999913 1.3615449999999667
    vertex 2.0090619999999504 3.5317329999999134 1.3552309999999668
    vertex 2.00535299999995 3.5283639999999132 1.3585719999999666
  endloop
endfacet
facet normal 0.03447526320725935 0.46570671621810467 0.8842673298817163
  outer loop
    vertex 1.9449199999999525 3.526694999999913 1.303740999999968
    vertex 1.9421889999999522 3.5353029999999133 1.299313999999968
    vertex 1.9421889999999522 3.521779999999913 1.306435999999968
  endloop
endfacet
facet normal -0.07751280430121738 0.6592281502613848 -0.7479371705379497
  outer loop
    vertex 1.9628669999999517 3.5238899999999136 1.387035999999966
    vertex 1.9421889999999522 3.5215289999999135 1.387097999999966
    vertex 1.9527819999999518 3.526639999999913 1.390504999999966
  endloop
endfacet
facet normal -0.11574332026955884 0.8454335671402721 0.5213881158651905
  outer loop
    vertex 1.9466959999999522 3.5084579999999135 1.3227309999999677
    vertex 1.9505369999999518 3.511092999999913 1.3193109999999675
    vertex 1.9421889999999522 3.5110009999999146 1.3176069999999676
  endloop
endfacet
facet normal -0.5758344435095409 0.7973307592991729 -0.18077155180907706
  outer loop
    vertex 1.9980789999999509 3.5162819999999138 1.349596999999967
    vertex 2.00317299999995 3.518313999999914 1.3423329999999671
    vertex 1.9970439999999512 3.513805999999914 1.3419729999999672
  endloop
endfacet
facet normal 0.09742671502440886 0.9429295482565051 0.31842095129613535
  outer loop
    vertex 1.9741999999999513 3.508204999999913 1.3287749999999672
    vertex 1.9774929999999515 3.510671999999914 1.3204619999999676
    vertex 1.9729589999999515 3.5116979999999134 1.3188109999999675
  endloop
endfacet
facet normal -0.004711874026835095 0.14640992225541147 0.9892127844444387
  outer loop
    vertex 1.9572569999999516 3.550326999999913 1.2969299999999682
    vertex 1.9534469999999517 3.5503259999999126 1.2969119999999683
    vertex 1.9543739999999519 3.5416399999999135 1.298201999999968
  endloop
endfacet
facet normal -0.07814691776570357 0.4362330191193203 0.8964339419465124
  outer loop
    vertex 1.947048999999952 3.5319239999999135 1.301381999999968
    vertex 1.9421889999999522 3.5353029999999133 1.299313999999968
    vertex 1.9449199999999525 3.526694999999913 1.303740999999968
  endloop
endfacet
facet normal -0.011240937759474092 0.4921677921149797 0.8704277716864012
  outer loop
    vertex 1.956089999999952 3.5335459999999133 1.300802999999968
    vertex 1.951690999999952 3.5326089999999133 1.3012759999999681
    vertex 1.9535019999999519 3.5248969999999136 1.3056599999999678
  endloop
endfacet
facet normal 0.05541354185634878 0.12662977937984493 0.9904010492488113
  outer loop
    vertex 1.9584449999999518 3.5406249999999133 1.298103999999968
    vertex 1.9572569999999516 3.550326999999913 1.2969299999999682
    vertex 1.9543739999999519 3.5416399999999135 1.298201999999968
  endloop
endfacet
facet normal 0.10481867050633864 0.6321005357812263 0.7677642600293209
  outer loop
    vertex 1.9616319999999516 3.5198469999999134 1.3094079999999675
    vertex 1.960791999999952 3.5268889999999136 1.303724999999968
    vertex 1.958530999999952 3.5262229999999137 1.304581999999968
  endloop
endfacet
facet normal -0.08531162250216832 0.9459834213127247 -0.31278953573852136
  outer loop
    vertex 1.9508379999999517 3.507098999999914 1.3687649999999665
    vertex 1.958847999999952 3.5065519999999144 1.3649259999999666
    vertex 1.9421889999999522 3.5042249999999133 1.3624319999999666
  endloop
endfacet
facet normal -0.016546356807811503 0.32658553683424 0.9450228067126634
  outer loop
    vertex 1.9543739999999519 3.5416399999999135 1.298201999999968
    vertex 1.9503899999999517 3.541142999999913 1.298303999999968
    vertex 1.951690999999952 3.5326089999999133 1.3012759999999681
  endloop
endfacet
facet normal -0.005218706750847217 0.6426464926514277 0.7661450584469414
  outer loop
    vertex 1.958530999999952 3.5262229999999137 1.304581999999968
    vertex 1.9535019999999519 3.5248969999999136 1.3056599999999678
    vertex 1.9557709999999522 3.5181879999999137 1.311302999999968
  endloop
endfacet
facet normal 0.006806731175204787 0.1611229412312767 0.9869108704537057
  outer loop
    vertex 1.9503899999999517 3.541142999999913 1.298303999999968
    vertex 1.9421889999999522 3.550321999999912 1.2968619999999682
    vertex 1.9421889999999522 3.5353029999999133 1.299313999999968
  endloop
endfacet
facet normal 0.025373234516305253 0.8968305390226596 -0.4416459931285539
  outer loop
    vertex 1.9421889999999522 3.5109449999999134 1.3760779999999662
    vertex 1.9508379999999517 3.507098999999914 1.3687649999999665
    vertex 1.9421889999999522 3.5042249999999133 1.3624319999999666
  endloop
endfacet
facet normal -0.8575969442733031 0.33395750383652717 -0.39115197405147933
  outer loop
    vertex 2.01351799999995 3.5400509999999135 1.3525629999999667
    vertex 2.0090619999999504 3.5317329999999134 1.3552309999999668
    vertex 2.00775499999995 3.535771999999913 1.3615449999999667
  endloop
endfacet
facet normal 0.0061211798923795045 0.8978686455889802 0.4402208836765192
  outer loop
    vertex 1.9421889999999522 3.504129999999914 1.331620999999967
    vertex 1.9466959999999522 3.5084579999999135 1.3227309999999677
    vertex 1.9421889999999522 3.5110009999999146 1.3176069999999676
  endloop
endfacet
facet normal -0.4952394505506168 0.8437843180360982 -0.20679920515969138
  outer loop
    vertex 1.9980789999999509 3.5162819999999138 1.349596999999967
    vertex 1.9970439999999512 3.513805999999914 1.3419729999999672
    vertex 1.9935259999999508 3.5122369999999132 1.343995999999967
  endloop
endfacet
facet normal -0.004506787146423241 0.14641796450517183 0.9892125497282064
  outer loop
    vertex 1.9543739999999519 3.5416399999999135 1.298201999999968
    vertex 1.951468994664601 3.55032501833504 1.2969035082450515
    vertex 1.9496529999999526 3.550323999999912 1.2968949999999682
  endloop
endfacet
facet normal -0.004506787146423241 0.14641796450517183 0.9892125497282064
  outer loop
    vertex 1.951468994664601 3.55032501833504 1.2969035082450515
    vertex 1.9543739999999519 3.5416399999999135 1.298201999999968
    vertex 1.9534469999999517 3.5503259999999126 1.2969119999999683
  endloop
endfacet
facet normal 0.0063186692941923 0.1521856297605055 0.9883317299939071
  outer loop
    vertex 1.9543739999999519 3.5416399999999135 1.298201999999968
    vertex 1.9496529999999526 3.550323999999912 1.2968949999999682
    vertex 1.9503899999999517 3.541142999999913 1.298303999999968
  endloop
endfacet
facet normal -0.004410803341911739 0.15134570860201774 0.9884710523336697
  outer loop
    vertex 1.9503899999999517 3.541142999999913 1.298303999999968
    vertex 1.9496529999999526 3.550323999999912 1.2968949999999682
    vertex 1.9421889999999522 3.550321999999912 1.2968619999999682
  endloop
endfacet
facet normal -0.13262245498891392 0.5321845690014604 0.8361763384295464
  outer loop
    vertex 1.9479969999999525 3.523891999999914 1.306012999999968
    vertex 1.9449199999999525 3.526694999999913 1.303740999999968
    vertex 1.9421889999999522 3.521779999999913 1.306435999999968
  endloop
endfacet
facet normal 0.06250809124682798 0.4740628598771361 0.8782694025262345
  outer loop
    vertex 1.958530999999952 3.5262229999999137 1.304581999999968
    vertex 1.958138999999952 3.5340279999999136 1.300396999999968
    vertex 1.956089999999952 3.5335459999999133 1.300802999999968
  endloop
endfacet
facet normal -0.08710579380304082 0.9413409321332764 0.32602121123693245
  outer loop
    vertex 1.9647609999999516 3.505868999999915 1.3341889999999672
    vertex 1.9695539999999514 3.5106489999999133 1.3216679999999676
    vertex 1.9614689999999515 3.508483999999914 1.3257589999999675
  endloop
endfacet
facet normal -0.06357773547380297 0.8668776145256979 0.49445027352228094
  outer loop
    vertex 1.9520839999999517 3.506695999999913 1.3276869999999676
    vertex 1.9614689999999515 3.508483999999914 1.3257589999999675
    vertex 1.9584449999999518 3.5126569999999147 1.3180539999999676
  endloop
endfacet
facet normal -0.09704790256778308 0.8737472930264202 0.4765998033321008
  outer loop
    vertex 1.9520839999999517 3.506695999999913 1.3276869999999676
    vertex 1.9584449999999518 3.5126569999999147 1.3180539999999676
    vertex 1.9505369999999518 3.511092999999913 1.3193109999999675
  endloop
endfacet
facet normal -0.11609812109048467 0.9829989223478484 0.14224747780620906
  outer loop
    vertex 1.9554939999999519 3.503002999999915 1.3464309999999668
    vertex 1.9681059999999513 3.5050189999999137 1.3427929999999668
    vertex 1.9647609999999516 3.505868999999915 1.3341889999999672
  endloop
endfacet
facet normal -0.2271730405536941 0.9737822359821627 -0.01185607570695925
  outer loop
    vertex 1.9714039999999515 3.5058919999999136 1.3513029999999666
    vertex 1.9789439999999516 3.5074649999999132 1.336025999999967
    vertex 1.9681059999999513 3.5050189999999137 1.3427929999999668
  endloop
endfacet
facet normal 0.12978444746378415 0.8707042424602188 0.4743733965541245
  outer loop
    vertex 1.9695539999999514 3.5106489999999133 1.3216679999999676
    vertex 1.9729589999999515 3.5116979999999134 1.3188109999999675
    vertex 1.9682709999999517 3.5155419999999133 1.3130379999999675
  endloop
endfacet
facet normal 0.062002765805194045 0.756042789422559 0.6515788191728322
  outer loop
    vertex 1.9584449999999518 3.5126569999999147 1.3180539999999676
    vertex 1.9653279999999518 3.5145969999999136 1.3151479999999676
    vertex 1.9616319999999516 3.5198469999999134 1.3094079999999675
  endloop
endfacet
facet normal -0.039790127222769256 0.871998899910446 0.4878879628875546
  outer loop
    vertex 1.9614689999999515 3.508483999999914 1.3257589999999675
    vertex 1.9653279999999518 3.5145969999999136 1.3151479999999676
    vertex 1.9584449999999518 3.5126569999999147 1.3180539999999676
  endloop
endfacet
facet normal -0.012414852511457436 0.7710626494298327 0.6366382505719913
  outer loop
    vertex 1.9584449999999518 3.5126569999999147 1.3180539999999676
    vertex 1.9616319999999516 3.5198469999999134 1.3094079999999675
    vertex 1.9557709999999522 3.5181879999999137 1.311302999999968
  endloop
endfacet
facet normal -0.0859701979779975 0.9415737957229107 0.3256499842892281
  outer loop
    vertex 1.9537689999999523 3.5039159999999137 1.3369339999999672
    vertex 1.9647609999999516 3.505868999999915 1.3341889999999672
    vertex 1.9614689999999515 3.508483999999914 1.3257589999999675
  endloop
endfacet
facet normal -0.2838714860516015 0.9454378435624582 -0.15988828401988858
  outer loop
    vertex 1.9745679999999515 3.508417999999913 1.3594859999999667
    vertex 1.9881039999999517 3.5108889999999136 1.3500649999999668
    vertex 1.983624999999951 3.508381999999915 1.3431929999999672
  endloop
endfacet
facet normal -0.033166182097671124 0.4880258792199267 0.8721987993437514
  outer loop
    vertex 1.9535019999999519 3.5248969999999136 1.3056599999999678
    vertex 1.951690999999952 3.5326089999999133 1.3012759999999681
    vertex 1.9479969999999525 3.523891999999914 1.306012999999968
  endloop
endfacet
facet normal -0.47088099078192974 0.8511638215384472 -0.23192938887578418
  outer loop
    vertex 1.992239999999951 3.5149149999999136 1.3564349999999668
    vertex 1.9980789999999509 3.5162819999999138 1.349596999999967
    vertex 1.9935259999999508 3.5122369999999132 1.343995999999967
  endloop
endfacet
facet normal -0.4711739017918955 0.8510029003174157 -0.23192502650974936
  outer loop
    vertex 1.992239999999951 3.5149149999999136 1.3564349999999668
    vertex 1.9935259999999508 3.5122369999999132 1.343995999999967
    vertex 1.9881039999999517 3.5108889999999136 1.3500649999999668
  endloop
endfacet
facet normal -0.04849339242002268 0.7631267664766183 0.6444268222060119
  outer loop
    vertex 1.9505369999999518 3.511092999999913 1.3193109999999675
    vertex 1.9584449999999518 3.5126569999999147 1.3180539999999676
    vertex 1.9557709999999522 3.5181879999999137 1.311302999999968
  endloop
endfacet
facet normal -0.3687901209002158 0.8750202084140248 -0.3135816984351617
  outer loop
    vertex 1.9775099999999513 3.5125309999999144 1.3671059999999664
    vertex 1.992239999999951 3.5149149999999136 1.3564349999999668
    vertex 1.9881039999999517 3.5108889999999136 1.3500649999999668
  endloop
endfacet
facet normal 0.06730724763542546 0.872194405584864 0.4845066080893109
  outer loop
    vertex 1.9695539999999514 3.5106489999999133 1.3216679999999676
    vertex 1.9682709999999517 3.5155419999999133 1.3130379999999675
    vertex 1.9653279999999518 3.5145969999999136 1.3151479999999676
  endloop
endfacet
facet normal -0.15228330202249382 0.9760075711749905 0.155624602599402
  outer loop
    vertex 1.9681059999999513 3.5050189999999137 1.3427929999999668
    vertex 1.9741999999999513 3.508204999999913 1.3287749999999672
    vertex 1.9647609999999516 3.505868999999915 1.3341889999999672
  endloop
endfacet
facet normal -0.08204301284871054 0.7719739137771876 0.6303373862387013
  outer loop
    vertex 1.9505369999999518 3.511092999999913 1.3193109999999675
    vertex 1.9557709999999522 3.5181879999999137 1.311302999999968
    vertex 1.9491669999999524 3.5168859999999134 1.3120379999999676
  endloop
endfacet
facet normal -0.11727787563123328 0.9449550816304252 0.3054599705170248
  outer loop
    vertex 1.9537689999999523 3.5039159999999137 1.3369339999999672
    vertex 1.9614689999999515 3.508483999999914 1.3257589999999675
    vertex 1.9520839999999517 3.506695999999913 1.3276869999999676
  endloop
endfacet
facet normal -0.30464973720752564 0.9369118513736826 -0.17141971991262883
  outer loop
    vertex 1.9745679999999515 3.508417999999913 1.3594859999999667
    vertex 1.983624999999951 3.508381999999915 1.3431929999999672
    vertex 1.9714039999999515 3.5058919999999136 1.3513029999999666
  endloop
endfacet
facet normal -0.3814617482981161 0.8669766459458715 -0.32068431512905593
  outer loop
    vertex 1.9775099999999513 3.5125309999999144 1.3671059999999664
    vertex 1.9881039999999517 3.5108889999999136 1.3500649999999668
    vertex 1.9745679999999515 3.508417999999913 1.3594859999999667
  endloop
endfacet
facet normal -0.11250760638347113 0.978393681316072 0.17345847591468927
  outer loop
    vertex 1.9681059999999513 3.5050189999999137 1.3427929999999668
    vertex 1.9789439999999516 3.5074649999999132 1.336025999999967
    vertex 1.9741999999999513 3.508204999999913 1.3287749999999672
  endloop
endfacet
facet normal -0.053092763141805395 0.4940772513710922 0.8677953838201462
  outer loop
    vertex 1.951690999999952 3.5326089999999133 1.3012759999999681
    vertex 1.947048999999952 3.5319239999999135 1.301381999999968
    vertex 1.9479969999999525 3.523891999999914 1.306012999999968
  endloop
endfacet
facet normal -0.1443739836593387 0.9821413251089541 0.12064232406399021
  outer loop
    vertex 1.9554939999999519 3.503002999999915 1.3464309999999668
    vertex 1.9647609999999516 3.505868999999915 1.3341889999999672
    vertex 1.9537689999999523 3.5039159999999137 1.3369339999999672
  endloop
endfacet
facet normal -0.034272267905034653 0.9379892069733993 0.3449661711734344
  outer loop
    vertex 1.9647609999999516 3.505868999999915 1.3341889999999672
    vertex 1.9741999999999513 3.508204999999913 1.3287749999999672
    vertex 1.9695539999999514 3.5106489999999133 1.3216679999999676
  endloop
endfacet
facet normal -0.19741012873490135 0.9803147190260002 0.0035060995199610403
  outer loop
    vertex 1.9714039999999515 3.5058919999999136 1.3513029999999666
    vertex 1.983624999999951 3.508381999999915 1.3431929999999672
    vertex 1.9789439999999516 3.5074649999999132 1.336025999999967
  endloop
endfacet
facet normal -0.06868101800295971 0.6438714935470523 0.7620448920920377
  outer loop
    vertex 1.9535019999999519 3.5248969999999136 1.3056599999999678
    vertex 1.9479969999999525 3.523891999999914 1.306012999999968
    vertex 1.9491669999999524 3.5168859999999134 1.3120379999999676
  endloop
endfacet
facet normal -0.039426669795530556 0.6353461433613269 0.7712203419417323
  outer loop
    vertex 1.9557709999999522 3.5181879999999137 1.311302999999968
    vertex 1.9535019999999519 3.5248969999999136 1.3056599999999678
    vertex 1.9491669999999524 3.5168859999999134 1.3120379999999676
  endloop
endfacet
facet normal 0.10851231158601195 0.7673533328967234 0.631976218481796
  outer loop
    vertex 1.9653279999999518 3.5145969999999136 1.3151479999999676
    vertex 1.9641919999999518 3.5206659999999133 1.307973999999968
    vertex 1.9616319999999516 3.5198469999999134 1.3094079999999675
  endloop
endfacet
facet normal 0.025071632428761412 0.8622506559388368 0.5058608697857572
  outer loop
    vertex 1.9614689999999515 3.508483999999914 1.3257589999999675
    vertex 1.9695539999999514 3.5106489999999133 1.3216679999999676
    vertex 1.9653279999999518 3.5145969999999136 1.3151479999999676
  endloop
endfacet
facet normal 0.1957665034704808 0.7637498371736636 0.615111097555673
  outer loop
    vertex 1.9653279999999518 3.5145969999999136 1.3151479999999676
    vertex 1.9682709999999517 3.5155419999999133 1.3130379999999675
    vertex 1.9641919999999518 3.5206659999999133 1.307973999999968
  endloop
endfacet
facet normal -0.3410873039745543 0.33319092337455963 -0.8790012853506975
  outer loop
    vertex 1.9851229999999511 3.5412979999999132 1.386657999999966
    vertex 1.9840099999999516 3.532850999999913 1.383887999999966
    vertex 1.9643179999999518 3.5408569999999133 1.3945639999999655
  endloop
endfacet
facet normal -0.3497354913785897 0.31589605265583587 -0.8819834295419829
  outer loop
    vertex 1.9840099999999516 3.532850999999913 1.383887999999966
    vertex 1.9637309999999517 3.5320069999999135 1.3916269999999658
    vertex 1.9643179999999518 3.5408569999999133 1.3945639999999655
  endloop
endfacet
facet normal -0.5193974095310664 0.6353518419374485 -0.5714493572654615
  outer loop
    vertex 1.9823439999999513 3.5250809999999135 1.379622999999966
    vertex 1.995893999999951 3.5203929999999133 1.3620949999999665
    vertex 1.9801439999999513 3.5181629999999138 1.3739309999999663
  endloop
endfacet
facet normal -0.3018515208420451 0.6611340277019606 -0.6868678597662927
  outer loop
    vertex 1.9823439999999513 3.5250809999999135 1.379622999999966
    vertex 1.9801439999999513 3.5181629999999138 1.3739309999999663
    vertex 1.9628669999999517 3.5238899999999136 1.387035999999966
  endloop
endfacet
facet normal -0.3255465769395765 0.5076568805968933 -0.7976866037646339
  outer loop
    vertex 1.9840099999999516 3.532850999999913 1.383887999999966
    vertex 1.9823439999999513 3.5250809999999135 1.379622999999966
    vertex 1.9637309999999517 3.5320069999999135 1.3916269999999658
  endloop
endfacet
facet normal -0.15149849344552588 0.9875393202527342 -0.04259457052845757
  outer loop
    vertex 1.9572039999999518 3.5039099999999146 1.3558569999999668
    vertex 1.9714039999999515 3.5058919999999136 1.3513029999999666
    vertex 1.9681059999999513 3.5050189999999137 1.3427929999999668
  endloop
endfacet
facet normal -0.19023533032262915 0.9563853675160602 -0.22166990751613225
  outer loop
    vertex 1.958847999999952 3.5065519999999144 1.3649259999999666
    vertex 1.9745679999999515 3.508417999999913 1.3594859999999667
    vertex 1.9714039999999515 3.5058919999999136 1.3513029999999666
  endloop
endfacet
facet normal -0.23050489417510467 0.8907161474575599 -0.39178085509591526
  outer loop
    vertex 1.9603749999999516 3.5108439999999135 1.3733519999999662
    vertex 1.9775099999999513 3.5125309999999144 1.3671059999999664
    vertex 1.9745679999999515 3.508417999999913 1.3594859999999667
  endloop
endfacet
facet normal -0.7326207594084411 0.4530022180075058 -0.5079919422235744
  outer loop
    vertex 2.001110999999951 3.534578999999913 1.3702319999999661
    vertex 2.00535299999995 3.5283639999999132 1.3585719999999666
    vertex 1.998886999999951 3.5270909999999134 1.3667619999999665
  endloop
endfacet
facet normal -0.4542902983114218 0.7652199722587979 -0.4561345403676024
  outer loop
    vertex 1.9801439999999513 3.5181629999999138 1.3739309999999663
    vertex 1.992239999999951 3.5149149999999136 1.3564349999999668
    vertex 1.9775099999999513 3.5125309999999144 1.3671059999999664
  endloop
endfacet
facet normal -0.5770306913784488 0.4781999549511387 -0.6620878977084828
  outer loop
    vertex 2.001110999999951 3.534578999999913 1.3702319999999661
    vertex 1.998886999999951 3.5270909999999134 1.3667619999999665
    vertex 1.9840099999999516 3.532850999999913 1.383887999999966
  endloop
endfacet
facet normal -0.1751615967736133 0.9825369270474484 -0.06276624892308826
  outer loop
    vertex 1.9572039999999518 3.5039099999999146 1.3558569999999668
    vertex 1.9681059999999513 3.5050189999999137 1.3427929999999668
    vertex 1.9554939999999519 3.503002999999915 1.3464309999999668
  endloop
endfacet
facet normal -0.33601378259679354 0.4905315120064403 -0.8040358037013465
  outer loop
    vertex 1.9823439999999513 3.5250809999999135 1.379622999999966
    vertex 1.9628669999999517 3.5238899999999136 1.387035999999966
    vertex 1.9637309999999517 3.5320069999999135 1.3916269999999658
  endloop
endfacet
facet normal -0.5768217555730989 0.7406825956545247 -0.34447925161327814
  outer loop
    vertex 1.995893999999951 3.5203929999999133 1.3620949999999665
    vertex 1.9980789999999509 3.5162819999999138 1.349596999999967
    vertex 1.992239999999951 3.5149149999999136 1.3564349999999668
  endloop
endfacet
facet normal -0.24459391616199727 0.8812052729590168 -0.404538110795216
  outer loop
    vertex 1.9603749999999516 3.5108439999999135 1.3733519999999662
    vertex 1.9745679999999515 3.508417999999913 1.3594859999999667
    vertex 1.958847999999952 3.5065519999999144 1.3649259999999666
  endloop
endfacet
facet normal -0.6720046764010411 0.5973520630225689 -0.43769878649342037
  outer loop
    vertex 2.00535299999995 3.5283639999999132 1.3585719999999666
    vertex 2.002086999999951 3.521733999999913 1.3545379999999667
    vertex 1.998886999999951 3.5270909999999134 1.3667619999999665
  endloop
endfacet
facet normal -0.6151825695201473 0.30915842004754557 -0.7252389106165599
  outer loop
    vertex 2.0025499999999505 3.542675999999913 1.3724629999999662
    vertex 2.001110999999951 3.534578999999913 1.3702319999999661
    vertex 1.9851229999999511 3.5412979999999132 1.386657999999966
  endloop
endfacet
facet normal -0.6109944845625366 0.3182090559321652 -0.7248646332639773
  outer loop
    vertex 2.001110999999951 3.534578999999913 1.3702319999999661
    vertex 1.9840099999999516 3.532850999999913 1.383887999999966
    vertex 1.9851229999999511 3.5412979999999132 1.386657999999966
  endloop
endfacet
facet normal -0.20884896691683194 0.9484346327318 -0.23844046731347368
  outer loop
    vertex 1.958847999999952 3.5065519999999144 1.3649259999999666
    vertex 1.9714039999999515 3.5058919999999136 1.3513029999999666
    vertex 1.9572039999999518 3.5039099999999146 1.3558569999999668
  endloop
endfacet
facet normal -0.28052647795003366 0.7804154336381391 -0.558799289645526
  outer loop
    vertex 1.9617359999999515 3.5167019999999134 1.380849999999966
    vertex 1.9775099999999513 3.5125309999999144 1.3671059999999664
    vertex 1.9603749999999516 3.5108439999999135 1.3733519999999662
  endloop
endfacet
facet normal -0.3126432903143742 0.6473856452640812 -0.6950870444249492
  outer loop
    vertex 1.9801439999999513 3.5181629999999138 1.3739309999999663
    vertex 1.9617359999999515 3.5167019999999134 1.380849999999966
    vertex 1.9628669999999517 3.5238899999999136 1.387035999999966
  endloop
endfacet
facet normal -0.5726053659112954 0.48542210845767336 -0.6606727416430151
  outer loop
    vertex 1.998886999999951 3.5270909999999134 1.3667619999999665
    vertex 1.9823439999999513 3.5250809999999135 1.379622999999966
    vertex 1.9840099999999516 3.532850999999913 1.383887999999966
  endloop
endfacet
facet normal -0.26917411928374324 0.7912519791242637 -0.549058830217452
  outer loop
    vertex 1.9617359999999515 3.5167019999999134 1.380849999999966
    vertex 1.9801439999999513 3.5181629999999138 1.3739309999999663
    vertex 1.9775099999999513 3.5125309999999144 1.3671059999999664
  endloop
endfacet
facet normal -0.5219652206843057 0.6322092561895976 -0.5725938916755747
  outer loop
    vertex 1.9823439999999513 3.5250809999999135 1.379622999999966
    vertex 1.998886999999951 3.5270909999999134 1.3667619999999665
    vertex 1.995893999999951 3.5203929999999133 1.3620949999999665
  endloop
endfacet
facet normal -0.6659949226478008 0.6032962101903091 -0.43873049332974373
  outer loop
    vertex 1.998886999999951 3.5270909999999134 1.3667619999999665
    vertex 2.002086999999951 3.521733999999913 1.3545379999999667
    vertex 1.995893999999951 3.5203929999999133 1.3620949999999665
  endloop
endfacet
facet normal -0.5799530248568393 0.7383377988200289 -0.3442554048856705
  outer loop
    vertex 1.995893999999951 3.5203929999999133 1.3620949999999665
    vertex 2.002086999999951 3.521733999999913 1.3545379999999667
    vertex 1.9980789999999509 3.5162819999999138 1.349596999999967
  endloop
endfacet
facet normal -0.7404574752998214 0.4429520777669638 -0.5054860869247977
  outer loop
    vertex 2.00775499999995 3.535771999999913 1.3615449999999667
    vertex 2.00535299999995 3.5283639999999132 1.3585719999999666
    vertex 2.001110999999951 3.534578999999913 1.3702319999999661
  endloop
endfacet
facet normal -0.44997766681680984 0.7691025475726074 -0.4538737387021034
  outer loop
    vertex 1.9801439999999513 3.5181629999999138 1.3739309999999663
    vertex 1.995893999999951 3.5203929999999133 1.3620949999999665
    vertex 1.992239999999951 3.5149149999999136 1.3564349999999668
  endloop
endfacet
facet normal -0.0 -0.0 1.0
  outer loop
    vertex 1.9316511349201255 3.5456572804251993 0.09160160999999775
    vertex 1.9317849999999526 3.5543619999999123 0.09160160999999775
    vertex 1.9316097149829385 3.5543096094468236 0.09160160999999775
  endloop
endfacet
facet normal -0.0 -0.0 1.0
  outer loop
    vertex 1.9317849999999526 3.5543619999999123 0.09160160999999775
    vertex 1.9316511349201255 3.5456572804251993 0.09160160999999775
    vertex 1.9318179999999525 3.5469149999999128 0.09160160999999775
  endloop
endfacet
facet normal -0.0014781524798496283 0.9830963358335568 0.1830830673106636
  outer loop
    vertex 2.01351799999995 3.5400509999999135 1.3525629999999667
    vertex 2.072659999999949 3.587669999999912 1.097341999999973
    vertex 1.9572569999999516 3.550326999999913 1.2969299999999682
  endloop
endfacet
facet normal 0.012315284565560296 0.9815573948863484 0.19077058030523153
  outer loop
    vertex 1.9572569999999516 3.550326999999913 1.2969299999999682
    vertex 2.072659999999949 3.587669999999912 1.097341999999973
    vertex 2.003612999999951 3.5885469999999122 1.0972869999999728
  endloop
endfacet
facet normal -0.0007954661198839665 0.994860753314596 0.10124943826000575
  outer loop
    vertex 2.0025499999999505 3.542675999999913 1.3724629999999662
    vertex 1.9496529999999526 3.550323999999912 1.2968949999999682
    vertex 1.9421889999999522 3.550321999999912 1.2968619999999682
  endloop
endfacet
facet normal -0.0007954661198839665 0.994860753314596 0.10124943826000575
  outer loop
    vertex 1.9496529999999526 3.550323999999912 1.2968949999999682
    vertex 2.0025499999999505 3.542675999999913 1.3724629999999662
    vertex 1.9534469999999517 3.5503259999999126 1.2969119999999683
  endloop
endfacet
facet normal -0.0007954661198839665 0.994860753314596 0.10124943826000575
  outer loop
    vertex 1.9534469999999517 3.5503259999999126 1.2969119999999683
    vertex 2.0025499999999505 3.542675999999913 1.3724629999999662
    vertex 1.9572569999999516 3.550326999999913 1.2969299999999682
  endloop
endfacet
facet normal 0.001993889567710461 0.9950807820074336 0.09904676513579988
  outer loop
    vertex 1.9851229999999511 3.5412979999999132 1.386657999999966
    vertex 2.0025499999999505 3.542675999999913 1.3724629999999662
    vertex 1.9421889999999522 3.550321999999912 1.2968619999999682
  endloop
endfacet
facet normal 0.1985682642343273 0.9798867460752901 -0.01981437117211245
  outer loop
    vertex 2.0025499999999505 3.542675999999913 1.3724629999999662
    vertex 2.01351799999995 3.5400509999999135 1.3525629999999667
    vertex 1.9572569999999516 3.550326999999913 1.2969299999999682
  endloop
endfacet
facet normal 0.014314941985312569 0.9955442799972316 0.09320230147775967
  outer loop
    vertex 1.9643179999999518 3.5408569999999133 1.3945639999999655
    vertex 1.9851229999999511 3.5412979999999132 1.386657999999966
    vertex 1.9421889999999522 3.550321999999912 1.2968619999999682
  endloop
endfacet
facet normal -0.2519215225474566 0.9561018299432422 0.14968245473853928
  outer loop
    vertex 1.9643179999999518 3.5408569999999133 1.3945639999999655
    vertex 1.9421889999999522 3.550321999999912 1.2968619999999682
    vertex 1.9421889999999522 3.5350639999999136 1.3943229999999658
  endloop
endfacet
facet normal 0.5387941894770629 -0.774825197214318 -0.330676178681725
  outer loop
    vertex 1.9422639999999523 3.504135999999914 1.3317019999999675
    vertex 1.942245061970257 3.504109323618499 1.331747721485946
    vertex 1.9422254369184362 3.504115650202889 1.331700920833572
  endloop
endfacet
facet normal 0.5387941894770629 -0.774825197214318 -0.330676178681725
  outer loop
    vertex 1.942245061970257 3.504109323618499 1.331747721485946
    vertex 1.9422639999999523 3.504135999999914 1.3317019999999675
    vertex 1.9422859999999524 3.504130999999914 1.3317489999999674
  endloop
endfacet
facet normal -0.45327250881081377 0.8381571319356741 0.3033754356267426
  outer loop
    vertex 1.942245061970257 3.504109323618499 1.331747721485946
    vertex 1.9422639999999523 3.504135999999914 1.3317019999999675
    vertex 1.9422254369184362 3.504115650202889 1.331700920833572
  endloop
endfacet
facet normal -0.45327250881081377 0.8381571319356741 0.3033754356267426
  outer loop
    vertex 1.9422639999999523 3.504135999999914 1.3317019999999675
    vertex 1.942245061970257 3.504109323618499 1.331747721485946
    vertex 1.9422859999999524 3.504130999999914 1.3317489999999674
  endloop
endfacet
facet normal -0.4575068454648122 0.8488684003325708 0.264782788847121
  outer loop
    vertex 1.9423089999999523 3.5040919999999147 1.3319089999999671
    vertex 1.9423009999999523 3.504121999999914 1.331798999999967
    vertex 1.9422654979351228 3.504103239212179 1.331797802800498
  endloop
endfacet
facet normal -0.5403631372105883 0.7894400691324273 0.29119075739473516
  outer loop
    vertex 1.9423089999999523 3.5040919999999147 1.3319089999999671
    vertex 1.9423009999999523 3.504121999999914 1.331798999999967
    vertex 1.9422654979351228 3.504103239212179 1.331797802800498
  endloop
endfacet
facet normal -0.1844494637560561 0.968027658944133 0.17000249068541615
  outer loop
    vertex 1.9423089999999523 3.5040919999999147 1.3319089999999671
    vertex 1.9423009999999523 3.504121999999914 1.331798999999967
    vertex 1.9422654979351228 3.504103239212179 1.331797802800498
  endloop
endfacet
facet normal -0.03470954196101453 0.9928818068241982 0.11393403957717002
  outer loop
    vertex 1.9423089999999523 3.5040919999999147 1.3319089999999671
    vertex 1.9423009999999523 3.504121999999914 1.331798999999967
    vertex 1.9422654979351228 3.504103239212179 1.331797802800498
  endloop
endfacet
facet normal -0.4288881936046424 0.8665108844890234 0.25536993646198364
  outer loop
    vertex 1.9423089999999523 3.5040919999999147 1.3319089999999671
    vertex 1.9423009999999523 3.504121999999914 1.331798999999967
    vertex 1.9422654979351228 3.504103239212179 1.331797802800498
  endloop
endfacet
facet normal -0.44659021232148105 0.8283581119082513 0.3382011541885269
  outer loop
    vertex 1.9422254369184362 3.504115650202889 1.331700920833572
    vertex 1.9422309999999523 3.504135999999914 1.331658999999967
    vertex 1.9422064206787144 3.504122799640227 1.3316582989774046
  endloop
endfacet
facet normal -0.44659021232148105 0.8283581119082513 0.3382011541885269
  outer loop
    vertex 1.9422309999999523 3.504135999999914 1.331658999999967
    vertex 1.9422254369184362 3.504115650202889 1.331700920833572
    vertex 1.9422639999999523 3.504135999999914 1.3317019999999675
  endloop
endfacet
facet normal -0.533288097629946 0.7627197117405776 0.3658721720062945
  outer loop
    vertex 1.9422254369184362 3.504115650202889 1.331700920833572
    vertex 1.9422309999999523 3.504135999999914 1.331658999999967
    vertex 1.9422064206787144 3.504122799640227 1.3316582989774046
  endloop
endfacet
facet normal -0.533288097629946 0.7627197117405776 0.3658721720062945
  outer loop
    vertex 1.9422309999999523 3.504135999999914 1.331658999999967
    vertex 1.9422254369184362 3.504115650202889 1.331700920833572
    vertex 1.9422639999999523 3.504135999999914 1.3317019999999675
  endloop
endfacet
facet normal -0.5408919494100815 0.7797007834047274 0.31544030722375427
  outer loop
    vertex 1.9422654979351228 3.504103239212179 1.331797802800498
    vertex 1.9422859999999524 3.504130999999914 1.3317489999999674
    vertex 1.942245061970257 3.504109323618499 1.331747721485946
  endloop
endfacet
facet normal -0.5408919494100815 0.7797007834047274 0.31544030722375427
  outer loop
    vertex 1.9422859999999524 3.504130999999914 1.3317489999999674
    vertex 1.9422654979351228 3.504103239212179 1.331797802800498
    vertex 1.9423009999999523 3.504121999999914 1.331798999999967
  endloop
endfacet
facet normal -0.5373105269206759 0.782618633032025 0.3143333785828516
  outer loop
    vertex 1.9422654979351228 3.504103239212179 1.331797802800498
    vertex 1.9422859999999524 3.504130999999914 1.3317489999999674
    vertex 1.942245061970257 3.504109323618499 1.331747721485946
  endloop
endfacet
facet normal -0.5373105269206759 0.782618633032025 0.3143333785828516
  outer loop
    vertex 1.9422859999999524 3.504130999999914 1.3317489999999674
    vertex 1.9422654979351228 3.504103239212179 1.331797802800498
    vertex 1.9423009999999523 3.504121999999914 1.331798999999967
  endloop
endfacet
facet normal -0.4549922463552752 0.8426261814157996 0.2880332865298884
  outer loop
    vertex 1.9422654979351228 3.504103239212179 1.331797802800498
    vertex 1.9422859999999524 3.504130999999914 1.3317489999999674
    vertex 1.942245061970257 3.504109323618499 1.331747721485946
  endloop
endfacet
facet normal -0.4549922463552752 0.8426261814157996 0.2880332865298884
  outer loop
    vertex 1.9422859999999524 3.504130999999914 1.3317489999999674
    vertex 1.9422654979351228 3.504103239212179 1.331797802800498
    vertex 1.9423009999999523 3.504121999999914 1.331798999999967
  endloop
endfacet
facet normal -0.3183749905920378 0.9052496858455084 0.2813545301610204
  outer loop
    vertex 1.9421957295623302 3.504090944677465 1.3317467938817171
    vertex 1.9422254369184362 3.504115650202889 1.331700920833572
    vertex 1.942193708776536 3.5041046077794675 1.331700546584947
  endloop
endfacet
facet normal -0.3183749905920378 0.9052496858455084 0.2813545301610204
  outer loop
    vertex 1.9422254369184362 3.504115650202889 1.331700920833572
    vertex 1.9421957295623302 3.504090944677465 1.3317467938817171
    vertex 1.942245061970257 3.504109323618499 1.331747721485946
  endloop
endfacet
facet normal -0.5478310182786328 0.7955013528304877 0.2589570872879523
  outer loop
    vertex 1.9421957295623302 3.504090944677465 1.3317467938817171
    vertex 1.9422254369184362 3.504115650202889 1.331700920833572
    vertex 1.942193708776536 3.5041046077794675 1.331700546584947
  endloop
endfacet
facet normal -0.5478310182786328 0.7955013528304877 0.2589570872879523
  outer loop
    vertex 1.9422254369184362 3.504115650202889 1.331700920833572
    vertex 1.9421957295623302 3.504090944677465 1.3317467938817171
    vertex 1.942245061970257 3.504109323618499 1.331747721485946
  endloop
endfacet
facet normal -0.35062338761351786 0.8938671182326056 0.27940081424533864
  outer loop
    vertex 1.9421957295623302 3.504090944677465 1.3317467938817171
    vertex 1.9422254369184362 3.504115650202889 1.331700920833572
    vertex 1.942193708776536 3.5041046077794675 1.331700546584947
  endloop
endfacet
facet normal -0.35062338761351786 0.8938671182326056 0.27940081424533864
  outer loop
    vertex 1.9422254369184362 3.504115650202889 1.331700920833572
    vertex 1.9421957295623302 3.504090944677465 1.3317467938817171
    vertex 1.942245061970257 3.504109323618499 1.331747721485946
  endloop
endfacet
facet normal -0.5535880849657648 0.8123807007267788 0.18324254219641525
  outer loop
    vertex 1.9422254369184362 3.504115650202889 1.331700920833572
    vertex 1.9422064206787144 3.504122799640227 1.3316582989774046
    vertex 1.942193708776536 3.5041046077794675 1.331700546584947
  endloop
endfacet
facet normal -0.4657086406411332 0.855047102555364 0.2280568228399776
  outer loop
    vertex 1.9422254369184362 3.504115650202889 1.331700920833572
    vertex 1.9422064206787144 3.504122799640227 1.3316582989774046
    vertex 1.942193708776536 3.5041046077794675 1.331700546584947
  endloop
endfacet
facet normal -0.3173599662496412 0.901942375128884 0.29288667393531936
  outer loop
    vertex 1.9422254369184362 3.504115650202889 1.331700920833572
    vertex 1.9422064206787144 3.504122799640227 1.3316582989774046
    vertex 1.942193708776536 3.5041046077794675 1.331700546584947
  endloop
endfacet
facet normal -0.2812634071190305 0.9092361372948944 0.3068884853702639
  outer loop
    vertex 1.9422254369184362 3.504115650202889 1.331700920833572
    vertex 1.9422064206787144 3.504122799640227 1.3316582989774046
    vertex 1.942193708776536 3.5041046077794675 1.331700546584947
  endloop
endfacet
facet normal -0.33975823815321177 0.8978358094214951 0.28009855216954305
  outer loop
    vertex 1.9421957295623302 3.504090944677465 1.3317467938817171
    vertex 1.9422254369184362 3.504115650202889 1.331700920833572
    vertex 1.942193708776536 3.5041046077794675 1.331700546584947
  endloop
endfacet
facet normal -0.33975823815321177 0.8978358094214951 0.28009855216954305
  outer loop
    vertex 1.9422254369184362 3.504115650202889 1.331700920833572
    vertex 1.9421957295623302 3.504090944677465 1.3317467938817171
    vertex 1.942245061970257 3.504109323618499 1.331747721485946
  endloop
endfacet
facet normal -0.35062338761351786 0.8938671182326056 0.2794008142453386
  outer loop
    vertex 1.9422254369184362 3.504115650202889 1.331700920833572
    vertex 1.9422064206787144 3.504122799640227 1.3316582989774046
    vertex 1.942193708776536 3.5041046077794675 1.331700546584947
  endloop
endfacet
facet normal -0.27109413571246116 0.938800145953598 0.21251413021212748
  outer loop
    vertex 1.9421922973151535 3.503890963790192 1.3326301007805403
    vertex 1.942245061970257 3.504109323618499 1.331747721485946
    vertex 1.9421957295623302 3.504090944677465 1.3317467938817171
  endloop
endfacet
facet normal -0.27109413571246116 0.938800145953598 0.21251413021212748
  outer loop
    vertex 1.942245061970257 3.504109323618499 1.331747721485946
    vertex 1.9421922973151535 3.503890963790192 1.3326301007805403
    vertex 1.9422654979351228 3.504103239212179 1.331797802800498
  endloop
endfacet
facet normal -0.27109413571246116 0.938800145953598 0.21251413021212748
  outer loop
    vertex 1.9422654979351228 3.504103239212179 1.331797802800498
    vertex 1.9421922973151535 3.503890963790192 1.3326301007805403
    vertex 1.9423089999999523 3.5040919999999147 1.3319089999999671
  endloop
endfacet
facet normal -0.27109413571246116 0.938800145953598 0.21251413021212748
  outer loop
    vertex 1.9423089999999523 3.5040919999999147 1.3319089999999671
    vertex 1.9421922973151535 3.503890963790192 1.3326301007805403
    vertex 1.9422949999999524 3.5040499999999133 1.3320279999999671
  endloop
endfacet
facet normal -0.27109413571246116 0.938800145953598 0.21251413021212748
  outer loop
    vertex 1.9422949999999524 3.5040499999999133 1.3320279999999671
    vertex 1.9421922973151535 3.503890963790192 1.3326301007805403
    vertex 1.9421889999999522 3.502376999999914 1.3393169999999672
  endloop
endfacet
facet normal -0.27109413571246116 0.938800145953598 0.21251413021212748
  outer loop
    vertex 1.9421889999999522 3.502376999999914 1.3393169999999672
    vertex 1.9421922973151535 3.503890963790192 1.3326301007805403
    vertex 1.9421906367302177 3.5032107158745096 1.3356346241701282
  endloop
endfacet
facet normal -0.27109413571246116 0.938800145953598 0.21251413021212748
  outer loop
    vertex 1.9421906367302177 3.5032107158745096 1.3356346241701282
    vertex 1.9421922973151535 3.503890963790192 1.3326301007805403
    vertex 1.9421911119604507 3.5036578813582056 1.33365958001645
  endloop
endfacet
facet normal -1.0 -0.0 -0.0
  outer loop
    vertex 1.9421889999999522 3.521779999999913 1.306435999999968
    vertex 1.9421889999999522 3.504919591465654 1.3329162972261726
    vertex 1.9421889999999522 3.502376999999914 1.3393169999999672
  endloop
endfacet
facet normal -1.0 -0.0 -0.0
  outer loop
    vertex 1.9421889999999522 3.504919591465654 1.3329162972261726
    vertex 1.9421889999999522 3.521779999999913 1.306435999999968
    vertex 1.9421889999999522 3.5110009999999146 1.3176069999999676
  endloop
endfacet
facet normal -1.0 -0.0 -0.0
  outer loop
    vertex 1.9421889999999522 3.5042249999999133 1.3624319999999666
    vertex 1.9421889999999522 3.550321999999912 1.2968619999999682
    vertex 1.9421889999999522 3.5018219999999136 1.3471319999999667
  endloop
endfacet
facet normal -1.0 -0.0 -0.0
  outer loop
    vertex 1.9421889999999522 3.550321999999912 1.2968619999999682
    vertex 1.9421889999999522 3.5042249999999133 1.3624319999999666
    vertex 1.9421889999999522 3.5109449999999134 1.3760779999999662
  endloop
endfacet
facet normal -1.0 -0.0 -0.0
  outer loop
    vertex 1.9421889999999522 3.550321999999912 1.2968619999999682
    vertex 1.9421889999999522 3.5109449999999134 1.3760779999999662
    vertex 1.9421889999999522 3.5215289999999135 1.387097999999966
  endloop
endfacet
facet normal -1.0 -0.0 -0.0
  outer loop
    vertex 1.9421889999999522 3.550321999999912 1.2968619999999682
    vertex 1.9421889999999522 3.5215289999999135 1.387097999999966
    vertex 1.9421889999999522 3.5350639999999136 1.3943229999999658
  endloop
endfacet
facet normal -1.0 -0.0 -0.0
  outer loop
    vertex 1.9421889999999522 3.550321999999912 1.2968619999999682
    vertex 1.9421889999999522 3.5353029999999133 1.299313999999968
    vertex 1.9421889999999522 3.502376999999914 1.3393169999999672
  endloop
endfacet
facet normal -1.0 -0.0 -0.0
  outer loop
    vertex 1.9421889999999522 3.5353029999999133 1.299313999999968
    vertex 1.9421889999999522 3.521779999999913 1.306435999999968
    vertex 1.9421889999999522 3.502376999999914 1.3393169999999672
  endloop
endfacet
facet normal -1.0 -0.0 -0.0
  outer loop
    vertex 1.9421889999999522 3.550321999999912 1.2968619999999682
    vertex 1.9421889999999522 3.502376999999914 1.3393169999999672
    vertex 1.9421889999999522 3.5018219999999136 1.3471319999999667
  endloop
endfacet
facet normal -0.9999843244199018 -0.005203660538506151 -0.0020670828412749347
  outer loop
    vertex 1.9421889999999522 3.5110009999999146 1.3176069999999676
    vertex 1.9421957295623302 3.504090944677465 1.3317467938817171
    vertex 1.9421889999999522 3.504919591465654 1.3329162972261726
  endloop
endfacet
facet normal -0.9999843244199018 -0.005203660538506151 -0.0020670828412749347
  outer loop
    vertex 1.9421889999999522 3.5110009999999146 1.3176069999999676
    vertex 1.9421957295623302 3.504090944677465 1.3317467938817171
    vertex 1.9421889999999522 3.504919591465654 1.3329162972261726
  endloop
endfacet
facet normal -0.9999843244199018 -0.0052036605385058984 -0.0020670828412751494
  outer loop
    vertex 1.9421889999999522 3.504919591465654 1.3329162972261726
    vertex 1.9421957295623302 3.504090944677465 1.3317467938817171
    vertex 1.9421889999999522 3.502376999999914 1.3393169999999672
  endloop
endfacet
facet normal -0.9999843244199018 -0.0052036605385058984 -0.0020670828412751494
  outer loop
    vertex 1.9421889999999522 3.504919591465654 1.3329162972261726
    vertex 1.9421957295623302 3.504090944677465 1.3317467938817171
    vertex 1.9421889999999522 3.502376999999914 1.3393169999999672
  endloop
endfacet
facet normal -0.9999843244199018 -0.0052036605385058984 -0.0020670828412751494
  outer loop
    vertex 1.9421889999999522 3.504919591465654 1.3329162972261726
    vertex 1.9421957295623302 3.504090944677465 1.3317467938817171
    vertex 1.9421889999999522 3.502376999999914 1.3393169999999672
  endloop
endfacet
facet normal -0.9999843244199018 -0.0052036605385058984 -0.0020670828412751494
  outer loop
    vertex 1.9421889999999522 3.504919591465654 1.3329162972261726
    vertex 1.9421957295623302 3.504090944677465 1.3317467938817171
    vertex 1.9421889999999522 3.502376999999914 1.3393169999999672
  endloop
endfacet
facet normal -0.9999843244199018 -0.0052036605385058984 -0.002067082841275149
  outer loop
    vertex 1.9421889999999522 3.504919591465654 1.3329162972261726
    vertex 1.9421957295623302 3.504090944677465 1.3317467938817171
    vertex 1.9421889999999522 3.502376999999914 1.3393169999999672
  endloop
endfacet
facet normal -0.004506787146423294 0.14641796450517178 0.9892125497282064
  outer loop
    vertex 1.9543739999999519 3.5416399999999135 1.298201999999968
    vertex 1.951468994664601 3.55032501833504 1.2969035082450515
    vertex 1.9496529999999526 3.550323999999912 1.2968949999999682
  endloop
endfacet
facet normal -0.004506787146423294 0.14641796450517178 0.9892125497282064
  outer loop
    vertex 1.951468994664601 3.55032501833504 1.2969035082450515
    vertex 1.9543739999999519 3.5416399999999135 1.298201999999968
    vertex 1.9534469999999517 3.5503259999999126 1.2969119999999683
  endloop
endfacet
facet normal -7.970045264659459e-07 -0.06257389181540662 -0.9980403338855794
  outer loop
    vertex 2.072659999999949 3.587669999999912 1.097341999999973
    vertex 2.005446999999951 3.579969999999912 1.097824999999973
    vertex 2.003612999999951 3.5885469999999122 1.0972869999999728
  endloop
endfacet
facet normal -7.970045264659459e-07 -0.06257389181540662 -0.9980403338855794
  outer loop
    vertex 2.005446999999951 3.579969999999912 1.097824999999973
    vertex 2.072659999999949 3.587669999999912 1.097341999999973
    vertex 2.008734999999951 3.571868999999912 1.098332999999973
  endloop
endfacet
facet normal -7.970045264659459e-07 -0.06257389181540662 -0.9980403338855794
  outer loop
    vertex 2.008734999999951 3.571868999999912 1.098332999999973
    vertex 2.072659999999949 3.587669999999912 1.097341999999973
    vertex 2.0135149999999506 3.564558999999912 1.098790999999973
  endloop
endfacet
facet normal -7.970045264659459e-07 -0.06257389181540662 -0.9980403338855794
  outer loop
    vertex 2.0135149999999506 3.564558999999912 1.098790999999973
    vertex 2.072659999999949 3.587669999999912 1.097341999999973
    vertex 2.0195209999999504 3.5586289999999123 1.0991629999999728
  endloop
endfacet
facet normal -7.970045264659459e-07 -0.06257389181540662 -0.9980403338855794
  outer loop
    vertex 2.0195209999999504 3.5586289999999123 1.0991629999999728
    vertex 2.072659999999949 3.587669999999912 1.097341999999973
    vertex 2.02653699999995 3.5543939999999123 1.0994279999999732
  endloop
endfacet
facet normal -7.970045264659459e-07 -0.06257389181540662 -0.9980403338855794
  outer loop
    vertex 2.02653699999995 3.5543939999999123 1.0994279999999732
    vertex 2.072659999999949 3.587669999999912 1.097341999999973
    vertex 2.03434299999995 3.552168999999912 1.0995679999999732
  endloop
endfacet
facet normal -7.970045264659459e-07 -0.06257389181540662 -0.9980403338855794
  outer loop
    vertex 2.03434299999995 3.552168999999912 1.0995679999999732
    vertex 2.072659999999949 3.587669999999912 1.097341999999973
    vertex 2.0425569999999498 3.552241999999912 1.099562999999973
  endloop
endfacet
facet normal -7.970045264659459e-07 -0.06257389181540662 -0.9980403338855794
  outer loop
    vertex 2.0425569999999498 3.552241999999912 1.099562999999973
    vertex 2.072659999999949 3.587669999999912 1.097341999999973
    vertex 2.0501769999999504 3.554532999999913 1.099419999999973
  endloop
endfacet
facet normal -7.970045264659459e-07 -0.06257389181540662 -0.9980403338855794
  outer loop
    vertex 2.0501769999999504 3.554532999999913 1.099419999999973
    vertex 2.072659999999949 3.587669999999912 1.097341999999973
    vertex 2.05612399999995 3.558020999999912 1.099200999999973
  endloop
endfacet
facet normal -7.970045264659459e-07 -0.06257389181540662 -0.9980403338855794
  outer loop
    vertex 2.05612399999995 3.558020999999912 1.099200999999973
    vertex 2.072659999999949 3.587669999999912 1.097341999999973
    vertex 2.0612229999999494 3.562599999999913 1.0989139999999729
  endloop
endfacet
facet normal -7.970045264659459e-07 -0.06257389181540662 -0.9980403338855794
  outer loop
    vertex 2.0612229999999494 3.562599999999913 1.0989139999999729
    vertex 2.072659999999949 3.587669999999912 1.097341999999973
    vertex 2.0687929999999493 3.5742559999999126 1.0981829999999728
  endloop
endfacet
endsolid 2015new_separate_human-HUTA
