solid Object01
facet normal -0.544232551873725 -0.48767283281788804 -0.6826317730756383
  outer loop
    vertex 2.000857999999951 3.568763999999912 1.3699619999999662
    vertex 1.9838369999999512 3.568402999999912 1.383789999999966
    vertex 1.9984849999999508 3.576477999999912 1.3663429999999663
  endloop
endfacet
facet normal -0.1922801664037412 -0.9565081111454118 -0.21936401464412172
  outer loop
    vertex 1.9740079999999514 3.5934079999999122 1.3592389999999668
    vertex 1.9823429999999513 3.5956919999999117 1.341973999999967
    vertex 1.9871969999999515 3.593039999999912 1.3492829999999667
  endloop
endfacet
facet normal -0.07120813286025861 -0.35035227705633093 -0.9339072136866702
  outer loop
    vertex 1.9635999999999516 3.568748999999913 1.391481999999966
    vertex 1.9421889999999522 3.5655889999999126 1.394299999999966
    vertex 1.952667999999952 3.574118999999912 1.3903009999999658
  endloop
endfacet
facet normal -0.3208910303329834 -0.4953560284495279 -0.807249250065026
  outer loop
    vertex 1.9820919999999513 3.576362999999912 1.379458999999966
    vertex 1.9635999999999516 3.568748999999913 1.391481999999966
    vertex 1.9626879999999516 3.5768849999999115 1.3868519999999658
  endloop
endfacet
facet normal -0.31401004863582893 -0.5059504749121619 -0.8033752587003673
  outer loop
    vertex 1.9838369999999512 3.568402999999912 1.383789999999966
    vertex 1.9635999999999516 3.568748999999913 1.391481999999966
    vertex 1.9820919999999513 3.576362999999912 1.379458999999966
  endloop
endfacet
facet normal -0.47661569819111105 -0.6412893833080824 -0.601319717865745
  outer loop
    vertex 1.9820919999999513 3.576362999999912 1.379458999999966
    vertex 1.995370999999951 3.583220999999912 1.3616199999999667
    vertex 1.9984849999999508 3.576477999999912 1.3663429999999663
  endloop
endfacet
facet normal -0.14971447668408697 -0.9577488057696643 -0.24556628538541667
  outer loop
    vertex 1.9585739999999516 3.5943329999999114 1.3650409999999664
    vertex 1.9706009999999519 3.596130999999912 1.3506959999999666
    vertex 1.9740079999999514 3.5934079999999122 1.3592389999999668
  endloop
endfacet
facet normal -0.5424521698903532 -0.49014244003249297 -0.6822800245209013
  outer loop
    vertex 1.9984849999999508 3.576477999999912 1.3663429999999663
    vertex 1.9838369999999512 3.568402999999912 1.383789999999966
    vertex 1.9820919999999513 3.576362999999912 1.379458999999966
  endloop
endfacet
facet normal -0.07708639340820082 -0.9955789627176815 -0.053667652690436655
  outer loop
    vertex 1.9706009999999519 3.596130999999912 1.3506959999999666
    vertex 1.977398999999951 3.5964769999999118 1.3345129999999672
    vertex 1.9823429999999513 3.5956919999999117 1.341973999999967
  endloop
endfacet
facet normal -0.09671753163008437 -0.9933872165821981 -0.06186725310256526
  outer loop
    vertex 1.9706009999999519 3.596130999999912 1.3506959999999666
    vertex 1.9671249999999516 3.5970129999999116 1.3419679999999672
    vertex 1.977398999999951 3.5964769999999118 1.3345129999999672
  endloop
endfacet
facet normal -0.28350066451321976 -0.657981279738878 -0.6976302808320115
  outer loop
    vertex 1.9820919999999513 3.576362999999912 1.379458999999966
    vertex 1.9626879999999516 3.5768849999999115 1.3868519999999658
    vertex 1.9798329999999515 3.583312999999912 1.3738219999999663
  endloop
endfacet
facet normal -0.25593058739902347 -0.7766271005883199 -0.5756299862458267
  outer loop
    vertex 1.9615279999999515 3.583997999999912 1.3807919999999663
    vertex 1.960147999999952 3.5898819999999114 1.3734669999999662
    vertex 1.9771179999999513 3.589059999999912 1.3670309999999666
  endloop
endfacet
facet normal -0.04245114543037288 -0.9917177815495669 0.12121774626701674
  outer loop
    vertex 1.9550629999999518 3.598050999999912 1.346235999999967
    vertex 1.9636949999999518 3.596103999999912 1.333329999999967
    vertex 1.9671249999999516 3.5970129999999116 1.3419679999999672
  endloop
endfacet
facet normal -0.06701331883571653 -0.9922259154918642 0.10486633265712392
  outer loop
    vertex 1.9550629999999518 3.598050999999912 1.346235999999967
    vertex 1.9532779999999519 3.597168999999912 1.3367499999999672
    vertex 1.9636949999999518 3.596103999999912 1.333329999999967
  endloop
endfacet
facet normal -0.34102618269258694 -0.3234318667084161 -0.8826624328222152
  outer loop
    vertex 1.9838369999999512 3.568402999999912 1.383789999999966
    vertex 1.9642359999999517 3.559792999999913 1.3945179999999655
    vertex 1.9635999999999516 3.568748999999913 1.391481999999966
  endloop
endfacet
facet normal 0.055279272314510325 -0.11849437810717445 0.9914147892831597
  outer loop
    vertex 1.9459749999999523 3.555869999999913 1.2973139999999683
    vertex 1.9421889999999522 3.5614999999999126 1.298197999999968
    vertex 1.9421889999999522 3.550321999999912 1.2968619999999682
  endloop
endfacet
facet normal -0.2125284563060655 -0.8798526288790042 -0.4250776478655002
  outer loop
    vertex 1.960147999999952 3.5898819999999114 1.3734669999999662
    vertex 1.9585739999999516 3.5943329999999114 1.3650409999999664
    vertex 1.9740079999999514 3.5934079999999122 1.3592389999999668
  endloop
endfacet
facet normal -0.3935751499311903 -0.7744276152670546 -0.4953387427492663
  outer loop
    vertex 1.9798329999999515 3.583312999999912 1.3738219999999663
    vertex 1.9915849999999509 3.588804999999912 1.3558979999999667
    vertex 1.995370999999951 3.583220999999912 1.3616199999999667
  endloop
endfacet
facet normal -0.3359638813127189 -0.3329594537445371 -0.8810597440670144
  outer loop
    vertex 1.9850069999999511 3.5596279999999125 1.386659999999966
    vertex 1.9642359999999517 3.559792999999913 1.3945179999999655
    vertex 1.9838369999999512 3.568402999999912 1.383789999999966
  endloop
endfacet
facet normal -0.5942623111272861 -0.3186419561659744 -0.7384575880471255
  outer loop
    vertex 2.0024199999999506 3.5602679999999123 1.3723709999999663
    vertex 1.9850069999999511 3.5596279999999125 1.386659999999966
    vertex 2.000857999999951 3.568763999999912 1.3699619999999662
  endloop
endfacet
facet normal -0.2016838795935293 -0.9536050131250852 -0.22351977911318968
  outer loop
    vertex 1.9740079999999514 3.5934079999999122 1.3592389999999668
    vertex 1.9706009999999519 3.596130999999912 1.3506959999999666
    vertex 1.9823429999999513 3.5956919999999117 1.341973999999967
  endloop
endfacet
facet normal -0.24539360041971406 -0.7861698039500213 -0.5672028034400349
  outer loop
    vertex 1.9615279999999515 3.583997999999912 1.3807919999999663
    vertex 1.9771179999999513 3.589059999999912 1.3670309999999666
    vertex 1.9798329999999515 3.583312999999912 1.3738219999999663
  endloop
endfacet
facet normal -0.163105553186222 -0.9527715797852754 -0.2561696611101464
  outer loop
    vertex 1.9585739999999516 3.5943329999999114 1.3650409999999664
    vertex 1.9568499999999516 3.5971199999999115 1.3557729999999666
    vertex 1.9706009999999519 3.596130999999912 1.3506959999999666
  endloop
endfacet
facet normal -0.4758035896333007 -0.6421488330058691 -0.6010456058913218
  outer loop
    vertex 1.9820919999999513 3.576362999999912 1.379458999999966
    vertex 1.9798329999999515 3.583312999999912 1.3738219999999663
    vertex 1.995370999999951 3.583220999999912 1.3616199999999667
  endloop
endfacet
facet normal -0.5931555080040395 -0.32062213503055786 -0.7384903451318213
  outer loop
    vertex 2.000857999999951 3.568763999999912 1.3699619999999662
    vertex 1.9850069999999511 3.5596279999999125 1.386659999999966
    vertex 1.9838369999999512 3.568402999999912 1.383789999999966
  endloop
endfacet
facet normal -0.09461400471843215 -0.9935363020063729 -0.06272006622000639
  outer loop
    vertex 1.9568499999999516 3.5971199999999115 1.3557729999999666
    vertex 1.9671249999999516 3.5970129999999116 1.3419679999999672
    vertex 1.9706009999999519 3.596130999999912 1.3506959999999666
  endloop
endfacet
facet normal -0.112059361823268 -0.990811949993175 -0.0757256837439183
  outer loop
    vertex 1.9568499999999516 3.5971199999999115 1.3557729999999666
    vertex 1.9550629999999518 3.598050999999912 1.346235999999967
    vertex 1.9671249999999516 3.5970129999999116 1.3419679999999672
  endloop
endfacet
facet normal -0.3953953351301037 -0.7730127272425682 -0.49609863180456365
  outer loop
    vertex 1.9798329999999515 3.583312999999912 1.3738219999999663
    vertex 1.9771179999999513 3.589059999999912 1.3670309999999666
    vertex 1.9915849999999509 3.588804999999912 1.3558979999999667
  endloop
endfacet
facet normal -0.2977655776469254 -0.8813798429574083 -0.3667495510521686
  outer loop
    vertex 1.9771179999999513 3.589059999999912 1.3670309999999666
    vertex 1.9871969999999515 3.593039999999912 1.3492829999999667
    vertex 1.9915849999999509 3.588804999999912 1.3558979999999667
  endloop
endfacet
facet normal -0.20043972105714328 -0.8873885815922946 -0.4151691504461165
  outer loop
    vertex 1.960147999999952 3.5898819999999114 1.3734669999999662
    vertex 1.9740079999999514 3.5934079999999122 1.3592389999999668
    vertex 1.9771179999999513 3.589059999999912 1.3670309999999666
  endloop
endfacet
facet normal -0.292255850678375 -0.6473706829124934 -0.7039159869257633
  outer loop
    vertex 1.9798329999999515 3.583312999999912 1.3738219999999663
    vertex 1.9626879999999516 3.5768849999999115 1.3868519999999658
    vertex 1.9615279999999515 3.583997999999912 1.3807919999999663
  endloop
endfacet
facet normal -0.30320522647546144 -0.8785004930180584 -0.36919300427417695
  outer loop
    vertex 1.9771179999999513 3.589059999999912 1.3670309999999666
    vertex 1.9740079999999514 3.5934079999999122 1.3592389999999668
    vertex 1.9871969999999515 3.593039999999912 1.3492829999999667
  endloop
endfacet
facet normal 0.6469918757274439 -0.7624963081040248 -0.0009449182060857852
  outer loop
    vertex 1.9745379999999515 3.5932039999999117 1.3140179999999675
    vertex 1.9694039999999515 3.588853999999912 1.308940999999968
    vertex 2.0225709999999504 3.634232999999911 1.0944219999999731
  endloop
endfacet
facet normal 0.7826598008861205 -0.6200352797090839 0.05477123326141588
  outer loop
    vertex 2.0161439999999504 3.629083999999911 1.094744999999973
    vertex 1.9649219999999519 3.582956999999912 1.304508999999968
    vertex 2.010844999999951 3.6224319999999106 1.0951619999999729
  endloop
endfacet
facet normal 0.8694968631785099 -0.48381154138581456 0.09950677034560923
  outer loop
    vertex 2.010844999999951 3.6224319999999106 1.0951619999999729
    vertex 1.9649219999999519 3.582956999999912 1.304508999999968
    vertex 1.9613379999999518 3.5757869999999117 1.300964999999968
  endloop
endfacet
facet normal 0.003479919682791215 -0.4847098557137534 0.8746680775774052
  outer loop
    vertex 1.9509359999999523 3.5681519999999125 1.300587999999968
    vertex 1.9474559999999526 3.5769059999999118 1.305452999999968
    vertex 1.946622999999952 3.568665999999912 1.3008899999999681
  endloop
endfacet
facet normal 0.047282194846608394 -0.4708003336660684 0.8809718723491722
  outer loop
    vertex 1.9525239999999515 3.576164999999912 1.304784999999968
    vertex 1.9474559999999526 3.5769059999999118 1.305452999999968
    vertex 1.9509359999999523 3.5681519999999125 1.300587999999968
  endloop
endfacet
facet normal -0.009709709093495689 -0.8897063471638176 0.45642999174652865
  outer loop
    vertex 1.951559999999952 3.5945329999999123 1.3276169999999676
    vertex 1.9499709999999517 3.590199999999912 1.3191369999999676
    vertex 1.9573799999999517 3.5891869999999115 1.3173199999999676
  endloop
endfacet
facet normal 0.1797807598370352 -0.7816628767474177 0.5972286208039342
  outer loop
    vertex 1.9573799999999517 3.5891869999999115 1.3173199999999676
    vertex 1.954700999999952 3.583317999999912 1.3104449999999677
    vertex 1.960019999999952 3.582563999999912 1.3078569999999679
  endloop
endfacet
facet normal 0.0017708558184090263 -0.7835388016621293 0.6213403337620573
  outer loop
    vertex 1.9499709999999517 3.590199999999912 1.3191369999999676
    vertex 1.9485789999999523 3.584227999999912 1.3116099999999677
    vertex 1.954700999999952 3.583317999999912 1.3104449999999677
  endloop
endfacet
facet normal 0.2413418976341696 -0.4408635832865768 0.8645191665764604
  outer loop
    vertex 1.9570879999999518 3.5755219999999124 1.303182999999968
    vertex 1.9525239999999515 3.576164999999912 1.304784999999968
    vertex 1.9549919999999517 3.5676719999999125 1.299764999999968
  endloop
endfacet
facet normal 0.1390583212069993 -0.97882592802535 -0.1502084748887483
  outer loop
    vertex 1.9801429999999514 3.595896999999912 1.3195599999999676
    vertex 2.0299699999999503 3.6375569999999104 1.0942129999999732
    vertex 2.0381889999999503 3.638735999999911 1.0941389999999729
  endloop
endfacet
facet normal 0.00159100867809731 -0.9533904455519395 0.30173519354172196
  outer loop
    vertex 1.9532779999999519 3.597168999999912 1.3367499999999672
    vertex 1.960411999999952 3.593471999999912 1.3250309999999674
    vertex 1.9636949999999518 3.596103999999912 1.333329999999967
  endloop
endfacet
facet normal 0.006627609586143183 -0.6441727110081379 0.7648513536521981
  outer loop
    vertex 1.9525239999999515 3.576164999999912 1.304784999999968
    vertex 1.9485789999999523 3.584227999999912 1.3116099999999677
    vertex 1.9474559999999526 3.5769059999999118 1.305452999999968
  endloop
endfacet
facet normal 0.11972879643434936 -0.479160909870861 0.8695227643691169
  outer loop
    vertex 1.9549919999999517 3.5676719999999125 1.299764999999968
    vertex 1.9525239999999515 3.576164999999912 1.304784999999968
    vertex 1.9509359999999523 3.5681519999999125 1.300587999999968
  endloop
endfacet
facet normal 0.08343196000099906 -0.9589243316632502 0.2711147989221182
  outer loop
    vertex 1.9636949999999518 3.596103999999912 1.333329999999967
    vertex 1.960411999999952 3.593471999999912 1.3250309999999674
    vertex 1.9679239999999518 3.592733999999912 1.3201089999999676
  endloop
endfacet
facet normal 0.2597669151264893 -0.755610778351283 0.6013098215105384
  outer loop
    vertex 1.9573799999999517 3.5891869999999115 1.3173199999999676
    vertex 1.960019999999952 3.582563999999912 1.3078569999999679
    vertex 1.9636989999999517 3.588402999999912 1.3136049999999677
  endloop
endfacet
facet normal 0.17146149077061942 -0.6428889692971381 0.7465217547659146
  outer loop
    vertex 1.9570879999999518 3.5755219999999124 1.303182999999968
    vertex 1.954700999999952 3.583317999999912 1.3104449999999677
    vertex 1.9525239999999515 3.576164999999912 1.304784999999968
  endloop
endfacet
facet normal 0.4772809345918541 -0.8769270354865516 -0.05658519159545484
  outer loop
    vertex 1.9801429999999514 3.595896999999912 1.3195599999999676
    vertex 1.9745379999999515 3.5932039999999117 1.3140179999999675
    vertex 2.0299699999999503 3.6375569999999104 1.0942129999999732
  endloop
endfacet
facet normal 0.20653749829718573 -0.8709728704246991 0.4458122034907755
  outer loop
    vertex 1.960411999999952 3.593471999999912 1.3250309999999674
    vertex 1.9636989999999517 3.588402999999912 1.3136049999999677
    vertex 1.9679239999999518 3.592733999999912 1.3201089999999676
  endloop
endfacet
facet normal 0.40653843127058226 -0.9100266829024979 -0.08110450237521148
  outer loop
    vertex 1.9745379999999515 3.5932039999999117 1.3140179999999675
    vertex 2.0225709999999504 3.634232999999911 1.0944219999999731
    vertex 2.0299699999999503 3.6375569999999104 1.0942129999999732
  endloop
endfacet
facet normal 0.776136315109944 -0.6284730621083057 0.051322807520318904
  outer loop
    vertex 2.0161439999999504 3.629083999999911 1.094744999999973
    vertex 1.9694039999999515 3.588853999999912 1.308940999999968
    vertex 1.9649219999999519 3.582956999999912 1.304508999999968
  endloop
endfacet
facet normal 0.6248958090089486 -0.7806407433914863 -0.010259514620073792
  outer loop
    vertex 1.9694039999999515 3.588853999999912 1.308940999999968
    vertex 2.0161439999999504 3.629083999999911 1.094744999999973
    vertex 2.0225709999999504 3.634232999999911 1.0944219999999731
  endloop
endfacet
facet normal 0.03349882834987759 -0.8791478501828892 0.4753702620252865
  outer loop
    vertex 1.951559999999952 3.5945329999999123 1.3276169999999676
    vertex 1.9573799999999517 3.5891869999999115 1.3173199999999676
    vertex 1.960411999999952 3.593471999999912 1.3250309999999674
  endloop
endfacet
facet normal -0.03229747542074973 -0.9586458041839602 0.2827633201140746
  outer loop
    vertex 1.9532779999999519 3.597168999999912 1.3367499999999672
    vertex 1.951559999999952 3.5945329999999123 1.3276169999999676
    vertex 1.960411999999952 3.593471999999912 1.3250309999999674
  endloop
endfacet
facet normal 0.051000913257026256 -0.7692961456787661 0.636853473799699
  outer loop
    vertex 1.9499709999999517 3.590199999999912 1.3191369999999676
    vertex 1.954700999999952 3.583317999999912 1.3104449999999677
    vertex 1.9573799999999517 3.5891869999999115 1.3173199999999676
  endloop
endfacet
facet normal 0.03240958166608507 -0.9927157399928153 0.11603912524121637
  outer loop
    vertex 1.9671249999999516 3.5970129999999116 1.3419679999999672
    vertex 1.9725419999999516 3.595457999999912 1.3271519999999675
    vertex 1.977398999999951 3.5964769999999118 1.3345129999999672
  endloop
endfacet
facet normal 0.12846576461706424 -0.9503759959815968 0.2833408081857272
  outer loop
    vertex 1.9636949999999518 3.596103999999912 1.333329999999967
    vertex 1.9679239999999518 3.592733999999912 1.3201089999999676
    vertex 1.9725419999999516 3.595457999999912 1.3271519999999675
  endloop
endfacet
facet normal 0.1461510800844826 -0.8880022437449239 0.43599527164192964
  outer loop
    vertex 1.960411999999952 3.593471999999912 1.3250309999999674
    vertex 1.9573799999999517 3.5891869999999115 1.3173199999999676
    vertex 1.9636989999999517 3.588402999999912 1.3136049999999677
  endloop
endfacet
facet normal 0.00036326612084558587 -0.9945235441254368 0.10451214387766698
  outer loop
    vertex 1.9671249999999516 3.5970129999999116 1.3419679999999672
    vertex 1.9636949999999518 3.596103999999912 1.333329999999967
    vertex 1.9725419999999516 3.595457999999912 1.3271519999999675
  endloop
endfacet
facet normal 0.05388872042807934 -0.629647675804229 0.775009554886233
  outer loop
    vertex 1.954700999999952 3.583317999999912 1.3104449999999677
    vertex 1.9485789999999523 3.584227999999912 1.3116099999999677
    vertex 1.9525239999999515 3.576164999999912 1.304784999999968
  endloop
endfacet
facet normal 0.2757274404941266 -0.6086245898164521 0.7440097359775028
  outer loop
    vertex 1.960019999999952 3.582563999999912 1.3078569999999679
    vertex 1.954700999999952 3.583317999999912 1.3104449999999677
    vertex 1.9570879999999518 3.5755219999999124 1.303182999999968
  endloop
endfacet
facet normal 0.2633801088858443 -0.9579064177527068 -0.11422002044938302
  outer loop
    vertex 1.9860399999999516 3.596822999999912 1.325391999999967
    vertex 1.9801429999999514 3.595896999999912 1.3195599999999676
    vertex 2.0381889999999503 3.638735999999911 1.0941389999999729
  endloop
endfacet
facet normal 0.9736718520333015 -0.10484786243432033 0.20241059829217045
  outer loop
    vertex 2.00427799999995 3.606071999999912 1.0961879999999729
    vertex 1.9574569999999516 3.559183999999913 1.2971269999999682
    vertex 2.003223999999951 3.5973399999999116 1.0967349999999731
  endloop
endfacet
facet normal 0.9699687165642948 0.05774390558499609 0.23627596207487028
  outer loop
    vertex 2.003223999999951 3.5973399999999116 1.0967349999999731
    vertex 1.9572569999999516 3.550326999999913 1.2969299999999682
    vertex 2.003612999999951 3.5885469999999122 1.0972869999999728
  endloop
endfacet
facet normal -0.1124129447086098 -0.9729760863661598 -0.20169498065527133
  outer loop
    vertex 1.9860399999999516 3.596822999999912 1.325391999999967
    vertex 2.0381889999999503 3.638735999999911 1.0941389999999729
    vertex 2.0449629999999503 3.63794299999991 1.094188999999973
  endloop
endfacet
facet normal 0.019153799794477108 -0.9851994141290276 -0.17033862261170865
  outer loop
    vertex 1.9917879999999508 3.595951999999912 1.331075999999967
    vertex 1.9860399999999516 3.596822999999912 1.325391999999967
    vertex 2.0449629999999503 3.63794299999991 1.094188999999973
  endloop
endfacet
facet normal -0.3266872671780574 -0.915301654976358 -0.23558079264081108
  outer loop
    vertex 1.9917879999999508 3.595951999999912 1.331075999999967
    vertex 2.0449629999999503 3.63794299999991 1.094188999999973
    vertex 2.051200999999949 3.6356799999999105 1.0943309999999733
  endloop
endfacet
facet normal -0.6546468592494187 -0.707164088769868 -0.2671262645812914
  outer loop
    vertex 2.002426999999951 3.589162999999912 1.3415959999999671
    vertex 2.0568219999999493 3.6321259999999107 1.0945539999999732
    vertex 2.0617459999999492 3.627456999999911 1.094846999999973
  endloop
endfacet
facet normal -0.6455805223336211 -0.7157652722572483 -0.266281550645095
  outer loop
    vertex 2.0067079999999504 3.5837269999999117 1.345828999999967
    vertex 2.002426999999951 3.589162999999912 1.3415959999999671
    vertex 2.0617459999999492 3.627456999999911 1.094846999999973
  endloop
endfacet
facet normal -0.8107384187789892 -0.5202382360303291 -0.2684313582422813
  outer loop
    vertex 2.0617459999999492 3.627456999999911 1.094846999999973
    vertex 2.069177999999949 3.615487999999911 1.095596999999973
    vertex 2.0067079999999504 3.5837269999999117 1.345828999999967
  endloop
endfacet
facet normal 0.9658959013659845 -0.18406406017683768 0.18211405622743676
  outer loop
    vertex 2.00427799999995 3.606071999999912 1.0961879999999729
    vertex 1.9588359999999518 3.567769999999912 1.298490999999968
    vertex 1.9574569999999516 3.559183999999913 1.2971269999999682
  endloop
endfacet
facet normal -0.5092121473347184 -0.8214744727691643 -0.2566762154843891
  outer loop
    vertex 1.997410999999951 3.593312999999912 1.336635999999967
    vertex 2.051200999999949 3.6356799999999105 1.0943309999999733
    vertex 2.0568219999999493 3.6321259999999107 1.0945539999999732
  endloop
endfacet
facet normal -0.4589529548778746 -0.8527506297622895 -0.24935626851732876
  outer loop
    vertex 2.002426999999951 3.589162999999912 1.3415959999999671
    vertex 1.997410999999951 3.593312999999912 1.336635999999967
    vertex 2.0568219999999493 3.6321259999999107 1.0945539999999732
  endloop
endfacet
facet normal 0.9313589874901215 -0.3348154593089999 0.14307006894902755
  outer loop
    vertex 2.006827999999951 3.6145949999999107 1.0956529999999733
    vertex 1.9613379999999518 3.5757869999999117 1.300964999999968
    vertex 1.9588359999999518 3.567769999999912 1.298490999999968
  endloop
endfacet
facet normal -0.23056723628688555 -0.9485429485245392 -0.21703691933724234
  outer loop
    vertex 1.997410999999951 3.593312999999912 1.336635999999967
    vertex 1.9917879999999508 3.595951999999912 1.331075999999967
    vertex 2.051200999999949 3.6356799999999105 1.0943309999999733
  endloop
endfacet
facet normal 0.8871451567987932 -0.44770986668342283 0.11193456143102713
  outer loop
    vertex 2.010844999999951 3.6224319999999106 1.0951619999999729
    vertex 1.9613379999999518 3.5757869999999117 1.300964999999968
    vertex 2.006827999999951 3.6145949999999107 1.0956529999999733
  endloop
endfacet
facet normal 0.9756439429851347 -0.026873347675607964 0.2177078769845626
  outer loop
    vertex 2.003223999999951 3.5973399999999116 1.0967349999999731
    vertex 1.9574399999999519 3.5589939999999127 1.2971109999999682
    vertex 1.9572569999999516 3.550326999999913 1.2969299999999682
  endloop
endfacet
facet normal 0.9756439429851347 -0.026873347675607964 0.2177078769845626
  outer loop
    vertex 1.9574399999999519 3.5589939999999127 1.2971109999999682
    vertex 2.003223999999951 3.5973399999999116 1.0967349999999731
    vertex 1.9574569999999516 3.559183999999913 1.2971269999999682
  endloop
endfacet
facet normal 0.9482431623800783 -0.27358656615368154 0.16119955278990605
  outer loop
    vertex 2.006827999999951 3.6145949999999107 1.0956529999999733
    vertex 1.9588359999999518 3.567769999999912 1.298490999999968
    vertex 2.00427799999995 3.606071999999912 1.0961879999999729
  endloop
endfacet
facet normal -0.9716493291099731 0.12229239744646585 -0.20234166839021342
  outer loop
    vertex 2.072659999999949 3.587669999999912 1.097341999999973
    vertex 2.01351799999995 3.5400509999999135 1.3525629999999667
    vertex 2.01490299999995 3.553321999999912 1.3539329999999667
  endloop
endfacet
facet normal -0.9755251959176054 -0.0021837838370977695 -0.21987683647458317
  outer loop
    vertex 2.0728259999999494 3.6016159999999116 1.0964669999999734
    vertex 2.072659999999949 3.587669999999912 1.097341999999973
    vertex 2.01490299999995 3.553321999999912 1.3539329999999667
  endloop
endfacet
facet normal -0.9319703243270518 -0.26087418096362597 -0.2517458565305244
  outer loop
    vertex 2.069177999999949 3.615487999999911 1.095596999999973
    vertex 2.0728259999999494 3.6016159999999116 1.0964669999999734
    vertex 2.01274899999995 3.5698389999999125 1.3518029999999672
  endloop
endfacet
facet normal -0.9388233849347535 -0.23652962145812015 -0.2503285642361458
  outer loop
    vertex 2.0143259999999503 3.561992999999913 1.3533629999999668
    vertex 2.0728259999999494 3.6016159999999116 1.0964669999999734
    vertex 2.0143509999999507 3.5618039999999125 1.3533869999999666
  endloop
endfacet
facet normal -0.9388233849347535 -0.23652962145812015 -0.2503285642361458
  outer loop
    vertex 2.0728259999999494 3.6016159999999116 1.0964669999999734
    vertex 2.0143259999999503 3.561992999999913 1.3533629999999668
    vertex 2.01274899999995 3.5698389999999125 1.3518029999999672
  endloop
endfacet
facet normal -0.7852498616814826 -0.5586786256304951 -0.26694727567973775
  outer loop
    vertex 2.069177999999949 3.615487999999911 1.095596999999973
    vertex 2.0101749999999505 3.577215999999912 1.349256999999967
    vertex 2.0067079999999504 3.5837269999999117 1.345828999999967
  endloop
endfacet
facet normal -0.8785589463233381 -0.3977924831247553 -0.264377227091645
  outer loop
    vertex 2.069177999999949 3.615487999999911 1.095596999999973
    vertex 2.01274899999995 3.5698389999999125 1.3518029999999672
    vertex 2.0101749999999505 3.577215999999912 1.349256999999967
  endloop
endfacet
facet normal -0.9694020625346773 -0.07806913389524621 -0.23273343439729433
  outer loop
    vertex 2.0728259999999494 3.6016159999999116 1.0964669999999734
    vertex 2.01490299999995 3.553321999999912 1.3539329999999667
    vertex 2.0143509999999507 3.5618039999999125 1.3533869999999666
  endloop
endfacet
facet normal -0.8561772437620023 0.11784647762751838 -0.5030633508564181
  outer loop
    vertex 2.01490299999995 3.553321999999912 1.3539329999999667
    vertex 2.0025499999999505 3.542675999999913 1.3724629999999662
    vertex 2.0031749999999504 3.5511909999999136 1.3733939999999663
  endloop
endfacet
facet normal -0.03221133342261961 0.16406219028938632 -0.9859239462131884
  outer loop
    vertex 1.9643179999999518 3.5408569999999133 1.3945639999999655
    vertex 1.9421889999999522 3.5350639999999136 1.3943229999999658
    vertex 1.9421889999999522 3.550321999999912 1.3968619999999656
  endloop
endfacet
facet normal -0.3493726846580954 0.13045665106813423 -0.9278576342343056
  outer loop
    vertex 1.985655999999951 3.550234999999912 1.3878479999999658
    vertex 1.9643179999999518 3.5408569999999133 1.3945639999999655
    vertex 1.9646119999999516 3.550228999999913 1.395770999999966
  endloop
endfacet
facet normal -0.047657469156590804 0.12905827145325832 -0.9904911550352612
  outer loop
    vertex 1.9646119999999516 3.550228999999913 1.395770999999966
    vertex 1.9643179999999518 3.5408569999999133 1.3945639999999655
    vertex 1.9421889999999522 3.550321999999912 1.3968619999999656
  endloop
endfacet
facet normal -0.6323481524265133 0.1299159676762252 -0.7637130714250774
  outer loop
    vertex 2.0031749999999504 3.5511909999999136 1.3733939999999663
    vertex 2.0025499999999505 3.542675999999913 1.3724629999999662
    vertex 1.9851229999999511 3.5412979999999132 1.386657999999966
  endloop
endfacet
facet normal -0.3541799468579215 0.1441576980153771 -0.9239995256203475
  outer loop
    vertex 1.985655999999951 3.550234999999912 1.3878479999999658
    vertex 1.9851229999999511 3.5412979999999132 1.386657999999966
    vertex 1.9643179999999518 3.5408569999999133 1.3945639999999655
  endloop
endfacet
facet normal -0.8591568246401323 0.14046045787712647 -0.4920573243507637
  outer loop
    vertex 2.01490299999995 3.553321999999912 1.3539329999999667
    vertex 2.01351799999995 3.5400509999999135 1.3525629999999667
    vertex 2.0025499999999505 3.542675999999913 1.3724629999999662
  endloop
endfacet
facet normal -0.6347247781265102 0.13906822506399916 -0.7601213618954551
  outer loop
    vertex 2.0031749999999504 3.5511909999999136 1.3733939999999663
    vertex 1.9851229999999511 3.5412979999999132 1.386657999999966
    vertex 1.985655999999951 3.550234999999912 1.3878479999999658
  endloop
endfacet
facet normal -0.3515321103691623 -0.13518507988254685 -0.9263639509159197
  outer loop
    vertex 1.9850069999999511 3.5596279999999125 1.386659999999966
    vertex 1.9646119999999516 3.550228999999913 1.395770999999966
    vertex 1.9642359999999517 3.559792999999913 1.3945179999999655
  endloop
endfacet
facet normal -0.34878186465421745 -0.14127909006031952 -0.9264941605860532
  outer loop
    vertex 1.985655999999951 3.550234999999912 1.3878479999999658
    vertex 1.9646119999999516 3.550228999999913 1.395770999999966
    vertex 1.9850069999999511 3.5596279999999125 1.386659999999966
  endloop
endfacet
facet normal -0.6249921816127906 -0.14030735092857163 -0.7679183681865484
  outer loop
    vertex 2.0024199999999506 3.5602679999999123 1.3723709999999663
    vertex 1.985655999999951 3.550234999999912 1.3878479999999658
    vertex 1.9850069999999511 3.5596279999999125 1.386659999999966
  endloop
endfacet
facet normal -0.004386669625696404 -0.07822685483224791 0.9969259332130195
  outer loop
    vertex 1.9496529999999526 3.550323999999912 1.2968949999999682
    vertex 1.9459749999999523 3.555869999999913 1.2973139999999683
    vertex 1.9421889999999522 3.550321999999912 1.2968619999999682
  endloop
endfacet
facet normal -0.37269553283054074 -0.8740445963496497 -0.31167945617274373
  outer loop
    vertex 1.9871969999999515 3.593039999999912 1.3492829999999667
    vertex 1.996674999999951 3.593767999999912 1.3359079999999672
    vertex 2.0018929999999506 3.589702999999912 1.3410679999999668
  endloop
endfacet
facet normal 0.37804266228519506 -0.8648516063265445 0.33032626981019514
  outer loop
    vertex 1.9679239999999518 3.592733999999912 1.3201089999999676
    vertex 1.9636989999999517 3.588402999999912 1.3136049999999677
    vertex 1.9738379999999516 3.592727999999912 1.3133249999999677
  endloop
endfacet
facet normal -0.21955798500981336 -0.9547510385266361 -0.200610931035027
  outer loop
    vertex 1.9871969999999515 3.593039999999912 1.3492829999999667
    vertex 1.9823429999999513 3.5956919999999117 1.341973999999967
    vertex 1.9908739999999512 3.5962099999999118 1.330171999999967
  endloop
endfacet
facet normal 0.3704302809041418 -0.84316292112989 0.3896892292853235
  outer loop
    vertex 1.9636989999999517 3.588402999999912 1.3136049999999677
    vertex 1.9688819999999516 3.588285999999912 1.3084249999999678
    vertex 1.9738379999999516 3.592727999999912 1.3133249999999677
  endloop
endfacet
facet normal 0.11934719512597827 -0.9911302529231233 0.0584556990900579
  outer loop
    vertex 1.977398999999951 3.5964769999999118 1.3345129999999672
    vertex 1.9725419999999516 3.595457999999912 1.3271519999999675
    vertex 1.9850019999999509 3.596793999999912 1.3243649999999674
  endloop
endfacet
facet normal -0.8349775328541675 -0.12972164308035739 -0.5347754808751987
  outer loop
    vertex 2.0143259999999503 3.561992999999913 1.3533629999999668
    vertex 2.0031749999999504 3.5511909999999136 1.3733939999999663
    vertex 2.0024199999999506 3.5602679999999123 1.3723709999999663
  endloop
endfacet
facet normal -0.04871969492186814 -0.13163059636711374 -0.990100892549218
  outer loop
    vertex 1.9646119999999516 3.550228999999913 1.395770999999966
    vertex 1.9421889999999522 3.550321999999912 1.3968619999999656
    vertex 1.9642359999999517 3.559792999999913 1.3945179999999655
  endloop
endfacet
facet normal -0.7972518518216497 -0.29578160068815756 -0.5262154781658379
  outer loop
    vertex 2.000857999999951 3.568763999999912 1.3699619999999662
    vertex 2.0143259999999503 3.561992999999913 1.3533629999999668
    vertex 2.0024199999999506 3.5602679999999123 1.3723709999999663
  endloop
endfacet
facet normal -0.6257560482580711 -0.13856057365417093 -0.7676134023693632
  outer loop
    vertex 2.0031749999999504 3.5511909999999136 1.3733939999999663
    vertex 1.985655999999951 3.550234999999912 1.3878479999999658
    vertex 2.0024199999999506 3.5602679999999123 1.3723709999999663
  endloop
endfacet
facet normal -0.5176266123296155 -0.7534596911395554 -0.40541482957096153
  outer loop
    vertex 1.9915849999999509 3.588804999999912 1.3558979999999667
    vertex 2.0018929999999506 3.589702999999912 1.3410679999999668
    vertex 2.0063509999999507 3.584267999999912 1.3454769999999667
  endloop
endfacet
facet normal -0.37287390050806457 -0.8738224324019063 -0.31208878696793674
  outer loop
    vertex 1.9915849999999509 3.588804999999912 1.3558979999999667
    vertex 1.9871969999999515 3.593039999999912 1.3492829999999667
    vertex 2.0018929999999506 3.589702999999912 1.3410679999999668
  endloop
endfacet
facet normal -0.04843366724578712 -0.9957200642793146 -0.07871298157688
  outer loop
    vertex 1.9823429999999513 3.5956919999999117 1.341973999999967
    vertex 1.9860399999999516 3.596822999999912 1.325391999999967
    vertex 1.9908739999999512 3.5962099999999118 1.330171999999967
  endloop
endfacet
facet normal 0.12447058833100766 -0.988788928127387 0.08248350291559069
  outer loop
    vertex 1.9725419999999516 3.595457999999912 1.3271519999999675
    vertex 1.9792669999999517 3.595598999999912 1.3186939999999676
    vertex 1.9850019999999509 3.596793999999912 1.3243649999999674
  endloop
endfacet
facet normal -0.03373762974237018 -0.16540457396740013 -0.9856485678222383
  outer loop
    vertex 1.9642359999999517 3.559792999999913 1.3945179999999655
    vertex 1.9421889999999522 3.550321999999912 1.3968619999999656
    vertex 1.9421889999999522 3.5655889999999126 1.394299999999966
  endloop
endfacet
facet normal -0.637821195852673 -0.6076430188997499 -0.47323787222015984
  outer loop
    vertex 2.0063509999999507 3.584267999999912 1.3454769999999667
    vertex 2.0099659999999506 3.5776899999999126 1.3490509999999667
    vertex 1.995370999999951 3.583220999999912 1.3616199999999667
  endloop
endfacet
facet normal 0.4561690348777354 -0.7534936890238279 0.4734522913873991
  outer loop
    vertex 1.9636989999999517 3.588402999999912 1.3136049999999677
    vertex 1.960019999999952 3.582563999999912 1.3078569999999679
    vertex 1.9688819999999516 3.588285999999912 1.3084249999999678
  endloop
endfacet
facet normal -0.634198012138447 -0.6181615293084718 -0.46440198651884956
  outer loop
    vertex 1.995370999999951 3.583220999999912 1.3616199999999667
    vertex 2.0099659999999506 3.5776899999999126 1.3490509999999667
    vertex 1.9984849999999508 3.576477999999912 1.3663429999999663
  endloop
endfacet
facet normal 0.2653199727836548 -0.935801575038578 0.2321222182329764
  outer loop
    vertex 1.9679239999999518 3.592733999999912 1.3201089999999676
    vertex 1.9738379999999516 3.592727999999912 1.3133249999999677
    vertex 1.9792669999999517 3.595598999999912 1.3186939999999676
  endloop
endfacet
facet normal -0.7313957425406913 -0.44495188063241625 -0.5167959865508119
  outer loop
    vertex 2.0099659999999506 3.5776899999999126 1.3490509999999667
    vertex 2.0126519999999504 3.5701899999999127 1.351706999999967
    vertex 1.9984849999999508 3.576477999999912 1.3663429999999663
  endloop
endfacet
facet normal 0.4243560474534132 -0.7126738766955848 0.5585856160566642
  outer loop
    vertex 1.9688819999999516 3.588285999999912 1.3084249999999678
    vertex 1.960019999999952 3.582563999999912 1.3078569999999679
    vertex 1.9645689999999516 3.5823749999999115 1.304159999999968
  endloop
endfacet
facet normal -0.7282123313010194 -0.4616554333499767 -0.506538311877374
  outer loop
    vertex 1.9984849999999508 3.576477999999912 1.3663429999999663
    vertex 2.0126519999999504 3.5701899999999127 1.351706999999967
    vertex 2.000857999999951 3.568763999999912 1.3699619999999662
  endloop
endfacet
facet normal 0.03377438243542094 -0.9994119781462433 -0.005915152484837444
  outer loop
    vertex 1.977398999999951 3.5964769999999118 1.3345129999999672
    vertex 1.9850019999999509 3.596793999999912 1.3243649999999674
    vertex 1.9860399999999516 3.596822999999912 1.325391999999967
  endloop
endfacet
facet normal 0.5087990974450535 -0.5590828271873252 0.6546372054682856
  outer loop
    vertex 1.9645689999999516 3.5823749999999115 1.304159999999968
    vertex 1.960019999999952 3.582563999999912 1.3078569999999679
    vertex 1.9611419999999518 3.575287999999912 1.300770999999968
  endloop
endfacet
facet normal 0.3762178576869572 -0.6160071365932266 0.6920948859973252
  outer loop
    vertex 1.9611419999999518 3.575287999999912 1.300770999999968
    vertex 1.960019999999952 3.582563999999912 1.3078569999999679
    vertex 1.9570879999999518 3.5755219999999124 1.303182999999968
  endloop
endfacet
facet normal -0.041626774553822216 -0.9961443760310335 -0.07722430797351469
  outer loop
    vertex 1.9823429999999513 3.5956919999999117 1.341973999999967
    vertex 1.977398999999951 3.5964769999999118 1.3345129999999672
    vertex 1.9860399999999516 3.596822999999912 1.325391999999967
  endloop
endfacet
facet normal 0.43589979422416225 -0.4545943849851121 0.776746621837096
  outer loop
    vertex 1.9611419999999518 3.575287999999912 1.300770999999968
    vertex 1.9570879999999518 3.5755219999999124 1.303182999999968
    vertex 1.9549919999999517 3.5676719999999125 1.299764999999968
  endloop
endfacet
facet normal -0.7985660285899142 -0.2716008825483255 -0.537145472457046
  outer loop
    vertex 2.0126519999999504 3.5701899999999127 1.351706999999967
    vertex 2.0143259999999503 3.561992999999913 1.3533629999999668
    vertex 2.000857999999951 3.568763999999912 1.3699619999999662
  endloop
endfacet
facet normal -0.5149527084044846 -0.7584622098849432 -0.3994480996116194
  outer loop
    vertex 1.995370999999951 3.583220999999912 1.3616199999999667
    vertex 1.9915849999999509 3.588804999999912 1.3558979999999667
    vertex 2.0063509999999507 3.584267999999912 1.3454769999999667
  endloop
endfacet
facet normal -0.8487823606183663 -0.08879056265521297 -0.5212338633343812
  outer loop
    vertex 2.0143509999999507 3.5618039999999125 1.3533869999999666
    vertex 2.01490299999995 3.553321999999912 1.3539329999999667
    vertex 2.0031749999999504 3.5511909999999136 1.3733939999999663
  endloop
endfacet
facet normal -0.8159527950601686 -0.1777846526793893 -0.5501033116653338
  outer loop
    vertex 2.0143259999999503 3.561992999999913 1.3533629999999668
    vertex 2.0143509999999507 3.5618039999999125 1.3533869999999666
    vertex 2.0031749999999504 3.5511909999999136 1.3733939999999663
  endloop
endfacet
facet normal -0.20680908969061665 -0.9579926992444856 -0.19869571866450209
  outer loop
    vertex 1.9871969999999515 3.593039999999912 1.3492829999999667
    vertex 1.9908739999999512 3.5962099999999118 1.330171999999967
    vertex 1.996674999999951 3.593767999999912 1.3359079999999672
  endloop
endfacet
facet normal -0.07610815006029518 -0.3249579871263605 -0.9426610504827192
  outer loop
    vertex 1.9642359999999517 3.559792999999913 1.3945179999999655
    vertex 1.9421889999999522 3.5655889999999126 1.394299999999966
    vertex 1.9635999999999516 3.568748999999913 1.391481999999966
  endloop
endfacet
facet normal 0.26286490892533676 -0.945281808916703 0.19324684056108246
  outer loop
    vertex 1.9725419999999516 3.595457999999912 1.3271519999999675
    vertex 1.9679239999999518 3.592733999999912 1.3201089999999676
    vertex 1.9792669999999517 3.595598999999912 1.3186939999999676
  endloop
endfacet
facet normal -0.059559697934554776 -0.9049370702446234 -0.4213567862026457
  outer loop
    vertex 1.9421889999999522 3.591793999999912 1.3728099999999663
    vertex 1.9421889999999522 3.595856999999912 1.3640839999999665
    vertex 1.9585739999999516 3.5943329999999114 1.3650409999999664
  endloop
endfacet
facet normal -0.04336405559408483 -0.9489339171087533 0.3124803668121741
  outer loop
    vertex 1.9421889999999522 3.597535999999911 1.3354359999999672
    vertex 1.9421889999999522 3.5945179999999115 1.3262709999999676
    vertex 1.951559999999952 3.5945329999999123 1.3276169999999676
  endloop
endfacet
facet normal -0.06451721790320813 -0.8074796347838864 -0.5863566900814824
  outer loop
    vertex 1.9421889999999522 3.586174999999912 1.3805479999999661
    vertex 1.9421889999999522 3.591793999999912 1.3728099999999663
    vertex 1.960147999999952 3.5898819999999114 1.3734669999999662
  endloop
endfacet
facet normal -0.0068985430226850926 -0.747097038032837 0.6646791901863077
  outer loop
    vertex 1.9421889999999522 3.5897629999999117 1.3177649999999677
    vertex 1.9421889999999522 3.5819159999999126 1.3089449999999676
    vertex 1.9485789999999523 3.584227999999912 1.3116099999999677
  endloop
endfacet
facet normal -0.08054620375137099 -0.7844422058084349 -0.6149493758088056
  outer loop
    vertex 1.9615279999999515 3.583997999999912 1.3807919999999663
    vertex 1.9421889999999522 3.586174999999912 1.3805479999999661
    vertex 1.960147999999952 3.5898819999999114 1.3734669999999662
  endloop
endfacet
facet normal 0.08465934655592701 -0.30055909252056134 0.949998435232364
  outer loop
    vertex 1.9574399999999519 3.5589939999999127 1.2971109999999682
    vertex 1.9509359999999523 3.5681519999999125 1.300587999999968
    vertex 1.9499619999999525 3.559469999999912 1.297927999999968
  endloop
endfacet
facet normal -0.11060680366208903 -0.4728904771033301 0.874151435192233
  outer loop
    vertex 1.9474559999999526 3.5769059999999118 1.305452999999968
    vertex 1.9421889999999522 3.572266999999912 1.302276999999968
    vertex 1.946622999999952 3.568665999999912 1.3008899999999681
  endloop
endfacet
facet normal 0.004655951938606685 -0.568507550046726 0.8226648695862822
  outer loop
    vertex 1.9474559999999526 3.5769059999999118 1.305452999999968
    vertex 1.9421889999999522 3.5819159999999126 1.3089449999999676
    vertex 1.9421889999999522 3.572266999999912 1.302276999999968
  endloop
endfacet
facet normal -0.06518913673060714 -0.8835903795682039 0.4637007845441234
  outer loop
    vertex 1.951559999999952 3.5945329999999123 1.3276169999999676
    vertex 1.9421889999999522 3.5945179999999115 1.3262709999999676
    vertex 1.9499709999999517 3.590199999999912 1.3191369999999676
  endloop
endfacet
facet normal -0.09185184880903641 -0.6325809592534982 0.7690283270857362
  outer loop
    vertex 1.9485789999999523 3.584227999999912 1.3116099999999677
    vertex 1.9421889999999522 3.5819159999999126 1.3089449999999676
    vertex 1.9474559999999526 3.5769059999999118 1.305452999999968
  endloop
endfacet
facet normal -0.07786542544958948 -0.8874631823167344 -0.4542533165006163
  outer loop
    vertex 1.960147999999952 3.5898819999999114 1.3734669999999662
    vertex 1.9421889999999522 3.591793999999912 1.3728099999999663
    vertex 1.9585739999999516 3.5943329999999114 1.3650409999999664
  endloop
endfacet
facet normal -0.06677431708253384 -0.9922465774578499 0.10482328034050667
  outer loop
    vertex 1.9550629999999518 3.598050999999912 1.346235999999967
    vertex 1.9421889999999522 3.5987849999999115 1.344982999999967
    vertex 1.9532779999999519 3.597168999999912 1.3367499999999672
  endloop
endfacet
facet normal 0.004805830108846294 -0.35426785334033195 0.9351316442547531
  outer loop
    vertex 1.946622999999952 3.568665999999912 1.3008899999999681
    vertex 1.9421889999999522 3.572266999999912 1.302276999999968
    vertex 1.9421889999999522 3.5614999999999126 1.298197999999968
  endloop
endfacet
facet normal 0.021903100537903633 -0.3634313192534448 0.9313634791919464
  outer loop
    vertex 1.9509359999999523 3.5681519999999125 1.300587999999968
    vertex 1.946622999999952 3.568665999999912 1.3008899999999681
    vertex 1.9421889999999522 3.5614999999999126 1.298197999999968
  endloop
endfacet
facet normal -0.06715505677056441 -0.6785453939652635 -0.7314822941662141
  outer loop
    vertex 1.9615279999999515 3.583997999999912 1.3807919999999663
    vertex 1.9421889999999522 3.579113999999912 1.387097999999966
    vertex 1.9421889999999522 3.586174999999912 1.3805479999999661
  endloop
endfacet
facet normal -0.0481317659758396 -0.9904013191234262 0.12957067639950218
  outer loop
    vertex 1.9421889999999522 3.5987849999999115 1.344982999999967
    vertex 1.9421889999999522 3.597535999999911 1.3354359999999672
    vertex 1.9532779999999519 3.597168999999912 1.3367499999999672
  endloop
endfacet
facet normal -0.007508373870206899 -0.16003687670242073 0.9870824800477208
  outer loop
    vertex 1.9499619999999525 3.559469999999912 1.297927999999968
    vertex 1.9421889999999522 3.5614999999999126 1.298197999999968
    vertex 1.9459749999999523 3.555869999999913 1.2973139999999683
  endloop
endfacet
facet normal -0.07313004381812317 -0.9587442123715901 -0.27470262455087446
  outer loop
    vertex 1.9585739999999516 3.5943329999999114 1.3650409999999664
    vertex 1.9421889999999522 3.595856999999912 1.3640839999999665
    vertex 1.9568499999999516 3.5971199999999115 1.3557729999999666
  endloop
endfacet
facet normal -0.05325089625902746 -0.11029611160057312 0.9924712135943311
  outer loop
    vertex 1.9499619999999525 3.559469999999912 1.297927999999968
    vertex 1.9459749999999523 3.555869999999913 1.2973139999999683
    vertex 1.9496529999999526 3.550323999999912 1.2968949999999682
  endloop
endfacet
facet normal -0.004579617210172255 -0.02079883897491621 0.9997731919808133
  outer loop
    vertex 1.951468994664601 3.55032501833504 1.2969035082450515
    vertex 1.9574399999999519 3.5589939999999127 1.2971109999999682
    vertex 1.9496529999999526 3.550323999999912 1.2968949999999682
  endloop
endfacet
facet normal -0.004579617210172255 -0.02079883897491621 0.9997731919808133
  outer loop
    vertex 1.9574399999999519 3.5589939999999127 1.2971109999999682
    vertex 1.951468994664601 3.55032501833504 1.2969035082450515
    vertex 1.9534469999999517 3.5503259999999126 1.2969119999999683
  endloop
endfacet
facet normal -0.004579617210172255 -0.02079883897491621 0.9997731919808133
  outer loop
    vertex 1.9574399999999519 3.5589939999999127 1.2971109999999682
    vertex 1.9534469999999517 3.5503259999999126 1.2969119999999683
    vertex 1.9572569999999516 3.550326999999913 1.2969299999999682
  endloop
endfacet
facet normal -0.07988739763716209 -0.6514148562139509 -0.7545042669213472
  outer loop
    vertex 1.9626879999999516 3.5768849999999115 1.3868519999999658
    vertex 1.952667999999952 3.574118999999912 1.3903009999999658
    vertex 1.9421889999999522 3.579113999999912 1.387097999999966
  endloop
endfacet
facet normal -0.06712106017200925 -0.775532894143532 0.6277288374630743
  outer loop
    vertex 1.9499709999999517 3.590199999999912 1.3191369999999676
    vertex 1.9421889999999522 3.5897629999999117 1.3177649999999677
    vertex 1.9485789999999523 3.584227999999912 1.3116099999999677
  endloop
endfacet
facet normal -0.036986081973409086 -0.8722742623056664 0.4876162846535806
  outer loop
    vertex 1.9421889999999522 3.5945179999999115 1.3262709999999676
    vertex 1.9421889999999522 3.5897629999999117 1.3177649999999677
    vertex 1.9499709999999517 3.590199999999912 1.3191369999999676
  endloop
endfacet
facet normal 0.3207788067177516 -0.19491000287934715 0.9268824347986686
  outer loop
    vertex 1.9587519999999519 3.5674069999999123 1.298407999999968
    vertex 1.9549919999999517 3.5676719999999125 1.299764999999968
    vertex 1.9574569999999516 3.559183999999913 1.2971269999999682
  endloop
endfacet
facet normal 0.5087127327535995 -0.11733977371380865 0.8529025343139491
  outer loop
    vertex 1.9574569999999516 3.559183999999913 1.2971269999999682
    vertex 1.9549919999999517 3.5676719999999125 1.299764999999968
    vertex 1.9574399999999519 3.5589939999999127 1.2971109999999682
  endloop
endfacet
facet normal -0.051286048261552114 -0.9970488978687609 -0.057124745184576914
  outer loop
    vertex 1.9421889999999522 3.5982319999999115 1.3546349999999667
    vertex 1.9421889999999522 3.5987849999999115 1.344982999999967
    vertex 1.9550629999999518 3.598050999999912 1.346235999999967
  endloop
endfacet
facet normal -0.08013828419613672 -0.6539693146075105 -0.7522645751049841
  outer loop
    vertex 1.9626879999999516 3.5768849999999115 1.3868519999999658
    vertex 1.9421889999999522 3.579113999999912 1.387097999999966
    vertex 1.9615279999999515 3.583997999999912 1.3807919999999663
  endloop
endfacet
facet normal -0.05455666146113699 -0.9683894055071606 -0.24340404678579877
  outer loop
    vertex 1.9421889999999522 3.595856999999912 1.3640839999999665
    vertex 1.9421889999999522 3.5982319999999115 1.3546349999999667
    vertex 1.9568499999999516 3.5971199999999115 1.3557729999999666
  endloop
endfacet
facet normal -0.06886703492571815 -0.9940715693042749 -0.08413707031669267
  outer loop
    vertex 1.9568499999999516 3.5971199999999115 1.3557729999999666
    vertex 1.9421889999999522 3.5982319999999115 1.3546349999999667
    vertex 1.9550629999999518 3.598050999999912 1.346235999999967
  endloop
endfacet
facet normal -0.06575675653530204 -0.9553390807552872 0.2881029152084375
  outer loop
    vertex 1.9532779999999519 3.597168999999912 1.3367499999999672
    vertex 1.9421889999999522 3.597535999999911 1.3354359999999672
    vertex 1.951559999999952 3.5945329999999123 1.3276169999999676
  endloop
endfacet
facet normal 0.2950459699077746 -0.3554067875558642 0.8869238360763574
  outer loop
    vertex 1.9611419999999518 3.575287999999912 1.300770999999968
    vertex 1.9549919999999517 3.5676719999999125 1.299764999999968
    vertex 1.9587519999999519 3.5674069999999123 1.298407999999968
  endloop
endfacet
facet normal 0.16475588161980928 -0.24566847379617282 0.9552499675238615
  outer loop
    vertex 1.9574399999999519 3.5589939999999127 1.2971109999999682
    vertex 1.9549919999999517 3.5676719999999125 1.299764999999968
    vertex 1.9509359999999523 3.5681519999999125 1.300587999999968
  endloop
endfacet
facet normal 0.04570541761539302 -0.46952111855019163 -0.881737451873277
  outer loop
    vertex 1.952667999999952 3.574118999999912 1.3903009999999658
    vertex 1.9421889999999522 3.5655889999999126 1.394299999999966
    vertex 1.9421889999999522 3.579113999999912 1.387097999999966
  endloop
endfacet
facet normal -0.04208079280191606 -0.2883620734655734 0.9565963210590962
  outer loop
    vertex 1.9509359999999523 3.5681519999999125 1.300587999999968
    vertex 1.9421889999999522 3.5614999999999126 1.298197999999968
    vertex 1.9499619999999525 3.559469999999912 1.297927999999968
  endloop
endfacet
facet normal 0.10064885987526692 -0.11501902315139846 0.9882511984911059
  outer loop
    vertex 1.9574399999999519 3.5589939999999127 1.2971109999999682
    vertex 1.9499619999999525 3.559469999999912 1.297927999999968
    vertex 1.9496529999999526 3.550323999999912 1.2968949999999682
  endloop
endfacet
facet normal -0.15448550351383422 -0.5016830767788016 -0.851145298804988
  outer loop
    vertex 1.9635999999999516 3.568748999999913 1.391481999999966
    vertex 1.952667999999952 3.574118999999912 1.3903009999999658
    vertex 1.9626879999999516 3.5768849999999115 1.3868519999999658
  endloop
endfacet
facet normal -0.0 -0.0 1.0
  outer loop
    vertex 1.9316511349201255 3.5456572804251993 0.09160160999999775
    vertex 1.9317849999999526 3.5543619999999123 0.09160160999999775
    vertex 1.9316097149829385 3.5543096094468236 0.09160160999999775
  endloop
endfacet
facet normal -0.0 -0.0 1.0
  outer loop
    vertex 1.9317849999999526 3.5543619999999123 0.09160160999999775
    vertex 1.9316511349201255 3.5456572804251993 0.09160160999999775
    vertex 1.9318179999999525 3.5469149999999128 0.09160160999999775
  endloop
endfacet
facet normal -1.0 0.0 0.0
  outer loop
    vertex 1.9421889999999522 3.550321999999912 1.3968619999999656
    vertex 1.9421889999999522 3.550321999999912 1.2968619999999682
    vertex 1.9421889999999522 3.5350639999999136 1.3943229999999658
  endloop
endfacet
facet normal -1.0 0.0 0.0
  outer loop
    vertex 1.9421889999999522 3.550321999999912 1.2968619999999682
    vertex 1.9421889999999522 3.550321999999912 1.3968619999999656
    vertex 1.9421889999999522 3.5655889999999126 1.394299999999966
  endloop
endfacet
facet normal -1.0 0.0 0.0
  outer loop
    vertex 1.9421889999999522 3.550321999999912 1.2968619999999682
    vertex 1.9421889999999522 3.5655889999999126 1.394299999999966
    vertex 1.9421889999999522 3.5614999999999126 1.298197999999968
  endloop
endfacet
facet normal -1.0 0.0 0.0
  outer loop
    vertex 1.9421889999999522 3.5614999999999126 1.298197999999968
    vertex 1.9421889999999522 3.5655889999999126 1.394299999999966
    vertex 1.9421889999999522 3.572266999999912 1.302276999999968
  endloop
endfacet
facet normal -1.0 0.0 0.0
  outer loop
    vertex 1.9421889999999522 3.572266999999912 1.302276999999968
    vertex 1.9421889999999522 3.5655889999999126 1.394299999999966
    vertex 1.9421889999999522 3.579113999999912 1.387097999999966
  endloop
endfacet
facet normal -1.0 0.0 0.0
  outer loop
    vertex 1.9421889999999522 3.572266999999912 1.302276999999968
    vertex 1.9421889999999522 3.579113999999912 1.387097999999966
    vertex 1.9421889999999522 3.5819159999999126 1.3089449999999676
  endloop
endfacet
facet normal -1.0 0.0 0.0
  outer loop
    vertex 1.9421889999999522 3.5819159999999126 1.3089449999999676
    vertex 1.9421889999999522 3.579113999999912 1.387097999999966
    vertex 1.9421889999999522 3.586174999999912 1.3805479999999661
  endloop
endfacet
facet normal -1.0 0.0 0.0
  outer loop
    vertex 1.9421889999999522 3.5819159999999126 1.3089449999999676
    vertex 1.9421889999999522 3.586174999999912 1.3805479999999661
    vertex 1.9421889999999522 3.5897629999999117 1.3177649999999677
  endloop
endfacet
facet normal -1.0 0.0 0.0
  outer loop
    vertex 1.9421889999999522 3.5897629999999117 1.3177649999999677
    vertex 1.9421889999999522 3.586174999999912 1.3805479999999661
    vertex 1.9421889999999522 3.591793999999912 1.3728099999999663
  endloop
endfacet
facet normal -1.0 0.0 0.0
  outer loop
    vertex 1.9421889999999522 3.5897629999999117 1.3177649999999677
    vertex 1.9421889999999522 3.591793999999912 1.3728099999999663
    vertex 1.9421889999999522 3.5945179999999115 1.3262709999999676
  endloop
endfacet
facet normal -1.0 0.0 0.0
  outer loop
    vertex 1.9421889999999522 3.5945179999999115 1.3262709999999676
    vertex 1.9421889999999522 3.591793999999912 1.3728099999999663
    vertex 1.9421889999999522 3.595856999999912 1.3640839999999665
  endloop
endfacet
facet normal -1.0 0.0 0.0
  outer loop
    vertex 1.9421889999999522 3.5945179999999115 1.3262709999999676
    vertex 1.9421889999999522 3.595856999999912 1.3640839999999665
    vertex 1.9421889999999522 3.597535999999911 1.3354359999999672
  endloop
endfacet
facet normal -1.0 0.0 0.0
  outer loop
    vertex 1.9421889999999522 3.597535999999911 1.3354359999999672
    vertex 1.9421889999999522 3.595856999999912 1.3640839999999665
    vertex 1.9421889999999522 3.5982319999999115 1.3546349999999667
  endloop
endfacet
facet normal -1.0 0.0 0.0
  outer loop
    vertex 1.9421889999999522 3.597535999999911 1.3354359999999672
    vertex 1.9421889999999522 3.5982319999999115 1.3546349999999667
    vertex 1.9421889999999522 3.5987849999999115 1.344982999999967
  endloop
endfacet
facet normal -2.1737148939288963e-06 -0.06259159511190794 -0.9980392237866317
  outer loop
    vertex 2.00427799999995 3.606071999999912 1.0961879999999729
    vertex 2.072659999999949 3.587669999999912 1.097341999999973
    vertex 2.003612999999951 3.5885469999999122 1.0972869999999728
  endloop
endfacet
facet normal -2.1737148939288963e-06 -0.06259159511190794 -0.9980392237866317
  outer loop
    vertex 2.072659999999949 3.587669999999912 1.097341999999973
    vertex 2.00427799999995 3.606071999999912 1.0961879999999729
    vertex 2.006827999999951 3.6145949999999107 1.0956529999999733
  endloop
endfacet
facet normal -2.1737148939288963e-06 -0.06259159511190794 -0.9980392237866317
  outer loop
    vertex 2.072659999999949 3.587669999999912 1.097341999999973
    vertex 2.006827999999951 3.6145949999999107 1.0956529999999733
    vertex 2.010844999999951 3.6224319999999106 1.0951619999999729
  endloop
endfacet
facet normal -2.1737148939288963e-06 -0.06259159511190794 -0.9980392237866317
  outer loop
    vertex 2.072659999999949 3.587669999999912 1.097341999999973
    vertex 2.010844999999951 3.6224319999999106 1.0951619999999729
    vertex 2.0161439999999504 3.629083999999911 1.094744999999973
  endloop
endfacet
facet normal -2.1737148939288963e-06 -0.06259159511190794 -0.9980392237866317
  outer loop
    vertex 2.072659999999949 3.587669999999912 1.097341999999973
    vertex 2.0161439999999504 3.629083999999911 1.094744999999973
    vertex 2.0225709999999504 3.634232999999911 1.0944219999999731
  endloop
endfacet
facet normal -2.1737148939288963e-06 -0.06259159511190794 -0.9980392237866317
  outer loop
    vertex 2.072659999999949 3.587669999999912 1.097341999999973
    vertex 2.0225709999999504 3.634232999999911 1.0944219999999731
    vertex 2.0299699999999503 3.6375569999999104 1.0942129999999732
  endloop
endfacet
facet normal -2.1737148939288963e-06 -0.06259159511190794 -0.9980392237866317
  outer loop
    vertex 2.072659999999949 3.587669999999912 1.097341999999973
    vertex 2.0299699999999503 3.6375569999999104 1.0942129999999732
    vertex 2.0381889999999503 3.638735999999911 1.0941389999999729
  endloop
endfacet
facet normal -2.1737148939288963e-06 -0.06259159511190794 -0.9980392237866317
  outer loop
    vertex 2.072659999999949 3.587669999999912 1.097341999999973
    vertex 2.0381889999999503 3.638735999999911 1.0941389999999729
    vertex 2.0449629999999503 3.63794299999991 1.094188999999973
  endloop
endfacet
facet normal -2.1737148939288963e-06 -0.06259159511190794 -0.9980392237866317
  outer loop
    vertex 2.072659999999949 3.587669999999912 1.097341999999973
    vertex 2.0449629999999503 3.63794299999991 1.094188999999973
    vertex 2.051200999999949 3.6356799999999105 1.0943309999999733
  endloop
endfacet
facet normal -2.1737148939288963e-06 -0.06259159511190794 -0.9980392237866317
  outer loop
    vertex 2.072659999999949 3.587669999999912 1.097341999999973
    vertex 2.051200999999949 3.6356799999999105 1.0943309999999733
    vertex 2.0568219999999493 3.6321259999999107 1.0945539999999732
  endloop
endfacet
facet normal -2.1737148939288963e-06 -0.06259159511190794 -0.9980392237866317
  outer loop
    vertex 2.072659999999949 3.587669999999912 1.097341999999973
    vertex 2.0568219999999493 3.6321259999999107 1.0945539999999732
    vertex 2.0617459999999492 3.627456999999911 1.094846999999973
  endloop
endfacet
facet normal -2.1737148939288963e-06 -0.06259159511190794 -0.9980392237866317
  outer loop
    vertex 2.072659999999949 3.587669999999912 1.097341999999973
    vertex 2.0617459999999492 3.627456999999911 1.094846999999973
    vertex 2.069177999999949 3.615487999999911 1.095596999999973
  endloop
endfacet
facet normal -2.1737148939288963e-06 -0.06259159511190794 -0.9980392237866317
  outer loop
    vertex 2.072659999999949 3.587669999999912 1.097341999999973
    vertex 2.069177999999949 3.615487999999911 1.095596999999973
    vertex 2.0728259999999494 3.6016159999999116 1.0964669999999734
  endloop
endfacet
facet normal 0.0011582357176414607 -0.9831551919148396 -0.18276905400236018
  outer loop
    vertex 1.9496529999999526 3.550323999999912 1.2968949999999682
    vertex 2.01351799999995 3.5400509999999135 1.3525629999999667
    vertex 1.9421889999999522 3.550321999999912 1.2968619999999682
  endloop
endfacet
facet normal 0.0011582357176414607 -0.9831551919148396 -0.18276905400236018
  outer loop
    vertex 2.01351799999995 3.5400509999999135 1.3525629999999667
    vertex 1.9496529999999526 3.550323999999912 1.2968949999999682
    vertex 1.951468994664601 3.55032501833504 1.2969035082450515
  endloop
endfacet
facet normal 0.0011582357176414607 -0.9831551919148396 -0.18276905400236018
  outer loop
    vertex 2.01351799999995 3.5400509999999135 1.3525629999999667
    vertex 1.951468994664601 3.55032501833504 1.2969035082450515
    vertex 1.9534469999999517 3.5503259999999126 1.2969119999999683
  endloop
endfacet
facet normal 0.0011582357176414607 -0.9831551919148396 -0.18276905400236018
  outer loop
    vertex 2.01351799999995 3.5400509999999135 1.3525629999999667
    vertex 1.9534469999999517 3.5503259999999126 1.2969119999999683
    vertex 1.9572569999999516 3.550326999999913 1.2969299999999682
  endloop
endfacet
facet normal -0.012315284565560488 -0.9815573948863484 -0.19077058030523164
  outer loop
    vertex 1.9572569999999516 3.550326999999913 1.2969299999999682
    vertex 2.003612999999951 3.5885469999999122 1.0972869999999728
    vertex 2.072659999999949 3.587669999999912 1.097341999999973
  endloop
endfacet
facet normal -0.17005157928514833 -0.9847709244122106 0.03617577663226297
  outer loop
    vertex 2.0025499999999505 3.542675999999913 1.3724629999999662
    vertex 1.9421889999999522 3.550321999999912 1.2968619999999682
    vertex 2.01351799999995 3.5400509999999135 1.3525629999999667
  endloop
endfacet
facet normal -0.014314941985312569 -0.9955442799972316 -0.09320230147775964
  outer loop
    vertex 1.9643179999999518 3.5408569999999133 1.3945639999999655
    vertex 1.9421889999999522 3.550321999999912 1.2968619999999682
    vertex 1.9851229999999511 3.5412979999999132 1.386657999999966
  endloop
endfacet
facet normal -0.001993889567710461 -0.9950807820074336 -0.09904676513579988
  outer loop
    vertex 1.9851229999999511 3.5412979999999132 1.386657999999966
    vertex 1.9421889999999522 3.550321999999912 1.2968619999999682
    vertex 2.0025499999999505 3.542675999999913 1.3724629999999662
  endloop
endfacet
facet normal 0.0014781524798496283 -0.9830963358335568 -0.1830830673106636
  outer loop
    vertex 2.01351799999995 3.5400509999999135 1.3525629999999667
    vertex 1.9572569999999516 3.550326999999913 1.2969299999999682
    vertex 2.072659999999949 3.587669999999912 1.097341999999973
  endloop
endfacet
facet normal 0.2519215225474566 -0.9561018299432422 -0.14968245473853928
  outer loop
    vertex 1.9643179999999518 3.5408569999999133 1.3945639999999655
    vertex 1.9421889999999522 3.5350639999999136 1.3943229999999658
    vertex 1.9421889999999522 3.550321999999912 1.2968619999999682
  endloop
endfacet
endsolid 2015new_separate_human-HUTA
