solid Object01
facet normal -0.861202906739206 -0.34254627352713146 -0.37548848706267735
  outer loop
    vertex 1.9416849999999526 3.580153999999912 0.9652925999999763
    vertex 1.904924999999953 3.549418999999912 1.0776419999999736
    vertex 1.9005569999999534 3.561279999999912 1.0768399999999734
  endloop
endfacet
facet normal -0.9257646993664838 -0.15439339616336528 -0.3451411314636759
  outer loop
    vertex 1.9416849999999526 3.580153999999912 0.9652925999999763
    vertex 1.9423459999999522 3.5650619999999122 0.9702705999999761
    vertex 1.904924999999953 3.549418999999912 1.0776419999999736
  endloop
endfacet
facet normal -0.9257646993664838 -0.15439339616336528 -0.3451411314636759
  outer loop
    vertex 1.9423459999999522 3.5650619999999122 0.9702705999999761
    vertex 1.9416849999999526 3.580153999999912 0.9652925999999763
    vertex 1.9422808608428783 3.5665542034135496 0.9697782343939509
  endloop
endfacet
facet normal -0.944833817668132 0.014022861068457479 -0.32724977671209815
  outer loop
    vertex 1.9423459999999522 3.5650619999999122 0.9702705999999761
    vertex 1.9411899999999525 3.549241999999912 0.9729302999999763
    vertex 1.904924999999953 3.549418999999912 1.0776419999999736
  endloop
endfacet
facet normal -0.49128318849213654 -0.8472669101217808 0.2019396239416387
  outer loop
    vertex 1.907841999999953 3.6393859999999107 0.9025346999999778
    vertex 1.873117999999954 3.6558219999999104 0.8870169999999782
    vertex 1.8898309999999536 3.6436199999999106 0.8764814999999784
  endloop
endfacet
facet normal 4.681626823874871e-16 -0.02383728173715616 0.9997158516295435
  outer loop
    vertex 1.8180429999999554 3.569764999999912 0.7970652999999804
    vertex 1.8104239999999554 3.550321999999912 0.7966016999999803
    vertex 1.8121729999999554 3.550321999999912 0.7966016999999803
  endloop
endfacet
facet normal 1.169069480478418e-16 -0.023837281737156015 0.9997158516295435
  outer loop
    vertex 1.8180429999999554 3.569764999999912 0.7970652999999804
    vertex 1.8121729999999554 3.550321999999912 0.7966016999999803
    vertex 1.8139229999999553 3.550321999999912 0.7966016999999803
  endloop
endfacet
facet normal -0.46813755713496463 -0.8754255842281518 0.12032154453175474
  outer loop
    vertex 1.8834059999999537 3.65319199999991 0.9079095999999776
    vertex 1.873117999999954 3.6558219999999104 0.8870169999999782
    vertex 1.907841999999953 3.6393859999999107 0.9025346999999778
  endloop
endfacet
facet normal -0.4134118887569477 -0.8494263303759892 0.32797182729373875
  outer loop
    vertex 1.873117999999954 3.6558219999999104 0.8870169999999782
    vertex 1.8621669999999544 3.653143999999911 0.8662772999999788
    vertex 1.8898309999999536 3.6436199999999106 0.8764814999999784
  endloop
endfacet
facet normal -0.1746475178145474 -0.40591475808660504 0.8970682547547375
  outer loop
    vertex 1.833010999999955 3.6048049999999114 0.8083369999999802
    vertex 1.829690999999955 3.617718999999911 0.8135340999999802
    vertex 1.8208889999999553 3.5974549999999117 0.8026511999999802
  endloop
endfacet
facet normal -0.33074785132276024 -0.6832601793683806 0.6509695738933315
  outer loop
    vertex 1.8510349999999545 3.646042999999911 0.8465804999999791
    vertex 1.8543929999999544 3.6297589999999107 0.8311948999999798
    vertex 1.8661289999999542 3.6375469999999104 0.8453320999999792
  endloop
endfacet
facet normal -0.10713600973804589 -0.21430981213130615 0.9708723808213178
  outer loop
    vertex 1.8244759999999551 3.588195999999912 0.8010031999999804
    vertex 1.8208889999999553 3.5974549999999117 0.8026511999999802
    vertex 1.8143279999999555 3.5744749999999117 0.7968545999999804
  endloop
endfacet
facet normal -0.43884113745387027 -0.7584794101032944 0.48179605698630606
  outer loop
    vertex 1.8898309999999536 3.6436199999999106 0.8764814999999784
    vertex 1.8621669999999544 3.653143999999911 0.8662772999999788
    vertex 1.8661289999999542 3.6375469999999104 0.8453320999999792
  endloop
endfacet
facet normal -0.05798966283600583 -0.0010798917029743267 0.9983165995004172
  outer loop
    vertex 1.8180429999999554 3.569764999999912 0.7970652999999804
    vertex 1.8143279999999555 3.5744749999999117 0.7968545999999804
    vertex 1.8104239999999554 3.550321999999912 0.7966016999999803
  endloop
endfacet
facet normal -0.2532700109547637 -0.5614936561105572 0.7877684784875397
  outer loop
    vertex 1.8431379999999546 3.618748999999912 0.81859149999998
    vertex 1.840021999999955 3.6341979999999108 0.8286011999999798
    vertex 1.829690999999955 3.617718999999911 0.8135340999999802
  endloop
endfacet
facet normal -0.30916965174480004 0.04002408680851492 0.9501643010106955
  outer loop
    vertex 1.8143279999999555 3.5744749999999117 0.7968545999999804
    vertex 1.8096449999999553 3.574700999999912 0.7953212999999805
    vertex 1.8104239999999554 3.550321999999912 0.7966016999999803
  endloop
endfacet
facet normal -0.0 0.052448324702852135 0.9986236394337279
  outer loop
    vertex 1.8104239999999554 3.550321999999912 0.7966016999999803
    vertex 1.8096449999999553 3.574700999999912 0.7953212999999805
    vertex 1.8069299999999555 3.550321999999912 0.7966016999999803
  endloop
endfacet
facet normal -6.282136051159281e-16 0.05244832470285219 0.9986236394337279
  outer loop
    vertex 1.8096449999999553 3.574700999999912 0.7953212999999805
    vertex 1.7999999999999559 3.550321999999912 0.7966016999999803
    vertex 1.8017019999999557 3.550321999999912 0.7966016999999803
  endloop
endfacet
facet normal 6.017654995136041e-16 0.052448324702852094 0.9986236394337279
  outer loop
    vertex 1.8096449999999553 3.574700999999912 0.7953212999999805
    vertex 1.8017019999999557 3.550321999999912 0.7966016999999803
    vertex 1.8034409999999554 3.550321999999912 0.7966016999999803
  endloop
endfacet
facet normal 7.474712870076386e-17 0.052448324702852135 0.9986236394337279
  outer loop
    vertex 1.8096449999999553 3.574700999999912 0.7953212999999805
    vertex 1.8034409999999554 3.550321999999912 0.7966016999999803
    vertex 1.8069299999999555 3.550321999999912 0.7966016999999803
  endloop
endfacet
facet normal -0.31155636169886763 -0.5601589483717342 0.7675640598960045
  outer loop
    vertex 1.8543929999999544 3.6297589999999107 0.8311948999999798
    vertex 1.840021999999955 3.6341979999999108 0.8286011999999798
    vertex 1.8431379999999546 3.618748999999912 0.81859149999998
  endloop
endfacet
facet normal -0.2703139812445379 -0.26924690718420496 0.9243573197175798
  outer loop
    vertex 1.833010999999955 3.6048049999999114 0.8083369999999802
    vertex 1.8208889999999553 3.5974549999999117 0.8026511999999802
    vertex 1.8244759999999551 3.588195999999912 0.8010031999999804
  endloop
endfacet
facet normal -0.297002304966854 0.16688112674813663 0.9401810040516924
  outer loop
    vertex 1.8096449999999553 3.574700999999912 0.7953212999999805
    vertex 1.7999999999999559 3.5737919999999126 0.7924357999999805
    vertex 1.7999999999999559 3.550321999999912 0.7966016999999803
  endloop
endfacet
facet normal -0.27129726770545953 -0.1428573231321925 0.951834847945302
  outer loop
    vertex 1.8141059999999554 3.598479999999911 0.8001616999999803
    vertex 1.7999999999999559 3.5737919999999126 0.7924357999999805
    vertex 1.8096449999999553 3.574700999999912 0.7953212999999805
  endloop
endfacet
facet normal -0.21958438475194858 -0.1299426629036735 0.966901030266599
  outer loop
    vertex 1.8244759999999551 3.588195999999912 0.8010031999999804
    vertex 1.8143279999999555 3.5744749999999117 0.7968545999999804
    vertex 1.8180429999999554 3.569764999999912 0.7970652999999804
  endloop
endfacet
facet normal -0.31957639655275194 -0.11186092615540398 0.9409346735911125
  outer loop
    vertex 1.8141059999999554 3.598479999999911 0.8001616999999803
    vertex 1.7999999999999559 3.5974219999999115 0.7952449999999804
    vertex 1.7999999999999559 3.5737919999999126 0.7924357999999805
  endloop
endfacet
facet normal -0.39293455132018207 -0.7715937551570877 0.5002454551331694
  outer loop
    vertex 1.8621669999999544 3.653143999999911 0.8662772999999788
    vertex 1.8510349999999545 3.646042999999911 0.8465804999999791
    vertex 1.8661289999999542 3.6375469999999104 0.8453320999999792
  endloop
endfacet
facet normal -0.328752375145936 -0.6835328688592478 0.6516937110521723
  outer loop
    vertex 1.8510349999999545 3.646042999999911 0.8465804999999791
    vertex 1.840021999999955 3.6341979999999108 0.8286011999999798
    vertex 1.8543929999999544 3.6297589999999107 0.8311948999999798
  endloop
endfacet
facet normal -0.29096701089472177 -0.42062348633545876 0.8593102357786712
  outer loop
    vertex 1.8431379999999546 3.618748999999912 0.81859149999998
    vertex 1.829690999999955 3.617718999999911 0.8135340999999802
    vertex 1.833010999999955 3.6048049999999114 0.8083369999999802
  endloop
endfacet
facet normal -0.3089109783378533 -0.9505368935204684 0.03245953663884117
  outer loop
    vertex 1.8834059999999537 3.65319199999991 0.9079095999999776
    vertex 1.8493999999999544 3.6635929999999104 0.888861499999978
    vertex 1.873117999999954 3.6558219999999104 0.8870169999999782
  endloop
endfacet
facet normal 0.09880919727038852 -0.9931372117275088 -0.06257172857521724
  outer loop
    vertex 1.828030999999955 3.6647079999999104 0.9123991999999777
    vertex 1.7999999999999559 3.6619859999999105 0.9113379999999776
    vertex 1.7999989999999557 3.6635269999999096 0.886877699999978
  endloop
endfacet
facet normal -0.31848667648989876 -0.34564838193509406 0.8826626948976999
  outer loop
    vertex 1.8200659999999553 3.619998999999911 0.8107389999999801
    vertex 1.810322999999955 3.6202349999999117 0.8073158999999801
    vertex 1.8141059999999554 3.598479999999911 0.8001616999999803
  endloop
endfacet
facet normal 0.08116440299835578 -0.9385311530814721 0.3355169360576048
  outer loop
    vertex 1.8209469999999552 3.6607639999999098 0.8653014999999786
    vertex 1.7999999999999559 3.6581119999999103 0.8629503999999789
    vertex 1.7999999999999559 3.64987299999991 0.8399036999999795
  endloop
endfacet
facet normal -0.0845255944414387 -0.9721003978859277 0.21880639916223288
  outer loop
    vertex 1.8493999999999544 3.6635929999999104 0.888861499999978
    vertex 1.8209469999999552 3.6607639999999098 0.8653014999999786
    vertex 1.8419509999999546 3.65924299999991 0.8666579999999787
  endloop
endfacet
facet normal -0.2539958305087924 -0.868478226977843 0.4257131514876784
  outer loop
    vertex 1.8419509999999546 3.65924299999991 0.8666579999999787
    vertex 1.8344379999999552 3.6509999999999105 0.8453592999999793
    vertex 1.8621669999999544 3.653143999999911 0.8662772999999788
  endloop
endfacet
facet normal -0.09075981112652635 -0.9255888374617149 0.3674887218004767
  outer loop
    vertex 1.8419509999999546 3.65924299999991 0.8666579999999787
    vertex 1.8209469999999552 3.6607639999999098 0.8653014999999786
    vertex 1.8172789999999555 3.6521639999999103 0.8427348999999793
  endloop
endfacet
facet normal -0.19889286142688462 -0.7717614974153049 0.6040081297306457
  outer loop
    vertex 1.8344379999999552 3.6509999999999105 0.8453592999999793
    vertex 1.8137179999999553 3.6386739999999107 0.8227870999999797
    vertex 1.8270349999999551 3.6379209999999107 0.8262100999999797
  endloop
endfacet
facet normal -0.08401524105426797 -0.6436955289115494 0.7606559704162413
  outer loop
    vertex 1.8137179999999553 3.6386739999999107 0.8227870999999797
    vertex 1.7999999999999559 3.636901999999911 0.8197723999999799
    vertex 1.7999999999999559 3.6189489999999114 0.8045798999999803
  endloop
endfacet
facet normal -0.10316587122064676 -0.993449768566528 -0.04913614097990609
  outer loop
    vertex 1.8563389999999544 3.66176499999991 0.9112514999999777
    vertex 1.824608999999955 3.6661759999999095 0.8886885999999782
    vertex 1.8493999999999544 3.6635929999999104 0.888861499999978
  endloop
endfacet
facet normal -0.2673592532606407 -0.7444438798973415 0.6118188779200142
  outer loop
    vertex 1.8510349999999545 3.646042999999911 0.8465804999999791
    vertex 1.8344379999999552 3.6509999999999105 0.8453592999999793
    vertex 1.8270349999999551 3.6379209999999107 0.8262100999999797
  endloop
endfacet
facet normal -0.10226740404720497 -0.9655097867451111 0.23944149550329788
  outer loop
    vertex 1.8493999999999544 3.6635929999999104 0.888861499999978
    vertex 1.824608999999955 3.6661759999999095 0.8886885999999782
    vertex 1.8209469999999552 3.6607639999999098 0.8653014999999786
  endloop
endfacet
facet normal -0.1900704517212741 -0.3905893713028087 0.9007292414525842
  outer loop
    vertex 1.810322999999955 3.6202349999999117 0.8073158999999801
    vertex 1.7999999999999559 3.6189489999999114 0.8045798999999803
    vertex 1.7999999999999559 3.5974219999999115 0.7952449999999804
  endloop
endfacet
facet normal -0.14226323937624555 -0.8079668822666733 0.5717960194706225
  outer loop
    vertex 1.8344379999999552 3.6509999999999105 0.8453592999999793
    vertex 1.8172789999999555 3.6521639999999103 0.8427348999999793
    vertex 1.8137179999999553 3.6386739999999107 0.8227870999999797
  endloop
endfacet
facet normal -0.34883321246542903 -0.5038351076107157 0.7902313422156497
  outer loop
    vertex 1.840021999999955 3.6341979999999108 0.8286011999999798
    vertex 1.8200659999999553 3.619998999999911 0.8107389999999801
    vertex 1.829690999999955 3.617718999999911 0.8135340999999802
  endloop
endfacet
facet normal -0.3015519323278474 -0.5531371004937015 0.7765988540854037
  outer loop
    vertex 1.840021999999955 3.6341979999999108 0.8286011999999798
    vertex 1.8270349999999551 3.6379209999999107 0.8262100999999797
    vertex 1.8200659999999553 3.619998999999911 0.8107389999999801
  endloop
endfacet
facet normal 0.08839448104509172 -0.9715165587031013 0.21986812385257823
  outer loop
    vertex 1.824608999999955 3.6661759999999095 0.8886885999999782
    vertex 1.7999989999999557 3.6635269999999096 0.886877699999978
    vertex 1.7999999999999559 3.6581119999999103 0.8629503999999789
  endloop
endfacet
facet normal -0.10515318004711668 -0.9933763699985108 -0.046327057477899884
  outer loop
    vertex 1.828030999999955 3.6647079999999104 0.9123991999999777
    vertex 1.824608999999955 3.6661759999999095 0.8886885999999782
    vertex 1.8563389999999544 3.66176499999991 0.9112514999999777
  endloop
endfacet
facet normal -0.3355478294473625 -0.3390668749265403 0.8788864024893738
  outer loop
    vertex 1.829690999999955 3.617718999999911 0.8135340999999802
    vertex 1.8200659999999553 3.619998999999911 0.8107389999999801
    vertex 1.8141059999999554 3.598479999999911 0.8001616999999803
  endloop
endfacet
facet normal -0.28672909666695295 -0.5596924914453671 0.7775157491293865
  outer loop
    vertex 1.8270349999999551 3.6379209999999107 0.8262100999999797
    vertex 1.810322999999955 3.6202349999999117 0.8073158999999801
    vertex 1.8200659999999553 3.619998999999911 0.8107389999999801
  endloop
endfacet
facet normal -0.3002110681436817 -0.9537521264452367 0.01517220699895492
  outer loop
    vertex 1.8563389999999544 3.66176499999991 0.9112514999999777
    vertex 1.8493999999999544 3.6635929999999104 0.888861499999978
    vertex 1.8834059999999537 3.65319199999991 0.9079095999999776
  endloop
endfacet
facet normal -0.23079741988994906 -0.6001225521149389 0.7658886821302394
  outer loop
    vertex 1.8270349999999551 3.6379209999999107 0.8262100999999797
    vertex 1.8137179999999553 3.6386739999999107 0.8227870999999797
    vertex 1.810322999999955 3.6202349999999117 0.8073158999999801
  endloop
endfacet
facet normal -0.3685165605761477 -0.3105127572009415 0.8762290637707674
  outer loop
    vertex 1.829690999999955 3.617718999999911 0.8135340999999802
    vertex 1.8141059999999554 3.598479999999911 0.8001616999999803
    vertex 1.8208889999999553 3.5974549999999117 0.8026511999999802
  endloop
endfacet
facet normal 0.022703893008245227 -0.8404019666289831 0.541487827867264
  outer loop
    vertex 1.8172789999999555 3.6521639999999103 0.8427348999999793
    vertex 1.7999999999999559 3.64987299999991 0.8399036999999795
    vertex 1.7999999999999559 3.636901999999911 0.8197723999999799
  endloop
endfacet
facet normal -0.1222324908063995 -0.9103263395271638 0.3954303652406304
  outer loop
    vertex 1.8419509999999546 3.65924299999991 0.8666579999999787
    vertex 1.8172789999999555 3.6521639999999103 0.8427348999999793
    vertex 1.8344379999999552 3.6509999999999105 0.8453592999999793
  endloop
endfacet
facet normal -0.016734126644192424 -0.8268576549659309 0.5621622429776814
  outer loop
    vertex 1.8172789999999555 3.6521639999999103 0.8427348999999793
    vertex 1.7999999999999559 3.636901999999911 0.8197723999999799
    vertex 1.8137179999999553 3.6386739999999107 0.8227870999999797
  endloop
endfacet
facet normal -0.28596268922966467 -0.34385902616679975 0.8944195382996495
  outer loop
    vertex 1.8141059999999554 3.598479999999911 0.8001616999999803
    vertex 1.810322999999955 3.6202349999999117 0.8073158999999801
    vertex 1.7999999999999559 3.5974219999999115 0.7952449999999804
  endloop
endfacet
facet normal 0.06744660246024915 -0.9359147250133146 0.3457088129044742
  outer loop
    vertex 1.8209469999999552 3.6607639999999098 0.8653014999999786
    vertex 1.7999999999999559 3.64987299999991 0.8399036999999795
    vertex 1.8172789999999555 3.6521639999999103 0.8427348999999793
  endloop
endfacet
facet normal 0.09963760349286722 -0.9727199339838152 0.2094952935049382
  outer loop
    vertex 1.824608999999955 3.6661759999999095 0.8886885999999782
    vertex 1.7999999999999559 3.6581119999999103 0.8629503999999789
    vertex 1.8209469999999552 3.6607639999999098 0.8653014999999786
  endloop
endfacet
facet normal 0.112337809905432 -0.9906395537013295 -0.07754670275441741
  outer loop
    vertex 1.828030999999955 3.6647079999999104 0.9123991999999777
    vertex 1.7999989999999557 3.6635269999999096 0.886877699999978
    vertex 1.824608999999955 3.6661759999999095 0.8886885999999782
  endloop
endfacet
facet normal -0.27401706149444033 -0.9247532154635905 0.2640949459942437
  outer loop
    vertex 1.873117999999954 3.6558219999999104 0.8870169999999782
    vertex 1.8419509999999546 3.65924299999991 0.8666579999999787
    vertex 1.8621669999999544 3.653143999999911 0.8662772999999788
  endloop
endfacet
facet normal -0.28009782373368136 -0.9199760807978942 0.27420652782055
  outer loop
    vertex 1.8493999999999544 3.6635929999999104 0.888861499999978
    vertex 1.8419509999999546 3.65924299999991 0.8666579999999787
    vertex 1.873117999999954 3.6558219999999104 0.8870169999999782
  endloop
endfacet
facet normal -0.12670312046095358 -0.6237900063338796 0.7712537502427043
  outer loop
    vertex 1.8137179999999553 3.6386739999999107 0.8227870999999797
    vertex 1.7999999999999559 3.6189489999999114 0.8045798999999803
    vertex 1.810322999999955 3.6202349999999117 0.8073158999999801
  endloop
endfacet
facet normal -0.2847242692123971 -0.8391397902492037 0.46343985903457735
  outer loop
    vertex 1.8621669999999544 3.653143999999911 0.8662772999999788
    vertex 1.8344379999999552 3.6509999999999105 0.8453592999999793
    vertex 1.8510349999999545 3.646042999999911 0.8465804999999791
  endloop
endfacet
facet normal -0.31761825462381227 -0.6907348245292183 0.6496183852942535
  outer loop
    vertex 1.8510349999999545 3.646042999999911 0.8465804999999791
    vertex 1.8270349999999551 3.6379209999999107 0.8262100999999797
    vertex 1.840021999999955 3.6341979999999108 0.8286011999999798
  endloop
endfacet
facet normal -0.3581029211932813 -0.12126736978361789 0.9257734727559447
  outer loop
    vertex 1.8208889999999553 3.5974549999999117 0.8026511999999802
    vertex 1.8141059999999554 3.598479999999911 0.8001616999999803
    vertex 1.8096449999999553 3.574700999999912 0.7953212999999805
  endloop
endfacet
facet normal -0.3141841580097467 -0.14688612174242965 0.93793005181366
  outer loop
    vertex 1.8208889999999553 3.5974549999999117 0.8026511999999802
    vertex 1.8096449999999553 3.574700999999912 0.7953212999999805
    vertex 1.8143279999999555 3.5744749999999117 0.7968545999999804
  endloop
endfacet
facet normal -0.18517724464263804 -0.8708510239452759 -0.4553327158902875
  outer loop
    vertex 1.8560229999999545 3.5939039999999123 1.0802489999999734
    vertex 1.832418999999955 3.6122089999999107 1.054838999999974
    vertex 1.8529079999999545 3.6219479999999105 1.0278799999999746
  endloop
endfacet
facet normal -0.746357749783374 -0.53510054203963 -0.39574931364083626
  outer loop
    vertex 1.9162789999999532 3.613282999999911 0.9684122999999762
    vertex 1.9416849999999526 3.580153999999912 0.9652925999999763
    vertex 1.8807199999999538 3.581058999999912 1.0790449999999734
  endloop
endfacet
facet normal -0.5787387208149127 -0.6918765161894053 -0.431704041416258
  outer loop
    vertex 1.8560229999999545 3.5939039999999123 1.0802489999999734
    vertex 1.8692149999999543 3.6163209999999117 1.026636999999975
    vertex 1.9162789999999532 3.613282999999911 0.9684122999999762
  endloop
endfacet
facet normal -0.4415046156000175 -0.8133705090845984 -0.3788166962468024
  outer loop
    vertex 1.8560229999999545 3.5939039999999123 1.0802489999999734
    vertex 1.9162789999999532 3.613282999999911 0.9684122999999762
    vertex 1.8807199999999538 3.581058999999912 1.0790449999999734
  endloop
endfacet
facet normal 0.020718843045962096 -0.9232384659640116 -0.38366843042822163
  outer loop
    vertex 1.801157999999956 3.62319799999991 1.0308979999999748
    vertex 1.8009279999999557 3.6446459999999106 0.979274299999976
    vertex 1.8425739999999546 3.6470519999999107 0.9757335999999759
  endloop
endfacet
facet normal 0.04016239622581639 -0.8871848430663177 -0.4596629593112693
  outer loop
    vertex 1.8287939999999552 3.598818999999912 1.0803659999999733
    vertex 1.801157999999956 3.62319799999991 1.0308979999999748
    vertex 1.832418999999955 3.6122089999999107 1.054838999999974
  endloop
endfacet
facet normal -0.32675478729390817 -0.860679521657353 -0.39046391636127264
  outer loop
    vertex 1.8529079999999545 3.6219479999999105 1.0278799999999746
    vertex 1.8820559999999535 3.6362269999999106 0.9720133999999762
    vertex 1.8692149999999543 3.6163209999999117 1.026636999999975
  endloop
endfacet
facet normal -0.04393490908540834 -0.928468944964563 -0.3688023074765776
  outer loop
    vertex 1.832418999999955 3.6122089999999107 1.054838999999974
    vertex 1.801157999999956 3.62319799999991 1.0308979999999748
    vertex 1.8529079999999545 3.6219479999999105 1.0278799999999746
  endloop
endfacet
facet normal -0.3234633556118976 -0.8420370197136203 -0.4316770957649885
  outer loop
    vertex 1.8560229999999545 3.5939039999999123 1.0802489999999734
    vertex 1.8529079999999545 3.6219479999999105 1.0278799999999746
    vertex 1.8692149999999543 3.6163209999999117 1.026636999999975
  endloop
endfacet
facet normal -0.539492356025404 -0.7423360378515271 -0.39734771258565843
  outer loop
    vertex 1.8692149999999543 3.6163209999999117 1.026636999999975
    vertex 1.8820559999999535 3.6362269999999106 0.9720133999999762
    vertex 1.9162789999999532 3.613282999999911 0.9684122999999762
  endloop
endfacet
facet normal -0.158183392343849 -0.8649972013551026 -0.47619098693111794
  outer loop
    vertex 1.8287939999999552 3.598818999999912 1.0803659999999733
    vertex 1.832418999999955 3.6122089999999107 1.054838999999974
    vertex 1.8560229999999545 3.5939039999999123 1.0802489999999734
  endloop
endfacet
facet normal -0.29965722734193173 -0.9538397278838685 0.019882646005338945
  outer loop
    vertex 1.8563389999999544 3.66176499999991 0.9112514999999777
    vertex 1.8834059999999537 3.65319199999991 0.9079095999999776
    vertex 1.8834509999999538 3.6531809999999103 0.9080600999999777
  endloop
endfacet
facet normal -0.28142736272532737 -0.946832810524656 0.1559046773623172
  outer loop
    vertex 1.8565919999999545 3.66170899999991 0.9113680999999777
    vertex 1.8563389999999544 3.66176499999991 0.9112514999999777
    vertex 1.8834509999999538 3.6531809999999103 0.9080600999999777
  endloop
endfacet
facet normal -0.4365807262878787 -0.8821365718849223 -0.1767267324913406
  outer loop
    vertex 1.8842149999999538 3.6528609999999104 0.9091166999999776
    vertex 1.8873339999999537 3.6514549999999106 0.9084296999999777
    vertex 1.8925059999999538 3.64894799999991 0.9081666999999777
  endloop
endfacet
facet normal -0.04665727176780238 -0.9036266565838325 -0.42577219789731446
  outer loop
    vertex 1.801157999999956 3.62319799999991 1.0308979999999748
    vertex 1.8425739999999546 3.6470519999999107 0.9757335999999759
    vertex 1.8529079999999545 3.6219479999999105 1.0278799999999746
  endloop
endfacet
facet normal -0.6787786359629157 -0.6407816707687676 -0.3586898573518776
  outer loop
    vertex 1.8807199999999538 3.581058999999912 1.0790449999999734
    vertex 1.9416849999999526 3.580153999999912 0.9652925999999763
    vertex 1.9005569999999534 3.561279999999912 1.0768399999999734
  endloop
endfacet
facet normal -0.11170389767299328 -0.9684552641973481 -0.22274793039017549
  outer loop
    vertex 1.8284509999999552 3.664689999999909 0.9125195999999776
    vertex 1.8563389999999544 3.66176499999991 0.9112514999999777
    vertex 1.8565919999999545 3.66170899999991 0.9113680999999777
  endloop
endfacet
facet normal 0.12457144346326668 -0.8606418932835266 -0.49373827783434515
  outer loop
    vertex 1.8287939999999552 3.598818999999912 1.0803659999999733
    vertex 1.8009329999999557 3.595355999999912 1.0793729999999735
    vertex 1.801157999999956 3.62319799999991 1.0308979999999748
  endloop
endfacet
facet normal -0.2778901829615625 -0.8859045483737494 -0.37141644737988166
  outer loop
    vertex 1.8529079999999545 3.6219479999999105 1.0278799999999746
    vertex 1.8425739999999546 3.6470519999999107 0.9757335999999759
    vertex 1.8820559999999535 3.6362269999999106 0.9720133999999762
  endloop
endfacet
facet normal 0.08322692999019292 -0.9324311498511494 -0.3516325197015643
  outer loop
    vertex 1.8425739999999546 3.6470519999999107 0.9757335999999759
    vertex 1.8005479999999556 3.65474299999991 0.9453921999999769
    vertex 1.836191999999955 3.6583349999999104 0.9443036999999769
  endloop
endfacet
facet normal -0.27726558087375774 -0.8745150561601179 -0.39792865467568866
  outer loop
    vertex 1.8425739999999546 3.6470519999999107 0.9757335999999759
    vertex 1.8413639999999545 3.6508279999999105 0.9682782999999763
    vertex 1.8820559999999535 3.6362269999999106 0.9720133999999762
  endloop
endfacet
facet normal 0.10129917433843544 -0.9541559771846796 -0.2816466731227271
  outer loop
    vertex 1.8285859999999552 3.66459499999991 0.9128900999999777
    vertex 1.8000049999999561 3.66194099999991 0.9116015999999777
    vertex 1.828495999999955 3.6646579999999105 0.9126442999999776
  endloop
endfacet
facet normal 0.10150952604040121 -0.9810890547313381 -0.16480316383316898
  outer loop
    vertex 1.828030999999955 3.6647079999999104 0.9123991999999777
    vertex 1.800000999999956 3.6619749999999094 0.9114040999999776
    vertex 1.7999999999999559 3.6619859999999105 0.9113379999999776
  endloop
endfacet
facet normal 0.09074387873842812 -0.9694822034750155 -0.22774943604043033
  outer loop
    vertex 1.8005479999999556 3.65474299999991 0.9453921999999769
    vertex 1.8002949999999558 3.6587169999999105 0.9283748999999772
    vertex 1.836191999999955 3.6583349999999104 0.9443036999999769
  endloop
endfacet
facet normal 0.09871180677386236 -0.9804828088584128 -0.17002776460495156
  outer loop
    vertex 1.8285859999999552 3.66459499999991 0.9128900999999777
    vertex 1.800009999999956 3.6618959999999103 0.9118639999999776
    vertex 1.8000049999999561 3.66194099999991 0.9116015999999777
  endloop
endfacet
facet normal -0.47705101325899696 -0.8752810850837749 0.07940625191465711
  outer loop
    vertex 1.8835609999999539 3.65313499999991 0.9082138999999776
    vertex 1.8834509999999538 3.6531809999999103 0.9080600999999777
    vertex 1.907841999999953 3.6393859999999107 0.9025346999999778
  endloop
endfacet
facet normal 0.1002018509052806 -0.9557608948459313 -0.2765514436021997
  outer loop
    vertex 1.8287649999999553 3.6644709999999097 0.9133834999999776
    vertex 1.800009999999956 3.6618959999999103 0.9118639999999776
    vertex 1.8285859999999552 3.66459499999991 0.9128900999999777
  endloop
endfacet
facet normal 0.09687678342729995 -0.9803203178133336 -0.17200861407250767
  outer loop
    vertex 1.8287649999999553 3.6644709999999097 0.9133834999999776
    vertex 1.8000189999999558 3.66180399999991 0.9123933999999776
    vertex 1.800009999999956 3.6618959999999103 0.9118639999999776
  endloop
endfacet
facet normal 0.0981173520097732 -0.9594573658601968 -0.26422442796078216
  outer loop
    vertex 1.8291149999999552 3.6642329999999093 0.9143776999999775
    vertex 1.8000189999999558 3.66180399999991 0.9123933999999776
    vertex 1.8287649999999553 3.6644709999999097 0.9133834999999776
  endloop
endfacet
facet normal 0.0936924588428073 -0.9803113530923712 -0.17381419434037473
  outer loop
    vertex 1.8291149999999552 3.6642329999999093 0.9143776999999775
    vertex 1.8000389999999558 3.6616159999999103 0.9134644999999775
    vertex 1.8000189999999558 3.66180399999991 0.9123933999999776
  endloop
endfacet
facet normal 0.09978620779142276 -0.9797410586072103 -0.17363804541007144
  outer loop
    vertex 1.828495999999955 3.6646579999999105 0.9126442999999776
    vertex 1.8000049999999561 3.66194099999991 0.9116015999999777
    vertex 1.800001999999956 3.66196399999991 0.9114700999999776
  endloop
endfacet
facet normal 0.0891875351902763 -0.9801973581265269 -0.17680136506390587
  outer loop
    vertex 1.829789999999955 3.66379499999991 0.9163918999999776
    vertex 1.8000769999999557 3.66123399999991 0.9156014999999774
    vertex 1.8000389999999558 3.6616159999999103 0.9134644999999775
  endloop
endfacet
facet normal 0.8971267852481248 -0.31799486104576996 -0.30666398474363826
  outer loop
    vertex 1.8397049999999546 3.6538049999999105 0.9603379999999765
    vertex 1.8413639999999545 3.6508279999999105 0.9682782999999763
    vertex 1.8425739999999546 3.6470519999999107 0.9757335999999759
  endloop
endfacet
facet normal 0.10232902296418028 -0.946343436506411 -0.30653363802433314
  outer loop
    vertex 1.8284509999999552 3.664689999999909 0.9125195999999776
    vertex 1.800000999999956 3.6619749999999094 0.9114040999999776
    vertex 1.8282439999999551 3.6646979999999103 0.9124257999999775
  endloop
endfacet
facet normal -0.20951706518593102 -0.7457046352779871 -0.6324770322476531
  outer loop
    vertex 1.8820559999999535 3.6362269999999106 0.9720133999999762
    vertex 1.8413639999999545 3.6508279999999105 0.9682782999999763
    vertex 1.8803109999999539 3.6420209999999105 0.9657601999999762
  endloop
endfacet
facet normal -0.46596057809765556 -0.7100726209806644 -0.5278992447357248
  outer loop
    vertex 1.8820559999999535 3.6362269999999106 0.9720133999999762
    vertex 1.8803109999999539 3.6420209999999105 0.9657601999999762
    vertex 1.914367999999953 3.621664999999911 0.9630797999999765
  endloop
endfacet
facet normal -0.4436956858840182 -0.5508649414125906 -0.7068818533888206
  outer loop
    vertex 1.9162789999999532 3.613282999999911 0.9684122999999762
    vertex 1.8820559999999535 3.6362269999999106 0.9720133999999762
    vertex 1.914367999999953 3.621664999999911 0.9630797999999765
  endloop
endfacet
facet normal 0.9442955854663603 -0.19804352738689407 -0.26283951097371283
  outer loop
    vertex 1.836191999999955 3.6583349999999104 0.9443036999999769
    vertex 1.8397049999999546 3.6538049999999105 0.9603379999999765
    vertex 1.8425739999999546 3.6470519999999107 0.9757335999999759
  endloop
endfacet
facet normal 0.08614834339114318 -0.9809870247100442 -0.17390491735858585
  outer loop
    vertex 1.833150999999955 3.6617539999999105 0.9287847999999772
    vertex 1.8001519999999558 3.66043699999991 0.9198669999999775
    vertex 1.8310389999999548 3.6630379999999096 0.9204955999999773
  endloop
endfacet
facet normal -0.6670527247376308 -0.5021848946456658 -0.5503189929575611
  outer loop
    vertex 1.914367999999953 3.621664999999911 0.9630797999999765
    vertex 1.9377539999999522 3.5999849999999123 0.9545168999999766
    vertex 1.9162789999999532 3.613282999999911 0.9684122999999762
  endloop
endfacet
facet normal -0.09751559101283229 -0.9865671034223061 0.13105746813645835
  outer loop
    vertex 1.8284509999999552 3.664689999999909 0.9125195999999776
    vertex 1.8282439999999551 3.6646979999999103 0.9124257999999775
    vertex 1.8563389999999544 3.66176499999991 0.9112514999999777
  endloop
endfacet
facet normal 0.10010712799015346 -0.9811918632134413 -0.16504875185622653
  outer loop
    vertex 1.8284509999999552 3.664689999999909 0.9125195999999776
    vertex 1.800001999999956 3.66196399999991 0.9114700999999776
    vertex 1.800000999999956 3.6619749999999094 0.9114040999999776
  endloop
endfacet
facet normal -0.4771985035357125 -0.875263466816153 0.07871119285238797
  outer loop
    vertex 1.8834509999999538 3.6531809999999103 0.9080600999999777
    vertex 1.8834059999999537 3.65319199999991 0.9079095999999776
    vertex 1.907841999999953 3.6393859999999107 0.9025346999999778
  endloop
endfacet
facet normal 0.03103805181585543 -0.9577941069749687 -0.285774540474652
  outer loop
    vertex 1.8009279999999557 3.6446459999999106 0.979274299999976
    vertex 1.8005479999999556 3.65474299999991 0.9453921999999769
    vertex 1.8425739999999546 3.6470519999999107 0.9757335999999759
  endloop
endfacet
facet normal 0.09451264336702248 -0.9657423562000117 -0.24167966750437994
  outer loop
    vertex 1.829789999999955 3.66379499999991 0.9163918999999776
    vertex 1.8000389999999558 3.6616159999999103 0.9134644999999775
    vertex 1.8291149999999552 3.6642329999999093 0.9143776999999775
  endloop
endfacet
facet normal -0.6649823526029398 -0.45507555857032606 -0.5922032646976588
  outer loop
    vertex 1.9162789999999532 3.613282999999911 0.9684122999999762
    vertex 1.9377539999999522 3.5999849999999123 0.9545168999999766
    vertex 1.941702999999952 3.580162999999912 0.9653146999999763
  endloop
endfacet
facet normal 0.10181211770143084 -0.9541201944998705 -0.28158293118845007
  outer loop
    vertex 1.828495999999955 3.6646579999999105 0.9126442999999776
    vertex 1.800001999999956 3.66196399999991 0.9114700999999776
    vertex 1.8284509999999552 3.664689999999909 0.9125195999999776
  endloop
endfacet
facet normal 0.08947703226466702 -0.9742510657498452 -0.2069510125184187
  outer loop
    vertex 1.8310389999999548 3.6630379999999096 0.9204955999999773
    vertex 1.8000769999999557 3.66123399999991 0.9156014999999774
    vertex 1.829789999999955 3.66379499999991 0.9163918999999776
  endloop
endfacet
facet normal 0.08620021473521682 -0.9790545041667394 -0.18444999552838776
  outer loop
    vertex 1.8310389999999548 3.6630379999999096 0.9204955999999773
    vertex 1.8001519999999558 3.66043699999991 0.9198669999999775
    vertex 1.8000769999999557 3.66123399999991 0.9156014999999774
  endloop
endfacet
facet normal 0.09240454595384429 -0.968444331299714 -0.23146701073914144
  outer loop
    vertex 1.836191999999955 3.6583349999999104 0.9443036999999769
    vertex 1.8002949999999558 3.6587169999999105 0.9283748999999772
    vertex 1.833150999999955 3.6617539999999105 0.9287847999999772
  endloop
endfacet
facet normal 0.09266301396858612 -0.9756496471930857 -0.1987997278022913
  outer loop
    vertex 1.833150999999955 3.6617539999999105 0.9287847999999772
    vertex 1.8002949999999558 3.6587169999999105 0.9283748999999772
    vertex 1.8001519999999558 3.66043699999991 0.9198669999999775
  endloop
endfacet
facet normal -0.42560015527723427 -0.8770456930240718 0.2228348271162295
  outer loop
    vertex 1.8900939999999538 3.6500989999999103 0.9072501999999777
    vertex 1.8964459999999532 3.6467379999999103 0.9061536999999775
    vertex 1.8934489999999535 3.6483939999999104 0.9069473999999775
  endloop
endfacet
facet normal -0.42995603347356426 -0.9026430676123187 0.019321018894006774
  outer loop
    vertex 1.8895509999999536 3.6505499999999107 0.9173677999999775
    vertex 1.8866599999999538 3.6518269999999102 0.9126926999999776
    vertex 1.8953739999999535 3.647732999999911 0.9153434999999774
  endloop
endfacet
facet normal -0.4608450041857163 -0.8263898160702111 0.3235765041107129
  outer loop
    vertex 1.902209999999953 3.6432269999999107 0.904323099999978
    vertex 1.907841999999953 3.6393859999999107 0.9025346999999778
    vertex 1.9051539999999532 3.6412999999999105 0.9035945999999778
  endloop
endfacet
facet normal -0.1406744416106764 -0.579897059047202 0.8024525546011616
  outer loop
    vertex 1.907841999999953 3.6393859999999107 0.9025346999999778
    vertex 1.902209999999953 3.6432269999999107 0.904323099999978
    vertex 1.8835609999999539 3.65313499999991 0.9082138999999776
  endloop
endfacet
facet normal -0.11783786713827928 -0.5472057900865214 0.8286616078738578
  outer loop
    vertex 1.902209999999953 3.6432269999999107 0.904323099999978
    vertex 1.8962469999999534 3.6468219999999105 0.9058490999999778
    vertex 1.8835609999999539 3.65313499999991 0.9082138999999776
  endloop
endfacet
facet normal -0.45943537660892897 -0.8864633057590533 0.055695082933259935
  outer loop
    vertex 1.8900939999999538 3.6500989999999103 0.9072501999999777
    vertex 1.8962469999999534 3.6468219999999105 0.9058490999999778
    vertex 1.8964459999999532 3.6467379999999103 0.9061536999999775
  endloop
endfacet
facet normal -0.7053313007289231 -0.610622967279979 -0.3600657551645798
  outer loop
    vertex 1.9114879999999532 3.6288959999999104 0.9569400999999765
    vertex 1.9303759999999526 3.6172689999999106 0.9396582999999769
    vertex 1.9377539999999522 3.5999849999999123 0.9545168999999766
  endloop
endfacet
facet normal -0.4205137280935492 -0.9065564533755457 -0.03638133213637189
  outer loop
    vertex 1.8942819999999534 3.6482559999999102 0.9135765999999775
    vertex 1.8866599999999538 3.6518269999999102 0.9126926999999776
    vertex 1.8897409999999537 3.6504269999999104 0.9119663999999775
  endloop
endfacet
facet normal -0.39978379540497655 -0.9029627478550937 0.15757916397027474
  outer loop
    vertex 1.8837809999999535 3.6530429999999097 0.9085151999999777
    vertex 1.8904119999999534 3.649965999999911 0.9077063999999777
    vertex 1.8873339999999537 3.6514549999999106 0.9084296999999777
  endloop
endfacet
facet normal -0.2511334020896296 -0.7388817741650984 0.6252885239323723
  outer loop
    vertex 1.8835609999999539 3.65313499999991 0.9082138999999776
    vertex 1.8962469999999534 3.6468219999999105 0.9058490999999778
    vertex 1.8900939999999538 3.6500989999999103 0.9072501999999777
  endloop
endfacet
facet normal -0.6043791245992197 -0.7966958734618922 -0.0012485821853032207
  outer loop
    vertex 1.916017999999953 3.6343689999999107 0.9208231999999773
    vertex 1.911919999999953 3.63747899999991 0.9200394999999773
    vertex 1.9115599999999529 3.6377529999999108 0.9194642999999774
  endloop
endfacet
facet normal -0.41788782108435074 -0.9080715072783431 0.02785510112370922
  outer loop
    vertex 1.8837809999999535 3.6530429999999097 0.9085151999999777
    vertex 1.8835609999999539 3.65313499999991 0.9082138999999776
    vertex 1.8900939999999538 3.6500989999999103 0.9072501999999777
  endloop
endfacet
facet normal -0.5764683095231431 -0.8170911451947998 -0.0068079776571578505
  outer loop
    vertex 1.9202019999999527 3.630557999999911 0.9220085999999775
    vertex 1.9052499999999533 3.6412589999999105 0.9037449999999779
    vertex 1.906606999999953 3.6403059999999106 0.9032191999999778
  endloop
endfacet
facet normal -0.43829459854913394 -0.8455443597838674 0.30488125642673275
  outer loop
    vertex 1.8962469999999534 3.6468219999999105 0.9058490999999778
    vertex 1.9023009999999532 3.6431879999999106 0.9044738999999777
    vertex 1.8994039999999535 3.644996999999911 0.9053261999999777
  endloop
endfacet
facet normal -0.5274530185470616 -0.8436664628796668 0.10010101217122999
  outer loop
    vertex 1.9023009999999532 3.6431879999999106 0.9044738999999777
    vertex 1.902209999999953 3.6432269999999107 0.904323099999978
    vertex 1.9051539999999532 3.6412999999999105 0.9035945999999778
  endloop
endfacet
facet normal -0.22392607595484815 -0.5051017213898257 -0.8335042672695194
  outer loop
    vertex 1.9202019999999527 3.630557999999911 0.9220085999999775
    vertex 1.911919999999953 3.63747899999991 0.9200394999999773
    vertex 1.916017999999953 3.6343689999999107 0.9208231999999773
  endloop
endfacet
facet normal -0.653713019566641 -0.7357223224074015 -0.17712129279260602
  outer loop
    vertex 1.903454999999953 3.640456999999911 0.9426995999999768
    vertex 1.9202019999999527 3.630557999999911 0.9220085999999775
    vertex 1.9303759999999526 3.6172689999999106 0.9396582999999769
  endloop
endfacet
facet normal -0.41053072045036787 -0.9117081767400034 0.015897422178477658
  outer loop
    vertex 1.8866599999999538 3.6518269999999102 0.9126926999999776
    vertex 1.8850599999999538 3.6525059999999105 0.9103149999999777
    vertex 1.8897409999999537 3.6504269999999104 0.9119663999999775
  endloop
endfacet
facet normal -0.5512236762263727 -0.8327545956860528 -0.05169373396497872
  outer loop
    vertex 1.911919999999953 3.63747899999991 0.9200394999999773
    vertex 1.9037259999999532 3.64304199999991 0.9177976999999775
    vertex 1.9115599999999529 3.6377529999999108 0.9194642999999774
  endloop
endfacet
facet normal -0.525978521941217 -0.8330613283150186 -0.1713342281114594
  outer loop
    vertex 1.9115599999999529 3.6377529999999108 0.9194642999999774
    vertex 1.9037259999999532 3.64304199999991 0.9177976999999775
    vertex 1.9072759999999531 3.640743999999911 0.9180728999999775
  endloop
endfacet
facet normal -0.5446543912895302 -0.8382494803595761 0.026256479694205876
  outer loop
    vertex 1.9072759999999531 3.640743999999911 0.9180728999999775
    vertex 1.9037259999999532 3.64304199999991 0.9177976999999775
    vertex 1.9030219999999531 3.6434629999999104 0.9166347999999773
  endloop
endfacet
facet normal -0.6505691974585942 -0.7261193653995157 -0.22250929533366745
  outer loop
    vertex 1.9114879999999532 3.6288959999999104 0.9569400999999765
    vertex 1.903454999999953 3.640456999999911 0.9426995999999768
    vertex 1.9303759999999526 3.6172689999999106 0.9396582999999769
  endloop
endfacet
facet normal -0.5671334971062023 -0.8209556569363834 -0.06626768295512273
  outer loop
    vertex 1.903454999999953 3.640456999999911 0.9426995999999768
    vertex 1.8944539999999537 3.6479939999999105 0.9263601999999772
    vertex 1.9202019999999527 3.630557999999911 0.9220085999999775
  endloop
endfacet
facet normal -0.08477234888344844 -0.9420195144573907 0.3246735025317664
  outer loop
    vertex 1.8282439999999551 3.6646979999999103 0.9124257999999775
    vertex 1.828030999999955 3.6647079999999104 0.9123991999999777
    vertex 1.8563389999999544 3.66176499999991 0.9112514999999777
  endloop
endfacet
facet normal 0.08122411244154847 -0.5244428647979064 -0.8475625788817294
  outer loop
    vertex 1.8282439999999551 3.6646979999999103 0.9124257999999775
    vertex 1.800000999999956 3.6619749999999094 0.9114040999999776
    vertex 1.828030999999955 3.6647079999999104 0.9123991999999777
  endloop
endfacet
facet normal -0.6995689983776991 -0.6034979474458463 -0.38261396202631404
  outer loop
    vertex 1.9114879999999532 3.6288959999999104 0.9569400999999765
    vertex 1.9377539999999522 3.5999849999999123 0.9545168999999766
    vertex 1.914367999999953 3.621664999999911 0.9630797999999765
  endloop
endfacet
facet normal -0.48892649658959497 -0.8686607028144921 0.07987154886727356
  outer loop
    vertex 1.8964459999999532 3.6467379999999103 0.9061536999999775
    vertex 1.8962469999999534 3.6468219999999105 0.9058490999999778
    vertex 1.8994039999999535 3.644996999999911 0.9053261999999777
  endloop
endfacet
facet normal -0.5520187388156952 -0.8313187234753583 0.0646876494829598
  outer loop
    vertex 1.8944539999999537 3.6479939999999105 0.9263601999999772
    vertex 1.8895509999999536 3.6505499999999107 0.9173677999999775
    vertex 1.9202019999999527 3.630557999999911 0.9220085999999775
  endloop
endfacet
facet normal -0.3559491416757906 -0.861965851682609 0.36099179917740865
  outer loop
    vertex 1.8837809999999535 3.6530429999999097 0.9085151999999777
    vertex 1.8934489999999535 3.6483939999999104 0.9069473999999775
    vertex 1.8904119999999534 3.649965999999911 0.9077063999999777
  endloop
endfacet
facet normal -0.45227691179978485 -0.833689297242351 -0.3168718206410991
  outer loop
    vertex 1.8837809999999535 3.6530429999999097 0.9085151999999777
    vertex 1.8900939999999538 3.6500989999999103 0.9072501999999777
    vertex 1.8934489999999535 3.6483939999999104 0.9069473999999775
  endloop
endfacet
facet normal -0.4998863909245241 -0.8625178910374147 0.07859060890987145
  outer loop
    vertex 1.8962469999999534 3.6468219999999105 0.9058490999999778
    vertex 1.902209999999953 3.6432269999999107 0.904323099999978
    vertex 1.9023009999999532 3.6431879999999106 0.9044738999999777
  endloop
endfacet
facet normal -0.40762138956875166 -0.9129762495135233 0.017865346071681863
  outer loop
    vertex 1.8842149999999538 3.6528609999999104 0.9091166999999776
    vertex 1.8837809999999535 3.6530429999999097 0.9085151999999777
    vertex 1.8873339999999537 3.6514549999999106 0.9084296999999777
  endloop
endfacet
facet normal -0.4489386654306346 -0.8901546832111565 -0.0779661121167818
  outer loop
    vertex 1.8873339999999537 3.6514549999999106 0.9084296999999777
    vertex 1.8904119999999534 3.649965999999911 0.9077063999999777
    vertex 1.8939609999999536 3.6481759999999106 0.9077075999999775
  endloop
endfacet
facet normal -0.42456653268490946 -0.8921057003766857 0.15456609809184205
  outer loop
    vertex 1.8873339999999537 3.6514549999999106 0.9084296999999777
    vertex 1.8939609999999536 3.6481759999999106 0.9077075999999775
    vertex 1.8925059999999538 3.64894799999991 0.9081666999999777
  endloop
endfacet
facet normal -0.4628504264075271 -0.8799732249488642 -0.10684851963160745
  outer loop
    vertex 1.9037259999999532 3.64304199999991 0.9177976999999775
    vertex 1.8895509999999536 3.6505499999999107 0.9173677999999775
    vertex 1.8953739999999535 3.647732999999911 0.9153434999999774
  endloop
endfacet
facet normal -0.4089763901705016 -0.9034911877722691 0.12822630736693655
  outer loop
    vertex 1.8842149999999538 3.6528609999999104 0.9091166999999776
    vertex 1.8910389999999537 3.64970099999991 0.9086161999999776
    vertex 1.8895619999999538 3.6504319999999106 0.9090559999999777
  endloop
endfacet
facet normal -0.40061236446701387 -0.8956891024780111 0.19300457284293351
  outer loop
    vertex 1.8842149999999538 3.6528609999999104 0.9091166999999776
    vertex 1.8925059999999538 3.64894799999991 0.9081666999999777
    vertex 1.8910389999999537 3.64970099999991 0.9086161999999776
  endloop
endfacet
facet normal -0.47478448339855095 -0.8760130775422192 -0.084739496688267
  outer loop
    vertex 1.9030219999999531 3.6434629999999104 0.9166347999999773
    vertex 1.8953739999999535 3.647732999999911 0.9153434999999774
    vertex 1.8987009999999533 3.6459499999999108 0.9151348999999775
  endloop
endfacet
facet normal -0.5105499641824071 -0.8435238343595193 0.16675213624046092
  outer loop
    vertex 1.9023009999999532 3.6431879999999106 0.9044738999999777
    vertex 1.9052499999999533 3.6412589999999105 0.9037449999999779
    vertex 1.903872999999953 3.642194999999911 0.9042637999999776
  endloop
endfacet
facet normal -0.5020829171173347 -0.8557355571695979 0.1250176008991749
  outer loop
    vertex 1.8994039999999535 3.644996999999911 0.9053261999999777
    vertex 1.9024829999999533 3.6431099999999104 0.9047753999999777
    vertex 1.9010899999999533 3.64400099999991 0.9052797999999775
  endloop
endfacet
facet normal -0.39936307183038106 -0.7814436985074318 -0.47943183344582796
  outer loop
    vertex 1.911919999999953 3.63747899999991 0.9200394999999773
    vertex 1.8895509999999536 3.6505499999999107 0.9173677999999775
    vertex 1.9037259999999532 3.64304199999991 0.9177976999999775
  endloop
endfacet
facet normal -0.47069318439583663 -0.8817903633256581 0.029894502994877118
  outer loop
    vertex 1.8953739999999535 3.647732999999911 0.9153434999999774
    vertex 1.8942819999999534 3.6482559999999102 0.9135765999999775
    vertex 1.8987009999999533 3.6459499999999108 0.9151348999999775
  endloop
endfacet
facet normal -0.5257418826104772 -0.8332143783889484 0.1713162937817349
  outer loop
    vertex 1.9051539999999532 3.6412999999999105 0.9035945999999778
    vertex 1.907841999999953 3.6393859999999107 0.9025346999999778
    vertex 1.906606999999953 3.6403059999999106 0.9032191999999778
  endloop
endfacet
facet normal -0.48433384535624247 -0.8745700199481437 -0.02340953759344909
  outer loop
    vertex 1.9037259999999532 3.64304199999991 0.9177976999999775
    vertex 1.8953739999999535 3.647732999999911 0.9153434999999774
    vertex 1.9030219999999531 3.6434629999999104 0.9166347999999773
  endloop
endfacet
facet normal -0.4858033767796093 -0.8710264664774808 0.07285584262969591
  outer loop
    vertex 1.8968419999999533 3.64656799999991 0.9067617999999776
    vertex 1.8964459999999532 3.6467379999999103 0.9061536999999775
    vertex 1.8982679999999534 3.645731999999911 0.9062755999999776
  endloop
endfacet
facet normal -0.40562362824892734 -0.9140397009272268 -0.000947277700522106
  outer loop
    vertex 1.8897409999999537 3.6504269999999104 0.9119663999999775
    vertex 1.8850599999999538 3.6525059999999105 0.9103149999999777
    vertex 1.8865729999999536 3.6518349999999105 0.9099054999999776
  endloop
endfacet
facet normal -0.4025100240039785 -0.9153279265343629 0.012667576035728437
  outer loop
    vertex 1.8850599999999538 3.6525059999999105 0.9103149999999777
    vertex 1.8842149999999538 3.6528609999999104 0.9091166999999776
    vertex 1.8865729999999536 3.6518349999999105 0.9099054999999776
  endloop
endfacet
facet normal -0.5093765146942627 -0.8562387247791077 0.08596983463153192
  outer loop
    vertex 1.8994039999999535 3.644996999999911 0.9053261999999777
    vertex 1.9023009999999532 3.6431879999999106 0.9044738999999777
    vertex 1.9024829999999533 3.6431099999999104 0.9047753999999777
  endloop
endfacet
facet normal -0.4146874266815948 -0.9098256170659994 0.015864573195348116
  outer loop
    vertex 1.8897409999999537 3.6504269999999104 0.9119663999999775
    vertex 1.8865729999999536 3.6518349999999105 0.9099054999999776
    vertex 1.8880729999999537 3.6511439999999107 0.9094857999999776
  endloop
endfacet
facet normal -0.4860558116275426 -0.8671123346890589 0.10893092771651375
  outer loop
    vertex 1.8982679999999534 3.645731999999911 0.9062755999999776
    vertex 1.8964459999999532 3.6467379999999103 0.9061536999999775
    vertex 1.899685999999953 3.64487499999991 0.9057808999999776
  endloop
endfacet
facet normal -0.4254690490491539 -0.9046381890680525 0.024613719363056397
  outer loop
    vertex 1.8897409999999537 3.6504269999999104 0.9119663999999775
    vertex 1.8880729999999537 3.6511439999999107 0.9094857999999776
    vertex 1.8895619999999538 3.6504319999999106 0.9090559999999777
  endloop
endfacet
facet normal -0.5223656794818052 -0.8472860970088754 0.09612682619840664
  outer loop
    vertex 1.9024829999999533 3.6431099999999104 0.9047753999999777
    vertex 1.9023009999999532 3.6431879999999106 0.9044738999999777
    vertex 1.903872999999953 3.642194999999911 0.9042637999999776
  endloop
endfacet
facet normal -0.40933305533149933 -0.9115968091184555 0.037917112469568116
  outer loop
    vertex 1.8865729999999536 3.6518349999999105 0.9099054999999776
    vertex 1.8842149999999538 3.6528609999999104 0.9091166999999776
    vertex 1.8880729999999537 3.6511439999999107 0.9094857999999776
  endloop
endfacet
facet normal -0.41159261558526344 -0.9080016656015554 0.07825914681673156
  outer loop
    vertex 1.8880729999999537 3.6511439999999107 0.9094857999999776
    vertex 1.8842149999999538 3.6528609999999104 0.9091166999999776
    vertex 1.8895619999999538 3.6504319999999106 0.9090559999999777
  endloop
endfacet
facet normal -0.4680885349452267 -0.8790084261538423 0.09075962870889424
  outer loop
    vertex 1.8954059999999535 3.6473819999999106 0.9072392999999777
    vertex 1.8934489999999535 3.6483939999999104 0.9069473999999775
    vertex 1.8968419999999533 3.64656799999991 0.9067617999999776
  endloop
endfacet
facet normal -0.5087634450150158 -0.8608743822626761 -0.007419904332870094
  outer loop
    vertex 1.8964459999999532 3.6467379999999103 0.9061536999999775
    vertex 1.8994039999999535 3.644996999999911 0.9053261999999777
    vertex 1.9010899999999533 3.64400099999991 0.9052797999999775
  endloop
endfacet
facet normal -0.1394478760603855 -0.42176797426206725 -0.8959163274263504
  outer loop
    vertex 1.9202019999999527 3.630557999999911 0.9220085999999775
    vertex 1.8895509999999536 3.6505499999999107 0.9173677999999775
    vertex 1.911919999999953 3.63747899999991 0.9200394999999773
  endloop
endfacet
facet normal -0.5259298366086853 -0.8439424662247069 0.10563579254836372
  outer loop
    vertex 1.9023009999999532 3.6431879999999106 0.9044738999999777
    vertex 1.9051539999999532 3.6412999999999105 0.9035945999999778
    vertex 1.9052499999999533 3.6412589999999105 0.9037449999999779
  endloop
endfacet
facet normal -0.4704787269109217 -0.8803506914613074 0.06026962392347003
  outer loop
    vertex 1.8934489999999535 3.6483939999999104 0.9069473999999775
    vertex 1.8964459999999532 3.6467379999999103 0.9061536999999775
    vertex 1.8968419999999533 3.64656799999991 0.9067617999999776
  endloop
endfacet
facet normal -0.4594666421640473 -0.8881943346539329 0.001108434550437058
  outer loop
    vertex 1.8904119999999534 3.649965999999911 0.9077063999999777
    vertex 1.8934489999999535 3.6483939999999104 0.9069473999999775
    vertex 1.8954059999999535 3.6473819999999106 0.9072392999999777
  endloop
endfacet
facet normal -0.42365099645265086 -0.9058036803239455 -0.006286963994796
  outer loop
    vertex 1.8953739999999535 3.647732999999911 0.9153434999999774
    vertex 1.8866599999999538 3.6518269999999102 0.9126926999999776
    vertex 1.8942819999999534 3.6482559999999102 0.9135765999999775
  endloop
endfacet
facet normal -0.4469323598572543 -0.8860419503180572 0.12321172017709672
  outer loop
    vertex 1.8939609999999536 3.6481759999999106 0.9077075999999775
    vertex 1.8904119999999534 3.649965999999911 0.9077063999999777
    vertex 1.8954059999999535 3.6473819999999106 0.9072392999999777
  endloop
endfacet
facet normal -0.5398820776304435 -0.8335156653843494 0.11738389077007583
  outer loop
    vertex 1.9052499999999533 3.6412589999999105 0.9037449999999779
    vertex 1.9051539999999532 3.6412999999999105 0.9035945999999778
    vertex 1.906606999999953 3.6403059999999106 0.9032191999999778
  endloop
endfacet
facet normal -0.4765363344430012 -0.8626686155384301 0.1694579054533499
  outer loop
    vertex 1.8964459999999532 3.6467379999999103 0.9061536999999775
    vertex 1.9010899999999533 3.64400099999991 0.9052797999999775
    vertex 1.899685999999953 3.64487499999991 0.9057808999999776
  endloop
endfacet
facet normal -0.5668306222914313 -0.8236260040267687 -0.01852703763708678
  outer loop
    vertex 1.9202019999999527 3.630557999999911 0.9220085999999775
    vertex 1.903872999999953 3.642194999999911 0.9042637999999776
    vertex 1.9052499999999533 3.6412589999999105 0.9037449999999779
  endloop
endfacet
facet normal -0.43735211101789784 -0.8989328600183755 0.025354371760545336
  outer loop
    vertex 1.8897409999999537 3.6504269999999104 0.9119663999999775
    vertex 1.8895619999999538 3.6504319999999106 0.9090559999999777
    vertex 1.8910389999999537 3.64970099999991 0.9086161999999776
  endloop
endfacet
facet normal -0.22228855133125794 -0.8429366298746067 -0.48994452539312144
  outer loop
    vertex 1.8413639999999545 3.6508279999999105 0.9682782999999763
    vertex 1.8777219999999535 3.6467359999999105 0.9588227999999763
    vertex 1.8803109999999539 3.6420209999999105 0.9657601999999762
  endloop
endfacet
facet normal -0.6852201124961649 -0.6502026463733553 0.3281918891134097
  outer loop
    vertex 1.8982679999999534 3.645731999999911 0.9062755999999776
    vertex 1.9202019999999527 3.630557999999911 0.9220085999999775
    vertex 1.916017999999953 3.6343689999999107 0.9208231999999773
  endloop
endfacet
facet normal -0.5493341675795068 -0.8344959001387632 -0.04299494134576621
  outer loop
    vertex 1.9202019999999527 3.630557999999911 0.9220085999999775
    vertex 1.9010899999999533 3.64400099999991 0.9052797999999775
    vertex 1.9024829999999533 3.6431099999999104 0.9047753999999777
  endloop
endfacet
facet normal -0.18571726285986478 -0.9321892788636247 -0.3106963898206021
  outer loop
    vertex 1.8413639999999545 3.6508279999999105 0.9682782999999763
    vertex 1.8397049999999546 3.6538049999999105 0.9603379999999765
    vertex 1.8777219999999535 3.6467359999999105 0.9588227999999763
  endloop
endfacet
facet normal -0.4865594897144557 -0.8734072530317014 -0.0204849535129148
  outer loop
    vertex 1.8897409999999537 3.6504269999999104 0.9119663999999775
    vertex 1.8939609999999536 3.6481759999999106 0.9077075999999775
    vertex 1.8954059999999535 3.6473819999999106 0.9072392999999777
  endloop
endfacet
facet normal -0.467805960720125 -0.8838238502839205 0.0036034405818558737
  outer loop
    vertex 1.8897409999999537 3.6504269999999104 0.9119663999999775
    vertex 1.8925059999999538 3.64894799999991 0.9081666999999777
    vertex 1.8939609999999536 3.6481759999999106 0.9077075999999775
  endloop
endfacet
facet normal -0.1845417384311809 -0.9162474098803954 -0.35557703900036103
  outer loop
    vertex 1.8397049999999546 3.6538049999999105 0.9603379999999765
    vertex 1.871305999999954 3.6537909999999103 0.9439733999999769
    vertex 1.8777219999999535 3.6467359999999105 0.9588227999999763
  endloop
endfacet
facet normal -0.4936368991949706 -0.8684771857066731 0.04549713903303295
  outer loop
    vertex 1.8987009999999533 3.6459499999999108 0.9151348999999775
    vertex 1.8968419999999533 3.64656799999991 0.9067617999999776
    vertex 1.8982679999999534 3.645731999999911 0.9062755999999776
  endloop
endfacet
facet normal -0.5544993432087048 -0.828985505237547 0.07289383024072674
  outer loop
    vertex 1.9072759999999531 3.640743999999911 0.9180728999999775
    vertex 1.9030219999999531 3.6434629999999104 0.9166347999999773
    vertex 1.8982679999999534 3.645731999999911 0.9062755999999776
  endloop
endfacet
facet normal -0.4461383456722983 -0.8933522871150681 0.05368675467060623
  outer loop
    vertex 1.8942819999999534 3.6482559999999102 0.9135765999999775
    vertex 1.8897409999999537 3.6504269999999104 0.9119663999999775
    vertex 1.8968419999999533 3.64656799999991 0.9067617999999776
  endloop
endfacet
facet normal -0.12671787626101721 -0.9614918376669653 -0.2438770713611668
  outer loop
    vertex 1.8397049999999546 3.6538049999999105 0.9603379999999765
    vertex 1.836191999999955 3.6583349999999104 0.9443036999999769
    vertex 1.871305999999954 3.6537909999999103 0.9439733999999769
  endloop
endfacet
facet normal -0.1122169500482052 -0.9781354722487646 -0.1750952713540969
  outer loop
    vertex 1.829789999999955 3.66379499999991 0.9163918999999776
    vertex 1.8291149999999552 3.6642329999999093 0.9143776999999775
    vertex 1.8579189999999546 3.6611019999999095 0.9134081999999776
  endloop
endfacet
facet normal -0.11091458406656665 -0.9749002130756098 -0.1930479981415791
  outer loop
    vertex 1.836191999999955 3.6583349999999104 0.9443036999999769
    vertex 1.833150999999955 3.6617539999999105 0.9287847999999772
    vertex 1.8651299999999542 3.6581739999999097 0.9284905999999773
  endloop
endfacet
facet normal -0.11154246884324322 -0.9865623926509514 -0.1193856065494685
  outer loop
    vertex 1.833150999999955 3.6617539999999105 0.9287847999999772
    vertex 1.8614979999999544 3.65961899999991 0.9199429999999775
    vertex 1.8651299999999542 3.6581739999999097 0.9284905999999773
  endloop
endfacet
facet normal -0.47335208454876926 -0.8799580064434773 0.040146119978844895
  outer loop
    vertex 1.8987009999999533 3.6459499999999108 0.9151348999999775
    vertex 1.8942819999999534 3.6482559999999102 0.9135765999999775
    vertex 1.8968419999999533 3.64656799999991 0.9067617999999776
  endloop
endfacet
facet normal -0.510271757431745 -0.8587782888709318 0.046071511060882975
  outer loop
    vertex 1.9030219999999531 3.6434629999999104 0.9166347999999773
    vertex 1.8987009999999533 3.6459499999999108 0.9151348999999775
    vertex 1.8982679999999534 3.645731999999911 0.9062755999999776
  endloop
endfacet
facet normal -0.11262351357816984 -0.9714802393690297 -0.20866741169813863
  outer loop
    vertex 1.8291149999999552 3.6642329999999093 0.9143776999999775
    vertex 1.8572249999999544 3.6614159999999103 0.9123208999999777
    vertex 1.8579189999999546 3.6611019999999095 0.9134081999999776
  endloop
endfacet
facet normal -0.5051315747898112 -0.8615714444202004 -0.05036604322413205
  outer loop
    vertex 1.8897409999999537 3.6504269999999104 0.9119663999999775
    vertex 1.8954059999999535 3.6473819999999106 0.9072392999999777
    vertex 1.8968419999999533 3.64656799999991 0.9067617999999776
  endloop
endfacet
facet normal -0.5417611383816441 -0.838727979554518 -0.05504766345469488
  outer loop
    vertex 1.9202019999999527 3.630557999999911 0.9220085999999775
    vertex 1.899685999999953 3.64487499999991 0.9057808999999776
    vertex 1.9010899999999533 3.64400099999991 0.9052797999999775
  endloop
endfacet
facet normal -0.11303335236923695 -0.976324997112283 -0.1844260319636912
  outer loop
    vertex 1.829789999999955 3.66379499999991 0.9163918999999776
    vertex 1.8579189999999546 3.6611019999999095 0.9134081999999776
    vertex 1.8592179999999543 3.66053999999991 0.9155871999999774
  endloop
endfacet
facet normal -0.11290894032860134 -0.985845073559811 -0.12393975202380986
  outer loop
    vertex 1.833150999999955 3.6617539999999105 0.9287847999999772
    vertex 1.8310389999999548 3.6630379999999096 0.9204955999999773
    vertex 1.8614979999999544 3.65961899999991 0.9199429999999775
  endloop
endfacet
facet normal -0.6285840054055418 -0.7577843452051121 0.17505723152839323
  outer loop
    vertex 1.916017999999953 3.6343689999999107 0.9208231999999773
    vertex 1.9115599999999529 3.6377529999999108 0.9194642999999774
    vertex 1.8982679999999534 3.645731999999911 0.9062755999999776
  endloop
endfacet
facet normal -0.5932154513168031 -0.8049601229146702 0.011602966698248405
  outer loop
    vertex 1.9202019999999527 3.630557999999911 0.9220085999999775
    vertex 1.906606999999953 3.6403059999999106 0.9032191999999778
    vertex 1.907841999999953 3.6393859999999107 0.9025346999999778
  endloop
endfacet
facet normal -0.1271704303842855 -0.9665151190691761 -0.22288159692215936
  outer loop
    vertex 1.836191999999955 3.6583349999999104 0.9443036999999769
    vertex 1.8651299999999542 3.6581739999999097 0.9284905999999773
    vertex 1.871305999999954 3.6537909999999103 0.9439733999999769
  endloop
endfacet
facet normal -0.5937617375678957 -0.7961233078789276 0.11676762244846743
  outer loop
    vertex 1.9115599999999529 3.6377529999999108 0.9194642999999774
    vertex 1.9072759999999531 3.640743999999911 0.9180728999999775
    vertex 1.8982679999999534 3.645731999999911 0.9062755999999776
  endloop
endfacet
facet normal -0.5335605925288028 -0.842932314889545 -0.0691245731651632
  outer loop
    vertex 1.9202019999999527 3.630557999999911 0.9220085999999775
    vertex 1.8982679999999534 3.645731999999911 0.9062755999999776
    vertex 1.899685999999953 3.64487499999991 0.9057808999999776
  endloop
endfacet
facet normal -0.11297222309977152 -0.9824244242877993 -0.14859181461534757
  outer loop
    vertex 1.8310389999999548 3.6630379999999096 0.9204955999999773
    vertex 1.8592179999999543 3.66053999999991 0.9155871999999774
    vertex 1.8614979999999544 3.65961899999991 0.9199429999999775
  endloop
endfacet
facet normal -0.11271404405325622 -0.9826979397864994 -0.14697041679375464
  outer loop
    vertex 1.8310389999999548 3.6630379999999096 0.9204955999999773
    vertex 1.829789999999955 3.66379499999991 0.9163918999999776
    vertex 1.8592179999999543 3.66053999999991 0.9155871999999774
  endloop
endfacet
facet normal -0.45219296249760904 -0.891737571046636 0.018045194692265527
  outer loop
    vertex 1.8897409999999537 3.6504269999999104 0.9119663999999775
    vertex 1.8910389999999537 3.64970099999991 0.9086161999999776
    vertex 1.8925059999999538 3.64894799999991 0.9081666999999777
  endloop
endfacet
facet normal -0.5575115592451224 -0.8295896713016239 -0.03101352249804078
  outer loop
    vertex 1.9202019999999527 3.630557999999911 0.9220085999999775
    vertex 1.9024829999999533 3.6431099999999104 0.9047753999999777
    vertex 1.903872999999953 3.642194999999911 0.9042637999999776
  endloop
endfacet
facet normal -0.11185968344570525 -0.9746166065173685 -0.19393267264696706
  outer loop
    vertex 1.8291149999999552 3.6642329999999093 0.9143776999999775
    vertex 1.8287649999999553 3.6644709999999097 0.9133834999999776
    vertex 1.8572249999999544 3.6614159999999103 0.9123208999999777
  endloop
endfacet
facet normal -0.11154230945744191 -0.9717027094087014 -0.20821180977237902
  outer loop
    vertex 1.8285859999999552 3.66459499999991 0.9128900999999777
    vertex 1.828495999999955 3.6646579999999105 0.9126442999999776
    vertex 1.8566839999999545 3.66166599999991 0.9115068999999776
  endloop
endfacet
facet normal -0.4482869866128452 -0.808168070522866 -0.38197270507318
  outer loop
    vertex 1.8803109999999539 3.6420209999999105 0.9657601999999762
    vertex 1.8777219999999535 3.6467359999999105 0.9588227999999763
    vertex 1.9114879999999532 3.6288959999999104 0.9569400999999765
  endloop
endfacet
facet normal -0.33230336453047116 -0.9392626282753762 -0.08579154414603565
  outer loop
    vertex 1.8651299999999542 3.6581739999999097 0.9284905999999773
    vertex 1.8895509999999536 3.6505499999999107 0.9173677999999775
    vertex 1.8944539999999537 3.6479939999999105 0.9263601999999772
  endloop
endfacet
facet normal -0.31239560750067974 -0.9476789591871415 -0.06567781001417056
  outer loop
    vertex 1.8614979999999544 3.65961899999991 0.9199429999999775
    vertex 1.8866599999999538 3.6518269999999102 0.9126926999999776
    vertex 1.8895509999999536 3.6505499999999107 0.9173677999999775
  endloop
endfacet
facet normal -0.11196663342917461 -0.9679613064722438 -0.22475404817507508
  outer loop
    vertex 1.8285859999999552 3.66459499999991 0.9128900999999777
    vertex 1.8566839999999545 3.66166599999991 0.9115068999999776
    vertex 1.8568659999999542 3.6615819999999095 0.9117779999999776
  endloop
endfacet
facet normal -0.11225687924887187 -0.968579841567336 -0.22192675271516635
  outer loop
    vertex 1.8287649999999553 3.6644709999999097 0.9133834999999776
    vertex 1.8568659999999542 3.6615819999999095 0.9117779999999776
    vertex 1.8572249999999544 3.6614159999999103 0.9123208999999777
  endloop
endfacet
facet normal -0.3818801409708459 -0.9011216227800015 -0.20529826811355084
  outer loop
    vertex 1.871305999999954 3.6537909999999103 0.9439733999999769
    vertex 1.8944539999999537 3.6479939999999105 0.9263601999999772
    vertex 1.903454999999953 3.640456999999911 0.9426995999999768
  endloop
endfacet
facet normal -0.30810437612475156 -0.9492150191260513 -0.06373806459493177
  outer loop
    vertex 1.8592179999999543 3.66053999999991 0.9155871999999774
    vertex 1.8850599999999538 3.6525059999999105 0.9103149999999777
    vertex 1.8866599999999538 3.6518269999999102 0.9126926999999776
  endloop
endfacet
facet normal -0.11146980794256886 -0.9715239888401114 -0.2090828090146244
  outer loop
    vertex 1.828495999999955 3.6646579999999105 0.9126442999999776
    vertex 1.8284509999999552 3.664689999999909 0.9125195999999776
    vertex 1.8565919999999545 3.66170899999991 0.9113680999999777
  endloop
endfacet
facet normal -0.3098848061094626 -0.9503322772485159 -0.02898223183522761
  outer loop
    vertex 1.8651299999999542 3.6581739999999097 0.9284905999999773
    vertex 1.8614979999999544 3.65961899999991 0.9199429999999775
    vertex 1.8895509999999536 3.6505499999999107 0.9173677999999775
  endloop
endfacet
facet normal -0.3094837267937076 -0.9478474382994981 -0.07619092176209122
  outer loop
    vertex 1.8579189999999546 3.6611019999999095 0.9134081999999776
    vertex 1.8572249999999544 3.6614159999999103 0.9123208999999777
    vertex 1.8842149999999538 3.6528609999999104 0.9091166999999776
  endloop
endfacet
facet normal -0.31058330808348644 -0.9468161407051595 -0.08412612222196936
  outer loop
    vertex 1.8572249999999544 3.6614159999999103 0.9123208999999777
    vertex 1.8568659999999542 3.6615819999999095 0.9117779999999776
    vertex 1.8837809999999535 3.6530429999999097 0.9085151999999777
  endloop
endfacet
facet normal -0.30794301832769433 -0.949245305994087 -0.06406595438625377
  outer loop
    vertex 1.8579189999999546 3.6611019999999095 0.9134081999999776
    vertex 1.8842149999999538 3.6528609999999104 0.9091166999999776
    vertex 1.8850599999999538 3.6525059999999105 0.9103149999999777
  endloop
endfacet
facet normal -0.11182896555924572 -0.9677600236959265 -0.22568743650901116
  outer loop
    vertex 1.828495999999955 3.6646579999999105 0.9126442999999776
    vertex 1.8565919999999545 3.66170899999991 0.9113680999999777
    vertex 1.8566839999999545 3.66166599999991 0.9115068999999776
  endloop
endfacet
facet normal -0.3788096079341529 -0.8886340896769849 -0.25852028083059586
  outer loop
    vertex 1.8777219999999535 3.6467359999999105 0.9588227999999763
    vertex 1.871305999999954 3.6537909999999103 0.9439733999999769
    vertex 1.903454999999953 3.640456999999911 0.9426995999999768
  endloop
endfacet
facet normal -0.30848166875314 -0.9490357144547255 -0.06457764886311054
  outer loop
    vertex 1.8572249999999544 3.6614159999999103 0.9123208999999777
    vertex 1.8837809999999535 3.6530429999999097 0.9085151999999777
    vertex 1.8842149999999538 3.6528609999999104 0.9091166999999776
  endloop
endfacet
facet normal -0.30884661052905105 -0.9489397757645108 -0.06424230021346383
  outer loop
    vertex 1.8568659999999542 3.6615819999999095 0.9117779999999776
    vertex 1.8835609999999539 3.65313499999991 0.9082138999999776
    vertex 1.8837809999999535 3.6530429999999097 0.9085151999999777
  endloop
endfacet
facet normal -0.3108551288460052 -0.9466812321496099 -0.08463884194523129
  outer loop
    vertex 1.8568659999999542 3.6615819999999095 0.9117779999999776
    vertex 1.8566839999999545 3.66166599999991 0.9115068999999776
    vertex 1.8835609999999539 3.65313499999991 0.9082138999999776
  endloop
endfacet
facet normal -0.31118587562777267 -0.9463657335354964 -0.08692093648597175
  outer loop
    vertex 1.8566839999999545 3.66166599999991 0.9115068999999776
    vertex 1.8565919999999545 3.66170899999991 0.9113680999999777
    vertex 1.8834509999999538 3.6531809999999103 0.9080600999999777
  endloop
endfacet
facet normal -0.307721681308635 -0.9494904881126496 -0.061442492105948425
  outer loop
    vertex 1.8592179999999543 3.66053999999991 0.9155871999999774
    vertex 1.8579189999999546 3.6611019999999095 0.9134081999999776
    vertex 1.8850599999999538 3.6525059999999105 0.9103149999999777
  endloop
endfacet
facet normal -0.3336139681198864 -0.9335358702275048 -0.13119641486671293
  outer loop
    vertex 1.871305999999954 3.6537909999999103 0.9439733999999769
    vertex 1.8651299999999542 3.6581739999999097 0.9284905999999773
    vertex 1.8944539999999537 3.6479939999999105 0.9263601999999772
  endloop
endfacet
facet normal -0.3062719752369801 -0.9510701117470646 -0.04078136493381109
  outer loop
    vertex 1.8614979999999544 3.65961899999991 0.9199429999999775
    vertex 1.8592179999999543 3.66053999999991 0.9155871999999774
    vertex 1.8866599999999538 3.6518269999999102 0.9126926999999776
  endloop
endfacet
facet normal -0.3089275041744864 -0.9490041640677177 -0.0628879459567174
  outer loop
    vertex 1.8566839999999545 3.66166599999991 0.9115068999999776
    vertex 1.8834509999999538 3.6531809999999103 0.9080600999999777
    vertex 1.8835609999999539 3.65313499999991 0.9082138999999776
  endloop
endfacet
facet normal -0.11164181301565182 -0.9725991954214722 -0.20392869011515533
  outer loop
    vertex 1.8287649999999553 3.6644709999999097 0.9133834999999776
    vertex 1.8285859999999552 3.66459499999991 0.9128900999999777
    vertex 1.8568659999999542 3.6615819999999095 0.9117779999999776
  endloop
endfacet
facet normal -0.44968343905128905 -0.6753872487980519 -0.5844971076096135
  outer loop
    vertex 1.8803109999999539 3.6420209999999105 0.9657601999999762
    vertex 1.9114879999999532 3.6288959999999104 0.9569400999999765
    vertex 1.914367999999953 3.621664999999911 0.9630797999999765
  endloop
endfacet
facet normal -0.44562047787734865 -0.8013072712778205 -0.3991604272640974
  outer loop
    vertex 1.8777219999999535 3.6467359999999105 0.9588227999999763
    vertex 1.903454999999953 3.640456999999911 0.9426995999999768
    vertex 1.9114879999999532 3.6288959999999104 0.9569400999999765
  endloop
endfacet
facet normal -0.8005021082247294 0.15579856965224212 0.5787254793268388
  outer loop
    vertex 1.9423459999999522 3.5650619999999122 0.9702705999999761
    vertex 1.8139229999999553 3.550321999999912 0.7966016999999803
    vertex 1.9411899999999525 3.549241999999912 0.9729302999999763
  endloop
endfacet
facet normal -0.8005021082247294 0.15579856965224212 0.5787254793268388
  outer loop
    vertex 1.8139229999999553 3.550321999999912 0.7966016999999803
    vertex 1.9423459999999522 3.5650619999999122 0.9702705999999761
    vertex 1.8180429999999554 3.569764999999912 0.7970652999999804
  endloop
endfacet
facet normal -0.8005021082247294 0.15579856965224212 0.5787254793268388
  outer loop
    vertex 1.8180429999999554 3.569764999999912 0.7970652999999804
    vertex 1.9423459999999522 3.5650619999999122 0.9702705999999761
    vertex 1.9416849999999526 3.580153999999912 0.9652925999999763
  endloop
endfacet
facet normal -0.8005021082247294 0.15579856965224212 0.5787254793268388
  outer loop
    vertex 1.8180429999999554 3.569764999999912 0.7970652999999804
    vertex 1.9416849999999526 3.580153999999912 0.9652925999999763
    vertex 1.8244759999999551 3.588195999999912 0.8010031999999804
  endloop
endfacet
facet normal -0.8005021082247294 0.15579856965224212 0.5787254793268388
  outer loop
    vertex 1.8244759999999551 3.588195999999912 0.8010031999999804
    vertex 1.9416849999999526 3.580153999999912 0.9652925999999763
    vertex 1.941702999999952 3.580162999999912 0.9653146999999763
  endloop
endfacet
facet normal -0.8005021082247294 0.15579856965224212 0.5787254793268388
  outer loop
    vertex 1.8244759999999551 3.588195999999912 0.8010031999999804
    vertex 1.941702999999952 3.580162999999912 0.9653146999999763
    vertex 1.9377539999999522 3.5999849999999123 0.9545168999999766
  endloop
endfacet
facet normal -0.8005021082247294 0.15579856965224212 0.5787254793268388
  outer loop
    vertex 1.8244759999999551 3.588195999999912 0.8010031999999804
    vertex 1.9377539999999522 3.5999849999999123 0.9545168999999766
    vertex 1.833010999999955 3.6048049999999114 0.8083369999999802
  endloop
endfacet
facet normal -0.8005021082247294 0.15579856965224212 0.5787254793268388
  outer loop
    vertex 1.833010999999955 3.6048049999999114 0.8083369999999802
    vertex 1.9377539999999522 3.5999849999999123 0.9545168999999766
    vertex 1.9303759999999526 3.6172689999999106 0.9396582999999769
  endloop
endfacet
facet normal -0.8005021082247294 0.15579856965224212 0.5787254793268388
  outer loop
    vertex 1.833010999999955 3.6048049999999114 0.8083369999999802
    vertex 1.9303759999999526 3.6172689999999106 0.9396582999999769
    vertex 1.8431379999999546 3.618748999999912 0.81859149999998
  endloop
endfacet
facet normal -0.8005021082247294 0.15579856965224212 0.5787254793268388
  outer loop
    vertex 1.8431379999999546 3.618748999999912 0.81859149999998
    vertex 1.9303759999999526 3.6172689999999106 0.9396582999999769
    vertex 1.9202019999999527 3.630557999999911 0.9220085999999775
  endloop
endfacet
facet normal -0.8005021082247294 0.15579856965224212 0.5787254793268388
  outer loop
    vertex 1.8431379999999546 3.618748999999912 0.81859149999998
    vertex 1.9202019999999527 3.630557999999911 0.9220085999999775
    vertex 1.8543929999999544 3.6297589999999107 0.8311948999999798
  endloop
endfacet
facet normal -0.8005021082247294 0.15579856965224212 0.5787254793268388
  outer loop
    vertex 1.8543929999999544 3.6297589999999107 0.8311948999999798
    vertex 1.9202019999999527 3.630557999999911 0.9220085999999775
    vertex 1.8661289999999542 3.6375469999999104 0.8453320999999792
  endloop
endfacet
facet normal -0.8005021082247294 0.15579856965224212 0.5787254793268388
  outer loop
    vertex 1.8661289999999542 3.6375469999999104 0.8453320999999792
    vertex 1.9202019999999527 3.630557999999911 0.9220085999999775
    vertex 1.907841999999953 3.6393859999999107 0.9025346999999778
  endloop
endfacet
facet normal -0.8005021082247294 0.15579856965224212 0.5787254793268388
  outer loop
    vertex 1.8661289999999542 3.6375469999999104 0.8453320999999792
    vertex 1.907841999999953 3.6393859999999107 0.9025346999999778
    vertex 1.8898309999999536 3.6436199999999106 0.8764814999999784
  endloop
endfacet
facet normal -0.0 -0.0 1.0
  outer loop
    vertex 1.9316511349201255 3.5456572804251993 0.09160160999999775
    vertex 1.9317849999999526 3.5543619999999123 0.09160160999999775
    vertex 1.9316097149829385 3.5543096094468236 0.09160160999999775
  endloop
endfacet
facet normal -0.0 -0.0 1.0
  outer loop
    vertex 1.9317849999999526 3.5543619999999123 0.09160160999999775
    vertex 1.9316511349201255 3.5456572804251993 0.09160160999999775
    vertex 1.9318179999999525 3.5469149999999128 0.09160160999999775
  endloop
endfacet
facet normal -0.9993127065414464 0.03093368004116991 0.020426012433158343
  outer loop
    vertex 1.8005479999999556 3.65474299999991 0.9453921999999769
    vertex 1.7999999999999559 3.550321999999912 1.0767199591097294
    vertex 1.8009279999999557 3.6446459999999106 0.979274299999976
  endloop
endfacet
facet normal -0.9999999979475456 -5.720833072095298e-05 -2.8846417582053965e-05
  outer loop
    vertex 1.7999989999999557 3.6635269999999096 0.886877699999978
    vertex 1.7999999999999559 3.6581119999999103 0.8629503999999789
    vertex 1.7999999999999559 3.550321999999912 1.0767199591097294
  endloop
endfacet
facet normal -0.9997693095641736 0.02029941910877172 0.007018635011328499
  outer loop
    vertex 1.801157999999956 3.62319799999991 1.0308979999999748
    vertex 1.7999999999999559 3.550321999999912 1.0767199591097294
    vertex 1.8009329999999557 3.595355999999912 1.0793729999999735
  endloop
endfacet
facet normal -1.0 0.0 0.0
  outer loop
    vertex 1.7999999999999559 3.64987299999991 0.8399036999999795
    vertex 1.7999999999999559 3.636901999999911 0.8197723999999799
    vertex 1.7999999999999559 3.550321999999912 1.0767199591097294
  endloop
endfacet
facet normal -0.9991667422840722 0.033875441098560805 0.022765667216501317
  outer loop
    vertex 1.8002949999999558 3.6587169999999105 0.9283748999999772
    vertex 1.7999999999999559 3.550321999999912 1.0767199591097294
    vertex 1.8005479999999556 3.65474299999991 0.9453921999999769
  endloop
endfacet
facet normal -0.9995682115765582 0.025289798211570767 0.014960498389399697
  outer loop
    vertex 1.8009279999999557 3.6446459999999106 0.979274299999976
    vertex 1.7999999999999559 3.550321999999912 1.0767199591097294
    vertex 1.801157999999956 3.62319799999991 1.0308979999999748
  endloop
endfacet
facet normal -0.9999999967536033 6.678102351911626e-05 4.508978035076863e-05
  outer loop
    vertex 1.7999989999999557 3.6635269999999096 0.886877699999978
    vertex 1.7999999999999559 3.550321999999912 1.0767199591097294
    vertex 1.7999999999999559 3.6619859999999105 0.9113379999999776
  endloop
endfacet
facet normal -0.9990809342378049 0.035531075866214214 0.023975601980022198
  outer loop
    vertex 1.8001519999999558 3.66043699999991 0.9198669999999775
    vertex 1.7999999999999559 3.550321999999912 1.0767199591097294
    vertex 1.8002949999999558 3.6587169999999105 0.9283748999999772
  endloop
endfacet
facet normal -0.9984903318652701 0.04551982908524777 0.0307408902218626
  outer loop
    vertex 1.800001999999956 3.66196399999991 0.9114700999999776
    vertex 1.7999999999999559 3.550321999999912 1.0767199591097294
    vertex 1.8000049999999561 3.66194099999991 0.9116015999999777
  endloop
endfacet
facet normal -1.0 0.0 0.0
  outer loop
    vertex 1.7999999999999559 3.5974219999999115 0.7952449999999804
    vertex 1.7999999999999559 3.5737919999999126 0.7924357999999805
    vertex 1.7999999999999559 3.550321999999912 1.0767199591097294
  endloop
endfacet
facet normal -0.9993556900817677 0.029746077520482014 0.020084212041782963
  outer loop
    vertex 1.800001999999956 3.66196399999991 0.9114700999999776
    vertex 1.7999999999999559 3.6619859999999105 0.9113379999999776
    vertex 1.7999999999999559 3.550321999999912 1.0767199591097294
  endloop
endfacet
facet normal -0.9993556900817677 0.029746077520482014 0.020084212041782963
  outer loop
    vertex 1.7999999999999559 3.6619859999999105 0.9113379999999776
    vertex 1.800001999999956 3.66196399999991 0.9114700999999776
    vertex 1.800000999999956 3.6619749999999094 0.9114040999999776
  endloop
endfacet
facet normal -0.999066936880833 0.035795997277298146 0.0241640685827806
  outer loop
    vertex 1.8000389999999558 3.6616159999999103 0.9134644999999775
    vertex 1.7999999999999559 3.550321999999912 1.0767199591097294
    vertex 1.8000769999999557 3.66123399999991 0.9156014999999774
  endloop
endfacet
facet normal -0.9990574225516633 0.03597683176250455 0.024288557403846247
  outer loop
    vertex 1.8000769999999557 3.66123399999991 0.9156014999999774
    vertex 1.7999999999999559 3.550321999999912 1.0767199591097294
    vertex 1.8001519999999558 3.66043699999991 0.9198669999999775
  endloop
endfacet
facet normal -1.0 0.0 0.0
  outer loop
    vertex 1.7999999999999559 3.6581119999999103 0.8629503999999789
    vertex 1.7999999999999559 3.64987299999991 0.8399036999999795
    vertex 1.7999999999999559 3.550321999999912 1.0767199591097294
  endloop
endfacet
facet normal -1.0 0.0 0.0
  outer loop
    vertex 1.7999999999999559 3.636901999999911 0.8197723999999799
    vertex 1.7999999999999559 3.6189489999999114 0.8045798999999803
    vertex 1.7999999999999559 3.550321999999912 1.0767199591097294
  endloop
endfacet
facet normal -1.0 0.0 0.0
  outer loop
    vertex 1.7999999999999559 3.5737919999999126 0.7924357999999805
    vertex 1.7999999999999559 3.550321999999912 0.7966016999999803
    vertex 1.7999999999999559 3.550321999999912 1.0767199591097294
  endloop
endfacet
facet normal -0.9989854067016956 0.03732167199806126 0.02520416624919549
  outer loop
    vertex 1.8000189999999558 3.66180399999991 0.9123933999999776
    vertex 1.7999999999999559 3.550321999999912 1.0767199591097294
    vertex 1.8000389999999558 3.6616159999999103 0.9134644999999775
  endloop
endfacet
facet normal -1.0 0.0 0.0
  outer loop
    vertex 1.7999999999999559 3.6189489999999114 0.8045798999999803
    vertex 1.7999999999999559 3.5974219999999115 0.7952449999999804
    vertex 1.7999999999999559 3.550321999999912 1.0767199591097294
  endloop
endfacet
facet normal -0.9991637686676818 0.03388917115581266 0.02287547726644123
  outer loop
    vertex 1.800009999999956 3.6618959999999103 0.9118639999999776
    vertex 1.7999999999999559 3.550321999999912 1.0767199591097294
    vertex 1.8000189999999558 3.66180399999991 0.9123933999999776
  endloop
endfacet
facet normal -0.9989598674127017 0.03779050378054038 0.02551589941214037
  outer loop
    vertex 1.8000049999999561 3.66194099999991 0.9116015999999777
    vertex 1.7999999999999559 3.550321999999912 1.0767199591097294
    vertex 1.800009999999956 3.6618959999999103 0.9118639999999776
  endloop
endfacet
facet normal 0.0039621275412895845 -0.08576887378766944 0.9963071824666032
  outer loop
    vertex 1.8807199999999538 3.581058999999912 1.0790449999999734
    vertex 1.8560229999999545 3.5939039999999123 1.0802489999999734
    vertex 1.7999999999999559 3.550321999999912 1.0767199591097294
  endloop
endfacet
facet normal 0.009833853287434203 -0.1010387724620949 0.994833886530246
  outer loop
    vertex 1.8069768853992318 3.5510821007644138 1.0767306717871525
    vertex 1.8807199999999538 3.581058999999912 1.0790449999999734
    vertex 1.7999999999999559 3.550321999999912 1.0767199591097294
  endloop
endfacet
facet normal 0.009833853287434203 -0.1010387724620949 0.994833886530246
  outer loop
    vertex 1.8807199999999538 3.581058999999912 1.0790449999999734
    vertex 1.8069768853992318 3.5510821007644138 1.0767306717871525
    vertex 1.9005569999999534 3.561279999999912 1.0768399999999734
  endloop
endfacet
facet normal -0.008203209485136021 0.06444536260540519 0.9978875200105475
  outer loop
    vertex 1.904924999999953 3.549418999999912 1.0776419999999736
    vertex 1.8069768853992318 3.5510821007644138 1.0767306717871525
    vertex 1.7999999999999559 3.550321999999912 1.0767199591097294
  endloop
endfacet
facet normal -0.008203209485136021 0.06444536260540519 0.9978875200105475
  outer loop
    vertex 1.8069768853992318 3.5510821007644138 1.0767306717871525
    vertex 1.904924999999953 3.549418999999912 1.0776419999999736
    vertex 1.9005569999999534 3.561279999999912 1.0768399999999734
  endloop
endfacet
facet normal -0.024361096430155833 -0.9988352579760794 -0.04164930257014212
  outer loop
    vertex 1.9067452146887809 3.5422731832843097 1.0773840557864025
    vertex 1.906628478410971 3.542276076400213 1.0773829531881283
    vertex 1.9068939999999532 3.5423049999999128 1.0765339999999735
  endloop
endfacet
facet normal -0.024361096430155833 -0.9988352579760794 -0.04164930257014212
  outer loop
    vertex 1.9067452146887809 3.5422731832843097 1.0773840557864025
    vertex 1.906628478410971 3.542276076400213 1.0773829531881283
    vertex 1.9068939999999532 3.5423049999999128 1.0765339999999735
  endloop
endfacet
facet normal -0.009209192441677753 -0.03970308523224723 0.9991690826870161
  outer loop
    vertex 1.9071398741578494 3.5406748758826687 1.0773241124280388
    vertex 1.906628478410971 3.542276076400213 1.0773829531881283
    vertex 1.7999999999999559 3.550321999999912 1.0767199591097294
  endloop
endfacet
facet normal -0.009209192441677753 -0.03970308523224723 0.9991690826870161
  outer loop
    vertex 1.906628478410971 3.542276076400213 1.0773829531881283
    vertex 1.9071398741578494 3.5406748758826687 1.0773241124280388
    vertex 1.9067452146887809 3.5422731832843097 1.0773840557864025
  endloop
endfacet
facet normal -0.00877216487858666 -0.03483787638816519 0.999354477396337
  outer loop
    vertex 1.907159566796797 3.5405948839619867 1.0773214967379827
    vertex 1.9071398741578494 3.5406748758826687 1.0773241124280388
    vertex 1.7999999999999559 3.550321999999912 1.0767199591097294
  endloop
endfacet
facet normal -0.008594519072886555 -0.9999622391701329 -0.0012862642650748929
  outer loop
    vertex 1.904924999999953 3.549418999999912 1.0776419999999736
    vertex 1.7999999999999559 3.550321999999912 1.0767199591097294
    vertex 1.9411899999999525 3.549241999999912 0.9729302999999763
  endloop
endfacet
facet normal -0.8005020380820089 0.15579792931596834 0.5787257487337213
  outer loop
    vertex 1.9422808608428783 3.5665542034135496 0.9697782343939509
    vertex 1.8139229999999553 3.550321999999912 0.7966016999999803
    vertex 1.9411899999999525 3.549241999999912 0.9729302999999763
  endloop
endfacet
facet normal -0.8005020380820089 0.15579792931596834 0.5787257487337213
  outer loop
    vertex 1.8139229999999553 3.550321999999912 0.7966016999999803
    vertex 1.9422808608428783 3.5665542034135496 0.9697782343939509
    vertex 1.8180429999999554 3.569764999999912 0.7970652999999804
  endloop
endfacet
facet normal -0.8005020380820089 0.15579792931596834 0.5787257487337213
  outer loop
    vertex 1.8180429999999554 3.569764999999912 0.7970652999999804
    vertex 1.9422808608428783 3.5665542034135496 0.9697782343939509
    vertex 1.9416849999999526 3.580153999999912 0.9652925999999763
  endloop
endfacet
facet normal -0.8005020380820089 0.15579792931596834 0.5787257487337213
  outer loop
    vertex 1.8180429999999554 3.569764999999912 0.7970652999999804
    vertex 1.9416849999999526 3.580153999999912 0.9652925999999763
    vertex 1.8244759999999551 3.588195999999912 0.8010031999999804
  endloop
endfacet
facet normal -0.8005020380820089 0.15579792931596834 0.5787257487337213
  outer loop
    vertex 1.8244759999999551 3.588195999999912 0.8010031999999804
    vertex 1.9416849999999526 3.580153999999912 0.9652925999999763
    vertex 1.941702999999952 3.580162999999912 0.9653146999999763
  endloop
endfacet
facet normal -0.8005020380820089 0.15579792931596834 0.5787257487337213
  outer loop
    vertex 1.8244759999999551 3.588195999999912 0.8010031999999804
    vertex 1.941702999999952 3.580162999999912 0.9653146999999763
    vertex 1.9377539999999522 3.5999849999999123 0.9545168999999766
  endloop
endfacet
facet normal -0.8005020380820089 0.15579792931596834 0.5787257487337213
  outer loop
    vertex 1.8244759999999551 3.588195999999912 0.8010031999999804
    vertex 1.9377539999999522 3.5999849999999123 0.9545168999999766
    vertex 1.833010999999955 3.6048049999999114 0.8083369999999802
  endloop
endfacet
facet normal -0.8005020380820089 0.15579792931596834 0.5787257487337213
  outer loop
    vertex 1.833010999999955 3.6048049999999114 0.8083369999999802
    vertex 1.9377539999999522 3.5999849999999123 0.9545168999999766
    vertex 1.9303759999999526 3.6172689999999106 0.9396582999999769
  endloop
endfacet
facet normal -0.8005020380820089 0.15579792931596834 0.5787257487337213
  outer loop
    vertex 1.833010999999955 3.6048049999999114 0.8083369999999802
    vertex 1.9303759999999526 3.6172689999999106 0.9396582999999769
    vertex 1.8431379999999546 3.618748999999912 0.81859149999998
  endloop
endfacet
facet normal -0.8005020380820089 0.15579792931596834 0.5787257487337213
  outer loop
    vertex 1.8431379999999546 3.618748999999912 0.81859149999998
    vertex 1.9303759999999526 3.6172689999999106 0.9396582999999769
    vertex 1.9202019999999527 3.630557999999911 0.9220085999999775
  endloop
endfacet
facet normal -0.8005020380820089 0.15579792931596834 0.5787257487337213
  outer loop
    vertex 1.8431379999999546 3.618748999999912 0.81859149999998
    vertex 1.9202019999999527 3.630557999999911 0.9220085999999775
    vertex 1.8543929999999544 3.6297589999999107 0.8311948999999798
  endloop
endfacet
facet normal -0.8005020380820089 0.15579792931596834 0.5787257487337213
  outer loop
    vertex 1.8543929999999544 3.6297589999999107 0.8311948999999798
    vertex 1.9202019999999527 3.630557999999911 0.9220085999999775
    vertex 1.8661289999999542 3.6375469999999104 0.8453320999999792
  endloop
endfacet
facet normal -0.8005020380820089 0.15579792931596834 0.5787257487337213
  outer loop
    vertex 1.8661289999999542 3.6375469999999104 0.8453320999999792
    vertex 1.9202019999999527 3.630557999999911 0.9220085999999775
    vertex 1.907841999999953 3.6393859999999107 0.9025346999999778
  endloop
endfacet
facet normal -0.8005020380820089 0.15579792931596834 0.5787257487337213
  outer loop
    vertex 1.8661289999999542 3.6375469999999104 0.8453320999999792
    vertex 1.907841999999953 3.6393859999999107 0.9025346999999778
    vertex 1.8898309999999536 3.6436199999999106 0.8764814999999784
  endloop
endfacet
facet normal -0.007939102041681998 -0.9999684069736998 -0.00039460518595835827
  outer loop
    vertex 1.7999999999999559 3.550321999999912 1.0767199591097294
    vertex 1.8139229999999553 3.550321999999912 0.7966016999999803
    vertex 1.9411899999999525 3.549241999999912 0.9729302999999763
  endloop
endfacet
facet normal -0.0 -1.0 -0.0
  outer loop
    vertex 1.7999999999999559 3.550321999999912 1.0767199591097294
    vertex 1.8121729999999554 3.550321999999912 0.7966016999999803
    vertex 1.8139229999999553 3.550321999999912 0.7966016999999803
  endloop
endfacet
facet normal -0.0 -1.0 -0.0
  outer loop
    vertex 1.8121729999999554 3.550321999999912 0.7966016999999803
    vertex 1.7999999999999559 3.550321999999912 1.0767199591097294
    vertex 1.8104239999999554 3.550321999999912 0.7966016999999803
  endloop
endfacet
facet normal -0.0 -1.0 -0.0
  outer loop
    vertex 1.8104239999999554 3.550321999999912 0.7966016999999803
    vertex 1.7999999999999559 3.550321999999912 1.0767199591097294
    vertex 1.8069299999999555 3.550321999999912 0.7966016999999803
  endloop
endfacet
facet normal -0.0 -1.0 -0.0
  outer loop
    vertex 1.8069299999999555 3.550321999999912 0.7966016999999803
    vertex 1.7999999999999559 3.550321999999912 1.0767199591097294
    vertex 1.8034409999999554 3.550321999999912 0.7966016999999803
  endloop
endfacet
facet normal -0.0 -1.0 -0.0
  outer loop
    vertex 1.8034409999999554 3.550321999999912 0.7966016999999803
    vertex 1.7999999999999559 3.550321999999912 1.0767199591097294
    vertex 1.8017019999999557 3.550321999999912 0.7966016999999803
  endloop
endfacet
facet normal -0.0 -1.0 -0.0
  outer loop
    vertex 1.8017019999999557 3.550321999999912 0.7966016999999803
    vertex 1.7999999999999559 3.550321999999912 1.0767199591097294
    vertex 1.7999999999999559 3.550321999999912 0.7966016999999803
  endloop
endfacet
facet normal -0.11884879557480622 -0.981291680045406 -0.15146485554108818
  outer loop
    vertex 1.9411899999999525 3.549241999999912 0.9729302999999763
    vertex 1.9028644139335957 3.537794726314164 1.0771634570149418
    vertex 1.7999999999999559 3.550321999999912 1.0767199591097294
  endloop
endfacet
facet normal -0.11884879557480622 -0.981291680045406 -0.15146485554108818
  outer loop
    vertex 1.9028644139335957 3.537794726314164 1.0771634570149418
    vertex 1.9411899999999525 3.549241999999912 0.9729302999999763
    vertex 1.9080289999999531 3.537164999999913 1.0771959999999734
  endloop
endfacet
facet normal -0.008355164133396096 -0.07003283796025317 0.9975096956117957
  outer loop
    vertex 1.8560229999999545 3.5939039999999123 1.0802489999999734
    vertex 1.8287939999999552 3.598818999999912 1.0803659999999733
    vertex 1.7999999999999559 3.550321999999912 1.0767199591097294
  endloop
endfacet
facet normal -0.028332288949866023 -0.05820141992617421 0.9979027388084665
  outer loop
    vertex 1.8287939999999552 3.598818999999912 1.0803659999999733
    vertex 1.8009329999999557 3.595355999999912 1.0793729999999735
    vertex 1.7999999999999559 3.550321999999912 1.0767199591097294
  endloop
endfacet
endsolid 2015new_separate_human-HUTA
