solid Object01
facet normal -0.9476150901442728 0.21093159405022305 -0.23986142574889743
  outer loop
    vertex 1.9411899999999525 3.549241999999912 0.9729302999999763
    vertex 1.9362519999999523 3.526310999999913 0.9722731999999761
    vertex 1.909780999999953 3.524742999999913 1.0754729999999735
  endloop
endfacet
facet normal -0.9476150901442728 0.21093159405022305 -0.23986142574889743
  outer loop
    vertex 1.9362519999999523 3.526310999999913 0.9722731999999761
    vertex 1.9411899999999525 3.549241999999912 0.9729302999999763
    vertex 1.9367939740444504 3.5288269333066222 0.9723451654040477
  endloop
endfacet
facet normal -0.9460091295096118 -0.09024278032921357 -0.31132453723232284
  outer loop
    vertex 1.9411899999999525 3.549241999999912 0.9729302999999763
    vertex 1.909780999999953 3.524742999999913 1.0754729999999735
    vertex 1.9080289999999531 3.537164999999913 1.0771959999999734
  endloop
endfacet
facet normal -0.9683622873171599 -0.020525724413540822 -0.2487029857866163
  outer loop
    vertex 1.9099081519164403 3.522903830286409 1.0751136875201426
    vertex 1.9362519999999523 3.526310999999913 0.9722731999999761
    vertex 1.9099329999999533 3.522675999999914 1.0750629999999735
  endloop
endfacet
facet normal -0.9683622873171599 -0.020525724413540822 -0.2487029857866163
  outer loop
    vertex 1.9362519999999523 3.526310999999913 0.9722731999999761
    vertex 1.9099081519164403 3.522903830286409 1.0751136875201426
    vertex 1.909780999999953 3.524742999999913 1.0754729999999735
  endloop
endfacet
facet normal -0.9573009869495961 0.23717001267389956 -0.16530337405386433
  outer loop
    vertex 1.9071372669298061 3.4919244425276634 1.068128061107791
    vertex 1.9279809999999526 3.505233999999914 0.9665063999999762
    vertex 1.9062869999999532 3.4879809999999147 1.0673809999999737
  endloop
endfacet
facet normal -0.9573009869495961 0.23717001267389956 -0.16530337405386433
  outer loop
    vertex 1.9279809999999526 3.505233999999914 0.9665063999999762
    vertex 1.9071372669298061 3.4919244425276634 1.068128061107791
    vertex 1.908901999999953 3.5001329999999133 1.0696749999999737
  endloop
endfacet
facet normal -0.6990768517931722 0.7112584169066876 -0.07350523563896644
  outer loop
    vertex 1.9062869999999532 3.4879809999999147 1.0673809999999737
    vertex 1.9054446342967661 3.4743654782938043 0.9436442649704182
    vertex 1.9031919999999531 3.471897999999914 0.941192599999977
  endloop
endfacet
facet normal -0.6990768517931722 0.7112584169066876 -0.07350523563896644
  outer loop
    vertex 1.9054446342967661 3.4743654782938043 0.9436442649704182
    vertex 1.9062869999999532 3.4879809999999147 1.0673809999999737
    vertex 1.9167319999999528 3.4867289999999143 0.9559283999999766
  endloop
endfacet
facet normal -0.9753379542779563 0.13626344839343177 -0.17363221929360353
  outer loop
    vertex 1.9100799999999531 3.5123989999999132 1.0726839999999738
    vertex 1.9279809999999526 3.505233999999914 0.9665063999999762
    vertex 1.908901999999953 3.5001329999999133 1.0696749999999737
  endloop
endfacet
facet normal -0.9682106782878401 0.043184903552607415 -0.24638008554782284
  outer loop
    vertex 1.9362519999999523 3.526310999999913 0.9722731999999761
    vertex 1.9100799999999531 3.5123989999999132 1.0726839999999738
    vertex 1.9099329999999533 3.522675999999914 1.0750629999999735
  endloop
endfacet
facet normal -0.8294696957280296 0.5522086696641819 -0.08393812612016456
  outer loop
    vertex 1.9062869999999532 3.4879809999999147 1.0673809999999737
    vertex 1.9192416914855337 3.490857735046202 0.9582885738516711
    vertex 1.9167319999999528 3.4867289999999143 0.9559283999999766
  endloop
endfacet
facet normal -0.8294696957280296 0.5522086696641819 -0.08393812612016456
  outer loop
    vertex 1.9192416914855337 3.490857735046202 0.9582885738516711
    vertex 1.9062869999999532 3.4879809999999147 1.0673809999999737
    vertex 1.923352935631147 3.4976208457246396 0.9621545559167091
  endloop
endfacet
facet normal -0.8294696957280296 0.5522086696641819 -0.08393812612016456
  outer loop
    vertex 1.923352935631147 3.4976208457246396 0.9621545559167091
    vertex 1.9062869999999532 3.4879809999999147 1.0673809999999737
    vertex 1.9279809999999526 3.505233999999914 0.9665063999999762
  endloop
endfacet
facet normal -0.8983420805712925 0.401378207052515 -0.17854142706428103
  outer loop
    vertex 1.9100799999999531 3.5123989999999132 1.0726839999999738
    vertex 1.9317517074746349 3.5148428310639894 0.9691354201928924
    vertex 1.9279809999999526 3.505233999999914 0.9665063999999762
  endloop
endfacet
facet normal -0.8983420805712925 0.401378207052515 -0.17854142706428103
  outer loop
    vertex 1.9317517074746349 3.5148428310639894 0.9691354201928924
    vertex 1.9100799999999531 3.5123989999999132 1.0726839999999738
    vertex 1.9362519999999523 3.526310999999913 0.9722731999999761
  endloop
endfacet
facet normal -0.8983420805712925 0.401378207052515 -0.17854142706428103
  outer loop
    vertex 1.9317517074746349 3.5148428310639894 0.9691354201928924
    vertex 1.9362519999999523 3.526310999999913 0.9722731999999761
    vertex 1.9353720610287102 3.524068300783403 0.9716594980528703
  endloop
endfacet
facet normal -0.9278125388362366 0.37222914366499094 -0.02468516527561867
  outer loop
    vertex 1.9062869999999532 3.4879809999999147 1.0673809999999737
    vertex 1.9031919999999531 3.471897999999914 0.941192599999977
    vertex 1.896963999999954 3.4646229999999147 1.0655769999999738
  endloop
endfacet
facet normal -0.13813046075815524 0.9890033926715127 0.052841887693168915
  outer loop
    vertex 1.8284829999999552 3.4239639999999154 1.0400199999999744
    vertex 1.8298709999999547 3.4272249999999156 0.9826144999999757
    vertex 1.800970999999956 3.421666999999916 1.011093999999975
  endloop
endfacet
facet normal -0.8625982152912876 0.5057064411916312 -0.01361302000222263
  outer loop
    vertex 1.9031919999999531 3.471897999999914 0.941192599999977
    vertex 1.8957319999999538 3.4592279999999147 0.9432260999999768
    vertex 1.896963999999954 3.4646229999999147 1.0655769999999738
  endloop
endfacet
facet normal -0.7034066115579863 0.7103742162311771 -0.024240704000769834
  outer loop
    vertex 1.8773429999999538 3.445269999999915 1.0677909999999737
    vertex 1.896963999999954 3.4646229999999147 1.0655769999999738
    vertex 1.8957319999999538 3.4592279999999147 0.9432260999999768
  endloop
endfacet
facet normal -0.38936495758558576 0.9210557847018176 -0.007153409794952724
  outer loop
    vertex 1.8539759999999545 3.431677999999916 1.0688559999999738
    vertex 1.8633969999999542 3.435194999999916 1.0089049999999753
    vertex 1.8568299999999545 3.432423999999915 1.009563999999975
  endloop
endfacet
facet normal -0.5035666649262365 0.8634869314181411 -0.028476889667765275
  outer loop
    vertex 1.8539759999999545 3.431677999999916 1.0688559999999738
    vertex 1.8773429999999538 3.445269999999915 1.0677909999999737
    vertex 1.8633969999999542 3.435194999999916 1.0089049999999753
  endloop
endfacet
facet normal -0.16046387968067422 0.984872162658053 0.06540769480019858
  outer loop
    vertex 1.800970999999956 3.421666999999916 1.011093999999975
    vertex 1.8304979999999549 3.430269999999916 0.9539930999999767
    vertex 1.8010269999999555 3.425416999999916 0.9547659999999766
  endloop
endfacet
facet normal -0.674646937150674 0.7018991119785322 0.22844944035160705
  outer loop
    vertex 1.8855859999999538 3.448724999999915 0.9455332999999769
    vertex 1.8957319999999538 3.4592279999999147 0.9432260999999768
    vertex 1.8820939999999537 3.4518689999999146 0.9255610999999773
  endloop
endfacet
facet normal -0.17460831514469669 0.9846365869044544 0.0016516693002048754
  outer loop
    vertex 1.8010269999999555 3.425416999999916 0.9547659999999766
    vertex 1.8596549999999545 3.4358209999999145 0.9503929999999765
    vertex 1.8505369999999548 3.4342379999999153 0.9301716999999771
  endloop
endfacet
facet normal -0.5380785239791366 0.8428025962923239 -0.012461368919666801
  outer loop
    vertex 1.8773429999999538 3.445269999999915 1.0677909999999737
    vertex 1.8855859999999538 3.448724999999915 0.9455332999999769
    vertex 1.873284999999954 3.440907999999915 0.9479981999999768
  endloop
endfacet
facet normal -0.722111390498075 0.6911621642505505 -0.0291548010014087
  outer loop
    vertex 1.8957319999999538 3.4592279999999147 0.9432260999999768
    vertex 1.8855859999999538 3.448724999999915 0.9455332999999769
    vertex 1.8773429999999538 3.445269999999915 1.0677909999999737
  endloop
endfacet
facet normal -0.5528905959898998 0.8331729837070767 -0.011608965784282
  outer loop
    vertex 1.8773429999999538 3.445269999999915 1.0677909999999737
    vertex 1.873284999999954 3.440907999999915 0.9479981999999768
    vertex 1.8633969999999542 3.435194999999916 1.0089049999999753
  endloop
endfacet
facet normal -0.3445308879136821 0.9382269924549733 0.032071449956395534
  outer loop
    vertex 1.8633969999999542 3.435194999999916 1.0089049999999753
    vertex 1.873284999999954 3.440907999999915 0.9479981999999768
    vertex 1.8596549999999545 3.4358209999999145 0.9503929999999765
  endloop
endfacet
facet normal -0.17410127200677647 0.9795957089862628 0.10040415340673728
  outer loop
    vertex 1.8298709999999547 3.4272249999999156 0.9826144999999757
    vertex 1.8596549999999545 3.4358209999999145 0.9503929999999765
    vertex 1.8304979999999549 3.430269999999916 0.9539930999999767
  endloop
endfacet
facet normal -0.7807570113457019 0.5162089727816661 0.35206076983132484
  outer loop
    vertex 1.9031919999999531 3.471897999999914 0.941192599999977
    vertex 1.8890359999999533 3.4620299999999147 0.9242681999999773
    vertex 1.8957319999999538 3.4592279999999147 0.9432260999999768
  endloop
endfacet
facet normal -0.7807570113457019 0.5162089727816661 0.35206076983132484
  outer loop
    vertex 1.8890359999999533 3.4620299999999147 0.9242681999999773
    vertex 1.9031919999999531 3.471897999999914 0.941192599999977
    vertex 1.8908062194109192 3.463263947768471 0.9263844944666237
  endloop
endfacet
facet normal -0.2877561435051226 0.9577020187556564 -0.001801428988270954
  outer loop
    vertex 1.8539759999999545 3.431677999999916 1.0688559999999738
    vertex 1.8568299999999545 3.432423999999915 1.009563999999975
    vertex 1.8284829999999552 3.4239639999999154 1.0400199999999744
  endloop
endfacet
facet normal -0.6416569878242901 0.7324768823868941 0.2274948938878297
  outer loop
    vertex 1.8855859999999538 3.448724999999915 0.9455332999999769
    vertex 1.8820939999999537 3.4518689999999146 0.9255610999999773
    vertex 1.873009999999954 3.4434679999999163 0.9269884999999772
  endloop
endfacet
facet normal -0.27537901992645 0.9612382582049027 -0.013689643806643252
  outer loop
    vertex 1.8539759999999545 3.431677999999916 1.0688559999999738
    vertex 1.8284829999999552 3.4239639999999154 1.0400199999999744
    vertex 1.8279929999999553 3.424232999999916 1.0687649999999738
  endloop
endfacet
facet normal -0.7527152944778466 0.5585891454966312 0.34842194533707577
  outer loop
    vertex 1.8890359999999533 3.4620299999999147 0.9242681999999773
    vertex 1.8820939999999537 3.4518689999999146 0.9255610999999773
    vertex 1.8957319999999538 3.4592279999999147 0.9432260999999768
  endloop
endfacet
facet normal -0.5172555822025368 0.8487084798108228 0.11018429551218706
  outer loop
    vertex 1.873284999999954 3.440907999999915 0.9479981999999768
    vertex 1.8855859999999538 3.448724999999915 0.9455332999999769
    vertex 1.873009999999954 3.4434679999999163 0.9269884999999772
  endloop
endfacet
facet normal -0.46397751785321556 0.8785936658016853 0.11312839316425166
  outer loop
    vertex 1.873284999999954 3.440907999999915 0.9479981999999768
    vertex 1.873009999999954 3.4434679999999163 0.9269884999999772
    vertex 1.862242999999954 3.437578999999916 0.9285653999999772
  endloop
endfacet
facet normal -0.08857443091821804 0.9906821738892599 0.10345724008286669
  outer loop
    vertex 1.800970999999956 3.421666999999916 1.011093999999975
    vertex 1.8298709999999547 3.4272249999999156 0.9826144999999757
    vertex 1.8304979999999549 3.430269999999916 0.9539930999999767
  endloop
endfacet
facet normal -0.3855910276675118 0.9220236724844026 0.034524002674765644
  outer loop
    vertex 1.8568299999999545 3.432423999999915 1.009563999999975
    vertex 1.8633969999999542 3.435194999999916 1.0089049999999753
    vertex 1.8596549999999545 3.4358209999999145 0.9503929999999765
  endloop
endfacet
facet normal -0.23207299657611175 0.9716705765631422 0.044703634098752006
  outer loop
    vertex 1.8568299999999545 3.432423999999915 1.009563999999975
    vertex 1.8596549999999545 3.4358209999999145 0.9503929999999765
    vertex 1.8298709999999547 3.4272249999999156 0.9826144999999757
  endloop
endfacet
facet normal -0.029491662743851708 0.9990954579994241 -0.030635071952322464
  outer loop
    vertex 1.8279929999999553 3.424232999999916 1.0687649999999738
    vertex 1.800970999999956 3.421666999999916 1.011093999999975
    vertex 1.800929999999956 3.423395999999916 1.0675209999999737
  endloop
endfacet
facet normal -0.23652117894884847 0.9703694855702437 0.04940438627072882
  outer loop
    vertex 1.8284829999999552 3.4239639999999154 1.0400199999999744
    vertex 1.8568299999999545 3.432423999999915 1.009563999999975
    vertex 1.8298709999999547 3.4272249999999156 0.9826144999999757
  endloop
endfacet
facet normal -0.25353701088119396 0.8903451633343163 0.3781593238842845
  outer loop
    vertex 1.8512739999999543 3.4392239999999155 0.9087289999999776
    vertex 1.8478419999999545 3.4471039999999147 0.8878751999999782
    vertex 1.8308649999999551 3.450581999999915 0.8683042999999788
  endloop
endfacet
facet normal -0.07216225285036128 0.9973369667048178 -0.010563337900198061
  outer loop
    vertex 1.8279929999999553 3.424232999999916 1.0687649999999738
    vertex 1.8284829999999552 3.4239639999999154 1.0400199999999744
    vertex 1.800970999999956 3.421666999999916 1.011093999999975
  endloop
endfacet
facet normal -0.3440815878601411 0.93829558553518 0.03477434486568865
  outer loop
    vertex 1.8596549999999545 3.4358209999999145 0.9503929999999765
    vertex 1.873284999999954 3.440907999999915 0.9479981999999768
    vertex 1.862242999999954 3.437578999999916 0.9285653999999772
  endloop
endfacet
facet normal -0.2683623066831462 0.9622343805732092 0.04568007437158609
  outer loop
    vertex 1.8596549999999545 3.4358209999999145 0.9503929999999765
    vertex 1.862242999999954 3.437578999999916 0.9285653999999772
    vertex 1.8505369999999548 3.4342379999999153 0.9301716999999771
  endloop
endfacet
facet normal -0.3531596093337857 0.7307963986422313 0.5841360407189004
  outer loop
    vertex 1.825118999999955 3.4480759999999155 0.8687406999999787
    vertex 1.8472739999999546 3.4601719999999148 0.8670022999999786
    vertex 1.831413999999955 3.4727989999999154 0.8416162999999793
  endloop
endfacet
facet normal -0.7392459718764028 0.5538072408361925 0.3831617583500684
  outer loop
    vertex 1.8890359999999533 3.4620299999999147 0.9242681999999773
    vertex 1.8843559999999537 3.459856999999915 0.9183796999999775
    vertex 1.8820939999999537 3.4518689999999146 0.9255610999999773
  endloop
endfacet
facet normal -0.41614278195314575 0.7719762364276526 0.48049752904598114
  outer loop
    vertex 1.8478419999999545 3.4471039999999147 0.8878751999999782
    vertex 1.8544779999999546 3.4511859999999146 0.887064199999978
    vertex 1.8365109999999552 3.453449999999915 0.8678661999999787
  endloop
endfacet
facet normal -0.35608479650270786 0.8532462964166339 0.3810175525496469
  outer loop
    vertex 1.8512739999999543 3.4392239999999155 0.9087289999999776
    vertex 1.8602469999999542 3.4434569999999156 0.9076354999999777
    vertex 1.8478419999999545 3.4471039999999147 0.8878751999999782
  endloop
endfacet
facet normal -0.591535938003398 0.7058422713439322 0.3897074826513845
  outer loop
    vertex 1.873009999999954 3.4434679999999163 0.9269884999999772
    vertex 1.8820939999999537 3.4518689999999146 0.9255610999999773
    vertex 1.8602469999999542 3.4434569999999156 0.9076354999999777
  endloop
endfacet
facet normal -0.46283567674822207 0.7520057116184625 0.46932989039930656
  outer loop
    vertex 1.860448999999954 3.4562509999999147 0.8862775999999783
    vertex 1.8472739999999546 3.4601719999999148 0.8670022999999786
    vertex 1.8419899999999552 3.456651999999915 0.8674314999999788
  endloop
endfacet
facet normal -0.6877344472675921 0.5832964007025442 0.43218819855358903
  outer loop
    vertex 1.8843559999999537 3.459856999999915 0.9183796999999775
    vertex 1.868095999999954 3.449408999999915 0.9066063999999778
    vertex 1.8820939999999537 3.4518689999999146 0.9255610999999773
  endloop
endfacet
facet normal -0.6768533907828639 0.636300766442455 0.37012271209760167
  outer loop
    vertex 1.8843559999999537 3.459856999999915 0.9183796999999775
    vertex 1.874554999999954 3.456842999999915 0.9056378999999777
    vertex 1.868095999999954 3.449408999999915 0.9066063999999778
  endloop
endfacet
facet normal -0.6440955001851948 0.6182942519020149 0.45039227869282067
  outer loop
    vertex 1.874554999999954 3.456842999999915 0.9056378999999777
    vertex 1.860448999999954 3.4562509999999147 0.8862775999999783
    vertex 1.868095999999954 3.449408999999915 0.9066063999999778
  endloop
endfacet
facet normal -0.6440955001851948 0.6182942519020149 0.45039227869282067
  outer loop
    vertex 1.860448999999954 3.4562509999999147 0.8862775999999783
    vertex 1.874554999999954 3.456842999999915 0.9056378999999777
    vertex 1.8682485091687917 3.4565783359087647 0.8969823807927636
  endloop
endfacet
facet normal -0.6440955001851948 0.6182942519020149 0.45039227869282067
  outer loop
    vertex 1.860448999999954 3.4562509999999147 0.8862775999999783
    vertex 1.8682485091687917 3.4565783359087647 0.8969823807927636
    vertex 1.8633119197008488 3.456371232604321 0.8902076453117345
  endloop
endfacet
facet normal -0.2063077349564817 0.9181845469748732 0.3381926317850129
  outer loop
    vertex 1.8416509999999546 3.436664999999916 0.9098062999999775
    vertex 1.8512739999999543 3.4392239999999155 0.9087289999999776
    vertex 1.825118999999955 3.4480759999999155 0.8687406999999787
  endloop
endfacet
facet normal -0.42239535155907215 0.8537783910540203 0.30437579724823094
  outer loop
    vertex 1.862242999999954 3.437578999999916 0.9285653999999772
    vertex 1.873009999999954 3.4434679999999163 0.9269884999999772
    vertex 1.8512739999999543 3.4392239999999155 0.9087289999999776
  endloop
endfacet
facet normal -0.5447701317268636 0.7112152420528268 0.4442953781551577
  outer loop
    vertex 1.868095999999954 3.449408999999915 0.9066063999999778
    vertex 1.860448999999954 3.4562509999999147 0.8862775999999783
    vertex 1.8544779999999546 3.4511859999999146 0.887064199999978
  endloop
endfacet
facet normal -0.3870162595219366 0.8861897870321124 0.2547274547936055
  outer loop
    vertex 1.873009999999954 3.4434679999999163 0.9269884999999772
    vertex 1.8602469999999542 3.4434569999999156 0.9076354999999777
    vertex 1.8512739999999543 3.4392239999999155 0.9087289999999776
  endloop
endfacet
facet normal -0.5537072275367835 0.6371637831381177 0.5361255633064427
  outer loop
    vertex 1.8211609999999554 3.453893999999915 0.853494899999979
    vertex 1.831413999999955 3.4727989999999154 0.8416162999999793
    vertex 1.8243629999999553 3.4673249999999154 0.8408396999999793
  endloop
endfacet
facet normal -0.5010440140046096 0.7386914777744569 0.45087669788262263
  outer loop
    vertex 1.8602469999999542 3.4434569999999156 0.9076354999999777
    vertex 1.868095999999954 3.449408999999915 0.9066063999999778
    vertex 1.8478419999999545 3.4471039999999147 0.8878751999999782
  endloop
endfacet
facet normal -0.06407578394433591 0.9802048384024323 0.18733064000419286
  outer loop
    vertex 1.8010269999999555 3.425416999999916 0.9547659999999766
    vertex 1.8416509999999546 3.436664999999916 0.9098062999999775
    vertex 1.801137999999956 3.4415339999999146 0.8704719999999787
  endloop
endfacet
facet normal -0.41428303173891834 0.7739137207277256 0.47898551385462435
  outer loop
    vertex 1.8544779999999546 3.4511859999999146 0.887064199999978
    vertex 1.8419899999999552 3.456651999999915 0.8674314999999788
    vertex 1.8365109999999552 3.453449999999915 0.8678661999999787
  endloop
endfacet
facet normal -0.4486665601409401 0.8060649222308844 0.3859503322452445
  outer loop
    vertex 1.868095999999954 3.449408999999915 0.9066063999999778
    vertex 1.8544779999999546 3.4511859999999146 0.887064199999978
    vertex 1.8478419999999545 3.4471039999999147 0.8878751999999782
  endloop
endfacet
facet normal -0.22399089851503584 0.9120138864556611 0.34359678155429146
  outer loop
    vertex 1.8416509999999546 3.436664999999916 0.9098062999999775
    vertex 1.825118999999955 3.4480759999999155 0.8687406999999787
    vertex 1.801137999999956 3.4415339999999146 0.8704719999999787
  endloop
endfacet
facet normal -0.566426484692534 0.6326531815779461 0.5281202413069971
  outer loop
    vertex 1.8211609999999554 3.453893999999915 0.853494899999979
    vertex 1.8243629999999553 3.4673249999999154 0.8408396999999793
    vertex 1.8173629999999554 3.4622099999999145 0.8394593999999794
  endloop
endfacet
facet normal -0.24016046315589656 0.9460459431042914 0.2175316654481759
  outer loop
    vertex 1.8505369999999548 3.4342379999999153 0.9301716999999771
    vertex 1.862242999999954 3.437578999999916 0.9285653999999772
    vertex 1.8416509999999546 3.436664999999916 0.9098062999999775
  endloop
endfacet
facet normal -0.6192356933989686 0.09997515819990707 0.7788145631429872
  outer loop
    vertex 1.8074259999999556 3.5163789999999135 0.8009415999999803
    vertex 1.804093999999956 3.5325739999999133 0.7962133999999804
    vertex 1.8046019999999556 3.515001999999914 0.7988729999999804
  endloop
endfacet
facet normal -0.33852120676854136 0.8474190793250985 0.40900403000920765
  outer loop
    vertex 1.8512739999999543 3.4392239999999155 0.9087289999999776
    vertex 1.8308649999999551 3.450581999999915 0.8683042999999788
    vertex 1.825118999999955 3.4480759999999155 0.8687406999999787
  endloop
endfacet
facet normal -0.5497185638939127 0.7776639444004969 0.3050381780857523
  outer loop
    vertex 1.8820939999999537 3.4518689999999146 0.9255610999999773
    vertex 1.868095999999954 3.449408999999915 0.9066063999999778
    vertex 1.8602469999999542 3.4434569999999156 0.9076354999999777
  endloop
endfacet
facet normal -0.5130499770181778 0.6851262013659609 0.517089749737409
  outer loop
    vertex 1.8544779999999546 3.4511859999999146 0.887064199999978
    vertex 1.860448999999954 3.4562509999999147 0.8862775999999783
    vertex 1.8419899999999552 3.456651999999915 0.8674314999999788
  endloop
endfacet
facet normal -0.2298785614001926 0.9511685852625711 0.20599555679231724
  outer loop
    vertex 1.862242999999954 3.437578999999916 0.9285653999999772
    vertex 1.8512739999999543 3.4392239999999155 0.9087289999999776
    vertex 1.8416509999999546 3.436664999999916 0.9098062999999775
  endloop
endfacet
facet normal -0.3718975786348545 0.8032086355033101 0.46534726695065365
  outer loop
    vertex 1.8478419999999545 3.4471039999999147 0.8878751999999782
    vertex 1.8365109999999552 3.453449999999915 0.8678661999999787
    vertex 1.8308649999999551 3.450581999999915 0.8683042999999788
  endloop
endfacet
facet normal -0.6270376750354082 0.40642075867196703 0.664564459632542
  outer loop
    vertex 1.8243629999999553 3.4673249999999154 0.8408396999999793
    vertex 1.8170249999999553 3.491301999999915 0.8192526999999798
    vertex 1.8148749999999554 3.489433999999914 0.8183664999999798
  endloop
endfacet
facet normal -0.5077739499849898 0.4743268339339704 0.7191520495186097
  outer loop
    vertex 1.831413999999955 3.4727989999999154 0.8416162999999793
    vertex 1.8195109999999555 3.493141999999915 0.8197943999999798
    vertex 1.8170249999999553 3.491301999999915 0.8192526999999798
  endloop
endfacet
facet normal -0.47209293094857496 0.5056513495354708 0.7221114714926922
  outer loop
    vertex 1.831413999999955 3.4727989999999154 0.8416162999999793
    vertex 1.8170249999999553 3.491301999999915 0.8192526999999798
    vertex 1.8243629999999553 3.4673249999999154 0.8408396999999793
  endloop
endfacet
facet normal -0.09607192927127867 0.9825903634816988 0.15901686073809154
  outer loop
    vertex 1.8010269999999555 3.425416999999916 0.9547659999999766
    vertex 1.8505369999999548 3.4342379999999153 0.9301716999999771
    vertex 1.8416509999999546 3.436664999999916 0.9098062999999775
  endloop
endfacet
facet normal -0.33402590556428485 0.8052409443068083 0.48991194721484294
  outer loop
    vertex 1.8114919999999555 3.4496489999999147 0.8531779999999791
    vertex 1.8097779999999555 3.458100999999915 0.8381172999999793
    vertex 1.8056939999999557 3.4566619999999153 0.8376979999999794
  endloop
endfacet
facet normal -0.17959119958617967 0.11760282664941965 0.9766865291357629
  outer loop
    vertex 1.802290999999956 3.5323449999999132 0.7957168999999804
    vertex 1.8004439999999557 3.532191999999913 0.7953956999999805
    vertex 1.8008209999999558 3.514196999999913 0.7976317999999804
  endloop
endfacet
facet normal -0.16674580366059147 -0.05392003920715602 0.9845244874219647
  outer loop
    vertex 1.802290999999956 3.5323449999999132 0.7957168999999804
    vertex 1.8017019999999557 3.550321999999912 0.7966016999999803
    vertex 1.8004439999999557 3.532191999999913 0.7953956999999805
  endloop
endfacet
facet normal -0.23372145682942866 0.9265253239788824 0.2948306372196697
  outer loop
    vertex 1.801137999999956 3.4415339999999146 0.8704719999999787
    vertex 1.8114919999999555 3.4496489999999147 0.8531779999999791
    vertex 1.801333999999956 3.4470539999999152 0.8532803999999791
  endloop
endfacet
facet normal 8.721230277196901e-17 0.21872856024072268 0.9757857433550772
  outer loop
    vertex 1.8121729999999554 3.550321999999912 0.7966016999999803
    vertex 1.8104239999999554 3.550321999999912 0.7966016999999803
    vertex 1.8115489999999554 3.5188519999999137 0.8036558999999802
  endloop
endfacet
facet normal -0.6363586014528028 0.08867638145381217 0.7662794723397534
  outer loop
    vertex 1.8100449999999553 3.5180169999999134 0.8029269999999803
    vertex 1.8069299999999555 3.550321999999912 0.7966016999999803
    vertex 1.8074259999999556 3.5163789999999135 0.8009415999999803
  endloop
endfacet
facet normal -0.24037230641890794 0.6132086944994578 0.7524601326961616
  outer loop
    vertex 1.8049129999999558 3.4679649999999147 0.8239916999999798
    vertex 1.8041459999999556 3.481726999999914 0.81253149999998
    vertex 1.801426999999956 3.467114999999915 0.8235707999999797
  endloop
endfacet
facet normal -0.6489308187881718 0.08715774107453289 0.7558388191920931
  outer loop
    vertex 1.8074259999999556 3.5163789999999135 0.8009415999999803
    vertex 1.8069299999999555 3.550321999999912 0.7966016999999803
    vertex 1.804093999999956 3.5325739999999133 0.7962133999999804
  endloop
endfacet
facet normal -0.2561844577324511 0.7466871246861833 0.6138630640820558
  outer loop
    vertex 1.8014309999999558 3.455655999999915 0.8375108999999794
    vertex 1.8049129999999558 3.4679649999999147 0.8239916999999798
    vertex 1.801426999999956 3.467114999999915 0.8235707999999797
  endloop
endfacet
facet normal -0.26173618995424824 -0.030735142325155507 0.9646499457805854
  outer loop
    vertex 1.804093999999956 3.5325739999999133 0.7962133999999804
    vertex 1.8034409999999554 3.550321999999912 0.7966016999999803
    vertex 1.802290999999956 3.5323449999999132 0.7957168999999804
  endloop
endfacet
facet normal -0.20449443264407016 0.7494480584106546 0.6296901101034379
  outer loop
    vertex 1.8056939999999557 3.4566619999999153 0.8376979999999794
    vertex 1.8049129999999558 3.4679649999999147 0.8239916999999798
    vertex 1.8014309999999558 3.455655999999915 0.8375108999999794
  endloop
endfacet
facet normal -0.2224763557712323 0.8559536494499869 0.4667414928158851
  outer loop
    vertex 1.8012999999999557 3.4471129999999146 0.8531153999999791
    vertex 1.8056939999999557 3.4566619999999153 0.8376979999999794
    vertex 1.8014309999999558 3.455655999999915 0.8375108999999794
  endloop
endfacet
facet normal -0.5017500043251212 0.7919485065478393 0.3479432369458956
  outer loop
    vertex 1.8056939999999557 3.4566619999999153 0.8376979999999794
    vertex 1.8013239999999557 3.4470969999999146 0.8531631999999791
    vertex 1.801333999999956 3.4470539999999152 0.8532803999999791
  endloop
endfacet
facet normal -0.5017500043251212 0.7919485065478393 0.3479432369458956
  outer loop
    vertex 1.8013239999999557 3.4470969999999146 0.8531631999999791
    vertex 1.8056939999999557 3.4566619999999153 0.8376979999999794
    vertex 1.8013139999999557 3.447104999999915 0.8531370999999791
  endloop
endfacet
facet normal -0.21422986692675242 0.857080632335031 0.46852785807540764
  outer loop
    vertex 1.801333999999956 3.4470539999999152 0.8532803999999791
    vertex 1.8114919999999555 3.4496489999999147 0.8531779999999791
    vertex 1.8056939999999557 3.4566619999999153 0.8376979999999794
  endloop
endfacet
facet normal -0.37725943135030576 0.8283873451341759 0.41406488365809985
  outer loop
    vertex 1.825118999999955 3.4480759999999155 0.8687406999999787
    vertex 1.8211609999999554 3.453893999999915 0.853494899999979
    vertex 1.8114919999999555 3.4496489999999147 0.8531779999999791
  endloop
endfacet
facet normal -0.6684791588779267 0.6203322064962676 0.4102725529807371
  outer loop
    vertex 1.831413999999955 3.4727989999999154 0.8416162999999793
    vertex 1.8211609999999554 3.453893999999915 0.853494899999979
    vertex 1.825118999999955 3.4480759999999155 0.8687406999999787
  endloop
endfacet
facet normal -0.2646698341343979 0.2936416392041416 0.918544754829494
  outer loop
    vertex 1.8027889999999558 3.5145099999999134 0.7980987999999805
    vertex 1.8008209999999558 3.514196999999913 0.7976317999999804
    vertex 1.8011169999999561 3.496905999999914 0.8032446999999803
  endloop
endfacet
facet normal -0.28505387071887006 0.2937760618198566 0.9123814532802634
  outer loop
    vertex 1.803413999999956 3.497412999999914 0.8037990999999802
    vertex 1.8027889999999558 3.5145099999999134 0.7980987999999805
    vertex 1.8011169999999561 3.496905999999914 0.8032446999999803
  endloop
endfacet
facet normal -0.24742372801043427 0.1214698815491721 0.9612630059946387
  outer loop
    vertex 1.8027889999999558 3.5145099999999134 0.7980987999999805
    vertex 1.802290999999956 3.5323449999999132 0.7957168999999804
    vertex 1.8008209999999558 3.514196999999913 0.7976317999999804
  endloop
endfacet
facet normal -0.2731548380477022 0.45814647011215226 0.8458653831283726
  outer loop
    vertex 1.8041459999999556 3.481726999999914 0.81253149999998
    vertex 1.803413999999956 3.497412999999914 0.8037990999999802
    vertex 1.8013209999999555 3.481054999999914 0.81198319999998
  endloop
endfacet
facet normal -0.0 0.1921507714009744 0.981365416677198
  outer loop
    vertex 1.8104239999999554 3.550321999999912 0.7966016999999803
    vertex 1.8069299999999555 3.550321999999912 0.7966016999999803
    vertex 1.8100449999999553 3.5180169999999134 0.8029269999999803
  endloop
endfacet
facet normal -0.43690726168466537 0.34805967325449705 0.8294374651178834
  outer loop
    vertex 1.815477999999955 3.505652999999914 0.8110846999999801
    vertex 1.8134609999999554 3.519666999999914 0.8041414999999802
    vertex 1.8133589999999553 3.5043599999999135 0.8105110999999802
  endloop
endfacet
facet normal -0.5051498614178772 0.17153599985625342 0.8458126378003671
  outer loop
    vertex 1.8115489999999554 3.5188519999999137 0.8036558999999802
    vertex 1.8104239999999554 3.550321999999912 0.7966016999999803
    vertex 1.8100449999999553 3.5180169999999134 0.8029269999999803
  endloop
endfacet
facet normal -0.324823064596619 0.21299597935041786 0.9214785344687184
  outer loop
    vertex 1.8134609999999554 3.519666999999914 0.8041414999999802
    vertex 1.8121729999999554 3.550321999999912 0.7966016999999803
    vertex 1.8115489999999554 3.5188519999999137 0.8036558999999802
  endloop
endfacet
facet normal -0.4671232747420055 0.39879683589808923 0.789149497796189
  outer loop
    vertex 1.8195109999999555 3.493141999999915 0.8197943999999798
    vertex 1.815477999999955 3.505652999999914 0.8110846999999801
    vertex 1.8170249999999553 3.491301999999915 0.8192526999999798
  endloop
endfacet
facet normal -0.37056657725813047 0.3589397782883379 0.8566461622989465
  outer loop
    vertex 1.8134609999999554 3.519666999999914 0.8041414999999802
    vertex 1.8115489999999554 3.5188519999999137 0.8036558999999802
    vertex 1.8133589999999553 3.5043599999999135 0.8105110999999802
  endloop
endfacet
facet normal -0.0 -0.06637289767725392 0.9977948879674243
  outer loop
    vertex 1.8017019999999557 3.550321999999912 0.7966016999999803
    vertex 1.7999999999999559 3.550321999999912 0.7966016999999803
    vertex 1.8004439999999557 3.532191999999913 0.7953956999999805
  endloop
endfacet
facet normal -8.824735698838962e-18 -0.021873287109932464 0.9997607510354697
  outer loop
    vertex 1.8069299999999555 3.550321999999912 0.7966016999999803
    vertex 1.8034409999999554 3.550321999999912 0.7966016999999803
    vertex 1.804093999999956 3.5325739999999133 0.7962133999999804
  endloop
endfacet
facet normal -3.45897488583306e-17 -0.049158939139159856 0.9987909684727394
  outer loop
    vertex 1.8034409999999554 3.550321999999912 0.7966016999999803
    vertex 1.8017019999999557 3.550321999999912 0.7966016999999803
    vertex 1.802290999999956 3.5323449999999132 0.7957168999999804
  endloop
endfacet
facet normal -0.30274478140654626 0.4571385255259003 0.8362834243311943
  outer loop
    vertex 1.803413999999956 3.497412999999914 0.8037990999999802
    vertex 1.8011169999999561 3.496905999999914 0.8032446999999803
    vertex 1.8013209999999555 3.481054999999914 0.81198319999998
  endloop
endfacet
facet normal -0.2884115653464571 0.6107762912134569 0.7374083611310226
  outer loop
    vertex 1.8041459999999556 3.481726999999914 0.81253149999998
    vertex 1.8013209999999555 3.481054999999914 0.81198319999998
    vertex 1.801426999999956 3.467114999999915 0.8235707999999797
  endloop
endfacet
facet normal -0.23139884114637552 0.9266465714653763 0.29627809218296497
  outer loop
    vertex 1.801137999999956 3.4415339999999146 0.8704719999999787
    vertex 1.825118999999955 3.4480759999999155 0.8687406999999787
    vertex 1.8114919999999555 3.4496489999999147 0.8531779999999791
  endloop
endfacet
facet normal -1.8272307919164356e-16 0.23883846059745795 0.9710593131932964
  outer loop
    vertex 1.8139229999999553 3.550321999999912 0.7966016999999803
    vertex 1.8121729999999554 3.550321999999912 0.7966016999999803
    vertex 1.8134609999999554 3.519666999999914 0.8041414999999802
  endloop
endfacet
facet normal -0.45942878740446663 0.40143289716765024 0.7923236828314854
  outer loop
    vertex 1.8170249999999553 3.491301999999915 0.8192526999999798
    vertex 1.815477999999955 3.505652999999914 0.8110846999999801
    vertex 1.8133589999999553 3.5043599999999135 0.8105110999999802
  endloop
endfacet
facet normal -0.5575946459934823 0.4960480210203222 0.665600910156548
  outer loop
    vertex 1.8139899999999554 3.4729379999999144 0.8268388999999797
    vertex 1.806757999999956 3.4827809999999144 0.8134447999999801
    vertex 1.8081969999999552 3.4692489999999148 0.8247351999999797
  endloop
endfacet
facet normal -0.4041910218599809 0.6787204270991254 0.6131624578251389
  outer loop
    vertex 1.8097779999999555 3.458100999999915 0.8381172999999793
    vertex 1.8081969999999552 3.4692489999999148 0.8247351999999797
    vertex 1.8049129999999558 3.4679649999999147 0.8239916999999798
  endloop
endfacet
facet normal -0.2790290662455146 0.13581539769529263 0.9506297691209896
  outer loop
    vertex 1.8046019999999556 3.515001999999914 0.7988729999999804
    vertex 1.804093999999956 3.5325739999999133 0.7962133999999804
    vertex 1.802290999999956 3.5323449999999132 0.7957168999999804
  endloop
endfacet
facet normal -0.6458201281611569 0.23152443732788952 0.7275388628670713
  outer loop
    vertex 1.8087649999999555 3.5004269999999136 0.8072065999999802
    vertex 1.8074259999999556 3.5163789999999135 0.8009415999999803
    vertex 1.8046019999999556 3.515001999999914 0.7988729999999804
  endloop
endfacet
facet normal -0.5461531959011304 0.30148716838118966 0.7815511332654275
  outer loop
    vertex 1.8133589999999553 3.5043599999999135 0.8105110999999802
    vertex 1.8115489999999554 3.5188519999999137 0.8036558999999802
    vertex 1.8100449999999553 3.5180169999999134 0.8029269999999803
  endloop
endfacet
facet normal -0.5701376454440619 0.544480681168486 0.6152104136649531
  outer loop
    vertex 1.8173629999999554 3.4622099999999145 0.8394593999999794
    vertex 1.8139899999999554 3.4729379999999144 0.8268388999999797
    vertex 1.8081969999999552 3.4692489999999148 0.8247351999999797
  endloop
endfacet
facet normal -0.472709867797163 0.6961045165557737 0.540355330239132
  outer loop
    vertex 1.8211609999999554 3.453893999999915 0.853494899999979
    vertex 1.8173629999999554 3.4622099999999145 0.8394593999999794
    vertex 1.8097779999999555 3.458100999999915 0.8381172999999793
  endloop
endfacet
facet normal -0.609452532012893 0.31574251202883946 0.7272374284377777
  outer loop
    vertex 1.8170249999999553 3.491301999999915 0.8192526999999798
    vertex 1.8133589999999553 3.5043599999999135 0.8105110999999802
    vertex 1.8115919999999555 3.503024999999914 0.80960989999998
  endloop
endfacet
facet normal -0.46333819343242066 0.538160119892533 0.7040606535406133
  outer loop
    vertex 1.8081969999999552 3.4692489999999148 0.8247351999999797
    vertex 1.806757999999956 3.4827809999999144 0.8134447999999801
    vertex 1.8041459999999556 3.481726999999914 0.81253149999998
  endloop
endfacet
facet normal -0.5371329549430159 0.5664122419696069 0.6250322878549136
  outer loop
    vertex 1.8243629999999553 3.4673249999999154 0.8408396999999793
    vertex 1.8139899999999554 3.4729379999999144 0.8268388999999797
    vertex 1.8173629999999554 3.4622099999999145 0.8394593999999794
  endloop
endfacet
facet normal -0.7329397049453248 0.1945034650009438 0.6518955368901423
  outer loop
    vertex 1.8074259999999556 3.5163789999999135 0.8009415999999803
    vertex 1.8087649999999555 3.5004269999999136 0.8072065999999802
    vertex 1.8115919999999555 3.503024999999914 0.80960989999998
  endloop
endfacet
facet normal -0.3644493264966011 0.7937692295385056 0.4869364421092565
  outer loop
    vertex 1.8211609999999554 3.453893999999915 0.853494899999979
    vertex 1.8097779999999555 3.458100999999915 0.8381172999999793
    vertex 1.8114919999999555 3.4496489999999147 0.8531779999999791
  endloop
endfacet
facet normal -0.3176401955264539 0.7225844722696845 0.6139840279849775
  outer loop
    vertex 1.8097779999999555 3.458100999999915 0.8381172999999793
    vertex 1.8049129999999558 3.4679649999999147 0.8239916999999798
    vertex 1.8056939999999557 3.4566619999999153 0.8376979999999794
  endloop
endfacet
facet normal -0.6544978394071644 0.3963891824238559 0.6438231079020856
  outer loop
    vertex 1.8110739999999552 3.4858109999999147 0.8159488999999798
    vertex 1.8139899999999554 3.4729379999999144 0.8268388999999797
    vertex 1.8243629999999553 3.4673249999999154 0.8408396999999793
  endloop
endfacet
facet normal -0.4395814253135586 0.2736319779921772 0.8555078673743386
  outer loop
    vertex 1.8055049999999553 3.498197999999914 0.8047116999999803
    vertex 1.8046019999999556 3.515001999999914 0.7988729999999804
    vertex 1.8027889999999558 3.5145099999999134 0.7980987999999805
  endloop
endfacet
facet normal -0.7431843490436238 0.22618760765620666 0.629695314798647
  outer loop
    vertex 1.8115919999999555 3.503024999999914 0.80960989999998
    vertex 1.8087649999999555 3.5004269999999136 0.8072065999999802
    vertex 1.8148749999999554 3.489433999999914 0.8183664999999798
  endloop
endfacet
facet normal -0.5938069933063286 0.27568171191243906 0.7559053170983285
  outer loop
    vertex 1.8133589999999553 3.5043599999999135 0.8105110999999802
    vertex 1.8100449999999553 3.5180169999999134 0.8029269999999803
    vertex 1.8115919999999555 3.503024999999914 0.80960989999998
  endloop
endfacet
facet normal -0.6530383624020334 0.39743015544380017 0.6446628334061051
  outer loop
    vertex 1.8110739999999552 3.4858109999999147 0.8159488999999798
    vertex 1.806757999999956 3.4827809999999144 0.8134447999999801
    vertex 1.8139899999999554 3.4729379999999144 0.8268388999999797
  endloop
endfacet
facet normal -0.4152546891332113 0.10902232614783247 0.9031487560497418
  outer loop
    vertex 1.8046019999999556 3.515001999999914 0.7988729999999804
    vertex 1.802290999999956 3.5323449999999132 0.7957168999999804
    vertex 1.8027889999999558 3.5145099999999134 0.7980987999999805
  endloop
endfacet
facet normal -0.4606251453739368 0.6544439726188982 0.5996061725433073
  outer loop
    vertex 1.8173629999999554 3.4622099999999145 0.8394593999999794
    vertex 1.8081969999999552 3.4692489999999148 0.8247351999999797
    vertex 1.8097779999999555 3.458100999999915 0.8381172999999793
  endloop
endfacet
facet normal -0.3882498457689822 0.5768439288302057 0.7186884853899458
  outer loop
    vertex 1.8081969999999552 3.4692489999999148 0.8247351999999797
    vertex 1.8041459999999556 3.481726999999914 0.81253149999998
    vertex 1.8049129999999558 3.4679649999999147 0.8239916999999798
  endloop
endfacet
facet normal -0.709695479834415 0.3287843068414181 0.6230836263916808
  outer loop
    vertex 1.8148749999999554 3.489433999999914 0.8183664999999798
    vertex 1.8110739999999552 3.4858109999999147 0.8159488999999798
    vertex 1.8243629999999553 3.4673249999999154 0.8408396999999793
  endloop
endfacet
facet normal -0.4885523657006375 0.39965319328731364 0.7756248520151762
  outer loop
    vertex 1.806757999999956 3.4827809999999144 0.8134447999999801
    vertex 1.8055049999999553 3.498197999999914 0.8047116999999803
    vertex 1.803413999999956 3.497412999999914 0.8037990999999802
  endloop
endfacet
facet normal -0.6801030519070127 0.20774023132108232 0.7030674470329504
  outer loop
    vertex 1.8087649999999555 3.5004269999999136 0.8072065999999802
    vertex 1.8046019999999556 3.515001999999914 0.7988729999999804
    vertex 1.8055049999999553 3.498197999999914 0.8047116999999803
  endloop
endfacet
facet normal -0.4673888637237924 0.26419549721925456 0.8436518175859358
  outer loop
    vertex 1.8055049999999553 3.498197999999914 0.8047116999999803
    vertex 1.8027889999999558 3.5145099999999134 0.7980987999999805
    vertex 1.803413999999956 3.497412999999914 0.8037990999999802
  endloop
endfacet
facet normal -0.638804963160169 0.3392431731663219 0.6905376807256649
  outer loop
    vertex 1.8110739999999552 3.4858109999999147 0.8159488999999798
    vertex 1.8055049999999553 3.498197999999914 0.8047116999999803
    vertex 1.806757999999956 3.4827809999999144 0.8134447999999801
  endloop
endfacet
facet normal -0.6773276887605107 0.24009272049918498 0.6954010983609712
  outer loop
    vertex 1.8115919999999555 3.503024999999914 0.80960989999998
    vertex 1.8100449999999553 3.5180169999999134 0.8029269999999803
    vertex 1.8074259999999556 3.5163789999999135 0.8009415999999803
  endloop
endfacet
facet normal -0.6933443366846809 0.28606696945748716 0.6613919562352486
  outer loop
    vertex 1.8087649999999555 3.5004269999999136 0.8072065999999802
    vertex 1.8110739999999552 3.4858109999999147 0.8159488999999798
    vertex 1.8148749999999554 3.489433999999914 0.8183664999999798
  endloop
endfacet
facet normal -0.44576103841882486 0.4194381809176272 0.7908025727172887
  outer loop
    vertex 1.806757999999956 3.4827809999999144 0.8134447999999801
    vertex 1.803413999999956 3.497412999999914 0.8037990999999802
    vertex 1.8041459999999556 3.481726999999914 0.81253149999998
  endloop
endfacet
facet normal -0.6974956742391445 0.2834655177067962 0.6581391073997194
  outer loop
    vertex 1.8087649999999555 3.5004269999999136 0.8072065999999802
    vertex 1.8055049999999553 3.498197999999914 0.8047116999999803
    vertex 1.8110739999999552 3.4858109999999147 0.8159488999999798
  endloop
endfacet
facet normal -0.590949114401459 0.331188645834073 0.7355903921740172
  outer loop
    vertex 1.8170249999999553 3.491301999999915 0.8192526999999798
    vertex 1.8115919999999555 3.503024999999914 0.80960989999998
    vertex 1.8148749999999554 3.489433999999914 0.8183664999999798
  endloop
endfacet
facet normal -0.0 -0.0 1.0
  outer loop
    vertex 1.9316511349201255 3.5456572804251993 0.09160160999999775
    vertex 1.9317849999999526 3.5543619999999123 0.09160160999999775
    vertex 1.9316097149829385 3.5543096094468236 0.09160160999999775
  endloop
endfacet
facet normal -0.0 -0.0 1.0
  outer loop
    vertex 1.9317849999999526 3.5543619999999123 0.09160160999999775
    vertex 1.9316511349201255 3.5456572804251993 0.09160160999999775
    vertex 1.9318179999999525 3.5469149999999128 0.09160160999999775
  endloop
endfacet
facet normal 0.22029575757199094 0.9313319353315842 0.289983802008506
  outer loop
    vertex 1.7999999999999559 3.550321999999912 1.0767199591097294
    vertex 1.909780999999953 3.524742999999913 1.0754729999999735
    vertex 1.9411899999999525 3.549241999999912 0.9729302999999763
  endloop
endfacet
facet normal 0.22029575757199094 0.9313319353315842 0.289983802008506
  outer loop
    vertex 1.909780999999953 3.524742999999913 1.0754729999999735
    vertex 1.7999999999999559 3.550321999999912 1.0767199591097294
    vertex 1.8420919074410018 3.5405142067991515 1.0762464496112003
  endloop
endfacet
facet normal -0.03417871360111712 -0.19450619130728405 0.9803056447250046
  outer loop
    vertex 1.9099081519164403 3.522903830286409 1.0751136875201426
    vertex 1.8420919074410018 3.5405142067991515 1.0762464496112003
    vertex 1.7999999999999559 3.550321999999912 1.0767199591097294
  endloop
endfacet
facet normal -0.03417871360111712 -0.19450619130728405 0.9803056447250046
  outer loop
    vertex 1.8420919074410018 3.5405142067991515 1.0762464496112003
    vertex 1.9099081519164403 3.522903830286409 1.0751136875201426
    vertex 1.909780999999953 3.524742999999913 1.0754729999999735
  endloop
endfacet
facet normal -0.9998689604126683 -0.008117676453457184 -0.014005903479854998
  outer loop
    vertex 1.801333999999956 3.4470539999999152 0.8532803999999791
    vertex 1.8011519999999557 3.441795999999916 0.8693206999999787
    vertex 1.801137999999956 3.4415339999999146 0.8704719999999787
  endloop
endfacet
facet normal -0.9998689604126683 -0.008117676453457184 -0.014005903479854998
  outer loop
    vertex 1.801333999999956 3.4470539999999152 0.8532803999999791
    vertex 1.8011519999999557 3.441795999999916 0.8693206999999787
    vertex 1.801137999999956 3.4415339999999146 0.8704719999999787
  endloop
endfacet
facet normal -0.9998689604126683 -0.008117676453457184 -0.014005903479854998
  outer loop
    vertex 1.801333999999956 3.4470539999999152 0.8532803999999791
    vertex 1.8011519999999557 3.441795999999916 0.8693206999999787
    vertex 1.801137999999956 3.4415339999999146 0.8704719999999787
  endloop
endfacet
facet normal -0.9998689604126683 -0.008117676453457184 -0.01400590347985006
  outer loop
    vertex 1.801333999999956 3.4470539999999152 0.8532803999999791
    vertex 1.8011519999999557 3.441795999999916 0.8693206999999787
    vertex 1.801137999999956 3.4415339999999146 0.8704719999999787
  endloop
endfacet
facet normal -0.9998689604126683 -0.008117676453457184 -0.014005903479854998
  outer loop
    vertex 1.801333999999956 3.4470539999999152 0.8532803999999791
    vertex 1.8011519999999557 3.441795999999916 0.8693206999999787
    vertex 1.801137999999956 3.4415339999999146 0.8704719999999787
  endloop
endfacet
facet normal 0.8005017021202706 -0.1557999235274844 -0.5787256765786185
  outer loop
    vertex 1.8139229999999553 3.550321999999912 0.7966016999999803
    vertex 1.9054446342967661 3.4743654782938043 0.9436442649704182
    vertex 1.9031919999999531 3.471897999999914 0.941192599999977
  endloop
endfacet
facet normal 0.8005017021202706 -0.1557999235274844 -0.5787256765786185
  outer loop
    vertex 1.9054446342967661 3.4743654782938043 0.9436442649704182
    vertex 1.8139229999999553 3.550321999999912 0.7966016999999803
    vertex 1.9192416914855337 3.490857735046202 0.9582885738516711
  endloop
endfacet
facet normal 0.8005017021202706 -0.1557999235274844 -0.5787256765786185
  outer loop
    vertex 1.9192416914855337 3.490857735046202 0.9582885738516711
    vertex 1.8139229999999553 3.550321999999912 0.7966016999999803
    vertex 1.923352935631147 3.4976208457246396 0.9621545559167091
  endloop
endfacet
facet normal 0.8005017021202706 -0.1557999235274844 -0.5787256765786185
  outer loop
    vertex 1.923352935631147 3.4976208457246396 0.9621545559167091
    vertex 1.8139229999999553 3.550321999999912 0.7966016999999803
    vertex 1.9317517074746349 3.5148428310639894 0.9691354201928924
  endloop
endfacet
facet normal 0.8005017021202706 -0.1557999235274844 -0.5787256765786185
  outer loop
    vertex 1.9317517074746349 3.5148428310639894 0.9691354201928924
    vertex 1.8139229999999553 3.550321999999912 0.7966016999999803
    vertex 1.9353720610287102 3.524068300783403 0.9716594980528703
  endloop
endfacet
facet normal 0.8005017021202706 -0.1557999235274844 -0.5787256765786185
  outer loop
    vertex 1.9353720610287102 3.524068300783403 0.9716594980528703
    vertex 1.8139229999999553 3.550321999999912 0.7966016999999803
    vertex 1.9367939740444504 3.5288269333066222 0.9723451654040477
  endloop
endfacet
facet normal 0.8005017021202706 -0.1557999235274844 -0.5787256765786185
  outer loop
    vertex 1.9367939740444504 3.5288269333066222 0.9723451654040477
    vertex 1.8139229999999553 3.550321999999912 0.7966016999999803
    vertex 1.9411899999999525 3.549241999999912 0.9729302999999763
  endloop
endfacet
facet normal 0.8005080736871055 -0.15578618756974336 -0.5787205610000774
  outer loop
    vertex 1.8600006083038532 3.457155983300517 0.885415704231356
    vertex 1.8682485091687917 3.4565783359087647 0.8969823807927636
    vertex 1.8633119197008488 3.456371232604321 0.8902076453117345
  endloop
endfacet
facet normal 0.8005080736871055 -0.15578618756974336 -0.5787205610000774
  outer loop
    vertex 1.8682485091687917 3.4565783359087647 0.8969823807927636
    vertex 1.8600006083038532 3.457155983300517 0.885415704231356
    vertex 1.8739716785281757 3.457743571312478 0.9045865776892804
  endloop
endfacet
facet normal 0.8005080736871055 -0.15578618756974336 -0.5787205610000774
  outer loop
    vertex 1.8739716785281757 3.457743571312478 0.9045865776892804
    vertex 1.8600006083038532 3.457155983300517 0.885415704231356
    vertex 1.8472739999999546 3.4601719999999148 0.8670022999999786
  endloop
endfacet
facet normal 0.8005080736871055 -0.15578618756974336 -0.5787205610000774
  outer loop
    vertex 1.8739716785281757 3.457743571312478 0.9045865776892804
    vertex 1.8472739999999546 3.4601719999999148 0.8670022999999786
    vertex 1.8843559999999537 3.459856999999915 0.9183796999999775
  endloop
endfacet
facet normal 0.8005080736871055 -0.15578618756974336 -0.5787205610000774
  outer loop
    vertex 1.8843559999999537 3.459856999999915 0.9183796999999775
    vertex 1.8472739999999546 3.4601719999999148 0.8670022999999786
    vertex 1.8888605692582212 3.4622362640185727 0.9239698967098066
  endloop
endfacet
facet normal 0.8005080736871055 -0.15578618756974336 -0.5787205610000774
  outer loop
    vertex 1.8888605692582212 3.4622362640185727 0.9239698967098066
    vertex 1.8472739999999546 3.4601719999999148 0.8670022999999786
    vertex 1.8139229999999553 3.550321999999912 0.7966016999999803
  endloop
endfacet
facet normal 0.8005080736871055 -0.15578618756974336 -0.5787205610000774
  outer loop
    vertex 1.8888605692582212 3.4622362640185727 0.9239698967098066
    vertex 1.8139229999999553 3.550321999999912 0.7966016999999803
    vertex 1.8908062194109192 3.463263947768471 0.9263844944666237
  endloop
endfacet
facet normal 0.8005080736871055 -0.15578618756974336 -0.5787205610000774
  outer loop
    vertex 1.8908062194109192 3.463263947768471 0.9263844944666237
    vertex 1.8139229999999553 3.550321999999912 0.7966016999999803
    vertex 1.9031919999999531 3.471897999999914 0.941192599999977
  endloop
endfacet
facet normal 0.7798503881483189 -0.16833247091728554 -0.6029075810933195
  outer loop
    vertex 1.8139229999999553 3.550321999999912 0.7966016999999803
    vertex 1.8195109999999555 3.493141999999915 0.8197943999999798
    vertex 1.815477999999955 3.505652999999914 0.8110846999999801
  endloop
endfacet
facet normal 0.8015247401942406 -0.15456961464270516 -0.5776385765214792
  outer loop
    vertex 1.8139229999999553 3.550321999999912 0.7966016999999803
    vertex 1.8472739999999546 3.4601719999999148 0.8670022999999786
    vertex 1.831413999999955 3.4727989999999154 0.8416162999999793
  endloop
endfacet
facet normal 0.7972609388423106 -0.15835128584343727 -0.5824945198609233
  outer loop
    vertex 1.8139229999999553 3.550321999999912 0.7966016999999803
    vertex 1.831413999999955 3.4727989999999154 0.8416162999999793
    vertex 1.8195109999999555 3.493141999999915 0.8197943999999798
  endloop
endfacet
facet normal 0.8345913781016893 -0.1433970682334068 -0.531878287224048
  outer loop
    vertex 1.8139229999999553 3.550321999999912 0.7966016999999803
    vertex 1.815477999999955 3.505652999999914 0.8110846999999801
    vertex 1.8134609999999554 3.519666999999914 0.8041414999999802
  endloop
endfacet
facet normal 0.11884879557480622 0.981291680045406 0.15146485554108818
  outer loop
    vertex 1.9411899999999525 3.549241999999912 0.9729302999999763
    vertex 1.9028644139335957 3.537794726314164 1.0771634570149418
    vertex 1.9080289999999531 3.537164999999913 1.0771959999999734
  endloop
endfacet
facet normal 0.11884879557480622 0.981291680045406 0.15146485554108818
  outer loop
    vertex 1.9028644139335957 3.537794726314164 1.0771634570149418
    vertex 1.9411899999999525 3.549241999999912 0.9729302999999763
    vertex 1.7999999999999559 3.550321999999912 1.0767199591097294
  endloop
endfacet
facet normal 0.0 1.0 0.0
  outer loop
    vertex 1.7999999999999559 3.550321999999912 1.0767199591097294
    vertex 1.8017019999999557 3.550321999999912 0.7966016999999803
    vertex 1.7999999999999559 3.550321999999912 0.7966016999999803
  endloop
endfacet
facet normal 0.0 1.0 0.0
  outer loop
    vertex 1.8017019999999557 3.550321999999912 0.7966016999999803
    vertex 1.7999999999999559 3.550321999999912 1.0767199591097294
    vertex 1.8034409999999554 3.550321999999912 0.7966016999999803
  endloop
endfacet
facet normal 0.0 1.0 0.0
  outer loop
    vertex 1.8034409999999554 3.550321999999912 0.7966016999999803
    vertex 1.7999999999999559 3.550321999999912 1.0767199591097294
    vertex 1.8069299999999555 3.550321999999912 0.7966016999999803
  endloop
endfacet
facet normal 0.0 1.0 0.0
  outer loop
    vertex 1.8069299999999555 3.550321999999912 0.7966016999999803
    vertex 1.7999999999999559 3.550321999999912 1.0767199591097294
    vertex 1.8104239999999554 3.550321999999912 0.7966016999999803
  endloop
endfacet
facet normal 0.0 1.0 0.0
  outer loop
    vertex 1.8104239999999554 3.550321999999912 0.7966016999999803
    vertex 1.7999999999999559 3.550321999999912 1.0767199591097294
    vertex 1.8121729999999554 3.550321999999912 0.7966016999999803
  endloop
endfacet
facet normal 0.007919271533424373 0.9999685739863001 0.00036902328547560735
  outer loop
    vertex 1.7999999999999559 3.550321999999912 1.0767199591097294
    vertex 1.8139229999999553 3.550321999999912 0.7966016999999803
    vertex 1.8121729999999554 3.550321999999912 0.7966016999999803
  endloop
endfacet
facet normal 0.007919271533424373 0.9999685739863001 0.00036902328547560735
  outer loop
    vertex 1.8139229999999553 3.550321999999912 0.7966016999999803
    vertex 1.7999999999999559 3.550321999999912 1.0767199591097294
    vertex 1.9411899999999525 3.549241999999912 0.9729302999999763
  endloop
endfacet
facet normal -0.9999731578544095 -0.0073269073066555565 4.386626522210759e-19
  outer loop
    vertex 1.7999999999999559 3.550321999999912 0.7966016999999803
    vertex 1.800929999999956 3.423395999999916 1.0675209999999737
    vertex 1.7999999999999559 3.550321999999912 1.0767199591097294
  endloop
endfacet
facet normal -0.9997381783539021 -0.021806250580197743 -0.0069326890349520895
  outer loop
    vertex 1.8004439999999557 3.532191999999913 0.7953956999999805
    vertex 1.8008209999999558 3.514196999999913 0.7976317999999804
    vertex 1.800929999999956 3.423395999999916 1.0675209999999737
  endloop
endfacet
facet normal -0.9996824423635452 -0.023963482091185283 -0.007795252152606727
  outer loop
    vertex 1.7999999999999559 3.550321999999912 0.7966016999999803
    vertex 1.8004439999999557 3.532191999999913 0.7953956999999805
    vertex 1.800929999999956 3.423395999999916 1.0675209999999737
  endloop
endfacet
facet normal -0.9998001479702007 -0.019066539974501886 -0.006010921074633705
  outer loop
    vertex 1.8008209999999558 3.514196999999913 0.7976317999999804
    vertex 1.8011169999999561 3.496905999999914 0.8032446999999803
    vertex 1.800929999999956 3.423395999999916 1.0675209999999737
  endloop
endfacet
facet normal -0.9999898577895001 -0.0036157499930216 -0.002685269096997342
  outer loop
    vertex 1.801426999999956 3.467114999999915 0.8235707999999797
    vertex 1.8014309999999558 3.455655999999915 0.8375108999999794
    vertex 1.800929999999956 3.423395999999916 1.0675209999999737
  endloop
endfacet
facet normal -0.9998645636132825 -0.015659432639349144 -0.005063259803146939
  outer loop
    vertex 1.8011169999999561 3.496905999999914 0.8032446999999803
    vertex 1.8013209999999555 3.481054999999914 0.81198319999998
    vertex 1.800929999999956 3.423395999999916 1.0675209999999737
  endloop
endfacet
facet normal -0.9999323479526547 -0.010924285406160897 -0.003994935075291792
  outer loop
    vertex 1.8013209999999555 3.481054999999914 0.81198319999998
    vertex 1.801426999999956 3.467114999999915 0.8235707999999797
    vertex 1.800929999999956 3.423395999999916 1.0675209999999737
  endloop
endfacet
facet normal -0.9998834832051217 0.015264948402504442 -3.693050705527481e-05
  outer loop
    vertex 1.8014309999999558 3.455655999999915 0.8375108999999794
    vertex 1.8012999999999557 3.4471129999999146 0.8531153999999791
    vertex 1.800929999999956 3.423395999999916 1.0675209999999737
  endloop
endfacet
facet normal -0.9999961561850311 0.0026510803549147275 -0.0008120271638100904
  outer loop
    vertex 1.800929999999956 3.423395999999916 1.0675209999999737
    vertex 1.8010269999999555 3.425416999999916 0.9547659999999766
    vertex 1.800970999999956 3.421666999999916 1.011093999999975
  endloop
endfacet
facet normal -0.9999961561850311 0.0026510803549147275 -0.0008120271638100904
  outer loop
    vertex 1.8010269999999555 3.425416999999916 0.9547659999999766
    vertex 1.800929999999956 3.423395999999916 1.0675209999999737
    vertex 1.801137999999956 3.4415339999999146 0.8704719999999787
  endloop
endfacet
facet normal -0.40434004744016516 -0.9089873723070228 -0.10124763218198649
  outer loop
    vertex 1.800929999999956 3.423395999999916 1.0675209999999737
    vertex 1.8012999999999557 3.4471129999999146 0.8531153999999791
    vertex 1.8013239999999557 3.4470969999999146 0.8531631999999791
  endloop
endfacet
facet normal -0.9999961561850311 0.0026510803549147258 -0.0008120271638100908
  outer loop
    vertex 1.800929999999956 3.423395999999916 1.0675209999999737
    vertex 1.8010269999999555 3.425416999999916 0.9547659999999766
    vertex 1.800970999999956 3.421666999999916 1.011093999999975
  endloop
endfacet
facet normal -0.9999961561850311 0.0026510803549147258 -0.0008120271638100908
  outer loop
    vertex 1.8010269999999555 3.425416999999916 0.9547659999999766
    vertex 1.800929999999956 3.423395999999916 1.0675209999999737
    vertex 1.801137999999956 3.4415339999999146 0.8704719999999787
  endloop
endfacet
facet normal -0.9991045831412076 0.042213941968782094 0.0028310863091737808
  outer loop
    vertex 1.8013239999999557 3.4470969999999146 0.8531631999999791
    vertex 1.801137999999956 3.4415339999999146 0.8704719999999787
    vertex 1.800929999999956 3.423395999999916 1.0675209999999737
  endloop
endfacet
facet normal -0.9999961561850311 0.0026510803549147275 -0.0008120271638100904
  outer loop
    vertex 1.800929999999956 3.423395999999916 1.0675209999999737
    vertex 1.8010269999999555 3.425416999999916 0.9547659999999766
    vertex 1.800970999999956 3.421666999999916 1.011093999999975
  endloop
endfacet
facet normal -0.9999961561850311 0.0026510803549147275 -0.0008120271638100904
  outer loop
    vertex 1.8010269999999555 3.425416999999916 0.9547659999999766
    vertex 1.800929999999956 3.423395999999916 1.0675209999999737
    vertex 1.801137999999956 3.4415339999999146 0.8704719999999787
  endloop
endfacet
facet normal -0.019940419623492633 -0.18127161798967367 0.983230888538722
  outer loop
    vertex 1.9062869999999532 3.4879809999999147 1.0673809999999737
    vertex 1.908901999999953 3.5001329999999133 1.0696749999999737
    vertex 1.7999999999999559 3.550321999999912 1.0767199591097294
  endloop
endfacet
facet normal -0.019940419623492633 -0.18127161798967367 0.983230888538722
  outer loop
    vertex 1.908901999999953 3.5001329999999133 1.0696749999999737
    vertex 1.9062869999999532 3.4879809999999147 1.0673809999999737
    vertex 1.9071372669298061 3.4919244425276634 1.068128061107791
  endloop
endfacet
facet normal 0.013677481782579647 -0.05993416974890158 0.9981086222393819
  outer loop
    vertex 1.8539759999999545 3.431677999999916 1.0688559999999738
    vertex 1.7999999999999559 3.550321999999912 1.0767199591097294
    vertex 1.8279929999999553 3.424232999999916 1.0687649999999738
  endloop
endfacet
facet normal 0.03432907236822946 -0.09057144160556269 0.9952981104954571
  outer loop
    vertex 1.9062869999999532 3.4879809999999147 1.0673809999999737
    vertex 1.7999999999999559 3.550321999999912 1.0767199591097294
    vertex 1.896963999999954 3.4646229999999147 1.0655769999999738
  endloop
endfacet
facet normal 0.11320295824858637 -0.001105174997312087 0.9935712701321402
  outer loop
    vertex 1.896963999999954 3.4646229999999147 1.0655769999999738
    vertex 1.7999999999999559 3.550321999999912 1.0767199591097294
    vertex 1.8773429999999538 3.445269999999915 1.0677909999999737
  endloop
endfacet
facet normal 0.06633727234085791 -0.03591358992505795 0.9971507310116509
  outer loop
    vertex 1.8773429999999538 3.445269999999915 1.0677909999999737
    vertex 1.7999999999999559 3.550321999999912 1.0767199591097294
    vertex 1.8539759999999545 3.431677999999916 1.0688559999999738
  endloop
endfacet
facet normal -0.04212123978900769 -0.2258445004165995 0.9732523119881162
  outer loop
    vertex 1.9100799999999531 3.5123989999999132 1.0726839999999738
    vertex 1.9099081519164403 3.522903830286409 1.0751136875201426
    vertex 1.7999999999999559 3.550321999999912 1.0767199591097294
  endloop
endfacet
facet normal -0.04212123978900769 -0.2258445004165995 0.9732523119881162
  outer loop
    vertex 1.9099081519164403 3.522903830286409 1.0751136875201426
    vertex 1.9100799999999531 3.5123989999999132 1.0726839999999738
    vertex 1.9099329999999533 3.522675999999914 1.0750629999999735
  endloop
endfacet
facet normal -0.0449815317281399 -0.23393033241756647 0.9712122638117773
  outer loop
    vertex 1.9100799999999531 3.5123989999999132 1.0726839999999738
    vertex 1.7999999999999559 3.550321999999912 1.0767199591097294
    vertex 1.908901999999953 3.5001329999999133 1.0696749999999737
  endloop
endfacet
facet normal -0.043558666456014326 -0.07253426252587553 0.9964142829849445
  outer loop
    vertex 1.8279929999999553 3.424232999999916 1.0687649999999738
    vertex 1.7999999999999559 3.550321999999912 1.0767199591097294
    vertex 1.800929999999956 3.423395999999916 1.0675209999999737
  endloop
endfacet
facet normal -0.021452533035893805 -0.14032649827015237 0.9898728517893501
  outer loop
    vertex 1.909780999999953 3.524742999999913 1.0754729999999735
    vertex 1.9080289999999531 3.537164999999913 1.0771959999999734
    vertex 1.7999999999999559 3.550321999999912 1.0767199591097294
  endloop
endfacet
endsolid 2015new_separate_human-HUTA
