solid Object01
facet normal 9.477254539566542e-18 -0.010470175033902763 0.9999451862151042
  outer loop
    vertex 1.789575999999956 3.550321999999912 0.7966016999999803
    vertex 1.7856719999999562 3.5744749999999117 0.7968545999999804
    vertex 1.7860769999999562 3.550321999999912 0.7966016999999803
  endloop
endfacet
facet normal 0.8611221123691372 -0.34252214620681704 -0.37569573719539484
  outer loop
    vertex 1.6582969999999595 3.580162999999912 0.9653146999999763
    vertex 1.6954617289402034 3.5504687152921686 1.077571173251011
    vertex 1.6950749999999586 3.549418999999912 1.0776419999999736
  endloop
endfacet
facet normal 0.8611221123691372 -0.34252214620681704 -0.37569573719539484
  outer loop
    vertex 1.6954617289402034 3.5504687152921686 1.077571173251011
    vertex 1.6582969999999595 3.580162999999912 0.9653146999999763
    vertex 1.699442999999958 3.561279999999912 1.0768399999999734
  endloop
endfacet
facet normal 0.2195746545583396 -0.12993484237491906 0.9669042909267654
  outer loop
    vertex 1.7856719999999562 3.5744749999999117 0.7968545999999804
    vertex 1.7755229999999564 3.588195999999912 0.8010031999999804
    vertex 1.7819569999999565 3.569764999999912 0.7970652999999804
  endloop
endfacet
facet normal 0.9260875041298735 -0.1527234703700814 -0.3450180811097012
  outer loop
    vertex 1.6950749999999586 3.549418999999912 1.0776419999999736
    vertex 1.658234424301655 3.578693730900824 0.9657969558745084
    vertex 1.6582969999999595 3.580162999999912 0.9653146999999763
  endloop
endfacet
facet normal 0.9260875041298735 -0.1527234703700814 -0.3450180811097012
  outer loop
    vertex 1.658234424301655 3.578693730900824 0.9657969558745084
    vertex 1.6950749999999586 3.549418999999912 1.0776419999999736
    vertex 1.657717571910617 3.566574300414349 0.9697743498297146
  endloop
endfacet
facet normal 0.9260875041298735 -0.1527234703700814 -0.3450180811097012
  outer loop
    vertex 1.657717571910617 3.566574300414349 0.9697743498297146
    vertex 1.6950749999999586 3.549418999999912 1.0776419999999736
    vertex 1.6576529999999594 3.5650619999999122 0.9702705999999761
  endloop
endfacet
facet normal 0.2909712643737546 -0.42060509214228137 0.8593177990549956
  outer loop
    vertex 1.7703079999999565 3.617718999999911 0.8135340999999802
    vertex 1.7568609999999567 3.618748999999912 0.81859149999998
    vertex 1.7669889999999566 3.6048049999999114 0.8083369999999802
  endloop
endfacet
facet normal 0.06837085701627121 -0.00929934375054454 0.9976166338412116
  outer loop
    vertex 1.7860769999999562 3.550321999999912 0.7966016999999803
    vertex 1.7856719999999562 3.5744749999999117 0.7968545999999804
    vertex 1.7819569999999565 3.569764999999912 0.7970652999999804
  endloop
endfacet
facet normal 0.3287523751459287 -0.6835328688592488 0.651693711052175
  outer loop
    vertex 1.7489649999999568 3.646042999999911 0.8465804999999791
    vertex 1.7456069999999568 3.6297589999999107 0.8311948999999798
    vertex 1.7599779999999565 3.6341979999999108 0.8286011999999798
  endloop
endfacet
facet normal 0.3307478513227679 -0.6832601793683795 0.650969573893329
  outer loop
    vertex 1.7489649999999568 3.646042999999911 0.8465804999999791
    vertex 1.7338709999999575 3.6375469999999104 0.8453320999999792
    vertex 1.7456069999999568 3.6297589999999107 0.8311948999999798
  endloop
endfacet
facet normal 0.10711890177067766 -0.2143148900367087 0.9708731476315521
  outer loop
    vertex 1.7856719999999562 3.5744749999999117 0.7968545999999804
    vertex 1.7791109999999566 3.5974549999999117 0.8026511999999802
    vertex 1.7755229999999564 3.588195999999912 0.8010031999999804
  endloop
endfacet
facet normal 0.39293455132019234 -0.7715937551570878 0.5002454551331609
  outer loop
    vertex 1.7378329999999576 3.653143999999911 0.8662772999999788
    vertex 1.7338709999999575 3.6375469999999104 0.8453320999999792
    vertex 1.7489649999999568 3.646042999999911 0.8465804999999791
  endloop
endfacet
facet normal 0.43884113745386966 -0.7584794101032981 0.4817960569863012
  outer loop
    vertex 1.7101689999999583 3.6436199999999106 0.8764814999999784
    vertex 1.7338709999999575 3.6375469999999104 0.8453320999999792
    vertex 1.7378329999999576 3.653143999999911 0.8662772999999788
  endloop
endfacet
facet normal 0.9448329937041473 0.014082555828187168 -0.32724959225246497
  outer loop
    vertex 1.6576529999999594 3.5650619999999122 0.9702705999999761
    vertex 1.6950749999999586 3.549418999999912 1.0776419999999736
    vertex 1.6588099999999595 3.549241999999912 0.9729302999999763
  endloop
endfacet
facet normal 0.2859626892296591 -0.3438590261667952 0.8944195382996533
  outer loop
    vertex 1.7999999999999559 3.5974219999999115 0.7952449999999804
    vertex 1.789676999999956 3.6202349999999117 0.8073158999999801
    vertex 1.7858939999999561 3.598479999999911 0.8001616999999803
  endloop
endfacet
facet normal 0.17465522537270423 -0.4059044823805722 0.8970714037541103
  outer loop
    vertex 1.7791109999999566 3.5974549999999117 0.8026511999999802
    vertex 1.7703079999999565 3.617718999999911 0.8135340999999802
    vertex 1.7669889999999566 3.6048049999999114 0.8083369999999802
  endloop
endfacet
facet normal 0.2532665577760607 -0.5615048863194931 0.7877615840795985
  outer loop
    vertex 1.7703079999999565 3.617718999999911 0.8135340999999802
    vertex 1.7599779999999565 3.6341979999999108 0.8286011999999798
    vertex 1.7568609999999567 3.618748999999912 0.81859149999998
  endloop
endfacet
facet normal 0.27029897413107723 -0.26926987663806595 0.9243550173602175
  outer loop
    vertex 1.7791109999999566 3.5974549999999117 0.8026511999999802
    vertex 1.7669889999999566 3.6048049999999114 0.8083369999999802
    vertex 1.7755229999999564 3.588195999999912 0.8010031999999804
  endloop
endfacet
facet normal 0.31155860657712714 -0.5601725473590078 0.7675532241174153
  outer loop
    vertex 1.7599779999999565 3.6341979999999108 0.8286011999999798
    vertex 1.7456069999999568 3.6297589999999107 0.8311948999999798
    vertex 1.7568609999999567 3.618748999999912 0.81859149999998
  endloop
endfacet
facet normal 0.3064060562208444 0.08392306089188879 0.9481942040329739
  outer loop
    vertex 1.793069999999956 3.550321999999912 0.7966016999999803
    vertex 1.7903549999999557 3.574700999999912 0.7953212999999805
    vertex 1.7856719999999562 3.5744749999999117 0.7968545999999804
  endloop
endfacet
facet normal 0.3174548635479688 -0.13160508273308702 0.9390966466815638
  outer loop
    vertex 1.7999999999999559 3.5974219999999115 0.7952449999999804
    vertex 1.7858939999999561 3.598479999999911 0.8001616999999803
    vertex 1.7903549999999557 3.574700999999912 0.7953212999999805
  endloop
endfacet
facet normal -0.02270389300824476 -0.8404019666289831 0.5414878278672639
  outer loop
    vertex 1.782720999999956 3.6521639999999103 0.8427348999999793
    vertex 1.7999999999999559 3.636901999999911 0.8197723999999799
    vertex 1.7999999999999559 3.64987299999991 0.8399036999999795
  endloop
endfacet
facet normal 0.08401524105426364 -0.6436955289115496 0.7606559704162417
  outer loop
    vertex 1.7999999999999559 3.636901999999911 0.8197723999999799
    vertex 1.786281999999956 3.6386739999999107 0.8227870999999797
    vertex 1.7999999999999559 3.6189489999999114 0.8045798999999803
  endloop
endfacet
facet normal -0.11234691002669489 -0.9906384243749679 -0.07754794619675391
  outer loop
    vertex 1.7719689999999564 3.6647079999999104 0.9123991999999777
    vertex 1.7753909999999564 3.6661759999999095 0.8886885999999782
    vertex 1.7999989999999557 3.6635269999999096 0.886877699999978
  endloop
endfacet
facet normal 0.27493309188043713 -0.11350217798036102 0.9547403053096574
  outer loop
    vertex 1.7999999999999559 3.5974219999999115 0.7952449999999804
    vertex 1.7903549999999557 3.574700999999912 0.7953212999999805
    vertex 1.7999999999999559 3.5737919999999126 0.7924357999999805
  endloop
endfacet
facet normal 0.29277882606431904 0.08263697712517823 0.9526025871369508
  outer loop
    vertex 1.7999999999999559 3.5737919999999126 0.7924357999999805
    vertex 1.7903549999999557 3.574700999999912 0.7953212999999805
    vertex 1.793069999999956 3.550321999999912 0.7966016999999803
  endloop
endfacet
facet normal 0.28009782373368136 -0.9199760807978942 0.27420652782055005
  outer loop
    vertex 1.750599999999957 3.6635929999999104 0.888861499999978
    vertex 1.7268819999999574 3.6558219999999104 0.8870169999999782
    vertex 1.758048999999957 3.65924299999991 0.8666579999999787
  endloop
endfacet
facet normal 0.27401706149444416 -0.9247532154635874 0.2640949459942501
  outer loop
    vertex 1.7268819999999574 3.6558219999999104 0.8870169999999782
    vertex 1.7378329999999576 3.653143999999911 0.8662772999999788
    vertex 1.758048999999957 3.65924299999991 0.8666579999999787
  endloop
endfacet
facet normal -3.1806977866037643e-16 0.17476718815204453 0.9846097856234356
  outer loop
    vertex 1.7999999999999559 3.5737919999999126 0.7924357999999805
    vertex 1.793069999999956 3.550321999999912 0.7966016999999803
    vertex 1.796558999999956 3.550321999999912 0.7966016999999803
  endloop
endfacet
facet normal -1.2803396101139228e-15 0.17476718815204456 0.9846097856234356
  outer loop
    vertex 1.7999999999999559 3.5737919999999126 0.7924357999999805
    vertex 1.796558999999956 3.550321999999912 0.7966016999999803
    vertex 1.7982979999999558 3.550321999999912 0.7966016999999803
  endloop
endfacet
facet normal -1.3027162261160787e-15 0.17476718815204453 0.9846097856234356
  outer loop
    vertex 1.7999999999999559 3.5737919999999126 0.7924357999999805
    vertex 1.7982979999999558 3.550321999999912 0.7966016999999803
    vertex 1.7991599999999561 3.550321999999912 0.7966016999999803
  endloop
endfacet
facet normal -0.0 0.17476718815204453 0.9846097856234356
  outer loop
    vertex 1.7999999999999559 3.5737919999999126 0.7924357999999805
    vertex 1.7991599999999561 3.550321999999912 0.7966016999999803
    vertex 1.7995799999999558 3.550321999999912 0.7966016999999803
  endloop
endfacet
facet normal -0.0 0.17476718815204453 0.9846097856234356
  outer loop
    vertex 1.7999999999999559 3.5737919999999126 0.7924357999999805
    vertex 1.7995799999999558 3.550321999999912 0.7966016999999803
    vertex 1.7997889999999561 3.550321999999912 0.7966016999999803
  endloop
endfacet
facet normal -0.0 0.17476718815204448 0.9846097856234356
  outer loop
    vertex 1.7999999999999559 3.5737919999999126 0.7924357999999805
    vertex 1.7997889999999561 3.550321999999912 0.7966016999999803
    vertex 1.799893999999956 3.550321999999912 0.7966016999999803
  endloop
endfacet
facet normal 2.1537368180940877e-14 0.1747671881520445 0.9846097856234356
  outer loop
    vertex 1.7999999999999559 3.5737919999999126 0.7924357999999805
    vertex 1.799893999999956 3.550321999999912 0.7966016999999803
    vertex 1.7999469999999558 3.550321999999912 0.7966016999999803
  endloop
endfacet
facet normal 1.0768684090323751e-14 0.17476718815204445 0.9846097856234356
  outer loop
    vertex 1.7999999999999559 3.5737919999999126 0.7924357999999805
    vertex 1.7999469999999558 3.550321999999912 0.7966016999999803
    vertex 1.7999999999999559 3.550321999999912 0.7966016999999803
  endloop
endfacet
facet normal 0.25399583050879593 -0.8684782269778398 0.4257131514876828
  outer loop
    vertex 1.758048999999957 3.65924299999991 0.8666579999999787
    vertex 1.7378329999999576 3.653143999999911 0.8662772999999788
    vertex 1.7655619999999568 3.6509999999999105 0.8453592999999793
  endloop
endfacet
facet normal 0.28472426921238675 -0.8391397902492143 0.4634398590345648
  outer loop
    vertex 1.7378329999999576 3.653143999999911 0.8662772999999788
    vertex 1.7489649999999568 3.646042999999911 0.8465804999999791
    vertex 1.7655619999999568 3.6509999999999105 0.8453592999999793
  endloop
endfacet
facet normal 0.2673592532606307 -0.7444438798973485 0.6118188779200101
  outer loop
    vertex 1.7489649999999568 3.646042999999911 0.8465804999999791
    vertex 1.7729649999999564 3.6379209999999107 0.8262100999999797
    vertex 1.7655619999999568 3.6509999999999105 0.8453592999999793
  endloop
endfacet
facet normal 0.31761825462381166 -0.6907348245292152 0.6496183852942571
  outer loop
    vertex 1.7489649999999568 3.646042999999911 0.8465804999999791
    vertex 1.7599779999999565 3.6341979999999108 0.8286011999999798
    vertex 1.7729649999999564 3.6379209999999107 0.8262100999999797
  endloop
endfacet
facet normal -0.08840229222482426 -0.9715174733096864 0.21986094192320593
  outer loop
    vertex 1.7753909999999564 3.6661759999999095 0.8886885999999782
    vertex 1.7999999999999559 3.6581119999999103 0.8629503999999789
    vertex 1.7999989999999557 3.6635269999999096 0.886877699999978
  endloop
endfacet
facet normal -0.0 -0.010470175033902764 0.9999451862151042
  outer loop
    vertex 1.793069999999956 3.550321999999912 0.7966016999999803
    vertex 1.7856719999999562 3.5744749999999117 0.7968545999999804
    vertex 1.789575999999956 3.550321999999912 0.7966016999999803
  endloop
endfacet
facet normal 0.10226740404720491 -0.9655097867451111 0.23944149550329777
  outer loop
    vertex 1.750599999999957 3.6635929999999104 0.888861499999978
    vertex 1.7790529999999563 3.6607639999999098 0.8653014999999786
    vertex 1.7753909999999564 3.6661759999999095 0.8886885999999782
  endloop
endfacet
facet normal 0.016734126644191702 -0.826857654965931 0.5621622429776814
  outer loop
    vertex 1.782720999999956 3.6521639999999103 0.8427348999999793
    vertex 1.786281999999956 3.6386739999999107 0.8227870999999797
    vertex 1.7999999999999559 3.636901999999911 0.8197723999999799
  endloop
endfacet
facet normal 0.46813554962734244 -0.8754268149091189 0.12032040106807095
  outer loop
    vertex 1.7165939999999578 3.65319199999991 0.9079095999999776
    vertex 1.6921579999999585 3.6393859999999107 0.9025340999999778
    vertex 1.7268819999999574 3.6558219999999104 0.8870169999999782
  endloop
endfacet
facet normal 0.12670312046094492 -0.6237900063338813 0.7712537502427043
  outer loop
    vertex 1.7999999999999559 3.6189489999999114 0.8045798999999803
    vertex 1.786281999999956 3.6386739999999107 0.8227870999999797
    vertex 1.789676999999956 3.6202349999999117 0.8073158999999801
  endloop
endfacet
facet normal 0.3184866764899095 -0.3456483819350899 0.8826626948976977
  outer loop
    vertex 1.789676999999956 3.6202349999999117 0.8073158999999801
    vertex 1.7799339999999562 3.619998999999911 0.8107389999999801
    vertex 1.7858939999999561 3.598479999999911 0.8001616999999803
  endloop
endfacet
facet normal 0.19007045172126139 -0.3905893713028096 0.9007292414525863
  outer loop
    vertex 1.7999999999999559 3.6189489999999114 0.8045798999999803
    vertex 1.789676999999956 3.6202349999999117 0.8073158999999801
    vertex 1.7999999999999559 3.5974219999999115 0.7952449999999804
  endloop
endfacet
facet normal 0.4912813180886495 -0.8472672058368955 0.2019429335491075
  outer loop
    vertex 1.6921579999999585 3.6393859999999107 0.9025340999999778
    vertex 1.7101689999999583 3.6436199999999106 0.8764814999999784
    vertex 1.7268819999999574 3.6558219999999104 0.8870169999999782
  endloop
endfacet
facet normal 0.41341188875694934 -0.8494263303759857 0.32797182729374635
  outer loop
    vertex 1.7268819999999574 3.6558219999999104 0.8870169999999782
    vertex 1.7101689999999583 3.6436199999999106 0.8764814999999784
    vertex 1.7378329999999576 3.653143999999911 0.8662772999999788
  endloop
endfacet
facet normal 0.10316533889114782 -0.9934476287821837 -0.04918050140585481
  outer loop
    vertex 1.743660999999957 3.66176399999991 0.9112514999999777
    vertex 1.750599999999957 3.6635929999999104 0.888861499999978
    vertex 1.7753909999999564 3.6661759999999095 0.8886885999999782
  endloop
endfacet
facet normal -0.06744660246024788 -0.9359147250133147 0.34570881290447436
  outer loop
    vertex 1.7790529999999563 3.6607639999999098 0.8653014999999786
    vertex 1.782720999999956 3.6521639999999103 0.8427348999999793
    vertex 1.7999999999999559 3.64987299999991 0.8399036999999795
  endloop
endfacet
facet normal -0.09880894434318097 -0.9931377437661005 -0.06256368295557212
  outer loop
    vertex 1.7719689999999564 3.6647079999999104 0.9123991999999777
    vertex 1.7999989999999557 3.6635269999999096 0.886877699999978
    vertex 1.7999999999999559 3.6619859999999105 0.9113379999999776
  endloop
endfacet
facet normal -0.09963760349286536 -0.9727199339838154 0.20949529350493856
  outer loop
    vertex 1.7753909999999564 3.6661759999999095 0.8886885999999782
    vertex 1.7790529999999563 3.6607639999999098 0.8653014999999786
    vertex 1.7999999999999559 3.6581119999999103 0.8629503999999789
  endloop
endfacet
facet normal 0.1051877062122098 -0.9933729568745893 -0.04632186321867131
  outer loop
    vertex 1.7719689999999564 3.6647079999999104 0.9123991999999777
    vertex 1.743660999999957 3.66176399999991 0.9112514999999777
    vertex 1.7753909999999564 3.6661759999999095 0.8886885999999782
  endloop
endfacet
facet normal 0.3001850318172951 -0.9537611377810428 0.015120804590377623
  outer loop
    vertex 1.743660999999957 3.66176399999991 0.9112514999999777
    vertex 1.7165939999999578 3.65319199999991 0.9079095999999776
    vertex 1.750599999999957 3.6635929999999104 0.888861499999978
  endloop
endfacet
facet normal -0.08116440299835448 -0.9385311530814722 0.3355169360576049
  outer loop
    vertex 1.7790529999999563 3.6607639999999098 0.8653014999999786
    vertex 1.7999999999999559 3.64987299999991 0.8399036999999795
    vertex 1.7999999999999559 3.6581119999999103 0.8629503999999789
  endloop
endfacet
facet normal 0.3089109783378532 -0.9505368935204684 0.03245953663884111
  outer loop
    vertex 1.7165939999999578 3.65319199999991 0.9079095999999776
    vertex 1.7268819999999574 3.6558219999999104 0.8870169999999782
    vertex 1.750599999999957 3.6635929999999104 0.888861499999978
  endloop
endfacet
facet normal 0.09075981112652634 -0.9255888374617152 0.36748872180047676
  outer loop
    vertex 1.758048999999957 3.65924299999991 0.8666579999999787
    vertex 1.782720999999956 3.6521639999999103 0.8427348999999793
    vertex 1.7790529999999563 3.6607639999999098 0.8653014999999786
  endloop
endfacet
facet normal 0.33551776889241774 -0.33907861522460225 0.8788933493062856
  outer loop
    vertex 1.7858939999999561 3.598479999999911 0.8001616999999803
    vertex 1.7799339999999562 3.619998999999911 0.8107389999999801
    vertex 1.7703079999999565 3.617718999999911 0.8135340999999802
  endloop
endfacet
facet normal 0.3488026169772527 -0.5038683965674047 0.7902236223566166
  outer loop
    vertex 1.7799339999999562 3.619998999999911 0.8107389999999801
    vertex 1.7599779999999565 3.6341979999999108 0.8286011999999798
    vertex 1.7703079999999565 3.617718999999911 0.8135340999999802
  endloop
endfacet
facet normal 0.12223249080640224 -0.9103263395271624 0.39543036524063274
  outer loop
    vertex 1.758048999999957 3.65924299999991 0.8666579999999787
    vertex 1.7655619999999568 3.6509999999999105 0.8453592999999793
    vertex 1.782720999999956 3.6521639999999103 0.8427348999999793
  endloop
endfacet
facet normal 0.19889286142688906 -0.7717614974153053 0.6040081297306438
  outer loop
    vertex 1.7655619999999568 3.6509999999999105 0.8453592999999793
    vertex 1.7729649999999564 3.6379209999999107 0.8262100999999797
    vertex 1.786281999999956 3.6386739999999107 0.8227870999999797
  endloop
endfacet
facet normal 0.28672909666696317 -0.5596924914453623 0.777515749129386
  outer loop
    vertex 1.789676999999956 3.6202349999999117 0.8073158999999801
    vertex 1.7729649999999564 3.6379209999999107 0.8262100999999797
    vertex 1.7799339999999562 3.619998999999911 0.8107389999999801
  endloop
endfacet
facet normal 0.1422632393762483 -0.807966882266674 0.5717960194706209
  outer loop
    vertex 1.7655619999999568 3.6509999999999105 0.8453592999999793
    vertex 1.786281999999956 3.6386739999999107 0.8227870999999797
    vertex 1.782720999999956 3.6521639999999103 0.8427348999999793
  endloop
endfacet
facet normal 0.08452559444143869 -0.9721003978859277 0.21880639916223288
  outer loop
    vertex 1.750599999999957 3.6635929999999104 0.888861499999978
    vertex 1.758048999999957 3.65924299999991 0.8666579999999787
    vertex 1.7790529999999563 3.6607639999999098 0.8653014999999786
  endloop
endfacet
facet normal 0.23079741988995506 -0.6001225521149373 0.7658886821302389
  outer loop
    vertex 1.789676999999956 3.6202349999999117 0.8073158999999801
    vertex 1.786281999999956 3.6386739999999107 0.8227870999999797
    vertex 1.7729649999999564 3.6379209999999107 0.8262100999999797
  endloop
endfacet
facet normal 0.3581029211932981 -0.1212673697836189 0.9257734727559381
  outer loop
    vertex 1.7903549999999557 3.574700999999912 0.7953212999999805
    vertex 1.7858939999999561 3.598479999999911 0.8001616999999803
    vertex 1.7791109999999566 3.5974549999999117 0.8026511999999802
  endloop
endfacet
facet normal 0.30155193232784705 -0.5531371004937017 0.7765988540854037
  outer loop
    vertex 1.7799339999999562 3.619998999999911 0.8107389999999801
    vertex 1.7729649999999564 3.6379209999999107 0.8262100999999797
    vertex 1.7599779999999565 3.6341979999999108 0.8286011999999798
  endloop
endfacet
facet normal 0.3141841580097692 -0.14688612174242627 0.937930051813653
  outer loop
    vertex 1.7903549999999557 3.574700999999912 0.7953212999999805
    vertex 1.7791109999999566 3.5974549999999117 0.8026511999999802
    vertex 1.7856719999999562 3.5744749999999117 0.7968545999999804
  endloop
endfacet
facet normal 0.3685162847115674 -0.3104976320861213 0.8762345395904539
  outer loop
    vertex 1.7858939999999561 3.598479999999911 0.8001616999999803
    vertex 1.7703079999999565 3.617718999999911 0.8135340999999802
    vertex 1.7791109999999566 3.5974549999999117 0.8026511999999802
  endloop
endfacet
facet normal -0.11013036332701237 -0.9380352564725549 -0.3285744370579191
  outer loop
    vertex 1.801157999999956 3.62319799999991 1.0308979999999748
    vertex 1.7625049999999567 3.6375529999999108 1.0028719999999756
    vertex 1.7591559999999566 3.6474229999999106 0.9758169999999763
  endloop
endfacet
facet normal 0.67693668336492 -0.6429055943360618 -0.3583700929015945
  outer loop
    vertex 1.7196159999999576 3.581279999999912 1.0790659999999737
    vertex 1.699442999999958 3.561279999999912 1.0768399999999734
    vertex 1.6583149999999593 3.580153999999912 0.9652925999999763
  endloop
endfacet
facet normal 0.7453079098523642 -0.536181333599871 -0.3962646804984823
  outer loop
    vertex 1.6839649999999582 3.613476999999911 0.9684469999999761
    vertex 1.7196159999999576 3.581279999999912 1.0790659999999737
    vertex 1.6583149999999593 3.580153999999912 0.9652925999999763
  endloop
endfacet
facet normal 0.32223758774510547 -0.9048089426787973 -0.27835896661090764
  outer loop
    vertex 1.7433739999999573 3.66163799999991 0.9114571999999777
    vertex 1.7164209999999573 3.6530539999999103 0.9081578999999775
    vertex 1.7165939999999578 3.65319199999991 0.9079095999999776
  endloop
endfacet
facet normal 0.3287249681416176 -0.862156141847925 -0.3855213125032043
  outer loop
    vertex 1.7486759999999568 3.622992999999911 1.0280699999999747
    vertex 1.7319329999999573 3.617181999999911 1.0267889999999746
    vertex 1.7185399999999575 3.636549999999911 0.972055699999976
  endloop
endfacet
facet normal 0.029694061924835136 -0.8724393073446794 -0.4878195544321076
  outer loop
    vertex 1.801157999999956 3.62319799999991 1.0308979999999748
    vertex 1.7486759999999568 3.622992999999911 1.0280699999999747
    vertex 1.7625049999999567 3.6375529999999108 1.0028719999999756
  endloop
endfacet
facet normal 0.324535254989278 -0.8386361891510585 -0.4374542381955334
  outer loop
    vertex 1.7446759999999573 3.5942109999999117 1.0802799999999735
    vertex 1.7319329999999573 3.617181999999911 1.0267889999999746
    vertex 1.7486759999999568 3.622992999999911 1.0280699999999747
  endloop
endfacet
facet normal 0.02644822024867381 -0.9046916187381083 -0.4252453017150205
  outer loop
    vertex 1.7727819999999568 3.5991049999999123 1.0803899999999733
    vertex 1.7486759999999568 3.622992999999911 1.0280699999999747
    vertex 1.801157999999956 3.62319799999991 1.0308979999999748
  endloop
endfacet
facet normal 0.5082187203997772 -0.8528414725655685 -0.11989643408961785
  outer loop
    vertex 1.7164209999999573 3.6530539999999103 0.9081578999999775
    vertex 1.6921579999999585 3.6393859999999107 0.9025340999999778
    vertex 1.7165939999999578 3.65319199999991 0.9079095999999776
  endloop
endfacet
facet normal -0.1322832957102804 -0.8592609708965475 -0.4941373428207475
  outer loop
    vertex 1.7727819999999568 3.5991049999999123 1.0803899999999733
    vertex 1.801157999999956 3.62319799999991 1.0308979999999748
    vertex 1.8009329999999557 3.595355999999912 1.0793729999999735
  endloop
endfacet
facet normal 0.663581607624773 -0.45548162531258013 -0.5934609835740952
  outer loop
    vertex 1.6839649999999582 3.613476999999911 0.9684469999999761
    vertex 1.6582969999999595 3.580162999999912 0.9653146999999763
    vertex 1.662245999999959 3.5999849999999123 0.9545168999999766
  endloop
endfacet
facet normal -0.09927574283263765 -0.9159783515973017 -0.3887518312369964
  outer loop
    vertex 1.7717309999999566 3.6646399999999097 0.9126201999999776
    vertex 1.7719689999999564 3.6647079999999104 0.9123991999999777
    vertex 1.800009999999956 3.6618959999999103 0.9118639999999776
  endloop
endfacet
facet normal -0.09922587935558166 -0.9806545966672711 -0.16873288624765329
  outer loop
    vertex 1.7716739999999562 3.6645909999999096 0.9128643999999776
    vertex 1.800009999999956 3.6618959999999103 0.9118639999999776
    vertex 1.8000189999999558 3.66180399999991 0.9123933999999776
  endloop
endfacet
facet normal 0.2722327694362729 -0.8926178793472438 -0.35933638935499745
  outer loop
    vertex 1.7625049999999567 3.6375529999999108 1.0028719999999756
    vertex 1.7185399999999575 3.636549999999911 0.972055699999976
    vertex 1.7591559999999566 3.6474229999999106 0.9758169999999763
  endloop
endfacet
facet normal 0.4388345878618204 -0.8149061657282982 -0.37861873376016353
  outer loop
    vertex 1.7446759999999573 3.5942109999999117 1.0802799999999735
    vertex 1.7196159999999576 3.581279999999912 1.0790659999999737
    vertex 1.6839649999999582 3.613476999999911 0.9684469999999761
  endloop
endfacet
facet normal 0.5380916390770467 -0.7445330976408259 -0.3951301740853687
  outer loop
    vertex 1.7319329999999573 3.617181999999911 1.0267889999999746
    vertex 1.6839649999999582 3.613476999999911 0.9684469999999761
    vertex 1.7185399999999575 3.636549999999911 0.972055699999976
  endloop
endfacet
facet normal 0.11269566870759117 -0.9095922876802867 -0.39992693888645625
  outer loop
    vertex 1.7717309999999566 3.6646399999999097 0.9126201999999776
    vertex 1.7433739999999573 3.66163799999991 0.9114571999999777
    vertex 1.743660999999957 3.66176399999991 0.9112514999999777
  endloop
endfacet
facet normal -0.10144536671544441 -0.9815927055359622 -0.16181655666389155
  outer loop
    vertex 1.7719689999999564 3.6647079999999104 0.9123991999999777
    vertex 1.7999999999999559 3.6619859999999105 0.9113379999999776
    vertex 1.800000999999956 3.6619749999999094 0.9114040999999776
  endloop
endfacet
facet normal -0.10144995027530918 -0.9815528898346145 -0.16205502783454173
  outer loop
    vertex 1.7719689999999564 3.6647079999999104 0.9123991999999777
    vertex 1.800000999999956 3.6619749999999094 0.9114040999999776
    vertex 1.800001999999956 3.66196399999991 0.9114700999999776
  endloop
endfacet
facet normal -0.10156667025718276 -0.9803430910885695 -0.16914974208605038
  outer loop
    vertex 1.7719689999999564 3.6647079999999104 0.9123991999999777
    vertex 1.800001999999956 3.66196399999991 0.9114700999999776
    vertex 1.8000049999999561 3.66194099999991 0.9116015999999777
  endloop
endfacet
facet normal -0.10153372630276457 -0.9808384962746841 -0.16627310861559055
  outer loop
    vertex 1.7719689999999564 3.6647079999999104 0.9123991999999777
    vertex 1.8000049999999561 3.66194099999991 0.9116015999999777
    vertex 1.800009999999956 3.6618959999999103 0.9118639999999776
  endloop
endfacet
facet normal -0.09921647299627102 -0.9834019201299636 -0.1519103517568198
  outer loop
    vertex 1.7715929999999567 3.6645189999999097 0.9133833999999776
    vertex 1.7716739999999562 3.6645909999999096 0.9128643999999776
    vertex 1.8000189999999558 3.66180399999991 0.9123933999999776
  endloop
endfacet
facet normal 0.1533747154993455 -0.8703038417628433 -0.46802502033366866
  outer loop
    vertex 1.7727819999999568 3.5991049999999123 1.0803899999999733
    vertex 1.7446759999999573 3.5942109999999117 1.0802799999999735
    vertex 1.7486759999999568 3.622992999999911 1.0280699999999747
  endloop
endfacet
facet normal -0.1000307902075592 -0.9707773578653401 -0.21814023578065728
  outer loop
    vertex 1.7716739999999562 3.6645909999999096 0.9128643999999776
    vertex 1.7717309999999566 3.6646399999999097 0.9126201999999776
    vertex 1.800009999999956 3.6618959999999103 0.9118639999999776
  endloop
endfacet
facet normal -0.09881077881013337 -0.9739339741479497 -0.2041789509016926
  outer loop
    vertex 1.7713799999999564 3.66433299999991 0.9143736999999775
    vertex 1.7715929999999567 3.6645189999999097 0.9133833999999776
    vertex 1.8000389999999558 3.6616159999999103 0.9134644999999775
  endloop
endfacet
facet normal 0.5811085985621562 -0.6884058048020428 -0.4340624892708174
  outer loop
    vertex 1.7446759999999573 3.5942109999999117 1.0802799999999735
    vertex 1.6839649999999582 3.613476999999911 0.9684469999999761
    vertex 1.7319329999999573 3.617181999999911 1.0267889999999746
  endloop
endfacet
facet normal -0.09840236700704892 -0.9799203131108395 -0.17341612993076622
  outer loop
    vertex 1.8000769999999557 3.66123399999991 0.9156014999999774
    vertex 1.7713799999999564 3.66433299999991 0.9143736999999775
    vertex 1.8000389999999558 3.6616159999999103 0.9134644999999775
  endloop
endfacet
facet normal 0.1090354125787955 -0.9770110019137949 -0.18319601781472955
  outer loop
    vertex 1.7717309999999566 3.6646399999999097 0.9126201999999776
    vertex 1.743660999999957 3.66176399999991 0.9112514999999777
    vertex 1.7719689999999564 3.6647079999999104 0.9123991999999777
  endloop
endfacet
facet normal -0.09956383283899067 -0.9803641812218865 -0.17021490935740471
  outer loop
    vertex 1.8000389999999558 3.6616159999999103 0.9134644999999775
    vertex 1.7715929999999567 3.6645189999999097 0.9133833999999776
    vertex 1.8000189999999558 3.66180399999991 0.9123933999999776
  endloop
endfacet
facet normal -0.09651669721211646 -0.974330830117073 -0.20338131832260373
  outer loop
    vertex 1.7709379999999562 3.66396299999991 0.9163559999999774
    vertex 1.7713799999999564 3.66433299999991 0.9143736999999775
    vertex 1.8000769999999557 3.66123399999991 0.9156014999999774
  endloop
endfacet
facet normal -0.09635274191153312 -0.9787189925747731 -0.18117748949455803
  outer loop
    vertex 1.8001519999999558 3.66043699999991 0.9198669999999775
    vertex 1.7709379999999562 3.66396299999991 0.9163559999999774
    vertex 1.8000769999999557 3.66123399999991 0.9156014999999774
  endloop
endfacet
facet normal 0.4659385047999577 -0.8766051064606774 0.120269684758232
  outer loop
    vertex 1.716247999999958 3.6530029999999103 0.9084563999999777
    vertex 1.6921579999999585 3.6393859999999107 0.9025340999999778
    vertex 1.7164209999999573 3.6530539999999103 0.9081578999999775
  endloop
endfacet
facet normal 0.4207241559493096 -0.9069002835263836 -0.0228705124670678
  outer loop
    vertex 1.706204999999958 3.6486159999999104 0.9135354999999775
    vertex 1.7107289999999578 3.6507549999999105 0.9119393999999775
    vertex 1.7139089999999577 3.6522119999999103 0.9126629999999776
  endloop
endfacet
facet normal 0.3143876238223075 -0.9393902023637056 -0.13677159679714038
  outer loop
    vertex 1.7433739999999573 3.66163799999991 0.9114571999999777
    vertex 1.7165939999999578 3.65319199999991 0.9079095999999776
    vertex 1.743660999999957 3.66176399999991 0.9112514999999777
  endloop
endfacet
facet normal -0.029636610617767786 -0.9231105380285173 -0.3833909308940317
  outer loop
    vertex 1.801157999999956 3.62319799999991 1.0308979999999748
    vertex 1.7591559999999566 3.6474229999999106 0.9758169999999763
    vertex 1.8009279999999557 3.6446459999999106 0.979274299999976
  endloop
endfacet
facet normal 0.27502072100617886 -0.8901165353132984 -0.36339531722229373
  outer loop
    vertex 1.7486759999999568 3.622992999999911 1.0280699999999747
    vertex 1.7185399999999575 3.636549999999911 0.972055699999976
    vertex 1.7625049999999567 3.6375529999999108 1.0028719999999756
  endloop
endfacet
facet normal -0.09434081259234516 -0.9761815511859311 -0.19536988049247878
  outer loop
    vertex 1.7700289999999568 3.6632489999999103 0.9203624999999773
    vertex 1.7709379999999562 3.66396299999991 0.9163559999999774
    vertex 1.8001519999999558 3.66043699999991 0.9198669999999775
  endloop
endfacet
facet normal -0.09433996670111558 -0.9761057204987086 -0.19574880099895786
  outer loop
    vertex 1.8002949999999558 3.6587169999999105 0.9283748999999772
    vertex 1.7700289999999568 3.6632489999999103 0.9203624999999773
    vertex 1.8001519999999558 3.66043699999991 0.9198669999999775
  endloop
endfacet
facet normal 0.4381243273622813 -0.7640191028301958 -0.4736263129133467
  outer loop
    vertex 1.7185399999999575 3.636549999999911 0.972055699999976
    vertex 1.6892089999999587 3.6291059999999113 0.9569313999999765
    vertex 1.7229769999999578 3.6471859999999103 0.9590028999999765
  endloop
endfacet
facet normal 0.5646507472295208 -0.8230236484374533 -0.06165717935364391
  outer loop
    vertex 1.6965959999999582 3.6405269999999104 0.9427726999999769
    vertex 1.6797979999999588 3.630557999999911 0.9220081999999774
    vertex 1.7062089999999581 3.648371999999911 0.9260895999999772
  endloop
endfacet
facet normal 0.48748232046682544 -0.8637764178641251 0.12748053645203988
  outer loop
    vertex 1.7032619999999583 3.64660999999991 0.9066768999999776
    vertex 1.697604999999958 3.6431179999999106 0.9046481999999779
    vertex 1.7036379999999582 3.6467289999999104 0.9060453999999778
  endloop
endfacet
facet normal -0.0968231227769643 -0.9541451410267024 -0.2832531248739389
  outer loop
    vertex 1.8009279999999557 3.6446459999999106 0.979274299999976
    vertex 1.7645299999999566 3.6586549999999103 0.9445263999999768
    vertex 1.8005479999999556 3.65474299999991 0.9453921999999769
  endloop
endfacet
facet normal 0.41864185853017144 -0.6766222242819243 -0.605740340322638
  outer loop
    vertex 1.6797979999999588 3.630557999999911 0.9220081999999774
    vertex 1.6840269999999589 3.6343109999999106 0.9207387999999773
    vertex 1.6880039999999585 3.637454999999911 0.9199754999999774
  endloop
endfacet
facet normal 0.40845693564303714 -0.9118555136167527 0.04101772801884723
  outer loop
    vertex 1.7139089999999577 3.6522119999999103 0.9126629999999776
    vertex 1.7107289999999578 3.6507549999999105 0.9119393999999775
    vertex 1.7152489999999578 3.6527059999999105 0.9103011999999776
  endloop
endfacet
facet normal 0.42937522057533023 -0.9027027379848117 0.027652970737533082
  outer loop
    vertex 1.7112829999999581 3.65110399999991 0.9172680999999776
    vertex 1.705168999999958 3.6481349999999106 0.9152818999999776
    vertex 1.7139089999999577 3.6522119999999103 0.9126629999999776
  endloop
endfacet
facet normal 0.5541985318024817 -0.8307664750311048 -0.051875343973474236
  outer loop
    vertex 1.6880039999999585 3.637454999999911 0.9199754999999774
    vertex 1.6883539999999584 3.6377239999999103 0.9194066999999775
    vertex 1.6964999999999582 3.6432629999999104 0.9177273999999774
  endloop
endfacet
facet normal 0.5170325962076453 -0.8271493074992906 -0.220230146806077
  outer loop
    vertex 1.6883539999999584 3.6377239999999103 0.9194066999999775
    vertex 1.6927499999999587 3.6408409999999107 0.9180201999999774
    vertex 1.6964999999999582 3.6432629999999104 0.9177273999999774
  endloop
endfacet
facet normal -0.10028718455991267 -0.9711918609127843 -0.2161685682744119
  outer loop
    vertex 1.8005479999999556 3.65474299999991 0.9453921999999769
    vertex 1.7645299999999566 3.6586549999999103 0.9445263999999768
    vertex 1.7681509999999567 3.6618549999999095 0.9284696999999772
  endloop
endfacet
facet normal 0.5683833197065059 -0.8226736056960791 -0.012187713912967125
  outer loop
    vertex 1.6797979999999588 3.630557999999911 0.9220081999999774
    vertex 1.6921579999999585 3.6393859999999107 0.9025340999999778
    vertex 1.697604999999958 3.6431179999999106 0.9046481999999779
  endloop
endfacet
facet normal 0.16151396895631487 -0.6197532062476208 0.7679968757604243
  outer loop
    vertex 1.716247999999958 3.6530029999999103 0.9084563999999777
    vertex 1.7036379999999582 3.6467289999999104 0.9060453999999778
    vertex 1.6921579999999585 3.6393859999999107 0.9025340999999778
  endloop
endfacet
facet normal 0.5438200218448822 -0.8387785890355081 0.026650748886926267
  outer loop
    vertex 1.6927499999999587 3.6408409999999107 0.9180201999999774
    vertex 1.6972009999999584 3.6436809999999102 0.9165788999999774
    vertex 1.6964999999999582 3.6432629999999104 0.9177273999999774
  endloop
endfacet
facet normal 0.26275617851237126 -0.7897945220949396 -0.5542416472283553
  outer loop
    vertex 1.7591559999999566 3.6474229999999106 0.9758169999999763
    vertex 1.7185399999999575 3.636549999999911 0.972055699999976
    vertex 1.7229769999999578 3.6471859999999103 0.9590028999999765
  endloop
endfacet
facet normal 0.4782602615708258 -0.619282653113639 -0.6227006646493464
  outer loop
    vertex 1.7185399999999575 3.636549999999911 0.972055699999976
    vertex 1.6839649999999582 3.613476999999911 0.9684469999999761
    vertex 1.6892089999999587 3.6291059999999113 0.9569313999999765
  endloop
endfacet
facet normal 0.6638753117050308 -0.5750365620638224 -0.47812396174880006
  outer loop
    vertex 1.6892089999999587 3.6291059999999113 0.9569313999999765
    vertex 1.6839649999999582 3.613476999999911 0.9684469999999761
    vertex 1.662245999999959 3.5999849999999123 0.9545168999999766
  endloop
endfacet
facet normal 0.6970371530078718 -0.6147870182708647 -0.3690205000976237
  outer loop
    vertex 1.6892089999999587 3.6291059999999113 0.9569313999999765
    vertex 1.662245999999959 3.5999849999999123 0.9545168999999766
    vertex 1.669623999999959 3.6172689999999106 0.9396579999999769
  endloop
endfacet
facet normal -0.09532669917013777 -0.9696777225512363 -0.22502874219346686
  outer loop
    vertex 1.8005479999999556 3.65474299999991 0.9453921999999769
    vertex 1.7681509999999567 3.6618549999999095 0.9284696999999772
    vertex 1.8002949999999558 3.6587169999999105 0.9283748999999772
  endloop
endfacet
facet normal 0.6544048821671988 -0.7352827018058316 -0.17639047202400504
  outer loop
    vertex 1.6965959999999582 3.6405269999999104 0.9427726999999769
    vertex 1.669623999999959 3.6172689999999106 0.9396579999999769
    vertex 1.6797979999999588 3.630557999999911 0.9220081999999774
  endloop
endfacet
facet normal 0.42431537640819006 -0.8978887847688887 0.11726973833783509
  outer loop
    vertex 1.7159249999999573 3.652933999999911 0.9090967999999776
    vertex 1.7036379999999582 3.6467289999999104 0.9060453999999778
    vertex 1.716247999999958 3.6530029999999103 0.9084563999999777
  endloop
endfacet
facet normal 0.48506677950240906 -0.8741977868069194 -0.02210088154453279
  outer loop
    vertex 1.6964999999999582 3.6432629999999104 0.9177273999999774
    vertex 1.6972009999999584 3.6436809999999102 0.9165788999999774
    vertex 1.705168999999958 3.6481349999999106 0.9152818999999776
  endloop
endfacet
facet normal 0.4137933351199452 -0.9083721565361611 0.060291799111957776
  outer loop
    vertex 1.7152489999999578 3.6527059999999105 0.9103011999999776
    vertex 1.709143999999958 3.6498099999999103 0.9085689999999775
    vertex 1.7159249999999573 3.652933999999911 0.9090967999999776
  endloop
endfacet
facet normal 0.43158633678910047 -0.8977895727034068 0.08779018761797683
  outer loop
    vertex 1.7159249999999573 3.652933999999911 0.9090967999999776
    vertex 1.7032619999999583 3.64660999999991 0.9066768999999776
    vertex 1.7036379999999582 3.6467289999999104 0.9060453999999778
  endloop
endfacet
facet normal 0.6215349366795212 -0.7832943845883819 0.012009561153162774
  outer loop
    vertex 1.6840269999999589 3.6343109999999106 0.9207387999999773
    vertex 1.6883539999999584 3.6377239999999103 0.9194066999999775
    vertex 1.6880039999999585 3.637454999999911 0.9199754999999774
  endloop
endfacet
facet normal 0.17936212238046878 -0.910287209236342 -0.373103773440964
  outer loop
    vertex 1.7591559999999566 3.6474229999999106 0.9758169999999763
    vertex 1.7229769999999578 3.6471859999999103 0.9590028999999765
    vertex 1.7614959999999567 3.6541569999999104 0.9605124999999765
  endloop
endfacet
facet normal -0.09594292662804695 -0.9770415181425448 -0.1902230970617307
  outer loop
    vertex 1.7681509999999567 3.6618549999999095 0.9284696999999772
    vertex 1.7700289999999568 3.6632489999999103 0.9203624999999773
    vertex 1.8002949999999558 3.6587169999999105 0.9283748999999772
  endloop
endfacet
facet normal 0.37996503547436355 -0.8752966824720346 0.29913590468283124
  outer loop
    vertex 1.7159249999999573 3.652933999999911 0.9090967999999776
    vertex 1.709143999999958 3.6498099999999103 0.9085689999999775
    vertex 1.7032619999999583 3.64660999999991 0.9066768999999776
  endloop
endfacet
facet normal 0.38061999018676157 -0.8091367113802171 0.44768985399161904
  outer loop
    vertex 1.7036379999999582 3.6467289999999104 0.9060453999999778
    vertex 1.697604999999958 3.6431179999999106 0.9046481999999779
    vertex 1.6921579999999585 3.6393859999999107 0.9025340999999778
  endloop
endfacet
facet normal 0.5518167908189597 -0.8318197347976076 0.05978426357748869
  outer loop
    vertex 1.7062089999999581 3.648371999999911 0.9260895999999772
    vertex 1.6797979999999588 3.630557999999911 0.9220081999999774
    vertex 1.7112829999999581 3.65110399999991 0.9172680999999776
  endloop
endfacet
facet normal -0.027117496839628778 -0.9134429794173508 -0.40606226704571596
  outer loop
    vertex 1.8009279999999557 3.6446459999999106 0.979274299999976
    vertex 1.7591559999999566 3.6474229999999106 0.9758169999999763
    vertex 1.7614959999999567 3.6541569999999104 0.9605124999999765
  endloop
endfacet
facet normal -0.0938661690677259 -0.9535838132738219 -0.28612419220804386
  outer loop
    vertex 1.8009279999999557 3.6446459999999106 0.979274299999976
    vertex 1.7614959999999567 3.6541569999999104 0.9605124999999765
    vertex 1.7645299999999566 3.6586549999999103 0.9445263999999768
  endloop
endfacet
facet normal 0.6494581280977143 -0.7206926689514337 -0.2424999314793145
  outer loop
    vertex 1.6892089999999587 3.6291059999999113 0.9569313999999765
    vertex 1.669623999999959 3.6172689999999106 0.9396579999999769
    vertex 1.6965959999999582 3.6405269999999104 0.9427726999999769
  endloop
endfacet
facet normal 0.31147784003111223 -0.9435054794052765 -0.11304408654048356
  outer loop
    vertex 1.7062089999999581 3.648371999999911 0.9260895999999772
    vertex 1.7112829999999581 3.65110399999991 0.9172680999999776
    vertex 1.739854999999957 3.660234999999911 0.9197838999999776
  endloop
endfacet
facet normal 0.30719083776729905 -0.9509094201955359 -0.03748418033270362
  outer loop
    vertex 1.739854999999957 3.660234999999911 0.9197838999999776
    vertex 1.7112829999999581 3.65110399999991 0.9172680999999776
    vertex 1.7417059999999573 3.6609999999999103 0.9155464999999776
  endloop
endfacet
facet normal 0.30450772665136533 -0.9518883016544608 -0.03440502264210309
  outer loop
    vertex 1.7417059999999573 3.6609999999999103 0.9155464999999776
    vertex 1.7139089999999577 3.6522119999999103 0.9126629999999776
    vertex 1.7426269999999573 3.661371999999911 0.9134057999999776
  endloop
endfacet
facet normal 0.30347632105604877 -0.9527861441231726 -0.010034247614191121
  outer loop
    vertex 1.7430789999999572 3.6615489999999107 0.9123200999999775
    vertex 1.7152489999999578 3.6527059999999105 0.9103011999999776
    vertex 1.7159249999999573 3.652933999999911 0.9090967999999776
  endloop
endfacet
facet normal 0.4138519413856412 -0.9083604392230124 0.060065656293026834
  outer loop
    vertex 1.7107289999999578 3.6507549999999105 0.9119393999999775
    vertex 1.709143999999958 3.6498099999999103 0.9085689999999775
    vertex 1.7152489999999578 3.6527059999999105 0.9103011999999776
  endloop
endfacet
facet normal 0.6044333685511866 -0.7796746468535122 0.16360852066966666
  outer loop
    vertex 1.6883539999999584 3.6377239999999103 0.9194066999999775
    vertex 1.7032619999999583 3.64660999999991 0.9066768999999776
    vertex 1.6927499999999587 3.6408409999999107 0.9180201999999774
  endloop
endfacet
facet normal 0.16372979221832187 -0.45307242605566467 -0.8763092672613815
  outer loop
    vertex 1.7112829999999581 3.65110399999991 0.9172680999999776
    vertex 1.6797979999999588 3.630557999999911 0.9220081999999774
    vertex 1.6880039999999585 3.637454999999911 0.9199754999999774
  endloop
endfacet
facet normal 0.4713774021879509 -0.8561267848500904 -0.21177883031310255
  outer loop
    vertex 1.7229769999999578 3.6471859999999103 0.9590028999999765
    vertex 1.6892089999999587 3.6291059999999113 0.9569313999999765
    vertex 1.7289509999999573 3.65413599999991 0.9442040999999768
  endloop
endfacet
facet normal 0.36077113487241147 -0.8088916575358557 -0.464261213770619
  outer loop
    vertex 1.6892089999999587 3.6291059999999113 0.9569313999999765
    vertex 1.6965959999999582 3.6405269999999104 0.9427726999999769
    vertex 1.7289509999999573 3.65413599999991 0.9442040999999768
  endloop
endfacet
facet normal 0.3271388088605508 -0.9136890016715573 -0.24114851847302116
  outer loop
    vertex 1.6965959999999582 3.6405269999999104 0.9427726999999769
    vertex 1.7062089999999581 3.648371999999911 0.9260895999999772
    vertex 1.7361449999999574 3.6585599999999103 0.9280989999999772
  endloop
endfacet
facet normal 0.3061020543362219 -0.950458438270832 -0.054132148035300885
  outer loop
    vertex 1.7112829999999581 3.65110399999991 0.9172680999999776
    vertex 1.7139089999999577 3.6522119999999103 0.9126629999999776
    vertex 1.7417059999999573 3.6609999999999103 0.9155464999999776
  endloop
endfacet
facet normal 0.4753983729595419 -0.8781812922794798 0.052858347285581406
  outer loop
    vertex 1.7016899999999582 3.6462649999999104 0.9150833999999776
    vertex 1.7032619999999583 3.64660999999991 0.9066768999999776
    vertex 1.706204999999958 3.6486159999999104 0.9135354999999775
  endloop
endfacet
facet normal 0.5575627592385993 -0.8243977538303677 0.09742747553787952
  outer loop
    vertex 1.6927499999999587 3.6408409999999107 0.9180201999999774
    vertex 1.7032619999999583 3.64660999999991 0.9066768999999776
    vertex 1.6972009999999584 3.6436809999999102 0.9165788999999774
  endloop
endfacet
facet normal 0.30439471717410227 -0.9521784803990162 -0.026457468161537538
  outer loop
    vertex 1.7426269999999573 3.661371999999911 0.9134057999999776
    vertex 1.7139089999999577 3.6522119999999103 0.9126629999999776
    vertex 1.7152489999999578 3.6527059999999105 0.9103011999999776
  endloop
endfacet
facet normal 0.2974766866733018 -0.9535567801486962 0.04729786378183807
  outer loop
    vertex 1.7432569999999574 3.6615909999999094 0.9117249999999777
    vertex 1.7159249999999573 3.652933999999911 0.9090967999999776
    vertex 1.716247999999958 3.6530029999999103 0.9084563999999777
  endloop
endfacet
facet normal 0.47148632081261854 -0.8810959819044818 0.03702053427974358
  outer loop
    vertex 1.705168999999958 3.6481349999999106 0.9152818999999776
    vertex 1.7016899999999582 3.6462649999999104 0.9150833999999776
    vertex 1.706204999999958 3.6486159999999104 0.9135354999999775
  endloop
endfacet
facet normal 0.6459902507110157 -0.7198296882275841 0.2540508136820238
  outer loop
    vertex 1.6840269999999589 3.6343109999999106 0.9207387999999773
    vertex 1.7032619999999583 3.64660999999991 0.9066768999999776
    vertex 1.6883539999999584 3.6377239999999103 0.9194066999999775
  endloop
endfacet
facet normal 0.3064840281757109 -0.9513016370172543 -0.03305655580186951
  outer loop
    vertex 1.7432569999999574 3.6615909999999094 0.9117249999999777
    vertex 1.716247999999958 3.6530029999999103 0.9084563999999777
    vertex 1.7433739999999573 3.66163799999991 0.9114571999999777
  endloop
endfacet
facet normal 0.30208125261067764 -0.9532038980598048 0.012216609380563608
  outer loop
    vertex 1.7433739999999573 3.66163799999991 0.9114571999999777
    vertex 1.716247999999958 3.6530029999999103 0.9084563999999777
    vertex 1.7164209999999573 3.6530539999999103 0.9081578999999775
  endloop
endfacet
facet normal 0.5387997696211675 -0.8406033426420988 -0.05550521232377498
  outer loop
    vertex 1.6797979999999588 3.630557999999911 0.9220081999999774
    vertex 1.697604999999958 3.6431179999999106 0.9046481999999779
    vertex 1.7032619999999583 3.64660999999991 0.9066768999999776
  endloop
endfacet
facet normal 0.3045796434479146 -0.9520630705557144 -0.028410393893192862
  outer loop
    vertex 1.7426269999999573 3.661371999999911 0.9134057999999776
    vertex 1.7152489999999578 3.6527059999999105 0.9103011999999776
    vertex 1.7430789999999572 3.6615489999999107 0.9123200999999775
  endloop
endfacet
facet normal 0.4230954397140506 -0.9060839910704774 0.0014317887306440076
  outer loop
    vertex 1.705168999999958 3.6481349999999106 0.9152818999999776
    vertex 1.706204999999958 3.6486159999999104 0.9135354999999775
    vertex 1.7139089999999577 3.6522119999999103 0.9126629999999776
  endloop
endfacet
facet normal 0.4630085223865962 -0.8794151805819119 -0.11068897126391704
  outer loop
    vertex 1.6964999999999582 3.6432629999999104 0.9177273999999774
    vertex 1.705168999999958 3.6481349999999106 0.9152818999999776
    vertex 1.7112829999999581 3.65110399999991 0.9172680999999776
  endloop
endfacet
facet normal 0.446324438821785 -0.8921740096826655 0.06942644854213514
  outer loop
    vertex 1.706204999999958 3.6486159999999104 0.9135354999999775
    vertex 1.7032619999999583 3.64660999999991 0.9066768999999776
    vertex 1.7107289999999578 3.6507549999999105 0.9119393999999775
  endloop
endfacet
facet normal 0.676604793790046 -0.6381682765370933 0.36735160792081123
  outer loop
    vertex 1.7032619999999583 3.64660999999991 0.9066768999999776
    vertex 1.6840269999999589 3.6343109999999106 0.9207387999999773
    vertex 1.6797979999999588 3.630557999999911 0.9220081999999774
  endloop
endfacet
facet normal 0.2999169973092206 -0.9537022979906357 0.022399141331799627
  outer loop
    vertex 1.7430789999999572 3.6615489999999107 0.9123200999999775
    vertex 1.7159249999999573 3.652933999999911 0.9090967999999776
    vertex 1.7432569999999574 3.6615909999999094 0.9117249999999777
  endloop
endfacet
facet normal 0.38946408937783084 -0.91772235607839 -0.07812426152627402
  outer loop
    vertex 1.7289509999999573 3.65413599999991 0.9442040999999768
    vertex 1.6965959999999582 3.6405269999999104 0.9427726999999769
    vertex 1.7361449999999574 3.6585599999999103 0.9280989999999772
  endloop
endfacet
facet normal 0.39226689951244237 -0.7691148724867656 -0.5045681247032572
  outer loop
    vertex 1.6880039999999585 3.637454999999911 0.9199754999999774
    vertex 1.6964999999999582 3.6432629999999104 0.9177273999999774
    vertex 1.7112829999999581 3.65110399999991 0.9172680999999776
  endloop
endfacet
facet normal 0.5130976119796051 -0.8561733670591126 0.06081123349750858
  outer loop
    vertex 1.6972009999999584 3.6436809999999102 0.9165788999999774
    vertex 1.7032619999999583 3.64660999999991 0.9066768999999776
    vertex 1.7016899999999582 3.6462649999999104 0.9150833999999776
  endloop
endfacet
facet normal 0.47549734305044117 -0.8755493607315912 -0.08553124384967895
  outer loop
    vertex 1.6972009999999584 3.6436809999999102 0.9165788999999774
    vertex 1.7016899999999582 3.6462649999999104 0.9150833999999776
    vertex 1.705168999999958 3.6481349999999106 0.9152818999999776
  endloop
endfacet
facet normal 0.47139491823257545 -0.8815538285193912 0.02548879140538697
  outer loop
    vertex 1.7107289999999578 3.6507549999999105 0.9119393999999775
    vertex 1.7032619999999583 3.64660999999991 0.9066768999999776
    vertex 1.709143999999958 3.6498099999999103 0.9085689999999775
  endloop
endfacet
facet normal 0.3245811561662914 -0.9447631572538834 -0.04549340344959361
  outer loop
    vertex 1.7361449999999574 3.6585599999999103 0.9280989999999772
    vertex 1.7062089999999581 3.648371999999911 0.9260895999999772
    vertex 1.739854999999957 3.660234999999911 0.9197838999999776
  endloop
endfacet
facet normal 0.10952459529615054 -0.9860665668814548 -0.12520818145726778
  outer loop
    vertex 1.7717309999999566 3.6646399999999097 0.9126201999999776
    vertex 1.7432569999999574 3.6615909999999094 0.9117249999999777
    vertex 1.7433739999999573 3.66163799999991 0.9114571999999777
  endloop
endfacet
facet normal 0.10112423910191567 -0.9831527367522475 -0.1522648497934592
  outer loop
    vertex 1.7700289999999568 3.6632489999999103 0.9203624999999773
    vertex 1.739854999999957 3.660234999999911 0.9197838999999776
    vertex 1.7709379999999562 3.66396299999991 0.9163559999999774
  endloop
endfacet
facet normal 0.10358977256844347 -0.9857270256794995 -0.13270791183748476
  outer loop
    vertex 1.739854999999957 3.660234999999911 0.9197838999999776
    vertex 1.7417059999999573 3.6609999999999103 0.9155464999999776
    vertex 1.7709379999999562 3.66396299999991 0.9163559999999774
  endloop
endfacet
facet normal 0.10112657185426309 -0.9830528856194571 -0.15290663994824852
  outer loop
    vertex 1.7361449999999574 3.6585599999999103 0.9280989999999772
    vertex 1.739854999999957 3.660234999999911 0.9197838999999776
    vertex 1.7700289999999568 3.6632489999999103 0.9203624999999773
  endloop
endfacet
facet normal 0.10298635186365854 -0.9840072127619106 -0.14533965928937304
  outer loop
    vertex 1.7681509999999567 3.6618549999999095 0.9284696999999772
    vertex 1.7361449999999574 3.6585599999999103 0.9280989999999772
    vertex 1.7700289999999568 3.6632489999999103 0.9203624999999773
  endloop
endfacet
facet normal 0.10393085375220266 -0.9816226607804855 -0.1600478974575366
  outer loop
    vertex 1.7709379999999562 3.66396299999991 0.9163559999999774
    vertex 1.7417059999999573 3.6609999999999103 0.9155464999999776
    vertex 1.7713799999999564 3.66433299999991 0.9143736999999775
  endloop
endfacet
facet normal 0.10728028966023692 -0.9869393713439645 -0.12017327798473396
  outer loop
    vertex 1.7715929999999567 3.6645189999999097 0.9133833999999776
    vertex 1.7430789999999572 3.6615489999999107 0.9123200999999775
    vertex 1.7716739999999562 3.6645909999999096 0.9128643999999776
  endloop
endfacet
facet normal 0.10642840190638594 -0.9935828556605232 -0.03828974020717088
  outer loop
    vertex 1.7716739999999562 3.6645909999999096 0.9128643999999776
    vertex 1.7430789999999572 3.6615489999999107 0.9123200999999775
    vertex 1.7432569999999574 3.6615909999999094 0.9117249999999777
  endloop
endfacet
facet normal 0.11021362931616824 -0.9791322562962558 -0.1707424393440646
  outer loop
    vertex 1.7716739999999562 3.6645909999999096 0.9128643999999776
    vertex 1.7432569999999574 3.6615909999999094 0.9117249999999777
    vertex 1.7717309999999566 3.6646399999999097 0.9126201999999776
  endloop
endfacet
facet normal 0.10241208420891747 -0.9699513196853613 -0.22069481744846586
  outer loop
    vertex 1.7289509999999573 3.65413599999991 0.9442040999999768
    vertex 1.7361449999999574 3.6585599999999103 0.9280989999999772
    vertex 1.7681509999999567 3.6618549999999095 0.9284696999999772
  endloop
endfacet
facet normal 0.11985100760348791 -0.9163683321022941 -0.3819748890915327
  outer loop
    vertex 1.7229769999999578 3.6471859999999103 0.9590028999999765
    vertex 1.7289509999999573 3.65413599999991 0.9442040999999768
    vertex 1.7645299999999566 3.6586549999999103 0.9445263999999768
  endloop
endfacet
facet normal 0.10581608925485124 -0.9863854739657351 -0.12588348582797296
  outer loop
    vertex 1.7417059999999573 3.6609999999999103 0.9155464999999776
    vertex 1.7426269999999573 3.661371999999911 0.9134057999999776
    vertex 1.7713799999999564 3.66433299999991 0.9143736999999775
  endloop
endfacet
facet normal 0.10646998645839338 -0.9811326639605927 -0.16137793434401188
  outer loop
    vertex 1.7713799999999564 3.66433299999991 0.9143736999999775
    vertex 1.7426269999999573 3.661371999999911 0.9134057999999776
    vertex 1.7715929999999567 3.6645189999999097 0.9133833999999776
  endloop
endfacet
facet normal 0.10718652311489338 -0.9874074044184966 -0.11635148027450286
  outer loop
    vertex 1.7426269999999573 3.661371999999911 0.9134057999999776
    vertex 1.7430789999999572 3.6615489999999107 0.9123200999999775
    vertex 1.7715929999999567 3.6645189999999097 0.9133833999999776
  endloop
endfacet
facet normal 0.12572558708095077 -0.9779841825384491 -0.1665533411785901
  outer loop
    vertex 1.7645299999999566 3.6586549999999103 0.9445263999999768
    vertex 1.7289509999999573 3.65413599999991 0.9442040999999768
    vertex 1.7681509999999567 3.6618549999999095 0.9284696999999772
  endloop
endfacet
facet normal 0.18201021531921402 -0.9550070758630058 -0.23416610892920514
  outer loop
    vertex 1.7614959999999567 3.6541569999999104 0.9605124999999765
    vertex 1.7229769999999578 3.6471859999999103 0.9590028999999765
    vertex 1.7645299999999566 3.6586549999999103 0.9445263999999768
  endloop
endfacet
facet normal 0.9215089343715566 -0.22182191507191917 -0.3187731511078447
  outer loop
    vertex 1.6588099999999595 3.549241999999912 0.9729302999999763
    vertex 1.6944731969393991 3.547042922344769 1.0775555918969595
    vertex 1.6919709999999584 3.537164999999913 1.0771959999999734
  endloop
endfacet
facet normal 0.9215089343715566 -0.22182191507191917 -0.3187731511078447
  outer loop
    vertex 1.6944731969393991 3.547042922344769 1.0775555918969595
    vertex 1.6588099999999595 3.549241999999912 0.9729302999999763
    vertex 1.6950749999999586 3.549418999999912 1.0776419999999736
  endloop
endfacet
facet normal 0.9460091295096126 -0.09024278032921426 -0.31132453723232006
  outer loop
    vertex 1.6588099999999595 3.549241999999912 0.9729302999999763
    vertex 1.6919709999999584 3.537164999999913 1.0771959999999734
    vertex 1.6902189999999584 3.524742999999913 1.0754729999999735
  endloop
endfacet
facet normal -0.0 -0.0 1.0
  outer loop
    vertex 1.9316511349201255 3.5456572804251993 0.09160160999999775
    vertex 1.9317849999999526 3.5543619999999123 0.09160160999999775
    vertex 1.9316097149829385 3.5543096094468236 0.09160160999999775
  endloop
endfacet
facet normal -0.0 -0.0 1.0
  outer loop
    vertex 1.9317849999999526 3.5543619999999123 0.09160160999999775
    vertex 1.9316511349201255 3.5456572804251993 0.09160160999999775
    vertex 1.9318179999999525 3.5469149999999128 0.09160160999999775
  endloop
endfacet
facet normal -0.8005023393060855 -0.15579890143391273 -0.578725070372341
  outer loop
    vertex 1.6576369999999592 3.5678539999999126 0.9695413999999762
    vertex 1.7860769999999562 3.550321999999912 0.7966016999999803
    vertex 1.6588099999999595 3.549241999999912 0.9729302999999763
  endloop
endfacet
facet normal -0.8005023393060855 -0.15579890143391273 -0.578725070372341
  outer loop
    vertex 1.7860769999999562 3.550321999999912 0.7966016999999803
    vertex 1.6576369999999592 3.5678539999999126 0.9695413999999762
    vertex 1.7819569999999565 3.569764999999912 0.7970652999999804
  endloop
endfacet
facet normal -0.8005023393060855 -0.15579890143391273 -0.578725070372341
  outer loop
    vertex 1.7819569999999565 3.569764999999912 0.7970652999999804
    vertex 1.6576369999999592 3.5678539999999126 0.9695413999999762
    vertex 1.6583149999999593 3.580153999999912 0.9652925999999763
  endloop
endfacet
facet normal -0.8005023393060855 -0.15579890143391273 -0.578725070372341
  outer loop
    vertex 1.7819569999999565 3.569764999999912 0.7970652999999804
    vertex 1.6583149999999593 3.580153999999912 0.9652925999999763
    vertex 1.7755229999999564 3.588195999999912 0.8010031999999804
  endloop
endfacet
facet normal -0.8005023393060855 -0.15579890143391273 -0.578725070372341
  outer loop
    vertex 1.7755229999999564 3.588195999999912 0.8010031999999804
    vertex 1.6583149999999593 3.580153999999912 0.9652925999999763
    vertex 1.6582969999999595 3.580162999999912 0.9653146999999763
  endloop
endfacet
facet normal -0.8005023393060855 -0.15579890143391273 -0.578725070372341
  outer loop
    vertex 1.7755229999999564 3.588195999999912 0.8010031999999804
    vertex 1.6582969999999595 3.580162999999912 0.9653146999999763
    vertex 1.662245999999959 3.5999849999999123 0.9545168999999766
  endloop
endfacet
facet normal -0.8005023393060855 -0.15579890143391273 -0.578725070372341
  outer loop
    vertex 1.7755229999999564 3.588195999999912 0.8010031999999804
    vertex 1.662245999999959 3.5999849999999123 0.9545168999999766
    vertex 1.7669889999999566 3.6048049999999114 0.8083369999999802
  endloop
endfacet
facet normal -0.8005023393060855 -0.15579890143391273 -0.578725070372341
  outer loop
    vertex 1.7669889999999566 3.6048049999999114 0.8083369999999802
    vertex 1.662245999999959 3.5999849999999123 0.9545168999999766
    vertex 1.669623999999959 3.6172689999999106 0.9396579999999769
  endloop
endfacet
facet normal -0.8005023393060855 -0.15579890143391273 -0.578725070372341
  outer loop
    vertex 1.7669889999999566 3.6048049999999114 0.8083369999999802
    vertex 1.669623999999959 3.6172689999999106 0.9396579999999769
    vertex 1.7568609999999567 3.618748999999912 0.81859149999998
  endloop
endfacet
facet normal -0.8005023393060855 -0.15579890143391273 -0.578725070372341
  outer loop
    vertex 1.7568609999999567 3.618748999999912 0.81859149999998
    vertex 1.669623999999959 3.6172689999999106 0.9396579999999769
    vertex 1.6797979999999588 3.630557999999911 0.9220081999999774
  endloop
endfacet
facet normal -0.8005023393060855 -0.15579890143391273 -0.578725070372341
  outer loop
    vertex 1.7568609999999567 3.618748999999912 0.81859149999998
    vertex 1.6797979999999588 3.630557999999911 0.9220081999999774
    vertex 1.7456069999999568 3.6297589999999107 0.8311948999999798
  endloop
endfacet
facet normal -0.8005023393060855 -0.15579890143391273 -0.578725070372341
  outer loop
    vertex 1.7456069999999568 3.6297589999999107 0.8311948999999798
    vertex 1.6797979999999588 3.630557999999911 0.9220081999999774
    vertex 1.7338709999999575 3.6375469999999104 0.8453320999999792
  endloop
endfacet
facet normal -0.8005023393060855 -0.15579890143391273 -0.578725070372341
  outer loop
    vertex 1.7338709999999575 3.6375469999999104 0.8453320999999792
    vertex 1.6797979999999588 3.630557999999911 0.9220081999999774
    vertex 1.6921579999999585 3.6393859999999107 0.9025340999999778
  endloop
endfacet
facet normal -0.8005023393060855 -0.15579890143391273 -0.578725070372341
  outer loop
    vertex 1.7338709999999575 3.6375469999999104 0.8453320999999792
    vertex 1.6921579999999585 3.6393859999999107 0.9025340999999778
    vertex 1.7101689999999583 3.6436199999999106 0.8764814999999784
  endloop
endfacet
facet normal 0.008594519072886522 -0.9999622391701329 -0.0012862642650748478
  outer loop
    vertex 1.6950749999999586 3.549418999999912 1.0776419999999736
    vertex 1.6588099999999595 3.549241999999912 0.9729302999999763
    vertex 1.7999999999999559 3.550321999999912 1.0767199591097294
  endloop
endfacet
facet normal -0.11884556754375122 0.9812927792445483 0.1514602669934061
  outer loop
    vertex 1.6919709999999584 3.537164999999913 1.0771959999999734
    vertex 1.7999999999999559 3.550321999999912 1.0767199591097294
    vertex 1.6588099999999595 3.549241999999912 0.9729302999999763
  endloop
endfacet
facet normal 0.021452533035893777 -0.14032649827015262 0.9898728517893501
  outer loop
    vertex 1.7999999999999559 3.550321999999912 1.0767199591097294
    vertex 1.6919709999999584 3.537164999999913 1.0771959999999734
    vertex 1.6902189999999584 3.524742999999913 1.0754729999999735
  endloop
endfacet
facet normal 0.009113880487923031 -0.03867828021491419 0.9992101519810878
  outer loop
    vertex 1.7999999999999559 3.550321999999912 1.0767199591097294
    vertex 1.6944731969393991 3.547042922344769 1.0775555918969595
    vertex 1.6919709999999584 3.537164999999913 1.0771959999999734
  endloop
endfacet
facet normal 0.009113880487923031 -0.03867828021491419 0.9992101519810878
  outer loop
    vertex 1.6944731969393991 3.547042922344769 1.0775555918969595
    vertex 1.7999999999999559 3.550321999999912 1.0767199591097294
    vertex 1.6950749999999586 3.549418999999912 1.0776419999999736
  endloop
endfacet
facet normal -0.009801347755602133 -0.10084114958407166 0.99485425873981
  outer loop
    vertex 1.7999999999999559 3.550321999999912 1.0767199591097294
    vertex 1.7196159999999576 3.581279999999912 1.0790659999999737
    vertex 1.699442999999958 3.561279999999912 1.0768399999999734
  endloop
endfacet
facet normal -0.003977164866756051 -0.08582808022884045 0.9963020238882657
  outer loop
    vertex 1.7999999999999559 3.550321999999912 1.0767199591097294
    vertex 1.7446759999999573 3.5942109999999117 1.0802799999999735
    vertex 1.7196159999999576 3.581279999999912 1.0790659999999737
  endloop
endfacet
facet normal 0.008351642255017144 -0.07038304364552696 0.9974850761985546
  outer loop
    vertex 1.7999999999999559 3.550321999999912 1.0767199591097294
    vertex 1.7727819999999568 3.5991049999999123 1.0803899999999733
    vertex 1.7446759999999573 3.5942109999999117 1.0802799999999735
  endloop
endfacet
facet normal 0.008215067509166911 0.064454096023926 0.9978868584020727
  outer loop
    vertex 1.7999999999999559 3.550321999999912 1.0767199591097294
    vertex 1.6954617289402034 3.5504687152921686 1.077571173251011
    vertex 1.6950749999999586 3.549418999999912 1.0776419999999736
  endloop
endfacet
facet normal 0.008215067509166911 0.064454096023926 0.9978868584020727
  outer loop
    vertex 1.6954617289402034 3.5504687152921686 1.077571173251011
    vertex 1.7999999999999559 3.550321999999912 1.0767199591097294
    vertex 1.699442999999958 3.561279999999912 1.0768399999999734
  endloop
endfacet
facet normal 0.028142273137363106 -0.059367710983012245 0.9978394096022163
  outer loop
    vertex 1.8009329999999557 3.595355999999912 1.0793729999999735
    vertex 1.7727819999999568 3.5991049999999123 1.0803899999999733
    vertex 1.7999999999999559 3.550321999999912 1.0767199591097294
  endloop
endfacet
facet normal 0.957646527655639 -0.28697008428715404 -0.023691745256968214
  outer loop
    vertex 1.7999999999999559 3.5737919999999126 0.7924357999999805
    vertex 1.7999999999999559 3.550321999999912 1.0767199591097294
    vertex 1.793069999999956 3.550321999999912 0.7966016999999803
  endloop
endfacet
facet normal -0.9890377820731919 0.14716200876552307 0.012149436523452165
  outer loop
    vertex 1.7999999999999559 3.5737919999999126 0.7924357999999805
    vertex 1.796558999999956 3.550321999999912 0.7966016999999803
    vertex 1.7999999999999559 3.550321999999912 1.0767199591097294
  endloop
endfacet
facet normal 0.9972844136555898 -0.0733967347727684 -0.006059505286933248
  outer loop
    vertex 1.7999999999999559 3.5737919999999126 0.7924357999999805
    vertex 1.7999999999999559 3.550321999999912 1.0767199591097294
    vertex 1.7982979999999558 3.550321999999912 0.7966016999999803
  endloop
endfacet
facet normal 0.9993364975509618 -0.0362985425208442 -0.002996743806028723
  outer loop
    vertex 1.7999999999999559 3.5737919999999126 0.7924357999999805
    vertex 1.7999999999999559 3.550321999999912 1.0767199591097294
    vertex 1.7991599999999561 3.550321999999912 0.7966016999999803
  endloop
endfacet
facet normal 1.0 -0.0 -0.0
  outer loop
    vertex 1.7999999999999559 3.6581119999999103 0.8629503999999789
    vertex 1.7999999999999559 3.550321999999912 1.0767199591097294
    vertex 1.7999999999999559 3.64987299999991 0.8399036999999795
  endloop
endfacet
facet normal 0.999066936880833 -0.035795997277298146 -0.0241640685827806
  outer loop
    vertex 1.8000389999999558 3.6616159999999103 0.9134644999999775
    vertex 1.8000769999999557 3.66123399999991 0.9156014999999774
    vertex 1.7999999999999559 3.550321999999912 1.0767199591097294
  endloop
endfacet
facet normal 0.9990809342378046 -0.03553107586621421 -0.02397560198002219
  outer loop
    vertex 1.8001519999999558 3.66043699999991 0.9198669999999775
    vertex 1.8002949999999558 3.6587169999999105 0.9283748999999772
    vertex 1.7999999999999559 3.550321999999912 1.0767199591097294
  endloop
endfacet
facet normal 0.9990574225516633 -0.03597683176250455 -0.024288557403846247
  outer loop
    vertex 1.8000769999999557 3.66123399999991 0.9156014999999774
    vertex 1.8001519999999558 3.66043699999991 0.9198669999999775
    vertex 1.7999999999999559 3.550321999999912 1.0767199591097294
  endloop
endfacet
facet normal 0.9989854067016956 -0.03732167199806126 -0.02520416624919549
  outer loop
    vertex 1.8000189999999558 3.66180399999991 0.9123933999999776
    vertex 1.8000389999999558 3.6616159999999103 0.9134644999999775
    vertex 1.7999999999999559 3.550321999999912 1.0767199591097294
  endloop
endfacet
facet normal 0.9991637686676818 -0.03388917115581266 -0.02287547726644123
  outer loop
    vertex 1.800009999999956 3.6618959999999103 0.9118639999999776
    vertex 1.8000189999999558 3.66180399999991 0.9123933999999776
    vertex 1.7999999999999559 3.550321999999912 1.0767199591097294
  endloop
endfacet
facet normal 0.9989598674127017 -0.03779050378054038 -0.02551589941214037
  outer loop
    vertex 1.8000049999999561 3.66194099999991 0.9116015999999777
    vertex 1.800009999999956 3.6618959999999103 0.9118639999999776
    vertex 1.7999999999999559 3.550321999999912 1.0767199591097294
  endloop
endfacet
facet normal 0.9984903318652701 -0.04551982908524777 -0.0307408902218626
  outer loop
    vertex 1.800001999999956 3.66196399999991 0.9114700999999776
    vertex 1.8000049999999561 3.66194099999991 0.9116015999999777
    vertex 1.7999999999999559 3.550321999999912 1.0767199591097294
  endloop
endfacet
facet normal 0.9999999979475456 5.720833072095298e-05 2.8846417582053965e-05
  outer loop
    vertex 1.7999989999999557 3.6635269999999096 0.886877699999978
    vertex 1.7999999999999559 3.550321999999912 1.0767199591097294
    vertex 1.7999999999999559 3.6581119999999103 0.8629503999999789
  endloop
endfacet
facet normal 0.9993569812036226 -0.029716269273067003 -0.020064083833381777
  outer loop
    vertex 1.7999999999999559 3.6619859999999105 0.9113379999999776
    vertex 1.800000999999956 3.6619749999999094 0.9114040999999776
    vertex 1.7999999999999559 3.550321999999912 1.0767199591097294
  endloop
endfacet
facet normal 0.9993569812036226 -0.029716269273067003 -0.020064083833381777
  outer loop
    vertex 1.7999999999999559 3.6619859999999105 0.9113379999999776
    vertex 1.800000999999956 3.6619749999999094 0.9114040999999776
    vertex 1.7999999999999559 3.550321999999912 1.0767199591097294
  endloop
endfacet
facet normal 0.9993127065414464 -0.03093368004116991 -0.020426012433158343
  outer loop
    vertex 1.8005479999999556 3.65474299999991 0.9453921999999769
    vertex 1.8009279999999557 3.6446459999999106 0.979274299999976
    vertex 1.7999999999999559 3.550321999999912 1.0767199591097294
  endloop
endfacet
facet normal 0.9991667422840722 -0.033875441098560805 -0.022765667216501317
  outer loop
    vertex 1.8002949999999558 3.6587169999999105 0.9283748999999772
    vertex 1.8005479999999556 3.65474299999991 0.9453921999999769
    vertex 1.7999999999999559 3.550321999999912 1.0767199591097294
  endloop
endfacet
facet normal 0.9995682115765582 -0.025289798211570767 -0.014960498389399697
  outer loop
    vertex 1.8009279999999557 3.6446459999999106 0.979274299999976
    vertex 1.801157999999956 3.62319799999991 1.0308979999999748
    vertex 1.7999999999999559 3.550321999999912 1.0767199591097294
  endloop
endfacet
facet normal 0.9993569812036226 -0.029716269273067003 -0.020064083833381777
  outer loop
    vertex 1.7999999999999559 3.6619859999999105 0.9113379999999776
    vertex 1.800000999999956 3.6619749999999094 0.9114040999999776
    vertex 1.7999999999999559 3.550321999999912 1.0767199591097294
  endloop
endfacet
facet normal 0.9993569812036226 -0.029716269273067003 -0.020064083833381777
  outer loop
    vertex 1.7999999999999559 3.6619859999999105 0.9113379999999776
    vertex 1.800000999999956 3.6619749999999094 0.9114040999999776
    vertex 1.7999999999999559 3.550321999999912 1.0767199591097294
  endloop
endfacet
facet normal 0.9993569812036226 -0.029716269273067003 -0.020064083833381777
  outer loop
    vertex 1.7999999999999559 3.6619859999999105 0.9113379999999776
    vertex 1.800000999999956 3.6619749999999094 0.9114040999999776
    vertex 1.7999999999999559 3.550321999999912 1.0767199591097294
  endloop
endfacet
facet normal 0.9993569812036226 -0.029716269273067003 -0.020064083833381777
  outer loop
    vertex 1.7999999999999559 3.6619859999999105 0.9113379999999776
    vertex 1.800000999999956 3.6619749999999094 0.9114040999999776
    vertex 1.7999999999999559 3.550321999999912 1.0767199591097294
  endloop
endfacet
facet normal 0.9993569812036226 -0.029716269273067003 -0.020064083833381777
  outer loop
    vertex 1.7999999999999559 3.6619859999999105 0.9113379999999776
    vertex 1.800000999999956 3.6619749999999094 0.9114040999999776
    vertex 1.7999999999999559 3.550321999999912 1.0767199591097294
  endloop
endfacet
facet normal 0.9993569812036226 -0.029716269273067003 -0.020064083833381777
  outer loop
    vertex 1.7999999999999559 3.6619859999999105 0.9113379999999776
    vertex 1.800000999999956 3.6619749999999094 0.9114040999999776
    vertex 1.7999999999999559 3.550321999999912 1.0767199591097294
  endloop
endfacet
facet normal 0.9993569812036226 -0.029716269273067003 -0.020064083833381777
  outer loop
    vertex 1.7999999999999559 3.6619859999999105 0.9113379999999776
    vertex 1.800000999999956 3.6619749999999094 0.9114040999999776
    vertex 1.7999999999999559 3.550321999999912 1.0767199591097294
  endloop
endfacet
facet normal 0.9993569812036226 -0.029716269273067003 -0.020064083833381777
  outer loop
    vertex 1.7999999999999559 3.6619859999999105 0.9113379999999776
    vertex 1.800000999999956 3.6619749999999094 0.9114040999999776
    vertex 1.7999999999999559 3.550321999999912 1.0767199591097294
  endloop
endfacet
facet normal 0.9993569812036226 -0.029716269273067003 -0.020064083833381777
  outer loop
    vertex 1.7999999999999559 3.6619859999999105 0.9113379999999776
    vertex 1.800000999999956 3.6619749999999094 0.9114040999999776
    vertex 1.7999999999999559 3.550321999999912 1.0767199591097294
  endloop
endfacet
facet normal 0.9993569812036226 -0.029716269273067003 -0.020064083833381777
  outer loop
    vertex 1.7999999999999559 3.6619859999999105 0.9113379999999776
    vertex 1.800000999999956 3.6619749999999094 0.9114040999999776
    vertex 1.7999999999999559 3.550321999999912 1.0767199591097294
  endloop
endfacet
facet normal 0.9990574225516633 -0.03597683176250455 -0.024288557403846247
  outer loop
    vertex 1.8000769999999557 3.66123399999991 0.9156014999999774
    vertex 1.8001519999999558 3.66043699999991 0.9198669999999775
    vertex 1.7999999999999559 3.550321999999912 1.0767199591097294
  endloop
endfacet
facet normal 0.9997693095641736 -0.02029941910877172 -0.007018635011328499
  outer loop
    vertex 1.801157999999956 3.62319799999991 1.0308979999999748
    vertex 1.8009329999999557 3.595355999999912 1.0793729999999735
    vertex 1.7999999999999559 3.550321999999912 1.0767199591097294
  endloop
endfacet
facet normal 0.9990809342378049 -0.035531075866214214 -0.023975601980022198
  outer loop
    vertex 1.8001519999999558 3.66043699999991 0.9198669999999775
    vertex 1.8002949999999558 3.6587169999999105 0.9283748999999772
    vertex 1.7999999999999559 3.550321999999912 1.0767199591097294
  endloop
endfacet
facet normal 0.999066936880833 -0.035795997277298146 -0.0241640685827806
  outer loop
    vertex 1.8000389999999558 3.6616159999999103 0.9134644999999775
    vertex 1.8000769999999557 3.66123399999991 0.9156014999999774
    vertex 1.7999999999999559 3.550321999999912 1.0767199591097294
  endloop
endfacet
facet normal 0.9993543947290273 -0.029775949659624722 -0.020104391501538157
  outer loop
    vertex 1.800000999999956 3.6619749999999094 0.9114040999999776
    vertex 1.800001999999956 3.66196399999991 0.9114700999999776
    vertex 1.7999999999999559 3.550321999999912 1.0767199591097294
  endloop
endfacet
facet normal 0.9993543947290273 -0.029775949659624722 -0.020104391501538157
  outer loop
    vertex 1.800000999999956 3.6619749999999094 0.9114040999999776
    vertex 1.800001999999956 3.66196399999991 0.9114700999999776
    vertex 1.7999999999999559 3.550321999999912 1.0767199591097294
  endloop
endfacet
facet normal 0.9989854067016956 -0.03732167199806126 -0.02520416624919549
  outer loop
    vertex 1.8000189999999558 3.66180399999991 0.9123933999999776
    vertex 1.8000389999999558 3.6616159999999103 0.9134644999999775
    vertex 1.7999999999999559 3.550321999999912 1.0767199591097294
  endloop
endfacet
facet normal 0.9993543947290273 -0.029775949659624722 -0.020104391501538157
  outer loop
    vertex 1.800000999999956 3.6619749999999094 0.9114040999999776
    vertex 1.800001999999956 3.66196399999991 0.9114700999999776
    vertex 1.7999999999999559 3.550321999999912 1.0767199591097294
  endloop
endfacet
facet normal 0.9999999967536033 -6.678102351911626e-05 -4.508978035076863e-05
  outer loop
    vertex 1.7999989999999557 3.6635269999999096 0.886877699999978
    vertex 1.7999999999999559 3.6619859999999105 0.9113379999999776
    vertex 1.7999999999999559 3.550321999999912 1.0767199591097294
  endloop
endfacet
facet normal 0.9984903318652701 -0.04551982908524777 -0.0307408902218626
  outer loop
    vertex 1.800001999999956 3.66196399999991 0.9114700999999776
    vertex 1.8000049999999561 3.66194099999991 0.9116015999999777
    vertex 1.7999999999999559 3.550321999999912 1.0767199591097294
  endloop
endfacet
facet normal 0.9991637686676818 -0.03388917115581266 -0.02287547726644123
  outer loop
    vertex 1.800009999999956 3.6618959999999103 0.9118639999999776
    vertex 1.8000189999999558 3.66180399999991 0.9123933999999776
    vertex 1.7999999999999559 3.550321999999912 1.0767199591097294
  endloop
endfacet
facet normal 0.9989598674127017 -0.03779050378054038 -0.02551589941214037
  outer loop
    vertex 1.8000049999999561 3.66194099999991 0.9116015999999777
    vertex 1.800009999999956 3.6618959999999103 0.9118639999999776
    vertex 1.7999999999999559 3.550321999999912 1.0767199591097294
  endloop
endfacet
facet normal 0.9993543947290273 -0.029775949659624722 -0.020104391501538157
  outer loop
    vertex 1.800000999999956 3.6619749999999094 0.9114040999999776
    vertex 1.800001999999956 3.66196399999991 0.9114700999999776
    vertex 1.7999999999999559 3.550321999999912 1.0767199591097294
  endloop
endfacet
facet normal 0.9993543947290273 -0.029775949659624722 -0.020104391501538157
  outer loop
    vertex 1.800000999999956 3.6619749999999094 0.9114040999999776
    vertex 1.800001999999956 3.66196399999991 0.9114700999999776
    vertex 1.7999999999999559 3.550321999999912 1.0767199591097294
  endloop
endfacet
facet normal 0.9993543947290273 -0.029775949659624722 -0.020104391501538157
  outer loop
    vertex 1.800000999999956 3.6619749999999094 0.9114040999999776
    vertex 1.800001999999956 3.66196399999991 0.9114700999999776
    vertex 1.7999999999999559 3.550321999999912 1.0767199591097294
  endloop
endfacet
facet normal 0.9993543947290273 -0.029775949659624722 -0.020104391501538157
  outer loop
    vertex 1.800000999999956 3.6619749999999094 0.9114040999999776
    vertex 1.800001999999956 3.66196399999991 0.9114700999999776
    vertex 1.7999999999999559 3.550321999999912 1.0767199591097294
  endloop
endfacet
facet normal 0.9993543947290273 -0.029775949659624722 -0.020104391501538157
  outer loop
    vertex 1.800000999999956 3.6619749999999094 0.9114040999999776
    vertex 1.800001999999956 3.66196399999991 0.9114700999999776
    vertex 1.7999999999999559 3.550321999999912 1.0767199591097294
  endloop
endfacet
facet normal 1.0 0.0 0.0
  outer loop
    vertex 1.7999999999999559 3.6581119999999103 0.8629503999999789
    vertex 1.7999999999999559 3.550321999999912 1.0767199591097294
    vertex 1.7999999999999559 3.64987299999991 0.8399036999999795
  endloop
endfacet
facet normal 0.9993543947290273 -0.029775949659624722 -0.020104391501538157
  outer loop
    vertex 1.800000999999956 3.6619749999999094 0.9114040999999776
    vertex 1.800001999999956 3.66196399999991 0.9114700999999776
    vertex 1.7999999999999559 3.550321999999912 1.0767199591097294
  endloop
endfacet
facet normal 1.0 0.0 0.0
  outer loop
    vertex 1.7999999999999559 3.5974219999999115 0.7952449999999804
    vertex 1.7999999999999559 3.550321999999912 1.0767199591097294
    vertex 1.7999999999999559 3.5737919999999126 0.7924357999999805
  endloop
endfacet
facet normal 0.9998340004961613 -0.018158306571286066 -0.0014991178423823565
  outer loop
    vertex 1.7999999999999559 3.5737919999999126 0.7924357999999805
    vertex 1.7999999999999559 3.550321999999912 1.0767199591097294
    vertex 1.7995799999999558 3.550321999999912 0.7966016999999803
  endloop
endfacet
facet normal 0.9993543947290273 -0.029775949659624722 -0.020104391501538157
  outer loop
    vertex 1.800000999999956 3.6619749999999094 0.9114040999999776
    vertex 1.800001999999956 3.66196399999991 0.9114700999999776
    vertex 1.7999999999999559 3.550321999999912 1.0767199591097294
  endloop
endfacet
facet normal 0.9993543947290273 -0.029775949659624722 -0.020104391501538157
  outer loop
    vertex 1.800000999999956 3.6619749999999094 0.9114040999999776
    vertex 1.800001999999956 3.66196399999991 0.9114700999999776
    vertex 1.7999999999999559 3.550321999999912 1.0767199591097294
  endloop
endfacet
facet normal 1.0 0.0 0.0
  outer loop
    vertex 1.7999999999999559 3.6189489999999114 0.8045798999999803
    vertex 1.7999999999999559 3.550321999999912 1.0767199591097294
    vertex 1.7999999999999559 3.5974219999999115 0.7952449999999804
  endloop
endfacet
facet normal 0.9993543947290273 -0.029775949659624722 -0.020104391501538157
  outer loop
    vertex 1.800000999999956 3.6619749999999094 0.9114040999999776
    vertex 1.800001999999956 3.66196399999991 0.9114700999999776
    vertex 1.7999999999999559 3.550321999999912 1.0767199591097294
  endloop
endfacet
facet normal 0.9993543947290273 -0.029775949659624722 -0.020104391501538157
  outer loop
    vertex 1.800000999999956 3.6619749999999094 0.9114040999999776
    vertex 1.800001999999956 3.66196399999991 0.9114700999999776
    vertex 1.7999999999999559 3.550321999999912 1.0767199591097294
  endloop
endfacet
facet normal 1.0 0.0 0.0
  outer loop
    vertex 1.7999999999999559 3.636901999999911 0.8197723999999799
    vertex 1.7999999999999559 3.550321999999912 1.0767199591097294
    vertex 1.7999999999999559 3.6189489999999114 0.8045798999999803
  endloop
endfacet
facet normal 1.0 0.0 0.0
  outer loop
    vertex 1.7999999999999559 3.64987299999991 0.8399036999999795
    vertex 1.7999999999999559 3.550321999999912 1.0767199591097294
    vertex 1.7999999999999559 3.636901999999911 0.8197723999999799
  endloop
endfacet
facet normal 0.9993543947290273 -0.029775949659624722 -0.020104391501538157
  outer loop
    vertex 1.800000999999956 3.6619749999999094 0.9114040999999776
    vertex 1.800001999999956 3.66196399999991 0.9114700999999776
    vertex 1.7999999999999559 3.550321999999912 1.0767199591097294
  endloop
endfacet
facet normal 0.0 -1.0 0.0
  outer loop
    vertex 1.7999999999999559 3.550321999999912 1.0767199591097294
    vertex 1.7991599999999561 3.550321999999912 0.7966016999999803
    vertex 1.7995799999999558 3.550321999999912 0.7966016999999803
  endloop
endfacet
facet normal 0.0 -1.0 0.0
  outer loop
    vertex 1.7999999999999559 3.550321999999912 1.0767199591097294
    vertex 1.793069999999956 3.550321999999912 0.7966016999999803
    vertex 1.796558999999956 3.550321999999912 0.7966016999999803
  endloop
endfacet
facet normal 0.007939102041682005 -0.9999684069736998 -0.00039460518595836895
  outer loop
    vertex 1.7999999999999559 3.550321999999912 1.0767199591097294
    vertex 1.6588099999999595 3.549241999999912 0.9729302999999763
    vertex 1.7860769999999562 3.550321999999912 0.7966016999999803
  endloop
endfacet
facet normal 0.0 -1.0 0.0
  outer loop
    vertex 1.7999999999999559 3.550321999999912 1.0767199591097294
    vertex 1.7982979999999558 3.550321999999912 0.7966016999999803
    vertex 1.7991599999999561 3.550321999999912 0.7966016999999803
  endloop
endfacet
facet normal 0.22029434183748112 -0.9313316703256551 -0.2899857286192138
  outer loop
    vertex 1.7999999999999559 3.550321999999912 1.0767199591097294
    vertex 1.6902189999999584 3.524742999999913 1.0754729999999735
    vertex 1.6588099999999595 3.549241999999912 0.9729302999999763
  endloop
endfacet
facet normal 0.0 -1.0 0.0
  outer loop
    vertex 1.7999999999999559 3.550321999999912 1.0767199591097294
    vertex 1.7860769999999562 3.550321999999912 0.7966016999999803
    vertex 1.793069999999956 3.550321999999912 0.7966016999999803
  endloop
endfacet
facet normal 0.0 -1.0 0.0
  outer loop
    vertex 1.7999999999999559 3.550321999999912 1.0767199591097294
    vertex 1.796558999999956 3.550321999999912 0.7966016999999803
    vertex 1.7982979999999558 3.550321999999912 0.7966016999999803
  endloop
endfacet
endsolid 2015new_separate_human-HUTA
